%TF.GenerationSoftware,KiCad,Pcbnew,9.0.4-9.0.4-0~ubuntu22.04.1*%
%TF.CreationDate,2025-09-26T09:07:13-04:00*%
%TF.ProjectId,shimarray,7368696d-6172-4726-9179-2e6b69636164,rev?*%
%TF.SameCoordinates,Original*%
%TF.FileFunction,Copper,L3,Inr*%
%TF.FilePolarity,Positive*%
%FSLAX46Y46*%
G04 Gerber Fmt 4.6, Leading zero omitted, Abs format (unit mm)*
G04 Created by KiCad (PCBNEW 9.0.4-9.0.4-0~ubuntu22.04.1) date 2025-09-26 09:07:13*
%MOMM*%
%LPD*%
G01*
G04 APERTURE LIST*
G04 Aperture macros list*
%AMRoundRect*
0 Rectangle with rounded corners*
0 $1 Rounding radius*
0 $2 $3 $4 $5 $6 $7 $8 $9 X,Y pos of 4 corners*
0 Add a 4 corners polygon primitive as box body*
4,1,4,$2,$3,$4,$5,$6,$7,$8,$9,$2,$3,0*
0 Add four circle primitives for the rounded corners*
1,1,$1+$1,$2,$3*
1,1,$1+$1,$4,$5*
1,1,$1+$1,$6,$7*
1,1,$1+$1,$8,$9*
0 Add four rect primitives between the rounded corners*
20,1,$1+$1,$2,$3,$4,$5,0*
20,1,$1+$1,$4,$5,$6,$7,0*
20,1,$1+$1,$6,$7,$8,$9,0*
20,1,$1+$1,$8,$9,$2,$3,0*%
G04 Aperture macros list end*
%TA.AperFunction,ComponentPad*%
%ADD10C,1.440000*%
%TD*%
%TA.AperFunction,ComponentPad*%
%ADD11R,1.000000X1.000000*%
%TD*%
%TA.AperFunction,ComponentPad*%
%ADD12C,1.000000*%
%TD*%
%TA.AperFunction,ComponentPad*%
%ADD13RoundRect,0.250000X1.050000X-1.050000X1.050000X1.050000X-1.050000X1.050000X-1.050000X-1.050000X0*%
%TD*%
%TA.AperFunction,ComponentPad*%
%ADD14C,2.600000*%
%TD*%
%TA.AperFunction,ViaPad*%
%ADD15C,0.350000*%
%TD*%
%TA.AperFunction,Conductor*%
%ADD16C,0.400000*%
%TD*%
%TA.AperFunction,Conductor*%
%ADD17C,0.200000*%
%TD*%
%TA.AperFunction,Conductor*%
%ADD18C,0.090000*%
%TD*%
G04 APERTURE END LIST*
D10*
%TO.N,GND*%
%TO.C,RV1*%
X112540000Y-178995000D03*
%TO.N,Net-(U2B-+)*%
X110000000Y-178995000D03*
%TO.N,-15V*%
X107460000Y-178995000D03*
%TD*%
D11*
%TO.N,unconnected-(J2-Pin_1-Pad1)*%
%TO.C,J2*%
X134730000Y-204000000D03*
D12*
%TO.N,unconnected-(J2-Pin_2-Pad2)*%
X134730000Y-205270000D03*
%TO.N,+3.3V*%
X136000000Y-204000000D03*
%TO.N,/SWDIO*%
X136000000Y-205270000D03*
%TO.N,GND*%
X137270000Y-204000000D03*
%TO.N,/SWCLK*%
X137270000Y-205270000D03*
%TO.N,GND*%
X138540000Y-204000000D03*
%TO.N,unconnected-(J2-Pin_8-Pad8)*%
X138540000Y-205270000D03*
%TO.N,unconnected-(J2-Pin_9-Pad9)*%
X139810000Y-204000000D03*
%TO.N,unconnected-(J2-Pin_10-Pad10)*%
X139810000Y-205270000D03*
%TO.N,unconnected-(J2-Pin_11-Pad11)*%
X141080000Y-204000000D03*
%TO.N,/~{RST}*%
X141080000Y-205270000D03*
%TO.N,/RX*%
X142350000Y-204000000D03*
%TO.N,/TX*%
X142350000Y-205270000D03*
%TD*%
D13*
%TO.N,VD*%
%TO.C,J4*%
X109500000Y-163000000D03*
D14*
%TO.N,+3.3V*%
X109500000Y-158000000D03*
%TO.N,+15V*%
X109500000Y-153000000D03*
%TO.N,-15V*%
X109500000Y-148000000D03*
%TO.N,GND*%
X109500000Y-143000000D03*
%TD*%
D15*
%TO.N,GND*%
X177700000Y-130500000D03*
X170900000Y-149900000D03*
X144900000Y-110900000D03*
X127714284Y-110000000D03*
X159200000Y-166500000D03*
X185200000Y-166500000D03*
X183900000Y-110900000D03*
X127714284Y-129500000D03*
X157900000Y-110900000D03*
X178900000Y-134000000D03*
X133750000Y-138000000D03*
X151700000Y-169500000D03*
X159200000Y-179500000D03*
X177700000Y-117500000D03*
X209900000Y-110900000D03*
X178900000Y-186800000D03*
X133750000Y-118500000D03*
X204900000Y-173000000D03*
X178900000Y-160000000D03*
X135500000Y-192250000D03*
X177700000Y-156500000D03*
X159200000Y-140500000D03*
X139900000Y-160000000D03*
X139750000Y-105250000D03*
X146200000Y-166500000D03*
X211200000Y-179500000D03*
X134250000Y-193000000D03*
X164700000Y-182500000D03*
X191900000Y-147000000D03*
X190700000Y-169500000D03*
X152900000Y-173000000D03*
X144900000Y-186000000D03*
X129750000Y-198750000D03*
X157800000Y-186800000D03*
X133750000Y-112000000D03*
X133750000Y-164000000D03*
X172200000Y-153500000D03*
X204900000Y-160000000D03*
X191900000Y-108000000D03*
X152900000Y-108000000D03*
X198200000Y-166500000D03*
X211200000Y-114500000D03*
X139900000Y-147000000D03*
X183900000Y-175900000D03*
X151700000Y-182500000D03*
X203700000Y-130500000D03*
X185200000Y-179500000D03*
X191900000Y-173000000D03*
X204800000Y-186800000D03*
X172200000Y-127500000D03*
X144900000Y-175900000D03*
X209000000Y-188250000D03*
X177700000Y-169500000D03*
X191900000Y-121000000D03*
X190700000Y-143500000D03*
X192000000Y-186800000D03*
X179250000Y-105250000D03*
X196900000Y-175900000D03*
X127714284Y-181500000D03*
X185200000Y-153500000D03*
X183400000Y-186800000D03*
X170250000Y-105250000D03*
X178900000Y-121000000D03*
X152900000Y-121000000D03*
X183250000Y-105250000D03*
X198200000Y-140500000D03*
X211200000Y-166500000D03*
X127714284Y-162000000D03*
X172200000Y-114500000D03*
X146200000Y-179500000D03*
X210000000Y-105250000D03*
X146200000Y-153500000D03*
X197000000Y-186800000D03*
X130000000Y-190000000D03*
X146200000Y-127500000D03*
X138700000Y-117500000D03*
X128750000Y-202500000D03*
X165800000Y-186800000D03*
X204900000Y-134000000D03*
X135250000Y-195000000D03*
X151700000Y-130500000D03*
X209900000Y-175900000D03*
X153000000Y-105250000D03*
X178900000Y-108000000D03*
X183900000Y-162900000D03*
X139900000Y-108000000D03*
X159200000Y-153500000D03*
X127714284Y-123000000D03*
X132500000Y-183250000D03*
X138700000Y-169500000D03*
X144900000Y-162900000D03*
X165900000Y-160000000D03*
X151700000Y-143500000D03*
X211200000Y-140500000D03*
X203700000Y-156500000D03*
X196900000Y-123900000D03*
X133750000Y-131500000D03*
X204900000Y-108000000D03*
X190700000Y-130500000D03*
X152600000Y-186800000D03*
X204900000Y-147000000D03*
X138700000Y-182500000D03*
X157250000Y-105250000D03*
X203700000Y-143500000D03*
X133750000Y-125000000D03*
X133750000Y-150750000D03*
X185200000Y-114500000D03*
X196900000Y-110900000D03*
X178900000Y-147000000D03*
X198200000Y-127500000D03*
X211200000Y-153500000D03*
X144900000Y-123900000D03*
X185200000Y-140500000D03*
X152900000Y-134000000D03*
X133750000Y-177000000D03*
X139900000Y-186000000D03*
X191900000Y-134000000D03*
X190700000Y-117500000D03*
X152900000Y-160000000D03*
X190700000Y-182500000D03*
X196900000Y-136900000D03*
X157900000Y-136900000D03*
X165900000Y-147000000D03*
X127750000Y-155500000D03*
X166000000Y-105250000D03*
X170900000Y-175900000D03*
X165900000Y-173000000D03*
X170900000Y-162900000D03*
X119500000Y-201500000D03*
X127714284Y-149100000D03*
X119500000Y-191000000D03*
X165900000Y-108000000D03*
X144900000Y-136900000D03*
X164700000Y-156500000D03*
X164700000Y-143500000D03*
X165900000Y-134000000D03*
X209900000Y-162900000D03*
X198200000Y-114500000D03*
X170800000Y-186800000D03*
X138700000Y-143500000D03*
X139900000Y-121000000D03*
X170900000Y-136900000D03*
X127714284Y-142500000D03*
X139900000Y-134000000D03*
X198200000Y-179500000D03*
X190700000Y-156500000D03*
X172200000Y-140500000D03*
X211200000Y-127500000D03*
X159200000Y-114500000D03*
X203700000Y-117500000D03*
X196250000Y-105250000D03*
X203700000Y-182500000D03*
X183900000Y-136900000D03*
X164700000Y-169500000D03*
X183900000Y-149900000D03*
X204750000Y-105250000D03*
X139900000Y-173000000D03*
X204900000Y-121000000D03*
X133750000Y-144500000D03*
X127714284Y-136000000D03*
X177700000Y-182500000D03*
X196900000Y-162900000D03*
X172200000Y-179500000D03*
X209900000Y-136900000D03*
X159200000Y-127500000D03*
X170900000Y-123900000D03*
X192000000Y-105250000D03*
X170900000Y-110900000D03*
X138700000Y-130500000D03*
X203700000Y-169500000D03*
X157900000Y-123900000D03*
X157900000Y-175900000D03*
X144900000Y-149900000D03*
X198200000Y-153500000D03*
X183900000Y-123900000D03*
X157900000Y-149900000D03*
X133750000Y-170500000D03*
X178900000Y-173000000D03*
X164700000Y-117500000D03*
X146200000Y-140500000D03*
X127714284Y-168500000D03*
X151700000Y-117500000D03*
X177700000Y-143500000D03*
X146200000Y-114500000D03*
X165900000Y-121000000D03*
X196900000Y-149900000D03*
X157900000Y-162900000D03*
X164700000Y-130500000D03*
X144250000Y-105250000D03*
X172200000Y-166500000D03*
X209900000Y-149900000D03*
X127714284Y-175000000D03*
X151700000Y-156500000D03*
X127714284Y-116500000D03*
X138700000Y-156500000D03*
X191900000Y-160000000D03*
X133750000Y-157500000D03*
X152900000Y-147000000D03*
X185200000Y-127500000D03*
X209900000Y-123900000D03*
%TO.N,VD*%
X182550000Y-123650000D03*
X148500000Y-120000000D03*
X182550000Y-162650000D03*
X148000000Y-107750000D03*
X156550000Y-112150000D03*
X215050000Y-179400000D03*
X174750000Y-146750000D03*
X156550000Y-147650000D03*
X163050000Y-140400000D03*
X168750000Y-178500000D03*
X202050000Y-156400000D03*
X192000000Y-113500000D03*
X172500000Y-172000000D03*
X162000000Y-131700000D03*
X207250000Y-153250000D03*
X189100000Y-157700000D03*
X163100000Y-118700000D03*
X194750000Y-178500000D03*
X189050000Y-114400000D03*
X189050000Y-128150000D03*
X162000000Y-170700000D03*
X210750000Y-120000000D03*
X189100000Y-183700000D03*
X185500000Y-120000000D03*
X148500000Y-133000000D03*
X172500000Y-107000000D03*
X181800000Y-163650000D03*
X189050000Y-117400000D03*
X187750000Y-146750000D03*
X194750000Y-113500000D03*
X201250000Y-172000000D03*
X206500000Y-127250000D03*
X156550000Y-148400000D03*
X146500000Y-120000000D03*
X145000000Y-107000000D03*
X208550000Y-172900000D03*
X215050000Y-117400000D03*
X214250000Y-172000000D03*
X175250000Y-146000000D03*
X178300000Y-139500000D03*
X169550000Y-149650000D03*
X174750000Y-159750000D03*
X208550000Y-135400000D03*
X150000000Y-142500000D03*
X175250000Y-107000000D03*
X154500000Y-179250000D03*
X214100000Y-130400000D03*
X202050000Y-115900000D03*
X149100000Y-117400000D03*
X163050000Y-117400000D03*
X189000000Y-142500000D03*
X169550000Y-172900000D03*
X195550000Y-161400000D03*
X213500000Y-133000000D03*
X161750000Y-146750000D03*
X143550000Y-107900000D03*
X142250000Y-114250000D03*
X194750000Y-152500000D03*
X176100000Y-118700000D03*
X155800000Y-137650000D03*
X194750000Y-139500000D03*
X197000000Y-107000000D03*
X202000000Y-168500000D03*
X176100000Y-170700000D03*
X212750000Y-146000000D03*
X202050000Y-114400000D03*
X185500000Y-146000000D03*
X208550000Y-159900000D03*
X202050000Y-182400000D03*
X154250000Y-152500000D03*
X185500000Y-159000000D03*
X178300000Y-126500000D03*
X215050000Y-115900000D03*
X208550000Y-146900000D03*
X143550000Y-172900000D03*
X143550000Y-148400000D03*
X201100000Y-169400000D03*
X168750000Y-139500000D03*
X198500000Y-172000000D03*
X163050000Y-130400000D03*
X140000000Y-126500000D03*
X154250000Y-165500000D03*
X215050000Y-182400000D03*
X154250000Y-113500000D03*
X195550000Y-175650000D03*
X155250000Y-140250000D03*
X147750000Y-133000000D03*
X208550000Y-149650000D03*
X169550000Y-148400000D03*
X176050000Y-153400000D03*
X202100000Y-118700000D03*
X202050000Y-140400000D03*
X202050000Y-115150000D03*
X195550000Y-149650000D03*
X150000000Y-155500000D03*
X211500000Y-133000000D03*
X181000000Y-178500000D03*
X179000000Y-178500000D03*
X155000000Y-178500000D03*
X191300000Y-152500000D03*
X215050000Y-140400000D03*
X165300000Y-152500000D03*
X168000000Y-165500000D03*
X156550000Y-121650000D03*
X213000000Y-133750000D03*
X150050000Y-140400000D03*
X189100000Y-170700000D03*
X176050000Y-128900000D03*
X176050000Y-128150000D03*
X182550000Y-108650000D03*
X187000000Y-172750000D03*
X208550000Y-120900000D03*
X179000000Y-165500000D03*
X163100000Y-157700000D03*
X156550000Y-138150000D03*
X159500000Y-172000000D03*
X173750000Y-133000000D03*
X184750000Y-146000000D03*
X206500000Y-153250000D03*
X169550000Y-161400000D03*
X187750000Y-133750000D03*
X176000000Y-116500000D03*
X179000000Y-113500000D03*
X163000000Y-116500000D03*
X204300000Y-152500000D03*
X214100000Y-156400000D03*
X187750000Y-159750000D03*
X207800000Y-111650000D03*
X200500000Y-120000000D03*
X148750000Y-159750000D03*
X169550000Y-110650000D03*
X156550000Y-151150000D03*
X200500000Y-133000000D03*
X189050000Y-169400000D03*
X169550000Y-107900000D03*
X201250000Y-146000000D03*
X174000000Y-120750000D03*
X180250000Y-126500000D03*
X169550000Y-109400000D03*
X156550000Y-160650000D03*
X153000000Y-178500000D03*
X167250000Y-139500000D03*
X156550000Y-172900000D03*
X161500000Y-107000000D03*
X142250000Y-166250000D03*
X142250000Y-140250000D03*
X202050000Y-127400000D03*
X181000000Y-152500000D03*
X202050000Y-167150000D03*
X155000000Y-113500000D03*
X149100000Y-182400000D03*
X182550000Y-159900000D03*
X143550000Y-162650000D03*
X150050000Y-167150000D03*
X155800000Y-150650000D03*
X212750000Y-159000000D03*
X156550000Y-149650000D03*
X161000000Y-133750000D03*
X205000000Y-165500000D03*
X175100000Y-156400000D03*
X167500000Y-153250000D03*
X181800000Y-137650000D03*
X174500000Y-133000000D03*
X202050000Y-180900000D03*
X189100000Y-118700000D03*
X175000000Y-144700000D03*
X178300000Y-152500000D03*
X162250000Y-159000000D03*
X214250000Y-120000000D03*
X182550000Y-120900000D03*
X140000000Y-113500000D03*
X163000000Y-168500000D03*
X162100000Y-117400000D03*
X186750000Y-120000000D03*
X201000000Y-118700000D03*
X163050000Y-128900000D03*
X139300000Y-178500000D03*
X161000000Y-120750000D03*
X201100000Y-130400000D03*
X149000000Y-118700000D03*
X169550000Y-174400000D03*
X198500000Y-120000000D03*
X141250000Y-165500000D03*
X207000000Y-139500000D03*
X142250000Y-153250000D03*
X208550000Y-147650000D03*
X182550000Y-138150000D03*
X171750000Y-172000000D03*
X188250000Y-172000000D03*
X148500000Y-146000000D03*
X200750000Y-159750000D03*
X189000000Y-168500000D03*
X159500000Y-120000000D03*
X143550000Y-174400000D03*
X142000000Y-113500000D03*
X193250000Y-113500000D03*
X139300000Y-139500000D03*
X201100000Y-156400000D03*
X142750000Y-165500000D03*
X158750000Y-133000000D03*
X195550000Y-125150000D03*
X176050000Y-115150000D03*
X171750000Y-133000000D03*
X187500000Y-159000000D03*
X205000000Y-113500000D03*
X207800000Y-176650000D03*
X202100000Y-170700000D03*
X163050000Y-166400000D03*
X185500000Y-133000000D03*
X141500000Y-166250000D03*
X142000000Y-152500000D03*
X191300000Y-165500000D03*
X148000000Y-133750000D03*
X197750000Y-133000000D03*
X201000000Y-131700000D03*
X195550000Y-164150000D03*
X156550000Y-123650000D03*
X143550000Y-159900000D03*
X150050000Y-167900000D03*
X162100000Y-130400000D03*
X181000000Y-126500000D03*
X200750000Y-172750000D03*
X148000000Y-120750000D03*
X176100000Y-183700000D03*
X169550000Y-112150000D03*
X182550000Y-149650000D03*
X213500000Y-159000000D03*
X215100000Y-144700000D03*
X169550000Y-164150000D03*
X206250000Y-126500000D03*
X214000000Y-144700000D03*
X143550000Y-146900000D03*
X193500000Y-179250000D03*
X215000000Y-181500000D03*
X186750000Y-172000000D03*
X207750000Y-113500000D03*
X215100000Y-157700000D03*
X167250000Y-152500000D03*
X195550000Y-123650000D03*
X184750000Y-159000000D03*
X202100000Y-131700000D03*
X139300000Y-126500000D03*
X149000000Y-183700000D03*
X187750000Y-107750000D03*
X146500000Y-146000000D03*
X175100000Y-117400000D03*
X182550000Y-147650000D03*
X189050000Y-180900000D03*
X149250000Y-120000000D03*
X182550000Y-109400000D03*
X182550000Y-125150000D03*
X142250000Y-179250000D03*
X193500000Y-166250000D03*
X202000000Y-155500000D03*
X176050000Y-179400000D03*
X195550000Y-151150000D03*
X155800000Y-176650000D03*
X168800000Y-176650000D03*
X208550000Y-121650000D03*
X171750000Y-159000000D03*
X149250000Y-146000000D03*
X162000000Y-118700000D03*
X199750000Y-159000000D03*
X194800000Y-163650000D03*
X208550000Y-134650000D03*
X162000000Y-157700000D03*
X154500000Y-153250000D03*
X213000000Y-120750000D03*
X181250000Y-127250000D03*
X141250000Y-178500000D03*
X215050000Y-141150000D03*
X188100000Y-169400000D03*
X195550000Y-160650000D03*
X180500000Y-153250000D03*
X174750000Y-172750000D03*
X207750000Y-165500000D03*
X149100000Y-169400000D03*
X155250000Y-166250000D03*
X187500000Y-120000000D03*
X195550000Y-172900000D03*
X172500000Y-120000000D03*
X154500000Y-166250000D03*
X143550000Y-134650000D03*
X213000000Y-172750000D03*
X182550000Y-112150000D03*
X175250000Y-133000000D03*
X178300000Y-178500000D03*
X169550000Y-123650000D03*
X201000000Y-183700000D03*
X175000000Y-118700000D03*
X214100000Y-143400000D03*
X176050000Y-169400000D03*
X210750000Y-159000000D03*
X189050000Y-141900000D03*
X201100000Y-117400000D03*
X150050000Y-154150000D03*
X207750000Y-178500000D03*
X143550000Y-109400000D03*
X210750000Y-107000000D03*
X210750000Y-133000000D03*
X194750000Y-126500000D03*
X161500000Y-133000000D03*
X207750000Y-126500000D03*
X192000000Y-139500000D03*
X148750000Y-146750000D03*
X158750000Y-120000000D03*
X198500000Y-107000000D03*
X143550000Y-164150000D03*
X187000000Y-159750000D03*
X155250000Y-114250000D03*
X214000000Y-170700000D03*
X153000000Y-139500000D03*
X214250000Y-133000000D03*
X194250000Y-114250000D03*
X143550000Y-112150000D03*
X175100000Y-169400000D03*
X187750000Y-120750000D03*
X200000000Y-159750000D03*
X163000000Y-181500000D03*
X215050000Y-128150000D03*
X165300000Y-113500000D03*
X207750000Y-152500000D03*
X214000000Y-131700000D03*
X207750000Y-139500000D03*
X206250000Y-178500000D03*
X195550000Y-107900000D03*
X215050000Y-154900000D03*
X156550000Y-122400000D03*
X194000000Y-126500000D03*
X215000000Y-142500000D03*
X213000000Y-159750000D03*
X169550000Y-162650000D03*
X150100000Y-170700000D03*
X205000000Y-139500000D03*
X142250000Y-127250000D03*
X167500000Y-166250000D03*
X208550000Y-107900000D03*
X208550000Y-164150000D03*
X165300000Y-139500000D03*
X181250000Y-179250000D03*
X207250000Y-127250000D03*
X189050000Y-180150000D03*
X184750000Y-120000000D03*
X195550000Y-109400000D03*
X171750000Y-146000000D03*
X181250000Y-114250000D03*
X215050000Y-115150000D03*
X187000000Y-146750000D03*
X161500000Y-146000000D03*
X182550000Y-134650000D03*
X161000000Y-107750000D03*
X142750000Y-178500000D03*
X161500000Y-172000000D03*
X176050000Y-166400000D03*
X188000000Y-118700000D03*
X193500000Y-140250000D03*
X194800000Y-124650000D03*
X150050000Y-115900000D03*
X211500000Y-146000000D03*
X176050000Y-180150000D03*
X142750000Y-139500000D03*
X182550000Y-173650000D03*
X193250000Y-152500000D03*
X188100000Y-130400000D03*
X169550000Y-173650000D03*
X192000000Y-126500000D03*
X194000000Y-113500000D03*
X202050000Y-169400000D03*
X213750000Y-120750000D03*
X206250000Y-152500000D03*
X155000000Y-139500000D03*
X181000000Y-113500000D03*
X147750000Y-146000000D03*
X187000000Y-107750000D03*
X167500000Y-140250000D03*
X208550000Y-161400000D03*
X180250000Y-152500000D03*
X186750000Y-133000000D03*
X211500000Y-172000000D03*
X208550000Y-125150000D03*
X204300000Y-165500000D03*
X162250000Y-133000000D03*
X168750000Y-152500000D03*
X145750000Y-120000000D03*
X155750000Y-152500000D03*
X140000000Y-178500000D03*
X175000000Y-183700000D03*
X158750000Y-159000000D03*
X169550000Y-134650000D03*
X143550000Y-160650000D03*
X156550000Y-125150000D03*
X169550000Y-120900000D03*
X182550000Y-121650000D03*
X156550000Y-177150000D03*
X204300000Y-139500000D03*
X192000000Y-165500000D03*
X202050000Y-128150000D03*
X176000000Y-181500000D03*
X143550000Y-125150000D03*
X150100000Y-157700000D03*
X189050000Y-156400000D03*
X197750000Y-172000000D03*
X162100000Y-156400000D03*
X206250000Y-139500000D03*
X189100000Y-131700000D03*
X148000000Y-172750000D03*
X206500000Y-114250000D03*
X163050000Y-180150000D03*
X189050000Y-182400000D03*
X215050000Y-167150000D03*
X150050000Y-115150000D03*
X167250000Y-126500000D03*
X149250000Y-133000000D03*
X165300000Y-126500000D03*
X156550000Y-134650000D03*
X195550000Y-147650000D03*
X182550000Y-164150000D03*
X147750000Y-159000000D03*
X176050000Y-140400000D03*
X195550000Y-135400000D03*
X139300000Y-113500000D03*
X143550000Y-121650000D03*
X159500000Y-107000000D03*
X148750000Y-107750000D03*
X188250000Y-107000000D03*
X168750000Y-113500000D03*
X156550000Y-108650000D03*
X189000000Y-181500000D03*
X189050000Y-154900000D03*
X162250000Y-120000000D03*
X150000000Y-168500000D03*
X149100000Y-156400000D03*
X171750000Y-107000000D03*
X202050000Y-154150000D03*
X168000000Y-139500000D03*
X140000000Y-165500000D03*
X215100000Y-183700000D03*
X175250000Y-172000000D03*
X143550000Y-136650000D03*
X163050000Y-180900000D03*
X163000000Y-142500000D03*
X168750000Y-126500000D03*
X166000000Y-126500000D03*
X167250000Y-113500000D03*
X145750000Y-146000000D03*
X176050000Y-154900000D03*
X208550000Y-112150000D03*
X181250000Y-153250000D03*
X154250000Y-178500000D03*
X140000000Y-152500000D03*
X154500000Y-114250000D03*
X193250000Y-178500000D03*
X182550000Y-177150000D03*
X214100000Y-117400000D03*
X163050000Y-167150000D03*
X178300000Y-113500000D03*
X141500000Y-140250000D03*
X195550000Y-133900000D03*
X176050000Y-141150000D03*
X188250000Y-159000000D03*
X208550000Y-177150000D03*
X141500000Y-127250000D03*
X156550000Y-133900000D03*
X182550000Y-133900000D03*
X194000000Y-152500000D03*
X210750000Y-146000000D03*
X187500000Y-133000000D03*
X167500000Y-114250000D03*
X156550000Y-164150000D03*
X202050000Y-154900000D03*
X208550000Y-175650000D03*
X215050000Y-127400000D03*
X148750000Y-133750000D03*
X148500000Y-159000000D03*
X192000000Y-152500000D03*
X153000000Y-113500000D03*
X168000000Y-152500000D03*
X176000000Y-155500000D03*
X212750000Y-133000000D03*
X199750000Y-107000000D03*
X201250000Y-159000000D03*
X163100000Y-131700000D03*
X198500000Y-159000000D03*
X150050000Y-153400000D03*
X149000000Y-131700000D03*
X174000000Y-133750000D03*
X172500000Y-159000000D03*
X188000000Y-131700000D03*
X182550000Y-135400000D03*
X143550000Y-122400000D03*
X213750000Y-107750000D03*
X156550000Y-120900000D03*
X149100000Y-130400000D03*
X149000000Y-157700000D03*
X174000000Y-107750000D03*
X158000000Y-107000000D03*
X181750000Y-139500000D03*
X182550000Y-136650000D03*
X213750000Y-172750000D03*
X207250000Y-140250000D03*
X194800000Y-176650000D03*
X213500000Y-120000000D03*
X201000000Y-170700000D03*
X154250000Y-126500000D03*
X168800000Y-150650000D03*
X176000000Y-142500000D03*
X167500000Y-179250000D03*
X160750000Y-120000000D03*
X168800000Y-137650000D03*
X156550000Y-110650000D03*
X159500000Y-146000000D03*
X200750000Y-133750000D03*
X215050000Y-156400000D03*
X153000000Y-165500000D03*
X168000000Y-126500000D03*
X162100000Y-169400000D03*
X156550000Y-135400000D03*
X156550000Y-109400000D03*
X194750000Y-165500000D03*
X181250000Y-140250000D03*
X207800000Y-124650000D03*
X214100000Y-182400000D03*
X176100000Y-157700000D03*
X150050000Y-143400000D03*
X163100000Y-183700000D03*
X215050000Y-141900000D03*
X201000000Y-157700000D03*
X142000000Y-165500000D03*
X176050000Y-167900000D03*
X194250000Y-166250000D03*
X162250000Y-172000000D03*
X184750000Y-172000000D03*
X150000000Y-129500000D03*
X188100000Y-182400000D03*
X200000000Y-133750000D03*
X195550000Y-146900000D03*
X195550000Y-162650000D03*
X195550000Y-134650000D03*
X201250000Y-120000000D03*
X208550000Y-148400000D03*
X191300000Y-113500000D03*
X143550000Y-147650000D03*
X202000000Y-129500000D03*
X215050000Y-169400000D03*
X208550000Y-133900000D03*
X186750000Y-146000000D03*
X182550000Y-151150000D03*
X163050000Y-114400000D03*
X167500000Y-127250000D03*
X143550000Y-149650000D03*
X202100000Y-157700000D03*
X155750000Y-126500000D03*
X150100000Y-131700000D03*
X163050000Y-141900000D03*
X184750000Y-107000000D03*
X213000000Y-107750000D03*
X143550000Y-177150000D03*
X168250000Y-127250000D03*
X172500000Y-146000000D03*
X150100000Y-118700000D03*
X210750000Y-172000000D03*
X152300000Y-113500000D03*
X181750000Y-126500000D03*
X195550000Y-120900000D03*
X161500000Y-120000000D03*
X215050000Y-128900000D03*
X163050000Y-141150000D03*
X197750000Y-120000000D03*
X150050000Y-179400000D03*
X155750000Y-139500000D03*
X195550000Y-122400000D03*
X166000000Y-152500000D03*
X168250000Y-114250000D03*
X171750000Y-120000000D03*
X169550000Y-133900000D03*
X168750000Y-165500000D03*
X150000000Y-116500000D03*
X181750000Y-178500000D03*
X163100000Y-170700000D03*
X213750000Y-146750000D03*
X150050000Y-166400000D03*
X194250000Y-127250000D03*
X174000000Y-146750000D03*
X201100000Y-143400000D03*
X168800000Y-124650000D03*
X208550000Y-109400000D03*
X147750000Y-120000000D03*
X208550000Y-123650000D03*
X202000000Y-142500000D03*
X168250000Y-140250000D03*
X175100000Y-130400000D03*
X194800000Y-150650000D03*
X180250000Y-165500000D03*
X202000000Y-116500000D03*
X162100000Y-182400000D03*
X141250000Y-152500000D03*
X189050000Y-115900000D03*
X184000000Y-107000000D03*
X189050000Y-179400000D03*
X207000000Y-126500000D03*
X149000000Y-144700000D03*
X150050000Y-130400000D03*
X145750000Y-172000000D03*
X215050000Y-114400000D03*
X195550000Y-108650000D03*
X163050000Y-154900000D03*
X178300000Y-165500000D03*
X168800000Y-111650000D03*
X207250000Y-166250000D03*
X189050000Y-140400000D03*
X200000000Y-120750000D03*
X161500000Y-159000000D03*
X191300000Y-139500000D03*
X189050000Y-141150000D03*
X141500000Y-179250000D03*
X142800000Y-163650000D03*
X194000000Y-178500000D03*
X143550000Y-151150000D03*
X180500000Y-127250000D03*
X194800000Y-137650000D03*
X142800000Y-124650000D03*
X142800000Y-150650000D03*
X166000000Y-113500000D03*
X154250000Y-139500000D03*
X156550000Y-173650000D03*
X200000000Y-146750000D03*
X194250000Y-153250000D03*
X204300000Y-178500000D03*
X189050000Y-166400000D03*
X163000000Y-129500000D03*
X149250000Y-172000000D03*
X194250000Y-140250000D03*
X168250000Y-153250000D03*
X142000000Y-126500000D03*
X149000000Y-170700000D03*
X173750000Y-107000000D03*
X166000000Y-139500000D03*
X206250000Y-113500000D03*
X211500000Y-120000000D03*
X179000000Y-126500000D03*
X161750000Y-107750000D03*
X215000000Y-116500000D03*
X143550000Y-173650000D03*
X208550000Y-151150000D03*
X195550000Y-138150000D03*
X166000000Y-178500000D03*
X176050000Y-127400000D03*
X145750000Y-133000000D03*
X194000000Y-139500000D03*
X186750000Y-107000000D03*
X210000000Y-107000000D03*
X156550000Y-161400000D03*
X176050000Y-154150000D03*
X202050000Y-167900000D03*
X168800000Y-163650000D03*
X152300000Y-165500000D03*
X181000000Y-165500000D03*
X149250000Y-107000000D03*
X174000000Y-172750000D03*
X202050000Y-153400000D03*
X211500000Y-107000000D03*
X155750000Y-113500000D03*
X212750000Y-120000000D03*
X205000000Y-178500000D03*
X207800000Y-163650000D03*
X148750000Y-172750000D03*
X150000000Y-181500000D03*
X195550000Y-136650000D03*
X202050000Y-143400000D03*
X181800000Y-176650000D03*
X163050000Y-127400000D03*
X147750000Y-107000000D03*
X213500000Y-172000000D03*
X208550000Y-122400000D03*
X195550000Y-110650000D03*
X194000000Y-165500000D03*
X155800000Y-111650000D03*
X153000000Y-126500000D03*
X174750000Y-120750000D03*
X169550000Y-151150000D03*
X215050000Y-167900000D03*
X181750000Y-152500000D03*
X163050000Y-169400000D03*
X189050000Y-128900000D03*
X215000000Y-129500000D03*
X189050000Y-127400000D03*
X202100000Y-183700000D03*
X212750000Y-107000000D03*
X189000000Y-155500000D03*
X155000000Y-165500000D03*
X163050000Y-115900000D03*
X163050000Y-156400000D03*
X176000000Y-129500000D03*
X195550000Y-173650000D03*
X168250000Y-166250000D03*
X158750000Y-146000000D03*
X174500000Y-159000000D03*
X195550000Y-177150000D03*
X208550000Y-138150000D03*
X152300000Y-126500000D03*
X179000000Y-139500000D03*
X169550000Y-125150000D03*
X168000000Y-178500000D03*
X146500000Y-133000000D03*
X193250000Y-139500000D03*
X142750000Y-113500000D03*
X161750000Y-120750000D03*
X204300000Y-126500000D03*
X150050000Y-127400000D03*
X204300000Y-113500000D03*
X181800000Y-150650000D03*
X146500000Y-172000000D03*
X214250000Y-159000000D03*
X215050000Y-180900000D03*
X163050000Y-154150000D03*
X161000000Y-159750000D03*
X176100000Y-144700000D03*
X148000000Y-146750000D03*
X148500000Y-172000000D03*
X202050000Y-130400000D03*
X143550000Y-138150000D03*
X169550000Y-135400000D03*
X185500000Y-172000000D03*
X180500000Y-179250000D03*
X202000000Y-181500000D03*
X150050000Y-114400000D03*
X176050000Y-130400000D03*
X148000000Y-159750000D03*
X174750000Y-107750000D03*
X215100000Y-131700000D03*
X207000000Y-165500000D03*
X141250000Y-113500000D03*
X107500000Y-163000000D03*
X169550000Y-136650000D03*
X197750000Y-107000000D03*
X182550000Y-107900000D03*
X175100000Y-182400000D03*
X162100000Y-143400000D03*
X163050000Y-167900000D03*
X139300000Y-165500000D03*
X142800000Y-111650000D03*
X150100000Y-183700000D03*
X180500000Y-114250000D03*
X193250000Y-165500000D03*
X215050000Y-154150000D03*
X149250000Y-159000000D03*
X173750000Y-146000000D03*
X145750000Y-107000000D03*
X195550000Y-121650000D03*
X150050000Y-180150000D03*
X211500000Y-159000000D03*
X167250000Y-165500000D03*
X215000000Y-155500000D03*
X200750000Y-120750000D03*
X168000000Y-113500000D03*
X150050000Y-156400000D03*
X195550000Y-174400000D03*
X181000000Y-139500000D03*
X189050000Y-143400000D03*
X163050000Y-143400000D03*
X175000000Y-170700000D03*
X163050000Y-153400000D03*
X197750000Y-159000000D03*
X155750000Y-165500000D03*
X175100000Y-143400000D03*
X161750000Y-172750000D03*
X201000000Y-144700000D03*
X160750000Y-133000000D03*
X188000000Y-157700000D03*
X184750000Y-133000000D03*
X173750000Y-172000000D03*
X214000000Y-183700000D03*
X188100000Y-143400000D03*
X215050000Y-166400000D03*
X181800000Y-124650000D03*
X175250000Y-120000000D03*
X191300000Y-126500000D03*
X202050000Y-179400000D03*
X163100000Y-144700000D03*
X173750000Y-159000000D03*
X189050000Y-167900000D03*
X182550000Y-148400000D03*
X202050000Y-128900000D03*
X215100000Y-118700000D03*
X161000000Y-146750000D03*
X208550000Y-173650000D03*
X143550000Y-110650000D03*
X215100000Y-170700000D03*
X167250000Y-178500000D03*
X213500000Y-146000000D03*
X169550000Y-146900000D03*
X182550000Y-122400000D03*
X180250000Y-139500000D03*
X150050000Y-182400000D03*
X143550000Y-108650000D03*
X202050000Y-141900000D03*
X180500000Y-166250000D03*
X156550000Y-175650000D03*
X189050000Y-130400000D03*
X189050000Y-115150000D03*
X199750000Y-146000000D03*
X162000000Y-183700000D03*
X194250000Y-179250000D03*
X188000000Y-144700000D03*
X215050000Y-143400000D03*
X181750000Y-113500000D03*
X169550000Y-175650000D03*
X163050000Y-182400000D03*
X141250000Y-126500000D03*
X189100000Y-144700000D03*
X150050000Y-128900000D03*
X189050000Y-154150000D03*
X150050000Y-169400000D03*
X155250000Y-179250000D03*
X142750000Y-152500000D03*
X189050000Y-167150000D03*
X146500000Y-107000000D03*
X163050000Y-115150000D03*
X176100000Y-131700000D03*
X207000000Y-113500000D03*
X156550000Y-146900000D03*
X187500000Y-172000000D03*
X169550000Y-147650000D03*
X187000000Y-133750000D03*
X169550000Y-108650000D03*
X213500000Y-107000000D03*
X202050000Y-180150000D03*
X213750000Y-159750000D03*
X195550000Y-148400000D03*
X182550000Y-175650000D03*
X143550000Y-161400000D03*
X180250000Y-113500000D03*
X156550000Y-136650000D03*
X156550000Y-162650000D03*
X173750000Y-120000000D03*
X156550000Y-107900000D03*
X155000000Y-152500000D03*
X208550000Y-110650000D03*
X188250000Y-133000000D03*
X187500000Y-107000000D03*
X163050000Y-179400000D03*
X182550000Y-110650000D03*
X185500000Y-107000000D03*
X179000000Y-152500000D03*
X207000000Y-178500000D03*
X215050000Y-153400000D03*
X160750000Y-146000000D03*
X214000000Y-118700000D03*
X150050000Y-128150000D03*
X181800000Y-111650000D03*
X186750000Y-159000000D03*
X198500000Y-146000000D03*
X143550000Y-175650000D03*
X189050000Y-153400000D03*
X142750000Y-126500000D03*
X202050000Y-166400000D03*
X187000000Y-120750000D03*
X155800000Y-124650000D03*
X189000000Y-129500000D03*
X187750000Y-172750000D03*
X150050000Y-154900000D03*
X142000000Y-139500000D03*
X159500000Y-133000000D03*
X169550000Y-122400000D03*
X214250000Y-107000000D03*
X214100000Y-169400000D03*
X207800000Y-150650000D03*
X199750000Y-172000000D03*
X155800000Y-163650000D03*
X182550000Y-146900000D03*
X160750000Y-159000000D03*
X174500000Y-146000000D03*
X200500000Y-107000000D03*
X169550000Y-177150000D03*
X169550000Y-138150000D03*
X150100000Y-144700000D03*
X214250000Y-146000000D03*
X193500000Y-153250000D03*
X200000000Y-172750000D03*
X152300000Y-139500000D03*
X189000000Y-116500000D03*
X208550000Y-108650000D03*
X148500000Y-107000000D03*
X139300000Y-152500000D03*
X140000000Y-139500000D03*
X156550000Y-159900000D03*
X197750000Y-146000000D03*
X208550000Y-162650000D03*
X154500000Y-127250000D03*
X206500000Y-166250000D03*
X176050000Y-167150000D03*
X143550000Y-135400000D03*
X141250000Y-139500000D03*
X142800000Y-176650000D03*
X181750000Y-165500000D03*
X166000000Y-165500000D03*
X162250000Y-107000000D03*
X149100000Y-143400000D03*
X145750000Y-159000000D03*
X200500000Y-146000000D03*
X150050000Y-141900000D03*
X200500000Y-159000000D03*
X161750000Y-133750000D03*
X208550000Y-136650000D03*
X215000000Y-168500000D03*
X188250000Y-146000000D03*
X176050000Y-180900000D03*
X182550000Y-161400000D03*
X213000000Y-146750000D03*
X160750000Y-172000000D03*
X143550000Y-120900000D03*
X199750000Y-120000000D03*
X158750000Y-107000000D03*
X148750000Y-120750000D03*
X155250000Y-127250000D03*
X169550000Y-159900000D03*
X168250000Y-179250000D03*
X171000000Y-107000000D03*
X201250000Y-133000000D03*
X150050000Y-117400000D03*
X143550000Y-123650000D03*
X162000000Y-144700000D03*
X155250000Y-153250000D03*
X176050000Y-114400000D03*
X174000000Y-159750000D03*
X156550000Y-174400000D03*
X182550000Y-174400000D03*
X176050000Y-117400000D03*
X208550000Y-160650000D03*
X200750000Y-107750000D03*
X180500000Y-140250000D03*
X141500000Y-153250000D03*
X201100000Y-182400000D03*
X199750000Y-133000000D03*
X141500000Y-114250000D03*
X154500000Y-140250000D03*
X213750000Y-133750000D03*
X206250000Y-165500000D03*
X150050000Y-141150000D03*
X188250000Y-120000000D03*
X169550000Y-160650000D03*
X163000000Y-155500000D03*
X176050000Y-182400000D03*
X188000000Y-183700000D03*
X187500000Y-146000000D03*
X200750000Y-146750000D03*
X207000000Y-152500000D03*
X175250000Y-159000000D03*
X200500000Y-172000000D03*
X142000000Y-178500000D03*
X160750000Y-107000000D03*
X192000000Y-178500000D03*
X193250000Y-126500000D03*
X205000000Y-152500000D03*
X176000000Y-168500000D03*
X214000000Y-157700000D03*
X165300000Y-165500000D03*
X200000000Y-107750000D03*
X188100000Y-156400000D03*
X198500000Y-133000000D03*
X181250000Y-166250000D03*
X215050000Y-130400000D03*
X202050000Y-117400000D03*
X153000000Y-152500000D03*
X176050000Y-115900000D03*
X152300000Y-178500000D03*
X182550000Y-172900000D03*
X174500000Y-107000000D03*
X206500000Y-179250000D03*
X208550000Y-174400000D03*
X162250000Y-146000000D03*
X146500000Y-159000000D03*
X174750000Y-133750000D03*
X176050000Y-156400000D03*
X158750000Y-172000000D03*
X206500000Y-140250000D03*
X207800000Y-137650000D03*
X207250000Y-114250000D03*
X152300000Y-152500000D03*
X142800000Y-137650000D03*
X180250000Y-178500000D03*
X174500000Y-120000000D03*
X155000000Y-126500000D03*
X147750000Y-172000000D03*
X182550000Y-160650000D03*
X150050000Y-180900000D03*
X191300000Y-178500000D03*
X174500000Y-172000000D03*
X165300000Y-178500000D03*
X176050000Y-141900000D03*
X163050000Y-128150000D03*
X194800000Y-111650000D03*
X215050000Y-180150000D03*
X161750000Y-159750000D03*
X188100000Y-117400000D03*
X202100000Y-144700000D03*
X159500000Y-159000000D03*
X207250000Y-179250000D03*
X205000000Y-126500000D03*
X176050000Y-143400000D03*
X188000000Y-170700000D03*
X175000000Y-157700000D03*
X155750000Y-178500000D03*
X161000000Y-172750000D03*
X212750000Y-172000000D03*
X193500000Y-127250000D03*
X143550000Y-133900000D03*
X201250000Y-107000000D03*
X175000000Y-131700000D03*
X193500000Y-114250000D03*
X172500000Y-133000000D03*
X202050000Y-141150000D03*
X195550000Y-112150000D03*
X169550000Y-121650000D03*
X195550000Y-159900000D03*
%TO.N,/Element_4x4/Vd4_1*%
X198200000Y-110500000D03*
X179150000Y-109250000D03*
X140150000Y-109250000D03*
X146200000Y-110500000D03*
X192150000Y-109250000D03*
X153150000Y-109250000D03*
X159200000Y-110500000D03*
X205150000Y-109250000D03*
X172200000Y-110500000D03*
X211200000Y-110500000D03*
X185200000Y-110500000D03*
X135500000Y-110500000D03*
X166150000Y-109250000D03*
%TO.N,/Element_4x4/Vt4_1*%
X180600000Y-111400000D03*
X206600000Y-111400000D03*
X135600000Y-112500000D03*
X167600000Y-111400000D03*
X173400000Y-110500000D03*
X193600000Y-111400000D03*
X154600000Y-111400000D03*
X186400000Y-110500000D03*
X147400000Y-110500000D03*
X199400000Y-110500000D03*
X160400000Y-110500000D03*
X141600000Y-111400000D03*
X212400000Y-110500000D03*
%TO.N,/Element_4x4/Vd4_2*%
X191700000Y-117000000D03*
X159600000Y-115700000D03*
X146600000Y-115700000D03*
X135700000Y-116900000D03*
X165700000Y-117000000D03*
X211600000Y-115700000D03*
X172600000Y-115700000D03*
X178700000Y-117000000D03*
X152700000Y-117000000D03*
X185600000Y-115700000D03*
X198600000Y-115700000D03*
X139700000Y-117000000D03*
X204700000Y-117000000D03*
%TO.N,/Element_4x4/Vt4_2*%
X148300000Y-117825000D03*
X174300000Y-117825000D03*
X187300000Y-117825000D03*
X161300000Y-117825000D03*
X167125000Y-117825000D03*
X154125000Y-117825000D03*
X200300000Y-117825000D03*
X213300000Y-117825000D03*
X141125000Y-117825000D03*
X134500000Y-118900000D03*
X206125000Y-117825000D03*
X193125000Y-117825000D03*
X180125000Y-117825000D03*
%TO.N,+3.3V*%
X131000000Y-196750000D03*
X130000000Y-192000000D03*
X117750000Y-189500000D03*
X118000000Y-194500000D03*
X117750000Y-203250000D03*
X131250000Y-203750000D03*
%TO.N,-15V*%
X128000000Y-166250000D03*
X127200000Y-146700000D03*
X141250000Y-193500000D03*
X127400000Y-140300000D03*
X126800000Y-114400000D03*
X127250000Y-172750000D03*
X127400000Y-133800000D03*
X128000000Y-179000000D03*
X127500000Y-159750000D03*
X127200000Y-107800000D03*
X127400000Y-127100000D03*
X107460000Y-180600000D03*
X126900000Y-120800000D03*
X127250000Y-153000000D03*
%TO.N,+15V*%
X127600000Y-131900000D03*
X127700000Y-112400000D03*
X128000000Y-164750000D03*
X128000000Y-184500000D03*
X128000000Y-178000000D03*
X127600000Y-125400000D03*
X127750000Y-158250000D03*
X128000000Y-171250000D03*
X127600000Y-118900000D03*
X127700000Y-145300000D03*
X127800000Y-151700000D03*
X127700000Y-138600000D03*
%TO.N,/Element_4x12/Vg4_1*%
X140700000Y-141500000D03*
X141200000Y-149600000D03*
X141200000Y-110600000D03*
X140700000Y-167500000D03*
X140700000Y-128500000D03*
X140700000Y-154500000D03*
X141200000Y-123600000D03*
X137500000Y-191000000D03*
X141200000Y-175600000D03*
X141200000Y-188600000D03*
X140700000Y-180500000D03*
X140700000Y-115500000D03*
X141200000Y-162600000D03*
X141200000Y-136600000D03*
%TO.N,/Element_4x12/Vg4_2*%
X147200000Y-148400000D03*
X147800000Y-181800000D03*
X147800000Y-168800000D03*
X147200000Y-122400000D03*
X147200000Y-109400000D03*
X147200000Y-174400000D03*
X147200000Y-187400000D03*
X147200000Y-135400000D03*
X147800000Y-155800000D03*
X147800000Y-129800000D03*
X147800000Y-116800000D03*
X147200000Y-161400000D03*
X147800000Y-142800000D03*
%TO.N,/Element_4x16/Vg4_1*%
X192700000Y-180500000D03*
X193200000Y-149600000D03*
X193200000Y-123600000D03*
X193200000Y-162600000D03*
X192700000Y-128500000D03*
X193200000Y-136600000D03*
X193200000Y-175600000D03*
X192700000Y-154500000D03*
X192700000Y-141500000D03*
X193200000Y-110600000D03*
X192700000Y-167500000D03*
X192700000Y-115500000D03*
X193200000Y-188600000D03*
%TO.N,/Element_4x16/Vg4_2*%
X199800000Y-181800000D03*
X199800000Y-142800000D03*
X199200000Y-109400000D03*
X199800000Y-168800000D03*
X199200000Y-135400000D03*
X199800000Y-129800000D03*
X199200000Y-161400000D03*
X199200000Y-122400000D03*
X199200000Y-174400000D03*
X199800000Y-155800000D03*
X199200000Y-187400000D03*
X199800000Y-116800000D03*
X199200000Y-148400000D03*
%TO.N,/Element_4x13/Vg4_1*%
X154200000Y-123600000D03*
X153700000Y-167500000D03*
X154200000Y-175600000D03*
X154200000Y-188600000D03*
X153700000Y-128500000D03*
X154200000Y-110600000D03*
X153700000Y-180500000D03*
X154200000Y-136600000D03*
X154200000Y-162600000D03*
X153700000Y-154500000D03*
X153700000Y-141500000D03*
X153700000Y-115500000D03*
X154200000Y-149600000D03*
%TO.N,/Element_4x13/Vg4_2*%
X160200000Y-161400000D03*
X160800000Y-168800000D03*
X160800000Y-129800000D03*
X160200000Y-109400000D03*
X160800000Y-116800000D03*
X160800000Y-181800000D03*
X160200000Y-187400000D03*
X160800000Y-155800000D03*
X160800000Y-142800000D03*
X160200000Y-122400000D03*
X160200000Y-148400000D03*
X160200000Y-135400000D03*
X160200000Y-174400000D03*
%TO.N,/Element_4x14/Vg4_1*%
X166700000Y-141500000D03*
X167200000Y-123600000D03*
X166700000Y-128500000D03*
X166700000Y-167500000D03*
X167200000Y-175600000D03*
X166700000Y-115500000D03*
X166700000Y-154500000D03*
X167200000Y-136600000D03*
X166700000Y-180500000D03*
X167200000Y-162600000D03*
X167200000Y-149600000D03*
X167200000Y-110600000D03*
X167200000Y-188600000D03*
%TO.N,/Element_4x14/Vg4_2*%
X173200000Y-174400000D03*
X173800000Y-168800000D03*
X173800000Y-116800000D03*
X173200000Y-109400000D03*
X173200000Y-187400000D03*
X173200000Y-161400000D03*
X173200000Y-122400000D03*
X173800000Y-129800000D03*
X173800000Y-181800000D03*
X173800000Y-142800000D03*
X173200000Y-148400000D03*
X173800000Y-155800000D03*
X173200000Y-135400000D03*
%TO.N,/Element_4x17/Vg4_1*%
X205700000Y-141500000D03*
X206200000Y-175600000D03*
X206200000Y-188600000D03*
X206200000Y-123600000D03*
X205700000Y-154500000D03*
X205700000Y-180500000D03*
X205700000Y-115500000D03*
X205700000Y-128500000D03*
X206200000Y-136600000D03*
X205700000Y-167500000D03*
X206200000Y-149600000D03*
X206200000Y-110600000D03*
X206200000Y-162600000D03*
%TO.N,/Element_4x15/Vg4_1*%
X179700000Y-154500000D03*
X180200000Y-188600000D03*
X180200000Y-110600000D03*
X179700000Y-141500000D03*
X180200000Y-162600000D03*
X180200000Y-123600000D03*
X180200000Y-149600000D03*
X179700000Y-167500000D03*
X179700000Y-115500000D03*
X179700000Y-180500000D03*
X180200000Y-175600000D03*
X179700000Y-128500000D03*
X180200000Y-136600000D03*
%TO.N,/Element_4x15/Vg4_2*%
X186200000Y-122400000D03*
X186200000Y-109400000D03*
X186800000Y-129800000D03*
X186200000Y-187400000D03*
X186800000Y-116800000D03*
X186800000Y-142800000D03*
X186200000Y-161400000D03*
X186200000Y-135400000D03*
X186200000Y-174400000D03*
X186800000Y-181800000D03*
X186200000Y-148400000D03*
X186800000Y-168800000D03*
X186800000Y-155800000D03*
%TO.N,/Element_4x17/Vg4_2*%
X212200000Y-187400000D03*
X212800000Y-142800000D03*
X212200000Y-135400000D03*
X212800000Y-129800000D03*
X212200000Y-161400000D03*
X212800000Y-181800000D03*
X212200000Y-109400000D03*
X212800000Y-155800000D03*
X212200000Y-122400000D03*
X212800000Y-168800000D03*
X212200000Y-148400000D03*
X212800000Y-116800000D03*
X212200000Y-174400000D03*
%TO.N,/Element_4x12/Vd4_1*%
X211200000Y-136500000D03*
X166150000Y-135250000D03*
X205150000Y-135250000D03*
X198200000Y-136500000D03*
X179150000Y-135250000D03*
X135500000Y-136400000D03*
X185200000Y-136500000D03*
X172200000Y-136500000D03*
X153150000Y-135250000D03*
X146200000Y-136500000D03*
X159200000Y-136500000D03*
X140150000Y-135250000D03*
X192150000Y-135250000D03*
%TO.N,/Element_4x12/Vt4_1*%
X212400000Y-136500000D03*
X160400000Y-136500000D03*
X167600000Y-137400000D03*
X180600000Y-137400000D03*
X193600000Y-137400000D03*
X141600000Y-137400000D03*
X173400000Y-136500000D03*
X199400000Y-136500000D03*
X154600000Y-137400000D03*
X135800000Y-138500000D03*
X147400000Y-136500000D03*
X186400000Y-136500000D03*
X206600000Y-137400000D03*
%TO.N,/Element_4x12/Vd4_2*%
X165700000Y-143000000D03*
X198600000Y-141700000D03*
X185600000Y-141700000D03*
X159600000Y-141700000D03*
X146600000Y-141700000D03*
X178700000Y-143000000D03*
X172600000Y-141700000D03*
X204700000Y-143000000D03*
X191700000Y-143000000D03*
X135700000Y-143100000D03*
X211600000Y-141700000D03*
X152700000Y-143000000D03*
X139700000Y-143000000D03*
%TO.N,/Element_4x12/Vt4_2*%
X187300000Y-143825000D03*
X213300000Y-143825000D03*
X167125000Y-143825000D03*
X193125000Y-143825000D03*
X148300000Y-143825000D03*
X154125000Y-143825000D03*
X180125000Y-143825000D03*
X200300000Y-143825000D03*
X141125000Y-143825000D03*
X174300000Y-143825000D03*
X206125000Y-143825000D03*
X135100000Y-144900000D03*
X161300000Y-143825000D03*
%TO.N,/Element_4x28/Vd4_1*%
X205150000Y-148250000D03*
X146200000Y-149500000D03*
X140150000Y-148250000D03*
X198200000Y-149500000D03*
X159200000Y-149500000D03*
X135600000Y-148900000D03*
X192150000Y-148250000D03*
X166150000Y-148250000D03*
X211200000Y-149500000D03*
X185200000Y-149500000D03*
X153150000Y-148250000D03*
X172200000Y-149500000D03*
X179150000Y-148250000D03*
%TO.N,/Element_4x28/Vt4_1*%
X180600000Y-150400000D03*
X167600000Y-150400000D03*
X206600000Y-150400000D03*
X173400000Y-149500000D03*
X147400000Y-149500000D03*
X160400000Y-149500000D03*
X141600000Y-150400000D03*
X135500000Y-151500000D03*
X212400000Y-149500000D03*
X199400000Y-149500000D03*
X154600000Y-150400000D03*
X186400000Y-149500000D03*
X193600000Y-150400000D03*
%TO.N,/Element_4x28/Vd4_2*%
X185600000Y-154700000D03*
X198600000Y-154700000D03*
X135700000Y-156100000D03*
X165700000Y-156000000D03*
X172600000Y-154700000D03*
X211600000Y-154700000D03*
X152700000Y-156000000D03*
X191700000Y-156000000D03*
X204700000Y-156000000D03*
X146600000Y-154700000D03*
X139700000Y-156000000D03*
X178700000Y-156000000D03*
X159600000Y-154700000D03*
%TO.N,/Element_4x28/Vt4_2*%
X161300000Y-156825000D03*
X200300000Y-156825000D03*
X136000000Y-158000000D03*
X167125000Y-156825000D03*
X213300000Y-156825000D03*
X187300000Y-156825000D03*
X148300000Y-156825000D03*
X206125000Y-156825000D03*
X193125000Y-156825000D03*
X174300000Y-156825000D03*
X154125000Y-156825000D03*
X180125000Y-156825000D03*
X141125000Y-156825000D03*
%TO.N,/Element_4x36/Vd4_1*%
X192150000Y-161250000D03*
X198200000Y-162500000D03*
X153150000Y-161250000D03*
X172200000Y-162500000D03*
X205150000Y-161250000D03*
X211200000Y-162500000D03*
X140150000Y-161250000D03*
X159200000Y-162500000D03*
X135700000Y-162400000D03*
X185200000Y-162500000D03*
X166150000Y-161250000D03*
X179150000Y-161250000D03*
X146200000Y-162500000D03*
%TO.N,/Element_4x36/Vt4_1*%
X167600000Y-163400000D03*
X206600000Y-163400000D03*
X180600000Y-163400000D03*
X147400000Y-162500000D03*
X160400000Y-162500000D03*
X186400000Y-162500000D03*
X212400000Y-162500000D03*
X199400000Y-162500000D03*
X135100000Y-164400000D03*
X154600000Y-163400000D03*
X193600000Y-163400000D03*
X173400000Y-162500000D03*
X141600000Y-163400000D03*
%TO.N,/Element_4x36/Vd4_2*%
X165700000Y-169000000D03*
X136000000Y-168900000D03*
X211600000Y-167700000D03*
X139700000Y-169000000D03*
X204700000Y-169000000D03*
X146600000Y-167700000D03*
X191700000Y-169000000D03*
X159600000Y-167700000D03*
X152700000Y-169000000D03*
X172600000Y-167700000D03*
X198600000Y-167700000D03*
X185600000Y-167700000D03*
X178700000Y-169000000D03*
%TO.N,/Element_4x36/Vt4_2*%
X148300000Y-169825000D03*
X187300000Y-169825000D03*
X167125000Y-169825000D03*
X154125000Y-169825000D03*
X213300000Y-169825000D03*
X174300000Y-169825000D03*
X200300000Y-169825000D03*
X141125000Y-169825000D03*
X161300000Y-169825000D03*
X206125000Y-169825000D03*
X135600000Y-171000000D03*
X193125000Y-169825000D03*
X180125000Y-169825000D03*
%TO.N,/Element_4x44/Vd4_1*%
X205150000Y-174250000D03*
X211200000Y-175500000D03*
X136400000Y-175200000D03*
X153150000Y-174250000D03*
X192150000Y-174250000D03*
X179150000Y-174250000D03*
X146200000Y-175500000D03*
X172200000Y-175500000D03*
X140150000Y-174250000D03*
X159200000Y-175500000D03*
X185200000Y-175500000D03*
X166150000Y-174250000D03*
X198200000Y-175500000D03*
%TO.N,/Element_4x44/Vt4_1*%
X199400000Y-175500000D03*
X135300000Y-177500000D03*
X193600000Y-176400000D03*
X154600000Y-176400000D03*
X212400000Y-175500000D03*
X173400000Y-175500000D03*
X160400000Y-175500000D03*
X147400000Y-175500000D03*
X186400000Y-175500000D03*
X206600000Y-176400000D03*
X180600000Y-176400000D03*
X167600000Y-176400000D03*
X141600000Y-176400000D03*
%TO.N,/Element_4x44/Vd4_2*%
X152700000Y-182000000D03*
X136000000Y-182000000D03*
X204700000Y-182000000D03*
X178700000Y-182000000D03*
X172600000Y-180700000D03*
X185600000Y-180700000D03*
X198600000Y-180700000D03*
X139700000Y-182000000D03*
X211600000Y-180700000D03*
X146600000Y-180700000D03*
X159600000Y-180700000D03*
X191700000Y-182000000D03*
X165700000Y-182000000D03*
%TO.N,/Element_4x44/Vt4_2*%
X136250000Y-184000000D03*
X167125000Y-182825000D03*
X206125000Y-182825000D03*
X174300000Y-182825000D03*
X141125000Y-182825000D03*
X213300000Y-182825000D03*
X200300000Y-182825000D03*
X180125000Y-182825000D03*
X193125000Y-182825000D03*
X187300000Y-182825000D03*
X161300000Y-182825000D03*
X154125000Y-182825000D03*
X148300000Y-182825000D03*
%TO.N,/RX*%
X127250000Y-205750000D03*
%TO.N,/SWCLK*%
X113750000Y-201500000D03*
X118750000Y-207000000D03*
%TO.N,/SWDIO*%
X115000000Y-202250000D03*
X120000000Y-206500000D03*
%TO.N,/TX*%
X126500000Y-205750000D03*
%TO.N,/~{RST}*%
X130750000Y-196250000D03*
%TO.N,Net-(J3-D-)*%
X114300000Y-201300000D03*
%TO.N,Net-(J3-D+)*%
X115200000Y-201100000D03*
%TO.N,/VD1*%
X133000000Y-115750000D03*
X123750000Y-190500000D03*
%TO.N,/VD2*%
X132750000Y-110500000D03*
X132250000Y-187750000D03*
%TO.N,/VD3*%
X132750000Y-129250000D03*
X136500000Y-189500000D03*
%TO.N,/VD4*%
X121250000Y-191000000D03*
X133250000Y-122250000D03*
%TO.N,/VD5*%
X133250000Y-142000000D03*
X119750000Y-202250000D03*
%TO.N,/VD6*%
X133000000Y-135250000D03*
X125500000Y-191500000D03*
%TO.N,/VD7*%
X120750000Y-187250000D03*
X129750000Y-152500000D03*
%TO.N,/VD8*%
X135250000Y-188000000D03*
X133000000Y-148250000D03*
%TO.N,/VD9*%
X118500000Y-196500000D03*
X133000000Y-168000000D03*
%TO.N,/VD10*%
X132750000Y-161500000D03*
X119250000Y-195750000D03*
%TO.N,/VD11*%
X133250000Y-181250000D03*
X118000000Y-197500000D03*
%TO.N,/VD12*%
X120250000Y-197000000D03*
X133250000Y-174500000D03*
%TO.N,Net-(R15-Pad2)*%
X129000000Y-124000000D03*
%TO.N,Net-(R16-Pad2)*%
X129750000Y-121000000D03*
%TO.N,Net-(R18-Pad2)*%
X128750000Y-130500000D03*
%TO.N,Net-(R19-Pad2)*%
X129750000Y-127750000D03*
%TO.N,Net-(R21-Pad2)*%
X129000000Y-137000000D03*
%TO.N,Net-(R22-Pad2)*%
X129750000Y-134250000D03*
%TO.N,Net-(R24-Pad2)*%
X129000000Y-143750000D03*
%TO.N,Net-(R25-Pad2)*%
X129750000Y-140750000D03*
%TO.N,Net-(R27-Pad2)*%
X128750000Y-150000000D03*
%TO.N,Net-(R28-Pad2)*%
X129750000Y-147250000D03*
%TO.N,Net-(R30-Pad2)*%
X129000000Y-156750000D03*
%TO.N,Net-(R31-Pad2)*%
X129750000Y-153750000D03*
%TO.N,Net-(R33-Pad2)*%
X129000000Y-163000000D03*
%TO.N,Net-(R34-Pad2)*%
X129750000Y-160250000D03*
%TO.N,Net-(R36-Pad2)*%
X128750000Y-169750000D03*
%TO.N,Net-(R37-Pad2)*%
X129750000Y-166750000D03*
%TO.N,Net-(R39-Pad2)*%
X128750000Y-176250000D03*
%TO.N,Net-(R40-Pad2)*%
X129750000Y-173250000D03*
%TO.N,Net-(R42-Pad2)*%
X128750000Y-182500000D03*
%TO.N,Net-(R43-Pad2)*%
X129750000Y-179500000D03*
%TO.N,Net-(R45-Pad2)*%
X129000000Y-111000000D03*
%TO.N,Net-(R46-Pad2)*%
X129750000Y-108250000D03*
%TO.N,Net-(R48-Pad2)*%
X129000000Y-117750000D03*
%TO.N,Net-(R49-Pad2)*%
X129750000Y-114750000D03*
%TO.N,/Gate driver/TMP*%
X175500000Y-193500000D03*
X149500000Y-193500000D03*
X175500000Y-195750000D03*
X201750000Y-195750000D03*
X189000000Y-195750000D03*
X188750000Y-193250000D03*
X201750000Y-193250000D03*
X162500000Y-195750000D03*
X162500000Y-193500000D03*
X149500000Y-195750000D03*
%TO.N,/VG8*%
X124500000Y-203000000D03*
X186500000Y-194250000D03*
%TO.N,/VG10*%
X199500000Y-194250000D03*
X115250000Y-193000000D03*
%TO.N,/TMP8*%
X124000000Y-156000000D03*
X127250000Y-187500000D03*
%TO.N,/VG2*%
X146250000Y-194250000D03*
X121499999Y-203000001D03*
%TO.N,/TMP1*%
X131500000Y-188250000D03*
X124000000Y-110250000D03*
%TO.N,/TMP11*%
X130750000Y-195500000D03*
X123250000Y-175500000D03*
%TO.N,/TMP3*%
X124000000Y-123500000D03*
X131000000Y-189500000D03*
%TO.N,/TMP9*%
X124500000Y-162500000D03*
X126000000Y-187500000D03*
%TO.N,/VG12*%
X212500000Y-194500000D03*
X115500000Y-194250000D03*
%TO.N,/VG5*%
X123000000Y-202500000D03*
X170000000Y-191500000D03*
%TO.N,/VG11*%
X209250000Y-191000000D03*
X115500000Y-193500000D03*
%TO.N,/TMP5*%
X126000000Y-136500000D03*
X129000000Y-187500000D03*
%TO.N,/VG6*%
X123500000Y-202750000D03*
X173500000Y-194500000D03*
%TO.N,/VG4*%
X160500000Y-194250000D03*
X122500000Y-203000000D03*
%TO.N,/TMP2*%
X124000000Y-117000000D03*
X131500000Y-189500000D03*
%TO.N,/TMP10*%
X125500000Y-187250000D03*
X124500000Y-169000000D03*
%TO.N,/VG1*%
X121000000Y-202250000D03*
X144250000Y-191750000D03*
X148000000Y-197000000D03*
%TO.N,/VG3*%
X157000000Y-191500000D03*
X122000000Y-202500000D03*
%TO.N,/VG7*%
X123750000Y-202000000D03*
X183000000Y-190750000D03*
%TO.N,/VG9*%
X197000000Y-191000000D03*
X115250000Y-192500000D03*
%TO.N,/TMP7*%
X127750000Y-187250000D03*
X125750000Y-149500000D03*
%TO.N,/TMP4*%
X130500000Y-187500000D03*
X125500000Y-130000000D03*
%TO.N,/TMP12*%
X130750000Y-195000000D03*
X125000000Y-182250000D03*
%TO.N,/TMP6*%
X125750000Y-143000000D03*
X128250000Y-187250000D03*
%TO.N,/VT_REF*%
X130500000Y-153000000D03*
X130500000Y-114000000D03*
X130500000Y-159500000D03*
X130500000Y-127250000D03*
X132750000Y-108250000D03*
X130500000Y-133750000D03*
X130500000Y-166250000D03*
X130500000Y-172500000D03*
X130500000Y-146500000D03*
X130500000Y-121000000D03*
X130500000Y-179250000D03*
X130500000Y-140250000D03*
%TO.N,/Element_4x20/Vd4_1*%
X172200000Y-123500000D03*
X205150000Y-122250000D03*
X140150000Y-122250000D03*
X146200000Y-123500000D03*
X159200000Y-123500000D03*
X211200000Y-123500000D03*
X198200000Y-123500000D03*
X153150000Y-122250000D03*
X179150000Y-122250000D03*
X185200000Y-123500000D03*
X192150000Y-122250000D03*
X166150000Y-122250000D03*
X135500000Y-123400000D03*
%TO.N,/Element_4x20/Vd4_2*%
X159600000Y-128700000D03*
X185600000Y-128700000D03*
X204700000Y-130000000D03*
X146600000Y-128700000D03*
X165700000Y-130000000D03*
X198600000Y-128700000D03*
X152700000Y-130000000D03*
X211600000Y-128700000D03*
X135700000Y-130000000D03*
X178700000Y-130000000D03*
X139700000Y-130000000D03*
X172600000Y-128700000D03*
X191700000Y-130000000D03*
%TO.N,/Element_4x20/Vt4_1*%
X141600000Y-124400000D03*
X147400000Y-123500000D03*
X154600000Y-124400000D03*
X186400000Y-123500000D03*
X135500000Y-125500000D03*
X206600000Y-124400000D03*
X167600000Y-124400000D03*
X212400000Y-123500000D03*
X180600000Y-124400000D03*
X173400000Y-123500000D03*
X160400000Y-123500000D03*
X199400000Y-123500000D03*
X193600000Y-124400000D03*
%TO.N,/Element_4x20/Vt4_2*%
X180125000Y-130825000D03*
X135700000Y-132000000D03*
X154125000Y-130825000D03*
X187300000Y-130825000D03*
X167125000Y-130825000D03*
X141125000Y-130825000D03*
X200300000Y-130825000D03*
X206125000Y-130825000D03*
X161300000Y-130825000D03*
X193125000Y-130825000D03*
X148300000Y-130825000D03*
X174300000Y-130825000D03*
X213300000Y-130825000D03*
%TD*%
D16*
%TO.N,GND*%
X185200000Y-179500000D02*
X183900000Y-180800000D01*
X204900000Y-160000000D02*
X203700000Y-161200000D01*
X138700000Y-169500000D02*
X138700000Y-170400000D01*
X164700000Y-169500000D02*
X164700000Y-170400000D01*
X190700000Y-143500000D02*
X190700000Y-144400000D01*
X183900000Y-139200000D02*
X185200000Y-140500000D01*
X157900000Y-113200000D02*
X159200000Y-114500000D01*
X139900000Y-119600000D02*
X139900000Y-121000000D01*
X157900000Y-128800000D02*
X159200000Y-127500000D01*
X209900000Y-149900000D02*
X209900000Y-152200000D01*
X177700000Y-143500000D02*
X177700000Y-144400000D01*
X152900000Y-158600000D02*
X152900000Y-160000000D01*
X203700000Y-174200000D02*
X203700000Y-182500000D01*
X165900000Y-145600000D02*
X165900000Y-147000000D01*
X203700000Y-117500000D02*
X203700000Y-118400000D01*
X151700000Y-144400000D02*
X152900000Y-145600000D01*
X203700000Y-182500000D02*
X203700000Y-183400000D01*
X157900000Y-154800000D02*
X159200000Y-153500000D01*
X139900000Y-147000000D02*
X138700000Y-148200000D01*
X196900000Y-154800000D02*
X198200000Y-153500000D01*
X157900000Y-167800000D02*
X159200000Y-166500000D01*
X157900000Y-178200000D02*
X159200000Y-179500000D01*
X157900000Y-123900000D02*
X157900000Y-115800000D01*
X191900000Y-119600000D02*
X191900000Y-121000000D01*
X190700000Y-161200000D02*
X190700000Y-169500000D01*
X183250000Y-110250000D02*
X183250000Y-105250000D01*
X157900000Y-139200000D02*
X159200000Y-140500000D01*
X164700000Y-117500000D02*
X164700000Y-118400000D01*
X183900000Y-162900000D02*
X183900000Y-154800000D01*
X172200000Y-179500000D02*
X170900000Y-180800000D01*
X144250000Y-110000000D02*
X144250000Y-105250000D01*
X165900000Y-132600000D02*
X165900000Y-134000000D01*
X183900000Y-167800000D02*
X185200000Y-166500000D01*
X139900000Y-108000000D02*
X138700000Y-109200000D01*
X170900000Y-111000000D02*
X170250000Y-110350000D01*
X152900000Y-171600000D02*
X152900000Y-173000000D01*
X190700000Y-182500000D02*
X190700000Y-184691863D01*
X203700000Y-148200000D02*
X203700000Y-156500000D01*
X157900000Y-110900000D02*
X157900000Y-113200000D01*
X204900000Y-105400000D02*
X204750000Y-105250000D01*
X170900000Y-139200000D02*
X172200000Y-140500000D01*
X209900000Y-175900000D02*
X209900000Y-167800000D01*
X152900000Y-147000000D02*
X151700000Y-148200000D01*
X209900000Y-162900000D02*
X209900000Y-165200000D01*
X151700000Y-183400000D02*
X152900000Y-184600000D01*
X178900000Y-134000000D02*
X177700000Y-135200000D01*
X138700000Y-170400000D02*
X139900000Y-171600000D01*
X178900000Y-121000000D02*
X177700000Y-122200000D01*
X139900000Y-105400000D02*
X139750000Y-105250000D01*
X170900000Y-110900000D02*
X170900000Y-111000000D01*
X144900000Y-110650000D02*
X144250000Y-110000000D01*
X164700000Y-143500000D02*
X164700000Y-144400000D01*
X138700000Y-183400000D02*
X139900000Y-184600000D01*
X170900000Y-165200000D02*
X172200000Y-166500000D01*
X191900000Y-173000000D02*
X190700000Y-174200000D01*
X170900000Y-180800000D02*
X170900000Y-186700000D01*
X203700000Y-122200000D02*
X203700000Y-130500000D01*
X151700000Y-169500000D02*
X151700000Y-170400000D01*
X190700000Y-109200000D02*
X190700000Y-117500000D01*
X209900000Y-162900000D02*
X209900000Y-154800000D01*
X183900000Y-186300000D02*
X183400000Y-186800000D01*
X190700000Y-156500000D02*
X190700000Y-157400000D01*
X183900000Y-136900000D02*
X183900000Y-128800000D01*
X209900000Y-136900000D02*
X209900000Y-139200000D01*
X209900000Y-152200000D02*
X211200000Y-153500000D01*
X151700000Y-157400000D02*
X152900000Y-158600000D01*
X144900000Y-180800000D02*
X144900000Y-186000000D01*
X138700000Y-109200000D02*
X138700000Y-117500000D01*
X204900000Y-108000000D02*
X204900000Y-105400000D01*
X196900000Y-128800000D02*
X198200000Y-127500000D01*
X170900000Y-175900000D02*
X170900000Y-167800000D01*
X190700000Y-131400000D02*
X191900000Y-132600000D01*
X138700000Y-144400000D02*
X139900000Y-145600000D01*
X177700000Y-157400000D02*
X178900000Y-158600000D01*
X209900000Y-149900000D02*
X209900000Y-141800000D01*
X159200000Y-179500000D02*
X157900000Y-180800000D01*
X204900000Y-158600000D02*
X204900000Y-160000000D01*
X138700000Y-143500000D02*
X138700000Y-144400000D01*
X196900000Y-110900000D02*
X196250000Y-110250000D01*
X177700000Y-130500000D02*
X177700000Y-131400000D01*
X204900000Y-132600000D02*
X204900000Y-134000000D01*
X144900000Y-123900000D02*
X144900000Y-126200000D01*
X178900000Y-132600000D02*
X178900000Y-134000000D01*
X183900000Y-136900000D02*
X183900000Y-139200000D01*
X170900000Y-152200000D02*
X172200000Y-153500000D01*
X170900000Y-154800000D02*
X172200000Y-153500000D01*
X170900000Y-115800000D02*
X172200000Y-114500000D01*
X157900000Y-175900000D02*
X157900000Y-167800000D01*
X170900000Y-167800000D02*
X172200000Y-166500000D01*
X157900000Y-149900000D02*
X157900000Y-152200000D01*
X196900000Y-162900000D02*
X196900000Y-165200000D01*
X191900000Y-121000000D02*
X190700000Y-122200000D01*
X138700000Y-174200000D02*
X138700000Y-182500000D01*
X170900000Y-136900000D02*
X170900000Y-128800000D01*
X183900000Y-128800000D02*
X185200000Y-127500000D01*
X203700000Y-135200000D02*
X203700000Y-143500000D01*
X144900000Y-152200000D02*
X146200000Y-153500000D01*
X177700000Y-156500000D02*
X177700000Y-157400000D01*
X138700000Y-131400000D02*
X139900000Y-132600000D01*
X183900000Y-152200000D02*
X185200000Y-153500000D01*
X204900000Y-119600000D02*
X204900000Y-121000000D01*
X204900000Y-134000000D02*
X203700000Y-135200000D01*
X152900000Y-108000000D02*
X152900000Y-105350000D01*
X157900000Y-162900000D02*
X157900000Y-165200000D01*
X164700000Y-148200000D02*
X164700000Y-156500000D01*
X164700000Y-182500000D02*
X164700000Y-183400000D01*
X191900000Y-134000000D02*
X190700000Y-135200000D01*
X196900000Y-136900000D02*
X196900000Y-139200000D01*
X165900000Y-158600000D02*
X165900000Y-160000000D01*
X183900000Y-149900000D02*
X183900000Y-152200000D01*
X191900000Y-132600000D02*
X191900000Y-134000000D01*
X204900000Y-147000000D02*
X203700000Y-148200000D01*
X183900000Y-175900000D02*
X183900000Y-167800000D01*
X157900000Y-186700000D02*
X157800000Y-186800000D01*
X151700000Y-174200000D02*
X151700000Y-182500000D01*
X203700000Y-156500000D02*
X203700000Y-157400000D01*
X178900000Y-173000000D02*
X177700000Y-174200000D01*
X178900000Y-108000000D02*
X177700000Y-109200000D01*
X183900000Y-178200000D02*
X185200000Y-179500000D01*
X165900000Y-186700000D02*
X165800000Y-186800000D01*
X183900000Y-126200000D02*
X185200000Y-127500000D01*
X209900000Y-115800000D02*
X211200000Y-114500000D01*
X178900000Y-145600000D02*
X178900000Y-147000000D01*
X170900000Y-113200000D02*
X172200000Y-114500000D01*
X151700000Y-122200000D02*
X151700000Y-130500000D01*
X170900000Y-162900000D02*
X170900000Y-165200000D01*
X203700000Y-131400000D02*
X204900000Y-132600000D01*
X138700000Y-118400000D02*
X139900000Y-119600000D01*
X151700000Y-135200000D02*
X151700000Y-143500000D01*
X196900000Y-110900000D02*
X196900000Y-113200000D01*
X209250000Y-110250000D02*
X209250000Y-106000000D01*
X192000000Y-185991863D02*
X192000000Y-186800000D01*
X209900000Y-139200000D02*
X211200000Y-140500000D01*
X209900000Y-110900000D02*
X209900000Y-113200000D01*
X178900000Y-119600000D02*
X178900000Y-121000000D01*
X164700000Y-131400000D02*
X165900000Y-132600000D01*
X139900000Y-132600000D02*
X139900000Y-134000000D01*
X139900000Y-121000000D02*
X138700000Y-122200000D01*
X196900000Y-126200000D02*
X198200000Y-127500000D01*
X165900000Y-121000000D02*
X164700000Y-122200000D01*
X183900000Y-154800000D02*
X185200000Y-153500000D01*
X191900000Y-171600000D02*
X191900000Y-173000000D01*
X170900000Y-136900000D02*
X170900000Y-139200000D01*
X204900000Y-171600000D02*
X204900000Y-173000000D01*
X209900000Y-128800000D02*
X211200000Y-127500000D01*
X209900000Y-123900000D02*
X209900000Y-115800000D01*
X183900000Y-110900000D02*
X183250000Y-110250000D01*
X144900000Y-141800000D02*
X146200000Y-140500000D01*
X178900000Y-184600000D02*
X178900000Y-186800000D01*
X196900000Y-175900000D02*
X196900000Y-178200000D01*
X196900000Y-178200000D02*
X198200000Y-179500000D01*
X203700000Y-143500000D02*
X203700000Y-144400000D01*
X190700000Y-148200000D02*
X190700000Y-156500000D01*
X196900000Y-152200000D02*
X198200000Y-153500000D01*
X170900000Y-149900000D02*
X170900000Y-152200000D01*
X164700000Y-170400000D02*
X165900000Y-171600000D01*
X170900000Y-149900000D02*
X170900000Y-141800000D01*
X139900000Y-134000000D02*
X138700000Y-135200000D01*
X144900000Y-123900000D02*
X144900000Y-115800000D01*
X138700000Y-182500000D02*
X138700000Y-183400000D01*
X164700000Y-156500000D02*
X164700000Y-157400000D01*
X196900000Y-139200000D02*
X198200000Y-140500000D01*
X191900000Y-108000000D02*
X191900000Y-105350000D01*
X152900000Y-132600000D02*
X152900000Y-134000000D01*
X209900000Y-154800000D02*
X211200000Y-153500000D01*
X144900000Y-136900000D02*
X144900000Y-128800000D01*
X164700000Y-174200000D02*
X164700000Y-182500000D01*
X144900000Y-162900000D02*
X144900000Y-154800000D01*
X170900000Y-141800000D02*
X172200000Y-140500000D01*
X178900000Y-108000000D02*
X178900000Y-105600000D01*
X152900000Y-145600000D02*
X152900000Y-147000000D01*
X157900000Y-149900000D02*
X157900000Y-141800000D01*
X190700000Y-174200000D02*
X190700000Y-182500000D01*
X209900000Y-178200000D02*
X211200000Y-179500000D01*
X151700000Y-143500000D02*
X151700000Y-144400000D01*
X165900000Y-119600000D02*
X165900000Y-121000000D01*
X196900000Y-175900000D02*
X196900000Y-167800000D01*
X138700000Y-117500000D02*
X138700000Y-118400000D01*
X146200000Y-179500000D02*
X144900000Y-180800000D01*
X138700000Y-130500000D02*
X138700000Y-131400000D01*
X151700000Y-117500000D02*
X151700000Y-118400000D01*
X196900000Y-186700000D02*
X197000000Y-186800000D01*
X209900000Y-126200000D02*
X211200000Y-127500000D01*
X190700000Y-122200000D02*
X190700000Y-130500000D01*
X190700000Y-135200000D02*
X190700000Y-143500000D01*
X157900000Y-136900000D02*
X157900000Y-128800000D01*
X164700000Y-161200000D02*
X164700000Y-169500000D01*
X177700000Y-135200000D02*
X177700000Y-143500000D01*
X152900000Y-184600000D02*
X152900000Y-186500000D01*
X144900000Y-162900000D02*
X144900000Y-165200000D01*
X165900000Y-147000000D02*
X164700000Y-148200000D01*
X196900000Y-141800000D02*
X198200000Y-140500000D01*
X190700000Y-157400000D02*
X191900000Y-158600000D01*
X190700000Y-184691863D02*
X192000000Y-185991863D01*
X203700000Y-130500000D02*
X203700000Y-131400000D01*
X204900000Y-145600000D02*
X204900000Y-147000000D01*
X204900000Y-186700000D02*
X204800000Y-186800000D01*
X164700000Y-109200000D02*
X164700000Y-117500000D01*
X191900000Y-160000000D02*
X190700000Y-161200000D01*
X196900000Y-149900000D02*
X196900000Y-152200000D01*
X152900000Y-160000000D02*
X151700000Y-161200000D01*
X144900000Y-165200000D02*
X146200000Y-166500000D01*
X157900000Y-126200000D02*
X159200000Y-127500000D01*
X191900000Y-145600000D02*
X191900000Y-147000000D01*
X165900000Y-134000000D02*
X164700000Y-135200000D01*
X204900000Y-184600000D02*
X204900000Y-186700000D01*
X170900000Y-111000000D02*
X170900000Y-113200000D01*
X177700000Y-174200000D02*
X177700000Y-182500000D01*
X209900000Y-165200000D02*
X211200000Y-166500000D01*
X151700000Y-170400000D02*
X152900000Y-171600000D01*
X204900000Y-121000000D02*
X203700000Y-122200000D01*
X209900000Y-110900000D02*
X209250000Y-110250000D01*
X164700000Y-130500000D02*
X164700000Y-131400000D01*
X165900000Y-105350000D02*
X166000000Y-105250000D01*
X170250000Y-110350000D02*
X170250000Y-105250000D01*
X177700000Y-183400000D02*
X178900000Y-184600000D01*
X152900000Y-105350000D02*
X153000000Y-105250000D01*
X144900000Y-128800000D02*
X146200000Y-127500000D01*
X151700000Y-118400000D02*
X152900000Y-119600000D01*
X209900000Y-113200000D02*
X211200000Y-114500000D01*
X157900000Y-180800000D02*
X157900000Y-186700000D01*
X196900000Y-165200000D02*
X198200000Y-166500000D01*
X144900000Y-175900000D02*
X144900000Y-178200000D01*
X183900000Y-149900000D02*
X183900000Y-141800000D01*
X177700000Y-109200000D02*
X177700000Y-117500000D01*
X177700000Y-170400000D02*
X178900000Y-171600000D01*
X177700000Y-118400000D02*
X178900000Y-119600000D01*
X203700000Y-109200000D02*
X203700000Y-117500000D01*
X178900000Y-171600000D02*
X178900000Y-173000000D01*
X165900000Y-108000000D02*
X164700000Y-109200000D01*
X138700000Y-135200000D02*
X138700000Y-143500000D01*
X151700000Y-148200000D02*
X151700000Y-156500000D01*
X138700000Y-148200000D02*
X138700000Y-156500000D01*
X191900000Y-147000000D02*
X190700000Y-148200000D01*
X190700000Y-170400000D02*
X191900000Y-171600000D01*
X183900000Y-175900000D02*
X183900000Y-178200000D01*
X164700000Y-157400000D02*
X165900000Y-158600000D01*
X152900000Y-108000000D02*
X151700000Y-109200000D01*
X191900000Y-158600000D02*
X191900000Y-160000000D01*
X203700000Y-170400000D02*
X204900000Y-171600000D01*
X144900000Y-136900000D02*
X144900000Y-139200000D01*
X209900000Y-167800000D02*
X211200000Y-166500000D01*
X203700000Y-157400000D02*
X204900000Y-158600000D01*
X164700000Y-118400000D02*
X165900000Y-119600000D01*
X144900000Y-178200000D02*
X146200000Y-179500000D01*
X203700000Y-169500000D02*
X203700000Y-170400000D01*
X183900000Y-123900000D02*
X183900000Y-115800000D01*
X144900000Y-149900000D02*
X144900000Y-141800000D01*
X152900000Y-121000000D02*
X151700000Y-122200000D01*
X138700000Y-156500000D02*
X138700000Y-157400000D01*
X183900000Y-110900000D02*
X183900000Y-113200000D01*
X203700000Y-161200000D02*
X203700000Y-169500000D01*
X157900000Y-175900000D02*
X157900000Y-178200000D01*
X164700000Y-122200000D02*
X164700000Y-130500000D01*
X196900000Y-162900000D02*
X196900000Y-154800000D01*
X157250000Y-110250000D02*
X157250000Y-105250000D01*
X204900000Y-173000000D02*
X203700000Y-174200000D01*
X191900000Y-108000000D02*
X190700000Y-109200000D01*
X191900000Y-105350000D02*
X192000000Y-105250000D01*
X183900000Y-165200000D02*
X185200000Y-166500000D01*
X198200000Y-179500000D02*
X196900000Y-180800000D01*
X209900000Y-175900000D02*
X209900000Y-178200000D01*
X164700000Y-135200000D02*
X164700000Y-143500000D01*
X144900000Y-167800000D02*
X146200000Y-166500000D01*
X196900000Y-180800000D02*
X196900000Y-186700000D01*
X170900000Y-123900000D02*
X170900000Y-126200000D01*
X196900000Y-167800000D02*
X198200000Y-166500000D01*
X177700000Y-144400000D02*
X178900000Y-145600000D01*
X152900000Y-134000000D02*
X151700000Y-135200000D01*
X178900000Y-160000000D02*
X177700000Y-161200000D01*
X151700000Y-182500000D02*
X151700000Y-183400000D01*
X157900000Y-110900000D02*
X157250000Y-110250000D01*
X139900000Y-173000000D02*
X138700000Y-174200000D01*
X183900000Y-180800000D02*
X183900000Y-186300000D01*
X177700000Y-148200000D02*
X177700000Y-156500000D01*
X190700000Y-130500000D02*
X190700000Y-131400000D01*
X177700000Y-117500000D02*
X177700000Y-118400000D01*
X211200000Y-179500000D02*
X209900000Y-180800000D01*
X144900000Y-115800000D02*
X146200000Y-114500000D01*
X157900000Y-136900000D02*
X157900000Y-139200000D01*
X178900000Y-105600000D02*
X179250000Y-105250000D01*
X183900000Y-162900000D02*
X183900000Y-165200000D01*
X209900000Y-188250000D02*
X209000000Y-188250000D01*
X177700000Y-182500000D02*
X177700000Y-183400000D01*
X177700000Y-122200000D02*
X177700000Y-130500000D01*
X177700000Y-169500000D02*
X177700000Y-170400000D01*
X170900000Y-162900000D02*
X170900000Y-154800000D01*
X209900000Y-180800000D02*
X209900000Y-188250000D01*
X196250000Y-110250000D02*
X196250000Y-105250000D01*
X152900000Y-173000000D02*
X151700000Y-174200000D01*
X144900000Y-139200000D02*
X146200000Y-140500000D01*
X196900000Y-136900000D02*
X196900000Y-128800000D01*
X183900000Y-123900000D02*
X183900000Y-126200000D01*
X138700000Y-161200000D02*
X138700000Y-169500000D01*
X209900000Y-141800000D02*
X211200000Y-140500000D01*
X152900000Y-186500000D02*
X152600000Y-186800000D01*
X170900000Y-175900000D02*
X170900000Y-178200000D01*
X203700000Y-183400000D02*
X204900000Y-184600000D01*
X203700000Y-118400000D02*
X204900000Y-119600000D01*
X204900000Y-108000000D02*
X203700000Y-109200000D01*
X139900000Y-184600000D02*
X139900000Y-186000000D01*
X183900000Y-141800000D02*
X185200000Y-140500000D01*
X151700000Y-109200000D02*
X151700000Y-117500000D01*
X157900000Y-141800000D02*
X159200000Y-140500000D01*
X190700000Y-118400000D02*
X191900000Y-119600000D01*
X139900000Y-160000000D02*
X138700000Y-161200000D01*
X190700000Y-144400000D02*
X191900000Y-145600000D01*
X157900000Y-152200000D02*
X159200000Y-153500000D01*
X170900000Y-178200000D02*
X172200000Y-179500000D01*
X157900000Y-165200000D02*
X159200000Y-166500000D01*
X170900000Y-186700000D02*
X170800000Y-186800000D01*
X138700000Y-157400000D02*
X139900000Y-158600000D01*
X164700000Y-183400000D02*
X165900000Y-184600000D01*
X157900000Y-123900000D02*
X157900000Y-126200000D01*
X139900000Y-108000000D02*
X139900000Y-105400000D01*
X190700000Y-117500000D02*
X190700000Y-118400000D01*
X190700000Y-169500000D02*
X190700000Y-170400000D01*
X164700000Y-144400000D02*
X165900000Y-145600000D01*
X203700000Y-144400000D02*
X204900000Y-145600000D01*
X144900000Y-126200000D02*
X146200000Y-127500000D01*
X151700000Y-131400000D02*
X152900000Y-132600000D01*
X209900000Y-123900000D02*
X209900000Y-126200000D01*
X209900000Y-136900000D02*
X209900000Y-128800000D01*
X144900000Y-175900000D02*
X144900000Y-167800000D01*
X183900000Y-113200000D02*
X185200000Y-114500000D01*
X165900000Y-173000000D02*
X164700000Y-174200000D01*
X165900000Y-171600000D02*
X165900000Y-173000000D01*
X139900000Y-145600000D02*
X139900000Y-147000000D01*
X165900000Y-184600000D02*
X165900000Y-186700000D01*
X178900000Y-158600000D02*
X178900000Y-160000000D01*
X177700000Y-131400000D02*
X178900000Y-132600000D01*
X151700000Y-156500000D02*
X151700000Y-157400000D01*
X157900000Y-162900000D02*
X157900000Y-154800000D01*
X196900000Y-113200000D02*
X198200000Y-114500000D01*
X152900000Y-119600000D02*
X152900000Y-121000000D01*
X144900000Y-110900000D02*
X144900000Y-110650000D01*
X151700000Y-161200000D02*
X151700000Y-169500000D01*
X196900000Y-115800000D02*
X198200000Y-114500000D01*
X183900000Y-115800000D02*
X185200000Y-114500000D01*
X165900000Y-160000000D02*
X164700000Y-161200000D01*
X196900000Y-123900000D02*
X196900000Y-115800000D01*
X177700000Y-161200000D02*
X177700000Y-169500000D01*
X178900000Y-147000000D02*
X177700000Y-148200000D01*
X144900000Y-154800000D02*
X146200000Y-153500000D01*
X196900000Y-123900000D02*
X196900000Y-126200000D01*
X209250000Y-106000000D02*
X210000000Y-105250000D01*
X144900000Y-110900000D02*
X144900000Y-113200000D01*
X170900000Y-126200000D02*
X172200000Y-127500000D01*
X157900000Y-115800000D02*
X159200000Y-114500000D01*
X165900000Y-108000000D02*
X165900000Y-105350000D01*
X144900000Y-113200000D02*
X146200000Y-114500000D01*
X138700000Y-122200000D02*
X138700000Y-130500000D01*
X139900000Y-158600000D02*
X139900000Y-160000000D01*
X170900000Y-128800000D02*
X172200000Y-127500000D01*
X144900000Y-149900000D02*
X144900000Y-152200000D01*
X170900000Y-123900000D02*
X170900000Y-115800000D01*
X139900000Y-171600000D02*
X139900000Y-173000000D01*
X196900000Y-149900000D02*
X196900000Y-141800000D01*
X151700000Y-130500000D02*
X151700000Y-131400000D01*
D17*
%TO.N,-15V*%
X125000000Y-120750000D02*
X125000000Y-123648959D01*
X125000000Y-123648959D02*
X125175000Y-123823959D01*
X125910122Y-159750000D02*
X125290000Y-159129878D01*
X127250000Y-153000000D02*
X125000000Y-153000000D01*
X125000000Y-114250000D02*
X125000000Y-120750000D01*
X125800000Y-177139878D02*
X125800000Y-178639878D01*
X125000000Y-127000000D02*
X127300000Y-127000000D01*
X125175000Y-123823959D02*
X125175000Y-124176041D01*
X125800000Y-166139878D02*
X125800000Y-166400000D01*
X125000000Y-133750000D02*
X125000000Y-140250000D01*
X107460000Y-182210000D02*
X107460000Y-180600000D01*
X127200000Y-107800000D02*
X125700000Y-107800000D01*
X127400000Y-140300000D02*
X125050000Y-140300000D01*
X125700000Y-107800000D02*
X125000000Y-108500000D01*
X125800000Y-166139878D02*
X125800000Y-159639878D01*
X125000000Y-120750000D02*
X126850000Y-120750000D01*
X125910122Y-172750000D02*
X127250000Y-172750000D01*
X126850000Y-120750000D02*
X126900000Y-120800000D01*
X125800000Y-166400000D02*
X125790000Y-166410000D01*
X125000000Y-108500000D02*
X125000000Y-114250000D01*
X125000000Y-140250000D02*
X125000000Y-146750000D01*
X125000000Y-146750000D02*
X125000000Y-153000000D01*
X125790000Y-177129878D02*
X125800000Y-177139878D01*
X125175000Y-124176041D02*
X125000000Y-124351041D01*
X125000000Y-124351041D02*
X125000000Y-127000000D01*
X125290000Y-156879878D02*
X125000000Y-156589878D01*
X125000000Y-133750000D02*
X127350000Y-133750000D01*
X127200000Y-146700000D02*
X127150000Y-146750000D01*
X125050000Y-140300000D02*
X125000000Y-140250000D01*
X128000000Y-166250000D02*
X125910122Y-166250000D01*
X125790000Y-166410000D02*
X125790000Y-177129878D01*
X141250000Y-193500000D02*
X137500000Y-197250000D01*
X125800000Y-178639878D02*
X126410122Y-179250000D01*
X126650000Y-114250000D02*
X126800000Y-114400000D01*
X125290000Y-159129878D02*
X125290000Y-156879878D01*
X125910122Y-166250000D02*
X125800000Y-166250000D01*
X127150000Y-146750000D02*
X125000000Y-146750000D01*
X126410122Y-179250000D02*
X127750000Y-179250000D01*
X127750000Y-179250000D02*
X128000000Y-179000000D01*
X125800000Y-159639878D02*
X125290000Y-159129878D01*
X125000000Y-156589878D02*
X125000000Y-153000000D01*
X125000000Y-114250000D02*
X126650000Y-114250000D01*
X125800000Y-166250000D02*
X125800000Y-166139878D01*
X125000000Y-127000000D02*
X125000000Y-133750000D01*
X122500000Y-197250000D02*
X107460000Y-182210000D01*
X127300000Y-127000000D02*
X127400000Y-127100000D01*
X137500000Y-197250000D02*
X122500000Y-197250000D01*
X127350000Y-133750000D02*
X127400000Y-133800000D01*
X127500000Y-159750000D02*
X125910122Y-159750000D01*
D18*
%TO.N,/Element_4x12/Vg4_1*%
X140700000Y-141500000D02*
X140400000Y-141800000D01*
X141200000Y-123700000D02*
X140700000Y-124200000D01*
X141200000Y-184000000D02*
X141200000Y-188600000D01*
X141200000Y-149700000D02*
X140700000Y-150200000D01*
X140700000Y-111200000D02*
X140700000Y-115500000D01*
X140400000Y-131200000D02*
X141200000Y-132000000D01*
X140400000Y-180800000D02*
X140400000Y-183200000D01*
X140700000Y-115500000D02*
X140400000Y-115800000D01*
X141200000Y-171000000D02*
X141200000Y-175600000D01*
X141200000Y-145000000D02*
X141200000Y-149600000D01*
X141200000Y-149600000D02*
X141200000Y-149700000D01*
X140400000Y-170200000D02*
X141200000Y-171000000D01*
X141200000Y-162700000D02*
X140700000Y-163200000D01*
X140400000Y-154800000D02*
X140400000Y-157200000D01*
X140700000Y-154500000D02*
X140400000Y-154800000D01*
X140700000Y-137200000D02*
X140700000Y-141500000D01*
X141200000Y-119000000D02*
X141200000Y-123600000D01*
X140400000Y-183200000D02*
X141200000Y-184000000D01*
X140400000Y-115800000D02*
X140400000Y-118200000D01*
X140400000Y-141800000D02*
X140400000Y-144200000D01*
X140400000Y-144200000D02*
X141200000Y-145000000D01*
X141200000Y-123600000D02*
X141200000Y-123700000D01*
X141200000Y-132000000D02*
X141200000Y-136600000D01*
X140700000Y-176200000D02*
X140700000Y-180500000D01*
X140400000Y-157200000D02*
X141200000Y-158000000D01*
X140700000Y-180500000D02*
X140400000Y-180800000D01*
X141200000Y-162600000D02*
X141200000Y-162700000D01*
X140700000Y-167500000D02*
X140400000Y-167800000D01*
X141200000Y-110600000D02*
X141200000Y-110700000D01*
X141200000Y-123600000D02*
X141200000Y-123700000D01*
X141200000Y-110700000D02*
X140700000Y-111200000D01*
X141200000Y-136600000D02*
X141200000Y-136700000D01*
X140700000Y-163200000D02*
X140700000Y-167500000D01*
X141200000Y-136700000D02*
X140700000Y-137200000D01*
X141200000Y-175600000D02*
X141200000Y-175700000D01*
X141200000Y-175700000D02*
X140700000Y-176200000D01*
X140400000Y-118200000D02*
X141200000Y-119000000D01*
X140400000Y-128800000D02*
X140400000Y-131200000D01*
X140700000Y-128500000D02*
X140400000Y-128800000D01*
X141200000Y-158000000D02*
X141200000Y-162600000D01*
X140400000Y-167800000D02*
X140400000Y-170200000D01*
X140700000Y-150200000D02*
X140700000Y-154500000D01*
X140700000Y-124200000D02*
X140700000Y-128500000D01*
%TO.N,/Element_4x12/Vg4_2*%
X147200000Y-161400000D02*
X146700000Y-161900000D01*
X147200000Y-117400000D02*
X147200000Y-122400000D01*
X147200000Y-135400000D02*
X146700000Y-135900000D01*
X146700000Y-140800000D02*
X147700000Y-141800000D01*
X147800000Y-116800000D02*
X147200000Y-117400000D01*
X147800000Y-167900000D02*
X147800000Y-168800000D01*
X147200000Y-148400000D02*
X146700000Y-148900000D01*
X147200000Y-109400000D02*
X146700000Y-109900000D01*
X147800000Y-181800000D02*
X147200000Y-182400000D01*
X147800000Y-154900000D02*
X147800000Y-155800000D01*
X146700000Y-179800000D02*
X147700000Y-180800000D01*
X147200000Y-169400000D02*
X147200000Y-174400000D01*
X147700000Y-180800000D02*
X147800000Y-180900000D01*
X146700000Y-122900000D02*
X146700000Y-127800000D01*
X147800000Y-129800000D02*
X147200000Y-130400000D01*
X146700000Y-174900000D02*
X146700000Y-179800000D01*
X146700000Y-166800000D02*
X147700000Y-167800000D01*
X147200000Y-174400000D02*
X146700000Y-174900000D01*
X147200000Y-130400000D02*
X147200000Y-135400000D01*
X147800000Y-155800000D02*
X147200000Y-156400000D01*
X146700000Y-109900000D02*
X146700000Y-114800000D01*
X147800000Y-142800000D02*
X147200000Y-143400000D01*
X147200000Y-122400000D02*
X146700000Y-122900000D01*
X147700000Y-141800000D02*
X147800000Y-141900000D01*
X146700000Y-127800000D02*
X147700000Y-128800000D01*
X146700000Y-114800000D02*
X147700000Y-115800000D01*
X147200000Y-156400000D02*
X147200000Y-161400000D01*
X147700000Y-128800000D02*
X147800000Y-128900000D01*
X146700000Y-161900000D02*
X146700000Y-166800000D01*
X146700000Y-148900000D02*
X146700000Y-153800000D01*
X146700000Y-153800000D02*
X147700000Y-154800000D01*
X147800000Y-115900000D02*
X147800000Y-116800000D01*
X147700000Y-154800000D02*
X147800000Y-154900000D01*
X146700000Y-135900000D02*
X146700000Y-140800000D01*
X147200000Y-143400000D02*
X147200000Y-148400000D01*
X147800000Y-128900000D02*
X147800000Y-129800000D01*
X147800000Y-168800000D02*
X147200000Y-169400000D01*
X147700000Y-167800000D02*
X147800000Y-167900000D01*
X147200000Y-182400000D02*
X147200000Y-187400000D01*
X147800000Y-141900000D02*
X147800000Y-142800000D01*
X147700000Y-115800000D02*
X147800000Y-115900000D01*
X147800000Y-180900000D02*
X147800000Y-181800000D01*
%TO.N,/Element_4x16/Vg4_1*%
X193200000Y-119000000D02*
X193200000Y-123600000D01*
X193200000Y-110600000D02*
X193200000Y-110700000D01*
X193200000Y-162600000D02*
X193200000Y-162700000D01*
X192400000Y-128800000D02*
X192400000Y-131200000D01*
X193200000Y-145000000D02*
X193200000Y-149600000D01*
X192700000Y-150200000D02*
X192700000Y-154500000D01*
X192400000Y-144200000D02*
X193200000Y-145000000D01*
X193200000Y-149600000D02*
X193200000Y-149700000D01*
X192700000Y-141500000D02*
X192400000Y-141800000D01*
X192400000Y-154800000D02*
X192400000Y-157200000D01*
X193200000Y-149700000D02*
X192700000Y-150200000D01*
X193200000Y-158000000D02*
X193200000Y-162600000D01*
X192400000Y-131200000D02*
X193200000Y-132000000D01*
X193200000Y-132000000D02*
X193200000Y-136600000D01*
X192400000Y-183200000D02*
X193200000Y-184000000D01*
X192400000Y-115800000D02*
X192400000Y-118200000D01*
X192700000Y-163200000D02*
X192700000Y-167500000D01*
X193200000Y-136700000D02*
X192700000Y-137200000D01*
X193200000Y-184000000D02*
X193200000Y-188600000D01*
X193200000Y-171000000D02*
X193200000Y-175600000D01*
X192700000Y-176200000D02*
X192700000Y-180500000D01*
X192400000Y-141800000D02*
X192400000Y-144200000D01*
X192700000Y-154500000D02*
X192400000Y-154800000D01*
X193200000Y-175600000D02*
X193200000Y-175700000D01*
X193200000Y-162700000D02*
X192700000Y-163200000D01*
X192700000Y-115500000D02*
X192400000Y-115800000D01*
X193200000Y-175700000D02*
X192700000Y-176200000D01*
X192400000Y-180800000D02*
X192400000Y-183200000D01*
X193200000Y-136600000D02*
X193200000Y-136700000D01*
X192700000Y-180500000D02*
X192400000Y-180800000D01*
X192400000Y-157200000D02*
X193200000Y-158000000D01*
X193200000Y-123700000D02*
X192700000Y-124200000D01*
X192400000Y-167800000D02*
X192400000Y-170200000D01*
X192700000Y-124200000D02*
X192700000Y-128500000D01*
X192700000Y-111200000D02*
X192700000Y-115500000D01*
X192400000Y-170200000D02*
X193200000Y-171000000D01*
X193200000Y-110700000D02*
X192700000Y-111200000D01*
X192400000Y-118200000D02*
X193200000Y-119000000D01*
X192700000Y-167500000D02*
X192400000Y-167800000D01*
X192700000Y-137200000D02*
X192700000Y-141500000D01*
X193200000Y-123600000D02*
X193200000Y-123700000D01*
X192700000Y-128500000D02*
X192400000Y-128800000D01*
%TO.N,/Element_4x16/Vg4_2*%
X199200000Y-135400000D02*
X198700000Y-135900000D01*
X199800000Y-128900000D02*
X199800000Y-129800000D01*
X199200000Y-109400000D02*
X198700000Y-109900000D01*
X199800000Y-116800000D02*
X199200000Y-117400000D01*
X199700000Y-115800000D02*
X199800000Y-115900000D01*
X199200000Y-161400000D02*
X198700000Y-161900000D01*
X199200000Y-174400000D02*
X198700000Y-174900000D01*
X199700000Y-180800000D02*
X199800000Y-180900000D01*
X198700000Y-135900000D02*
X198700000Y-140800000D01*
X199800000Y-155800000D02*
X199200000Y-156400000D01*
X199200000Y-122400000D02*
X198700000Y-122900000D01*
X198700000Y-114800000D02*
X199700000Y-115800000D01*
X198700000Y-148900000D02*
X198700000Y-153800000D01*
X199200000Y-143400000D02*
X199200000Y-148400000D01*
X199800000Y-141900000D02*
X199800000Y-142800000D01*
X199800000Y-154900000D02*
X199800000Y-155800000D01*
X198700000Y-179800000D02*
X199700000Y-180800000D01*
X198700000Y-166800000D02*
X199700000Y-167800000D01*
X198700000Y-161900000D02*
X198700000Y-166800000D01*
X199200000Y-182400000D02*
X199200000Y-187400000D01*
X199200000Y-130400000D02*
X199200000Y-135400000D01*
X199800000Y-142800000D02*
X199200000Y-143400000D01*
X199700000Y-141800000D02*
X199800000Y-141900000D01*
X199200000Y-117400000D02*
X199200000Y-122400000D01*
X199700000Y-154800000D02*
X199800000Y-154900000D01*
X199200000Y-169400000D02*
X199200000Y-174400000D01*
X198700000Y-174900000D02*
X198700000Y-179800000D01*
X198700000Y-109900000D02*
X198700000Y-114800000D01*
X199800000Y-181800000D02*
X199200000Y-182400000D01*
X199200000Y-156400000D02*
X199200000Y-161400000D01*
X199700000Y-167800000D02*
X199800000Y-167900000D01*
X199700000Y-128800000D02*
X199800000Y-128900000D01*
X199800000Y-129800000D02*
X199200000Y-130400000D01*
X199200000Y-148400000D02*
X198700000Y-148900000D01*
X199800000Y-168800000D02*
X199200000Y-169400000D01*
X199800000Y-167900000D02*
X199800000Y-168800000D01*
X199800000Y-180900000D02*
X199800000Y-181800000D01*
X199800000Y-115900000D02*
X199800000Y-116800000D01*
X198700000Y-140800000D02*
X199700000Y-141800000D01*
X198700000Y-153800000D02*
X199700000Y-154800000D01*
X198700000Y-127800000D02*
X199700000Y-128800000D01*
X198700000Y-122900000D02*
X198700000Y-127800000D01*
%TO.N,/Element_4x13/Vg4_1*%
X154200000Y-119000000D02*
X154200000Y-123600000D01*
X153400000Y-115800000D02*
X153400000Y-118200000D01*
X154200000Y-149700000D02*
X153700000Y-150200000D01*
X153400000Y-154800000D02*
X153400000Y-157200000D01*
X153700000Y-137200000D02*
X153700000Y-141500000D01*
X153400000Y-180800000D02*
X153400000Y-183200000D01*
X153400000Y-157200000D02*
X154200000Y-158000000D01*
X154200000Y-136700000D02*
X153700000Y-137200000D01*
X154200000Y-110700000D02*
X153700000Y-111200000D01*
X153400000Y-144200000D02*
X154200000Y-145000000D01*
X153400000Y-183200000D02*
X154200000Y-184000000D01*
X153700000Y-180500000D02*
X153400000Y-180800000D01*
X153700000Y-154500000D02*
X153400000Y-154800000D01*
X153400000Y-131200000D02*
X154200000Y-132000000D01*
X153400000Y-128800000D02*
X153400000Y-131200000D01*
X153400000Y-170200000D02*
X154200000Y-171000000D01*
X153700000Y-176200000D02*
X153700000Y-180500000D01*
X153700000Y-111200000D02*
X153700000Y-115500000D01*
X154200000Y-149600000D02*
X154200000Y-149700000D01*
X153700000Y-141500000D02*
X153400000Y-141800000D01*
X154200000Y-162700000D02*
X153700000Y-163200000D01*
X154200000Y-110600000D02*
X154200000Y-110700000D01*
X154200000Y-132000000D02*
X154200000Y-136600000D01*
X154200000Y-175600000D02*
X154200000Y-175700000D01*
X154200000Y-158000000D02*
X154200000Y-162600000D01*
X153700000Y-167500000D02*
X153400000Y-167800000D01*
X153400000Y-167800000D02*
X153400000Y-170200000D01*
X154200000Y-123600000D02*
X154200000Y-123700000D01*
X153700000Y-163200000D02*
X153700000Y-167500000D01*
X153700000Y-128500000D02*
X153400000Y-128800000D01*
X153700000Y-150200000D02*
X153700000Y-154500000D01*
X154200000Y-136600000D02*
X154200000Y-136700000D01*
X154200000Y-162600000D02*
X154200000Y-162700000D01*
X154200000Y-175700000D02*
X153700000Y-176200000D01*
X153400000Y-118200000D02*
X154200000Y-119000000D01*
X154200000Y-184000000D02*
X154200000Y-188600000D01*
X154200000Y-123700000D02*
X153700000Y-124200000D01*
X153700000Y-124200000D02*
X153700000Y-128500000D01*
X154200000Y-171000000D02*
X154200000Y-175600000D01*
X153700000Y-115500000D02*
X153400000Y-115800000D01*
X153400000Y-141800000D02*
X153400000Y-144200000D01*
X154200000Y-145000000D02*
X154200000Y-149600000D01*
%TO.N,/Element_4x13/Vg4_2*%
X159700000Y-161900000D02*
X159700000Y-166800000D01*
X160200000Y-117400000D02*
X160200000Y-122400000D01*
X160200000Y-109400000D02*
X159700000Y-109900000D01*
X160800000Y-181800000D02*
X160200000Y-182400000D01*
X160700000Y-180800000D02*
X160800000Y-180900000D01*
X160700000Y-128800000D02*
X160800000Y-128900000D01*
X159700000Y-148900000D02*
X159700000Y-153800000D01*
X160200000Y-130400000D02*
X160200000Y-135400000D01*
X160800000Y-116800000D02*
X160200000Y-117400000D01*
X159700000Y-140800000D02*
X160700000Y-141800000D01*
X159700000Y-114800000D02*
X160700000Y-115800000D01*
X159700000Y-122900000D02*
X159700000Y-127800000D01*
X160700000Y-167800000D02*
X160800000Y-167900000D01*
X160200000Y-161400000D02*
X159700000Y-161900000D01*
X160200000Y-143400000D02*
X160200000Y-148400000D01*
X160800000Y-128900000D02*
X160800000Y-129800000D01*
X160800000Y-154900000D02*
X160800000Y-155800000D01*
X160700000Y-141800000D02*
X160800000Y-141900000D01*
X160700000Y-154800000D02*
X160800000Y-154900000D01*
X160200000Y-122400000D02*
X159700000Y-122900000D01*
X160200000Y-182400000D02*
X160200000Y-187400000D01*
X160200000Y-135400000D02*
X159700000Y-135900000D01*
X160200000Y-169400000D02*
X160200000Y-174400000D01*
X159700000Y-179800000D02*
X160700000Y-180800000D01*
X160800000Y-129800000D02*
X160200000Y-130400000D01*
X160200000Y-156400000D02*
X160200000Y-161400000D01*
X159700000Y-109900000D02*
X159700000Y-114800000D01*
X160800000Y-141900000D02*
X160800000Y-142800000D01*
X160800000Y-180900000D02*
X160800000Y-181800000D01*
X159700000Y-135900000D02*
X159700000Y-140800000D01*
X160700000Y-115800000D02*
X160800000Y-115900000D01*
X160800000Y-115900000D02*
X160800000Y-116800000D01*
X160200000Y-148400000D02*
X159700000Y-148900000D01*
X159700000Y-174900000D02*
X159700000Y-179800000D01*
X160800000Y-167900000D02*
X160800000Y-168800000D01*
X159700000Y-127800000D02*
X160700000Y-128800000D01*
X159700000Y-166800000D02*
X160700000Y-167800000D01*
X160200000Y-174400000D02*
X159700000Y-174900000D01*
X160800000Y-168800000D02*
X160200000Y-169400000D01*
X159700000Y-153800000D02*
X160700000Y-154800000D01*
X160800000Y-142800000D02*
X160200000Y-143400000D01*
X160800000Y-155800000D02*
X160200000Y-156400000D01*
%TO.N,/Element_4x14/Vg4_1*%
X166700000Y-163200000D02*
X166700000Y-167500000D01*
X166400000Y-180800000D02*
X166400000Y-183200000D01*
X166400000Y-144200000D02*
X167200000Y-145000000D01*
X167200000Y-158000000D02*
X167200000Y-162600000D01*
X166700000Y-124200000D02*
X166700000Y-128500000D01*
X167200000Y-175700000D02*
X166700000Y-176200000D01*
X167200000Y-149700000D02*
X166700000Y-150200000D01*
X166400000Y-141800000D02*
X166400000Y-144200000D01*
X166700000Y-128500000D02*
X166400000Y-128800000D01*
X166700000Y-167500000D02*
X166400000Y-167800000D01*
X167200000Y-123700000D02*
X166700000Y-124200000D01*
X166700000Y-150200000D02*
X166700000Y-154500000D01*
X167200000Y-175600000D02*
X167200000Y-175700000D01*
X167200000Y-184000000D02*
X167200000Y-188600000D01*
X166700000Y-141500000D02*
X166400000Y-141800000D01*
X166400000Y-157200000D02*
X167200000Y-158000000D01*
X166700000Y-115500000D02*
X166400000Y-115800000D01*
X167200000Y-171000000D02*
X167200000Y-175600000D01*
X167200000Y-162700000D02*
X166700000Y-163200000D01*
X167200000Y-119000000D02*
X167200000Y-123600000D01*
X166400000Y-183200000D02*
X167200000Y-184000000D01*
X166700000Y-154500000D02*
X166400000Y-154800000D01*
X166400000Y-115800000D02*
X166400000Y-118200000D01*
X167200000Y-149600000D02*
X167200000Y-149700000D01*
X167200000Y-162600000D02*
X167200000Y-162700000D01*
X167200000Y-123600000D02*
X167200000Y-123700000D01*
X167200000Y-110700000D02*
X166700000Y-111200000D01*
X166400000Y-131200000D02*
X167200000Y-132000000D01*
X166400000Y-167800000D02*
X166400000Y-170200000D01*
X166400000Y-170200000D02*
X167200000Y-171000000D01*
X166400000Y-118200000D02*
X167200000Y-119000000D01*
X166700000Y-137200000D02*
X166700000Y-141500000D01*
X167200000Y-145000000D02*
X167200000Y-149600000D01*
X166400000Y-154800000D02*
X166400000Y-157200000D01*
X167200000Y-136600000D02*
X167200000Y-136700000D01*
X167200000Y-132000000D02*
X167200000Y-136600000D01*
X167200000Y-136700000D02*
X166700000Y-137200000D01*
X167200000Y-110600000D02*
X167200000Y-110700000D01*
X166700000Y-180500000D02*
X166400000Y-180800000D01*
X166700000Y-111200000D02*
X166700000Y-115500000D01*
X166700000Y-176200000D02*
X166700000Y-180500000D01*
X166400000Y-128800000D02*
X166400000Y-131200000D01*
%TO.N,/Element_4x14/Vg4_2*%
X172700000Y-174900000D02*
X172700000Y-179800000D01*
X172700000Y-109900000D02*
X172700000Y-114800000D01*
X172700000Y-161900000D02*
X172700000Y-166800000D01*
X172700000Y-114800000D02*
X173700000Y-115800000D01*
X173700000Y-128800000D02*
X173800000Y-128900000D01*
X172700000Y-148900000D02*
X172700000Y-153800000D01*
X173700000Y-180800000D02*
X173800000Y-180900000D01*
X172700000Y-140800000D02*
X173700000Y-141800000D01*
X173200000Y-143400000D02*
X173200000Y-148400000D01*
X173700000Y-154800000D02*
X173800000Y-154900000D01*
X173800000Y-181800000D02*
X173200000Y-182400000D01*
X173800000Y-180900000D02*
X173800000Y-181800000D01*
X172700000Y-179800000D02*
X173700000Y-180800000D01*
X173800000Y-141900000D02*
X173800000Y-142800000D01*
X173800000Y-155800000D02*
X173200000Y-156400000D01*
X173200000Y-122400000D02*
X172700000Y-122900000D01*
X173200000Y-135400000D02*
X172700000Y-135900000D01*
X173800000Y-167900000D02*
X173800000Y-168800000D01*
X172700000Y-122900000D02*
X172700000Y-127800000D01*
X173700000Y-141800000D02*
X173800000Y-141900000D01*
X172700000Y-127800000D02*
X173700000Y-128800000D01*
X173800000Y-142800000D02*
X173200000Y-143400000D01*
X173200000Y-156400000D02*
X173200000Y-161400000D01*
X172700000Y-135900000D02*
X172700000Y-140800000D01*
X173700000Y-167800000D02*
X173800000Y-167900000D01*
X173200000Y-109400000D02*
X172700000Y-109900000D01*
X173800000Y-168800000D02*
X173200000Y-169400000D01*
X173200000Y-174400000D02*
X172700000Y-174900000D01*
X173700000Y-115800000D02*
X173800000Y-115900000D01*
X173200000Y-169400000D02*
X173200000Y-174400000D01*
X173800000Y-154900000D02*
X173800000Y-155800000D01*
X173200000Y-182400000D02*
X173200000Y-187400000D01*
X173200000Y-148400000D02*
X172700000Y-148900000D01*
X173800000Y-115900000D02*
X173800000Y-116800000D01*
X172700000Y-166800000D02*
X173700000Y-167800000D01*
X173800000Y-129800000D02*
X173200000Y-130400000D01*
X173200000Y-130400000D02*
X173200000Y-135400000D01*
X173800000Y-116800000D02*
X173200000Y-117400000D01*
X173200000Y-161400000D02*
X172700000Y-161900000D01*
X173800000Y-128900000D02*
X173800000Y-129800000D01*
X172700000Y-153800000D02*
X173700000Y-154800000D01*
X173200000Y-117400000D02*
X173200000Y-122400000D01*
%TO.N,/Element_4x17/Vg4_1*%
X206200000Y-136600000D02*
X206200000Y-136700000D01*
X206200000Y-110600000D02*
X206200000Y-110700000D01*
X206200000Y-149700000D02*
X205700000Y-150200000D01*
X205400000Y-144200000D02*
X206200000Y-145000000D01*
X205700000Y-163200000D02*
X205700000Y-167500000D01*
X205400000Y-170200000D02*
X206200000Y-171000000D01*
X205400000Y-141800000D02*
X205400000Y-144200000D01*
X205700000Y-115500000D02*
X205400000Y-115800000D01*
X205400000Y-157200000D02*
X206200000Y-158000000D01*
X206200000Y-110700000D02*
X205700000Y-111200000D01*
X205400000Y-115800000D02*
X205400000Y-118200000D01*
X205700000Y-150200000D02*
X205700000Y-154500000D01*
X206200000Y-119000000D02*
X206200000Y-123600000D01*
X206200000Y-175600000D02*
X206200000Y-175700000D01*
X205700000Y-137200000D02*
X205700000Y-141500000D01*
X205700000Y-176200000D02*
X205700000Y-180500000D01*
X206200000Y-123600000D02*
X206200000Y-123700000D01*
X205700000Y-111200000D02*
X205700000Y-115500000D01*
X206200000Y-132000000D02*
X206200000Y-136600000D01*
X205400000Y-183200000D02*
X206200000Y-184000000D01*
X205400000Y-128800000D02*
X205400000Y-131200000D01*
X205400000Y-118200000D02*
X206200000Y-119000000D01*
X206200000Y-171000000D02*
X206200000Y-175600000D01*
X205700000Y-154500000D02*
X205400000Y-154800000D01*
X206200000Y-175700000D02*
X205700000Y-176200000D01*
X206200000Y-184000000D02*
X206200000Y-188600000D01*
X205400000Y-154800000D02*
X205400000Y-157200000D01*
X205400000Y-180800000D02*
X205400000Y-183200000D01*
X206200000Y-162600000D02*
X206200000Y-162700000D01*
X205700000Y-141500000D02*
X205400000Y-141800000D01*
X206200000Y-145000000D02*
X206200000Y-149600000D01*
X206200000Y-158000000D02*
X206200000Y-162600000D01*
X206200000Y-162700000D02*
X205700000Y-163200000D01*
X205700000Y-124200000D02*
X205700000Y-128500000D01*
X206200000Y-149600000D02*
X206200000Y-149700000D01*
X205700000Y-128500000D02*
X205400000Y-128800000D01*
X205400000Y-131200000D02*
X206200000Y-132000000D01*
X206200000Y-123700000D02*
X205700000Y-124200000D01*
X206200000Y-136700000D02*
X205700000Y-137200000D01*
X205400000Y-167800000D02*
X205400000Y-170200000D01*
X205700000Y-167500000D02*
X205400000Y-167800000D01*
X205700000Y-180500000D02*
X205400000Y-180800000D01*
%TO.N,/Element_4x15/Vg4_1*%
X179400000Y-180800000D02*
X179400000Y-183200000D01*
X180200000Y-158000000D02*
X180200000Y-162600000D01*
X179700000Y-141500000D02*
X179400000Y-141800000D01*
X180200000Y-110700000D02*
X179700000Y-111200000D01*
X179700000Y-115500000D02*
X179400000Y-115800000D01*
X179700000Y-137200000D02*
X179700000Y-141500000D01*
X179400000Y-128800000D02*
X179400000Y-131200000D01*
X180200000Y-132000000D02*
X180200000Y-136600000D01*
X179400000Y-170200000D02*
X180200000Y-171000000D01*
X180200000Y-119000000D02*
X180200000Y-123600000D01*
X179700000Y-111200000D02*
X179700000Y-115500000D01*
X179400000Y-183200000D02*
X180200000Y-184000000D01*
X180200000Y-123600000D02*
X180200000Y-123700000D01*
X179700000Y-163200000D02*
X179700000Y-167500000D01*
X180200000Y-136700000D02*
X179700000Y-137200000D01*
X180200000Y-184000000D02*
X180200000Y-188600000D01*
X180200000Y-149600000D02*
X180200000Y-149700000D01*
X179400000Y-118200000D02*
X180200000Y-119000000D01*
X180200000Y-123700000D02*
X179700000Y-124200000D01*
X179700000Y-180500000D02*
X179400000Y-180800000D01*
X180200000Y-175700000D02*
X179700000Y-176200000D01*
X180200000Y-162600000D02*
X180200000Y-162700000D01*
X179700000Y-150200000D02*
X179700000Y-154500000D01*
X179700000Y-154500000D02*
X179400000Y-154800000D01*
X180200000Y-110600000D02*
X180200000Y-110700000D01*
X180200000Y-171000000D02*
X180200000Y-175600000D01*
X179700000Y-167500000D02*
X179400000Y-167800000D01*
X179400000Y-154800000D02*
X179400000Y-157200000D01*
X179700000Y-124200000D02*
X179700000Y-128500000D01*
X179400000Y-131200000D02*
X180200000Y-132000000D01*
X179400000Y-167800000D02*
X179400000Y-170200000D01*
X180200000Y-145000000D02*
X180200000Y-149600000D01*
X179400000Y-157200000D02*
X180200000Y-158000000D01*
X180200000Y-149700000D02*
X179700000Y-150200000D01*
X179400000Y-141800000D02*
X179400000Y-144200000D01*
X179400000Y-115800000D02*
X179400000Y-118200000D01*
X179700000Y-176200000D02*
X179700000Y-180500000D01*
X180200000Y-175600000D02*
X180200000Y-175700000D01*
X180200000Y-162700000D02*
X179700000Y-163200000D01*
X179700000Y-128500000D02*
X179400000Y-128800000D01*
X180200000Y-136600000D02*
X180200000Y-136700000D01*
X179400000Y-144200000D02*
X180200000Y-145000000D01*
%TO.N,/Element_4x15/Vg4_2*%
X186200000Y-182400000D02*
X186200000Y-187400000D01*
X186200000Y-122400000D02*
X185700000Y-122900000D01*
X186800000Y-181800000D02*
X186200000Y-182400000D01*
X186800000Y-167900000D02*
X186800000Y-168800000D01*
X185700000Y-135900000D02*
X185700000Y-140800000D01*
X186800000Y-141900000D02*
X186800000Y-142800000D01*
X186700000Y-115800000D02*
X186800000Y-115900000D01*
X185700000Y-153800000D02*
X186700000Y-154800000D01*
X186800000Y-115900000D02*
X186800000Y-116800000D01*
X185700000Y-140800000D02*
X186700000Y-141800000D01*
X186700000Y-128800000D02*
X186800000Y-128900000D01*
X185700000Y-127800000D02*
X186700000Y-128800000D01*
X185700000Y-148900000D02*
X185700000Y-153800000D01*
X185700000Y-174900000D02*
X185700000Y-179800000D01*
X185700000Y-166800000D02*
X186700000Y-167800000D01*
X186200000Y-135400000D02*
X185700000Y-135900000D01*
X186800000Y-155800000D02*
X186200000Y-156400000D01*
X186200000Y-143400000D02*
X186200000Y-148400000D01*
X185700000Y-114800000D02*
X186700000Y-115800000D01*
X186800000Y-128900000D02*
X186800000Y-129800000D01*
X186200000Y-130400000D02*
X186200000Y-135400000D01*
X186200000Y-109400000D02*
X185700000Y-109900000D01*
X186200000Y-161400000D02*
X185700000Y-161900000D01*
X186700000Y-141800000D02*
X186800000Y-141900000D01*
X186200000Y-148400000D02*
X185700000Y-148900000D01*
X186200000Y-174400000D02*
X185700000Y-174900000D01*
X186800000Y-142800000D02*
X186200000Y-143400000D01*
X186700000Y-167800000D02*
X186800000Y-167900000D01*
X186200000Y-169400000D02*
X186200000Y-174400000D01*
X186700000Y-180800000D02*
X186800000Y-180900000D01*
X186800000Y-116800000D02*
X186200000Y-117400000D01*
X186200000Y-156400000D02*
X186200000Y-161400000D01*
X186800000Y-154900000D02*
X186800000Y-155800000D01*
X186700000Y-154800000D02*
X186800000Y-154900000D01*
X186800000Y-129800000D02*
X186200000Y-130400000D01*
X185700000Y-122900000D02*
X185700000Y-127800000D01*
X186200000Y-117400000D02*
X186200000Y-122400000D01*
X185700000Y-109900000D02*
X185700000Y-114800000D01*
X185700000Y-161900000D02*
X185700000Y-166800000D01*
X186800000Y-168800000D02*
X186200000Y-169400000D01*
X186800000Y-180900000D02*
X186800000Y-181800000D01*
X185700000Y-179800000D02*
X186700000Y-180800000D01*
%TO.N,/Element_4x17/Vg4_2*%
X212200000Y-148400000D02*
X211700000Y-148900000D01*
X212200000Y-130400000D02*
X212200000Y-135400000D01*
X212200000Y-122400000D02*
X211700000Y-122900000D01*
X212800000Y-181800000D02*
X212200000Y-182400000D01*
X212700000Y-167800000D02*
X212800000Y-167900000D01*
X212200000Y-182400000D02*
X212200000Y-187400000D01*
X211700000Y-122900000D02*
X211700000Y-127800000D01*
X211700000Y-109900000D02*
X211700000Y-114800000D01*
X211700000Y-161900000D02*
X211700000Y-166800000D01*
X211700000Y-148900000D02*
X211700000Y-153800000D01*
X212800000Y-154900000D02*
X212800000Y-155800000D01*
X212800000Y-115900000D02*
X212800000Y-116800000D01*
X211700000Y-127800000D02*
X212700000Y-128800000D01*
X212200000Y-109400000D02*
X211700000Y-109900000D01*
X211700000Y-153800000D02*
X212700000Y-154800000D01*
X212700000Y-115800000D02*
X212800000Y-115900000D01*
X212200000Y-169400000D02*
X212200000Y-174400000D01*
X212200000Y-143400000D02*
X212200000Y-148400000D01*
X212700000Y-128800000D02*
X212800000Y-128900000D01*
X212700000Y-154800000D02*
X212800000Y-154900000D01*
X212800000Y-167900000D02*
X212800000Y-168800000D01*
X212800000Y-155800000D02*
X212200000Y-156400000D01*
X212700000Y-141800000D02*
X212800000Y-141900000D01*
X212700000Y-180800000D02*
X212800000Y-180900000D01*
X212200000Y-174400000D02*
X211700000Y-174900000D01*
X212200000Y-156400000D02*
X212200000Y-161400000D01*
X212200000Y-161400000D02*
X211700000Y-161900000D01*
X212800000Y-141900000D02*
X212800000Y-142800000D01*
X211700000Y-140800000D02*
X212700000Y-141800000D01*
X211700000Y-174900000D02*
X211700000Y-179800000D01*
X211700000Y-114800000D02*
X212700000Y-115800000D01*
X212800000Y-129800000D02*
X212200000Y-130400000D01*
X212200000Y-135400000D02*
X211700000Y-135900000D01*
X211700000Y-135900000D02*
X211700000Y-140800000D01*
X212800000Y-116800000D02*
X212200000Y-117400000D01*
X211700000Y-179800000D02*
X212700000Y-180800000D01*
X212800000Y-180900000D02*
X212800000Y-181800000D01*
X212800000Y-142800000D02*
X212200000Y-143400000D01*
X212200000Y-117400000D02*
X212200000Y-122400000D01*
X212800000Y-168800000D02*
X212200000Y-169400000D01*
X211700000Y-166800000D02*
X212700000Y-167800000D01*
X212800000Y-128900000D02*
X212800000Y-129800000D01*
D17*
%TO.N,/TMP8*%
X125000000Y-167000000D02*
X125000000Y-157000000D01*
X125250000Y-167250000D02*
X125000000Y-167000000D01*
X127250000Y-187500000D02*
X127250000Y-182250000D01*
X127250000Y-182250000D02*
X125000000Y-180000000D01*
X125250000Y-169191867D02*
X125250000Y-167250000D01*
X125000000Y-169441867D02*
X125250000Y-169191867D01*
X125000000Y-157000000D02*
X124000000Y-156000000D01*
X125000000Y-180000000D02*
X125000000Y-169441867D01*
%TO.N,/TMP11*%
X130500000Y-195500000D02*
X123250000Y-188250000D01*
X123250000Y-188250000D02*
X123250000Y-175500000D01*
X130750000Y-195500000D02*
X130500000Y-195500000D01*
%TO.N,/TMP9*%
X126250000Y-187250000D02*
X126250000Y-181750000D01*
X124250000Y-162750000D02*
X124500000Y-162500000D01*
X124710000Y-169321745D02*
X124960000Y-169071745D01*
X126250000Y-181750000D02*
X124710000Y-180210000D01*
X124710000Y-180210000D02*
X124710000Y-169321745D01*
X124960000Y-167460000D02*
X124250000Y-166750000D01*
X124960000Y-169071745D02*
X124960000Y-167460000D01*
X124250000Y-166750000D02*
X124250000Y-162750000D01*
X126000000Y-187500000D02*
X126250000Y-187250000D01*
%TO.N,/TMP5*%
X129040000Y-157321745D02*
X128540000Y-156821745D01*
X129416000Y-174005878D02*
X129250000Y-173839878D01*
X128250000Y-147410122D02*
X128366000Y-147294122D01*
X129000000Y-187500000D02*
X129000000Y-186910122D01*
X128540000Y-156821745D02*
X128540000Y-150321745D01*
X128250000Y-144089878D02*
X128250000Y-137250000D01*
X129040000Y-161540000D02*
X129040000Y-157321745D01*
X128366000Y-144205878D02*
X128250000Y-144089878D01*
X129290000Y-176651867D02*
X129416000Y-176525867D01*
X129416000Y-186494122D02*
X129416000Y-179697745D01*
X129250000Y-163281745D02*
X129376000Y-163155745D01*
X126750000Y-137250000D02*
X126000000Y-136500000D01*
X129376000Y-161876000D02*
X129040000Y-161540000D01*
X129416000Y-176525867D02*
X129416000Y-174005878D01*
X129376000Y-163155745D02*
X129376000Y-161876000D01*
X129250000Y-173839878D02*
X129250000Y-163281745D01*
X129000000Y-186910122D02*
X129416000Y-186494122D01*
X129290000Y-179571745D02*
X129290000Y-176651867D01*
X128366000Y-147294122D02*
X128366000Y-144205878D01*
X128540000Y-150321745D02*
X128250000Y-150031745D01*
X128250000Y-150031745D02*
X128250000Y-147410122D01*
X128250000Y-137250000D02*
X126750000Y-137250000D01*
X129416000Y-179697745D02*
X129290000Y-179571745D01*
%TO.N,/TMP10*%
X123960000Y-179870122D02*
X124876000Y-180786122D01*
X125750000Y-182000000D02*
X125750000Y-187000000D01*
X123960000Y-169540000D02*
X123960000Y-179870122D01*
X125750000Y-187000000D02*
X125500000Y-187250000D01*
X124876000Y-180786122D02*
X124876000Y-181126000D01*
X124876000Y-181126000D02*
X125750000Y-182000000D01*
X124500000Y-169000000D02*
X123960000Y-169540000D01*
%TO.N,/TMP7*%
X127750000Y-186500000D02*
X128500000Y-185750000D01*
X128126000Y-157376000D02*
X127750000Y-157000000D01*
X127750000Y-187250000D02*
X127750000Y-186500000D01*
X127750000Y-157000000D02*
X127000000Y-156250000D01*
X126250000Y-150500000D02*
X126250000Y-150000000D01*
X128500000Y-183500000D02*
X128250000Y-183250000D01*
X128126000Y-159655745D02*
X128126000Y-157376000D01*
X127250000Y-171031745D02*
X127250000Y-169750000D01*
X127338284Y-165056539D02*
X127338284Y-160443461D01*
X128376000Y-166405745D02*
X128376000Y-166094255D01*
X128500000Y-185750000D02*
X128500000Y-183500000D01*
X128090284Y-176122029D02*
X128090284Y-171872029D01*
X127000000Y-156250000D02*
X127000000Y-154500000D01*
X128250000Y-167750000D02*
X128250000Y-166531745D01*
X128376000Y-166094255D02*
X127338284Y-165056539D01*
X126250000Y-151468255D02*
X126250000Y-150500000D01*
X128500000Y-176531745D02*
X128090284Y-176122029D01*
X127250000Y-168432539D02*
X127932539Y-167750000D01*
X128250000Y-179281745D02*
X128500000Y-179031745D01*
X127932539Y-167750000D02*
X128250000Y-167750000D01*
X128250000Y-183250000D02*
X128250000Y-179281745D01*
X127750000Y-152968255D02*
X126250000Y-151468255D01*
X127250000Y-169750000D02*
X127250000Y-168432539D01*
X127750000Y-153750000D02*
X127750000Y-152968255D01*
X128090284Y-171872029D02*
X127250000Y-171031745D01*
X127000000Y-154500000D02*
X127750000Y-153750000D01*
X126250000Y-150000000D02*
X125750000Y-149500000D01*
X127338284Y-160443461D02*
X128126000Y-159655745D01*
X128500000Y-179031745D02*
X128500000Y-176531745D01*
X128250000Y-166531745D02*
X128376000Y-166405745D01*
%TO.N,/TMP4*%
X130075000Y-179073959D02*
X130126000Y-179022959D01*
X128540000Y-143969756D02*
X128540000Y-137129878D01*
X130075000Y-166426041D02*
X130075000Y-166073959D01*
X129376000Y-153965878D02*
X129126000Y-153715878D01*
X130126000Y-166022959D02*
X130126000Y-161157745D01*
X130075000Y-166073959D02*
X130126000Y-166022959D01*
X130075000Y-173043255D02*
X130075000Y-172323959D01*
X127000000Y-130000000D02*
X125500000Y-130000000D01*
X128656000Y-144245878D02*
X128656000Y-144085756D01*
X128176000Y-136765878D02*
X128176000Y-131176000D01*
X128540000Y-137129878D02*
X128176000Y-136765878D01*
X129376000Y-159735745D02*
X129376000Y-153965878D01*
X130126000Y-179344255D02*
X130075000Y-179293255D01*
X130126000Y-187126000D02*
X130126000Y-179344255D01*
X130126000Y-166477041D02*
X130075000Y-166426041D01*
X129330000Y-159781745D02*
X129376000Y-159735745D01*
X130126000Y-179022959D02*
X130126000Y-173094255D01*
X130075000Y-179293255D02*
X130075000Y-179073959D01*
X129330000Y-160361745D02*
X129330000Y-159781745D01*
X129126000Y-153715878D02*
X129126000Y-144715878D01*
X130126000Y-173094255D02*
X130075000Y-173043255D01*
X130500000Y-187500000D02*
X130126000Y-187126000D01*
X128656000Y-144085756D02*
X128540000Y-143969756D01*
X129126000Y-144715878D02*
X128656000Y-144245878D01*
X130126000Y-161157745D02*
X129330000Y-160361745D01*
X128176000Y-131176000D02*
X127000000Y-130000000D01*
X130075000Y-172323959D02*
X130126000Y-172272959D01*
X130126000Y-172272959D02*
X130126000Y-166477041D01*
%TO.N,/TMP12*%
X125000000Y-189250000D02*
X130750000Y-195000000D01*
X125000000Y-182250000D02*
X125000000Y-189250000D01*
%TO.N,/TMP6*%
X128999000Y-179692281D02*
X128999000Y-176531331D01*
X128666000Y-166525867D02*
X128666000Y-164255878D01*
X127250000Y-149441867D02*
X127250000Y-148000000D01*
X126750000Y-143000000D02*
X125750000Y-143000000D01*
X128500000Y-157193281D02*
X128249000Y-156942281D01*
X128250000Y-168160122D02*
X128540000Y-167870122D01*
X128076000Y-147174000D02*
X128076000Y-144326000D01*
X129125000Y-186375000D02*
X129125000Y-179818281D01*
X128500000Y-164089878D02*
X128500000Y-157193281D01*
X129125000Y-174125000D02*
X128380284Y-173380284D01*
X128540000Y-167870122D02*
X128540000Y-166651867D01*
X128249000Y-150440867D02*
X127250000Y-149441867D01*
X127250000Y-148000000D02*
X128076000Y-147174000D01*
X128999000Y-176531331D02*
X129125000Y-176405331D01*
X129125000Y-179818281D02*
X128999000Y-179692281D01*
X128250000Y-170968255D02*
X128250000Y-168160122D01*
X128376000Y-171747623D02*
X128376000Y-171094255D01*
X128380284Y-173380284D02*
X128380284Y-171751907D01*
X128376000Y-171094255D02*
X128250000Y-170968255D01*
X128250000Y-187250000D02*
X129125000Y-186375000D01*
X128540000Y-166651867D02*
X128666000Y-166525867D01*
X128666000Y-164255878D02*
X128500000Y-164089878D01*
X128076000Y-144326000D02*
X126750000Y-143000000D01*
X128380284Y-171751907D02*
X128376000Y-171747623D01*
X129125000Y-176405331D02*
X129125000Y-174125000D01*
X128249000Y-156942281D02*
X128249000Y-150440867D01*
%TD*%
M02*
