M48
; DRILL file {KiCad 9.0.4-9.0.4-0~ubuntu22.04.1} date 2025-09-26T09:09:05-0400
; FORMAT={-:-/ absolute / metric / decimal}
; #@! TF.CreationDate,2025-09-26T09:09:05-04:00
; #@! TF.GenerationSoftware,Kicad,Pcbnew,9.0.4-9.0.4-0~ubuntu22.04.1
; #@! TF.FileFunction,MixedPlating,1,4
FMAT,2
METRIC
; #@! TA.AperFunction,Plated,PTH,ViaDrill
T1C0.250
; #@! TA.AperFunction,Plated,PTH,ComponentDrill
T2C0.650
; #@! TA.AperFunction,Plated,PTH,ComponentDrill
T3C0.800
; #@! TA.AperFunction,Plated,PTH,ComponentDrill
T4C1.300
; #@! TA.AperFunction,NonPlated,NPTH,ComponentDrill
T5C0.900
%
G90
G05
T1
X107.46Y-180.6
X107.5Y-163.0
X113.75Y-201.5
X114.3Y-201.3
X115.0Y-202.25
X115.2Y-201.1
X115.25Y-192.5
X115.25Y-193.0
X115.5Y-193.5
X115.5Y-194.25
X117.75Y-189.5
X117.75Y-203.25
X118.0Y-194.5
X118.0Y-197.5
X118.5Y-196.5
X118.75Y-207.0
X119.25Y-195.75
X119.5Y-191.0
X119.5Y-201.5
X119.75Y-202.25
X120.0Y-206.5
X120.25Y-197.0
X120.75Y-187.25
X121.0Y-202.25
X121.25Y-191.0
X121.5Y-203.0
X122.0Y-202.5
X122.5Y-203.0
X123.0Y-202.5
X123.25Y-175.5
X123.5Y-202.75
X123.75Y-190.5
X123.75Y-202.0
X124.0Y-110.25
X124.0Y-117.0
X124.0Y-123.5
X124.0Y-156.0
X124.5Y-162.5
X124.5Y-169.0
X124.5Y-203.0
X125.0Y-182.25
X125.5Y-130.0
X125.5Y-187.25
X125.5Y-191.5
X125.75Y-143.0
X125.75Y-149.5
X126.0Y-136.5
X126.0Y-187.5
X126.5Y-205.75
X126.8Y-114.4
X126.9Y-120.8
X127.2Y-107.8
X127.2Y-146.7
X127.25Y-153.0
X127.25Y-172.75
X127.25Y-187.5
X127.25Y-205.75
X127.4Y-127.1
X127.4Y-133.8
X127.4Y-140.3
X127.5Y-159.75
X127.6Y-118.9
X127.6Y-125.4
X127.6Y-131.9
X127.7Y-112.4
X127.7Y-138.6
X127.7Y-145.3
X127.714Y-110.0
X127.714Y-116.5
X127.714Y-123.0
X127.714Y-129.5
X127.714Y-136.0
X127.714Y-142.5
X127.714Y-149.1
X127.714Y-162.0
X127.714Y-168.5
X127.714Y-175.0
X127.714Y-181.5
X127.75Y-155.5
X127.75Y-158.25
X127.75Y-187.25
X127.8Y-151.7
X128.0Y-164.75
X128.0Y-166.25
X128.0Y-171.25
X128.0Y-178.0
X128.0Y-179.0
X128.0Y-184.5
X128.25Y-187.25
X128.75Y-130.5
X128.75Y-150.0
X128.75Y-169.75
X128.75Y-176.25
X128.75Y-182.5
X128.75Y-202.5
X129.0Y-111.0
X129.0Y-117.75
X129.0Y-124.0
X129.0Y-137.0
X129.0Y-143.75
X129.0Y-156.75
X129.0Y-163.0
X129.0Y-187.5
X129.75Y-108.25
X129.75Y-114.75
X129.75Y-121.0
X129.75Y-127.75
X129.75Y-134.25
X129.75Y-140.75
X129.75Y-147.25
X129.75Y-152.5
X129.75Y-153.75
X129.75Y-160.25
X129.75Y-166.75
X129.75Y-173.25
X129.75Y-179.5
X129.75Y-198.75
X130.0Y-190.0
X130.0Y-192.0
X130.5Y-114.0
X130.5Y-121.0
X130.5Y-127.25
X130.5Y-133.75
X130.5Y-140.25
X130.5Y-146.5
X130.5Y-153.0
X130.5Y-159.5
X130.5Y-166.25
X130.5Y-172.5
X130.5Y-179.25
X130.5Y-187.5
X130.75Y-195.0
X130.75Y-195.5
X130.75Y-196.25
X131.0Y-189.5
X131.0Y-196.75
X131.25Y-203.75
X131.5Y-188.25
X131.5Y-189.5
X132.25Y-187.75
X132.5Y-183.25
X132.75Y-108.25
X132.75Y-110.5
X132.75Y-129.25
X132.75Y-161.5
X133.0Y-115.75
X133.0Y-135.25
X133.0Y-148.25
X133.0Y-168.0
X133.25Y-122.25
X133.25Y-142.0
X133.25Y-174.5
X133.25Y-181.25
X133.75Y-112.0
X133.75Y-118.5
X133.75Y-125.0
X133.75Y-131.5
X133.75Y-138.0
X133.75Y-144.5
X133.75Y-150.75
X133.75Y-157.5
X133.75Y-164.0
X133.75Y-170.5
X133.75Y-177.0
X134.25Y-193.0
X134.5Y-118.9
X135.1Y-144.9
X135.1Y-164.4
X135.25Y-188.0
X135.25Y-195.0
X135.3Y-177.5
X135.5Y-110.5
X135.5Y-123.4
X135.5Y-125.5
X135.5Y-136.4
X135.5Y-151.5
X135.5Y-192.25
X135.6Y-112.5
X135.6Y-148.9
X135.6Y-171.0
X135.7Y-116.9
X135.7Y-130.0
X135.7Y-132.0
X135.7Y-143.1
X135.7Y-156.1
X135.7Y-162.4
X135.8Y-138.5
X136.0Y-158.0
X136.0Y-168.9
X136.0Y-182.0
X136.25Y-184.0
X136.4Y-175.2
X136.5Y-189.5
X137.5Y-191.0
X138.7Y-117.5
X138.7Y-130.5
X138.7Y-143.5
X138.7Y-156.5
X138.7Y-169.5
X138.7Y-182.5
X139.3Y-113.5
X139.3Y-126.5
X139.3Y-139.5
X139.3Y-152.5
X139.3Y-165.5
X139.3Y-178.5
X139.7Y-117.0
X139.7Y-130.0
X139.7Y-143.0
X139.7Y-156.0
X139.7Y-169.0
X139.7Y-182.0
X139.75Y-105.25
X139.9Y-108.0
X139.9Y-121.0
X139.9Y-134.0
X139.9Y-147.0
X139.9Y-160.0
X139.9Y-173.0
X139.9Y-186.0
X140.0Y-113.5
X140.0Y-126.5
X140.0Y-139.5
X140.0Y-152.5
X140.0Y-165.5
X140.0Y-178.5
X140.15Y-109.25
X140.15Y-122.25
X140.15Y-135.25
X140.15Y-148.25
X140.15Y-161.25
X140.15Y-174.25
X140.7Y-115.5
X140.7Y-128.5
X140.7Y-141.5
X140.7Y-154.5
X140.7Y-167.5
X140.7Y-180.5
X141.125Y-117.825
X141.125Y-130.825
X141.125Y-143.825
X141.125Y-156.825
X141.125Y-169.825
X141.125Y-182.825
X141.2Y-110.6
X141.2Y-123.6
X141.2Y-136.6
X141.2Y-149.6
X141.2Y-162.6
X141.2Y-175.6
X141.2Y-188.6
X141.25Y-113.5
X141.25Y-126.5
X141.25Y-139.5
X141.25Y-152.5
X141.25Y-165.5
X141.25Y-178.5
X141.25Y-193.5
X141.5Y-114.25
X141.5Y-127.25
X141.5Y-140.25
X141.5Y-153.25
X141.5Y-166.25
X141.5Y-179.25
X141.6Y-111.4
X141.6Y-124.4
X141.6Y-137.4
X141.6Y-150.4
X141.6Y-163.4
X141.6Y-176.4
X142.0Y-113.5
X142.0Y-126.5
X142.0Y-139.5
X142.0Y-152.5
X142.0Y-165.5
X142.0Y-178.5
X142.25Y-114.25
X142.25Y-127.25
X142.25Y-140.25
X142.25Y-153.25
X142.25Y-166.25
X142.25Y-179.25
X142.75Y-113.5
X142.75Y-126.5
X142.75Y-139.5
X142.75Y-152.5
X142.75Y-165.5
X142.75Y-178.5
X142.8Y-111.65
X142.8Y-124.65
X142.8Y-137.65
X142.8Y-150.65
X142.8Y-163.65
X142.8Y-176.65
X143.55Y-107.9
X143.55Y-108.65
X143.55Y-109.4
X143.55Y-110.65
X143.55Y-112.15
X143.55Y-120.9
X143.55Y-121.65
X143.55Y-122.4
X143.55Y-123.65
X143.55Y-125.15
X143.55Y-133.9
X143.55Y-134.65
X143.55Y-135.4
X143.55Y-136.65
X143.55Y-138.15
X143.55Y-146.9
X143.55Y-147.65
X143.55Y-148.4
X143.55Y-149.65
X143.55Y-151.15
X143.55Y-159.9
X143.55Y-160.65
X143.55Y-161.4
X143.55Y-162.65
X143.55Y-164.15
X143.55Y-172.9
X143.55Y-173.65
X143.55Y-174.4
X143.55Y-175.65
X143.55Y-177.15
X144.25Y-105.25
X144.25Y-191.75
X144.9Y-110.9
X144.9Y-123.9
X144.9Y-136.9
X144.9Y-149.9
X144.9Y-162.9
X144.9Y-175.9
X144.9Y-186.0
X145.0Y-107.0
X145.75Y-107.0
X145.75Y-120.0
X145.75Y-133.0
X145.75Y-146.0
X145.75Y-159.0
X145.75Y-172.0
X146.2Y-110.5
X146.2Y-114.5
X146.2Y-123.5
X146.2Y-127.5
X146.2Y-136.5
X146.2Y-140.5
X146.2Y-149.5
X146.2Y-153.5
X146.2Y-162.5
X146.2Y-166.5
X146.2Y-175.5
X146.2Y-179.5
X146.25Y-194.25
X146.5Y-107.0
X146.5Y-120.0
X146.5Y-133.0
X146.5Y-146.0
X146.5Y-159.0
X146.5Y-172.0
X146.6Y-115.7
X146.6Y-128.7
X146.6Y-141.7
X146.6Y-154.7
X146.6Y-167.7
X146.6Y-180.7
X147.2Y-109.4
X147.2Y-122.4
X147.2Y-135.4
X147.2Y-148.4
X147.2Y-161.4
X147.2Y-174.4
X147.2Y-187.4
X147.4Y-110.5
X147.4Y-123.5
X147.4Y-136.5
X147.4Y-149.5
X147.4Y-162.5
X147.4Y-175.5
X147.75Y-107.0
X147.75Y-120.0
X147.75Y-133.0
X147.75Y-146.0
X147.75Y-159.0
X147.75Y-172.0
X147.8Y-116.8
X147.8Y-129.8
X147.8Y-142.8
X147.8Y-155.8
X147.8Y-168.8
X147.8Y-181.8
X148.0Y-107.75
X148.0Y-120.75
X148.0Y-133.75
X148.0Y-146.75
X148.0Y-159.75
X148.0Y-172.75
X148.0Y-197.0
X148.3Y-117.825
X148.3Y-130.825
X148.3Y-143.825
X148.3Y-156.825
X148.3Y-169.825
X148.3Y-182.825
X148.5Y-107.0
X148.5Y-120.0
X148.5Y-133.0
X148.5Y-146.0
X148.5Y-159.0
X148.5Y-172.0
X148.75Y-107.75
X148.75Y-120.75
X148.75Y-133.75
X148.75Y-146.75
X148.75Y-159.75
X148.75Y-172.75
X149.0Y-118.7
X149.0Y-131.7
X149.0Y-144.7
X149.0Y-157.7
X149.0Y-170.7
X149.0Y-183.7
X149.1Y-117.4
X149.1Y-130.4
X149.1Y-143.4
X149.1Y-156.4
X149.1Y-169.4
X149.1Y-182.4
X149.25Y-107.0
X149.25Y-120.0
X149.25Y-133.0
X149.25Y-146.0
X149.25Y-159.0
X149.25Y-172.0
X149.5Y-193.5
X149.5Y-195.75
X150.0Y-116.5
X150.0Y-129.5
X150.0Y-142.5
X150.0Y-155.5
X150.0Y-168.5
X150.0Y-181.5
X150.05Y-114.4
X150.05Y-115.15
X150.05Y-115.9
X150.05Y-117.4
X150.05Y-127.4
X150.05Y-128.15
X150.05Y-128.9
X150.05Y-130.4
X150.05Y-140.4
X150.05Y-141.15
X150.05Y-141.9
X150.05Y-143.4
X150.05Y-153.4
X150.05Y-154.15
X150.05Y-154.9
X150.05Y-156.4
X150.05Y-166.4
X150.05Y-167.15
X150.05Y-167.9
X150.05Y-169.4
X150.05Y-179.4
X150.05Y-180.15
X150.05Y-180.9
X150.05Y-182.4
X150.1Y-118.7
X150.1Y-131.7
X150.1Y-144.7
X150.1Y-157.7
X150.1Y-170.7
X150.1Y-183.7
X151.7Y-117.5
X151.7Y-130.5
X151.7Y-143.5
X151.7Y-156.5
X151.7Y-169.5
X151.7Y-182.5
X152.3Y-113.5
X152.3Y-126.5
X152.3Y-139.5
X152.3Y-152.5
X152.3Y-165.5
X152.3Y-178.5
X152.6Y-186.8
X152.7Y-117.0
X152.7Y-130.0
X152.7Y-143.0
X152.7Y-156.0
X152.7Y-169.0
X152.7Y-182.0
X152.9Y-108.0
X152.9Y-121.0
X152.9Y-134.0
X152.9Y-147.0
X152.9Y-160.0
X152.9Y-173.0
X153.0Y-105.25
X153.0Y-113.5
X153.0Y-126.5
X153.0Y-139.5
X153.0Y-152.5
X153.0Y-165.5
X153.0Y-178.5
X153.15Y-109.25
X153.15Y-122.25
X153.15Y-135.25
X153.15Y-148.25
X153.15Y-161.25
X153.15Y-174.25
X153.7Y-115.5
X153.7Y-128.5
X153.7Y-141.5
X153.7Y-154.5
X153.7Y-167.5
X153.7Y-180.5
X154.125Y-117.825
X154.125Y-130.825
X154.125Y-143.825
X154.125Y-156.825
X154.125Y-169.825
X154.125Y-182.825
X154.2Y-110.6
X154.2Y-123.6
X154.2Y-136.6
X154.2Y-149.6
X154.2Y-162.6
X154.2Y-175.6
X154.2Y-188.6
X154.25Y-113.5
X154.25Y-126.5
X154.25Y-139.5
X154.25Y-152.5
X154.25Y-165.5
X154.25Y-178.5
X154.5Y-114.25
X154.5Y-127.25
X154.5Y-140.25
X154.5Y-153.25
X154.5Y-166.25
X154.5Y-179.25
X154.6Y-111.4
X154.6Y-124.4
X154.6Y-137.4
X154.6Y-150.4
X154.6Y-163.4
X154.6Y-176.4
X155.0Y-113.5
X155.0Y-126.5
X155.0Y-139.5
X155.0Y-152.5
X155.0Y-165.5
X155.0Y-178.5
X155.25Y-114.25
X155.25Y-127.25
X155.25Y-140.25
X155.25Y-153.25
X155.25Y-166.25
X155.25Y-179.25
X155.75Y-113.5
X155.75Y-126.5
X155.75Y-139.5
X155.75Y-152.5
X155.75Y-165.5
X155.75Y-178.5
X155.8Y-111.65
X155.8Y-124.65
X155.8Y-137.65
X155.8Y-150.65
X155.8Y-163.65
X155.8Y-176.65
X156.55Y-107.9
X156.55Y-108.65
X156.55Y-109.4
X156.55Y-110.65
X156.55Y-112.15
X156.55Y-120.9
X156.55Y-121.65
X156.55Y-122.4
X156.55Y-123.65
X156.55Y-125.15
X156.55Y-133.9
X156.55Y-134.65
X156.55Y-135.4
X156.55Y-136.65
X156.55Y-138.15
X156.55Y-146.9
X156.55Y-147.65
X156.55Y-148.4
X156.55Y-149.65
X156.55Y-151.15
X156.55Y-159.9
X156.55Y-160.65
X156.55Y-161.4
X156.55Y-162.65
X156.55Y-164.15
X156.55Y-172.9
X156.55Y-173.65
X156.55Y-174.4
X156.55Y-175.65
X156.55Y-177.15
X157.0Y-191.5
X157.25Y-105.25
X157.8Y-186.8
X157.9Y-110.9
X157.9Y-123.9
X157.9Y-136.9
X157.9Y-149.9
X157.9Y-162.9
X157.9Y-175.9
X158.0Y-107.0
X158.75Y-107.0
X158.75Y-120.0
X158.75Y-133.0
X158.75Y-146.0
X158.75Y-159.0
X158.75Y-172.0
X159.2Y-110.5
X159.2Y-114.5
X159.2Y-123.5
X159.2Y-127.5
X159.2Y-136.5
X159.2Y-140.5
X159.2Y-149.5
X159.2Y-153.5
X159.2Y-162.5
X159.2Y-166.5
X159.2Y-175.5
X159.2Y-179.5
X159.5Y-107.0
X159.5Y-120.0
X159.5Y-133.0
X159.5Y-146.0
X159.5Y-159.0
X159.5Y-172.0
X159.6Y-115.7
X159.6Y-128.7
X159.6Y-141.7
X159.6Y-154.7
X159.6Y-167.7
X159.6Y-180.7
X160.2Y-109.4
X160.2Y-122.4
X160.2Y-135.4
X160.2Y-148.4
X160.2Y-161.4
X160.2Y-174.4
X160.2Y-187.4
X160.4Y-110.5
X160.4Y-123.5
X160.4Y-136.5
X160.4Y-149.5
X160.4Y-162.5
X160.4Y-175.5
X160.5Y-194.25
X160.75Y-107.0
X160.75Y-120.0
X160.75Y-133.0
X160.75Y-146.0
X160.75Y-159.0
X160.75Y-172.0
X160.8Y-116.8
X160.8Y-129.8
X160.8Y-142.8
X160.8Y-155.8
X160.8Y-168.8
X160.8Y-181.8
X161.0Y-107.75
X161.0Y-120.75
X161.0Y-133.75
X161.0Y-146.75
X161.0Y-159.75
X161.0Y-172.75
X161.3Y-117.825
X161.3Y-130.825
X161.3Y-143.825
X161.3Y-156.825
X161.3Y-169.825
X161.3Y-182.825
X161.5Y-107.0
X161.5Y-120.0
X161.5Y-133.0
X161.5Y-146.0
X161.5Y-159.0
X161.5Y-172.0
X161.75Y-107.75
X161.75Y-120.75
X161.75Y-133.75
X161.75Y-146.75
X161.75Y-159.75
X161.75Y-172.75
X162.0Y-118.7
X162.0Y-131.7
X162.0Y-144.7
X162.0Y-157.7
X162.0Y-170.7
X162.0Y-183.7
X162.1Y-117.4
X162.1Y-130.4
X162.1Y-143.4
X162.1Y-156.4
X162.1Y-169.4
X162.1Y-182.4
X162.25Y-107.0
X162.25Y-120.0
X162.25Y-133.0
X162.25Y-146.0
X162.25Y-159.0
X162.25Y-172.0
X162.5Y-193.5
X162.5Y-195.75
X163.0Y-116.5
X163.0Y-129.5
X163.0Y-142.5
X163.0Y-155.5
X163.0Y-168.5
X163.0Y-181.5
X163.05Y-114.4
X163.05Y-115.15
X163.05Y-115.9
X163.05Y-117.4
X163.05Y-127.4
X163.05Y-128.15
X163.05Y-128.9
X163.05Y-130.4
X163.05Y-140.4
X163.05Y-141.15
X163.05Y-141.9
X163.05Y-143.4
X163.05Y-153.4
X163.05Y-154.15
X163.05Y-154.9
X163.05Y-156.4
X163.05Y-166.4
X163.05Y-167.15
X163.05Y-167.9
X163.05Y-169.4
X163.05Y-179.4
X163.05Y-180.15
X163.05Y-180.9
X163.05Y-182.4
X163.1Y-118.7
X163.1Y-131.7
X163.1Y-144.7
X163.1Y-157.7
X163.1Y-170.7
X163.1Y-183.7
X164.7Y-117.5
X164.7Y-130.5
X164.7Y-143.5
X164.7Y-156.5
X164.7Y-169.5
X164.7Y-182.5
X165.3Y-113.5
X165.3Y-126.5
X165.3Y-139.5
X165.3Y-152.5
X165.3Y-165.5
X165.3Y-178.5
X165.7Y-117.0
X165.7Y-130.0
X165.7Y-143.0
X165.7Y-156.0
X165.7Y-169.0
X165.7Y-182.0
X165.8Y-186.8
X165.9Y-108.0
X165.9Y-121.0
X165.9Y-134.0
X165.9Y-147.0
X165.9Y-160.0
X165.9Y-173.0
X166.0Y-105.25
X166.0Y-113.5
X166.0Y-126.5
X166.0Y-139.5
X166.0Y-152.5
X166.0Y-165.5
X166.0Y-178.5
X166.15Y-109.25
X166.15Y-122.25
X166.15Y-135.25
X166.15Y-148.25
X166.15Y-161.25
X166.15Y-174.25
X166.7Y-115.5
X166.7Y-128.5
X166.7Y-141.5
X166.7Y-154.5
X166.7Y-167.5
X166.7Y-180.5
X167.125Y-117.825
X167.125Y-130.825
X167.125Y-143.825
X167.125Y-156.825
X167.125Y-169.825
X167.125Y-182.825
X167.2Y-110.6
X167.2Y-123.6
X167.2Y-136.6
X167.2Y-149.6
X167.2Y-162.6
X167.2Y-175.6
X167.2Y-188.6
X167.25Y-113.5
X167.25Y-126.5
X167.25Y-139.5
X167.25Y-152.5
X167.25Y-165.5
X167.25Y-178.5
X167.5Y-114.25
X167.5Y-127.25
X167.5Y-140.25
X167.5Y-153.25
X167.5Y-166.25
X167.5Y-179.25
X167.6Y-111.4
X167.6Y-124.4
X167.6Y-137.4
X167.6Y-150.4
X167.6Y-163.4
X167.6Y-176.4
X168.0Y-113.5
X168.0Y-126.5
X168.0Y-139.5
X168.0Y-152.5
X168.0Y-165.5
X168.0Y-178.5
X168.25Y-114.25
X168.25Y-127.25
X168.25Y-140.25
X168.25Y-153.25
X168.25Y-166.25
X168.25Y-179.25
X168.75Y-113.5
X168.75Y-126.5
X168.75Y-139.5
X168.75Y-152.5
X168.75Y-165.5
X168.75Y-178.5
X168.8Y-111.65
X168.8Y-124.65
X168.8Y-137.65
X168.8Y-150.65
X168.8Y-163.65
X168.8Y-176.65
X169.55Y-107.9
X169.55Y-108.65
X169.55Y-109.4
X169.55Y-110.65
X169.55Y-112.15
X169.55Y-120.9
X169.55Y-121.65
X169.55Y-122.4
X169.55Y-123.65
X169.55Y-125.15
X169.55Y-133.9
X169.55Y-134.65
X169.55Y-135.4
X169.55Y-136.65
X169.55Y-138.15
X169.55Y-146.9
X169.55Y-147.65
X169.55Y-148.4
X169.55Y-149.65
X169.55Y-151.15
X169.55Y-159.9
X169.55Y-160.65
X169.55Y-161.4
X169.55Y-162.65
X169.55Y-164.15
X169.55Y-172.9
X169.55Y-173.65
X169.55Y-174.4
X169.55Y-175.65
X169.55Y-177.15
X170.0Y-191.5
X170.25Y-105.25
X170.8Y-186.8
X170.9Y-110.9
X170.9Y-123.9
X170.9Y-136.9
X170.9Y-149.9
X170.9Y-162.9
X170.9Y-175.9
X171.0Y-107.0
X171.75Y-107.0
X171.75Y-120.0
X171.75Y-133.0
X171.75Y-146.0
X171.75Y-159.0
X171.75Y-172.0
X172.2Y-110.5
X172.2Y-114.5
X172.2Y-123.5
X172.2Y-127.5
X172.2Y-136.5
X172.2Y-140.5
X172.2Y-149.5
X172.2Y-153.5
X172.2Y-162.5
X172.2Y-166.5
X172.2Y-175.5
X172.2Y-179.5
X172.5Y-107.0
X172.5Y-120.0
X172.5Y-133.0
X172.5Y-146.0
X172.5Y-159.0
X172.5Y-172.0
X172.6Y-115.7
X172.6Y-128.7
X172.6Y-141.7
X172.6Y-154.7
X172.6Y-167.7
X172.6Y-180.7
X173.2Y-109.4
X173.2Y-122.4
X173.2Y-135.4
X173.2Y-148.4
X173.2Y-161.4
X173.2Y-174.4
X173.2Y-187.4
X173.4Y-110.5
X173.4Y-123.5
X173.4Y-136.5
X173.4Y-149.5
X173.4Y-162.5
X173.4Y-175.5
X173.5Y-194.5
X173.75Y-107.0
X173.75Y-120.0
X173.75Y-133.0
X173.75Y-146.0
X173.75Y-159.0
X173.75Y-172.0
X173.8Y-116.8
X173.8Y-129.8
X173.8Y-142.8
X173.8Y-155.8
X173.8Y-168.8
X173.8Y-181.8
X174.0Y-107.75
X174.0Y-120.75
X174.0Y-133.75
X174.0Y-146.75
X174.0Y-159.75
X174.0Y-172.75
X174.3Y-117.825
X174.3Y-130.825
X174.3Y-143.825
X174.3Y-156.825
X174.3Y-169.825
X174.3Y-182.825
X174.5Y-107.0
X174.5Y-120.0
X174.5Y-133.0
X174.5Y-146.0
X174.5Y-159.0
X174.5Y-172.0
X174.75Y-107.75
X174.75Y-120.75
X174.75Y-133.75
X174.75Y-146.75
X174.75Y-159.75
X174.75Y-172.75
X175.0Y-118.7
X175.0Y-131.7
X175.0Y-144.7
X175.0Y-157.7
X175.0Y-170.7
X175.0Y-183.7
X175.1Y-117.4
X175.1Y-130.4
X175.1Y-143.4
X175.1Y-156.4
X175.1Y-169.4
X175.1Y-182.4
X175.25Y-107.0
X175.25Y-120.0
X175.25Y-133.0
X175.25Y-146.0
X175.25Y-159.0
X175.25Y-172.0
X175.5Y-193.5
X175.5Y-195.75
X176.0Y-116.5
X176.0Y-129.5
X176.0Y-142.5
X176.0Y-155.5
X176.0Y-168.5
X176.0Y-181.5
X176.05Y-114.4
X176.05Y-115.15
X176.05Y-115.9
X176.05Y-117.4
X176.05Y-127.4
X176.05Y-128.15
X176.05Y-128.9
X176.05Y-130.4
X176.05Y-140.4
X176.05Y-141.15
X176.05Y-141.9
X176.05Y-143.4
X176.05Y-153.4
X176.05Y-154.15
X176.05Y-154.9
X176.05Y-156.4
X176.05Y-166.4
X176.05Y-167.15
X176.05Y-167.9
X176.05Y-169.4
X176.05Y-179.4
X176.05Y-180.15
X176.05Y-180.9
X176.05Y-182.4
X176.1Y-118.7
X176.1Y-131.7
X176.1Y-144.7
X176.1Y-157.7
X176.1Y-170.7
X176.1Y-183.7
X177.7Y-117.5
X177.7Y-130.5
X177.7Y-143.5
X177.7Y-156.5
X177.7Y-169.5
X177.7Y-182.5
X178.3Y-113.5
X178.3Y-126.5
X178.3Y-139.5
X178.3Y-152.5
X178.3Y-165.5
X178.3Y-178.5
X178.7Y-117.0
X178.7Y-130.0
X178.7Y-143.0
X178.7Y-156.0
X178.7Y-169.0
X178.7Y-182.0
X178.9Y-108.0
X178.9Y-121.0
X178.9Y-134.0
X178.9Y-147.0
X178.9Y-160.0
X178.9Y-173.0
X178.9Y-186.8
X179.0Y-113.5
X179.0Y-126.5
X179.0Y-139.5
X179.0Y-152.5
X179.0Y-165.5
X179.0Y-178.5
X179.15Y-109.25
X179.15Y-122.25
X179.15Y-135.25
X179.15Y-148.25
X179.15Y-161.25
X179.15Y-174.25
X179.25Y-105.25
X179.7Y-115.5
X179.7Y-128.5
X179.7Y-141.5
X179.7Y-154.5
X179.7Y-167.5
X179.7Y-180.5
X180.125Y-117.825
X180.125Y-130.825
X180.125Y-143.825
X180.125Y-156.825
X180.125Y-169.825
X180.125Y-182.825
X180.2Y-110.6
X180.2Y-123.6
X180.2Y-136.6
X180.2Y-149.6
X180.2Y-162.6
X180.2Y-175.6
X180.2Y-188.6
X180.25Y-113.5
X180.25Y-126.5
X180.25Y-139.5
X180.25Y-152.5
X180.25Y-165.5
X180.25Y-178.5
X180.5Y-114.25
X180.5Y-127.25
X180.5Y-140.25
X180.5Y-153.25
X180.5Y-166.25
X180.5Y-179.25
X180.6Y-111.4
X180.6Y-124.4
X180.6Y-137.4
X180.6Y-150.4
X180.6Y-163.4
X180.6Y-176.4
X181.0Y-113.5
X181.0Y-126.5
X181.0Y-139.5
X181.0Y-152.5
X181.0Y-165.5
X181.0Y-178.5
X181.25Y-114.25
X181.25Y-127.25
X181.25Y-140.25
X181.25Y-153.25
X181.25Y-166.25
X181.25Y-179.25
X181.75Y-113.5
X181.75Y-126.5
X181.75Y-139.5
X181.75Y-152.5
X181.75Y-165.5
X181.75Y-178.5
X181.8Y-111.65
X181.8Y-124.65
X181.8Y-137.65
X181.8Y-150.65
X181.8Y-163.65
X181.8Y-176.65
X182.55Y-107.9
X182.55Y-108.65
X182.55Y-109.4
X182.55Y-110.65
X182.55Y-112.15
X182.55Y-120.9
X182.55Y-121.65
X182.55Y-122.4
X182.55Y-123.65
X182.55Y-125.15
X182.55Y-133.9
X182.55Y-134.65
X182.55Y-135.4
X182.55Y-136.65
X182.55Y-138.15
X182.55Y-146.9
X182.55Y-147.65
X182.55Y-148.4
X182.55Y-149.65
X182.55Y-151.15
X182.55Y-159.9
X182.55Y-160.65
X182.55Y-161.4
X182.55Y-162.65
X182.55Y-164.15
X182.55Y-172.9
X182.55Y-173.65
X182.55Y-174.4
X182.55Y-175.65
X182.55Y-177.15
X183.0Y-190.75
X183.25Y-105.25
X183.4Y-186.8
X183.9Y-110.9
X183.9Y-123.9
X183.9Y-136.9
X183.9Y-149.9
X183.9Y-162.9
X183.9Y-175.9
X184.0Y-107.0
X184.75Y-107.0
X184.75Y-120.0
X184.75Y-133.0
X184.75Y-146.0
X184.75Y-159.0
X184.75Y-172.0
X185.2Y-110.5
X185.2Y-114.5
X185.2Y-123.5
X185.2Y-127.5
X185.2Y-136.5
X185.2Y-140.5
X185.2Y-149.5
X185.2Y-153.5
X185.2Y-162.5
X185.2Y-166.5
X185.2Y-175.5
X185.2Y-179.5
X185.5Y-107.0
X185.5Y-120.0
X185.5Y-133.0
X185.5Y-146.0
X185.5Y-159.0
X185.5Y-172.0
X185.6Y-115.7
X185.6Y-128.7
X185.6Y-141.7
X185.6Y-154.7
X185.6Y-167.7
X185.6Y-180.7
X186.2Y-109.4
X186.2Y-122.4
X186.2Y-135.4
X186.2Y-148.4
X186.2Y-161.4
X186.2Y-174.4
X186.2Y-187.4
X186.4Y-110.5
X186.4Y-123.5
X186.4Y-136.5
X186.4Y-149.5
X186.4Y-162.5
X186.4Y-175.5
X186.5Y-194.25
X186.75Y-107.0
X186.75Y-120.0
X186.75Y-133.0
X186.75Y-146.0
X186.75Y-159.0
X186.75Y-172.0
X186.8Y-116.8
X186.8Y-129.8
X186.8Y-142.8
X186.8Y-155.8
X186.8Y-168.8
X186.8Y-181.8
X187.0Y-107.75
X187.0Y-120.75
X187.0Y-133.75
X187.0Y-146.75
X187.0Y-159.75
X187.0Y-172.75
X187.3Y-117.825
X187.3Y-130.825
X187.3Y-143.825
X187.3Y-156.825
X187.3Y-169.825
X187.3Y-182.825
X187.5Y-107.0
X187.5Y-120.0
X187.5Y-133.0
X187.5Y-146.0
X187.5Y-159.0
X187.5Y-172.0
X187.75Y-107.75
X187.75Y-120.75
X187.75Y-133.75
X187.75Y-146.75
X187.75Y-159.75
X187.75Y-172.75
X188.0Y-118.7
X188.0Y-131.7
X188.0Y-144.7
X188.0Y-157.7
X188.0Y-170.7
X188.0Y-183.7
X188.1Y-117.4
X188.1Y-130.4
X188.1Y-143.4
X188.1Y-156.4
X188.1Y-169.4
X188.1Y-182.4
X188.25Y-107.0
X188.25Y-120.0
X188.25Y-133.0
X188.25Y-146.0
X188.25Y-159.0
X188.25Y-172.0
X188.75Y-193.25
X189.0Y-116.5
X189.0Y-129.5
X189.0Y-142.5
X189.0Y-155.5
X189.0Y-168.5
X189.0Y-181.5
X189.0Y-195.75
X189.05Y-114.4
X189.05Y-115.15
X189.05Y-115.9
X189.05Y-117.4
X189.05Y-127.4
X189.05Y-128.15
X189.05Y-128.9
X189.05Y-130.4
X189.05Y-140.4
X189.05Y-141.15
X189.05Y-141.9
X189.05Y-143.4
X189.05Y-153.4
X189.05Y-154.15
X189.05Y-154.9
X189.05Y-156.4
X189.05Y-166.4
X189.05Y-167.15
X189.05Y-167.9
X189.05Y-169.4
X189.05Y-179.4
X189.05Y-180.15
X189.05Y-180.9
X189.05Y-182.4
X189.1Y-118.7
X189.1Y-131.7
X189.1Y-144.7
X189.1Y-157.7
X189.1Y-170.7
X189.1Y-183.7
X190.7Y-117.5
X190.7Y-130.5
X190.7Y-143.5
X190.7Y-156.5
X190.7Y-169.5
X190.7Y-182.5
X191.3Y-113.5
X191.3Y-126.5
X191.3Y-139.5
X191.3Y-152.5
X191.3Y-165.5
X191.3Y-178.5
X191.7Y-117.0
X191.7Y-130.0
X191.7Y-143.0
X191.7Y-156.0
X191.7Y-169.0
X191.7Y-182.0
X191.9Y-108.0
X191.9Y-121.0
X191.9Y-134.0
X191.9Y-147.0
X191.9Y-160.0
X191.9Y-173.0
X192.0Y-105.25
X192.0Y-113.5
X192.0Y-126.5
X192.0Y-139.5
X192.0Y-152.5
X192.0Y-165.5
X192.0Y-178.5
X192.0Y-186.8
X192.15Y-109.25
X192.15Y-122.25
X192.15Y-135.25
X192.15Y-148.25
X192.15Y-161.25
X192.15Y-174.25
X192.7Y-115.5
X192.7Y-128.5
X192.7Y-141.5
X192.7Y-154.5
X192.7Y-167.5
X192.7Y-180.5
X193.125Y-117.825
X193.125Y-130.825
X193.125Y-143.825
X193.125Y-156.825
X193.125Y-169.825
X193.125Y-182.825
X193.2Y-110.6
X193.2Y-123.6
X193.2Y-136.6
X193.2Y-149.6
X193.2Y-162.6
X193.2Y-175.6
X193.2Y-188.6
X193.25Y-113.5
X193.25Y-126.5
X193.25Y-139.5
X193.25Y-152.5
X193.25Y-165.5
X193.25Y-178.5
X193.5Y-114.25
X193.5Y-127.25
X193.5Y-140.25
X193.5Y-153.25
X193.5Y-166.25
X193.5Y-179.25
X193.6Y-111.4
X193.6Y-124.4
X193.6Y-137.4
X193.6Y-150.4
X193.6Y-163.4
X193.6Y-176.4
X194.0Y-113.5
X194.0Y-126.5
X194.0Y-139.5
X194.0Y-152.5
X194.0Y-165.5
X194.0Y-178.5
X194.25Y-114.25
X194.25Y-127.25
X194.25Y-140.25
X194.25Y-153.25
X194.25Y-166.25
X194.25Y-179.25
X194.75Y-113.5
X194.75Y-126.5
X194.75Y-139.5
X194.75Y-152.5
X194.75Y-165.5
X194.75Y-178.5
X194.8Y-111.65
X194.8Y-124.65
X194.8Y-137.65
X194.8Y-150.65
X194.8Y-163.65
X194.8Y-176.65
X195.55Y-107.9
X195.55Y-108.65
X195.55Y-109.4
X195.55Y-110.65
X195.55Y-112.15
X195.55Y-120.9
X195.55Y-121.65
X195.55Y-122.4
X195.55Y-123.65
X195.55Y-125.15
X195.55Y-133.9
X195.55Y-134.65
X195.55Y-135.4
X195.55Y-136.65
X195.55Y-138.15
X195.55Y-146.9
X195.55Y-147.65
X195.55Y-148.4
X195.55Y-149.65
X195.55Y-151.15
X195.55Y-159.9
X195.55Y-160.65
X195.55Y-161.4
X195.55Y-162.65
X195.55Y-164.15
X195.55Y-172.9
X195.55Y-173.65
X195.55Y-174.4
X195.55Y-175.65
X195.55Y-177.15
X196.25Y-105.25
X196.9Y-110.9
X196.9Y-123.9
X196.9Y-136.9
X196.9Y-149.9
X196.9Y-162.9
X196.9Y-175.9
X197.0Y-107.0
X197.0Y-186.8
X197.0Y-191.0
X197.75Y-107.0
X197.75Y-120.0
X197.75Y-133.0
X197.75Y-146.0
X197.75Y-159.0
X197.75Y-172.0
X198.2Y-110.5
X198.2Y-114.5
X198.2Y-123.5
X198.2Y-127.5
X198.2Y-136.5
X198.2Y-140.5
X198.2Y-149.5
X198.2Y-153.5
X198.2Y-162.5
X198.2Y-166.5
X198.2Y-175.5
X198.2Y-179.5
X198.5Y-107.0
X198.5Y-120.0
X198.5Y-133.0
X198.5Y-146.0
X198.5Y-159.0
X198.5Y-172.0
X198.6Y-115.7
X198.6Y-128.7
X198.6Y-141.7
X198.6Y-154.7
X198.6Y-167.7
X198.6Y-180.7
X199.2Y-109.4
X199.2Y-122.4
X199.2Y-135.4
X199.2Y-148.4
X199.2Y-161.4
X199.2Y-174.4
X199.2Y-187.4
X199.4Y-110.5
X199.4Y-123.5
X199.4Y-136.5
X199.4Y-149.5
X199.4Y-162.5
X199.4Y-175.5
X199.5Y-194.25
X199.75Y-107.0
X199.75Y-120.0
X199.75Y-133.0
X199.75Y-146.0
X199.75Y-159.0
X199.75Y-172.0
X199.8Y-116.8
X199.8Y-129.8
X199.8Y-142.8
X199.8Y-155.8
X199.8Y-168.8
X199.8Y-181.8
X200.0Y-107.75
X200.0Y-120.75
X200.0Y-133.75
X200.0Y-146.75
X200.0Y-159.75
X200.0Y-172.75
X200.3Y-117.825
X200.3Y-130.825
X200.3Y-143.825
X200.3Y-156.825
X200.3Y-169.825
X200.3Y-182.825
X200.5Y-107.0
X200.5Y-120.0
X200.5Y-133.0
X200.5Y-146.0
X200.5Y-159.0
X200.5Y-172.0
X200.75Y-107.75
X200.75Y-120.75
X200.75Y-133.75
X200.75Y-146.75
X200.75Y-159.75
X200.75Y-172.75
X201.0Y-118.7
X201.0Y-131.7
X201.0Y-144.7
X201.0Y-157.7
X201.0Y-170.7
X201.0Y-183.7
X201.1Y-117.4
X201.1Y-130.4
X201.1Y-143.4
X201.1Y-156.4
X201.1Y-169.4
X201.1Y-182.4
X201.25Y-107.0
X201.25Y-120.0
X201.25Y-133.0
X201.25Y-146.0
X201.25Y-159.0
X201.25Y-172.0
X201.75Y-193.25
X201.75Y-195.75
X202.0Y-116.5
X202.0Y-129.5
X202.0Y-142.5
X202.0Y-155.5
X202.0Y-168.5
X202.0Y-181.5
X202.05Y-114.4
X202.05Y-115.15
X202.05Y-115.9
X202.05Y-117.4
X202.05Y-127.4
X202.05Y-128.15
X202.05Y-128.9
X202.05Y-130.4
X202.05Y-140.4
X202.05Y-141.15
X202.05Y-141.9
X202.05Y-143.4
X202.05Y-153.4
X202.05Y-154.15
X202.05Y-154.9
X202.05Y-156.4
X202.05Y-166.4
X202.05Y-167.15
X202.05Y-167.9
X202.05Y-169.4
X202.05Y-179.4
X202.05Y-180.15
X202.05Y-180.9
X202.05Y-182.4
X202.1Y-118.7
X202.1Y-131.7
X202.1Y-144.7
X202.1Y-157.7
X202.1Y-170.7
X202.1Y-183.7
X203.7Y-117.5
X203.7Y-130.5
X203.7Y-143.5
X203.7Y-156.5
X203.7Y-169.5
X203.7Y-182.5
X204.3Y-113.5
X204.3Y-126.5
X204.3Y-139.5
X204.3Y-152.5
X204.3Y-165.5
X204.3Y-178.5
X204.7Y-117.0
X204.7Y-130.0
X204.7Y-143.0
X204.7Y-156.0
X204.7Y-169.0
X204.7Y-182.0
X204.75Y-105.25
X204.8Y-186.8
X204.9Y-108.0
X204.9Y-121.0
X204.9Y-134.0
X204.9Y-147.0
X204.9Y-160.0
X204.9Y-173.0
X205.0Y-113.5
X205.0Y-126.5
X205.0Y-139.5
X205.0Y-152.5
X205.0Y-165.5
X205.0Y-178.5
X205.15Y-109.25
X205.15Y-122.25
X205.15Y-135.25
X205.15Y-148.25
X205.15Y-161.25
X205.15Y-174.25
X205.7Y-115.5
X205.7Y-128.5
X205.7Y-141.5
X205.7Y-154.5
X205.7Y-167.5
X205.7Y-180.5
X206.125Y-117.825
X206.125Y-130.825
X206.125Y-143.825
X206.125Y-156.825
X206.125Y-169.825
X206.125Y-182.825
X206.2Y-110.6
X206.2Y-123.6
X206.2Y-136.6
X206.2Y-149.6
X206.2Y-162.6
X206.2Y-175.6
X206.2Y-188.6
X206.25Y-113.5
X206.25Y-126.5
X206.25Y-139.5
X206.25Y-152.5
X206.25Y-165.5
X206.25Y-178.5
X206.5Y-114.25
X206.5Y-127.25
X206.5Y-140.25
X206.5Y-153.25
X206.5Y-166.25
X206.5Y-179.25
X206.6Y-111.4
X206.6Y-124.4
X206.6Y-137.4
X206.6Y-150.4
X206.6Y-163.4
X206.6Y-176.4
X207.0Y-113.5
X207.0Y-126.5
X207.0Y-139.5
X207.0Y-152.5
X207.0Y-165.5
X207.0Y-178.5
X207.25Y-114.25
X207.25Y-127.25
X207.25Y-140.25
X207.25Y-153.25
X207.25Y-166.25
X207.25Y-179.25
X207.75Y-113.5
X207.75Y-126.5
X207.75Y-139.5
X207.75Y-152.5
X207.75Y-165.5
X207.75Y-178.5
X207.8Y-111.65
X207.8Y-124.65
X207.8Y-137.65
X207.8Y-150.65
X207.8Y-163.65
X207.8Y-176.65
X208.55Y-107.9
X208.55Y-108.65
X208.55Y-109.4
X208.55Y-110.65
X208.55Y-112.15
X208.55Y-120.9
X208.55Y-121.65
X208.55Y-122.4
X208.55Y-123.65
X208.55Y-125.15
X208.55Y-133.9
X208.55Y-134.65
X208.55Y-135.4
X208.55Y-136.65
X208.55Y-138.15
X208.55Y-146.9
X208.55Y-147.65
X208.55Y-148.4
X208.55Y-149.65
X208.55Y-151.15
X208.55Y-159.9
X208.55Y-160.65
X208.55Y-161.4
X208.55Y-162.65
X208.55Y-164.15
X208.55Y-172.9
X208.55Y-173.65
X208.55Y-174.4
X208.55Y-175.65
X208.55Y-177.15
X209.0Y-188.25
X209.25Y-191.0
X209.9Y-110.9
X209.9Y-123.9
X209.9Y-136.9
X209.9Y-149.9
X209.9Y-162.9
X209.9Y-175.9
X210.0Y-105.25
X210.0Y-107.0
X210.75Y-107.0
X210.75Y-120.0
X210.75Y-133.0
X210.75Y-146.0
X210.75Y-159.0
X210.75Y-172.0
X211.2Y-110.5
X211.2Y-114.5
X211.2Y-123.5
X211.2Y-127.5
X211.2Y-136.5
X211.2Y-140.5
X211.2Y-149.5
X211.2Y-153.5
X211.2Y-162.5
X211.2Y-166.5
X211.2Y-175.5
X211.2Y-179.5
X211.5Y-107.0
X211.5Y-120.0
X211.5Y-133.0
X211.5Y-146.0
X211.5Y-159.0
X211.5Y-172.0
X211.6Y-115.7
X211.6Y-128.7
X211.6Y-141.7
X211.6Y-154.7
X211.6Y-167.7
X211.6Y-180.7
X212.2Y-109.4
X212.2Y-122.4
X212.2Y-135.4
X212.2Y-148.4
X212.2Y-161.4
X212.2Y-174.4
X212.2Y-187.4
X212.4Y-110.5
X212.4Y-123.5
X212.4Y-136.5
X212.4Y-149.5
X212.4Y-162.5
X212.4Y-175.5
X212.5Y-194.5
X212.75Y-107.0
X212.75Y-120.0
X212.75Y-133.0
X212.75Y-146.0
X212.75Y-159.0
X212.75Y-172.0
X212.8Y-116.8
X212.8Y-129.8
X212.8Y-142.8
X212.8Y-155.8
X212.8Y-168.8
X212.8Y-181.8
X213.0Y-107.75
X213.0Y-120.75
X213.0Y-133.75
X213.0Y-146.75
X213.0Y-159.75
X213.0Y-172.75
X213.3Y-117.825
X213.3Y-130.825
X213.3Y-143.825
X213.3Y-156.825
X213.3Y-169.825
X213.3Y-182.825
X213.5Y-107.0
X213.5Y-120.0
X213.5Y-133.0
X213.5Y-146.0
X213.5Y-159.0
X213.5Y-172.0
X213.75Y-107.75
X213.75Y-120.75
X213.75Y-133.75
X213.75Y-146.75
X213.75Y-159.75
X213.75Y-172.75
X214.0Y-118.7
X214.0Y-131.7
X214.0Y-144.7
X214.0Y-157.7
X214.0Y-170.7
X214.0Y-183.7
X214.1Y-117.4
X214.1Y-130.4
X214.1Y-143.4
X214.1Y-156.4
X214.1Y-169.4
X214.1Y-182.4
X214.25Y-107.0
X214.25Y-120.0
X214.25Y-133.0
X214.25Y-146.0
X214.25Y-159.0
X214.25Y-172.0
X215.0Y-116.5
X215.0Y-129.5
X215.0Y-142.5
X215.0Y-155.5
X215.0Y-168.5
X215.0Y-181.5
X215.05Y-114.4
X215.05Y-115.15
X215.05Y-115.9
X215.05Y-117.4
X215.05Y-127.4
X215.05Y-128.15
X215.05Y-128.9
X215.05Y-130.4
X215.05Y-140.4
X215.05Y-141.15
X215.05Y-141.9
X215.05Y-143.4
X215.05Y-153.4
X215.05Y-154.15
X215.05Y-154.9
X215.05Y-156.4
X215.05Y-166.4
X215.05Y-167.15
X215.05Y-167.9
X215.05Y-169.4
X215.05Y-179.4
X215.05Y-180.15
X215.05Y-180.9
X215.05Y-182.4
X215.1Y-118.7
X215.1Y-131.7
X215.1Y-144.7
X215.1Y-157.7
X215.1Y-170.7
X215.1Y-183.7
T2
X134.73Y-204.0
X134.73Y-205.27
X136.0Y-204.0
X136.0Y-205.27
X137.27Y-204.0
X137.27Y-205.27
X138.54Y-204.0
X138.54Y-205.27
X139.81Y-204.0
X139.81Y-205.27
X141.08Y-204.0
X141.08Y-205.27
X142.35Y-204.0
X142.35Y-205.27
T3
X107.46Y-178.995
X110.0Y-178.995
X112.54Y-178.995
T4
X109.5Y-143.0
X109.5Y-148.0
X109.5Y-153.0
X109.5Y-158.0
X109.5Y-163.0
T5
X108.525Y-197.8
X108.525Y-202.2
M30
