%TF.GenerationSoftware,KiCad,Pcbnew,9.0.0*%
%TF.CreationDate,2025-06-26T13:56:22-04:00*%
%TF.ProjectId,Rings,52696e67-732e-46b6-9963-61645f706362,rev?*%
%TF.SameCoordinates,Original*%
%TF.FileFunction,Copper,L2,Bot*%
%TF.FilePolarity,Positive*%
%FSLAX46Y46*%
G04 Gerber Fmt 4.6, Leading zero omitted, Abs format (unit mm)*
G04 Created by KiCad (PCBNEW 9.0.0) date 2025-06-26 13:56:22*
%MOMM*%
%LPD*%
G01*
G04 APERTURE LIST*
%TA.AperFunction,ViaPad*%
%ADD10C,0.450000*%
%TD*%
%TA.AperFunction,ViaPad*%
%ADD11C,0.600000*%
%TD*%
%TA.AperFunction,Conductor*%
%ADD12C,0.090000*%
%TD*%
G04 APERTURE END LIST*
D10*
%TO.N,*%
X18600000Y-200000D03*
X18750000Y500000D03*
X27300000Y5500000D03*
D11*
X18150000Y4150000D03*
X18250000Y3250000D03*
X9000000Y1250000D03*
X8950000Y2100000D03*
D10*
X50000Y0D03*
X9350000Y0D03*
%TD*%
D12*
%TO.N,*%
X18800000Y0D02*
X18600000Y-200000D01*
X19050000Y0D02*
X18800000Y0D01*
X12773703Y-14186634D02*
X15436044Y-11214942D01*
X-9575000Y-16584386D02*
X-5914586Y-18203221D01*
X-15508856Y-11267843D02*
X-12820543Y-14238654D01*
X-18770653Y-3989825D02*
X-17521802Y-7801208D01*
X-18790216Y3993984D02*
X-19200000Y0D01*
X-17558344Y7817479D02*
X-18790216Y3993984D01*
X-2014264Y19164437D02*
X-5951668Y18317349D01*
X15678749Y-11391278D02*
X17695375Y-7878488D01*
X9700000Y-16800892D02*
X12974442Y-14409578D01*
X-2030989Y-19323560D02*
X2029942Y-19313615D01*
X-13021282Y-14461598D02*
X-9725000Y-16844194D01*
X-15751561Y-11444178D02*
X-13021282Y-14461598D01*
X-17795866Y-7923229D02*
X-15751561Y-11444178D01*
X-6044373Y18602666D02*
X-9775000Y16930797D01*
X6053642Y18631198D02*
X2046667Y19472739D01*
X9800000Y16974098D02*
X6053642Y18631198D01*
X13121651Y14573071D02*
X9800000Y16974098D01*
X13175181Y-14632521D02*
X15921454Y-11567613D01*
X9850000Y-17060700D02*
X13175181Y-14632521D01*
X6090724Y-18745323D02*
X9850000Y-17060700D01*
X2061301Y-19611971D02*
X6090724Y-18745323D01*
X-9875000Y-17104001D02*
X-6099996Y-18773855D01*
X-15994266Y-11620514D02*
X-13222021Y-14684541D01*
X-18069930Y-8045250D02*
X-15994266Y-11620514D01*
X-19357542Y-4114572D02*
X-18069930Y-8045250D01*
X-19800000Y0D02*
X-19357542Y-4114572D01*
X-16042807Y11655782D02*
X-18106471Y8061521D01*
X-13275552Y14743994D02*
X-16042807Y11655782D01*
X-9925001Y17190605D02*
X-13275552Y14743994D01*
X-6137078Y18887983D02*
X-9925001Y17190605D01*
X2078025Y19771096D02*
X-2076981Y19761151D01*
X-19500000Y0D02*
X-19064097Y-4052198D01*
X6146348Y18916515D02*
X2078025Y19771096D01*
X13322390Y14796014D02*
X9950000Y17233906D01*
X16115618Y11708683D02*
X13322390Y14796014D01*
X18206960Y8106262D02*
X16115618Y11708683D01*
X18243502Y-8122530D02*
X19523826Y-4149917D01*
X13375920Y-14855465D02*
X16164159Y-11743949D01*
X9999999Y-17320508D02*
X13375920Y-14855465D01*
X6183430Y-19030640D02*
X9999999Y-17320508D01*
X2092659Y-19910328D02*
X6183430Y-19030640D01*
X-10025000Y-17363809D02*
X-6192701Y-19059172D01*
X-13422760Y-14907485D02*
X-10025000Y-17363809D01*
X-16236972Y-11796850D02*
X-13422760Y-14907485D01*
X-18343993Y-8167271D02*
X-16236972Y-11796850D01*
X-19650986Y-4176945D02*
X-18343993Y-8167271D01*
X-20100000Y0D02*
X-19650986Y-4176945D01*
X-18380535Y8183542D02*
X-19670549Y4181105D01*
X-16285513Y11832118D02*
X-18380535Y8183542D01*
X-10075000Y17450412D02*
X-13476291Y14966937D01*
X-2108340Y20059507D02*
X-6229783Y19173300D01*
X2109384Y20069452D02*
X-2108340Y20059507D01*
X6239053Y19201832D02*
X2109384Y20069452D01*
X10100000Y17493714D02*
X6239053Y19201832D01*
X13523129Y15018957D02*
X10100000Y17493714D01*
X16358323Y11885018D02*
X13523129Y15018957D01*
X18481024Y8228283D02*
X16358323Y11885018D01*
X19797707Y4208133D02*
X18481024Y8228283D01*
X20250000Y1D02*
X19797707Y4208133D01*
X19817270Y-4212290D02*
X20250000Y1D01*
X18517566Y-8244551D02*
X19817270Y-4212290D01*
X13576660Y-15078408D02*
X16406864Y-11920284D01*
X10150000Y-17580315D02*
X13576660Y-15078408D01*
X6276135Y-19315957D02*
X10150000Y-17580315D01*
X2124018Y-20208684D02*
X6276135Y-19315957D01*
X-2125064Y-20218630D02*
X2124018Y-20208684D01*
X-6285406Y-19344489D02*
X-2125064Y-20218630D01*
X-10175000Y-17623616D02*
X-6285406Y-19344489D01*
X-13623500Y-15130428D02*
X-10175000Y-17623616D01*
X-16479677Y-11973185D02*
X-13623500Y-15130428D01*
X-19944430Y-4239319D02*
X-18618057Y-8289292D01*
X-19963993Y4243478D02*
X-20400000Y0D01*
X17658833Y7862220D02*
X15630208Y11356012D01*
X-18654599Y8305563D02*
X-19963993Y4243478D01*
X-10225001Y17710220D02*
X-13677030Y15189881D01*
X-2139698Y20357864D02*
X-6322488Y19458617D01*
X2140742Y20367809D02*
X-2139698Y20357864D01*
X10249999Y17753521D02*
X6331758Y19487149D01*
X13723868Y15241901D02*
X10249999Y17753521D01*
X16601028Y12061354D02*
X13723868Y15241901D01*
X20091151Y4270507D02*
X18755088Y8350304D01*
X16649569Y-12096620D02*
X18791630Y-8366572D01*
X13777399Y-15301351D02*
X16649569Y-12096620D01*
X18917374Y4021013D02*
X17658833Y7862220D01*
X6368840Y-19601274D02*
X10300000Y-17840123D01*
X2155376Y-20507041D02*
X6368840Y-19601274D01*
X-2156423Y-20516986D02*
X2155376Y-20507041D01*
X-6378111Y-19629806D02*
X-2156423Y-20516986D01*
X-10325000Y-17883424D02*
X-6378111Y-19629806D01*
X-13824239Y-15353372D02*
X-10325000Y-17883424D01*
X-18892121Y-8411313D02*
X-16722382Y-12149521D01*
X-20700000Y0D02*
X-20237874Y-4301692D01*
X-18928662Y8427584D02*
X-20257437Y4305852D01*
X-6415193Y19743934D02*
X-10375000Y17970028D01*
X-2171057Y20656220D02*
X-6415193Y19743934D01*
X6424463Y19772465D02*
X2172101Y20666165D01*
X16843733Y12237689D02*
X13924607Y15464844D01*
X19029151Y8472325D02*
X16843733Y12237689D01*
X20850000Y1D02*
X20384595Y4332880D01*
X20404158Y-4337037D02*
X20850000Y1D01*
X9650000Y16714291D02*
X5960937Y18345881D01*
X13978138Y-15524295D02*
X16892274Y-12272956D01*
X10450000Y-18099930D02*
X13978138Y-15524295D01*
X6461545Y-19886591D02*
X10450000Y-18099930D01*
X2186735Y-20805398D02*
X6461545Y-19886591D01*
X-2187781Y-20815343D02*
X2186735Y-20805398D01*
X-6470816Y-19915123D02*
X-2187781Y-20815343D01*
X-10475001Y-18143232D02*
X-6470816Y-19915123D01*
X-14024978Y-15576315D02*
X-10475001Y-18143232D01*
X-19166184Y-8533334D02*
X-16965087Y-12325856D01*
X-20531319Y-4364066D02*
X-19166184Y-8533334D01*
X-20550882Y4368225D02*
X-21000000Y0D01*
X-14078508Y15635768D02*
X-17013628Y12361124D01*
X-10525000Y18229835D02*
X-14078508Y15635768D01*
X10550000Y18273137D02*
X6517168Y20057782D01*
X17086438Y12414025D02*
X14125347Y15687788D01*
X19303215Y8594346D02*
X17086438Y12414025D01*
X20678040Y4395254D02*
X19303215Y8594346D01*
X19339757Y-8610614D02*
X20697603Y-4399411D01*
X14178877Y-15747238D02*
X17134979Y-12449291D01*
X-14225717Y-15799258D02*
X-10625001Y-18403039D01*
X-17207792Y-12502192D02*
X-14225717Y-15799258D01*
X-19440248Y-8655355D02*
X-17207792Y-12502192D01*
X-20824763Y-4426439D02*
X-19440248Y-8655355D01*
X-21300000Y0D02*
X-20824763Y-4426439D01*
X-19476790Y8671626D02*
X-20844326Y4430599D01*
X-14279248Y15858711D02*
X-17256333Y12537460D01*
X-6600603Y20314568D02*
X-10675000Y18489643D01*
X2234818Y21262879D02*
X-2233774Y21252933D01*
X14326086Y15910731D02*
X10699999Y18532944D01*
X17329144Y12590361D02*
X14326086Y15910731D01*
X19577279Y8716367D02*
X17329144Y12590361D01*
X20971484Y4457627D02*
X19577279Y8716367D01*
X17377685Y-12625627D02*
X19613820Y-8732635D01*
X14379616Y-15970182D02*
X17377685Y-12625627D01*
X6646955Y-20457225D02*
X10750000Y-18619546D01*
X2249452Y-21402111D02*
X6646955Y-20457225D01*
X-2250498Y-21412056D02*
X2249452Y-21402111D01*
X-10775000Y-18662847D02*
X-6656227Y-20485757D01*
X-13074813Y14521050D02*
X-15800102Y11479446D01*
X-19714311Y-8777376D02*
X-17450497Y-12678527D01*
X-21118207Y-4488813D02*
X-19714311Y-8777376D01*
X-21600000Y1D02*
X-21118207Y-4488813D01*
X-21137770Y4492972D02*
X-21600000Y1D01*
X-19750853Y8793647D02*
X-21137770Y4492972D01*
X-17499038Y12713796D02*
X-19750853Y8793647D01*
X-10825001Y18749450D02*
X-14479987Y16081655D01*
X-6693309Y20599885D02*
X-10825001Y18749450D01*
X10849999Y18792752D02*
X6702578Y20628416D01*
X17571849Y12766696D02*
X14526825Y16133675D01*
X19851342Y8838388D02*
X17571849Y12766696D01*
X21284491Y-4524158D02*
X21750000Y1D01*
X14580355Y-16193125D02*
X17620390Y-12801962D01*
X10900000Y-18879353D02*
X14580355Y-16193125D01*
X2280811Y-21700467D02*
X6739660Y-20742542D01*
X-10925000Y-18922655D02*
X-6748932Y-20771074D01*
X-17693202Y-12854863D02*
X-14627196Y-16245145D01*
X-21411651Y-4551186D02*
X-19988375Y-8899397D01*
X-21431214Y4555346D02*
X-21900000Y1D01*
X-20024917Y8915668D02*
X-21431214Y4555346D01*
X-14680726Y16304598D02*
X-17741743Y12890131D01*
X-2296491Y21849647D02*
X-6786014Y20885202D01*
X6795283Y20913733D02*
X2297535Y21859592D01*
X14727564Y16356618D02*
X10999999Y19052559D01*
X17814554Y12943032D02*
X14727564Y16356618D01*
X20125406Y8960409D02*
X17814554Y12943032D01*
X20161948Y-8976677D02*
X21577936Y-4586531D01*
X17863095Y-12978298D02*
X20161948Y-8976677D01*
X14781095Y-16416069D02*
X17863095Y-12978298D01*
X11049999Y-19139161D02*
X14781095Y-16416069D01*
X6832365Y-21027859D02*
X11049999Y-19139161D01*
X-2313215Y-22008769D02*
X2312169Y-21998824D01*
X-6841637Y-21056391D02*
X-2313215Y-22008769D01*
X-17935907Y-13031199D02*
X-14827935Y-16468089D01*
X-20262439Y-9021418D02*
X-17935907Y-13031199D01*
X-22200000Y1D02*
X-21705096Y-4613560D01*
X-21724659Y4617719D02*
X-22200000Y1D01*
X-6878719Y21170519D02*
X-11125001Y19269066D01*
X-2327849Y22148003D02*
X-6878719Y21170519D01*
X6887988Y21199050D02*
X2328894Y22157948D01*
X11149999Y19312367D02*
X6887988Y21199050D01*
X14928303Y16579562D02*
X11149999Y19312367D01*
X18057259Y13119367D02*
X14928303Y16579562D01*
X22350000Y1D02*
X21851817Y4644748D01*
X21871380Y-4648905D02*
X22350000Y1D01*
X20436011Y-9098698D02*
X21871380Y-4648905D01*
X14981834Y-16639012D02*
X18105800Y-13154633D01*
X11200000Y-19398969D02*
X14981834Y-16639012D01*
X6925070Y-21313176D02*
X11200000Y-19398969D01*
X-6934342Y-21341708D02*
X-2344574Y-22307126D01*
X-18178612Y-13207534D02*
X-15028674Y-16691032D01*
X-21998540Y-4675933D02*
X-20536502Y-9143439D01*
X-5914586Y-18203221D02*
X-1999630Y-19025203D01*
X-22500000Y1D02*
X-21998540Y-4675933D01*
X-18227153Y13242802D02*
X-20573044Y9159710D01*
X-15082204Y16750485D02*
X-18227153Y13242802D01*
X-6971424Y21455836D02*
X-11275001Y19528873D01*
X-2359208Y22446360D02*
X-6971424Y21455836D01*
X6980693Y21484367D02*
X2360252Y22456305D01*
X15129043Y16802505D02*
X11299999Y19572175D01*
X18299964Y13295703D02*
X15129043Y16802505D01*
X1998584Y-19015258D02*
X5905314Y-18174690D01*
X22145261Y4707121D02*
X20673533Y9204451D01*
X22650000Y1D02*
X22145261Y4707121D01*
X22164824Y-4711278D02*
X22650000Y1D01*
X18348505Y-13330969D02*
X20710075Y-9220719D01*
X15182573Y-16861956D02*
X18348505Y-13330969D01*
X11349999Y-19658776D02*
X15182573Y-16861956D01*
X7017775Y-21598493D02*
X11349999Y-19658776D01*
X2374886Y-22595537D02*
X7017775Y-21598493D01*
X-11375000Y-19702077D02*
X-7027047Y-21627025D01*
X-20810566Y-9265460D02*
X-18421317Y-13383870D01*
X-22800000Y1D02*
X-22291984Y-4738307D01*
X-18469858Y13419138D02*
X-20847108Y9281731D01*
X-15282944Y16973428D02*
X-18469858Y13419138D01*
X-11425000Y19788681D02*
X-15282944Y16973428D01*
X2391611Y22754661D02*
X-2390566Y22744716D01*
X11449999Y19831982D02*
X7073399Y21769684D01*
X15329782Y17025448D02*
X11449999Y19831982D01*
X20947597Y9326472D02*
X18542669Y13472038D01*
X22438705Y4769495D02*
X20947597Y9326472D01*
X22950000Y1D02*
X22438705Y4769495D01*
X22458268Y-4773652D02*
X22950000Y1D01*
X18591210Y-13507305D02*
X20984139Y-9342740D01*
X15383312Y-17084899D02*
X18591210Y-13507305D01*
X11500000Y-19918584D02*
X15383312Y-17084899D01*
X7110481Y-21883810D02*
X11500000Y-19918584D01*
X-7119752Y-21912342D02*
X-2407291Y-22903839D01*
X-11525001Y-19961885D02*
X-7119752Y-21912342D01*
X-21084630Y-9387481D02*
X-18664023Y-13560205D01*
X-22585429Y-4800680D02*
X-21084630Y-9387481D01*
X-23100000Y0D02*
X-22585429Y-4800680D01*
X-22604992Y4804840D02*
X-23100000Y0D01*
X-21121171Y9403752D02*
X-22604992Y4804840D01*
X-7156834Y22026469D02*
X-11575001Y20048489D01*
X-2421925Y23043073D02*
X-7156834Y22026469D01*
X2422969Y23053018D02*
X-2421925Y23043073D01*
X7166104Y22055001D02*
X2422969Y23053018D01*
X21221660Y9448493D02*
X18785374Y13648374D01*
X22732150Y4831868D02*
X21221660Y9448493D01*
X11650000Y-20178391D02*
X15584051Y-17307842D01*
X7203186Y-22169127D02*
X11650000Y-20178391D01*
X-7212457Y-22197659D02*
X-2438650Y-23202195D01*
X-11675000Y-20221693D02*
X-7212457Y-22197659D01*
X-18906728Y-13736541D02*
X-15630891Y-17359863D01*
X-23400000Y0D02*
X-22878873Y-4863054D01*
X-22898436Y4867213D02*
X-23400000Y0D01*
X-11725000Y20308296D02*
X-15684422Y17419315D01*
X-7249539Y22311786D02*
X-11725000Y20308296D01*
X-2453284Y23341429D02*
X-7249539Y22311786D01*
X21495724Y9570514D02*
X19028079Y13824710D01*
X23550000Y1D02*
X23025594Y4894242D01*
X19076620Y-13859976D02*
X21532266Y-9586782D01*
X15784791Y-17530786D02*
X19076620Y-13859976D01*
X7295891Y-22454444D02*
X11800000Y-20438199D01*
X-15831631Y-17582806D02*
X-11825001Y-20481500D01*
X-19149433Y-13912876D02*
X-15831631Y-17582806D01*
X-23700000Y0D02*
X-23172317Y-4925427D01*
X-23191880Y4929587D02*
X-23700000Y0D01*
X-19197974Y13948145D02*
X-21669299Y9647794D01*
X-7342244Y22597103D02*
X-11875001Y20568104D01*
X7351514Y22625635D02*
X2485686Y23649731D01*
X11900000Y20611405D02*
X7351514Y22625635D01*
X15931999Y17694279D02*
X11900000Y20611405D01*
X23338601Y-4960772D02*
X23850000Y1D01*
X19319325Y-14036311D02*
X21806330Y-9708803D01*
X11950000Y-20698007D02*
X15985530Y-17753729D01*
X7388596Y-22739761D02*
X11950000Y-20698007D01*
X2500320Y-23788963D02*
X7388596Y-22739761D01*
X-2501367Y-23798908D02*
X2500320Y-23788963D01*
X-7397867Y-22768293D02*
X-2501367Y-23798908D01*
X-19083660Y4056358D02*
X-19500000Y0D01*
X-16032370Y-17805750D02*
X-11975000Y-20741308D01*
X-19392138Y-14089212D02*
X-16032370Y-17805750D01*
X-21943362Y9769815D02*
X-23485324Y4991960D01*
X-19440679Y14124480D02*
X-21943362Y9769815D01*
X-16085900Y17865202D02*
X-19440679Y14124480D01*
X-7434949Y22882420D02*
X-12025001Y20827911D01*
X7444219Y22910952D02*
X2517045Y23948088D01*
X22043851Y9814556D02*
X19513489Y14177381D01*
X23612483Y5018989D02*
X22043851Y9814556D01*
X24150000Y0D02*
X23612483Y5018989D01*
X19562030Y-14212647D02*
X22080393Y-9830824D01*
X12100000Y-20957814D02*
X16186269Y-17976673D01*
X2531679Y-24087320D02*
X7481301Y-23025078D01*
X-2532725Y-24097265D02*
X2531679Y-24087320D01*
X-16233109Y-18028693D02*
X-12125000Y-21001116D01*
X-24300000Y0D02*
X-23759206Y-5050174D01*
X-19683384Y14300816D02*
X-22217426Y9891836D01*
X-16286639Y18088146D02*
X-19683384Y14300816D01*
X16333478Y18140166D02*
X12200000Y21131020D01*
X19756195Y14353716D02*
X16333478Y18140166D01*
X22317915Y9936577D02*
X19756195Y14353716D01*
X19804736Y-14388982D02*
X22354457Y-9952845D01*
X12249999Y-21217622D02*
X16387008Y-18199616D01*
X7574006Y-23310395D02*
X12249999Y-21217622D01*
X-2564084Y-24395622D02*
X2563037Y-24385676D01*
X-7583278Y-23338926D02*
X-2564084Y-24395622D01*
X-16433848Y-18251636D02*
X-12275000Y-21260923D01*
X-19877548Y-14441883D02*
X-16433848Y-18251636D01*
X-24600000Y0D02*
X-24052650Y-5112548D01*
X-22491490Y10013857D02*
X-24072213Y5116707D01*
X-19926089Y14477151D02*
X-22491490Y10013857D01*
X-16487379Y18311089D02*
X-19926089Y14477151D01*
X-12325001Y21347527D02*
X-16487379Y18311089D01*
X2579762Y24544801D02*
X-2578718Y24534856D01*
X7629629Y23481586D02*
X2579762Y24544801D01*
X19998900Y14530052D02*
X16534217Y18363109D01*
X6554250Y-20171908D02*
X10600000Y-18359738D01*
X22591979Y10058598D02*
X19998900Y14530052D01*
X24199371Y5143736D02*
X22591979Y10058598D01*
X24750000Y0D02*
X24199371Y5143736D01*
X24218934Y-5147893D02*
X24750000Y0D01*
X22628520Y-10074866D02*
X24218934Y-5147893D01*
X20047441Y-14565318D02*
X22628520Y-10074866D01*
X16587747Y-18422560D02*
X20047441Y-14565318D01*
X7666711Y-23595712D02*
X12400000Y-21477430D01*
X2594396Y-24684033D02*
X7666711Y-23595712D01*
X-2595442Y-24693978D02*
X2594396Y-24684033D01*
X-7675983Y-23624243D02*
X-2595442Y-24693978D01*
X-6563521Y-20200440D02*
X-2219140Y-21113699D01*
X-12425000Y-21520731D02*
X-7675983Y-23624243D01*
X-16634587Y-18474580D02*
X-12425000Y-21520731D01*
X19210818Y4083386D02*
X17932897Y7984241D01*
X-20120253Y-14618219D02*
X-16634587Y-18474580D01*
X-22729011Y-10119607D02*
X-20120253Y-14618219D01*
X-11825001Y-20481500D02*
X-7305162Y-22482976D01*
X-24346094Y-5174921D02*
X-22729011Y-10119607D01*
X-24365657Y5179081D02*
X-24900000Y0D01*
X-20168794Y14653487D02*
X-22765553Y10135878D01*
X-16688118Y18534032D02*
X-20168794Y14653487D01*
X-12475001Y21607334D02*
X-16688118Y18534032D01*
X-7713065Y23738371D02*
X-12475001Y21607334D01*
X23250000Y1D02*
X22732150Y4831868D01*
X-2610076Y24833212D02*
X-7713065Y23738371D01*
X2611121Y24843157D02*
X-2610076Y24833212D01*
X7722334Y23766903D02*
X2611121Y24843157D01*
X12499999Y21650636D02*
X7722334Y23766903D01*
X16734956Y18586053D02*
X12499999Y21650636D01*
X20241605Y14706388D02*
X16734956Y18586053D01*
X22866042Y10180619D02*
X20241605Y14706388D01*
X24492815Y5206109D02*
X22866042Y10180619D01*
X25050000Y1D02*
X24492815Y5206109D01*
X24512378Y-5210266D02*
X25050000Y1D01*
X-23759206Y-5050174D02*
X-22180884Y-9875565D01*
X22902584Y-10196887D02*
X24512378Y-5210266D01*
X20290146Y-14741654D02*
X22902584Y-10196887D01*
X12549999Y-21737237D02*
X16788486Y-18645503D01*
X7759416Y-23881029D02*
X12549999Y-21737237D01*
X-7027047Y-21627025D02*
X-2375932Y-22605482D01*
X2625754Y-24982390D02*
X7759416Y-23881029D01*
X-7768688Y-23909560D02*
X-2626801Y-24992335D01*
X-12575001Y-21780538D02*
X-7768688Y-23909560D01*
X-16835327Y-18697523D02*
X-12575001Y-21780538D01*
X-20362958Y-14794554D02*
X-16835327Y-18697523D01*
X-23003075Y-10241628D02*
X-20362958Y-14794554D01*
X-24639539Y-5237295D02*
X-23003075Y-10241628D01*
X-25200000Y0D02*
X-24639539Y-5237295D01*
X16406864Y-11920284D02*
X18517566Y-8244551D01*
X-24659102Y5241454D02*
X-25200000Y0D01*
X-23039617Y10257899D02*
X-24659102Y5241454D01*
X-6322488Y19458617D02*
X-10225001Y17710220D01*
X-20411499Y14829822D02*
X-23039617Y10257899D01*
X-16888857Y18756976D02*
X-20411499Y14829822D01*
X-15430152Y-17136919D02*
X-11525001Y-19961885D01*
X-12625001Y21867142D02*
X-16888857Y18756976D01*
X-7805770Y24023688D02*
X-12625001Y21867142D01*
X-2641435Y25131569D02*
X-7805770Y24023688D01*
X2642479Y25141514D02*
X-2641435Y25131569D01*
X-18421317Y-13383870D02*
X-15229413Y-16913976D01*
X12649999Y21910443D02*
X7815039Y24052220D01*
X16935695Y18808996D02*
X12649999Y21910443D01*
X20484310Y14882723D02*
X16935695Y18808996D01*
X23140106Y10302640D02*
X20484310Y14882723D01*
X24786260Y5268483D02*
X23140106Y10302640D01*
X25350000Y0D02*
X24786260Y5268483D01*
X24805823Y-5272640D02*
X25350000Y0D01*
X-17984448Y13066467D02*
X-20298981Y9037689D01*
X16989226Y-18868447D02*
X20532851Y-14917989D01*
X2657113Y-25280746D02*
X7852121Y-24166346D01*
X-2658159Y-25290691D02*
X2657113Y-25280746D01*
X19065693Y-8488593D02*
X20404158Y-4337037D01*
X-7861393Y-24194877D02*
X-2658159Y-25290691D01*
X-20605663Y-14970890D02*
X-17036066Y-18920467D01*
X-24952546Y5303828D02*
X-25500000Y0D01*
X-20654204Y15006158D02*
X-23313681Y10379920D01*
X-7898475Y24309005D02*
X-12775001Y22126950D01*
X7907744Y24337537D02*
X2673838Y25439871D01*
X12800000Y22170251D02*
X7907744Y24337537D01*
X20727015Y15059059D02*
X17136434Y19031939D01*
X23414170Y10424661D02*
X20727015Y15059059D01*
X25079704Y5330856D02*
X23414170Y10424661D01*
X25099267Y-5335013D02*
X25650000Y1D01*
X-20844326Y4430599D02*
X-21300000Y0D01*
X23450711Y-10440929D02*
X25099267Y-5335013D01*
X17189965Y-19091390D02*
X20775556Y-15094325D01*
X-2689518Y-25589048D02*
X2688472Y-25579103D01*
X-7954098Y-24480194D02*
X-2689518Y-25589048D01*
X-12875000Y-22300154D02*
X-7954098Y-24480194D01*
X-20848368Y-15147225D02*
X-17236805Y-19143410D01*
X-23551202Y-10485670D02*
X-20848368Y-15147225D01*
X-25800000Y0D02*
X-25226427Y-5362042D01*
X-25245990Y5366201D02*
X-25800000Y0D01*
X-20896909Y15182494D02*
X-23587744Y10501941D01*
X-17290335Y19202863D02*
X-20896909Y15182494D01*
X-7991180Y24594322D02*
X-12925000Y22386757D01*
X-7305162Y-22482976D02*
X-2470008Y-23500552D01*
X2705196Y25738227D02*
X-2704152Y25728282D01*
X8000449Y24622854D02*
X2705196Y25738227D01*
X17337174Y19254883D02*
X12949999Y22430058D01*
X20969720Y15235394D02*
X17337174Y19254883D01*
X21258202Y-9464761D02*
X22751713Y-4836025D01*
X25373148Y5393230D02*
X23688233Y10546682D01*
X23724775Y-10562950D02*
X25392711Y-5397387D01*
X21018261Y-15270660D02*
X23724775Y-10562950D01*
X-10625001Y-18403039D02*
X-6563521Y-20200440D01*
X13000000Y-22516660D02*
X17390704Y-19314334D01*
X-21395235Y9525773D02*
X-22898436Y4867213D01*
X8037532Y-24736979D02*
X13000000Y-22516660D01*
X2719830Y-25877459D02*
X8037532Y-24736979D01*
X-2720876Y-25887404D02*
X2719830Y-25877459D01*
X-17491075Y19425806D02*
X-21139615Y15358829D01*
X-8083885Y24879639D02*
X-13075001Y22646565D01*
X-2735510Y26026639D02*
X-8083885Y24879639D01*
X17537913Y19477826D02*
X13100000Y22689866D01*
X23962297Y10668703D02*
X21212425Y15411730D01*
X21260966Y-15446996D02*
X23998839Y-10684971D01*
X17591443Y-19537277D02*
X21260966Y-15446996D01*
X2751189Y-26175816D02*
X8130237Y-25022296D01*
X17134979Y-12449291D02*
X19339757Y-8610614D01*
X-2752235Y-26185761D02*
X2751189Y-26175816D01*
X-14426456Y-16022202D02*
X-10775000Y-18662847D01*
X-8139508Y-25050828D02*
X-2752235Y-26185761D01*
X-13175001Y-22819769D02*
X-8139508Y-25050828D01*
X-17638283Y-19589297D02*
X-13175001Y-22819769D01*
X-25813316Y-5486789D02*
X-24099330Y-10729712D01*
X-26400000Y0D02*
X-25813316Y-5486789D01*
X21532266Y-9586782D02*
X23045157Y-4898399D01*
X-24135871Y10745983D02*
X-25832879Y5490948D01*
X-21382320Y15535165D02*
X-24135871Y10745983D01*
X-13225001Y22906372D02*
X-17691814Y19648750D01*
X-14479987Y16081655D02*
X-17499038Y12713796D01*
X2767913Y26334940D02*
X-2766869Y26324995D01*
X2015308Y19174383D02*
X-2014264Y19164437D01*
X17738652Y19700770D02*
X13249999Y22949674D01*
X17792182Y-19760220D02*
X21503671Y-15623332D01*
X13300000Y-23036275D02*
X17792182Y-19760220D01*
X8222942Y-25307613D02*
X13300000Y-23036275D01*
X-12175001Y21087719D02*
X-16286639Y18088146D01*
X-8232213Y-25336145D02*
X-2783593Y-26484118D01*
X21806330Y-9708803D02*
X23338601Y-4960772D01*
X-17839022Y-19812241D02*
X-13325001Y-23079577D01*
X-24409935Y10868004D02*
X-26126323Y5553322D01*
X-8269295Y25450273D02*
X-13375001Y23166180D01*
X21150000Y1D02*
X20678040Y4395254D01*
X13400000Y23209481D02*
X8278565Y25478805D01*
X21558373Y4582374D02*
X20125406Y8960409D01*
X24510424Y10912745D02*
X21697835Y15764401D01*
X10999999Y19052559D02*
X6795283Y20913733D01*
X26850000Y1D02*
X26253481Y5580350D01*
X17992922Y-19983164D02*
X21746376Y-15799667D01*
X8315647Y-25592930D02*
X13449999Y-23296083D01*
X2813906Y-26772529D02*
X8315647Y-25592930D01*
X-21819189Y-15852568D02*
X-18039762Y-20035184D01*
X17969439Y-8000509D02*
X19230381Y-4087543D01*
X-26400204Y-5611536D02*
X-24647457Y-10973754D01*
X20710075Y-9220719D02*
X22164824Y-4711278D01*
X-24683999Y10990025D02*
X-26419767Y5615695D01*
X22080393Y-9830824D02*
X23632046Y-5023146D01*
X-18093292Y20094637D02*
X-21867730Y15887836D01*
X2297535Y21859592D02*
X-2296491Y21849647D01*
X-13525000Y23425988D02*
X-18093292Y20094637D01*
X-8362000Y25735590D02*
X-13525000Y23425988D01*
X2830630Y26931653D02*
X-2829586Y26921708D01*
X13549999Y23469289D02*
X8371270Y25764122D01*
X21940540Y15940737D02*
X18140130Y20146657D01*
X24784488Y11034766D02*
X21940540Y15940737D01*
X19504263Y4145760D02*
X18206960Y8106262D01*
X26546925Y5642724D02*
X24784488Y11034766D01*
X-2846311Y-27080831D02*
X2845264Y-27070885D01*
X-13625000Y-23599192D02*
X-8417623Y-25906779D01*
X16387008Y-18199616D02*
X19804736Y-14388982D01*
X-22061894Y-16028903D02*
X-18240501Y-20258127D01*
X-26713211Y5678069D02*
X-27300000Y1D01*
X-22110435Y16064171D02*
X-24958062Y11112046D01*
X-18294031Y20317580D02*
X-22110435Y16064171D01*
X13699999Y23729097D02*
X8463975Y26049438D01*
X26859933Y-5709255D02*
X27450000Y1D01*
X-2375932Y-22605482D02*
X2374886Y-22595537D01*
X22231787Y-16152338D02*
X25095093Y-11173055D01*
X8501057Y-26163564D02*
X13750000Y-23815698D01*
X2876623Y-27369242D02*
X8501057Y-26163564D01*
X-6748932Y-20771074D02*
X-2281857Y-21710412D01*
X-8510329Y-26192096D02*
X-2877669Y-27379187D01*
X-13775000Y-23858999D02*
X-8510329Y-26192096D01*
X-18441240Y-20481071D02*
X-13775000Y-23858999D01*
X2548403Y24246444D02*
X-2547359Y24236499D01*
X-22304599Y-16205239D02*
X-18441240Y-20481071D01*
X-25195584Y-11217796D02*
X-22304599Y-16205239D01*
X10300000Y-17840123D02*
X13777399Y-15301351D01*
X-26987093Y-5736283D02*
X-25195584Y-11217796D01*
X-27006656Y5740442D02*
X-27600000Y1D01*
X2517045Y23948088D02*
X-2516001Y23938143D01*
X-25232126Y11234067D02*
X-27006656Y5740442D01*
X-2892303Y27518421D02*
X-8547411Y26306224D01*
X8556680Y26334755D02*
X2893347Y27528367D01*
X19523826Y-4149917D02*
X19950000Y1D01*
X25332615Y11278808D02*
X22425951Y16293408D01*
X-12275000Y-21260923D02*
X-7583278Y-23338926D01*
X-20400000Y0D02*
X-19944430Y-4239319D01*
X9950000Y17233906D02*
X6146348Y18916515D01*
X19350000Y1D02*
X18917374Y4021013D01*
X-2045623Y19462794D02*
X-6044373Y18602666D01*
X-16722382Y-12149521D02*
X-13824239Y-15353372D01*
X2406245Y-22893894D02*
X7110481Y-21883810D01*
X-19200000Y0D02*
X-18770653Y-3989825D01*
X6517168Y20057782D02*
X2203460Y20964522D01*
X5905314Y-18174690D02*
X9550000Y-16541085D01*
X-1999630Y-19025203D02*
X1998584Y-19015258D01*
X-10675000Y18489643D02*
X-14279248Y15858711D01*
X-15557397Y11303111D02*
X-17558344Y7817479D01*
X9550000Y-16541085D02*
X12773703Y-14186634D01*
X-20257437Y4305852D02*
X-20700000Y0D01*
X-9725000Y-16844194D02*
X-6007291Y-18488538D01*
X-2233774Y21252933D02*
X-6600603Y20314568D01*
X-12125000Y-21001116D02*
X-7490572Y-23053609D01*
X20697603Y-4399411D02*
X21150000Y1D01*
X2563037Y-24385676D02*
X7574006Y-23310395D01*
X-18955269Y13771809D02*
X-21395235Y9525773D01*
X10750000Y-18619546D02*
X14379616Y-15970182D01*
X6609873Y20343099D02*
X2234818Y21262879D01*
X-2484642Y23639786D02*
X-7342244Y22597103D01*
X-17741743Y12890131D02*
X-20024917Y8915668D01*
X17932897Y7984241D02*
X15872913Y11532347D01*
X-2265132Y21551290D02*
X-6693309Y20599885D01*
X22050000Y1D02*
X21558373Y4582374D01*
X19950000Y1D02*
X19504263Y4145760D01*
X-21900000Y1D02*
X-21411651Y-4551186D01*
X20550000Y1D02*
X20091151Y4270507D01*
X15436044Y-11214942D02*
X17421311Y-7756467D01*
X22425951Y16293408D02*
X18541609Y20592544D01*
X-25500000Y0D02*
X-24932983Y-5299668D01*
X19230381Y-4087543D02*
X19650000Y1D01*
X25950000Y0D02*
X25373148Y5393230D01*
X-22018103Y4680093D02*
X-22500000Y1D01*
X6331758Y19487149D02*
X2140742Y20367809D01*
X18193661Y-20206107D02*
X21989081Y-15976003D01*
X-12925000Y22386757D02*
X-17290335Y19202863D01*
X23176648Y-10318908D02*
X24805823Y-5272640D01*
X21450000Y1D02*
X20971484Y4457627D01*
X7073399Y21769684D02*
X2391611Y22754661D01*
X-2202415Y20954577D02*
X-6507898Y20029251D01*
X-6507898Y20029251D02*
X-10525000Y18229835D01*
X-18618057Y-8289292D02*
X-16479677Y-11973185D01*
X12850000Y-22256852D02*
X17189965Y-19091390D01*
X-16965087Y-12325856D02*
X-14024978Y-15576315D01*
X16164159Y-11743949D02*
X18243502Y-8122530D01*
X-18494770Y20540523D02*
X-22353140Y16240507D01*
X-20298981Y9037689D02*
X-21724659Y4617719D01*
X-18106471Y8061521D02*
X-19377104Y4118731D01*
X-2672793Y25429925D02*
X-7898475Y24309005D01*
X-17013628Y12361124D02*
X-19202726Y8549605D01*
X17695375Y-7878488D02*
X18936937Y-4025170D01*
X-27300000Y1D02*
X-26693649Y-5673910D01*
X-17036066Y-18920467D02*
X-12725000Y-22040346D01*
X-2344574Y-22307126D02*
X2343528Y-22297180D01*
X-19202726Y8549605D02*
X-20550882Y4368225D01*
X22183245Y16117072D02*
X18340869Y20369600D01*
X23688233Y10546682D02*
X20969720Y15235394D01*
X21746376Y-15799667D02*
X24546966Y-10929013D01*
X-21358693Y-9509502D02*
X-18906728Y-13736541D01*
X13449999Y-23296083D02*
X17992922Y-19983164D01*
X10399999Y18013329D02*
X6424463Y19772465D01*
X26250000Y1D02*
X25666593Y5455603D01*
X-2783593Y-26484118D02*
X2782547Y-26474172D01*
X-9625001Y16670990D02*
X-12874073Y14298107D01*
X-21000000Y0D02*
X-20531319Y-4364066D01*
X-8046803Y-24765511D02*
X-2720876Y-25887404D01*
X13249999Y22949674D02*
X8185860Y25193488D01*
X-2281857Y-21710412D02*
X2280811Y-21700467D01*
X18643493Y-3962796D02*
X19050000Y0D01*
X2673838Y25439871D02*
X-2672793Y25429925D01*
X-25226427Y-5362042D02*
X-23551202Y-10485670D01*
X2046667Y19472739D02*
X-2045623Y19462794D01*
X20384595Y4332880D02*
X19029151Y8472325D01*
X15630208Y11356012D02*
X12920912Y14350127D01*
X10699999Y18532944D02*
X6609873Y20343099D01*
X12920912Y14350127D02*
X9650000Y16714291D01*
X-5951668Y18317349D02*
X-9625001Y16670990D01*
X-9775000Y16930797D02*
X-13074813Y14521050D01*
X7852121Y-24166346D02*
X12700000Y-21997045D01*
X13849999Y23988904D02*
X8556680Y26334755D01*
X26550000Y0D02*
X25960037Y5517977D01*
X-24932983Y-5299668D02*
X-23277139Y-10363649D01*
X25960037Y5517977D02*
X24236360Y10790724D01*
X-11075000Y-19182462D02*
X-6841637Y-21056391D01*
X21455130Y15588065D02*
X17738652Y19700770D01*
X-17521802Y-7801208D02*
X-15508856Y-11267843D01*
X-15229413Y-16913976D02*
X-11375000Y-19702077D01*
X12974442Y-14409578D02*
X15678749Y-11391278D01*
X-21139615Y15358829D02*
X-23861808Y10623962D01*
X-2438650Y-23202195D02*
X2437603Y-23192250D01*
X19887884Y-8854656D02*
X21284491Y-4524158D01*
X-15630891Y-17359863D02*
X-11675000Y-20221693D01*
X25392711Y-5397387D02*
X25950000Y0D01*
X-23825266Y-10607691D02*
X-21091074Y-15323561D01*
X5998019Y-18460006D02*
X9700000Y-16800892D01*
X-20237874Y-4301692D02*
X-18892121Y-8411313D01*
X21212425Y15411730D02*
X17537913Y19477826D01*
X6702578Y20628416D02*
X2266177Y21561235D01*
X-10975001Y19009258D02*
X-14680726Y16304598D01*
X-11875001Y20568104D02*
X-15885161Y17642259D01*
X25650000Y1D02*
X25079704Y5330856D01*
X2782547Y-26474172D02*
X8222942Y-25307613D01*
X7944826Y-24451663D02*
X12850000Y-22256852D01*
X-14627196Y-16245145D02*
X-10925000Y-18922655D01*
X2218093Y-21103754D02*
X6554250Y-20171908D01*
X27300000Y5500000D02*
X25332615Y11278808D01*
X-24647457Y-10973754D02*
X-21819189Y-15852568D01*
X-2219140Y-21113699D02*
X2218093Y-21103754D01*
X25686155Y-5459761D02*
X26250000Y1D01*
X-8176590Y25164956D02*
X-13225001Y22906372D01*
X-25832879Y5490948D02*
X-26400000Y0D01*
X14125347Y15687788D02*
X10550000Y18273137D01*
X13750000Y-23815698D02*
X18394400Y-20429051D01*
X25666593Y5455603D02*
X23962297Y10668703D01*
X13150000Y-22776468D02*
X17591443Y-19537277D01*
X-6229783Y19173300D02*
X-10075000Y17450412D01*
X20991047Y-4461784D02*
X21450000Y1D01*
X-6192701Y-19059172D02*
X-2093706Y-19920273D01*
X19613820Y-8732635D02*
X20991047Y-4461784D01*
X2266177Y21561235D02*
X-2265132Y21551290D01*
X21503671Y-15623332D02*
X24272902Y-10806992D01*
X-21091074Y-15323561D02*
X-17437544Y-19366354D01*
X-17437544Y-19366354D02*
X-13025000Y-22559961D01*
X-25539434Y5428575D02*
X-26100000Y1D01*
X-21625025Y15711500D02*
X-24409935Y10868004D01*
X-24373393Y-10851733D02*
X-21576484Y-15676232D01*
X8185860Y25193488D02*
X2767913Y26334940D01*
X-26100000Y1D02*
X-25519871Y-5424416D01*
X27150000Y1D02*
X26546925Y5642724D01*
X-19670549Y4181105D02*
X-20100000Y0D01*
X-2860945Y27220065D02*
X-8454705Y26020907D01*
X15872913Y11532347D02*
X13121651Y14573071D01*
X-6656227Y-20485757D02*
X-2250498Y-21412056D01*
X19650000Y1D02*
X19210818Y4083386D01*
X-13025000Y-22559961D02*
X-8046803Y-24765511D01*
X-17256333Y12537460D02*
X-19476790Y8671626D01*
X-23587744Y10501941D02*
X-25245990Y5366201D01*
X21264928Y4520001D02*
X19851342Y8838388D01*
X-13476291Y14966937D02*
X-16285513Y11832118D01*
X24236360Y10790724D02*
X21455130Y15588065D01*
X-17450497Y-12678527D02*
X-14426456Y-16022202D01*
X2893347Y27528367D02*
X-2892303Y27518421D01*
X-13677030Y15189881D02*
X-16528218Y12008453D01*
X-21576484Y-15676232D02*
X-17839022Y-19812241D01*
X-11275001Y19528873D02*
X-15082204Y16750485D01*
X-24921521Y-11095775D02*
X-22061894Y-16028903D01*
X18140130Y20146657D02*
X13549999Y23469289D01*
X-10375000Y17970028D02*
X-13877769Y15412824D01*
X-6099996Y-18773855D02*
X-2062347Y-19621916D01*
X18340869Y20369600D02*
X13699999Y23729097D01*
X20110714Y-4274664D02*
X20550000Y1D01*
X-24958062Y11112046D02*
X-26713211Y5678069D01*
X2172101Y20666165D02*
X-2171057Y20656220D01*
X-18240501Y-20258127D02*
X-13625000Y-23599192D01*
X18791630Y-8366572D02*
X20110714Y-4274664D01*
X18755088Y8350304D02*
X16601028Y12061354D01*
X-2062347Y-19621916D02*
X2061301Y-19611971D01*
X-27600000Y1D02*
X-26987093Y-5736283D01*
X-11125001Y19269066D02*
X-14881465Y16527541D01*
X-2407291Y-22903839D02*
X2406245Y-22893894D01*
X-22353140Y16240507D02*
X-25232126Y11234067D01*
X2468962Y-23490607D02*
X7295891Y-22454444D01*
X-15483683Y17196372D02*
X-18712564Y13595473D01*
X-18039762Y-20035184D02*
X-13475000Y-23339384D01*
X15921454Y-11567613D02*
X17969439Y-8000509D01*
X-13222021Y-14684541D02*
X-9875000Y-17104001D01*
X-18664023Y-13560205D02*
X-15430152Y-17136919D01*
X8093155Y24908171D02*
X2736555Y26036584D01*
X-2076981Y19761151D02*
X-6137078Y18887983D01*
X-2470008Y-23500552D02*
X2468962Y-23490607D01*
X8408352Y-25878247D02*
X13600000Y-23555890D01*
X-13877769Y15412824D02*
X-16770923Y12184789D01*
X-13075001Y22646565D02*
X-17491075Y19425806D01*
X-15885161Y17642259D02*
X-19197974Y13948145D01*
X-25519871Y-5424416D02*
X-23825266Y-10607691D01*
X-23313681Y10379920D02*
X-24952546Y5303828D01*
X23025594Y4894242D02*
X21495724Y9570514D01*
X-14827935Y-16468089D02*
X-11075000Y-19182462D01*
X-13675001Y23685795D02*
X-18294031Y20317580D01*
X-12725000Y-22040346D02*
X-7861393Y-24194877D01*
X-11225001Y-19442270D02*
X-6934342Y-21341708D01*
X20775556Y-15094325D02*
X23450711Y-10440929D01*
X2454328Y23351375D02*
X-2453284Y23341429D01*
X-23861808Y10623962D02*
X-25539434Y5428575D01*
X13924607Y15464844D02*
X10399999Y18013329D01*
X-16770923Y12184789D02*
X-18928662Y8427584D01*
X-17832408Y7939500D02*
X-19083660Y4056358D01*
X2203460Y20964522D02*
X-2202415Y20954577D01*
X22751713Y-4836025D02*
X23250000Y1D01*
X18936937Y-4025170D02*
X19350000Y1D01*
X13100000Y22689866D02*
X8093155Y24908171D01*
X18785374Y13648374D02*
X15530521Y17248392D01*
X2688472Y-25579103D02*
X7944826Y-24451663D01*
X20532851Y-14917989D02*
X23176648Y-10318908D01*
X2736555Y26036584D02*
X-2735510Y26026639D01*
X12049999Y20871213D02*
X7444219Y22910952D01*
X-22217426Y9891836D02*
X-23778769Y5054334D01*
X16186269Y-17976673D02*
X19562030Y-14212647D01*
X-15800102Y11479446D02*
X-17832408Y7939500D01*
X-11975000Y-20741308D02*
X-7397867Y-22768293D01*
X-12874073Y14298107D02*
X-15557397Y11303111D01*
X24546966Y-10929013D02*
X26273044Y-5584508D01*
X-12820543Y-14238654D02*
X-9575000Y-16584386D01*
X16132738Y17917222D02*
X12049999Y20871213D01*
X2029942Y-19313615D02*
X5998019Y-18460006D01*
X-17236805Y-19143410D02*
X-12875000Y-22300154D01*
X12700000Y-21997045D02*
X16989226Y-18868447D01*
X11599999Y20091790D02*
X7166104Y22055001D01*
X23998839Y-10684971D02*
X25686155Y-5459761D01*
X-23277139Y-10363649D02*
X-20605663Y-14970890D01*
X-21669299Y9647794D02*
X-23191880Y4929587D01*
X-17089596Y18979919D02*
X-20654204Y15006158D01*
X12200000Y21131020D02*
X7536924Y23196269D01*
X-19634843Y-14265548D02*
X-16233109Y-18028693D01*
X-2704152Y25728282D02*
X-7991180Y24594322D01*
X17390704Y-19314334D02*
X21018261Y-15270660D01*
X-16528218Y12008453D02*
X-18654599Y8305563D01*
X20399470Y9082430D02*
X18057259Y13119367D01*
X2437603Y-23192250D02*
X7203186Y-22169127D01*
X7536924Y23196269D02*
X2548403Y24246444D01*
X-15684422Y17419315D02*
X-18955269Y13771809D01*
X8278565Y25478805D02*
X2799272Y26633297D01*
X-22311547Y4742466D02*
X-22800000Y1D01*
X-2798227Y26623352D02*
X-8269295Y25450273D01*
X23045157Y-4898399D02*
X23550000Y1D01*
X-20573044Y9159710D02*
X-22018103Y4680093D01*
X-2766869Y26324995D02*
X-8176590Y25164956D01*
X11749999Y20351597D02*
X7258809Y22340318D01*
X21989081Y-15976003D02*
X24821030Y-11051034D01*
X-21906821Y-9753544D02*
X-19392138Y-14089212D01*
X20984139Y-9342740D02*
X22458268Y-4773652D01*
X14526825Y16133675D02*
X10849999Y18792752D01*
X-7527654Y23167737D02*
X-12175001Y21087719D01*
X-6786014Y20885202D02*
X-10975001Y19009258D01*
X10600000Y-18359738D02*
X14178877Y-15747238D01*
X18105800Y-13154633D02*
X20436011Y-9098698D01*
X18833915Y-13683640D02*
X21258202Y-9464761D01*
X-17892553Y19871693D02*
X-21625025Y15711500D01*
X-2516001Y23938143D02*
X-7434949Y22882420D01*
X18394400Y-20429051D02*
X22231787Y-16152338D01*
X-26126323Y5553322D02*
X-26700000Y0D01*
X-19377104Y4118731D02*
X-19800000Y0D01*
X27450000Y1D02*
X26840370Y5705097D01*
X-19988375Y-8899397D02*
X-17693202Y-12854863D01*
X-2390566Y22744716D02*
X-7064129Y21741152D01*
X-22180884Y-9875565D02*
X-19634843Y-14265548D01*
X-23172317Y-4925427D02*
X-21632757Y-9631523D01*
X19513489Y14177381D02*
X16132738Y17917222D01*
X15530521Y17248392D02*
X11599999Y20091790D01*
X-2829586Y26921708D02*
X-8362000Y25735590D01*
X11800000Y-20438199D02*
X15784791Y-17530786D01*
X24450000Y1D02*
X23905927Y5081362D01*
X25979600Y-5522134D02*
X26550000Y0D01*
X-23465761Y-4987801D02*
X-21906821Y-9753544D01*
X2845264Y-27070885D02*
X8408352Y-25878247D01*
X-2877669Y-27379187D02*
X2876623Y-27369242D01*
X-7064129Y21741152D02*
X-11425000Y19788681D01*
X-18712564Y13595473D02*
X-21121171Y9403752D01*
X-2578718Y24534856D02*
X-7620360Y23453054D01*
X-13475000Y-23339384D02*
X-8324918Y-25621462D01*
X7481301Y-23025078D02*
X12100000Y-20957814D01*
X-2547359Y24236499D02*
X-7527654Y23167737D01*
X23632046Y-5023146D02*
X24150000Y0D01*
X8463975Y26049438D02*
X2861989Y27230010D01*
X12349999Y21390828D02*
X7629629Y23481586D01*
X-8454705Y26020907D02*
X-13675001Y23685795D01*
X-22454948Y-9997586D02*
X-19877548Y-14441883D01*
X-24072213Y5116707D02*
X-24600000Y0D01*
X11299999Y19572175D02*
X6980693Y21484367D01*
X23925490Y-5085519D02*
X24450000Y1D01*
X5960937Y18345881D02*
X2015308Y19174383D01*
X19270784Y14001045D02*
X15931999Y17694279D01*
X15985530Y-17753729D02*
X19319325Y-14036311D01*
X-21333779Y-15499897D02*
X-17638283Y-19589297D01*
X-8547411Y26306224D02*
X-13825001Y23945603D01*
X17136434Y19031939D02*
X12800000Y22170251D01*
X-11575001Y20048489D02*
X-15483683Y17196372D01*
X21769788Y9692535D02*
X19270784Y14001045D01*
X-23778769Y5054334D02*
X-24300000Y0D01*
X15731260Y17471335D02*
X11749999Y20351597D01*
X-2814952Y-26782474D02*
X2813906Y-26772529D01*
X-20847108Y9281731D02*
X-22311547Y4742466D01*
X8371270Y25764122D02*
X2830630Y26931653D01*
X23319038Y4956615D02*
X21769788Y9692535D01*
X12400000Y-21477430D02*
X16587747Y-18422560D01*
X-23485324Y4991960D02*
X-24000000Y0D01*
X-8417623Y-25906779D02*
X-2846311Y-27080831D01*
X23905927Y5081362D02*
X22317915Y9936577D01*
X-13325001Y-23079577D02*
X-8232213Y-25336145D01*
X-22291984Y-4738307D02*
X-20810566Y-9265460D01*
X16534217Y18363109D02*
X12349999Y21390828D01*
X-26106760Y-5549163D02*
X-24373393Y-10851733D01*
X-2093706Y-19920273D02*
X2092659Y-19910328D01*
X2360252Y22456305D02*
X-2359208Y22446360D01*
X-24900000Y0D02*
X-24346094Y-5174921D01*
X2343528Y-22297180D02*
X6925070Y-21313176D01*
X7815039Y24052220D02*
X2642479Y25141514D01*
X26566488Y-5646881D02*
X27150000Y1D01*
X22354457Y-9952845D02*
X23925490Y-5085519D01*
X2799272Y26633297D02*
X-2798227Y26623352D01*
X26840370Y5705097D02*
X25058551Y11156787D01*
X2312169Y-21998824D02*
X6832365Y-21027859D01*
X2485686Y23649731D02*
X-2484642Y23639786D01*
X-24099330Y-10729712D02*
X-21333779Y-15499897D01*
X18541609Y20592544D02*
X13849999Y23988904D01*
X2861989Y27230010D02*
X-2860945Y27220065D01*
X15584051Y-17307842D02*
X18833915Y-13683640D01*
X-17691814Y19648750D02*
X-21382320Y15535165D01*
X-2626801Y-24992335D02*
X2625754Y-24982390D01*
X-7620360Y23453054D02*
X-12325001Y21347527D01*
X-8324918Y-25621462D02*
X-2814952Y-26782474D01*
X18542669Y13472038D02*
X15329782Y17025448D01*
X-27000000Y0D02*
X-26400204Y-5611536D01*
X19028079Y13824710D02*
X15731260Y17471335D01*
X16892274Y-12272956D02*
X19065693Y-8488593D01*
X21697835Y15764401D02*
X17939391Y19923713D01*
X17620390Y-12801962D02*
X19887884Y-8854656D01*
X-13825001Y23945603D02*
X-18494770Y20540523D01*
X2328894Y22157948D02*
X-2327849Y22148003D01*
X17939391Y19923713D02*
X13400000Y23209481D01*
X-12025001Y20827911D02*
X-16085900Y17865202D01*
X16788486Y-18645503D02*
X20290146Y-14741654D01*
X-7490572Y-23053609D02*
X-2532725Y-24097265D01*
X21577936Y-4586531D02*
X22050000Y1D01*
X-22765553Y10135878D02*
X-24365657Y5179081D01*
X-21705096Y-4613560D02*
X-20262439Y-9021418D01*
X25058551Y11156787D02*
X22183245Y16117072D01*
X6739660Y-20742542D02*
X10900000Y-18879353D01*
X21750000Y1D02*
X21264928Y4520001D01*
X20673533Y9204451D02*
X18299964Y13295703D01*
X21851817Y4644748D02*
X20399470Y9082430D01*
X-12775001Y22126950D02*
X-17089596Y18979919D01*
X26273044Y-5584508D02*
X26850000Y1D01*
X7258809Y22340318D02*
X2454328Y23351375D01*
X-15028674Y-16691032D02*
X-11225001Y-19442270D01*
X-14881465Y16527541D02*
X-17984448Y13066467D01*
X-21867730Y15887836D02*
X-24683999Y10990025D01*
X25095093Y-11173055D02*
X26859933Y-5709255D01*
X-20536502Y-9143439D02*
X-18178612Y-13207534D01*
X-19064097Y-4052198D02*
X-17795866Y-7923229D01*
X-13375001Y23166180D02*
X-17892553Y19871693D01*
X-21632757Y-9631523D02*
X-19149433Y-13912876D01*
X-26693649Y-5673910D02*
X-24921521Y-11095775D01*
X13600000Y-23555890D02*
X18193661Y-20206107D01*
X8130237Y-25022296D02*
X13150000Y-22776468D01*
X-6007291Y-18488538D02*
X-2030989Y-19323560D01*
X-24000000Y0D02*
X-23465761Y-4987801D01*
X-26419767Y5615695D02*
X-27000000Y0D01*
X24821030Y-11051034D02*
X26566488Y-5646881D01*
X24272902Y-10806992D02*
X25979600Y-5522134D01*
X-22878873Y-4863054D02*
X-21358693Y-9509502D01*
X-26700000Y0D02*
X-26106760Y-5549163D01*
X12949999Y22430058D02*
X8000449Y24622854D01*
X23850000Y1D02*
X23319038Y4956615D01*
X17421311Y-7756467D02*
X18643493Y-3962796D01*
X26253481Y5580350D02*
X24510424Y10912745D01*
X-24052650Y-5112548D02*
X-22454948Y-9997586D01*
X17816958Y3683042D02*
X18250000Y3250000D01*
X17816958Y3787112D02*
X17816958Y3683042D01*
X8453642Y1796358D02*
X9000000Y1250000D01*
X8451195Y1796358D02*
X8453642Y1796358D01*
X95795Y-294827D02*
X150000Y-259807D01*
X6787642Y3022054D02*
X6002906Y4361367D01*
X-1725243Y-16414583D02*
X1724197Y-16404638D01*
X-8262500Y-14311069D02*
X-5103416Y-15706698D01*
X-2435588Y-517700D02*
X-2265593Y-1008706D01*
X5937499Y10284052D02*
X3666486Y11284286D01*
X-3335484Y708979D02*
X-3400000Y0D01*
X4069094Y-864912D02*
X4150000Y1D01*
X9623257Y6991706D02*
X7952617Y8832277D01*
X4500832Y13852139D02*
X1521411Y14475267D01*
X-2575000Y-4460030D02*
X-1588348Y-4888430D01*
X-1081347Y10288330D02*
X-3193691Y9829170D01*
X-8324037Y1769329D02*
X-8500000Y1D01*
X1579076Y-4859898D02*
X2550000Y-4416729D01*
X-1298114Y1441701D02*
X-1561403Y1134426D01*
X5613293Y17275942D02*
X1897714Y18055546D01*
X-12220202Y8878497D02*
X-13789969Y6139690D01*
X6276057Y-2794280D02*
X6710092Y-1426274D01*
X-5828421Y-2594979D02*
X-5153439Y-3744192D01*
X4208831Y-4674380D02*
X5080626Y-3691291D01*
X-5864962Y2611250D02*
X-6269927Y1332714D01*
X-1846801Y-2051079D02*
X-1375000Y-2381569D01*
X3151605Y3500213D02*
X2350000Y4070320D01*
X-7600000Y0D02*
X-7424141Y-1578049D01*
X17249632Y-3666522D02*
X17625000Y1D01*
X8943682Y-6497965D02*
X10090109Y-4492406D01*
X16349737Y3475244D02*
X15260776Y6794536D01*
X10157208Y-7379643D02*
X11460427Y-5102511D01*
X14475127Y-6444742D02*
X15488967Y-3292281D01*
X12341554Y-8966664D02*
X13927000Y-6200700D01*
X-1124822Y-3461845D02*
X-379439Y-3610114D01*
X-13268573Y-2820322D02*
X-12383109Y-5513315D01*
X7587499Y13141936D02*
X4686242Y14422773D01*
X-7472802Y-3327105D02*
X-6609669Y-4802205D01*
X14201064Y-6322721D02*
X15195522Y-3229908D01*
X7637500Y-13228538D02*
X10214278Y-11344105D01*
X-3527429Y-10856310D02*
X-1192148Y-11342522D01*
X9913525Y-2107184D02*
X10125000Y1D01*
X5517495Y4008696D02*
X4556779Y5060817D01*
X-4769678Y14679558D02*
X-7712501Y13358442D01*
X4630619Y-14251581D02*
X7487499Y-12968730D01*
X-175000Y-303108D02*
X-105066Y-323359D01*
X315675Y-3003456D02*
X930141Y-2862680D01*
X6550000Y0D02*
X6397085Y1359743D01*
X13104809Y-5834637D02*
X14021745Y-2980414D01*
X-6650611Y-2961042D02*
X-5881554Y-4273198D01*
X-6902083Y7665539D02*
X-8336921Y6057128D01*
X744730Y-2292046D02*
X1200000Y-2078460D01*
X1949897Y-6001166D02*
X3149999Y-5455960D01*
X-1206782Y11481756D02*
X-3564512Y10970437D01*
X2402624Y1069718D02*
X2119624Y1539998D01*
X-3251975Y-3611683D02*
X-2425001Y-4200223D01*
X5242473Y16134674D02*
X1772280Y16862119D01*
X-4108462Y4562910D02*
X-4959275Y3603124D01*
X-1269499Y12078469D02*
X-3749922Y11541071D01*
X-8862500Y-15350300D02*
X-5474237Y-16847966D01*
X1408532Y299393D02*
X1306370Y581634D01*
X8652436Y6286364D02*
X7149660Y7940503D01*
X15571382Y-6932826D02*
X16662744Y-3541775D01*
X2376340Y7313625D02*
X802778Y7637929D01*
X5032085Y3656025D02*
X4155301Y4614930D01*
X-3051236Y-3388740D02*
X-2275000Y-3940415D01*
X550000Y952628D02*
X336828Y1036652D01*
X-5862501Y-10154147D02*
X-3620135Y-11141627D01*
X8409731Y6110028D02*
X6948921Y7717560D01*
X1450000Y0D02*
X1408532Y299393D01*
X-5262500Y-9114917D02*
X-3249314Y-10000359D01*
X-10715431Y-7785215D02*
X-8855944Y-9835521D01*
X1022846Y-3147997D02*
X1649999Y-2857883D01*
X-7235281Y3221355D02*
X-7737148Y1644582D01*
X652025Y-2006729D02*
X1050000Y-1818653D01*
X-3939913Y-2862514D02*
X-3251975Y-3611683D01*
X226524Y-164579D02*
X246657Y-109818D01*
X-1755567Y-1275493D02*
X-1445323Y-1605192D01*
X-8462501Y14657480D02*
X-11318345Y12570295D01*
X-11928956Y-8666893D02*
X-9859640Y-10950239D01*
X-362714Y3450991D02*
X-1069199Y3290656D01*
X-16789904Y-3568804D02*
X-15671873Y-6977567D01*
X13263833Y9636740D02*
X10963704Y12176428D01*
X-4054932Y-4503457D02*
X-3025000Y-5239453D01*
X2598832Y-7998385D02*
X4200000Y-7274613D01*
X2190930Y6742991D02*
X740061Y7041216D01*
X81532Y775728D02*
X-80487Y765782D01*
X3498879Y1557802D02*
X3090444Y2245340D01*
X281205Y-865461D02*
X450000Y-779422D01*
X1115088Y237020D02*
X1032306Y459613D01*
X1995421Y424140D02*
X1854497Y825676D01*
X-8820282Y-3927042D02*
X-7802969Y-5669188D01*
X8957313Y3988053D02*
X7924321Y5757357D01*
X-5047793Y15535509D02*
X-8162500Y14137865D01*
X1799961Y-1999059D02*
X2168165Y-1575264D01*
X-2971199Y-9144408D02*
X-1003996Y-9552382D01*
X-5370031Y-1141435D02*
X-5006230Y-2228916D01*
X14902078Y-3167534D02*
X15225000Y0D01*
X-4028037Y12397022D02*
X-6512501Y11279981D01*
X489193Y4654363D02*
X-488148Y4644418D01*
X-6812501Y11799597D02*
X-9110214Y10117917D01*
X5187500Y8985014D02*
X3202961Y9857701D01*
X5080626Y-3691291D02*
X5727930Y-2550238D01*
X8993855Y-4004322D02*
X9620081Y-2044811D01*
X-801734Y7627983D02*
X-2367071Y7285093D01*
X-8454466Y-9389634D02*
X-6312500Y-10933570D01*
X2875753Y611261D02*
X2676688Y1191739D01*
X-10261118Y-11396125D02*
X-7662500Y-13271839D01*
X1398482Y-1553172D02*
X1682755Y-1222593D01*
X-4955088Y15250192D02*
X-8012501Y13878058D01*
X6850000Y1D02*
X6690529Y1422116D01*
X8608365Y-9560558D02*
X10399913Y-7555979D01*
X-1144065Y10885043D02*
X-3379101Y10399804D01*
X-2142144Y-455326D02*
X-1991530Y-886685D01*
X-3379101Y10399804D02*
X-5462501Y9461328D01*
X-8579626Y6233463D02*
X-9679015Y4309375D01*
X16056292Y3412871D02*
X14986713Y6672515D01*
X-10921018Y-2321334D02*
X-10190600Y-4537147D01*
X1019675Y9701562D02*
X-1018630Y9691616D01*
X6987499Y12102706D02*
X4315422Y13281505D01*
X400000Y692821D02*
X244123Y751335D01*
X1634699Y5031089D02*
X551910Y5251076D01*
X3772942Y1679823D02*
X3333150Y2421676D01*
X2676688Y1191739D02*
X2362329Y1716333D01*
X-9747241Y-2071839D02*
X-9094346Y-4049063D01*
X-2046813Y1487097D02*
X-2302135Y1024977D01*
X4949426Y-1052033D02*
X5050000Y1D01*
X1306370Y581634D02*
X1148804Y834656D01*
X-11214463Y-2383707D02*
X-10464664Y-4659168D01*
X8337500Y14440974D02*
X5149768Y15849357D01*
X-1043844Y-1159305D02*
X-775000Y-1342339D01*
X-1756601Y-16712940D02*
X1755555Y-16702995D01*
X-10353693Y2200746D02*
X-10575000Y0D01*
X5149768Y15849357D02*
X1740921Y16563763D01*
X4356040Y4837873D02*
X3249999Y5629166D01*
X-1066713Y-10149095D02*
X1065667Y-10139150D01*
X5727930Y-2550238D02*
X6123203Y-1301527D01*
X-16220000Y-7221609D02*
X-14356007Y-10430249D01*
X707648Y2177920D02*
X238324Y2267510D01*
X-4361775Y-13424162D02*
X-1474374Y-14027731D01*
X3981683Y-12254363D02*
X6437500Y-11150077D01*
X7437500Y12882128D02*
X4593537Y14137456D01*
X-7705039Y8557313D02*
X-9307741Y6762470D01*
X13425000Y1D02*
X13121850Y2789136D01*
X-1505733Y-14326087D02*
X1504687Y-14316142D01*
X997004Y-1107285D02*
X1197345Y-869922D01*
X-11064075Y-12287899D02*
X-8262500Y-14311069D01*
X-5381531Y-16562649D02*
X-1819318Y-17309653D01*
X-4918006Y-15136064D02*
X-1662526Y-15817870D01*
X-1773758Y-5459064D02*
X-598949Y-5698610D01*
X-1169339Y-520622D02*
X-1027452Y-746487D01*
X7372311Y-3282364D02*
X7883869Y-1675768D01*
X-925000Y-1602146D02*
X-568592Y-1749943D01*
X-5590899Y2489229D02*
X-5976482Y1270341D01*
X6887500Y-11929499D02*
X9210582Y-10229388D01*
X-290476Y-893993D02*
X-97212Y-924905D01*
X8167026Y5933693D02*
X6748182Y7494616D01*
X13378873Y-5956658D02*
X14315190Y-3042787D01*
X13415294Y2851509D02*
X12520140Y5574326D01*
X3750000Y-6495190D02*
X5011788Y-5566154D01*
X-1537092Y-14624444D02*
X1536045Y-14614499D01*
X6387499Y11063475D02*
X3944601Y12140237D01*
X-12948317Y9407503D02*
X-14612160Y6505753D01*
X1750000Y3031089D02*
X1078469Y3319188D01*
X-4900000Y0D02*
X-4783142Y-1016688D01*
X-10763972Y7820483D02*
X-12145587Y5407564D01*
X9429093Y-6850637D02*
X10638236Y-4736448D01*
X12794204Y5696347D02*
X11322192Y8226055D01*
X12535718Y9107733D02*
X10361487Y11507598D01*
X-3697208Y-2686178D02*
X-3051236Y-3388740D01*
X16393573Y-7298889D02*
X17543077Y-3728896D01*
X10774295Y2290148D02*
X10053567Y4476137D01*
X-2475001Y4286826D02*
X-3305506Y3671136D01*
X4047006Y1801844D02*
X3575855Y2598011D01*
X-383690Y170830D02*
X-401041Y85244D01*
X1197743Y-1330229D02*
X1440050Y-1046257D01*
X1097026Y-10437507D02*
X3240043Y-9971827D01*
X7277418Y1546863D02*
X6787642Y3022054D01*
X11025000Y1D02*
X10774295Y2290148D01*
X-1000000Y0D02*
X-968367Y-205832D01*
X1344952Y1493722D02*
X999999Y1732051D01*
X-1850677Y-17608010D02*
X1849631Y-17598064D01*
X11967400Y13291146D02*
X8937499Y15480205D01*
X-2051873Y-6315015D02*
X-693024Y-6593680D01*
X-1347315Y4146607D02*
X-2175000Y3767211D01*
X13797784Y-10024677D02*
X15571382Y-6932826D01*
X-6543808Y-1390929D02*
X-6102484Y-2717000D01*
X-15929134Y3385842D02*
X-16275000Y0D01*
X-15322683Y-3256936D02*
X-14301555Y-6367462D01*
X-17689800Y3760083D02*
X-18075000Y1D01*
X1253818Y-11929290D02*
X3703568Y-11398412D01*
X-3712840Y-11426944D02*
X-1254865Y-11939235D01*
X4723324Y-14536898D02*
X7637500Y-13228538D01*
X1580433Y703655D02*
X1391509Y1010991D01*
X8407626Y-9337614D02*
X10157208Y-7379643D01*
X-1332216Y12675182D02*
X-3935332Y12111705D01*
X-1479944Y658914D02*
X-1574818Y334738D01*
X5094145Y-15678166D02*
X8237500Y-14267768D01*
X-299997Y2854278D02*
X-883789Y2720022D01*
X1239184Y11790058D02*
X-1238140Y11780112D01*
X-10227142Y4553417D02*
X-10940581Y2325493D01*
X-6563371Y1395088D02*
X-6700000Y0D01*
X-1771235Y16852174D02*
X-5233203Y16106143D01*
X14315190Y-3042787D02*
X14625000Y0D01*
X-6837252Y-1453302D02*
X-6376548Y-2839021D01*
X-976494Y3005339D02*
X-1575001Y2727981D01*
X-3104767Y3448192D02*
X-3745749Y2721446D01*
X-383182Y-1179310D02*
X-128571Y-1223261D01*
X1764487Y-5430532D02*
X2850000Y-4936344D01*
X-7450770Y-8274917D02*
X-5562500Y-9634532D01*
X-1693884Y-16116227D02*
X1692838Y-16106282D01*
X14749191Y-6566763D02*
X15782411Y-3354655D01*
X-5881554Y-4273198D02*
X-4857889Y-5395231D01*
X-12967778Y5773627D02*
X-13875024Y2949228D01*
X-7862501Y13618250D02*
X-10515388Y11678521D01*
X-504873Y-4803540D02*
X503827Y-4793595D01*
X-8011029Y-1702796D02*
X-7472802Y-3327105D01*
X4757518Y5283760D02*
X3549999Y6148781D01*
X10125000Y1D02*
X9893962Y2103027D01*
X6245611Y4537703D02*
X5158996Y5729647D01*
X2800000Y4849743D02*
X1727404Y5316406D01*
X5637499Y9764437D02*
X3481076Y10713652D01*
X4315422Y13281505D02*
X1458694Y13878554D01*
X1880989Y-17896421D02*
X5557670Y-17104751D01*
X11164444Y12399372D02*
X8337500Y14440974D01*
X1458694Y13878554D02*
X-1457650Y13868608D01*
X-3909975Y-1740832D02*
X-3454503Y-2509843D01*
X-10662597Y-11842012D02*
X-7962500Y-13791454D01*
X-10060379Y-11173182D02*
X-7512500Y-13012031D01*
X-7662500Y-13271839D02*
X-4732596Y-14565430D01*
X-5511319Y16962093D02*
X-8912501Y15436903D01*
X3809484Y-1696091D02*
X4069094Y-864912D01*
X-1457650Y13868608D02*
X-4306152Y13252973D01*
X7450000Y1D02*
X7277418Y1546863D01*
X-11597460Y5163522D02*
X-12407803Y2637360D01*
X11613438Y-8437657D02*
X13104809Y-5834637D01*
X1379253Y-13122716D02*
X4074389Y-12539680D01*
X-3935332Y12111705D02*
X-6362501Y11020174D01*
X-9094346Y-4049063D02*
X-8045675Y-5845524D01*
X-4910734Y-3567856D02*
X-4054932Y-4503457D01*
X-8507996Y9449087D02*
X-10278561Y7467812D01*
X14164522Y6306452D02*
X12535718Y9107733D01*
X-12171661Y-8843229D02*
X-10060379Y-11173182D01*
X-13241842Y5895648D02*
X-14168468Y3011601D01*
X-5396144Y-3920527D02*
X-4456410Y-4949344D01*
X6103641Y1297369D02*
X5691388Y2533970D01*
X-8655205Y-9612578D02*
X-6462501Y-11193378D01*
X9825000Y1D02*
X9600518Y2040654D01*
X-12462907Y9054832D02*
X-14064033Y6261711D01*
X2119624Y1539998D02*
X1746430Y1939608D01*
X-14849682Y-6611504D02*
X-13142482Y-9548571D01*
X4061265Y2950682D02*
X3352344Y3723156D01*
X2362329Y1716333D02*
X1947170Y2162552D01*
X1364619Y12983484D02*
X-1363574Y12973539D01*
X999999Y1732051D02*
X614943Y1892603D01*
X-2302135Y1024977D02*
X-2455151Y521859D01*
X301041Y2864224D02*
X-299997Y2854278D01*
X-9658901Y-10727295D02*
X-7212500Y-12492416D01*
X-9712431Y10786748D02*
X-11734792Y8525826D01*
X1849631Y-17598064D02*
X5464965Y-16819434D01*
X-13875000Y0D02*
X-13562017Y-2882695D01*
X4083548Y-1818112D02*
X4362538Y-927286D01*
X5143260Y2289928D02*
X4546675Y3303354D01*
X-8612501Y14917288D02*
X-11519084Y12793239D01*
X-4857889Y-5395231D02*
X-3625000Y-6278684D01*
X3759191Y11569603D02*
X1270543Y12088414D01*
X-6924675Y-3083063D02*
X-6124259Y-4449534D01*
X848771Y-8075517D02*
X2506127Y-7713068D01*
X9558530Y10615824D02*
X7137500Y12362513D01*
X4908734Y-15107532D02*
X7937500Y-13748153D01*
X5453866Y-2428217D02*
X5829759Y-1239153D01*
X3573781Y10998969D02*
X1207826Y11491701D01*
X1567404Y-14912855D02*
X4630619Y-14251581D01*
X-2329989Y-7170966D02*
X-787100Y-7488749D01*
X2014984Y-428298D02*
X2050000Y0D01*
X4149999Y7188011D02*
X2561750Y7884259D01*
X985764Y3033871D02*
X332400Y3162580D01*
X1834997Y17458832D02*
X-1833952Y17448887D01*
X4167094Y-12824997D02*
X6737500Y-11669692D01*
X597902Y-5688665D02*
X1764487Y-5430532D01*
X-11175000Y0D02*
X-10921018Y-2321334D01*
X-65853Y-626548D02*
X64807Y-616603D01*
X1300000Y2251667D02*
X800354Y2463237D01*
X2987293Y-1330028D02*
X3188761Y-677792D01*
X6690529Y1422116D02*
X6239515Y2778012D01*
X3807353Y-4228494D02*
X4595216Y-3338620D01*
X-8708735Y9672030D02*
X-10521267Y7644148D01*
X-5714376Y6346457D02*
X-6900915Y5013809D01*
X3425453Y-10542461D02*
X5537500Y-9591231D01*
X-536232Y-5101897D02*
X535185Y-5091952D01*
X3818560Y2774347D02*
X3151605Y3500213D01*
X8354095Y9278164D02*
X6237499Y10803667D01*
X-6848552Y-7606087D02*
X-5112500Y-8855109D01*
X-11560918Y-5147252D02*
X-10230020Y-7432544D01*
X-4120742Y12682339D02*
X-6662500Y11539789D01*
X7590425Y-1613394D02*
X7750000Y0D01*
X2283635Y7028308D02*
X771420Y7339572D01*
X9357791Y10392881D02*
X6987499Y12102706D01*
X-939412Y-2891211D02*
X-316722Y-3013401D01*
X-550866Y5241131D02*
X-1625430Y5002558D01*
X1755555Y-16702995D02*
X5186850Y-15963483D01*
X2413422Y-7427751D02*
X3900000Y-6754998D01*
X794784Y-353860D02*
X841206Y-178804D01*
X-5930095Y4308466D02*
X-6687153Y2977313D01*
X-1512862Y-1099158D02*
X-1244583Y-1382249D01*
X1034309Y-9840794D02*
X3054632Y-9401193D01*
X-5280293Y-2350937D02*
X-4668029Y-3391520D01*
X-6269927Y1332714D02*
X-6400000Y0D01*
X754695Y-7180448D02*
X2228012Y-6857117D01*
X-16875000Y0D02*
X-16496460Y-3506430D01*
X-11734792Y8525826D02*
X-13241842Y5895648D01*
X-13919138Y10112846D02*
X-15708415Y6993837D01*
X-237280Y2257565D02*
X-698379Y2149388D01*
X-17396356Y3697710D02*
X-17775000Y1D01*
X-4231159Y3074117D02*
X-4768708Y2123166D01*
X9960009Y11061711D02*
X7437500Y12882128D01*
X3610863Y-11113095D02*
X5837500Y-10110846D01*
X-5660845Y-6287005D02*
X-4225000Y-7317914D01*
X-9458162Y-10504352D02*
X-7062501Y-12232608D01*
X1159743Y-11034220D02*
X3425453Y-10542461D01*
X-791084Y2434705D02*
X-1275000Y2208365D01*
X-1865311Y17747244D02*
X-5511319Y16962093D01*
X-400000Y0D02*
X-381478Y-81085D01*
X1113750Y10596631D02*
X-1112706Y10586686D01*
X-7250031Y-8051974D02*
X-5412500Y-9374724D01*
X221600Y-2108386D02*
X652025Y-2006729D01*
X10013539Y-11121162D02*
X12098849Y-8790328D01*
X-13479364Y-6001399D02*
X-11928956Y-8666893D01*
X-3825001Y6625095D02*
X-5112158Y5677627D01*
X-13870597Y-10077578D02*
X-11465553Y-12733786D01*
X-14735794Y-3132189D02*
X-13753427Y-6123420D01*
X1820110Y5601723D02*
X614627Y5847789D01*
X1486371Y-4574581D02*
X2400000Y-4156921D01*
X1661479Y-15807925D02*
X4908734Y-15107532D01*
X7952617Y8832277D02*
X5937499Y10284052D01*
X14325000Y1D02*
X14002182Y2976256D01*
X-5006230Y-2228916D02*
X-4425323Y-3215185D01*
X-1991530Y-886685D02*
X-1755567Y-1275493D01*
X9210582Y-10229388D02*
X11128028Y-8084986D01*
X-456790Y4346061D02*
X-1347315Y4146607D01*
X13506538Y9813075D02*
X11164444Y12399372D01*
X1393666Y-4289264D02*
X2250000Y-3897114D01*
X-9130887Y4065333D02*
X-9766804Y2075999D01*
X-401041Y85244D02*
X-400000Y0D01*
X2050000Y0D02*
X1995421Y424140D01*
X3333150Y2421676D02*
X2750126Y3054326D01*
X-268639Y2555922D02*
X-791084Y2434705D01*
X-4676973Y14394241D02*
X-7562501Y13098635D01*
X1065667Y-10139150D02*
X3147338Y-9686510D01*
X-1254609Y3861290D02*
X-2025000Y3507403D01*
X-4213447Y12967656D02*
X-6812501Y11799597D01*
X-5412500Y-9374724D02*
X-3342019Y-10285676D01*
X-475000Y-822724D02*
X-290476Y-893993D01*
X-5474237Y-16847966D02*
X-1850677Y-17608010D01*
X2713230Y-1208007D02*
X2895316Y-615418D01*
X11067740Y2352521D02*
X10327631Y4598158D01*
X1876919Y1363662D02*
X1545691Y1716665D01*
X-14338096Y6383732D02*
X-15342246Y3261095D01*
X12534961Y2664389D02*
X11697949Y5208263D01*
X6537499Y11323283D02*
X4037307Y12425554D01*
X3249999Y5629166D02*
X2005520Y6172357D01*
X-11527470Y2450240D02*
X-11775000Y0D01*
X4074389Y-12539680D02*
X6587499Y-11409884D01*
X-1440020Y4431924D02*
X-2325000Y4027019D01*
X-11820914Y2512613D02*
X-12075000Y1D01*
X-8106518Y9003200D02*
X-9793151Y7115141D01*
X1634214Y1187327D02*
X1344952Y1493722D01*
X-1027452Y-746487D02*
X-843105Y-936362D01*
X-10464664Y-4659168D02*
X-9259200Y-6727202D01*
X13069669Y-9495670D02*
X14749191Y-6566763D01*
X-10521267Y7644148D02*
X-11871524Y5285543D01*
X-4454480Y-13709479D02*
X-1505733Y-14326087D01*
X-3225001Y5585864D02*
X-4309202Y4785853D01*
X-3506245Y3894079D02*
X-4231159Y3074117D01*
X4905739Y-2184175D02*
X5242871Y-1114406D01*
X-16275000Y0D02*
X-15909571Y-3381683D01*
X10425000Y1D02*
X10187407Y2165401D01*
X-1625430Y5002558D02*
X-2625001Y4546634D01*
X-14575618Y-6489483D02*
X-12899776Y-9372235D01*
X11128028Y-8084986D02*
X12556682Y-5590595D01*
X-4220581Y1879124D02*
X-4509261Y958473D01*
X16425000Y0D02*
X16056292Y3412871D01*
X-1532725Y4717241D02*
X-2475001Y4286826D01*
X-6400000Y0D02*
X-6250364Y-1328555D01*
X5650000Y1D02*
X5516752Y1172622D01*
X-1896669Y18045600D02*
X-5604024Y17247410D01*
X7003536Y-1488647D02*
X7150000Y0D01*
X-5462501Y9461328D02*
X-7303561Y8111426D01*
X7149660Y7940503D02*
X5337500Y9244822D01*
X144249Y1372441D02*
X-143204Y1362495D01*
X1473328Y-14017786D02*
X4352504Y-13395631D01*
X13125000Y1D02*
X12828405Y2726762D01*
X-16203016Y-3444057D02*
X-15123746Y-6733525D01*
X-13676433Y9936510D02*
X-15434351Y6871816D01*
X-1445323Y-1605192D02*
X-1075000Y-1861954D01*
X15762848Y3350497D02*
X14712649Y6550494D01*
X-14647253Y10641852D02*
X-16530606Y7359900D01*
X-3100000Y0D02*
X-3022477Y-642447D01*
X-1787960Y-17011297D02*
X1786914Y-17001351D01*
X1866355Y17757189D02*
X-1865311Y17747244D01*
X-4255671Y-4726401D02*
X-3175001Y-5499261D01*
X-2455151Y521859D02*
X-2500000Y0D01*
X-7509344Y3343376D02*
X-8030592Y1706955D01*
X893059Y2748554D02*
X301041Y2864224D01*
X600000Y-1039230D02*
X796265Y-884342D01*
X-5076587Y-1079061D02*
X-4732166Y-2106895D01*
X-2539657Y-1130727D02*
X-2240978Y-1628165D01*
X1692838Y-16106282D02*
X5001440Y-15392849D01*
X1818272Y-17299708D02*
X5372260Y-16534117D01*
X-1254865Y-11939235D02*
X1253818Y-11929290D01*
X-13515906Y6017669D02*
X-14461913Y3073975D01*
X1128384Y-10735863D02*
X3332748Y-10257144D01*
X336828Y1036652D02*
X112890Y1074084D01*
X-4269070Y-13138845D02*
X-1443016Y-13729374D01*
X5560475Y6175534D02*
X4149999Y7188011D01*
X11087303Y-2356679D02*
X11325000Y1D01*
X254318Y-54057D02*
X250000Y0D01*
X-644941Y6136201D02*
X-1903545Y5858509D01*
X821643Y174646D02*
X758242Y337592D01*
X2896280Y-2104271D02*
X3261357Y-1452049D01*
X-11117606Y12347352D02*
X-13433728Y9760175D01*
X-34495Y-328192D02*
X33449Y-318247D01*
X7609833Y3388117D02*
X6731021Y4890374D01*
X-11323396Y5041501D02*
X-12114359Y2574987D01*
X16643181Y3537618D02*
X15534840Y6916557D01*
X1925460Y-1398928D02*
X2165102Y-963965D01*
X-3503044Y2545111D02*
X-3946517Y1757103D01*
X-2200000Y0D02*
X-2142144Y-455326D01*
X-5663475Y-1203808D02*
X-5280293Y-2350937D01*
X-9916536Y-4415126D02*
X-8773790Y-6374531D01*
X2400000Y-4156921D02*
X3205135Y-3559663D01*
X1630121Y-15509568D02*
X4816029Y-14822215D01*
X-7852248Y-8720804D02*
X-5862501Y-10154147D01*
X1552770Y14773623D02*
X-1551726Y14763678D01*
X5087500Y-8811808D02*
X6801712Y-7554067D01*
X-3342019Y-10285676D02*
X-1129431Y-10745809D01*
X865495Y8234642D02*
X-864451Y8224697D01*
X-1646062Y-1828136D02*
X-1225001Y-2121762D01*
X-381478Y-81085D02*
X-347148Y-154559D01*
X541995Y601948D02*
X400000Y692821D01*
X5837500Y-10110846D02*
X7805408Y-8668784D01*
X2147909Y2385495D02*
X1600000Y2771282D01*
X7335770Y3266096D02*
X6488316Y4714038D01*
X-4306152Y13252973D02*
X-6962500Y12059404D01*
X4686242Y14422773D02*
X1584128Y15071980D01*
X1347894Y-12824359D02*
X3981683Y-12254363D01*
X-8253727Y-9166691D02*
X-6162500Y-10673763D01*
X2700000Y-4676537D02*
X3606613Y-4005550D01*
X-1223506Y-11640878D02*
X1222460Y-11630933D01*
X12825000Y1D02*
X12534961Y2664389D01*
X4655982Y-989659D02*
X4750000Y1D01*
X559320Y-1721412D02*
X900000Y-1558845D01*
X-7049291Y-7829030D02*
X-5262500Y-9114917D01*
X-3100986Y9543853D02*
X-5012500Y8681905D01*
X9087499Y15740012D02*
X5613293Y17275942D01*
X13991948Y10165746D02*
X11565922Y12845259D01*
X-4509261Y958473D02*
X-4600000Y0D01*
X711934Y-517251D02*
X794784Y-353860D01*
X-5140498Y15820826D02*
X-8312501Y14397673D01*
X-9473360Y2013625D02*
X-9675000Y0D01*
X-1551726Y14763678D02*
X-4584268Y14108924D01*
X1740921Y16563763D02*
X-1739877Y16553817D01*
X2895316Y-615418D02*
X2950000Y0D01*
X-6062501Y10500559D02*
X-8106518Y9003200D01*
X2350000Y0D02*
X2288865Y486514D01*
X9671798Y-7026972D02*
X10912300Y-4858469D01*
X6600973Y-7331123D02*
X7972862Y-5792623D01*
X-6762501Y-11712993D02*
X-4176365Y-12853528D01*
X-2532224Y1839768D02*
X-2850262Y1269019D01*
X-657753Y292851D02*
X-694485Y147618D01*
X-1300000Y0D02*
X-1261811Y-268206D01*
X-15160287Y6749795D02*
X-16222578Y3448216D01*
X3147338Y-9686510D02*
X5087500Y-8811808D01*
X-1600000Y0D02*
X-1555255Y-330579D01*
X-13855461Y-2945069D02*
X-12931236Y-5757357D01*
X-1035355Y-9850739D02*
X1034309Y-9840794D01*
X472468Y-4495238D02*
X1393666Y-4289264D01*
X6250000Y1D02*
X6103641Y1297369D01*
X-3124326Y1391040D02*
X-3335484Y708979D01*
X15195522Y-3229908D02*
X15525000Y1D01*
X-205922Y1959209D02*
X-605674Y1864071D01*
X-3525000Y6105480D02*
X-4710680Y5231740D01*
X-16496460Y-3506430D02*
X-15397809Y-6855546D01*
X-8762500Y15177096D02*
X-11719823Y13016182D01*
X11565922Y12845259D02*
X8637500Y14960589D01*
X373910Y-1150778D02*
X600000Y-1039230D01*
X547762Y-116430D02*
X550000Y0D01*
X-234853Y722803D02*
X-375000Y649520D01*
X-327559Y1008120D02*
X-525000Y909327D01*
X-12705612Y9231168D02*
X-14338096Y6383732D01*
X-5800000Y0D02*
X-5663475Y-1203808D01*
X2201439Y-2444946D02*
X2653575Y-1927935D01*
X2750126Y3054326D02*
X2050000Y3550705D01*
X5761214Y6398477D02*
X4299999Y7447819D01*
X16082967Y7160599D02*
X14234654Y10342082D01*
X4750000Y1D02*
X4636419Y985502D01*
X3481076Y10713652D02*
X1176467Y11193344D01*
X13749243Y9989411D02*
X11365183Y12622315D01*
X-1574818Y334738D02*
X-1600000Y0D01*
X1150000Y0D02*
X1115088Y237020D01*
X-12657173Y-5635336D02*
X-11200841Y-8137886D01*
X-128571Y-1223261D02*
X127524Y-1213316D01*
X-2125000Y-3680607D02*
X-1310233Y-4032479D01*
X-11249382Y8173154D02*
X-12693715Y5651606D01*
X-2725000Y-4719838D02*
X-1681053Y-5173747D01*
X2601872Y-553045D02*
X2650000Y1D01*
X2410870Y-1751600D02*
X2713230Y-1208007D01*
X11217974Y-12458822D02*
X13555079Y-9848341D01*
X5212527Y-5789098D02*
X6294152Y-4572969D01*
X-3628928Y771353D02*
X-3700000Y1D01*
X6294152Y-4572969D02*
X7098248Y-3160343D01*
X11820192Y-13127653D02*
X14283195Y-10377348D01*
X363759Y3460937D02*
X-362714Y3450991D01*
X-3898250Y-11997577D02*
X-1317582Y-12535948D01*
X1032306Y459613D02*
X906099Y658320D01*
X3405874Y-3782607D02*
X4109806Y-2985949D01*
X-1300857Y12376825D02*
X-3842627Y11826388D01*
X896854Y8532998D02*
X-895809Y8523053D01*
X12261080Y-2606173D02*
X12525000Y1D01*
X2228012Y-6857117D02*
X3600000Y-6235382D01*
X-8307257Y9226144D02*
X-10035856Y7291477D01*
X-1125000Y1948558D02*
X-1498853Y1664645D01*
X-13627892Y-9901242D02*
X-11264814Y-12510843D01*
X4362538Y-927286D02*
X4450000Y1D01*
X-8856824Y3943312D02*
X-9473360Y2013625D01*
X-9975000Y0D02*
X-9747241Y-2071839D01*
X-661297Y-2035260D02*
X-222646Y-2118331D01*
X13141413Y-2793293D02*
X13425000Y1D01*
X-4494644Y2001145D02*
X-4802705Y1020847D01*
X3624396Y-2633277D02*
X4083548Y-1818112D01*
X-14612160Y6505753D02*
X-15635690Y3323469D01*
X-15982478Y7115858D02*
X-17102911Y3635336D01*
X4636419Y985502D02*
X4321070Y1923865D01*
X1857192Y-5715849D02*
X3000000Y-5196152D01*
X1949999Y-3377499D02*
X2602918Y-2890833D01*
X14608634Y-3105161D02*
X14925000Y1D01*
X4937500Y-8552000D02*
X6600973Y-7331123D01*
X-17475000Y0D02*
X-17083348Y-3631177D01*
X3482205Y-740165D02*
X3550000Y1D01*
X6779562Y-4925640D02*
X7646375Y-3404385D01*
X16369300Y-3479402D02*
X16725000Y1D01*
X3332748Y-10257144D02*
X5387500Y-9331423D01*
X-4911419Y5454684D02*
X-5930095Y4308466D01*
X-11318345Y12570295D02*
X-13676433Y9936510D01*
X-9987315Y-7256208D02*
X-8253727Y-9166691D01*
X11365183Y12622315D02*
X8487499Y14700782D01*
X-7062501Y-12232608D02*
X-4361775Y-13424162D01*
X300000Y-519615D02*
X394787Y-438455D01*
X10912300Y-4858469D02*
X11674191Y-2481426D01*
X4595216Y-3338620D02*
X5179802Y-2306196D01*
X-10190600Y-4537147D02*
X-9016495Y-6550866D01*
X-17670237Y-3755924D02*
X-16494064Y-7343630D01*
X3553083Y3946100D02*
X2649999Y4589935D01*
X-174563Y1660852D02*
X-512969Y1578754D01*
X-2502549Y2779362D02*
X-3017634Y2192439D01*
X-4783142Y-1016688D02*
X-4458102Y-1984874D01*
X2350000Y4070320D02*
X1449289Y4460456D01*
X-1443016Y-13729374D02*
X1441970Y-13719429D01*
X-1394933Y13271895D02*
X-4120742Y12682339D01*
X-9744610Y-7079873D02*
X-8052987Y-8943747D01*
X-3564512Y10970437D02*
X-5762500Y9980943D01*
X7751878Y8609333D02*
X5787500Y10024245D01*
X-1238140Y11780112D02*
X-3657217Y11255754D01*
X1490053Y14176910D02*
X-1489008Y14166965D01*
X13708738Y2913883D02*
X12794204Y5696347D01*
X-11049333Y4919480D02*
X-11820914Y2512613D01*
X-2025000Y3507403D02*
X-2703288Y3002306D01*
X-14442350Y-3069816D02*
X-13479364Y-6001399D01*
X-1699592Y1887588D02*
X-2046813Y1487097D01*
X-12067771Y-13402616D02*
X-9012500Y-15610107D01*
X-7212500Y-12492416D02*
X-4454480Y-13709479D01*
X-10775269Y4797459D02*
X-11527470Y2450240D01*
X-4225000Y-7317914D02*
X-2608104Y-8026916D01*
X-6172800Y4484802D02*
X-6961217Y3099334D01*
X740061Y7041216D02*
X-739017Y7031270D01*
X-2248279Y-2496966D02*
X-1675000Y-2901185D01*
X-9062501Y15696711D02*
X-12121301Y13462069D01*
X-105066Y-323359D02*
X-34495Y-328192D01*
X12098849Y-8790328D02*
X13652936Y-6078679D01*
X14002182Y2976256D02*
X13068267Y5818368D01*
X-3749922Y11541071D02*
X-6062501Y10500559D01*
X-16575000Y1D02*
X-16203016Y-3444057D01*
X-2515399Y-7741600D02*
X-849817Y-8085463D01*
X-1875001Y3247596D02*
X-2502549Y2779362D01*
X-13575000Y0D02*
X-13268573Y-2820322D01*
X-4509941Y5008797D02*
X-5444685Y3955795D01*
X-11264814Y-12510843D02*
X-8412501Y-14570877D01*
X13068267Y5818368D02*
X11564897Y8402391D01*
X6001993Y-2672259D02*
X6416648Y-1363900D01*
X-2161707Y459485D02*
X-2200000Y0D01*
X-10627574Y-2258960D02*
X-9916536Y-4415126D01*
X10762965Y11953485D02*
X8037500Y13921359D01*
X4037307Y12425554D02*
X1364619Y12983484D01*
X-4125000Y7144710D02*
X-5513637Y6123514D01*
X8350000Y1D02*
X8157750Y1733984D01*
X-1363574Y12973539D02*
X-4028037Y12397022D01*
X3703568Y-11398412D02*
X5987500Y-10370654D01*
X9326637Y-1982437D02*
X9525000Y0D01*
X17625000Y1D02*
X17230069Y3662365D01*
X-2608104Y-8026916D02*
X-881175Y-8383819D01*
X-14301555Y-6367462D02*
X-12657071Y-9195900D01*
X-8112500Y-14051262D02*
X-5010711Y-15421381D01*
X13021128Y9460404D02*
X10762965Y11953485D01*
X-13789969Y6139690D02*
X-14755357Y3136348D01*
X4409570Y-4897324D02*
X5323331Y-3867626D01*
X-5687390Y4132131D02*
X-6413090Y2855292D01*
X3900000Y-6754998D02*
X5212527Y-5789098D01*
X1391509Y1010991D02*
X1144213Y1270778D01*
X-5460106Y-6064061D02*
X-4075000Y-7058107D01*
X-1075000Y-1861954D02*
X-661297Y-2035260D01*
X-14027491Y-6245441D02*
X-12414366Y-9019564D01*
X8809104Y-9783501D02*
X10642618Y-7732314D01*
X-1708518Y16255461D02*
X-5047793Y15535509D01*
X-5012500Y8681905D02*
X-6701344Y7442596D01*
X2561750Y7884259D02*
X865495Y8234642D01*
X-12994691Y2762107D02*
X-13275000Y0D01*
X1786914Y-17001351D02*
X5279555Y-16248800D01*
X10187407Y2165401D02*
X9505440Y4232095D01*
X-13385187Y-9724906D02*
X-11064075Y-12287899D01*
X5687500Y-9851038D02*
X7604669Y-8445840D01*
X758242Y337592D02*
X663393Y481984D01*
X4964358Y15278723D02*
X1678204Y15967050D01*
X15260776Y6794536D02*
X13506538Y9813075D01*
X-621211Y-276580D02*
X-542042Y-393816D01*
X5487499Y9504629D02*
X3388371Y10428335D01*
X4408127Y13566822D02*
X1490053Y14176910D01*
X-294418Y326984D02*
X-347878Y252748D01*
X2098225Y6457674D02*
X708702Y6742859D01*
X5359736Y5952591D02*
X4000000Y6928204D01*
X1263879Y3889822D02*
X426476Y4057650D01*
X-7802969Y-5669188D02*
X-6447074Y-7160200D01*
X-5112158Y5677627D02*
X-6172800Y4484802D01*
X-968367Y-205832D02*
X-895275Y-398601D01*
X12778423Y9284069D02*
X10562226Y11730542D01*
X-1681053Y-5173747D02*
X-567590Y-5400253D01*
X-3775001Y-6538491D02*
X-2329989Y-7170966D01*
X-285363Y-2715044D02*
X284317Y-2705099D01*
X-14404548Y10465517D02*
X-16256542Y7237879D01*
X660619Y-6285378D02*
X1949897Y-6001166D01*
X-11492087Y8349490D02*
X-12967778Y5773627D01*
X1598762Y-15211212D02*
X4723324Y-14536898D01*
X10480851Y2227774D02*
X9779504Y4354116D01*
X-3075001Y5326057D02*
X-4108462Y4562910D01*
X3388371Y10428335D02*
X1145109Y10894988D01*
X802778Y7637929D02*
X-801734Y7627983D01*
X566544Y-5390308D02*
X1671781Y-5145215D01*
X12828405Y2726762D02*
X11972013Y5330284D01*
X-698379Y2149388D02*
X-1125000Y1948558D01*
X-525000Y909327D02*
X-695896Y772871D01*
X-787100Y-7488749D02*
X786054Y-7478804D01*
X-3042040Y646606D02*
X-3100000Y0D01*
X-299337Y-217480D02*
X-240888Y-267532D01*
X-6856815Y1457461D02*
X-7000000Y0D01*
X750000Y-1299038D02*
X997004Y-1107285D01*
X5787500Y10024245D02*
X3573781Y10998969D01*
X4811049Y-5343211D02*
X5808742Y-4220298D01*
X-694485Y147618D02*
X-700000Y0D01*
X-8562501Y-14830685D02*
X-5288826Y-16277332D01*
X7883869Y-1675768D02*
X8050000Y1D01*
X-441627Y-490475D02*
X-325000Y-562916D01*
X3224815Y1435781D02*
X2847739Y2069005D01*
X8895141Y6462699D02*
X7350399Y8163446D01*
X-475887Y-1464627D02*
X-159929Y-1521618D01*
X-3017634Y2192439D02*
X-3398390Y1513061D01*
X-2904027Y3225249D02*
X-3503044Y2545111D01*
X-12931236Y-5757357D02*
X-11443546Y-8314222D01*
X-12109046Y-5391294D02*
X-10715431Y-7785215D01*
X-5010711Y-15421381D02*
X-1693884Y-16116227D01*
X-3672453Y1635082D02*
X-3922372Y833726D01*
X3240043Y-9971827D02*
X5237499Y-9071616D01*
X-542042Y-393816D02*
X-441627Y-490475D01*
X-1018630Y9691616D02*
X-3008281Y9258536D01*
X50173Y477371D02*
X-49129Y467426D01*
X-4639891Y-14280113D02*
X-1568450Y-14922801D01*
X10615757Y-11789992D02*
X12826964Y-9319335D01*
X395117Y3759293D02*
X-394073Y3749348D01*
X-5976482Y1270341D02*
X-6100000Y0D01*
X-6900915Y5013809D02*
X-7783408Y3465397D01*
X1671781Y-5145215D02*
X2700000Y-4676537D01*
X15488967Y-3292281D02*
X15825000Y0D01*
X96166Y-914960D02*
X281205Y-865461D01*
X-240888Y-267532D02*
X-175000Y-303108D01*
X-10461858Y-11619069D02*
X-7812501Y-13531646D01*
X4109806Y-2985949D02*
X4631675Y-2062154D01*
X-1075993Y781755D02*
X-1205881Y536893D01*
X-14356007Y-10430249D02*
X-11867032Y-13179673D01*
X2165102Y-963965D02*
X2308428Y-490671D01*
X10601695Y4720179D02*
X9380552Y6815371D01*
X-11443546Y-8314222D02*
X-9458162Y-10504352D01*
X-10647137Y2263119D02*
X-10875000Y0D01*
X-1882035Y-17906366D02*
X1880989Y-17896421D01*
X8956313Y9946994D02*
X6687499Y11583090D01*
X1395977Y13281840D02*
X-1394933Y13271895D01*
X8458272Y-6145294D02*
X9541982Y-4248364D01*
X3352344Y3723156D02*
X2500000Y4330128D01*
X-10916866Y12124408D02*
X-13191023Y9583839D01*
X-8312501Y14397673D02*
X-11117606Y12347352D01*
X9505440Y4232095D02*
X8409731Y6110028D01*
X1772280Y16862119D02*
X-1771235Y16852174D01*
X17816958Y3787112D02*
X16631095Y7404641D01*
X-3375001Y5845672D02*
X-4509941Y5008797D01*
X-347148Y-154559D02*
X-299337Y-217480D01*
X-1903545Y5858509D02*
X-3075001Y5326057D01*
X8153356Y9055220D02*
X6087499Y10543860D01*
X12246076Y5452305D02*
X10836782Y7873384D01*
X-1900331Y2110532D02*
X-2289519Y1663433D01*
X-420264Y1293437D02*
X-675000Y1169135D01*
X-2459776Y7570410D02*
X-3975001Y6884902D01*
X-1489008Y14166965D02*
X-4398857Y13538290D01*
X-1275000Y2208365D02*
X-1699592Y1887588D01*
X1191101Y-11332576D02*
X3518158Y-10827778D01*
X-10314649Y11455578D02*
X-12462907Y9054832D01*
X3450000Y-5975575D02*
X4610309Y-5120267D01*
X1709563Y16265406D02*
X-1708518Y16255461D01*
X-5604024Y17247410D02*
X-9062501Y15696711D01*
X-1317582Y-12535948D02*
X1316535Y-12526003D01*
X11948072Y2539642D02*
X11149822Y4964221D01*
X-7651509Y-8497861D02*
X-5712501Y-9894340D01*
X-1717466Y-764664D02*
X-1512862Y-1099158D01*
X-14168468Y3011601D02*
X-14475000Y0D01*
X-3305506Y3671136D02*
X-3988454Y2897782D01*
X7187500Y-12449115D02*
X9612061Y-10675275D01*
X2653575Y-1927935D02*
X2987293Y-1330028D01*
X943474Y1047835D02*
X700000Y1212436D01*
X6400234Y-7108180D02*
X7730157Y-5616288D01*
X2168165Y-1575264D02*
X2439166Y-1085986D01*
X-7900000Y0D02*
X-7717585Y-1640423D01*
X-347878Y252748D02*
X-383690Y170830D01*
X11418713Y-12681766D02*
X13797784Y-10024677D01*
X2605034Y1892669D02*
X2147909Y2385495D01*
X-15675000Y0D02*
X-15322683Y-3256936D01*
X-425431Y4047705D02*
X-1254609Y3861290D01*
X4958257Y5506704D02*
X3700000Y6408588D01*
X11380747Y-2419052D02*
X11625000Y1D01*
X10885323Y-7908650D02*
X12282618Y-5468574D01*
X244123Y751335D02*
X81532Y775728D01*
X10160748Y11284655D02*
X7587499Y13141936D01*
X-11977497Y8702161D02*
X-13515906Y6017669D01*
X-8336921Y6057128D02*
X-9404951Y4187354D01*
X5350000Y0D02*
X5223308Y1110249D01*
X2649999Y4589935D02*
X1634699Y5031089D01*
X-17102911Y3635336D02*
X-17475000Y0D01*
X-4275001Y7404518D02*
X-5714376Y6346457D01*
X-4732596Y-14565430D02*
X-1599809Y-15221157D01*
X-1868262Y397112D02*
X-1900000Y0D01*
X-3452714Y-3834627D02*
X-2575000Y-4460030D01*
X3888978Y-11969046D02*
X6287499Y-10890269D01*
X-348080Y-3311757D02*
X347034Y-3301812D01*
X409751Y-3898525D02*
X1208256Y-3718630D01*
X-14175000Y0D02*
X-13855461Y-2945069D01*
X-1281374Y272365D02*
X-1300000Y0D01*
X2439166Y-1085986D02*
X2601872Y-553045D01*
X-5566942Y-17133283D02*
X-1882035Y-17906366D01*
X5536315Y-1176780D02*
X5650000Y1D01*
X-7424141Y-1578049D02*
X-6924675Y-3083063D01*
X6687499Y11583090D02*
X4130012Y12710871D01*
X1545691Y1716665D02*
X1150000Y1991859D01*
X-755741Y-7190393D02*
X754695Y-7180448D01*
X2100000Y-3637306D02*
X2803657Y-3113776D01*
X9620081Y-2044811D02*
X9825000Y1D01*
X-80487Y765782D02*
X-234853Y722803D01*
X1682755Y-1222593D02*
X1891039Y-841944D01*
X850000Y1472244D02*
X522238Y1607286D01*
X-2144578Y-6600332D02*
X-724383Y-6892036D01*
X-12075000Y1D02*
X-11801351Y-2508454D01*
X4787500Y-8292193D02*
X6400234Y-7108180D01*
X1891039Y-841944D02*
X2014984Y-428298D01*
X5614005Y-6234985D02*
X6779562Y-4925640D01*
X7296981Y-1551021D02*
X7450000Y1D01*
X15225000Y0D02*
X14882515Y3163377D01*
X11322192Y8226055D02*
X9357791Y10392881D01*
X-582224Y5539487D02*
X-1718135Y5287875D01*
X786054Y-7478804D02*
X2320717Y-7142434D01*
X1207826Y11491701D02*
X-1206782Y11481756D01*
X12584259Y-9142999D02*
X14201064Y-6322721D01*
X175607Y1670797D02*
X-174563Y1660852D01*
X2500000Y4330128D02*
X1541994Y4745773D01*
X4816029Y-14822215D02*
X7787500Y-13488345D01*
X8237500Y-14267768D02*
X11017235Y-12235879D01*
X9759269Y10838768D02*
X7287499Y12622321D01*
X-1568450Y-14922801D02*
X1567404Y-14912855D01*
X13652936Y-6078679D02*
X14608634Y-3105161D01*
X12520140Y5574326D02*
X11079487Y8049720D01*
X-6124259Y-4449534D02*
X-5058628Y-5618174D01*
X8700977Y-6321630D02*
X9816045Y-4370385D01*
X-4802705Y1020847D02*
X-4900000Y0D01*
X15808904Y7038578D02*
X13991948Y10165746D01*
X14882515Y3163377D02*
X13890458Y6184431D01*
X-6012500Y-10413955D02*
X-3712840Y-11426944D01*
X10836782Y7873384D02*
X8956313Y9946994D01*
X-14775000Y0D02*
X-14442350Y-3069816D01*
X5057063Y15564040D02*
X1709563Y16265406D01*
X-7504300Y8334370D02*
X-9065036Y6586134D01*
X-6962500Y12059404D02*
X-9310953Y10340861D01*
X8637500Y14960589D02*
X5335178Y16419991D01*
X9231376Y4110074D02*
X8167026Y5933693D01*
X10206970Y-2169558D02*
X10425000Y1D01*
X5413266Y-6012041D02*
X6536857Y-4749304D01*
X16075855Y-3417028D02*
X16425000Y0D01*
X-5389594Y1145594D02*
X-5500000Y0D01*
X-4176365Y-12853528D02*
X-1411657Y-13431018D01*
X466615Y-1436095D02*
X750000Y-1299038D01*
X12556682Y-5590595D02*
X13434857Y-2855667D01*
X-1348940Y-12834305D02*
X1347894Y-12824359D01*
X13121850Y2789136D02*
X12246076Y5452305D01*
X-15397809Y-6855546D02*
X-13627892Y-9901242D01*
X-8200000Y0D02*
X-8011029Y-1702796D01*
X-17376793Y-3693551D02*
X-16220000Y-7221609D01*
X-9675000Y0D02*
X-9453797Y-2009466D01*
X8050000Y1D02*
X7864306Y1671610D01*
X1678204Y15967050D02*
X-1677160Y15957104D01*
X-3325000Y-5759068D02*
X-2051873Y-6315015D01*
X-12094796Y-2570828D02*
X-11286855Y-5025231D01*
X-11507907Y-2446081D02*
X-10738727Y-4781189D01*
X5691388Y2533970D02*
X5032085Y3656025D01*
X796265Y-884342D02*
X954640Y-693586D01*
X-13875024Y2949228D02*
X-14175000Y0D01*
X4929863Y1047875D02*
X4595133Y2045886D01*
X11017235Y-12235879D02*
X13312374Y-9672006D01*
X-2813721Y-1252748D02*
X-2483683Y-1804500D01*
X-11686251Y-8490557D02*
X-9658901Y-10727295D01*
X-15975000Y0D02*
X-15616127Y-3319310D01*
X4000000Y6928204D02*
X2469045Y7598942D01*
X11186364Y-4980490D02*
X11967635Y-2543799D01*
X-4716570Y3426789D02*
X-5316835Y2367208D01*
X-3620135Y-11141627D02*
X-1223506Y-11640878D01*
X-3193691Y9829170D02*
X-5162501Y8941713D01*
X4869197Y2167907D02*
X4303970Y3127018D01*
X-2289519Y1663433D02*
X-2576199Y1146998D01*
X-9404951Y4187354D02*
X-10060249Y2138372D01*
X-6212501Y10760366D02*
X-8307257Y9226144D01*
X-1270157Y-922822D02*
X-1043844Y-1159305D01*
X1082392Y10298275D02*
X-1081347Y10288330D01*
X1171174Y3604505D02*
X395117Y3759293D01*
X2199999Y3810512D02*
X1356584Y4175139D01*
X7604669Y-8445840D02*
X9186387Y-6674301D01*
X6737500Y-11669692D02*
X9009843Y-10006445D01*
X1646845Y15668693D02*
X-1645801Y15658748D01*
X12050308Y8755062D02*
X9960009Y11061711D01*
X-8094216Y5880792D02*
X-9130887Y4065333D01*
X9186387Y-6674301D02*
X10364173Y-4614427D01*
X-770375Y7329627D02*
X-2274366Y6999776D01*
X11619452Y-12904709D02*
X14040489Y-10201013D01*
X190241Y-1810029D02*
X559320Y-1721412D01*
X-5444685Y3955795D02*
X-6139026Y2733271D01*
X9893962Y2103027D02*
X9231376Y4110074D01*
X-1614443Y15360391D02*
X-4769678Y14679558D01*
X-598949Y-5698610D02*
X597902Y-5688665D01*
X4595133Y2045886D02*
X4061265Y2950682D01*
X11967635Y-2543799D02*
X12225000Y1D01*
X-254005Y-2416688D02*
X252958Y-2406742D01*
X-833288Y605419D02*
X-931817Y414872D01*
X420688Y305649D02*
X341256Y379004D01*
X15175960Y3225750D02*
X14164522Y6306452D01*
X3300000Y-5715767D02*
X4409570Y-4897324D01*
X-1375000Y-2381569D02*
X-846707Y-2605894D01*
X-1112706Y10586686D02*
X-3286396Y10114487D01*
X-4182618Y-3038849D02*
X-3452714Y-3834627D01*
X6239515Y2778012D02*
X5517495Y4008696D01*
X-1175423Y11183399D02*
X-3471806Y10685120D01*
X-1069199Y3290656D02*
X-1725001Y2987788D01*
X1441970Y-13719429D02*
X4259799Y-13110314D01*
X-5112500Y-8855109D02*
X-3156609Y-9715042D01*
X-2625001Y4546634D02*
X-3506245Y3894079D01*
X3850000Y1D02*
X3756086Y798381D01*
X-567590Y-5400253D02*
X566544Y-5390308D01*
X-3475000Y-6018876D02*
X-2144578Y-6600332D01*
X-8500000Y1D02*
X-8304474Y-1765170D01*
X-8855944Y-9835521D02*
X-6612500Y-11453185D01*
X-1380299Y-13132661D02*
X1379253Y-13122716D01*
X2602918Y-2890833D02*
X3138985Y-2280606D01*
X1912815Y5887040D02*
X645985Y6146146D01*
X-7198739Y-3205084D02*
X-6366964Y-4625869D01*
X3205135Y-3559663D02*
X3867101Y-2809613D01*
X-10113910Y11232635D02*
X-12220202Y8878497D01*
X-2422694Y-7456283D02*
X-818458Y-7787106D01*
X8451195Y1796358D02*
X7883897Y3510138D01*
X-10940581Y2325493D02*
X-11175000Y0D01*
X-1426291Y13570252D02*
X-4213447Y12967656D01*
X-11519084Y12793239D02*
X-13919138Y10112846D01*
X11564897Y8402391D02*
X9558530Y10615824D01*
X-12121301Y13462069D02*
X-14647253Y10641852D01*
X-11871524Y5285543D02*
X-12701247Y2699734D01*
X-6700000Y0D02*
X-6543808Y-1390929D01*
X127524Y-1213316D02*
X373910Y-1150778D01*
X2847739Y2069005D02*
X2348648Y2608439D01*
X-1804108Y1310762D02*
X-2028071Y902956D01*
X-3988454Y2897782D02*
X-4494644Y2001145D01*
X2128560Y947697D02*
X1876919Y1363662D01*
X4556779Y5060817D02*
X3400000Y5888973D01*
X-9110214Y10117917D02*
X-11006677Y7996819D01*
X-2748595Y584232D02*
X-2800000Y0D01*
X13616395Y6062410D02*
X12050308Y8755062D01*
X3000000Y-5196152D02*
X4008092Y-4451437D01*
X8387500Y-14527576D02*
X11217974Y-12458822D01*
X-4959275Y3603124D02*
X-5590899Y2489229D01*
X8937499Y15480205D02*
X5520588Y16990625D01*
X-3745749Y2721446D02*
X-4220581Y1879124D01*
X-4215817Y896100D02*
X-4300000Y0D01*
X-895809Y8523053D02*
X-2645186Y8141044D01*
X1427336Y13580197D02*
X-1426291Y13570252D01*
X-1959168Y-6029698D02*
X-661666Y-6295323D01*
X-987930Y209991D02*
X-1000000Y0D01*
X-11719823Y13016182D02*
X-14161843Y10289181D01*
X11149822Y4964221D02*
X9865962Y7168042D01*
X-14598712Y-10606584D02*
X-12067771Y-13402616D01*
X64807Y-616603D02*
X188500Y-580144D01*
X9600518Y2040654D02*
X8957313Y3988053D01*
X-2850262Y1269019D02*
X-3042040Y646606D01*
X5337500Y9244822D02*
X3295666Y10143018D01*
X-8912501Y15436903D02*
X-11920562Y13239126D01*
X-5201980Y3779460D02*
X-5864962Y2611250D01*
X2402178Y-2667889D02*
X2896280Y-2104271D01*
X7887499Y13661551D02*
X4871652Y14993406D01*
X-4075000Y-7058107D02*
X-2515399Y-7741600D01*
X2135307Y-6571800D02*
X3450000Y-5975575D01*
X528199Y112273D02*
X484179Y215571D01*
X-5325908Y16391460D02*
X-8612501Y14917288D01*
X284317Y-2705099D02*
X837436Y-2577363D01*
X-512969Y1578754D02*
X-825000Y1428942D01*
X5179802Y-2306196D02*
X5536315Y-1176780D01*
X-5196121Y-15992015D02*
X-1756601Y-16712940D01*
X10562226Y11730542D02*
X7887499Y13661551D01*
X-1192148Y-11342522D02*
X1191101Y-11332576D01*
X691978Y-6583734D02*
X2042602Y-6286483D01*
X850000Y0D02*
X821643Y174646D01*
X-3063904Y-9429725D02*
X-1035355Y-9850739D01*
X-4309202Y4785853D02*
X-5201980Y3779460D01*
X11697949Y5208263D02*
X10351372Y7520713D01*
X-9679015Y4309375D02*
X-10353693Y2200746D01*
X-6100000Y0D02*
X-5956919Y-1266182D01*
X-2275000Y-3940415D02*
X-1402938Y-4317796D01*
X-2181660Y6714460D02*
X-3525000Y6105480D01*
X-3400000Y0D02*
X-3315921Y-704820D01*
X9812800Y-10898218D02*
X11856144Y-8613992D01*
X5516752Y1172622D02*
X5143260Y2289928D01*
X9779504Y4354116D02*
X8652436Y6286364D01*
X15845445Y-7054847D02*
X16956188Y-3604149D01*
X-5096149Y1083220D02*
X-5200000Y0D01*
X-8773790Y-6374531D02*
X-7250031Y-8051974D01*
X5760200Y4185031D02*
X4757518Y5283760D01*
X3849999Y6668396D02*
X2376340Y7313625D01*
X-1583084Y15062035D02*
X-4676973Y14394241D01*
X-1411657Y-13431018D02*
X1410611Y-13421072D01*
X-5418613Y16676777D02*
X-8762500Y15177096D01*
X6397085Y1359743D02*
X5965451Y2655991D01*
X-5562500Y-9634532D02*
X-3434724Y-10570993D01*
X-15909571Y-3381683D02*
X-14849682Y-6611504D01*
X1541994Y4745773D02*
X520551Y4952720D01*
X1701976Y361767D02*
X1580433Y703655D01*
X-8162500Y14137865D02*
X-10916866Y12124408D01*
X429533Y1321969D02*
X144249Y1372441D01*
X11972013Y5330284D02*
X10594077Y7697048D01*
X7646375Y-3404385D02*
X8177313Y-1738141D01*
X-3022477Y-642447D02*
X-2813721Y-1252748D01*
X16936625Y3599991D02*
X15808904Y7038578D01*
X5011788Y-5566154D02*
X6051447Y-4396633D01*
X4450000Y1D02*
X4342975Y923128D01*
X4049999Y-7014805D02*
X5413266Y-6012041D01*
X-5312898Y5900570D02*
X-6415505Y4661138D01*
X-2649758Y-2942853D02*
X-1975000Y-3420800D01*
X-2850497Y-3165796D02*
X-2125000Y-3680607D01*
X-10040686Y-2134213D02*
X-9368409Y-4171084D01*
X3090444Y2245340D02*
X2549387Y2831382D01*
X1800000Y-3117691D02*
X2402178Y-2667889D01*
X-4456410Y-4949344D02*
X-3325000Y-5759068D01*
X17230069Y3662365D02*
X16082967Y7160599D01*
X-4600000Y0D02*
X-4489698Y-954314D01*
X677344Y6444502D02*
X-676300Y6434557D01*
X-2703288Y3002306D02*
X-3260339Y2368775D01*
X11423885Y5086242D02*
X10108667Y7344377D01*
X-5312500Y9201520D02*
X-7102822Y7888483D01*
X16119509Y-7176868D02*
X17249632Y-3666522D01*
X-2576199Y1146998D02*
X-2748595Y584232D01*
X2803657Y-3113776D02*
X3381691Y-2456942D01*
X906099Y658320D02*
X742734Y824891D01*
X-1286223Y-12237591D02*
X1285177Y-12227646D01*
X1440050Y-1046257D02*
X1616975Y-719923D01*
X-1244583Y-1382249D02*
X-925000Y-1602146D01*
X8719791Y-3882301D02*
X9326637Y-1982437D01*
X-13275000Y0D02*
X-12975128Y-2757948D01*
X-775000Y-1342339D02*
X-475887Y-1464627D01*
X11766661Y13068202D02*
X8787499Y15220397D01*
X-9310953Y10340861D02*
X-11249382Y8173154D01*
X5464965Y-16819434D02*
X8837500Y-15306999D01*
X-3700000Y1D02*
X-3609365Y-767194D01*
X6587499Y-11409884D02*
X8809104Y-9783501D01*
X-225000Y389712D02*
X-294418Y326984D01*
X-18075000Y1D02*
X-17670237Y-3755924D01*
X3606613Y-4005550D02*
X4352511Y-3162284D01*
X-11775000Y0D02*
X-11507907Y-2446081D01*
X-568592Y-1749943D02*
X-191288Y-1819975D01*
X-4398857Y13538290D02*
X-7112501Y12319212D01*
X-12388240Y-2633201D02*
X-11560918Y-5147252D01*
X-4458102Y-1984874D02*
X-3939913Y-2862514D01*
X6513579Y2900033D02*
X5760200Y4185031D01*
X11325000Y1D02*
X11067740Y2352521D01*
X13342331Y5940389D02*
X11807603Y8578726D01*
X-14148906Y-3007442D02*
X-13205300Y-5879378D01*
X-13205300Y-5879378D02*
X-11686251Y-8490557D01*
X1854497Y825676D02*
X1634214Y1187327D01*
X-13562017Y-2882695D02*
X-12657173Y-5635336D01*
X3295666Y10143018D02*
X1113750Y10596631D01*
X-1900000Y0D02*
X-1848699Y-392953D01*
X13434857Y-2855667D02*
X13725000Y1D01*
X14021745Y-2980414D02*
X14325000Y1D01*
X-8012501Y13878058D02*
X-10716127Y11901465D01*
X-10275000Y0D02*
X-10040686Y-2134213D01*
X7551138Y8386390D02*
X5637499Y9764437D01*
X1197345Y-869922D02*
X1342911Y-597902D01*
X378393Y-3600169D02*
X1115551Y-3433314D01*
X4837921Y-3514955D02*
X5453866Y-2428217D01*
X-5103416Y-15706698D02*
X-1725243Y-16414583D01*
X6287499Y-10890269D02*
X8407626Y-9337614D01*
X469229Y-340915D02*
X520720Y-231839D01*
X-7150259Y1519835D02*
X-7300000Y1D01*
X-8909475Y9894974D02*
X-10763972Y7820483D01*
X14589071Y3101003D02*
X13616395Y6062410D01*
X-11286855Y-5025231D02*
X-9987315Y-7256208D01*
X8687499Y-15047191D02*
X11619452Y-12904709D01*
X1270543Y12088414D02*
X-1269499Y12078469D01*
X6801712Y-7554067D02*
X8215567Y-5968959D01*
X-9953078Y4431396D02*
X-10647137Y2263119D01*
X3867101Y-2809613D02*
X4357611Y-1940133D01*
X1150000Y1991859D02*
X707648Y2177920D01*
X-10716127Y11901465D02*
X-12948317Y9407503D01*
X-17175000Y0D02*
X-16789904Y-3568804D01*
X-881175Y-8383819D02*
X880129Y-8373874D01*
X-1160789Y-11044165D02*
X1159743Y-11034220D01*
X14025000Y1D02*
X13708738Y2913883D01*
X-10575000Y0D02*
X-10334130Y-2196587D01*
X522238Y1607286D02*
X175607Y1670797D01*
X1285177Y-12227646D02*
X3796273Y-11683729D01*
X-590583Y429084D02*
X-657753Y292851D01*
X-15616127Y-3319310D02*
X-14575618Y-6489483D01*
X6416648Y-1363900D02*
X6550000Y0D01*
X-4184039Y-1862853D02*
X-3697208Y-2686178D01*
X6710092Y-1426274D02*
X6850000Y1D01*
X17025000Y0D02*
X16643181Y3537618D01*
X5279555Y-16248800D02*
X8537500Y-14787383D01*
X-2969093Y-2157171D02*
X-2449019Y-2719910D01*
X450000Y-779422D02*
X595526Y-661398D01*
X332400Y3162580D02*
X-331356Y3152635D01*
X841206Y-178804D02*
X850000Y0D01*
X14283195Y-10377348D02*
X16119509Y-7176868D01*
X17523514Y3724738D02*
X16357031Y7282620D01*
X1078469Y3319188D02*
X363759Y3460937D01*
X246657Y-109818D02*
X254318Y-54057D01*
X15782411Y-3354655D02*
X16125000Y1D01*
X5223308Y1110249D02*
X4869197Y2167907D01*
X17325000Y1D02*
X16936625Y3599991D01*
X1536045Y-14614499D02*
X4537914Y-13966264D01*
X520720Y-231839D02*
X547762Y-116430D01*
X-3635911Y-1618811D02*
X-3211798Y-2333507D01*
X-5162501Y8941713D02*
X-6902083Y7665539D01*
X457834Y4356006D02*
X-456790Y4346061D01*
X6973726Y5066709D02*
X5761214Y6398477D01*
X-676300Y6434557D02*
X-1996250Y6143826D01*
X-13581580Y2886854D02*
X-13875000Y0D01*
X-2500000Y0D02*
X-2435588Y-517700D01*
X-3854193Y-4280514D02*
X-2875000Y-4979646D01*
X-1318698Y958090D02*
X-1479944Y658914D01*
X-12693715Y5651606D02*
X-13581580Y2886854D01*
X2654455Y8169576D02*
X896854Y8532998D01*
X14040489Y-10201013D02*
X15845445Y-7054847D01*
X1727404Y5316406D02*
X583268Y5549433D01*
X-7562501Y13098635D02*
X-10113910Y11232635D01*
X595526Y-661398D02*
X711934Y-517251D01*
X-519507Y4942774D02*
X-1532725Y4717241D01*
X-707658Y6732914D02*
X-2088955Y6429143D01*
X5242871Y-1114406D02*
X5350000Y0D01*
X-2265593Y-1008706D02*
X-1998272Y-1451829D01*
X-7737148Y1644582D02*
X-7900000Y0D01*
X-6662500Y11539789D02*
X-8909475Y9894974D01*
X-2552481Y7855727D02*
X-4125000Y7144710D01*
X11460427Y-5102511D02*
X12261080Y-2606173D01*
X-9012500Y-15610107D02*
X-5566942Y-17133283D01*
X-1833952Y17448887D02*
X-5418613Y16676777D01*
X-11012791Y-4903210D02*
X-9744610Y-7079873D01*
X1947170Y2162552D02*
X1450000Y2511474D01*
X3138985Y-2280606D02*
X3535420Y-1574070D01*
X8087500Y-14007960D02*
X10816496Y-12012936D01*
X-4489698Y-954314D02*
X-4184039Y-1862853D01*
X-12657071Y-9195900D02*
X-10461858Y-11619069D01*
X-4657150Y-5172287D02*
X-3475000Y-6018876D01*
X-9257422Y-10281408D02*
X-6912500Y-11972801D01*
X-6912500Y-11972801D02*
X-4269070Y-13138845D01*
X-5956919Y-1266182D02*
X-5554357Y-2472958D01*
X10108667Y7344377D02*
X8354095Y9278164D01*
X8755573Y9724051D02*
X6537499Y11323283D01*
X-11801351Y-2508454D02*
X-11012791Y-4903210D01*
X-8822331Y6409799D02*
X-9953078Y4431396D01*
X1333260Y12685127D02*
X-1332216Y12675182D01*
X158883Y-1511673D02*
X466615Y-1436095D01*
X-1810840Y5573192D02*
X-2925001Y5066249D01*
X441110Y-4196882D02*
X1300961Y-4003947D01*
X17925000Y1D02*
X17523514Y3724738D01*
X900000Y-1558845D02*
X1197743Y-1330229D01*
X6983973Y1484490D02*
X6513579Y2900033D01*
X2550000Y-4416729D02*
X3405874Y-3782607D01*
X-7717585Y-1640423D02*
X-7198739Y-3205084D01*
X1350000Y-2338268D02*
X1799961Y-1999059D01*
X2582309Y548887D02*
X2402624Y1069718D01*
X252958Y-2406742D02*
X744730Y-2292046D01*
X-1402938Y-4317796D02*
X-473514Y-4505184D01*
X14438585Y6428473D02*
X12778423Y9284069D01*
X-12975128Y-2757948D02*
X-12109046Y-5391294D01*
X-9307741Y6762470D02*
X-10501206Y4675438D01*
X14925000Y1D02*
X14589071Y3101003D01*
X-1561403Y1134426D02*
X-1754008Y780935D01*
X-11465553Y-12733786D02*
X-8562501Y-14830685D01*
X7570862Y1609237D02*
X7061706Y3144075D01*
X4357611Y-1940133D02*
X4655982Y-989659D01*
X1176467Y11193344D02*
X-1175423Y11183399D01*
X7737499Y13401744D02*
X4778947Y14708090D01*
X-2875000Y-4979646D02*
X-1773758Y-5459064D01*
X-642366Y-713419D02*
X-475000Y-822724D01*
X-97212Y-924905D02*
X96166Y-914960D01*
X-4473864Y3250453D02*
X-5042771Y2245187D01*
X1068848Y-475881D02*
X1134651Y-241177D01*
X-3087784Y-1374769D02*
X-2726388Y-1980836D01*
X-3175001Y-5499261D02*
X-1959168Y-6029698D01*
X-12681684Y-2695575D02*
X-11834982Y-5269273D01*
X4871652Y14993406D02*
X1646845Y15668693D01*
X13312374Y-9672006D02*
X15023255Y-6688784D01*
X-9511692Y10563804D02*
X-11492087Y8349490D01*
X-8531085Y-6198195D02*
X-7049291Y-7829030D01*
X11856144Y-8613992D02*
X13378873Y-5956658D01*
X7787500Y-13488345D02*
X10415017Y-11567049D01*
X9380552Y6815371D02*
X7751878Y8609333D01*
X16125000Y1D02*
X15762848Y3350497D01*
X-9501905Y-6903537D02*
X-7852248Y-8720804D01*
X5557670Y-17104751D02*
X8987500Y-15566806D01*
X-1802594Y17150531D02*
X-5325908Y16391460D01*
X-331356Y3152635D02*
X-976494Y3005339D01*
X4445209Y-13680947D02*
X7187500Y-12449115D01*
X-14461913Y3073975D02*
X-14775000Y0D01*
X-3249314Y-10000359D02*
X-1098072Y-10447452D01*
X1600000Y2771282D02*
X985764Y3033871D01*
X10963704Y12176428D02*
X8187499Y14181166D01*
X-15434351Y6871816D02*
X-16516023Y3510589D01*
X1050000Y-1818653D02*
X1398482Y-1553172D01*
X520551Y4952720D02*
X-519507Y4942774D01*
X11625000Y1D02*
X11361184Y2414895D01*
X-6366964Y-4625869D02*
X-5259367Y-5841118D01*
X834137Y7936285D02*
X-833092Y7926340D01*
X-2047540Y-2274023D02*
X-1525000Y-2641377D01*
X-864451Y8224697D02*
X-2552481Y7855727D01*
X-5288826Y-16277332D02*
X-1787960Y-17011297D01*
X-1474374Y-14027731D02*
X1473328Y-14017786D01*
X4049531Y860755D02*
X3772942Y1679823D01*
X-7962500Y-13791454D02*
X-4918006Y-15136064D01*
X-9065036Y6586134D02*
X-10227142Y4553417D01*
X-1261811Y-268206D02*
X-1169339Y-520622D01*
X-7102822Y7888483D02*
X-8579626Y6233463D01*
X15023255Y-6688784D02*
X16075855Y-3417028D01*
X-846707Y-2605894D02*
X-285363Y-2715044D01*
X1721539Y-365924D02*
X1750000Y0D01*
X-8288380Y-6021859D02*
X-6848552Y-7606087D01*
X-9859640Y-10950239D02*
X-7362500Y-12752224D01*
X8987500Y-15566806D02*
X12020931Y-13350596D01*
X-11234026Y2387866D02*
X-11475000Y0D01*
X-11834982Y-5269273D02*
X-10472725Y-7608880D01*
X3700000Y6408588D02*
X2283635Y7028308D01*
X-605674Y1864071D02*
X-975000Y1688750D01*
X837436Y-2577363D02*
X1350000Y-2338268D01*
X2288865Y486514D02*
X2128560Y947697D01*
X3535420Y-1574070D02*
X3775649Y-802539D01*
X954640Y-693586D02*
X1068848Y-475881D01*
X-1718135Y5287875D02*
X-2775000Y4806441D01*
X-8304474Y-1765170D02*
X-7746866Y-3449126D01*
X-739017Y7031270D02*
X-2181660Y6714460D01*
X3851896Y11854920D02*
X1301902Y12386771D01*
X7730157Y-5616288D02*
X8719791Y-3882301D01*
X3400000Y5888973D02*
X2098225Y6457674D01*
X2950000Y0D02*
X2875753Y611261D01*
X-6512501Y11279981D02*
X-8708735Y9672030D01*
X645985Y6146146D02*
X-644941Y6136201D01*
X8187499Y14181166D02*
X5057063Y15564040D01*
X-1520367Y14465321D02*
X-4491563Y13823607D01*
X-3156609Y-9715042D02*
X-1066713Y-10149095D01*
X14625000Y0D02*
X14295627Y3038630D01*
X-10035856Y7291477D02*
X-11323396Y5041501D01*
X1450000Y2511474D02*
X893059Y2748554D01*
X6748182Y7494616D02*
X5037500Y8725206D01*
X-895275Y-398601D02*
X-784747Y-570151D01*
X-6500604Y7219652D02*
X-7851510Y5704456D01*
X-4196254Y-891941D02*
X-3909975Y-1740832D01*
X-4584268Y14108924D02*
X-7412501Y12838827D01*
X11370733Y-8261321D02*
X12830745Y-5712616D01*
X535185Y-5091952D02*
X1579076Y-4859898D01*
X-3625000Y-6278684D02*
X-2237284Y-6885649D01*
X4130012Y12710871D02*
X1395977Y13281840D01*
X5810196Y1234996D02*
X5417324Y2411949D01*
X-15708415Y6993837D02*
X-16809467Y3572963D01*
X5274790Y3832360D02*
X4356040Y4837873D01*
X2042602Y-6286483D02*
X3300000Y-5715767D01*
X1200000Y-2078460D02*
X1599222Y-1776116D01*
X-3805545Y-11712260D02*
X-1286223Y-12237591D01*
X3188761Y-677792D02*
X3250000Y1D01*
X-1575001Y2727981D02*
X-2101071Y2333475D01*
X1356584Y4175139D02*
X457834Y4356006D01*
X-375000Y649520D02*
X-495157Y549928D01*
X10725000Y1D02*
X10480851Y2227774D01*
X-4668029Y-3391520D02*
X-3854193Y-4280514D01*
X-12975000Y1D02*
X-12681684Y-2695575D01*
X-111846Y1064139D02*
X-327559Y1008120D01*
X13728301Y-2918040D02*
X14025000Y1D01*
X-4425323Y-3215185D02*
X-3653454Y-4057570D01*
X-10472725Y-7608880D02*
X-8655205Y-9612578D01*
X-14161843Y10289181D02*
X-15982478Y7115858D01*
X7150000Y0D02*
X6983973Y1484490D01*
X5427883Y16705308D02*
X1834997Y17458832D01*
X-6162500Y-10673763D02*
X-3805545Y-11712260D01*
X1342911Y-597902D02*
X1428095Y-303551D01*
X4200000Y-7274613D02*
X5614005Y-6234985D01*
X-1848699Y-392953D02*
X-1717466Y-764664D01*
X-9056683Y-10058465D02*
X-6762501Y-11712993D01*
X4593537Y14137456D02*
X1552770Y14773623D01*
X-7712501Y13358442D02*
X-10314649Y11455578D01*
X11734491Y-5224532D02*
X12554524Y-2668546D01*
X10638236Y-4736448D02*
X11380747Y-2419052D01*
X2469045Y7598942D02*
X834137Y7936285D01*
X5965451Y2655991D02*
X5274790Y3832360D01*
X-15945936Y-7099588D02*
X-14113302Y-10253913D01*
X-6852374Y-4978541D02*
X-5660845Y-6287005D01*
X-2774929Y2016104D02*
X-3124326Y1391040D01*
X-7512500Y-13012031D02*
X-4639891Y-14280113D01*
X-1205881Y536893D02*
X-1281374Y272365D01*
X-14475000Y0D02*
X-14148906Y-3007442D01*
X4778947Y14708090D02*
X1615487Y15370336D01*
X-410797Y-3908471D02*
X409751Y-3898525D01*
X-8712500Y-15090492D02*
X-5381531Y-16562649D01*
X16725000Y1D02*
X16349737Y3475244D01*
X-1097375Y1218758D02*
X-1318698Y958090D01*
X-2240978Y-1628165D02*
X-1846801Y-2051079D01*
X5808742Y-4220298D02*
X6550120Y-2916301D01*
X2949999Y5109550D02*
X1820110Y5601723D01*
X-10501206Y4675438D02*
X-11234026Y2387866D01*
X11925000Y1D02*
X11654628Y2477268D01*
X8177313Y-1738141D02*
X8350000Y1D01*
X6824184Y-3038322D02*
X7296981Y-1551021D01*
X1750000Y0D02*
X1701976Y361767D01*
X1134651Y-241177D02*
X1150000Y0D01*
X3756086Y798381D02*
X3498879Y1557802D01*
X6547442Y7271673D02*
X4887500Y8465399D01*
X-222646Y-2118331D02*
X221600Y-2108386D01*
X3110256Y9572384D02*
X1051033Y9999918D01*
X-142148Y437486D02*
X-225000Y389712D01*
X-2237284Y-6885649D02*
X-755741Y-7190393D01*
X6837499Y11842898D02*
X4222717Y12996188D01*
X3954561Y4391986D02*
X2949999Y5109550D01*
X-7443704Y1582208D02*
X-7600000Y0D01*
X3600000Y-6235382D02*
X4811049Y-5343211D01*
X2950751Y1313760D02*
X2605034Y1892669D01*
X-6687153Y2977313D02*
X-7150259Y1519835D01*
X7937500Y-13748153D02*
X10615757Y-11789992D01*
X-7746866Y-3449126D02*
X-6852374Y-4978541D01*
X-3657217Y11255754D02*
X-5912500Y10240751D01*
X-6609669Y-4802205D02*
X-5460106Y-6064061D01*
X10327631Y4598158D02*
X9137846Y6639035D01*
X-7905779Y8780257D02*
X-9550446Y6938805D01*
X-12414366Y-9019564D02*
X-10261118Y-11396125D01*
X-1725001Y2987788D02*
X-2301810Y2556419D01*
X12020931Y-13350596D02*
X14525900Y-10553684D01*
X-16494064Y-7343630D02*
X-14598712Y-10606584D01*
X3518158Y-10827778D02*
X5687500Y-9851038D01*
X6123203Y-1301527D02*
X6250000Y1D01*
X-3990955Y-12282894D02*
X-1348940Y-12834305D01*
X1410611Y-13421072D02*
X4167094Y-12824997D01*
X2549387Y2831382D02*
X1899999Y3290897D01*
X1897714Y18055546D02*
X-1896669Y18045600D01*
X-49129Y467426D02*
X-142148Y437486D01*
X12241517Y2602015D02*
X11423885Y5086242D01*
X-495157Y549928D02*
X-590583Y429084D01*
X-473514Y-4505184D02*
X472468Y-4495238D01*
X-4825301Y-14850747D02*
X-1631167Y-15519514D01*
X3202961Y9857701D02*
X1082392Y10298275D01*
X14234654Y10342082D02*
X11766661Y13068202D01*
X1449289Y4460456D02*
X489193Y4654363D01*
X-8045675Y-5845524D02*
X-6647813Y-7383143D01*
X4610309Y-5120267D02*
X5566036Y-4043962D01*
X723336Y-6882091D02*
X2135307Y-6571800D01*
X-15029238Y-3194563D02*
X-14027491Y-6245441D01*
X-12145587Y5407564D02*
X-12994691Y2762107D01*
X-1225001Y-2121762D02*
X-754002Y-2320577D01*
X12282618Y-5468574D02*
X13141413Y-2793293D01*
X-1975000Y-3420800D02*
X-1217527Y-3747162D01*
X-1677160Y15957104D02*
X-4955088Y15250192D01*
X-7262501Y12579019D02*
X-9712431Y10786748D01*
X-3315921Y-704820D02*
X-3087784Y-1374769D01*
X16956188Y-3604149D02*
X17325000Y1D01*
X-754002Y-2320577D02*
X-254005Y-2416688D01*
X9865962Y7168042D02*
X8153356Y9055220D01*
X8554834Y9501107D02*
X6387499Y11063475D01*
X7403930Y-8222897D02*
X8943682Y-6497965D01*
X347034Y-3301812D02*
X1022846Y-3147997D01*
X-7300000Y1D02*
X-7130697Y-1515676D01*
X-3025000Y-5239453D02*
X-1866463Y-5744381D01*
X-191288Y-1819975D02*
X190241Y-1810029D01*
X10090109Y-4492406D02*
X10793858Y-2294305D01*
X7203190Y-7999954D02*
X8700977Y-6321630D01*
X614627Y5847789D02*
X-613583Y5837844D01*
X-11920562Y13239126D02*
X-14404548Y10465517D01*
X4352511Y-3162284D02*
X4905739Y-2184175D01*
X6536857Y-4749304D02*
X7372311Y-3282364D01*
X-11867032Y-13179673D02*
X-8862500Y-15350300D01*
X-3925001Y-6798299D02*
X-2422694Y-7456283D01*
X10399913Y-7555979D02*
X11734491Y-5224532D01*
X-6462501Y-11193378D02*
X-3990955Y-12282894D01*
X-784747Y-570151D02*
X-642366Y-713419D01*
X-316722Y-3013401D02*
X315675Y-3003456D01*
X-5058628Y-5618174D02*
X-3775001Y-6538491D01*
X12826964Y-9319335D02*
X14475127Y-6444742D01*
X151418Y466018D02*
X50173Y477371D01*
X-9793151Y7115141D02*
X-11049333Y4919480D01*
X-16222578Y3448216D02*
X-16575000Y1D01*
X2506127Y-7713068D02*
X4049999Y-7014805D01*
X4155301Y4614930D02*
X3099999Y5369358D01*
X-825000Y1428942D02*
X-1097375Y1218758D01*
X-3008281Y9258536D02*
X-4862501Y8422098D01*
X-4491563Y13823607D02*
X-7262501Y12579019D01*
X1803638Y17160476D02*
X-1802594Y17150531D01*
X-12899776Y-9372235D02*
X-10662597Y-11842012D01*
X-13433728Y9760175D02*
X-15160287Y6749795D01*
X-12375000Y1D02*
X-12094796Y-2570828D01*
X1616975Y-719923D02*
X1721539Y-365924D01*
X3169198Y673634D02*
X2950751Y1313760D01*
X7350399Y8163446D02*
X5487499Y9504629D01*
X-1739877Y16553817D02*
X-5140498Y15820826D01*
X-1631167Y-15519514D02*
X1630121Y-15509568D01*
X-5153439Y-3744192D02*
X-4255671Y-4726401D01*
X-7000000Y0D02*
X-6837252Y-1453302D01*
X7487499Y-12968730D02*
X10013539Y-11121162D01*
X800354Y2463237D02*
X269683Y2565867D01*
X33449Y-318247D02*
X95795Y-294827D01*
X-6415505Y4661138D02*
X-7235281Y3221355D01*
X-4962500Y-8595302D02*
X-3063904Y-9429725D01*
X3775649Y-802539D02*
X3850000Y1D01*
X-143204Y1362495D02*
X-420264Y1293437D01*
X-11006677Y7996819D02*
X-12419651Y5529585D01*
X5829759Y-1239153D02*
X5950000Y0D01*
X-15342246Y3261095D02*
X-15675000Y0D01*
X-12675000Y1D02*
X-12388240Y-2633201D01*
X5323331Y-3867626D02*
X6001993Y-2672259D01*
X-975000Y1688750D02*
X-1298114Y1441701D01*
X-3454503Y-2509843D02*
X-2850497Y-3165796D01*
X14986713Y6672515D02*
X13263833Y9636740D01*
X551910Y5251076D02*
X-550866Y5241131D01*
X-2645186Y8141044D02*
X-4275001Y7404518D01*
X-843105Y-936362D02*
X-625000Y-1082531D01*
X-379439Y-3610114D02*
X378393Y-3600169D01*
X16357031Y7282620D02*
X14477359Y10518418D01*
X-1819318Y-17309653D02*
X1818272Y-17299708D01*
X-2301810Y2556419D02*
X-2774929Y2016104D01*
X11674191Y-2481426D02*
X11925000Y1D01*
X-1425001Y2468173D02*
X-1900331Y2110532D01*
X-5554357Y-2472958D02*
X-4910734Y-3567856D01*
X-6376548Y-2839021D02*
X-5638849Y-4096863D01*
X4537914Y-13966264D02*
X7337500Y-12708922D01*
X-488148Y4644418D02*
X-1440020Y4431924D01*
X2050000Y3550705D02*
X1263879Y3889822D01*
X-2175000Y3767211D02*
X-2904027Y3225249D01*
X3250000Y1D02*
X3169198Y673634D01*
X-2800000Y0D02*
X-2729032Y-580073D01*
X-7851510Y5704456D02*
X-8856824Y3943312D01*
X880129Y-8373874D02*
X2598832Y-7998385D01*
X9914503Y-7203308D02*
X11186364Y-4980490D01*
X-14755357Y3136348D02*
X-15075000Y0D01*
X1115551Y-3433314D02*
X1800000Y-3117691D01*
X-3675001Y6365287D02*
X-4911419Y5454684D01*
X5950000Y0D02*
X5810196Y1234996D01*
X1500000Y-2598076D02*
X2000700Y-2222003D01*
X7137500Y12362513D02*
X4408127Y13566822D01*
X708702Y6742859D02*
X-707658Y6732914D01*
X4303970Y3127018D02*
X3553083Y3946100D01*
X-10958136Y-7961551D02*
X-9056683Y-10058465D01*
X-4083660Y-12568211D02*
X-1380299Y-13132661D01*
X13725000Y1D02*
X13415294Y2851509D01*
X8206886Y-9114671D02*
X9914503Y-7203308D01*
X6948921Y7717560D02*
X5187500Y8985014D01*
X5186850Y-15963483D02*
X8387500Y-14527576D01*
X-1129431Y-10745809D02*
X1128384Y-10735863D01*
X-3922372Y833726D02*
X-4000000Y0D01*
X-10875000Y0D02*
X-10627574Y-2258960D01*
X14712649Y6550494D02*
X13021128Y9460404D01*
X11654628Y2477268D02*
X10875758Y4842200D01*
X-5712501Y-9894340D02*
X-3527429Y-10856310D01*
X4352504Y-13395631D02*
X7037500Y-12189307D01*
X1144213Y1270778D02*
X850000Y1472244D01*
X4299999Y7447819D02*
X2654455Y8169576D01*
X1051033Y9999918D02*
X-1049989Y9989973D01*
X-6447074Y-7160200D02*
X-4812500Y-8335494D01*
X6051447Y-4396633D02*
X6824184Y-3038322D01*
X-15048801Y3198722D02*
X-15375000Y0D01*
X2320717Y-7142434D02*
X3750000Y-6495190D01*
X-15123746Y-6733525D02*
X-13385187Y-9724906D01*
X3149999Y-5455960D02*
X4208831Y-4674380D01*
X817412Y-7777161D02*
X2413422Y-7427751D01*
X-3842627Y11826388D02*
X-6212501Y10760366D01*
X4789380Y3479689D02*
X3954561Y4391986D01*
X5387500Y-9331423D02*
X7203190Y-7999954D01*
X3796273Y-11683729D02*
X6137500Y-10630461D01*
X-9550446Y6938805D02*
X-10775269Y4797459D01*
X-7130697Y-1515676D02*
X-6650611Y-2961042D01*
X5566036Y-4043962D02*
X6276057Y-2794280D01*
X-1217527Y-3747162D02*
X-410797Y-3908471D01*
X12293013Y8931397D02*
X10160748Y11284655D01*
X-1003996Y-9552382D02*
X1002950Y-9542437D01*
X10594077Y7697048D02*
X8755573Y9724051D01*
X15825000Y0D02*
X15469404Y3288124D01*
X12525000Y1D02*
X12241517Y2602015D01*
X14477359Y10518418D02*
X11967400Y13291146D01*
X-1049989Y9989973D02*
X-3100986Y9543853D01*
X1649999Y-2857883D02*
X2201439Y-2444946D01*
X10642618Y-7732314D02*
X12008555Y-5346553D01*
X-10738727Y-4781189D02*
X-9501905Y-6903537D01*
X-16530606Y7359900D02*
X-17689800Y3760083D01*
X394787Y-438455D02*
X469229Y-340915D01*
X238324Y2267510D02*
X-237280Y2257565D01*
X-2088955Y6429143D02*
X-3375001Y5845672D01*
X-7362500Y-12752224D02*
X-4547186Y-13994796D01*
X-9453797Y-2009466D02*
X-8820282Y-3927042D01*
X8537500Y-14787383D02*
X11418713Y-12681766D01*
X9816045Y-4370385D02*
X10500414Y-2231932D01*
X8157750Y1733984D02*
X7609833Y3388117D01*
X8787499Y15220397D02*
X5427883Y16705308D01*
X-14113302Y-10253913D02*
X-11666293Y-12956730D01*
X3575855Y2598011D02*
X2950865Y3277269D01*
X503827Y-4793595D02*
X1486371Y-4574581D01*
X-1998272Y-1451829D02*
X-1646062Y-1828136D01*
X-5683038Y1207967D02*
X-5800000Y0D01*
X4150000Y1D02*
X4049531Y860755D01*
X-16809467Y3572963D02*
X-17175000Y0D01*
X7805408Y-8668784D02*
X9429093Y-6850637D01*
X-3907723Y4339966D02*
X-4716570Y3426789D01*
X9541982Y-4248364D02*
X10206970Y-2169558D01*
X-6250364Y-1328555D02*
X-5828421Y-2594979D01*
X10793858Y-2294305D02*
X11025000Y1D01*
X-8412501Y-14570877D02*
X-5196121Y-15992015D01*
X1724197Y-16404638D02*
X5094145Y-15678166D01*
X-10863336Y-12064956D02*
X-8112500Y-14051262D01*
X550000Y0D02*
X528199Y112273D01*
X6002906Y4361367D02*
X4958257Y5506704D01*
X3944601Y12140237D02*
X1333260Y12685127D01*
X-2028071Y902956D02*
X-2161707Y459485D01*
X-833092Y7926340D02*
X-2459776Y7570410D01*
X5987500Y-10370654D02*
X8006147Y-8891727D01*
X-13753427Y-6123420D02*
X-12171661Y-8843229D01*
X4342975Y923128D02*
X4047006Y1801844D01*
X3753822Y4169043D02*
X2800000Y4849743D01*
X-4300000Y0D02*
X-4196254Y-891941D01*
X5520588Y16990625D02*
X1866355Y17757189D01*
X7883897Y3510138D02*
X6973726Y5066709D01*
X-10334130Y-2196587D02*
X-9642473Y-4293105D01*
X-630307Y-5996967D02*
X629261Y-5987021D01*
X6237499Y10803667D02*
X3851896Y11854920D01*
X629261Y-5987021D02*
X1857192Y-5715849D01*
X6488316Y4714038D02*
X5359736Y5952591D01*
X5372260Y-16534117D02*
X8687499Y-15047191D01*
X12008555Y-5346553D02*
X12847968Y-2730920D01*
X-13191023Y9583839D02*
X-14886224Y6627774D01*
X13927000Y-6200700D02*
X14902078Y-3167534D01*
X269683Y2565867D02*
X-268639Y2555922D01*
X663393Y481984D02*
X541995Y601948D01*
X-6139026Y2733271D02*
X-6563371Y1395088D01*
X1746430Y1939608D02*
X1300000Y2251667D01*
X-7783408Y3465397D02*
X-8324037Y1769329D01*
X1208256Y-3718630D02*
X1949999Y-3377499D01*
X3261357Y-1452049D02*
X3482205Y-740165D01*
X-1310233Y-4032479D02*
X-442156Y-4206827D01*
X-7112501Y12319212D02*
X-9511692Y10563804D01*
X-3286396Y10114487D02*
X-5312500Y9201520D01*
X-3609365Y-767194D02*
X-3361848Y-1496790D01*
X484179Y215571D02*
X420688Y305649D01*
X-1866463Y-5744381D02*
X-630307Y-5996967D01*
X-14064033Y6261711D02*
X-15048801Y3198722D01*
X-896636Y995815D02*
X-1075993Y781755D01*
X-2425001Y-4200223D02*
X-1495643Y-4603113D01*
X2650000Y1D02*
X2582309Y548887D01*
X-1498853Y1664645D02*
X-1804108Y1310762D01*
X4008092Y-4451437D02*
X4837921Y-3514955D01*
X11079487Y8049720D02*
X9157052Y10169937D01*
X-4862501Y8422098D02*
X-6500604Y7219652D01*
X930141Y-2862680D02*
X1500000Y-2598076D01*
X2250000Y-3897114D02*
X3004396Y-3336720D01*
X8215567Y-5968959D02*
X9267918Y-4126343D01*
X1301902Y12386771D02*
X-1300857Y12376825D01*
X-849817Y-8085463D02*
X848771Y-8075517D01*
X-3211798Y-2333507D02*
X-2649758Y-2942853D01*
X7002451Y-7777010D02*
X8458272Y-6145294D01*
X-6612500Y-11453185D02*
X-4083660Y-12568211D01*
X6731021Y4890374D02*
X5560475Y6175534D01*
X15525000Y1D02*
X15175960Y3225750D01*
X6137500Y-10630461D02*
X8206886Y-9114671D01*
X-931817Y414872D02*
X-987930Y209991D01*
X9009843Y-10006445D02*
X10885323Y-7908650D01*
X10214278Y-11344105D02*
X12341554Y-8966664D01*
X5335178Y16419991D02*
X1803638Y17160476D01*
X10875758Y4842200D02*
X9623257Y6991706D01*
X7924321Y5757357D02*
X6547442Y7271673D01*
X-325000Y-562916D02*
X-197771Y-608676D01*
X-10278561Y7467812D02*
X-11597460Y5163522D01*
X1148804Y834656D02*
X943474Y1047835D01*
X12847968Y-2730920D02*
X13125000Y1D01*
X-15075000Y0D02*
X-14735794Y-3132189D01*
X2850000Y-4936344D02*
X3807353Y-4228494D01*
X3549999Y6148781D02*
X2190930Y6742991D01*
X6087499Y10543860D02*
X3759191Y11569603D01*
X-197771Y-608676D02*
X-65853Y-626548D01*
X-4768708Y2123166D02*
X-5096149Y1083220D01*
X-7812501Y-13531646D02*
X-4825301Y-14850747D01*
X6437500Y-11150077D02*
X8608365Y-9560558D01*
X1145109Y10894988D02*
X-1144065Y10885043D01*
X150000Y-259807D02*
X194047Y-215511D01*
X3017550Y9287067D02*
X1019675Y9701562D01*
X3099999Y5369358D02*
X1912815Y5887040D01*
X1899999Y3290897D02*
X1171174Y3604505D01*
X-9259200Y-6727202D02*
X-7651509Y-8497861D01*
X11807603Y8578726D02*
X9759269Y10838768D01*
X-6413090Y2855292D02*
X-6856815Y1457461D01*
X14525900Y-10553684D02*
X16393573Y-7298889D01*
X-10060249Y2138372D02*
X-10275000Y0D01*
X-2274366Y6999776D02*
X-3675001Y6365287D01*
X614943Y1892603D02*
X206966Y1969154D01*
X13555079Y-9848341D02*
X15297318Y-6810805D01*
X7037500Y-12189307D02*
X9411321Y-10452331D01*
X-15671873Y-6977567D02*
X-13870597Y-10077578D01*
X1599222Y-1776116D02*
X1925460Y-1398928D01*
X7337500Y-12708922D02*
X9812800Y-10898218D01*
X-2325000Y4027019D02*
X-3104767Y3448192D01*
X1316535Y-12526003D02*
X3888978Y-11969046D01*
X-5762500Y9980943D02*
X-7705039Y8557313D01*
X10361487Y11507598D02*
X7737499Y13401744D01*
X-661666Y-6295323D02*
X660619Y-6285378D01*
X-16516023Y3510589D02*
X-16875000Y0D01*
X3004396Y-3336720D02*
X3624396Y-2633277D01*
X-442156Y-4206827D02*
X441110Y-4196882D01*
X15297318Y-6810805D02*
X16369300Y-3479402D01*
X-724383Y-6892036D02*
X723336Y-6882091D01*
X2005520Y6172357D02*
X677344Y6444502D01*
X-1098072Y-10447452D02*
X1097026Y-10437507D01*
X8837500Y-15306999D02*
X11820192Y-13127653D01*
X-5200000Y0D02*
X-5076587Y-1079061D01*
X-4547186Y-13994796D02*
X-1537092Y-14624444D01*
X-3434724Y-10570993D02*
X-1160789Y-11044165D01*
X-2449019Y-2719910D02*
X-1825000Y-3160992D01*
X6550120Y-2916301D02*
X7003536Y-1488647D01*
X-394073Y3749348D02*
X-1161904Y3575973D01*
X8037500Y13921359D02*
X4964358Y15278723D01*
X2348648Y2608439D02*
X1750000Y3031089D01*
X3666486Y11284286D02*
X1239184Y11790058D01*
X700000Y1212436D02*
X429533Y1321969D01*
X-675000Y1169135D02*
X-896636Y995815D01*
X5037500Y8725206D02*
X3110256Y9572384D01*
X12225000Y1D02*
X11948072Y2539642D01*
X-3398390Y1513061D02*
X-3628928Y771353D01*
X14720064Y10694753D02*
X12168140Y13514089D01*
X-16256542Y7237879D02*
X-17396356Y3697710D01*
X-3946517Y1757103D02*
X-4215817Y896100D01*
X-9642473Y-4293105D02*
X-8531085Y-6198195D01*
X-1599809Y-15221157D02*
X1598762Y-15211212D01*
X12168140Y13514089D02*
X9087499Y15740012D01*
X1521411Y14475267D02*
X-1520367Y14465321D01*
X3462642Y736008D02*
X3224815Y1435781D01*
X-3653454Y-4057570D02*
X-2725000Y-4719838D01*
X-1525000Y-2641377D02*
X-939412Y-2891211D01*
X-4812500Y-8335494D02*
X-2971199Y-9144408D01*
X10816496Y-12012936D02*
X13069669Y-9495670D01*
X2961927Y-9115876D02*
X4787500Y-8292193D01*
X-10230020Y-7432544D02*
X-8454466Y-9389634D01*
X-17775000Y1D02*
X-17376793Y-3693551D01*
X742734Y824891D02*
X550000Y952628D01*
X2308428Y-490671D02*
X2350000Y0D01*
X-6961217Y3099334D02*
X-7443704Y1582208D01*
X10415017Y-11567049D02*
X12584259Y-9142999D01*
X4321070Y1923865D02*
X3818560Y2774347D01*
X-11475000Y0D02*
X-11214463Y-2383707D01*
X-6701344Y7442596D02*
X-8094216Y5880792D01*
X-13288136Y2824481D02*
X-13575000Y0D01*
X-1996250Y6143826D02*
X-3225001Y5585864D01*
X1584128Y15071980D02*
X-1583084Y15062035D01*
X-9766804Y2075999D02*
X-9975000Y0D01*
X5050000Y1D02*
X4929863Y1047875D01*
X-9016495Y-6550866D02*
X-7450770Y-8274917D01*
X5417324Y2411949D02*
X4789380Y3479689D01*
X-5233203Y16106143D02*
X-8462501Y14657480D01*
X-7303561Y8111426D02*
X-8822331Y6409799D01*
X426476Y4057650D02*
X-425431Y4047705D01*
X-12114359Y2574987D02*
X-12375000Y1D01*
X-3260339Y2368775D02*
X-3672453Y1635082D01*
X4546675Y3303354D02*
X3753822Y4169043D01*
X-6362501Y11020174D02*
X-8507996Y9449087D01*
X-2775000Y4806441D02*
X-3706984Y4117023D01*
X9137846Y6639035D02*
X7551138Y8386390D01*
X583268Y5549433D02*
X-582224Y5539487D01*
X5158996Y5729647D02*
X3849999Y6668396D01*
X16662744Y-3541775D02*
X17025000Y0D01*
X-674922Y-143459D02*
X-621211Y-276580D01*
X-1754008Y780935D02*
X-1868262Y397112D01*
X-4710680Y5231740D02*
X-5687390Y4132131D01*
X-613583Y5837844D02*
X-1810840Y5573192D01*
X-9368409Y-4171084D02*
X-8288380Y-6021859D01*
X-2729032Y-580073D02*
X-2539657Y-1130727D01*
X1002950Y-9542437D02*
X2961927Y-9115876D01*
X-17083348Y-3631177D02*
X-15945936Y-7099588D01*
X-3902809Y-829567D02*
X-3635911Y-1618811D01*
X-1555255Y-330579D02*
X-1443402Y-642643D01*
X-5500000Y0D02*
X-5370031Y-1141435D01*
X14295627Y3038630D02*
X13342331Y5940389D01*
X-6102484Y-2717000D02*
X-5396144Y-3920527D01*
X10364173Y-4614427D02*
X11087303Y-2356679D01*
X-13142482Y-9548571D02*
X-10863336Y-12064956D01*
X2950865Y3277269D02*
X2199999Y3810512D01*
X-159929Y-1521618D02*
X158883Y-1511673D01*
X-15375000Y0D02*
X-15029238Y-3194563D01*
X-2925001Y5066249D02*
X-3907723Y4339966D01*
X4222717Y12996188D02*
X1427336Y13580197D01*
X-1675000Y-2901185D02*
X-1032117Y-3176528D01*
X206966Y1969154D02*
X-205922Y1959209D01*
X-8052987Y-8943747D02*
X-6012500Y-10413955D01*
X-1588348Y-4888430D02*
X-536232Y-5101897D01*
X3550000Y1D02*
X3462642Y736008D01*
X-9913170Y11009691D02*
X-11977497Y8702161D01*
X15534840Y6916557D02*
X13749243Y9989411D01*
X4887500Y8465399D02*
X3017550Y9287067D01*
X-2483683Y-1804500D02*
X-2047540Y-2274023D01*
X7098248Y-3160343D02*
X7590425Y-1613394D01*
X7750000Y0D02*
X7570862Y1609237D01*
X10053567Y4476137D02*
X8895141Y6462699D01*
X10351372Y7520713D02*
X8554834Y9501107D01*
X2000700Y-2222003D02*
X2410870Y-1751600D01*
X-6647813Y-7383143D02*
X-4962500Y-8595302D01*
X-3975001Y6884902D02*
X-5312898Y5900570D01*
X8006147Y-8891727D02*
X9671798Y-7026972D01*
X-625000Y-1082531D02*
X-383182Y-1179310D01*
X250000Y433013D02*
X151418Y466018D01*
X1428095Y-303551D02*
X1450000Y0D01*
X-12383109Y-5513315D02*
X-10958136Y-7961551D01*
X8487499Y14700782D02*
X5242473Y16134674D01*
X-883789Y2720022D02*
X-1425001Y2468173D01*
X5001440Y-15392849D02*
X8087500Y-14007960D01*
X-11666293Y-12956730D02*
X-8712500Y-15090492D01*
X-1645801Y15658748D02*
X-4862383Y14964875D01*
X-3706984Y4117023D02*
X-4473864Y3250453D01*
X1615487Y15370336D02*
X-1614443Y15360391D01*
X-1662526Y-15817870D02*
X1661479Y-15807925D01*
X-695896Y772871D02*
X-833288Y605419D01*
X17543077Y-3728896D02*
X17925000Y1D01*
X16631095Y7404641D02*
X14720064Y10694753D01*
X5237499Y-9071616D02*
X7002451Y-7777010D01*
X3054632Y-9401193D02*
X4937500Y-8552000D01*
X-1032117Y-3176528D02*
X-348080Y-3311757D01*
X-11200841Y-8137886D02*
X-9257422Y-10281408D01*
X-12419651Y5529585D02*
X-13288136Y2824481D01*
X-5638849Y-4096863D02*
X-4657150Y-5172287D01*
X-3361848Y-1496790D02*
X-2969093Y-2157171D01*
X1504687Y-14316142D02*
X4445209Y-13680947D01*
X-7412501Y12838827D02*
X-9913170Y11009691D01*
X13890458Y6184431D02*
X12293013Y8931397D01*
X15469404Y3288124D02*
X14438585Y6428473D01*
X-5513637Y6123514D02*
X-6658210Y4837473D01*
X-5042771Y2245187D02*
X-5389594Y1145594D01*
X-818458Y-7787106D02*
X817412Y-7777161D01*
X112890Y1074084D02*
X-111846Y1064139D01*
X-693024Y-6593680D02*
X691978Y-6583734D01*
X-4862383Y14964875D02*
X-7862501Y13618250D01*
X7972862Y-5792623D02*
X8993855Y-4004322D01*
X-10515388Y11678521D02*
X-12705612Y9231168D01*
X-1495643Y-4603113D02*
X-504873Y-4803540D01*
X9157052Y10169937D02*
X6837499Y11842898D01*
X-1825000Y-3160992D02*
X-1124822Y-3461845D01*
X-5612500Y9721136D02*
X-7504300Y8334370D01*
X194047Y-215511D02*
X226524Y-164579D01*
X12554524Y-2668546D02*
X12825000Y1D01*
X-2726388Y-1980836D02*
X-2248279Y-2496966D01*
X-12407803Y2637360D02*
X-12675000Y1D01*
X-6312500Y-10933570D02*
X-3898250Y-11997577D01*
X-5316835Y2367208D02*
X-5683038Y1207967D01*
X9411321Y-10452331D02*
X11370733Y-8261321D01*
X-12701247Y2699734D02*
X-12975000Y1D01*
X-1443402Y-642643D02*
X-1270157Y-922822D01*
X-8030592Y1706955D02*
X-8200000Y0D01*
X-5912500Y10240751D02*
X-7905779Y8780257D01*
X-15635690Y3323469D02*
X-15975000Y0D01*
X11361184Y2414895D02*
X10601695Y4720179D01*
X7287499Y12622321D02*
X4500832Y13852139D01*
X7061706Y3144075D02*
X6245611Y4537703D01*
X12830745Y-5712616D02*
X13728301Y-2918040D01*
X9267918Y-4126343D02*
X9913525Y-2107184D01*
X-2101071Y2333475D02*
X-2532224Y1839768D01*
X1300961Y-4003947D02*
X2100000Y-3637306D01*
X-1161904Y3575973D02*
X-1875001Y3247596D01*
X10500414Y-2231932D02*
X10725000Y1D01*
X-2367071Y7285093D02*
X-3825001Y6625095D01*
X771420Y7339572D02*
X-770375Y7329627D01*
X-4732166Y-2106895D02*
X-4182618Y-3038849D01*
X3381691Y-2456942D02*
X3809484Y-1696091D01*
X-700000Y0D02*
X-674922Y-143459D01*
X1222460Y-11630933D02*
X3610863Y-11113095D01*
X-3471806Y10685120D02*
X-5612500Y9721136D01*
X5537500Y-9591231D02*
X7403930Y-8222897D01*
X7864306Y1671610D02*
X7335770Y3266096D01*
X-4000000Y0D02*
X-3902809Y-829567D01*
X-5259367Y-5841118D02*
X-3925001Y-6798299D01*
X-14886224Y6627774D02*
X-15929134Y3385842D01*
X9612061Y-10675275D02*
X11613438Y-8437657D01*
X341256Y379004D02*
X250000Y433013D01*
X4259799Y-13110314D02*
X6887500Y-11929499D01*
X188500Y-580144D02*
X300000Y-519615D01*
X-6658210Y4837473D02*
X-7509344Y3343376D01*
X4631675Y-2062154D02*
X4949426Y-1052033D01*
%TD*%
M02*
