%TF.GenerationSoftware,KiCad,Pcbnew,9.0.0*%
%TF.CreationDate,2025-06-29T09:39:04-04:00*%
%TF.ProjectId,hubspoke_temp_array,68756273-706f-46b6-955f-74656d705f61,rev?*%
%TF.SameCoordinates,Original*%
%TF.FileFunction,Legend,Top*%
%TF.FilePolarity,Positive*%
%FSLAX46Y46*%
G04 Gerber Fmt 4.6, Leading zero omitted, Abs format (unit mm)*
G04 Created by KiCad (PCBNEW 9.0.0) date 2025-06-29 09:39:04*
%MOMM*%
%LPD*%
G01*
G04 APERTURE LIST*
%ADD10C,0.150000*%
%ADD11C,0.120000*%
G04 APERTURE END LIST*
D10*
X175644565Y-110351468D02*
X174971471Y-110801215D01*
X174971471Y-110801215D02*
X174918739Y-110893721D01*
X174918739Y-110893721D02*
X174905601Y-110959770D01*
X174905601Y-110959770D02*
X174918919Y-111065413D01*
X174918919Y-111065413D02*
X175024741Y-111223789D01*
X175024741Y-111223789D02*
X175117247Y-111276520D01*
X175117247Y-111276520D02*
X175183296Y-111289659D01*
X175183296Y-111289659D02*
X175288940Y-111276341D01*
X175288940Y-111276341D02*
X175962034Y-110826594D01*
X175686135Y-112213633D02*
X175368666Y-111738508D01*
X175527400Y-111976071D02*
X176358870Y-111420500D01*
X176358870Y-111420500D02*
X176187177Y-111420680D01*
X176187177Y-111420680D02*
X176055078Y-111394404D01*
X176055078Y-111394404D02*
X175962573Y-111341672D01*
X176478729Y-112371290D02*
X176465411Y-112265647D01*
X176465411Y-112265647D02*
X176478549Y-112199597D01*
X176478549Y-112199597D02*
X176531281Y-112107092D01*
X176531281Y-112107092D02*
X176570875Y-112080636D01*
X176570875Y-112080636D02*
X176676518Y-112067319D01*
X176676518Y-112067319D02*
X176742568Y-112080457D01*
X176742568Y-112080457D02*
X176835073Y-112133189D01*
X176835073Y-112133189D02*
X176940896Y-112291564D01*
X176940896Y-112291564D02*
X176954214Y-112397207D01*
X176954214Y-112397207D02*
X176941075Y-112463257D01*
X176941075Y-112463257D02*
X176888344Y-112555762D01*
X176888344Y-112555762D02*
X176848750Y-112582218D01*
X176848750Y-112582218D02*
X176743106Y-112595535D01*
X176743106Y-112595535D02*
X176677057Y-112582397D01*
X176677057Y-112582397D02*
X176584552Y-112529665D01*
X176584552Y-112529665D02*
X176478729Y-112371290D01*
X176478729Y-112371290D02*
X176386224Y-112318558D01*
X176386224Y-112318558D02*
X176320174Y-112305420D01*
X176320174Y-112305420D02*
X176214531Y-112318738D01*
X176214531Y-112318738D02*
X176056156Y-112424561D01*
X176056156Y-112424561D02*
X176003424Y-112517066D01*
X176003424Y-112517066D02*
X175990286Y-112583116D01*
X175990286Y-112583116D02*
X176003603Y-112688759D01*
X176003603Y-112688759D02*
X176109426Y-112847134D01*
X176109426Y-112847134D02*
X176201931Y-112899866D01*
X176201931Y-112899866D02*
X176267981Y-112913004D01*
X176267981Y-112913004D02*
X176373624Y-112899686D01*
X176373624Y-112899686D02*
X176531999Y-112793863D01*
X176531999Y-112793863D02*
X176584731Y-112701358D01*
X176584731Y-112701358D02*
X176597869Y-112635309D01*
X176597869Y-112635309D02*
X176584552Y-112529665D01*
X172410514Y-106812664D02*
X171838095Y-107385084D01*
X171838095Y-107385084D02*
X171804423Y-107486099D01*
X171804423Y-107486099D02*
X171804423Y-107553443D01*
X171804423Y-107553443D02*
X171838095Y-107654458D01*
X171838095Y-107654458D02*
X171972782Y-107789145D01*
X171972782Y-107789145D02*
X172073797Y-107822817D01*
X172073797Y-107822817D02*
X172141140Y-107822817D01*
X172141140Y-107822817D02*
X172242156Y-107789145D01*
X172242156Y-107789145D02*
X172814575Y-107216725D01*
X172814575Y-108630939D02*
X172410514Y-108226878D01*
X172612545Y-108428908D02*
X173319652Y-107721801D01*
X173319652Y-107721801D02*
X173151293Y-107755473D01*
X173151293Y-107755473D02*
X173016606Y-107755473D01*
X173016606Y-107755473D02*
X172915591Y-107721801D01*
X173757385Y-108159534D02*
X174228789Y-108630939D01*
X174228789Y-108630939D02*
X173218636Y-109035000D01*
X136011338Y-136983881D02*
X135338244Y-137433628D01*
X135338244Y-137433628D02*
X135285512Y-137526134D01*
X135285512Y-137526134D02*
X135272374Y-137592183D01*
X135272374Y-137592183D02*
X135285692Y-137697826D01*
X135285692Y-137697826D02*
X135391514Y-137856202D01*
X135391514Y-137856202D02*
X135484020Y-137908933D01*
X135484020Y-137908933D02*
X135550069Y-137922072D01*
X135550069Y-137922072D02*
X135655713Y-137908754D01*
X135655713Y-137908754D02*
X136328807Y-137459007D01*
X136540453Y-137775757D02*
X136884377Y-138290476D01*
X136884377Y-138290476D02*
X136382437Y-138224965D01*
X136382437Y-138224965D02*
X136461804Y-138343747D01*
X136461804Y-138343747D02*
X136475122Y-138449390D01*
X136475122Y-138449390D02*
X136461984Y-138515440D01*
X136461984Y-138515440D02*
X136409252Y-138607945D01*
X136409252Y-138607945D02*
X136211283Y-138740223D01*
X136211283Y-138740223D02*
X136105639Y-138753541D01*
X136105639Y-138753541D02*
X136039590Y-138740403D01*
X136039590Y-138740403D02*
X135947085Y-138687671D01*
X135947085Y-138687671D02*
X135788350Y-138450108D01*
X135788350Y-138450108D02*
X135775033Y-138344465D01*
X135775033Y-138344465D02*
X135788171Y-138278416D01*
X137083424Y-139188354D02*
X136529111Y-139558735D01*
X137267895Y-138778740D02*
X136541710Y-138977607D01*
X136541710Y-138977607D02*
X136885634Y-139492326D01*
X134058676Y-132841825D02*
X133310773Y-133151617D01*
X133310773Y-133151617D02*
X133241008Y-133232057D01*
X133241008Y-133232057D02*
X133215236Y-133294274D01*
X133215236Y-133294274D02*
X133207688Y-133400486D01*
X133207688Y-133400486D02*
X133280580Y-133576463D01*
X133280580Y-133576463D02*
X133361021Y-133646228D01*
X133361021Y-133646228D02*
X133423238Y-133672000D01*
X133423238Y-133672000D02*
X133529449Y-133679548D01*
X133529449Y-133679548D02*
X134277352Y-133369757D01*
X134423136Y-133721711D02*
X134660035Y-134293636D01*
X134660035Y-134293636D02*
X134180520Y-134131460D01*
X134180520Y-134131460D02*
X134235189Y-134263443D01*
X134235189Y-134263443D02*
X134227641Y-134369655D01*
X134227641Y-134369655D02*
X134201870Y-134431872D01*
X134201870Y-134431872D02*
X134132104Y-134512312D01*
X134132104Y-134512312D02*
X133912133Y-134603427D01*
X133912133Y-134603427D02*
X133805921Y-134595879D01*
X133805921Y-134595879D02*
X133743704Y-134570108D01*
X133743704Y-134570108D02*
X133663264Y-134500342D01*
X133663264Y-134500342D02*
X133553926Y-134236377D01*
X133553926Y-134236377D02*
X133561474Y-134130165D01*
X133561474Y-134130165D02*
X133587245Y-134067948D01*
X135006273Y-135129527D02*
X134824043Y-134689584D01*
X134824043Y-134689584D02*
X134365877Y-134827820D01*
X134365877Y-134827820D02*
X134428094Y-134853592D01*
X134428094Y-134853592D02*
X134508534Y-134923357D01*
X134508534Y-134923357D02*
X134599650Y-135143328D01*
X134599650Y-135143328D02*
X134592101Y-135249540D01*
X134592101Y-135249540D02*
X134566330Y-135311757D01*
X134566330Y-135311757D02*
X134496565Y-135392198D01*
X134496565Y-135392198D02*
X134276593Y-135483313D01*
X134276593Y-135483313D02*
X134170382Y-135475764D01*
X134170382Y-135475764D02*
X134108164Y-135449993D01*
X134108164Y-135449993D02*
X134027724Y-135380228D01*
X134027724Y-135380228D02*
X133936609Y-135160256D01*
X133936609Y-135160256D02*
X133944157Y-135054045D01*
X133944157Y-135054045D02*
X133969929Y-134991828D01*
X145515708Y-102936409D02*
X145825500Y-103684312D01*
X145825500Y-103684312D02*
X145905940Y-103754077D01*
X145905940Y-103754077D02*
X145968157Y-103779849D01*
X145968157Y-103779849D02*
X146074369Y-103787397D01*
X146074369Y-103787397D02*
X146250346Y-103714505D01*
X146250346Y-103714505D02*
X146320111Y-103634064D01*
X146320111Y-103634064D02*
X146345883Y-103571847D01*
X146345883Y-103571847D02*
X146353431Y-103465636D01*
X146353431Y-103465636D02*
X146043640Y-102717733D01*
X147350202Y-103258929D02*
X146822271Y-103477605D01*
X147086237Y-103368267D02*
X146703553Y-102444388D01*
X146703553Y-102444388D02*
X146670234Y-102612817D01*
X146670234Y-102612817D02*
X146618691Y-102737251D01*
X146618691Y-102737251D02*
X146548926Y-102817691D01*
X148230088Y-102894469D02*
X147702157Y-103113145D01*
X147966122Y-103003807D02*
X147583439Y-102079927D01*
X147583439Y-102079927D02*
X147550119Y-102248356D01*
X147550119Y-102248356D02*
X147498577Y-102372791D01*
X147498577Y-102372791D02*
X147428811Y-102453231D01*
X131642319Y-125824404D02*
X132451842Y-125824404D01*
X132451842Y-125824404D02*
X132547080Y-125776785D01*
X132547080Y-125776785D02*
X132594700Y-125729166D01*
X132594700Y-125729166D02*
X132642319Y-125633928D01*
X132642319Y-125633928D02*
X132642319Y-125443452D01*
X132642319Y-125443452D02*
X132594700Y-125348214D01*
X132594700Y-125348214D02*
X132547080Y-125300595D01*
X132547080Y-125300595D02*
X132451842Y-125252976D01*
X132451842Y-125252976D02*
X131642319Y-125252976D01*
X131642319Y-124300595D02*
X131642319Y-124776785D01*
X131642319Y-124776785D02*
X132118509Y-124824404D01*
X132118509Y-124824404D02*
X132070890Y-124776785D01*
X132070890Y-124776785D02*
X132023271Y-124681547D01*
X132023271Y-124681547D02*
X132023271Y-124443452D01*
X132023271Y-124443452D02*
X132070890Y-124348214D01*
X132070890Y-124348214D02*
X132118509Y-124300595D01*
X132118509Y-124300595D02*
X132213747Y-124252976D01*
X132213747Y-124252976D02*
X132451842Y-124252976D01*
X132451842Y-124252976D02*
X132547080Y-124300595D01*
X132547080Y-124300595D02*
X132594700Y-124348214D01*
X132594700Y-124348214D02*
X132642319Y-124443452D01*
X132642319Y-124443452D02*
X132642319Y-124681547D01*
X132642319Y-124681547D02*
X132594700Y-124776785D01*
X132594700Y-124776785D02*
X132547080Y-124824404D01*
X164206104Y-101940978D02*
X163896312Y-102688880D01*
X163896312Y-102688880D02*
X163903861Y-102795092D01*
X163903861Y-102795092D02*
X163929632Y-102857309D01*
X163929632Y-102857309D02*
X163999397Y-102937749D01*
X163999397Y-102937749D02*
X164175374Y-103010641D01*
X164175374Y-103010641D02*
X164281586Y-103003093D01*
X164281586Y-103003093D02*
X164343803Y-102977322D01*
X164343803Y-102977322D02*
X164424244Y-102907556D01*
X164424244Y-102907556D02*
X164734035Y-102159654D01*
X165275231Y-103466217D02*
X164747300Y-103247541D01*
X165011265Y-103356879D02*
X165393949Y-102432999D01*
X165393949Y-102432999D02*
X165251291Y-102528536D01*
X165251291Y-102528536D02*
X165126857Y-102580078D01*
X165126857Y-102580078D02*
X165020645Y-102587627D01*
X166493806Y-102888575D02*
X166053863Y-102706344D01*
X166053863Y-102706344D02*
X165827638Y-103128064D01*
X165827638Y-103128064D02*
X165889856Y-103102293D01*
X165889856Y-103102293D02*
X165996067Y-103094745D01*
X165996067Y-103094745D02*
X166216039Y-103185860D01*
X166216039Y-103185860D02*
X166285804Y-103266300D01*
X166285804Y-103266300D02*
X166311575Y-103328517D01*
X166311575Y-103328517D02*
X166319124Y-103434729D01*
X166319124Y-103434729D02*
X166228008Y-103654700D01*
X166228008Y-103654700D02*
X166147568Y-103724466D01*
X166147568Y-103724466D02*
X166085351Y-103750237D01*
X166085351Y-103750237D02*
X165979139Y-103757785D01*
X165979139Y-103757785D02*
X165759168Y-103666670D01*
X165759168Y-103666670D02*
X165689402Y-103586230D01*
X165689402Y-103586230D02*
X165663631Y-103524012D01*
X132951610Y-128398415D02*
X132157641Y-128556345D01*
X132157641Y-128556345D02*
X132073523Y-128621629D01*
X132073523Y-128621629D02*
X132036108Y-128677623D01*
X132036108Y-128677623D02*
X132007984Y-128780321D01*
X132007984Y-128780321D02*
X132045144Y-128967138D01*
X132045144Y-128967138D02*
X132110429Y-129051256D01*
X132110429Y-129051256D02*
X132166423Y-129088670D01*
X132166423Y-129088670D02*
X132269121Y-129116794D01*
X132269121Y-129116794D02*
X133063090Y-128958864D01*
X133137410Y-129332496D02*
X133258180Y-129939649D01*
X133258180Y-129939649D02*
X132819518Y-129687041D01*
X132819518Y-129687041D02*
X132847388Y-129827153D01*
X132847388Y-129827153D02*
X132819264Y-129929851D01*
X132819264Y-129929851D02*
X132781850Y-129985845D01*
X132781850Y-129985845D02*
X132697731Y-130051129D01*
X132697731Y-130051129D02*
X132464211Y-130097579D01*
X132464211Y-130097579D02*
X132361513Y-130069455D01*
X132361513Y-130069455D02*
X132305519Y-130032041D01*
X132305519Y-130032041D02*
X132240235Y-129947923D01*
X132240235Y-129947923D02*
X132184495Y-129667699D01*
X132184495Y-129667699D02*
X132212619Y-129565000D01*
X132212619Y-129565000D02*
X132250033Y-129509006D01*
X133425400Y-130780322D02*
X133388240Y-130593506D01*
X133388240Y-130593506D02*
X133322956Y-130509388D01*
X133322956Y-130509388D02*
X133266962Y-130471974D01*
X133266962Y-130471974D02*
X133108270Y-130406435D01*
X133108270Y-130406435D02*
X132912164Y-130396891D01*
X132912164Y-130396891D02*
X132538531Y-130471212D01*
X132538531Y-130471212D02*
X132454413Y-130536496D01*
X132454413Y-130536496D02*
X132416999Y-130592490D01*
X132416999Y-130592490D02*
X132388875Y-130695188D01*
X132388875Y-130695188D02*
X132426035Y-130882004D01*
X132426035Y-130882004D02*
X132491319Y-130966122D01*
X132491319Y-130966122D02*
X132547313Y-131003536D01*
X132547313Y-131003536D02*
X132650011Y-131031660D01*
X132650011Y-131031660D02*
X132883532Y-130985210D01*
X132883532Y-130985210D02*
X132967650Y-130919926D01*
X132967650Y-130919926D02*
X133005064Y-130863932D01*
X133005064Y-130863932D02*
X133033188Y-130761234D01*
X133033188Y-130761234D02*
X132996028Y-130574418D01*
X132996028Y-130574418D02*
X132930744Y-130490300D01*
X132930744Y-130490300D02*
X132874750Y-130452886D01*
X132874750Y-130452886D02*
X132772052Y-130424762D01*
X179759719Y-118960254D02*
X178965750Y-119118184D01*
X178965750Y-119118184D02*
X178881632Y-119183468D01*
X178881632Y-119183468D02*
X178844217Y-119239462D01*
X178844217Y-119239462D02*
X178816093Y-119342160D01*
X178816093Y-119342160D02*
X178853253Y-119528977D01*
X178853253Y-119528977D02*
X178918538Y-119613095D01*
X178918538Y-119613095D02*
X178974532Y-119650509D01*
X178974532Y-119650509D02*
X179077230Y-119678633D01*
X179077230Y-119678633D02*
X179871199Y-119520703D01*
X179861401Y-119959619D02*
X179917395Y-119997033D01*
X179917395Y-119997033D02*
X179982679Y-120081151D01*
X179982679Y-120081151D02*
X180029129Y-120314672D01*
X180029129Y-120314672D02*
X180001005Y-120417370D01*
X180001005Y-120417370D02*
X179963591Y-120473364D01*
X179963591Y-120473364D02*
X179879473Y-120538648D01*
X179879473Y-120538648D02*
X179786065Y-120557228D01*
X179786065Y-120557228D02*
X179636663Y-120538394D01*
X179636663Y-120538394D02*
X178964734Y-120089425D01*
X178964734Y-120089425D02*
X179085504Y-120696578D01*
X180187059Y-121108641D02*
X180205639Y-121202049D01*
X180205639Y-121202049D02*
X180177515Y-121304747D01*
X180177515Y-121304747D02*
X180140101Y-121360741D01*
X180140101Y-121360741D02*
X180055983Y-121426025D01*
X180055983Y-121426025D02*
X179878457Y-121509889D01*
X179878457Y-121509889D02*
X179644937Y-121556339D01*
X179644937Y-121556339D02*
X179448830Y-121546795D01*
X179448830Y-121546795D02*
X179346132Y-121518671D01*
X179346132Y-121518671D02*
X179290138Y-121481257D01*
X179290138Y-121481257D02*
X179224854Y-121397139D01*
X179224854Y-121397139D02*
X179206274Y-121303731D01*
X179206274Y-121303731D02*
X179234398Y-121201033D01*
X179234398Y-121201033D02*
X179271812Y-121145039D01*
X179271812Y-121145039D02*
X179355930Y-121079755D01*
X179355930Y-121079755D02*
X179533456Y-120995891D01*
X179533456Y-120995891D02*
X179766977Y-120949440D01*
X179766977Y-120949440D02*
X179963083Y-120958984D01*
X179963083Y-120958984D02*
X180065781Y-120987109D01*
X180065781Y-120987109D02*
X180121775Y-121024523D01*
X180121775Y-121024523D02*
X180187059Y-121108641D01*
X150022754Y-101302779D02*
X150180684Y-102096748D01*
X150180684Y-102096748D02*
X150245968Y-102180866D01*
X150245968Y-102180866D02*
X150301962Y-102218281D01*
X150301962Y-102218281D02*
X150404660Y-102246405D01*
X150404660Y-102246405D02*
X150591477Y-102209245D01*
X150591477Y-102209245D02*
X150675595Y-102143960D01*
X150675595Y-102143960D02*
X150713009Y-102087966D01*
X150713009Y-102087966D02*
X150741133Y-101985268D01*
X150741133Y-101985268D02*
X150583203Y-101191299D01*
X151759078Y-101976994D02*
X151198629Y-102088474D01*
X151478854Y-102032734D02*
X151283763Y-101051949D01*
X151283763Y-101051949D02*
X151218225Y-101210641D01*
X151218225Y-101210641D02*
X151143397Y-101322629D01*
X151143397Y-101322629D02*
X151059279Y-101387913D01*
X151956200Y-101015297D02*
X151993614Y-100959303D01*
X151993614Y-100959303D02*
X152077733Y-100894019D01*
X152077733Y-100894019D02*
X152311253Y-100847569D01*
X152311253Y-100847569D02*
X152413951Y-100875693D01*
X152413951Y-100875693D02*
X152469945Y-100913107D01*
X152469945Y-100913107D02*
X152535229Y-100997225D01*
X152535229Y-100997225D02*
X152553809Y-101090633D01*
X152553809Y-101090633D02*
X152534975Y-101240035D01*
X152534975Y-101240035D02*
X152086007Y-101911964D01*
X152086007Y-101911964D02*
X152693159Y-101791194D01*
X133185708Y-116416452D02*
X133933610Y-116726243D01*
X133933610Y-116726243D02*
X134039822Y-116718695D01*
X134039822Y-116718695D02*
X134102039Y-116692924D01*
X134102039Y-116692924D02*
X134182479Y-116623158D01*
X134182479Y-116623158D02*
X134255371Y-116447181D01*
X134255371Y-116447181D02*
X134247823Y-116340970D01*
X134247823Y-116340970D02*
X134222052Y-116278752D01*
X134222052Y-116278752D02*
X134152286Y-116198312D01*
X134152286Y-116198312D02*
X133404384Y-115888521D01*
X133550168Y-115536567D02*
X133805290Y-114920647D01*
X133805290Y-114920647D02*
X134565163Y-115699279D01*
X174807409Y-138938823D02*
X175480503Y-139388571D01*
X175480503Y-139388571D02*
X175586146Y-139401888D01*
X175586146Y-139401888D02*
X175652196Y-139388750D01*
X175652196Y-139388750D02*
X175744701Y-139336018D01*
X175744701Y-139336018D02*
X175850524Y-139177643D01*
X175850524Y-139177643D02*
X175863842Y-139072000D01*
X175863842Y-139072000D02*
X175850704Y-139005950D01*
X175850704Y-139005950D02*
X175797972Y-138913445D01*
X175797972Y-138913445D02*
X175124877Y-138463698D01*
X175442166Y-138160265D02*
X175429028Y-138094216D01*
X175429028Y-138094216D02*
X175442346Y-137988572D01*
X175442346Y-137988572D02*
X175574625Y-137790603D01*
X175574625Y-137790603D02*
X175667130Y-137737872D01*
X175667130Y-137737872D02*
X175733179Y-137724734D01*
X175733179Y-137724734D02*
X175838823Y-137738051D01*
X175838823Y-137738051D02*
X175918010Y-137790963D01*
X175918010Y-137790963D02*
X176010336Y-137909924D01*
X176010336Y-137909924D02*
X176167993Y-138702518D01*
X176167993Y-138702518D02*
X176511917Y-138187799D01*
X176433807Y-137104730D02*
X176988120Y-137475110D01*
X175984778Y-137091053D02*
X176446406Y-137685858D01*
X176446406Y-137685858D02*
X176790331Y-137171139D01*
X168548220Y-103972790D02*
X168098472Y-104645884D01*
X168098472Y-104645884D02*
X168085155Y-104751527D01*
X168085155Y-104751527D02*
X168098293Y-104817577D01*
X168098293Y-104817577D02*
X168151025Y-104910082D01*
X168151025Y-104910082D02*
X168309400Y-105015905D01*
X168309400Y-105015905D02*
X168415043Y-105029223D01*
X168415043Y-105029223D02*
X168481093Y-105016085D01*
X168481093Y-105016085D02*
X168573598Y-104963353D01*
X168573598Y-104963353D02*
X169023345Y-104290258D01*
X169299244Y-105677298D02*
X168824119Y-105359829D01*
X169061682Y-105518564D02*
X169617252Y-104687094D01*
X169617252Y-104687094D02*
X169458697Y-104752964D01*
X169458697Y-104752964D02*
X169326598Y-104779240D01*
X169326598Y-104779240D02*
X169220955Y-104765922D01*
X170567503Y-105322032D02*
X170409128Y-105216209D01*
X170409128Y-105216209D02*
X170303485Y-105202891D01*
X170303485Y-105202891D02*
X170237435Y-105216029D01*
X170237435Y-105216029D02*
X170078880Y-105281899D01*
X170078880Y-105281899D02*
X169933464Y-105413818D01*
X169933464Y-105413818D02*
X169721818Y-105730569D01*
X169721818Y-105730569D02*
X169708500Y-105836212D01*
X169708500Y-105836212D02*
X169721638Y-105902262D01*
X169721638Y-105902262D02*
X169774370Y-105994767D01*
X169774370Y-105994767D02*
X169932745Y-106100590D01*
X169932745Y-106100590D02*
X170038388Y-106113907D01*
X170038388Y-106113907D02*
X170104438Y-106100769D01*
X170104438Y-106100769D02*
X170196943Y-106048037D01*
X170196943Y-106048037D02*
X170329222Y-105850068D01*
X170329222Y-105850068D02*
X170342540Y-105744425D01*
X170342540Y-105744425D02*
X170329401Y-105678376D01*
X170329401Y-105678376D02*
X170276670Y-105585870D01*
X170276670Y-105585870D02*
X170118294Y-105480047D01*
X170118294Y-105480047D02*
X170012651Y-105466730D01*
X170012651Y-105466730D02*
X169946602Y-105479868D01*
X169946602Y-105479868D02*
X169854096Y-105532600D01*
X178714694Y-130704427D02*
X179508663Y-130862357D01*
X179508663Y-130862357D02*
X179611361Y-130834233D01*
X179611361Y-130834233D02*
X179667355Y-130796819D01*
X179667355Y-130796819D02*
X179732639Y-130712701D01*
X179732639Y-130712701D02*
X179769799Y-130525885D01*
X179769799Y-130525885D02*
X179741675Y-130423187D01*
X179741675Y-130423187D02*
X179704261Y-130367193D01*
X179704261Y-130367193D02*
X179620143Y-130301909D01*
X179620143Y-130301909D02*
X178826174Y-130143978D01*
X179003192Y-129742222D02*
X178965778Y-129686228D01*
X178965778Y-129686228D02*
X178937654Y-129583530D01*
X178937654Y-129583530D02*
X178984104Y-129350009D01*
X178984104Y-129350009D02*
X179049388Y-129265891D01*
X179049388Y-129265891D02*
X179105382Y-129228477D01*
X179105382Y-129228477D02*
X179208080Y-129200353D01*
X179208080Y-129200353D02*
X179301489Y-129218933D01*
X179301489Y-129218933D02*
X179432311Y-129293507D01*
X179432311Y-129293507D02*
X179881279Y-129965436D01*
X179881279Y-129965436D02*
X180002050Y-129358283D01*
X179188992Y-128808141D02*
X179151578Y-128752147D01*
X179151578Y-128752147D02*
X179123454Y-128649448D01*
X179123454Y-128649448D02*
X179169904Y-128415928D01*
X179169904Y-128415928D02*
X179235189Y-128331810D01*
X179235189Y-128331810D02*
X179291183Y-128294396D01*
X179291183Y-128294396D02*
X179393881Y-128266272D01*
X179393881Y-128266272D02*
X179487289Y-128284852D01*
X179487289Y-128284852D02*
X179618111Y-128359426D01*
X179618111Y-128359426D02*
X180067080Y-129031355D01*
X180067080Y-129031355D02*
X180187850Y-128424202D01*
X142123675Y-143744909D02*
X141673927Y-144418003D01*
X141673927Y-144418003D02*
X141660610Y-144523646D01*
X141660610Y-144523646D02*
X141673748Y-144589696D01*
X141673748Y-144589696D02*
X141726480Y-144682201D01*
X141726480Y-144682201D02*
X141884855Y-144788024D01*
X141884855Y-144788024D02*
X141990498Y-144801342D01*
X141990498Y-144801342D02*
X142056548Y-144788204D01*
X142056548Y-144788204D02*
X142149053Y-144735472D01*
X142149053Y-144735472D02*
X142598800Y-144062377D01*
X142915550Y-144274023D02*
X143430270Y-144617947D01*
X143430270Y-144617947D02*
X142941467Y-144749508D01*
X142941467Y-144749508D02*
X143060249Y-144828875D01*
X143060249Y-144828875D02*
X143112981Y-144921380D01*
X143112981Y-144921380D02*
X143126119Y-144987430D01*
X143126119Y-144987430D02*
X143112801Y-145093073D01*
X143112801Y-145093073D02*
X142980522Y-145291042D01*
X142980522Y-145291042D02*
X142888017Y-145343774D01*
X142888017Y-145343774D02*
X142821968Y-145356912D01*
X142821968Y-145356912D02*
X142716324Y-145343594D01*
X142716324Y-145343594D02*
X142478762Y-145184860D01*
X142478762Y-145184860D02*
X142426030Y-145092355D01*
X142426030Y-145092355D02*
X142412892Y-145026305D01*
X143694109Y-144908781D02*
X143760158Y-144895643D01*
X143760158Y-144895643D02*
X143865801Y-144908960D01*
X143865801Y-144908960D02*
X144063770Y-145041239D01*
X144063770Y-145041239D02*
X144116502Y-145133744D01*
X144116502Y-145133744D02*
X144129640Y-145199794D01*
X144129640Y-145199794D02*
X144116323Y-145305437D01*
X144116323Y-145305437D02*
X144063411Y-145384625D01*
X144063411Y-145384625D02*
X143944450Y-145476950D01*
X143944450Y-145476950D02*
X143151856Y-145634607D01*
X143151856Y-145634607D02*
X143666575Y-145978532D01*
X163904325Y-147003822D02*
X164214117Y-147751725D01*
X164214117Y-147751725D02*
X164294557Y-147821490D01*
X164294557Y-147821490D02*
X164356774Y-147847262D01*
X164356774Y-147847262D02*
X164462986Y-147854810D01*
X164462986Y-147854810D02*
X164638963Y-147781918D01*
X164638963Y-147781918D02*
X164708728Y-147701477D01*
X164708728Y-147701477D02*
X164734500Y-147639260D01*
X164734500Y-147639260D02*
X164742048Y-147533049D01*
X164742048Y-147533049D02*
X164432257Y-146785146D01*
X164864651Y-146709127D02*
X164890422Y-146646910D01*
X164890422Y-146646910D02*
X164960188Y-146566470D01*
X164960188Y-146566470D02*
X165180159Y-146475355D01*
X165180159Y-146475355D02*
X165286371Y-146482903D01*
X165286371Y-146482903D02*
X165348588Y-146508674D01*
X165348588Y-146508674D02*
X165429028Y-146578440D01*
X165429028Y-146578440D02*
X165465474Y-146666428D01*
X165465474Y-146666428D02*
X165476149Y-146816634D01*
X165476149Y-146816634D02*
X165166894Y-147563241D01*
X165166894Y-147563241D02*
X165738819Y-147326342D01*
X165664096Y-146274902D02*
X166280016Y-146019779D01*
X166280016Y-146019779D02*
X166266751Y-147107666D01*
X154761905Y-100579819D02*
X154761905Y-101389342D01*
X154761905Y-101389342D02*
X154809524Y-101484580D01*
X154809524Y-101484580D02*
X154857143Y-101532200D01*
X154857143Y-101532200D02*
X154952381Y-101579819D01*
X154952381Y-101579819D02*
X155142857Y-101579819D01*
X155142857Y-101579819D02*
X155238095Y-101532200D01*
X155238095Y-101532200D02*
X155285714Y-101484580D01*
X155285714Y-101484580D02*
X155333333Y-101389342D01*
X155333333Y-101389342D02*
X155333333Y-100579819D01*
X156333333Y-101579819D02*
X155761905Y-101579819D01*
X156047619Y-101579819D02*
X156047619Y-100579819D01*
X156047619Y-100579819D02*
X155952381Y-100722676D01*
X155952381Y-100722676D02*
X155857143Y-100817914D01*
X155857143Y-100817914D02*
X155761905Y-100865533D01*
X156666667Y-100579819D02*
X157285714Y-100579819D01*
X157285714Y-100579819D02*
X156952381Y-100960771D01*
X156952381Y-100960771D02*
X157095238Y-100960771D01*
X157095238Y-100960771D02*
X157190476Y-101008390D01*
X157190476Y-101008390D02*
X157238095Y-101056009D01*
X157238095Y-101056009D02*
X157285714Y-101151247D01*
X157285714Y-101151247D02*
X157285714Y-101389342D01*
X157285714Y-101389342D02*
X157238095Y-101484580D01*
X157238095Y-101484580D02*
X157190476Y-101532200D01*
X157190476Y-101532200D02*
X157095238Y-101579819D01*
X157095238Y-101579819D02*
X156809524Y-101579819D01*
X156809524Y-101579819D02*
X156714286Y-101532200D01*
X156714286Y-101532200D02*
X156666667Y-101484580D01*
X159551036Y-100795313D02*
X159393106Y-101589282D01*
X159393106Y-101589282D02*
X159421230Y-101691980D01*
X159421230Y-101691980D02*
X159458644Y-101747974D01*
X159458644Y-101747974D02*
X159542762Y-101813258D01*
X159542762Y-101813258D02*
X159729578Y-101850418D01*
X159729578Y-101850418D02*
X159832276Y-101822294D01*
X159832276Y-101822294D02*
X159888270Y-101784880D01*
X159888270Y-101784880D02*
X159953554Y-101700762D01*
X159953554Y-101700762D02*
X160111485Y-100906793D01*
X160897180Y-102082669D02*
X160336731Y-101971188D01*
X160616955Y-102026928D02*
X160812046Y-101046143D01*
X160812046Y-101046143D02*
X160690767Y-101167675D01*
X160690767Y-101167675D02*
X160578779Y-101242503D01*
X160578779Y-101242503D02*
X160476081Y-101270627D01*
X161867913Y-101596032D02*
X161737853Y-102249889D01*
X161708713Y-101175949D02*
X161335842Y-101830060D01*
X161335842Y-101830060D02*
X161942995Y-101950830D01*
X179392319Y-126175595D02*
X180201842Y-126175595D01*
X180201842Y-126175595D02*
X180297080Y-126127976D01*
X180297080Y-126127976D02*
X180344700Y-126080357D01*
X180344700Y-126080357D02*
X180392319Y-125985119D01*
X180392319Y-125985119D02*
X180392319Y-125794643D01*
X180392319Y-125794643D02*
X180344700Y-125699405D01*
X180344700Y-125699405D02*
X180297080Y-125651786D01*
X180297080Y-125651786D02*
X180201842Y-125604167D01*
X180201842Y-125604167D02*
X179392319Y-125604167D01*
X179487557Y-125175595D02*
X179439938Y-125127976D01*
X179439938Y-125127976D02*
X179392319Y-125032738D01*
X179392319Y-125032738D02*
X179392319Y-124794643D01*
X179392319Y-124794643D02*
X179439938Y-124699405D01*
X179439938Y-124699405D02*
X179487557Y-124651786D01*
X179487557Y-124651786D02*
X179582795Y-124604167D01*
X179582795Y-124604167D02*
X179678033Y-124604167D01*
X179678033Y-124604167D02*
X179820890Y-124651786D01*
X179820890Y-124651786D02*
X180392319Y-125223214D01*
X180392319Y-125223214D02*
X180392319Y-124604167D01*
X180392319Y-123651786D02*
X180392319Y-124223214D01*
X180392319Y-123937500D02*
X179392319Y-123937500D01*
X179392319Y-123937500D02*
X179535176Y-124032738D01*
X179535176Y-124032738D02*
X179630414Y-124127976D01*
X179630414Y-124127976D02*
X179678033Y-124223214D01*
X168046381Y-145051160D02*
X168496128Y-145724254D01*
X168496128Y-145724254D02*
X168588634Y-145776986D01*
X168588634Y-145776986D02*
X168654683Y-145790124D01*
X168654683Y-145790124D02*
X168760326Y-145776806D01*
X168760326Y-145776806D02*
X168918702Y-145670984D01*
X168918702Y-145670984D02*
X168971433Y-145578478D01*
X168971433Y-145578478D02*
X168984572Y-145512429D01*
X168984572Y-145512429D02*
X168971254Y-145406785D01*
X168971254Y-145406785D02*
X168521507Y-144733691D01*
X168930762Y-144574777D02*
X168943900Y-144508728D01*
X168943900Y-144508728D02*
X168996632Y-144416222D01*
X168996632Y-144416222D02*
X169194601Y-144283944D01*
X169194601Y-144283944D02*
X169300244Y-144270626D01*
X169300244Y-144270626D02*
X169366294Y-144283764D01*
X169366294Y-144283764D02*
X169458799Y-144336496D01*
X169458799Y-144336496D02*
X169511710Y-144415684D01*
X169511710Y-144415684D02*
X169551484Y-144560921D01*
X169551484Y-144560921D02*
X169393827Y-145353515D01*
X169393827Y-145353515D02*
X169908546Y-145009590D01*
X170065664Y-143701918D02*
X169907289Y-143807741D01*
X169907289Y-143807741D02*
X169854557Y-143900246D01*
X169854557Y-143900246D02*
X169841419Y-143966295D01*
X169841419Y-143966295D02*
X169841599Y-144137988D01*
X169841599Y-144137988D02*
X169907828Y-144322819D01*
X169907828Y-144322819D02*
X170119474Y-144639569D01*
X170119474Y-144639569D02*
X170211979Y-144692301D01*
X170211979Y-144692301D02*
X170278029Y-144705439D01*
X170278029Y-144705439D02*
X170383672Y-144692122D01*
X170383672Y-144692122D02*
X170542047Y-144586299D01*
X170542047Y-144586299D02*
X170594779Y-144493794D01*
X170594779Y-144493794D02*
X170607917Y-144427744D01*
X170607917Y-144427744D02*
X170594599Y-144322101D01*
X170594599Y-144322101D02*
X170462321Y-144124132D01*
X170462321Y-144124132D02*
X170369815Y-144071400D01*
X170369815Y-144071400D02*
X170303766Y-144058262D01*
X170303766Y-144058262D02*
X170198123Y-144071579D01*
X170198123Y-144071579D02*
X170039747Y-144177402D01*
X170039747Y-144177402D02*
X169987016Y-144269908D01*
X169987016Y-144269908D02*
X169973877Y-144335957D01*
X169973877Y-144335957D02*
X169987195Y-144441600D01*
X178126089Y-114453208D02*
X177378186Y-114763000D01*
X177378186Y-114763000D02*
X177308421Y-114843440D01*
X177308421Y-114843440D02*
X177282649Y-114905657D01*
X177282649Y-114905657D02*
X177275101Y-115011869D01*
X177275101Y-115011869D02*
X177347993Y-115187846D01*
X177347993Y-115187846D02*
X177428434Y-115257611D01*
X177428434Y-115257611D02*
X177490651Y-115283383D01*
X177490651Y-115283383D02*
X177596862Y-115290931D01*
X177596862Y-115290931D02*
X178344765Y-114981140D01*
X177803569Y-116287702D02*
X177584893Y-115759771D01*
X177694231Y-116023737D02*
X178618110Y-115641053D01*
X178618110Y-115641053D02*
X178449681Y-115607734D01*
X178449681Y-115607734D02*
X178325247Y-115556191D01*
X178325247Y-115556191D02*
X178244807Y-115486426D01*
X177985799Y-116727645D02*
X178058691Y-116903622D01*
X178058691Y-116903622D02*
X178139131Y-116973388D01*
X178139131Y-116973388D02*
X178201349Y-116999159D01*
X178201349Y-116999159D02*
X178369778Y-117032478D01*
X178369778Y-117032478D02*
X178563978Y-117003581D01*
X178563978Y-117003581D02*
X178915932Y-116857796D01*
X178915932Y-116857796D02*
X178985697Y-116777356D01*
X178985697Y-116777356D02*
X179011468Y-116715139D01*
X179011468Y-116715139D02*
X179019017Y-116608927D01*
X179019017Y-116608927D02*
X178946125Y-116432950D01*
X178946125Y-116432950D02*
X178865684Y-116363185D01*
X178865684Y-116363185D02*
X178803467Y-116337413D01*
X178803467Y-116337413D02*
X178697255Y-116329865D01*
X178697255Y-116329865D02*
X178477284Y-116420980D01*
X178477284Y-116420980D02*
X178407519Y-116501421D01*
X178407519Y-116501421D02*
X178381747Y-116563638D01*
X178381747Y-116563638D02*
X178374199Y-116669849D01*
X178374199Y-116669849D02*
X178447091Y-116845827D01*
X178447091Y-116845827D02*
X178527532Y-116915592D01*
X178527532Y-116915592D02*
X178589749Y-116941363D01*
X178589749Y-116941363D02*
X178695960Y-116948912D01*
X131950713Y-121044422D02*
X132744682Y-121202352D01*
X132744682Y-121202352D02*
X132847380Y-121174228D01*
X132847380Y-121174228D02*
X132903374Y-121136814D01*
X132903374Y-121136814D02*
X132968658Y-121052696D01*
X132968658Y-121052696D02*
X133005818Y-120865880D01*
X133005818Y-120865880D02*
X132977694Y-120763182D01*
X132977694Y-120763182D02*
X132940280Y-120707188D01*
X132940280Y-120707188D02*
X132856162Y-120641903D01*
X132856162Y-120641903D02*
X132062193Y-120483973D01*
X132238703Y-119596596D02*
X132201543Y-119783412D01*
X132201543Y-119783412D02*
X132229667Y-119886110D01*
X132229667Y-119886110D02*
X132267081Y-119942105D01*
X132267081Y-119942105D02*
X132388613Y-120063383D01*
X132388613Y-120063383D02*
X132566140Y-120147247D01*
X132566140Y-120147247D02*
X132939772Y-120221567D01*
X132939772Y-120221567D02*
X133042470Y-120193443D01*
X133042470Y-120193443D02*
X133098464Y-120156029D01*
X133098464Y-120156029D02*
X133163748Y-120071911D01*
X133163748Y-120071911D02*
X133200909Y-119885095D01*
X133200909Y-119885095D02*
X133172784Y-119782396D01*
X133172784Y-119782396D02*
X133135370Y-119726402D01*
X133135370Y-119726402D02*
X133051252Y-119661118D01*
X133051252Y-119661118D02*
X132817732Y-119614668D01*
X132817732Y-119614668D02*
X132715034Y-119642792D01*
X132715034Y-119642792D02*
X132659040Y-119680206D01*
X132659040Y-119680206D02*
X132593756Y-119764324D01*
X132593756Y-119764324D02*
X132556596Y-119951141D01*
X132556596Y-119951141D02*
X132584720Y-120053839D01*
X132584720Y-120053839D02*
X132622134Y-120109833D01*
X132622134Y-120109833D02*
X132706252Y-120175117D01*
X138734555Y-140665401D02*
X138162136Y-141237821D01*
X138162136Y-141237821D02*
X138128464Y-141338836D01*
X138128464Y-141338836D02*
X138128464Y-141406180D01*
X138128464Y-141406180D02*
X138162136Y-141507195D01*
X138162136Y-141507195D02*
X138296823Y-141641882D01*
X138296823Y-141641882D02*
X138397838Y-141675554D01*
X138397838Y-141675554D02*
X138465181Y-141675554D01*
X138465181Y-141675554D02*
X138566197Y-141641882D01*
X138566197Y-141641882D02*
X139138616Y-141069462D01*
X139407990Y-141338836D02*
X139845723Y-141776569D01*
X139845723Y-141776569D02*
X139340647Y-141810241D01*
X139340647Y-141810241D02*
X139441662Y-141911256D01*
X139441662Y-141911256D02*
X139475334Y-142012271D01*
X139475334Y-142012271D02*
X139475334Y-142079615D01*
X139475334Y-142079615D02*
X139441662Y-142180630D01*
X139441662Y-142180630D02*
X139273303Y-142348989D01*
X139273303Y-142348989D02*
X139172288Y-142382660D01*
X139172288Y-142382660D02*
X139104945Y-142382660D01*
X139104945Y-142382660D02*
X139003929Y-142348989D01*
X139003929Y-142348989D02*
X138801899Y-142146958D01*
X138801899Y-142146958D02*
X138768227Y-142045943D01*
X138768227Y-142045943D02*
X138768227Y-141978599D01*
X140081426Y-142012271D02*
X140519158Y-142450004D01*
X140519158Y-142450004D02*
X140014082Y-142483676D01*
X140014082Y-142483676D02*
X140115097Y-142584691D01*
X140115097Y-142584691D02*
X140148769Y-142685706D01*
X140148769Y-142685706D02*
X140148769Y-142753050D01*
X140148769Y-142753050D02*
X140115097Y-142854065D01*
X140115097Y-142854065D02*
X139946738Y-143022424D01*
X139946738Y-143022424D02*
X139845723Y-143056096D01*
X139845723Y-143056096D02*
X139778380Y-143056096D01*
X139778380Y-143056096D02*
X139677364Y-143022424D01*
X139677364Y-143022424D02*
X139475334Y-142820393D01*
X139475334Y-142820393D02*
X139441662Y-142719378D01*
X139441662Y-142719378D02*
X139441662Y-142652034D01*
X135299846Y-112118341D02*
X135972941Y-112568088D01*
X135972941Y-112568088D02*
X136078584Y-112581406D01*
X136078584Y-112581406D02*
X136144634Y-112568268D01*
X136144634Y-112568268D02*
X136237139Y-112515536D01*
X136237139Y-112515536D02*
X136342962Y-112357161D01*
X136342962Y-112357161D02*
X136356280Y-112251517D01*
X136356280Y-112251517D02*
X136343142Y-112185468D01*
X136343142Y-112185468D02*
X136290410Y-112092963D01*
X136290410Y-112092963D02*
X135617315Y-111643215D01*
X136317584Y-111366598D02*
X136225078Y-111419329D01*
X136225078Y-111419329D02*
X136159029Y-111432468D01*
X136159029Y-111432468D02*
X136053386Y-111419150D01*
X136053386Y-111419150D02*
X136013792Y-111392694D01*
X136013792Y-111392694D02*
X135961060Y-111300189D01*
X135961060Y-111300189D02*
X135947922Y-111234139D01*
X135947922Y-111234139D02*
X135961240Y-111128496D01*
X135961240Y-111128496D02*
X136067063Y-110970121D01*
X136067063Y-110970121D02*
X136159568Y-110917389D01*
X136159568Y-110917389D02*
X136225617Y-110904251D01*
X136225617Y-110904251D02*
X136331261Y-110917569D01*
X136331261Y-110917569D02*
X136370854Y-110944024D01*
X136370854Y-110944024D02*
X136423586Y-111036530D01*
X136423586Y-111036530D02*
X136436724Y-111102579D01*
X136436724Y-111102579D02*
X136423407Y-111208222D01*
X136423407Y-111208222D02*
X136317584Y-111366598D01*
X136317584Y-111366598D02*
X136304266Y-111472241D01*
X136304266Y-111472241D02*
X136317404Y-111538290D01*
X136317404Y-111538290D02*
X136370136Y-111630796D01*
X136370136Y-111630796D02*
X136528511Y-111736619D01*
X136528511Y-111736619D02*
X136634154Y-111749936D01*
X136634154Y-111749936D02*
X136700204Y-111736798D01*
X136700204Y-111736798D02*
X136792709Y-111684066D01*
X136792709Y-111684066D02*
X136898532Y-111525691D01*
X136898532Y-111525691D02*
X136911850Y-111420048D01*
X136911850Y-111420048D02*
X136898712Y-111353998D01*
X136898712Y-111353998D02*
X136845980Y-111261493D01*
X136845980Y-111261493D02*
X136687605Y-111155670D01*
X136687605Y-111155670D02*
X136581961Y-111142353D01*
X136581961Y-111142353D02*
X136515912Y-111155491D01*
X136515912Y-111155491D02*
X136423407Y-111208222D01*
X141413968Y-105417933D02*
X141863715Y-106091027D01*
X141863715Y-106091027D02*
X141956221Y-106143759D01*
X141956221Y-106143759D02*
X142022270Y-106156897D01*
X142022270Y-106156897D02*
X142127913Y-106143579D01*
X142127913Y-106143579D02*
X142286289Y-106037757D01*
X142286289Y-106037757D02*
X142339020Y-105945251D01*
X142339020Y-105945251D02*
X142352159Y-105879202D01*
X142352159Y-105879202D02*
X142338841Y-105773558D01*
X142338841Y-105773558D02*
X141889094Y-105100464D01*
X143276133Y-105376363D02*
X142801008Y-105693832D01*
X143038571Y-105535098D02*
X142483000Y-104703628D01*
X142483000Y-104703628D02*
X142483180Y-104875321D01*
X142483180Y-104875321D02*
X142456904Y-105007420D01*
X142456904Y-105007420D02*
X142404172Y-105099925D01*
X143235282Y-104200969D02*
X143314470Y-104148058D01*
X143314470Y-104148058D02*
X143420113Y-104134740D01*
X143420113Y-104134740D02*
X143486163Y-104147878D01*
X143486163Y-104147878D02*
X143578668Y-104200610D01*
X143578668Y-104200610D02*
X143724085Y-104332530D01*
X143724085Y-104332530D02*
X143856363Y-104530499D01*
X143856363Y-104530499D02*
X143922592Y-104715329D01*
X143922592Y-104715329D02*
X143935910Y-104820973D01*
X143935910Y-104820973D02*
X143922772Y-104887022D01*
X143922772Y-104887022D02*
X143870040Y-104979527D01*
X143870040Y-104979527D02*
X143790853Y-105032439D01*
X143790853Y-105032439D02*
X143685209Y-105045757D01*
X143685209Y-105045757D02*
X143619160Y-105032619D01*
X143619160Y-105032619D02*
X143526655Y-104979887D01*
X143526655Y-104979887D02*
X143381238Y-104847967D01*
X143381238Y-104847967D02*
X143248959Y-104649998D01*
X143248959Y-104649998D02*
X143182730Y-104465167D01*
X143182730Y-104465167D02*
X143169412Y-104359524D01*
X143169412Y-104359524D02*
X143182551Y-104293475D01*
X143182551Y-104293475D02*
X143235282Y-104200969D01*
X159460915Y-148110888D02*
X159618845Y-148904857D01*
X159618845Y-148904857D02*
X159684129Y-148988975D01*
X159684129Y-148988975D02*
X159740123Y-149026390D01*
X159740123Y-149026390D02*
X159842821Y-149054514D01*
X159842821Y-149054514D02*
X160029638Y-149017354D01*
X160029638Y-149017354D02*
X160113756Y-148952069D01*
X160113756Y-148952069D02*
X160151170Y-148896075D01*
X160151170Y-148896075D02*
X160179294Y-148793377D01*
X160179294Y-148793377D02*
X160021364Y-147999408D01*
X160460280Y-148009206D02*
X160497694Y-147953212D01*
X160497694Y-147953212D02*
X160581812Y-147887928D01*
X160581812Y-147887928D02*
X160815333Y-147841478D01*
X160815333Y-147841478D02*
X160918031Y-147869602D01*
X160918031Y-147869602D02*
X160974025Y-147907016D01*
X160974025Y-147907016D02*
X161039309Y-147991134D01*
X161039309Y-147991134D02*
X161057889Y-148084542D01*
X161057889Y-148084542D02*
X161039055Y-148233944D01*
X161039055Y-148233944D02*
X160590086Y-148905873D01*
X160590086Y-148905873D02*
X161197239Y-148785103D01*
X161646208Y-148113174D02*
X161543510Y-148085050D01*
X161543510Y-148085050D02*
X161487516Y-148047636D01*
X161487516Y-148047636D02*
X161422231Y-147963518D01*
X161422231Y-147963518D02*
X161412941Y-147916814D01*
X161412941Y-147916814D02*
X161441065Y-147814116D01*
X161441065Y-147814116D02*
X161478479Y-147758122D01*
X161478479Y-147758122D02*
X161562598Y-147692838D01*
X161562598Y-147692838D02*
X161749414Y-147655678D01*
X161749414Y-147655678D02*
X161852112Y-147683802D01*
X161852112Y-147683802D02*
X161908106Y-147721216D01*
X161908106Y-147721216D02*
X161973390Y-147805334D01*
X161973390Y-147805334D02*
X161982680Y-147852038D01*
X161982680Y-147852038D02*
X161954556Y-147954736D01*
X161954556Y-147954736D02*
X161917142Y-148010730D01*
X161917142Y-148010730D02*
X161833024Y-148076014D01*
X161833024Y-148076014D02*
X161646208Y-148113174D01*
X161646208Y-148113174D02*
X161562090Y-148178458D01*
X161562090Y-148178458D02*
X161524676Y-148234452D01*
X161524676Y-148234452D02*
X161496552Y-148337151D01*
X161496552Y-148337151D02*
X161533712Y-148523967D01*
X161533712Y-148523967D02*
X161598996Y-148608085D01*
X161598996Y-148608085D02*
X161654990Y-148645499D01*
X161654990Y-148645499D02*
X161757688Y-148673623D01*
X161757688Y-148673623D02*
X161944504Y-148636463D01*
X161944504Y-148636463D02*
X162028622Y-148571179D01*
X162028622Y-148571179D02*
X162066036Y-148515185D01*
X162066036Y-148515185D02*
X162094160Y-148412487D01*
X162094160Y-148412487D02*
X162057000Y-148225670D01*
X162057000Y-148225670D02*
X161991716Y-148141552D01*
X161991716Y-148141552D02*
X161935722Y-148104138D01*
X161935722Y-148104138D02*
X161833024Y-148076014D01*
X177166561Y-135014041D02*
X177914463Y-135323833D01*
X177914463Y-135323833D02*
X178020675Y-135316284D01*
X178020675Y-135316284D02*
X178082892Y-135290513D01*
X178082892Y-135290513D02*
X178163332Y-135220748D01*
X178163332Y-135220748D02*
X178236224Y-135044771D01*
X178236224Y-135044771D02*
X178228676Y-134938559D01*
X178228676Y-134938559D02*
X178202905Y-134876342D01*
X178202905Y-134876342D02*
X178133139Y-134795901D01*
X178133139Y-134795901D02*
X177385237Y-134486110D01*
X177637233Y-134126608D02*
X177611461Y-134064390D01*
X177611461Y-134064390D02*
X177603913Y-133958179D01*
X177603913Y-133958179D02*
X177695028Y-133738208D01*
X177695028Y-133738208D02*
X177775469Y-133668442D01*
X177775469Y-133668442D02*
X177837686Y-133642671D01*
X177837686Y-133642671D02*
X177943897Y-133635123D01*
X177943897Y-133635123D02*
X178031886Y-133671569D01*
X178031886Y-133671569D02*
X178145646Y-133770232D01*
X178145646Y-133770232D02*
X178454901Y-134516839D01*
X178454901Y-134516839D02*
X178691800Y-133944914D01*
X177895481Y-133254271D02*
X178132381Y-132682345D01*
X178132381Y-132682345D02*
X178356774Y-133136089D01*
X178356774Y-133136089D02*
X178411443Y-133004106D01*
X178411443Y-133004106D02*
X178491883Y-132934341D01*
X178491883Y-132934341D02*
X178554100Y-132908570D01*
X178554100Y-132908570D02*
X178660312Y-132901021D01*
X178660312Y-132901021D02*
X178880283Y-132992137D01*
X178880283Y-132992137D02*
X178950049Y-133072577D01*
X178950049Y-133072577D02*
X178975820Y-133134794D01*
X178975820Y-133134794D02*
X178983368Y-133241006D01*
X178983368Y-133241006D02*
X178874030Y-133504971D01*
X178874030Y-133504971D02*
X178793590Y-133574737D01*
X178793590Y-133574737D02*
X178731372Y-133600508D01*
X171727901Y-142327943D02*
X172300321Y-142900362D01*
X172300321Y-142900362D02*
X172401336Y-142934034D01*
X172401336Y-142934034D02*
X172468680Y-142934034D01*
X172468680Y-142934034D02*
X172569695Y-142900362D01*
X172569695Y-142900362D02*
X172704382Y-142765675D01*
X172704382Y-142765675D02*
X172738054Y-142664660D01*
X172738054Y-142664660D02*
X172738054Y-142597317D01*
X172738054Y-142597317D02*
X172704382Y-142496301D01*
X172704382Y-142496301D02*
X172131962Y-141923882D01*
X172502351Y-141688179D02*
X172502351Y-141620836D01*
X172502351Y-141620836D02*
X172536023Y-141519821D01*
X172536023Y-141519821D02*
X172704382Y-141351462D01*
X172704382Y-141351462D02*
X172805397Y-141317790D01*
X172805397Y-141317790D02*
X172872741Y-141317790D01*
X172872741Y-141317790D02*
X172973756Y-141351462D01*
X172973756Y-141351462D02*
X173041099Y-141418805D01*
X173041099Y-141418805D02*
X173108443Y-141553492D01*
X173108443Y-141553492D02*
X173108443Y-142361614D01*
X173108443Y-142361614D02*
X173546176Y-141923882D01*
X173478832Y-140577011D02*
X173142115Y-140913729D01*
X173142115Y-140913729D02*
X173445160Y-141284118D01*
X173445160Y-141284118D02*
X173445160Y-141216775D01*
X173445160Y-141216775D02*
X173478832Y-141115760D01*
X173478832Y-141115760D02*
X173647191Y-140947401D01*
X173647191Y-140947401D02*
X173748206Y-140913729D01*
X173748206Y-140913729D02*
X173815550Y-140913729D01*
X173815550Y-140913729D02*
X173916565Y-140947401D01*
X173916565Y-140947401D02*
X174084924Y-141115760D01*
X174084924Y-141115760D02*
X174118596Y-141216775D01*
X174118596Y-141216775D02*
X174118596Y-141284118D01*
X174118596Y-141284118D02*
X174084924Y-141385134D01*
X174084924Y-141385134D02*
X173916565Y-141553492D01*
X173916565Y-141553492D02*
X173815550Y-141587164D01*
X173815550Y-141587164D02*
X173748206Y-141587164D01*
X150358071Y-147652194D02*
X150200141Y-148446163D01*
X150200141Y-148446163D02*
X150228265Y-148548861D01*
X150228265Y-148548861D02*
X150265679Y-148604855D01*
X150265679Y-148604855D02*
X150349797Y-148670139D01*
X150349797Y-148670139D02*
X150536613Y-148707299D01*
X150536613Y-148707299D02*
X150639311Y-148679175D01*
X150639311Y-148679175D02*
X150695305Y-148641761D01*
X150695305Y-148641761D02*
X150760589Y-148557643D01*
X150760589Y-148557643D02*
X150918520Y-147763674D01*
X151292152Y-147837994D02*
X151899305Y-147958764D01*
X151899305Y-147958764D02*
X151498056Y-148267367D01*
X151498056Y-148267367D02*
X151638169Y-148295237D01*
X151638169Y-148295237D02*
X151722287Y-148360521D01*
X151722287Y-148360521D02*
X151759701Y-148416515D01*
X151759701Y-148416515D02*
X151787825Y-148519213D01*
X151787825Y-148519213D02*
X151741375Y-148752733D01*
X151741375Y-148752733D02*
X151676091Y-148836851D01*
X151676091Y-148836851D02*
X151620096Y-148874265D01*
X151620096Y-148874265D02*
X151517398Y-148902389D01*
X151517398Y-148902389D02*
X151237174Y-148846649D01*
X151237174Y-148846649D02*
X151153056Y-148781365D01*
X151153056Y-148781365D02*
X151115642Y-148725371D01*
X152506458Y-148079534D02*
X152599866Y-148098114D01*
X152599866Y-148098114D02*
X152683984Y-148163399D01*
X152683984Y-148163399D02*
X152721398Y-148219393D01*
X152721398Y-148219393D02*
X152749522Y-148322091D01*
X152749522Y-148322091D02*
X152759066Y-148518197D01*
X152759066Y-148518197D02*
X152712616Y-148751717D01*
X152712616Y-148751717D02*
X152628752Y-148929244D01*
X152628752Y-148929244D02*
X152563468Y-149013362D01*
X152563468Y-149013362D02*
X152507474Y-149050776D01*
X152507474Y-149050776D02*
X152404776Y-149078900D01*
X152404776Y-149078900D02*
X152311367Y-149060320D01*
X152311367Y-149060320D02*
X152227249Y-148995036D01*
X152227249Y-148995036D02*
X152189835Y-148939042D01*
X152189835Y-148939042D02*
X152161711Y-148836343D01*
X152161711Y-148836343D02*
X152152167Y-148640237D01*
X152152167Y-148640237D02*
X152198617Y-148406717D01*
X152198617Y-148406717D02*
X152282481Y-148229191D01*
X152282481Y-148229191D02*
X152347766Y-148145073D01*
X152347766Y-148145073D02*
X152403760Y-148107658D01*
X152403760Y-148107658D02*
X152506458Y-148079534D01*
X154886905Y-148329819D02*
X154886905Y-149139342D01*
X154886905Y-149139342D02*
X154934524Y-149234580D01*
X154934524Y-149234580D02*
X154982143Y-149282200D01*
X154982143Y-149282200D02*
X155077381Y-149329819D01*
X155077381Y-149329819D02*
X155267857Y-149329819D01*
X155267857Y-149329819D02*
X155363095Y-149282200D01*
X155363095Y-149282200D02*
X155410714Y-149234580D01*
X155410714Y-149234580D02*
X155458333Y-149139342D01*
X155458333Y-149139342D02*
X155458333Y-148329819D01*
X155886905Y-148425057D02*
X155934524Y-148377438D01*
X155934524Y-148377438D02*
X156029762Y-148329819D01*
X156029762Y-148329819D02*
X156267857Y-148329819D01*
X156267857Y-148329819D02*
X156363095Y-148377438D01*
X156363095Y-148377438D02*
X156410714Y-148425057D01*
X156410714Y-148425057D02*
X156458333Y-148520295D01*
X156458333Y-148520295D02*
X156458333Y-148615533D01*
X156458333Y-148615533D02*
X156410714Y-148758390D01*
X156410714Y-148758390D02*
X155839286Y-149329819D01*
X155839286Y-149329819D02*
X156458333Y-149329819D01*
X156934524Y-149329819D02*
X157125000Y-149329819D01*
X157125000Y-149329819D02*
X157220238Y-149282200D01*
X157220238Y-149282200D02*
X157267857Y-149234580D01*
X157267857Y-149234580D02*
X157363095Y-149091723D01*
X157363095Y-149091723D02*
X157410714Y-148901247D01*
X157410714Y-148901247D02*
X157410714Y-148520295D01*
X157410714Y-148520295D02*
X157363095Y-148425057D01*
X157363095Y-148425057D02*
X157315476Y-148377438D01*
X157315476Y-148377438D02*
X157220238Y-148329819D01*
X157220238Y-148329819D02*
X157029762Y-148329819D01*
X157029762Y-148329819D02*
X156934524Y-148377438D01*
X156934524Y-148377438D02*
X156886905Y-148425057D01*
X156886905Y-148425057D02*
X156839286Y-148520295D01*
X156839286Y-148520295D02*
X156839286Y-148758390D01*
X156839286Y-148758390D02*
X156886905Y-148853628D01*
X156886905Y-148853628D02*
X156934524Y-148901247D01*
X156934524Y-148901247D02*
X157029762Y-148948866D01*
X157029762Y-148948866D02*
X157220238Y-148948866D01*
X157220238Y-148948866D02*
X157315476Y-148901247D01*
X157315476Y-148901247D02*
X157363095Y-148853628D01*
X157363095Y-148853628D02*
X157410714Y-148758390D01*
X146048457Y-146104061D02*
X145738665Y-146851963D01*
X145738665Y-146851963D02*
X145746214Y-146958175D01*
X145746214Y-146958175D02*
X145771985Y-147020392D01*
X145771985Y-147020392D02*
X145841750Y-147100832D01*
X145841750Y-147100832D02*
X146017727Y-147173724D01*
X146017727Y-147173724D02*
X146123939Y-147166176D01*
X146123939Y-147166176D02*
X146186156Y-147140405D01*
X146186156Y-147140405D02*
X146266597Y-147070639D01*
X146266597Y-147070639D02*
X146576388Y-146322737D01*
X146928342Y-146468521D02*
X147500267Y-146705420D01*
X147500267Y-146705420D02*
X147046523Y-146929813D01*
X147046523Y-146929813D02*
X147178506Y-146984482D01*
X147178506Y-146984482D02*
X147248272Y-147064923D01*
X147248272Y-147064923D02*
X147274043Y-147127140D01*
X147274043Y-147127140D02*
X147281591Y-147233351D01*
X147281591Y-147233351D02*
X147190476Y-147453323D01*
X147190476Y-147453323D02*
X147110036Y-147523088D01*
X147110036Y-147523088D02*
X147047819Y-147548860D01*
X147047819Y-147548860D02*
X146941607Y-147556408D01*
X146941607Y-147556408D02*
X146677641Y-147447070D01*
X146677641Y-147447070D02*
X146607876Y-147366629D01*
X146607876Y-147366629D02*
X146582105Y-147304412D01*
X147997469Y-147993760D02*
X147469538Y-147775084D01*
X147733504Y-147884422D02*
X148116187Y-146960543D01*
X148116187Y-146960543D02*
X147973530Y-147056079D01*
X147973530Y-147056079D02*
X147849095Y-147107622D01*
X147849095Y-147107622D02*
X147742883Y-147115170D01*
X138211881Y-108315266D02*
X138784301Y-108887686D01*
X138784301Y-108887686D02*
X138885316Y-108921358D01*
X138885316Y-108921358D02*
X138952660Y-108921358D01*
X138952660Y-108921358D02*
X139053675Y-108887686D01*
X139053675Y-108887686D02*
X139188362Y-108752999D01*
X139188362Y-108752999D02*
X139222034Y-108651984D01*
X139222034Y-108651984D02*
X139222034Y-108584640D01*
X139222034Y-108584640D02*
X139188362Y-108483625D01*
X139188362Y-108483625D02*
X138615942Y-107911205D01*
X139693438Y-108247923D02*
X139828125Y-108113236D01*
X139828125Y-108113236D02*
X139861797Y-108012221D01*
X139861797Y-108012221D02*
X139861797Y-107944877D01*
X139861797Y-107944877D02*
X139828125Y-107776518D01*
X139828125Y-107776518D02*
X139727110Y-107608160D01*
X139727110Y-107608160D02*
X139457736Y-107338786D01*
X139457736Y-107338786D02*
X139356721Y-107305114D01*
X139356721Y-107305114D02*
X139289377Y-107305114D01*
X139289377Y-107305114D02*
X139188362Y-107338786D01*
X139188362Y-107338786D02*
X139053675Y-107473473D01*
X139053675Y-107473473D02*
X139020003Y-107574488D01*
X139020003Y-107574488D02*
X139020003Y-107641831D01*
X139020003Y-107641831D02*
X139053675Y-107742847D01*
X139053675Y-107742847D02*
X139222034Y-107911205D01*
X139222034Y-107911205D02*
X139323049Y-107944877D01*
X139323049Y-107944877D02*
X139390393Y-107944877D01*
X139390393Y-107944877D02*
X139491408Y-107911205D01*
X139491408Y-107911205D02*
X139626095Y-107776518D01*
X139626095Y-107776518D02*
X139659767Y-107675503D01*
X139659767Y-107675503D02*
X139659767Y-107608160D01*
X139659767Y-107608160D02*
X139626095Y-107507144D01*
D11*
%TO.C,Q7*%
X143219644Y-93994602D02*
X142619122Y-94243346D01*
X143219644Y-93994602D02*
X143820166Y-93745858D01*
X144413616Y-96877106D02*
X143813094Y-97125850D01*
X144413616Y-96877106D02*
X145014138Y-96628362D01*
X142164768Y-94485665D02*
X141816751Y-94272629D01*
X142260214Y-94088941D01*
X142164768Y-94485665D01*
G36*
X142164768Y-94485665D02*
G01*
X141816751Y-94272629D01*
X142260214Y-94088941D01*
X142164768Y-94485665D01*
G37*
%TO.C,U18*%
X174578357Y-111699021D02*
X175361711Y-112871393D01*
X172654903Y-112996259D02*
X173432701Y-114160316D01*
X174738944Y-111435370D02*
X174331222Y-111419156D01*
X174472271Y-111036265D01*
X174738944Y-111435370D01*
G36*
X174738944Y-111435370D02*
G01*
X174331222Y-111419156D01*
X174472271Y-111036265D01*
X174738944Y-111435370D01*
G37*
%TO.C,U17*%
X171627687Y-108342331D02*
X172624708Y-109339352D01*
X169994270Y-109989890D02*
X170984220Y-110979840D01*
X171733753Y-108052418D02*
X171330702Y-108116057D01*
X171394342Y-107713006D01*
X171733753Y-108052418D01*
G36*
X171733753Y-108052418D02*
G01*
X171330702Y-108116057D01*
X171394342Y-107713006D01*
X171733753Y-108052418D01*
G37*
%TO.C,U34*%
X137546642Y-138300978D02*
X136763288Y-137128606D01*
X139470096Y-137003740D02*
X138692298Y-135839683D01*
X137793777Y-138580843D02*
X137652728Y-138963734D01*
X137386055Y-138564629D01*
X137793777Y-138580843D01*
G36*
X137793777Y-138580843D02*
G01*
X137652728Y-138963734D01*
X137386055Y-138564629D01*
X137793777Y-138580843D01*
G37*
%TO.C,Q4*%
X128158379Y-106355062D02*
X127797259Y-106895518D01*
X128158379Y-106355062D02*
X128519500Y-105814607D01*
X130752565Y-108088442D02*
X130391444Y-108628897D01*
X130752565Y-108088442D02*
X131113685Y-107547986D01*
X127554102Y-107349424D02*
X127146381Y-107365639D01*
X127413054Y-106966533D01*
X127554102Y-107349424D01*
G36*
X127554102Y-107349424D02*
G01*
X127146381Y-107365639D01*
X127413054Y-106966533D01*
X127554102Y-107349424D01*
G37*
%TO.C,Q31*%
X125057102Y-137842855D02*
X125305846Y-138443377D01*
X125057102Y-137842855D02*
X124808358Y-137242333D01*
X127939606Y-136648883D02*
X128188350Y-137249405D01*
X127939606Y-136648883D02*
X127690862Y-136048361D01*
X125548165Y-138897731D02*
X125335129Y-139245748D01*
X125151441Y-138802285D01*
X125548165Y-138897731D01*
G36*
X125548165Y-138897731D02*
G01*
X125335129Y-139245748D01*
X125151441Y-138802285D01*
X125548165Y-138897731D01*
G37*
%TO.C,Q19*%
X187067897Y-137842855D02*
X187316641Y-137242333D01*
X187067897Y-137842855D02*
X186819153Y-138443377D01*
X184185393Y-136648883D02*
X184434137Y-136048361D01*
X184185393Y-136648883D02*
X183936649Y-137249405D01*
X187679609Y-137097728D02*
X187466573Y-136749711D01*
X187863297Y-136654265D01*
X187679609Y-137097728D01*
G36*
X187679609Y-137097728D02*
G01*
X187466573Y-136749711D01*
X187863297Y-136654265D01*
X187679609Y-137097728D01*
G37*
%TO.C,Q18*%
X188977653Y-131547231D02*
X189104462Y-130909720D01*
X188977653Y-131547231D02*
X188850844Y-132184741D01*
X185917603Y-130938549D02*
X186044412Y-130301039D01*
X185917603Y-130938549D02*
X185790794Y-131576060D01*
X189432244Y-130697082D02*
X189155406Y-130397313D01*
X189525887Y-130226305D01*
X189432244Y-130697082D01*
G36*
X189432244Y-130697082D02*
G01*
X189155406Y-130397313D01*
X189525887Y-130226305D01*
X189432244Y-130697082D01*
G37*
%TO.C,Q26*%
X149515268Y-157915153D02*
X150152779Y-158041962D01*
X149515268Y-157915153D02*
X148877758Y-157788344D01*
X150123950Y-154855103D02*
X150761460Y-154981912D01*
X150123950Y-154855103D02*
X149486439Y-154728294D01*
X150836194Y-158463387D02*
X150365417Y-158369744D01*
X150665186Y-158092906D01*
X150836194Y-158463387D01*
G36*
X150836194Y-158463387D02*
G01*
X150365417Y-158369744D01*
X150665186Y-158092906D01*
X150836194Y-158463387D01*
G37*
%TO.C,U35*%
X135307526Y-134433138D02*
X134767942Y-133130468D01*
X137447100Y-133536074D02*
X136911343Y-132242643D01*
X135495313Y-134755840D02*
X135282277Y-135103856D01*
X135098589Y-134660394D01*
X135495313Y-134755840D01*
G36*
X135495313Y-134755840D02*
G01*
X135282277Y-135103856D01*
X135098589Y-134660394D01*
X135495313Y-134755840D01*
G37*
%TO.C,U11*%
X146629361Y-104245026D02*
X147932031Y-103705442D01*
X147526425Y-106384600D02*
X148819856Y-105848843D01*
X146306659Y-104432813D02*
X145958643Y-104219777D01*
X146402105Y-104036089D01*
X146306659Y-104432813D01*
G36*
X146306659Y-104432813D02*
G01*
X145958643Y-104219777D01*
X146402105Y-104036089D01*
X146306659Y-104432813D01*
G37*
%TO.C,U5*%
X133277500Y-125772500D02*
X133277500Y-124362500D01*
X135597500Y-125762500D02*
X135597500Y-124362500D01*
X133327500Y-126142500D02*
X132997500Y-126382500D01*
X132997500Y-125902500D01*
X133327500Y-126142500D01*
G36*
X133327500Y-126142500D02*
G01*
X132997500Y-126382500D01*
X132997500Y-125902500D01*
X133327500Y-126142500D01*
G37*
%TO.C,Q32*%
X123147346Y-131547231D02*
X123274155Y-132184741D01*
X123147346Y-131547231D02*
X123020537Y-130909720D01*
X126207396Y-130938549D02*
X126334205Y-131576060D01*
X126207396Y-130938549D02*
X126080587Y-130301039D01*
X123423178Y-132677639D02*
X123146340Y-132977408D01*
X123052697Y-132506631D01*
X123423178Y-132677639D01*
G36*
X123423178Y-132677639D02*
G01*
X123146340Y-132977408D01*
X123052697Y-132506631D01*
X123423178Y-132677639D01*
G37*
%TO.C,Q29*%
X132331996Y-148730503D02*
X132791616Y-149190122D01*
X132331996Y-148730503D02*
X131872377Y-148270883D01*
X134538170Y-146524329D02*
X134997789Y-146983949D01*
X134538170Y-146524329D02*
X134078550Y-146064710D01*
X133125724Y-149920210D02*
X132786313Y-149580798D01*
X133189363Y-149517159D01*
X133125724Y-149920210D01*
G36*
X133125724Y-149920210D02*
G01*
X132786313Y-149580798D01*
X133189363Y-149517159D01*
X133125724Y-149920210D01*
G37*
%TO.C,U15*%
X164068244Y-103653781D02*
X165370914Y-104193364D01*
X163189658Y-105801008D02*
X164483089Y-106336765D01*
X164055291Y-103345345D02*
X163707275Y-103558382D01*
X163611829Y-103161657D01*
X164055291Y-103345345D01*
G36*
X164055291Y-103345345D02*
G01*
X163707275Y-103558382D01*
X163611829Y-103161657D01*
X164055291Y-103345345D01*
G37*
%TO.C,U36*%
X133866014Y-130202789D02*
X133590937Y-128819882D01*
X136139485Y-129740372D02*
X135866359Y-128367273D01*
X133987237Y-130555925D02*
X133710399Y-130855694D01*
X133616756Y-130384917D01*
X133987237Y-130555925D01*
G36*
X133987237Y-130555925D02*
G01*
X133710399Y-130855694D01*
X133616756Y-130384917D01*
X133987237Y-130555925D01*
G37*
%TO.C,Q23*%
X168905355Y-156005397D02*
X169505877Y-155756653D01*
X168905355Y-156005397D02*
X168304833Y-156254141D01*
X167711383Y-153122893D02*
X168311905Y-152874149D01*
X167711383Y-153122893D02*
X167110861Y-153371637D01*
X170308248Y-155727370D02*
X169864785Y-155911058D01*
X169960231Y-155514334D01*
X170308248Y-155727370D01*
G36*
X170308248Y-155727370D02*
G01*
X169864785Y-155911058D01*
X169960231Y-155514334D01*
X170308248Y-155727370D01*
G37*
%TO.C,Q27*%
X143219644Y-156005397D02*
X143820166Y-156254141D01*
X143219644Y-156005397D02*
X142619122Y-155756653D01*
X144413616Y-153122893D02*
X145014138Y-153371637D01*
X144413616Y-153122893D02*
X143813094Y-152874149D01*
X144408234Y-156800797D02*
X143964771Y-156617109D01*
X144312788Y-156404073D01*
X144408234Y-156800797D01*
G36*
X144408234Y-156800797D02*
G01*
X143964771Y-156617109D01*
X144312788Y-156404073D01*
X144408234Y-156800797D01*
G37*
%TO.C,U20*%
X178258985Y-119797210D02*
X178534062Y-121180117D01*
X175985514Y-120259627D02*
X176258640Y-121632726D01*
X178508243Y-119615082D02*
X178137762Y-119444074D01*
X178414600Y-119144305D01*
X178508243Y-119615082D01*
G36*
X178508243Y-119615082D02*
G01*
X178137762Y-119444074D01*
X178414600Y-119144305D01*
X178508243Y-119615082D01*
G37*
%TO.C,U12*%
X150859710Y-102803514D02*
X152242617Y-102528437D01*
X151322127Y-105076985D02*
X152695226Y-104803859D01*
X150506574Y-102924737D02*
X150206805Y-102647899D01*
X150677582Y-102554256D01*
X150506574Y-102924737D01*
G36*
X150506574Y-102924737D02*
G01*
X150206805Y-102647899D01*
X150677582Y-102554256D01*
X150506574Y-102924737D01*
G37*
%TO.C,Q14*%
X183966620Y-106355062D02*
X183605499Y-105814607D01*
X183966620Y-106355062D02*
X184327740Y-106895518D01*
X181372434Y-108088442D02*
X181011314Y-107547986D01*
X181372434Y-108088442D02*
X181733555Y-108628897D01*
X183686918Y-105432472D02*
X183279196Y-105416258D01*
X183420244Y-105033367D01*
X183686918Y-105432472D01*
G36*
X183686918Y-105432472D02*
G01*
X183279196Y-105416258D01*
X183420244Y-105033367D01*
X183686918Y-105432472D01*
G37*
%TO.C,U7*%
X134716281Y-116994255D02*
X135255864Y-115691585D01*
X136863508Y-117872841D02*
X137399265Y-116579410D01*
X134620882Y-117355224D02*
X134224157Y-117450670D01*
X134407845Y-117007208D01*
X134620882Y-117355224D01*
G36*
X134620882Y-117355224D02*
G01*
X134224157Y-117450670D01*
X134407845Y-117007208D01*
X134620882Y-117355224D01*
G37*
%TO.C,U24*%
X175436713Y-137016357D02*
X174653359Y-138188729D01*
X173502147Y-135735749D02*
X172724349Y-136899806D01*
X175741748Y-137063826D02*
X175600700Y-136680935D01*
X176008422Y-136664720D01*
X175741748Y-137063826D01*
G36*
X175741748Y-137063826D02*
G01*
X175600700Y-136680935D01*
X176008422Y-136664720D01*
X175741748Y-137063826D01*
G37*
%TO.C,U16*%
X168078857Y-105625786D02*
X169251229Y-106409140D01*
X166798249Y-107560352D02*
X167962306Y-108338150D01*
X168126326Y-105320751D02*
X167743435Y-105461799D01*
X167727220Y-105054077D01*
X168126326Y-105320751D01*
G36*
X168126326Y-105320751D02*
G01*
X167743435Y-105461799D01*
X167727220Y-105054077D01*
X168126326Y-105320751D01*
G37*
%TO.C,Q15*%
X187067897Y-112157144D02*
X186819153Y-111556622D01*
X187067897Y-112157144D02*
X187316641Y-112757666D01*
X184185393Y-113351116D02*
X183936649Y-112750594D01*
X184185393Y-113351116D02*
X184434137Y-113951638D01*
X186973558Y-111197714D02*
X186576834Y-111102268D01*
X186789870Y-110754251D01*
X186973558Y-111197714D01*
G36*
X186973558Y-111197714D02*
G01*
X186576834Y-111102268D01*
X186789870Y-110754251D01*
X186973558Y-111197714D01*
G37*
%TO.C,Q21*%
X179793003Y-148730503D02*
X180252622Y-148270883D01*
X179793003Y-148730503D02*
X179333383Y-149190122D01*
X177586829Y-146524329D02*
X178046449Y-146064710D01*
X177586829Y-146524329D02*
X177127210Y-146983949D01*
X180982710Y-147936775D02*
X180643298Y-148276186D01*
X180579659Y-147873136D01*
X180982710Y-147936775D01*
G36*
X180982710Y-147936775D02*
G01*
X180643298Y-148276186D01*
X180579659Y-147873136D01*
X180982710Y-147936775D01*
G37*
%TO.C,U22*%
X178560399Y-128687476D02*
X178285322Y-130070383D01*
X176283026Y-128244675D02*
X176009900Y-129617774D01*
X178860381Y-128614599D02*
X178583543Y-128314831D01*
X178954024Y-128143822D01*
X178860381Y-128614599D01*
G36*
X178860381Y-128614599D02*
G01*
X178583543Y-128314831D01*
X178954024Y-128143822D01*
X178860381Y-128614599D01*
G37*
%TO.C,U32*%
X144046142Y-144374213D02*
X142873770Y-143590859D01*
X145326750Y-142439647D02*
X144162693Y-141661849D01*
X144397779Y-144945922D02*
X143998673Y-144679248D01*
X144381564Y-144538200D01*
X144397779Y-144945922D01*
G36*
X144397779Y-144945922D02*
G01*
X143998673Y-144679248D01*
X144381564Y-144538200D01*
X144397779Y-144945922D01*
G37*
%TO.C,U27*%
X165495638Y-145754973D02*
X164192968Y-146294557D01*
X164598574Y-143615399D02*
X163305143Y-144151156D01*
X166166356Y-145780222D02*
X165722894Y-145963910D01*
X165818340Y-145567186D01*
X166166356Y-145780222D01*
G36*
X166166356Y-145780222D02*
G01*
X165722894Y-145963910D01*
X165818340Y-145567186D01*
X166166356Y-145780222D01*
G37*
%TO.C,Q25*%
X156062500Y-158560000D02*
X156712500Y-158560000D01*
X156062500Y-158560000D02*
X155412500Y-158560000D01*
X156062500Y-155440000D02*
X156712500Y-155440000D01*
X156062500Y-155440000D02*
X155412500Y-155440000D01*
X157465000Y-158840000D02*
X156985000Y-158840000D01*
X157225000Y-158510000D01*
X157465000Y-158840000D01*
G36*
X157465000Y-158840000D02*
G01*
X156985000Y-158840000D01*
X157225000Y-158510000D01*
X157465000Y-158840000D01*
G37*
%TO.C,U13*%
X155290000Y-102215000D02*
X156700000Y-102215000D01*
X155300000Y-104535000D02*
X156700000Y-104535000D01*
X154920000Y-102265000D02*
X154680000Y-101935000D01*
X155160000Y-101935000D01*
X154920000Y-102265000D01*
G36*
X154920000Y-102265000D02*
G01*
X154680000Y-101935000D01*
X155160000Y-101935000D01*
X154920000Y-102265000D01*
G37*
%TO.C,Q17*%
X189622500Y-125000000D02*
X189622500Y-124350000D01*
X189622500Y-125000000D02*
X189622500Y-125650000D01*
X186502500Y-125000000D02*
X186502500Y-124350000D01*
X186502500Y-125000000D02*
X186502500Y-125650000D01*
X189902500Y-124077500D02*
X189572500Y-123837500D01*
X189902500Y-123597500D01*
X189902500Y-124077500D01*
G36*
X189902500Y-124077500D02*
G01*
X189572500Y-123837500D01*
X189902500Y-123597500D01*
X189902500Y-124077500D01*
G37*
%TO.C,Q2*%
X123147346Y-118452768D02*
X123020537Y-119090279D01*
X123147346Y-118452768D02*
X123274155Y-117815258D01*
X126207396Y-119061450D02*
X126080587Y-119698960D01*
X126207396Y-119061450D02*
X126334205Y-118423939D01*
X122969593Y-119602686D02*
X122599112Y-119773694D01*
X122692755Y-119302917D01*
X122969593Y-119602686D01*
G36*
X122969593Y-119602686D02*
G01*
X122599112Y-119773694D01*
X122692755Y-119302917D01*
X122969593Y-119602686D01*
G37*
%TO.C,U14*%
X159749976Y-102502100D02*
X161132883Y-102777177D01*
X159307175Y-104779473D02*
X160680274Y-105052599D01*
X159677099Y-102202118D02*
X159377331Y-102478956D01*
X159206322Y-102108475D01*
X159677099Y-102202118D01*
G36*
X159677099Y-102202118D02*
G01*
X159377331Y-102478956D01*
X159206322Y-102108475D01*
X159677099Y-102202118D01*
G37*
%TO.C,Q30*%
X128158379Y-143644937D02*
X128519500Y-144185392D01*
X128158379Y-143644937D02*
X127797259Y-143104481D01*
X130752565Y-141911557D02*
X131113685Y-142452013D01*
X130752565Y-141911557D02*
X130391444Y-141371102D01*
X128845803Y-144583741D02*
X128704755Y-144966632D01*
X128438081Y-144567527D01*
X128845803Y-144583741D01*
G36*
X128845803Y-144583741D02*
G01*
X128704755Y-144966632D01*
X128438081Y-144567527D01*
X128845803Y-144583741D01*
G37*
%TO.C,Q10*%
X162609731Y-92084846D02*
X161972220Y-91958037D01*
X162609731Y-92084846D02*
X163247241Y-92211655D01*
X162001049Y-95144896D02*
X161363539Y-95018087D01*
X162001049Y-95144896D02*
X162638560Y-95271705D01*
X161759582Y-91630255D02*
X161459813Y-91907093D01*
X161288805Y-91536612D01*
X161759582Y-91630255D01*
G36*
X161759582Y-91630255D02*
G01*
X161459813Y-91907093D01*
X161288805Y-91536612D01*
X161759582Y-91630255D01*
G37*
%TO.C,U21*%
X178847500Y-124227501D02*
X178847500Y-125637501D01*
X176527500Y-124237501D02*
X176527500Y-125637501D01*
X179127500Y-124097501D02*
X178797500Y-123857501D01*
X179127500Y-123617501D01*
X179127500Y-124097501D01*
G36*
X179127500Y-124097501D02*
G01*
X178797500Y-123857501D01*
X179127500Y-123617501D01*
X179127500Y-124097501D01*
G37*
%TO.C,U26*%
X169363478Y-143515857D02*
X168191106Y-144299211D01*
X168066240Y-141592403D02*
X166902183Y-142370201D01*
X170026234Y-143409771D02*
X169627129Y-143676444D01*
X169643343Y-143268722D01*
X170026234Y-143409771D01*
G36*
X170026234Y-143409771D02*
G01*
X169627129Y-143676444D01*
X169643343Y-143268722D01*
X170026234Y-143409771D01*
G37*
%TO.C,U19*%
X176817473Y-115566861D02*
X177357057Y-116869531D01*
X174677899Y-116463925D02*
X175213656Y-117757356D01*
X177026410Y-115339605D02*
X176629686Y-115244159D01*
X176842722Y-114896143D01*
X177026410Y-115339605D01*
G36*
X177026410Y-115339605D02*
G01*
X176629686Y-115244159D01*
X176842722Y-114896143D01*
X177026410Y-115339605D01*
G37*
%TO.C,U6*%
X133564600Y-121312523D02*
X133839677Y-119929616D01*
X135841973Y-121755324D02*
X136115099Y-120382225D01*
X133541456Y-121685168D02*
X133170975Y-121856177D01*
X133264618Y-121385400D01*
X133541456Y-121685168D01*
G36*
X133541456Y-121685168D02*
G01*
X133170975Y-121856177D01*
X133264618Y-121385400D01*
X133541456Y-121685168D01*
G37*
%TO.C,Q24*%
X162609731Y-157915153D02*
X163247241Y-157788344D01*
X162609731Y-157915153D02*
X161972220Y-158041962D01*
X162001049Y-154855103D02*
X162638560Y-154728294D01*
X162001049Y-154855103D02*
X161363539Y-154981912D01*
X164039908Y-157916159D02*
X163569131Y-158009802D01*
X163740139Y-157639321D01*
X164039908Y-157916159D01*
G36*
X164039908Y-157916159D02*
G01*
X163569131Y-158009802D01*
X163740139Y-157639321D01*
X164039908Y-157916159D01*
G37*
%TO.C,Q28*%
X137417562Y-152904120D02*
X137958018Y-153265240D01*
X137417562Y-152904120D02*
X136877107Y-152542999D01*
X139150942Y-150309934D02*
X139691397Y-150671055D01*
X139150942Y-150309934D02*
X138610486Y-149948814D01*
X138428139Y-153916118D02*
X138029033Y-153649445D01*
X138411924Y-153508397D01*
X138428139Y-153916118D01*
G36*
X138428139Y-153916118D02*
G01*
X138029033Y-153649445D01*
X138411924Y-153508397D01*
X138428139Y-153916118D01*
G37*
%TO.C,Q20*%
X183966620Y-143644937D02*
X184327740Y-143104481D01*
X183966620Y-143644937D02*
X183605499Y-144185392D01*
X181372434Y-141911557D02*
X181733555Y-141371102D01*
X181372434Y-141911557D02*
X181011314Y-142452013D01*
X184711945Y-143033466D02*
X184570897Y-142650575D01*
X184978618Y-142634360D01*
X184711945Y-143033466D01*
G36*
X184711945Y-143033466D02*
G01*
X184570897Y-142650575D01*
X184978618Y-142634360D01*
X184711945Y-143033466D01*
G37*
%TO.C,U33*%
X140497312Y-141657668D02*
X139500291Y-140660647D01*
X142130729Y-140010109D02*
X141140779Y-139020159D01*
X140730657Y-142286993D02*
X140391246Y-141947581D01*
X140794297Y-141883942D01*
X140730657Y-142286993D01*
G36*
X140730657Y-142286993D02*
G01*
X140391246Y-141947581D01*
X140794297Y-141883942D01*
X140730657Y-142286993D01*
G37*
%TO.C,U8*%
X136688286Y-112983642D02*
X137471640Y-111811270D01*
X138622852Y-114264250D02*
X139400650Y-113100193D01*
X136524299Y-113319064D02*
X136116577Y-113335279D01*
X136383251Y-112936173D01*
X136524299Y-113319064D01*
G36*
X136524299Y-113319064D02*
G01*
X136116577Y-113335279D01*
X136383251Y-112936173D01*
X136524299Y-113319064D01*
G37*
%TO.C,U10*%
X142761521Y-106484142D02*
X143933893Y-105700788D01*
X144058759Y-108407596D02*
X145222816Y-107629798D01*
X142481656Y-106731277D02*
X142098765Y-106590228D01*
X142497870Y-106323555D01*
X142481656Y-106731277D01*
G36*
X142481656Y-106731277D02*
G01*
X142098765Y-106590228D01*
X142497870Y-106323555D01*
X142481656Y-106731277D01*
G37*
%TO.C,Q13*%
X179793003Y-101269496D02*
X179333383Y-100809877D01*
X179793003Y-101269496D02*
X180252622Y-101729116D01*
X177586829Y-103475670D02*
X177127210Y-103016050D01*
X177586829Y-103475670D02*
X178046449Y-103935289D01*
X179338686Y-100419201D02*
X178935636Y-100482840D01*
X178999275Y-100079789D01*
X179338686Y-100419201D01*
G36*
X179338686Y-100419201D02*
G01*
X178935636Y-100482840D01*
X178999275Y-100079789D01*
X179338686Y-100419201D01*
G37*
%TO.C,Q9*%
X156062500Y-91440000D02*
X155412500Y-91440000D01*
X156062500Y-91440000D02*
X156712500Y-91440000D01*
X156062500Y-94560000D02*
X155412500Y-94560000D01*
X156062500Y-94560000D02*
X156712500Y-94560000D01*
X154900000Y-91490000D02*
X154660000Y-91160000D01*
X155140000Y-91160000D01*
X154900000Y-91490000D01*
G36*
X154900000Y-91490000D02*
G01*
X154660000Y-91160000D01*
X155140000Y-91160000D01*
X154900000Y-91490000D01*
G37*
%TO.C,U28*%
X161265289Y-147196485D02*
X159882382Y-147471562D01*
X160802872Y-144923014D02*
X159429773Y-145196140D01*
X161918194Y-147352100D02*
X161447417Y-147445743D01*
X161618425Y-147075262D01*
X161918194Y-147352100D01*
G36*
X161918194Y-147352100D02*
G01*
X161447417Y-147445743D01*
X161618425Y-147075262D01*
X161918194Y-147352100D01*
G37*
%TO.C,Q11*%
X168905355Y-93994602D02*
X168304833Y-93745858D01*
X168905355Y-93994602D02*
X169505877Y-94243346D01*
X167711383Y-96877106D02*
X167110861Y-96628362D01*
X167711383Y-96877106D02*
X168311905Y-97125850D01*
X168160228Y-93382890D02*
X167812211Y-93595926D01*
X167716765Y-93199202D01*
X168160228Y-93382890D01*
G36*
X168160228Y-93382890D02*
G01*
X167812211Y-93595926D01*
X167716765Y-93199202D01*
X168160228Y-93382890D01*
G37*
%TO.C,U23*%
X177408718Y-133005744D02*
X176869135Y-134308414D01*
X175261491Y-132127158D02*
X174725734Y-133420589D01*
X177717154Y-132992791D02*
X177504117Y-132644775D01*
X177900842Y-132549329D01*
X177717154Y-132992791D01*
G36*
X177717154Y-132992791D02*
G01*
X177504117Y-132644775D01*
X177900842Y-132549329D01*
X177717154Y-132992791D01*
G37*
%TO.C,Q1*%
X122502500Y-125000000D02*
X122502500Y-125650000D01*
X122502500Y-125000000D02*
X122502500Y-124350000D01*
X125622500Y-125000000D02*
X125622500Y-125650000D01*
X125622500Y-125000000D02*
X125622500Y-124350000D01*
X122552500Y-126162500D02*
X122222500Y-126402500D01*
X122222500Y-125922500D01*
X122552500Y-126162500D01*
G36*
X122552500Y-126162500D02*
G01*
X122222500Y-126402500D01*
X122222500Y-125922500D01*
X122552500Y-126162500D01*
G37*
%TO.C,Q22*%
X174707437Y-152904120D02*
X175247892Y-152542999D01*
X174707437Y-152904120D02*
X174166981Y-153265240D01*
X172974057Y-150309934D02*
X173514513Y-149948814D01*
X172974057Y-150309934D02*
X172433602Y-150671055D01*
X176029132Y-152357744D02*
X175630027Y-152624418D01*
X175646241Y-152216696D01*
X176029132Y-152357744D01*
G36*
X176029132Y-152357744D02*
G01*
X175630027Y-152624418D01*
X175646241Y-152216696D01*
X176029132Y-152357744D01*
G37*
%TO.C,U25*%
X172720168Y-140565187D02*
X171723147Y-141562208D01*
X171072609Y-138931770D02*
X170082659Y-139921720D01*
X173349493Y-140331842D02*
X173010081Y-140671253D01*
X172946442Y-140268202D01*
X173349493Y-140331842D01*
G36*
X173349493Y-140331842D02*
G01*
X173010081Y-140671253D01*
X172946442Y-140268202D01*
X173349493Y-140331842D01*
G37*
%TO.C,U30*%
X152375023Y-147497899D02*
X150992116Y-147222822D01*
X152817824Y-145220526D02*
X151444725Y-144947400D01*
X152918677Y-147891524D02*
X152447900Y-147797881D01*
X152747668Y-147521043D01*
X152918677Y-147891524D01*
G36*
X152918677Y-147891524D02*
G01*
X152447900Y-147797881D01*
X152747668Y-147521043D01*
X152918677Y-147891524D01*
G37*
%TO.C,U29*%
X156835000Y-147785000D02*
X155425000Y-147785000D01*
X156825000Y-145465000D02*
X155425000Y-145465000D01*
X157445000Y-148065000D02*
X156965000Y-148065000D01*
X157205000Y-147735000D01*
X157445000Y-148065000D01*
G36*
X157445000Y-148065000D02*
G01*
X156965000Y-148065000D01*
X157205000Y-147735000D01*
X157445000Y-148065000D01*
G37*
%TO.C,U31*%
X148056755Y-146346218D02*
X146754085Y-145806635D01*
X148935341Y-144198991D02*
X147641910Y-143663234D01*
X148513170Y-146838342D02*
X148069708Y-146654654D01*
X148417724Y-146441617D01*
X148513170Y-146838342D01*
G36*
X148513170Y-146838342D02*
G01*
X148069708Y-146654654D01*
X148417724Y-146441617D01*
X148513170Y-146838342D01*
G37*
%TO.C,U9*%
X139404831Y-109434812D02*
X140401852Y-108437791D01*
X141052390Y-111068229D02*
X142042340Y-110078279D01*
X139178557Y-109731797D02*
X138775506Y-109668157D01*
X139114918Y-109328746D01*
X139178557Y-109731797D01*
G36*
X139178557Y-109731797D02*
G01*
X138775506Y-109668157D01*
X139114918Y-109328746D01*
X139178557Y-109731797D01*
G37*
%TO.C,Q6*%
X137417562Y-97095879D02*
X136877107Y-97457000D01*
X137417562Y-97095879D02*
X137958018Y-96734759D01*
X139150942Y-99690065D02*
X138610486Y-100051185D01*
X139150942Y-99690065D02*
X139691397Y-99328944D01*
X136478758Y-97783303D02*
X136095867Y-97642255D01*
X136494972Y-97375581D01*
X136478758Y-97783303D01*
G36*
X136478758Y-97783303D02*
G01*
X136095867Y-97642255D01*
X136494972Y-97375581D01*
X136478758Y-97783303D01*
G37*
%TO.C,Q3*%
X125057102Y-112157144D02*
X124808358Y-112757666D01*
X125057102Y-112157144D02*
X125305846Y-111556622D01*
X127939606Y-113351116D02*
X127690862Y-113951638D01*
X127939606Y-113351116D02*
X128188350Y-112750594D01*
X124658426Y-113250288D02*
X124261702Y-113345734D01*
X124445390Y-112902271D01*
X124658426Y-113250288D01*
G36*
X124658426Y-113250288D02*
G01*
X124261702Y-113345734D01*
X124445390Y-112902271D01*
X124658426Y-113250288D01*
G37*
%TO.C,Q5*%
X132331996Y-101269496D02*
X131872377Y-101729116D01*
X132331996Y-101269496D02*
X132791616Y-100809877D01*
X134538170Y-103475670D02*
X134078550Y-103935289D01*
X134538170Y-103475670D02*
X134997789Y-103016050D01*
X131545340Y-102126863D02*
X131142289Y-102063224D01*
X131481701Y-101723813D01*
X131545340Y-102126863D01*
G36*
X131545340Y-102126863D02*
G01*
X131142289Y-102063224D01*
X131481701Y-101723813D01*
X131545340Y-102126863D01*
G37*
%TO.C,Q16*%
X188977653Y-118452768D02*
X188850844Y-117815258D01*
X188977653Y-118452768D02*
X189104462Y-119090279D01*
X185917603Y-119061450D02*
X185790794Y-118423939D01*
X185917603Y-119061450D02*
X186044412Y-119698960D01*
X189072302Y-117493368D02*
X188701821Y-117322360D01*
X188978659Y-117022591D01*
X189072302Y-117493368D01*
G36*
X189072302Y-117493368D02*
G01*
X188701821Y-117322360D01*
X188978659Y-117022591D01*
X189072302Y-117493368D01*
G37*
%TO.C,Q12*%
X174707437Y-97095879D02*
X174166981Y-96734759D01*
X174707437Y-97095879D02*
X175247892Y-97457000D01*
X172974057Y-99690065D02*
X172433602Y-99328944D01*
X172974057Y-99690065D02*
X173514513Y-100051185D01*
X174095966Y-96350554D02*
X173713075Y-96491602D01*
X173696860Y-96083881D01*
X174095966Y-96350554D01*
G36*
X174095966Y-96350554D02*
G01*
X173713075Y-96491602D01*
X173696860Y-96083881D01*
X174095966Y-96350554D01*
G37*
%TO.C,Q8*%
X149515268Y-92084846D02*
X148877758Y-92211655D01*
X149515268Y-92084846D02*
X150152779Y-91958037D01*
X150123950Y-95144896D02*
X149486439Y-95271705D01*
X150123950Y-95144896D02*
X150761460Y-95018087D01*
X148384860Y-92360678D02*
X148085091Y-92083840D01*
X148555868Y-91990197D01*
X148384860Y-92360678D01*
G36*
X148384860Y-92360678D02*
G01*
X148085091Y-92083840D01*
X148555868Y-91990197D01*
X148384860Y-92360678D01*
G37*
%TD*%
M02*
