%TF.GenerationSoftware,KiCad,Pcbnew,9.0.0*%
%TF.CreationDate,2025-06-29T09:39:04-04:00*%
%TF.ProjectId,hubspoke_temp_array,68756273-706f-46b6-955f-74656d705f61,rev?*%
%TF.SameCoordinates,Original*%
%TF.FileFunction,Soldermask,Bot*%
%TF.FilePolarity,Negative*%
%FSLAX46Y46*%
G04 Gerber Fmt 4.6, Leading zero omitted, Abs format (unit mm)*
G04 Created by KiCad (PCBNEW 9.0.0) date 2025-06-29 09:39:04*
%MOMM*%
%LPD*%
G01*
G04 APERTURE LIST*
G04 Aperture macros list*
%AMRoundRect*
0 Rectangle with rounded corners*
0 $1 Rounding radius*
0 $2 $3 $4 $5 $6 $7 $8 $9 X,Y pos of 4 corners*
0 Add a 4 corners polygon primitive as box body*
4,1,4,$2,$3,$4,$5,$6,$7,$8,$9,$2,$3,0*
0 Add four circle primitives for the rounded corners*
1,1,$1+$1,$2,$3*
1,1,$1+$1,$4,$5*
1,1,$1+$1,$6,$7*
1,1,$1+$1,$8,$9*
0 Add four rect primitives between the rounded corners*
20,1,$1+$1,$2,$3,$4,$5,0*
20,1,$1+$1,$4,$5,$6,$7,0*
20,1,$1+$1,$6,$7,$8,$9,0*
20,1,$1+$1,$8,$9,$2,$3,0*%
G04 Aperture macros list end*
%ADD10RoundRect,0.218750X-0.256250X0.218750X-0.256250X-0.218750X0.256250X-0.218750X0.256250X0.218750X0*%
%ADD11R,0.800000X0.900000*%
%ADD12RoundRect,0.225000X-0.250000X0.225000X-0.250000X-0.225000X0.250000X-0.225000X0.250000X0.225000X0*%
%ADD13RoundRect,0.225000X-0.225000X-0.250000X0.225000X-0.250000X0.225000X0.250000X-0.225000X0.250000X0*%
%ADD14RoundRect,0.225000X0.250000X-0.225000X0.250000X0.225000X-0.250000X0.225000X-0.250000X-0.225000X0*%
%ADD15RoundRect,0.225000X0.225000X0.250000X-0.225000X0.250000X-0.225000X-0.250000X0.225000X-0.250000X0*%
%ADD16R,0.740000X2.400000*%
%ADD17RoundRect,0.225000X0.289092X-0.171904X0.201301X0.269449X-0.289092X0.171904X-0.201301X-0.269449X0*%
%ADD18R,0.840000X0.840000*%
%ADD19C,0.840000*%
%ADD20C,1.850000*%
%ADD21RoundRect,0.200000X-0.275000X0.200000X-0.275000X-0.200000X0.275000X-0.200000X0.275000X0.200000X0*%
%ADD22RoundRect,0.225000X0.048188X0.332871X-0.325973X0.082864X-0.048188X-0.332871X0.325973X-0.082864X0*%
%ADD23RoundRect,0.225000X0.317074X-0.112202X0.144866X0.303544X-0.317074X0.112202X-0.144866X-0.303544X0*%
%ADD24RoundRect,0.225000X-0.017678X0.335876X-0.335876X0.017678X0.017678X-0.335876X0.335876X-0.017678X0*%
%ADD25RoundRect,0.225000X0.303544X0.144866X-0.112202X0.317074X-0.303544X-0.144866X0.112202X-0.317074X0*%
%ADD26RoundRect,0.225000X-0.048188X-0.332871X0.325973X-0.082864X0.048188X0.332871X-0.325973X0.082864X0*%
%ADD27RoundRect,0.225000X-0.303544X-0.144866X0.112202X-0.317074X0.303544X0.144866X-0.112202X0.317074X0*%
%ADD28RoundRect,0.225000X-0.082864X0.325973X-0.332871X-0.048188X0.082864X-0.325973X0.332871X0.048188X0*%
%ADD29RoundRect,0.062500X-0.062500X0.375000X-0.062500X-0.375000X0.062500X-0.375000X0.062500X0.375000X0*%
%ADD30RoundRect,0.062500X-0.375000X0.062500X-0.375000X-0.062500X0.375000X-0.062500X0.375000X0.062500X0*%
%ADD31R,3.450000X3.450000*%
%ADD32RoundRect,0.200000X0.275000X-0.200000X0.275000X0.200000X-0.275000X0.200000X-0.275000X-0.200000X0*%
%ADD33RoundRect,0.200000X-0.200000X-0.275000X0.200000X-0.275000X0.200000X0.275000X-0.200000X0.275000X0*%
%ADD34RoundRect,0.225000X-0.317074X0.112202X-0.144866X-0.303544X0.317074X-0.112202X0.144866X0.303544X0*%
%ADD35R,1.700000X1.700000*%
%ADD36O,1.700000X1.700000*%
%ADD37RoundRect,0.225000X0.201301X-0.269449X0.289092X0.171904X-0.201301X0.269449X-0.289092X-0.171904X0*%
%ADD38R,1.750000X1.450000*%
%ADD39R,0.750000X0.300000*%
%ADD40RoundRect,0.225000X-0.201301X0.269449X-0.289092X-0.171904X0.201301X-0.269449X0.289092X0.171904X0*%
%ADD41RoundRect,0.075000X-0.662500X-0.075000X0.662500X-0.075000X0.662500X0.075000X-0.662500X0.075000X0*%
%ADD42RoundRect,0.075000X-0.075000X-0.662500X0.075000X-0.662500X0.075000X0.662500X-0.075000X0.662500X0*%
%ADD43RoundRect,0.225000X-0.289092X0.171904X-0.201301X-0.269449X0.289092X-0.171904X0.201301X0.269449X0*%
%ADD44RoundRect,0.200000X0.200000X0.275000X-0.200000X0.275000X-0.200000X-0.275000X0.200000X-0.275000X0*%
%ADD45RoundRect,0.225000X-0.269449X-0.201301X0.171904X-0.289092X0.269449X0.201301X-0.171904X0.289092X0*%
%ADD46RoundRect,0.225000X0.144866X-0.303544X0.317074X0.112202X-0.144866X0.303544X-0.317074X-0.112202X0*%
%ADD47RoundRect,0.225000X0.017678X-0.335876X0.335876X-0.017678X-0.017678X0.335876X-0.335876X0.017678X0*%
%ADD48RoundRect,0.225000X0.171904X0.289092X-0.269449X0.201301X-0.171904X-0.289092X0.269449X-0.201301X0*%
%ADD49RoundRect,0.218750X0.218750X0.256250X-0.218750X0.256250X-0.218750X-0.256250X0.218750X-0.256250X0*%
%ADD50RoundRect,0.225000X-0.171904X-0.289092X0.269449X-0.201301X0.171904X0.289092X-0.269449X0.201301X0*%
%ADD51RoundRect,0.225000X0.335876X0.017678X0.017678X0.335876X-0.335876X-0.017678X-0.017678X-0.335876X0*%
%ADD52RoundRect,0.225000X0.325973X0.082864X-0.048188X0.332871X-0.325973X-0.082864X0.048188X-0.332871X0*%
%ADD53RoundRect,0.225000X0.269449X0.201301X-0.171904X0.289092X-0.269449X-0.201301X0.171904X-0.289092X0*%
%ADD54RoundRect,0.225000X-0.332871X0.048188X-0.082864X-0.325973X0.332871X-0.048188X0.082864X0.325973X0*%
%ADD55RoundRect,0.225000X-0.144866X0.303544X-0.317074X-0.112202X0.144866X-0.303544X0.317074X0.112202X0*%
%ADD56RoundRect,0.225000X0.082864X-0.325973X0.332871X0.048188X-0.082864X0.325973X-0.332871X-0.048188X0*%
%ADD57RoundRect,0.225000X-0.325973X-0.082864X0.048188X-0.332871X0.325973X0.082864X-0.048188X0.332871X0*%
%ADD58RoundRect,0.225000X0.112202X0.317074X-0.303544X0.144866X-0.112202X-0.317074X0.303544X-0.144866X0*%
%ADD59RoundRect,0.225000X-0.335876X-0.017678X-0.017678X-0.335876X0.335876X0.017678X0.017678X0.335876X0*%
%ADD60RoundRect,0.225000X-0.112202X-0.317074X0.303544X-0.144866X0.112202X0.317074X-0.303544X0.144866X0*%
%ADD61RoundRect,0.225000X0.332871X-0.048188X0.082864X0.325973X-0.332871X0.048188X-0.082864X-0.325973X0*%
G04 APERTURE END LIST*
D10*
%TO.C,D2*%
X158500000Y-127237500D03*
X158500000Y-125662500D03*
%TD*%
D11*
%TO.C,Y1*%
X160350000Y-125350000D03*
X160350000Y-123950000D03*
X161450000Y-123950000D03*
X161450000Y-125350000D03*
%TD*%
D12*
%TO.C,C38*%
X146050000Y-123625000D03*
X146050000Y-125175000D03*
%TD*%
D13*
%TO.C,C37*%
X161775000Y-127050000D03*
X163325000Y-127050000D03*
%TD*%
D14*
%TO.C,C36*%
X166150000Y-120425000D03*
X166150000Y-118875000D03*
%TD*%
D13*
%TO.C,C35*%
X147625000Y-111800000D03*
X149175000Y-111800000D03*
%TD*%
%TO.C,C34*%
X157225000Y-123850000D03*
X158775000Y-123850000D03*
%TD*%
D15*
%TO.C,C33*%
X162925000Y-122350000D03*
X161375000Y-122350000D03*
%TD*%
D16*
%TO.C,J4*%
X161460000Y-110150000D03*
X161460000Y-106250000D03*
X160190000Y-110150000D03*
X160190000Y-106250000D03*
X158920000Y-110150000D03*
X158920000Y-106250000D03*
X157650000Y-110150000D03*
X157650000Y-106250000D03*
X156380000Y-110150000D03*
X156380000Y-106250000D03*
X155110000Y-110150000D03*
X155110000Y-106250000D03*
X153840000Y-110150000D03*
X153840000Y-106250000D03*
%TD*%
D14*
%TO.C,C17*%
X190812500Y-124162500D03*
X190812500Y-125712500D03*
%TD*%
D17*
%TO.C,C16*%
X189981399Y-117399203D03*
X190283789Y-118919421D03*
%TD*%
D18*
%TO.C,J3*%
X162475000Y-136280000D03*
D19*
X161825000Y-137280000D03*
X161175000Y-136280000D03*
X160525000Y-137280000D03*
X159875000Y-136280000D03*
D20*
X164750000Y-136500000D03*
X157600000Y-136500000D03*
%TD*%
D21*
%TO.C,R1*%
X164650000Y-117775000D03*
X164650000Y-119425000D03*
%TD*%
D22*
%TO.C,C6*%
X137348857Y-95710587D03*
X136060079Y-96571721D03*
%TD*%
D23*
%TO.C,C15*%
X188439975Y-112360016D03*
X187846815Y-110928002D03*
%TD*%
D24*
%TO.C,C5*%
X131994354Y-99924226D03*
X130898338Y-101020242D03*
%TD*%
D25*
%TO.C,C11*%
X170019012Y-93167848D03*
X168586998Y-92574688D03*
%TD*%
D26*
%TO.C,C22*%
X174776142Y-154289412D03*
X176064920Y-153428278D03*
%TD*%
D27*
%TO.C,C27*%
X142105987Y-156832151D03*
X143538001Y-157425311D03*
%TD*%
D28*
%TO.C,C4*%
X127564775Y-105101512D03*
X126703641Y-106390290D03*
%TD*%
D29*
%TO.C,U3*%
X159500000Y-128712500D03*
X160000000Y-128712500D03*
X160500000Y-128712500D03*
X161000000Y-128712500D03*
X161500000Y-128712500D03*
X162000000Y-128712500D03*
X162500000Y-128712500D03*
X163000000Y-128712500D03*
D30*
X163687500Y-129400000D03*
X163687500Y-129900000D03*
X163687500Y-130400000D03*
X163687500Y-130900000D03*
X163687500Y-131400000D03*
X163687500Y-131900000D03*
X163687500Y-132400000D03*
X163687500Y-132900000D03*
D29*
X163000000Y-133587500D03*
X162500000Y-133587500D03*
X162000000Y-133587500D03*
X161500000Y-133587500D03*
X161000000Y-133587500D03*
X160500000Y-133587500D03*
X160000000Y-133587500D03*
X159500000Y-133587500D03*
D30*
X158812500Y-132900000D03*
X158812500Y-132400000D03*
X158812500Y-131900000D03*
X158812500Y-131400000D03*
X158812500Y-130900000D03*
X158812500Y-130400000D03*
X158812500Y-129900000D03*
X158812500Y-129400000D03*
D31*
X161250000Y-131150000D03*
%TD*%
D32*
%TO.C,R9*%
X157000000Y-122212500D03*
X157000000Y-120562500D03*
%TD*%
D33*
%TO.C,R8*%
X160175000Y-118000000D03*
X161825000Y-118000000D03*
%TD*%
D34*
%TO.C,C31*%
X123685024Y-137639983D03*
X124278184Y-139071997D03*
%TD*%
D35*
%TO.C,J2*%
X163750000Y-140250000D03*
D36*
X161210000Y-140250000D03*
X158670000Y-140250000D03*
X156130000Y-140250000D03*
%TD*%
D37*
%TO.C,C18*%
X190005785Y-132478198D03*
X190308175Y-130957980D03*
%TD*%
D15*
%TO.C,C9*%
X156775000Y-90250000D03*
X155225000Y-90250000D03*
%TD*%
D33*
%TO.C,R6*%
X155425000Y-125500000D03*
X157075000Y-125500000D03*
%TD*%
D12*
%TO.C,C1*%
X121312500Y-124287499D03*
X121312500Y-125837499D03*
%TD*%
D38*
%TO.C,U1*%
X161562500Y-120250000D03*
D39*
X163012500Y-121000000D03*
X163012500Y-120500000D03*
X163012500Y-120000000D03*
X163012500Y-119500000D03*
X160112500Y-119500000D03*
X160112500Y-120000000D03*
X160112500Y-120500000D03*
X160112500Y-121000000D03*
%TD*%
D40*
%TO.C,C2*%
X122119214Y-117521801D03*
X121816824Y-119042019D03*
%TD*%
D41*
%TO.C,U4*%
X146087500Y-120500000D03*
X146087500Y-120000000D03*
X146087500Y-119500000D03*
X146087500Y-119000000D03*
X146087500Y-118500000D03*
X146087500Y-118000000D03*
X146087500Y-117500000D03*
X146087500Y-117000000D03*
X146087500Y-116500000D03*
X146087500Y-116000000D03*
X146087500Y-115500000D03*
X146087500Y-115000000D03*
D42*
X147500000Y-113587500D03*
X148000000Y-113587500D03*
X148500000Y-113587500D03*
X149000000Y-113587500D03*
X149500000Y-113587500D03*
X150000000Y-113587500D03*
X150500000Y-113587500D03*
X151000000Y-113587500D03*
X151500000Y-113587500D03*
X152000000Y-113587500D03*
X152500000Y-113587500D03*
X153000000Y-113587500D03*
D41*
X154412500Y-115000000D03*
X154412500Y-115500000D03*
X154412500Y-116000000D03*
X154412500Y-116500000D03*
X154412500Y-117000000D03*
X154412500Y-117500000D03*
X154412500Y-118000000D03*
X154412500Y-118500000D03*
X154412500Y-119000000D03*
X154412500Y-119500000D03*
X154412500Y-120000000D03*
X154412500Y-120500000D03*
D42*
X153000000Y-121912500D03*
X152500000Y-121912500D03*
X152000000Y-121912500D03*
X151500000Y-121912500D03*
X151000000Y-121912500D03*
X150500000Y-121912500D03*
X150000000Y-121912500D03*
X149500000Y-121912500D03*
X149000000Y-121912500D03*
X148500000Y-121912500D03*
X148000000Y-121912500D03*
X147500000Y-121912500D03*
%TD*%
D13*
%TO.C,C25*%
X155349999Y-159750000D03*
X156899999Y-159750000D03*
%TD*%
D43*
%TO.C,C32*%
X121841210Y-131080578D03*
X122143600Y-132600796D03*
%TD*%
D44*
%TO.C,R10*%
X151825000Y-123750000D03*
X150175000Y-123750000D03*
%TD*%
D45*
%TO.C,C26*%
X148584301Y-158943285D03*
X150104519Y-159245675D03*
%TD*%
D46*
%TO.C,C19*%
X187894651Y-138956512D03*
X188487811Y-137524498D03*
%TD*%
D47*
%TO.C,C21*%
X180130645Y-150075773D03*
X181226661Y-148979757D03*
%TD*%
D48*
%TO.C,C8*%
X149981921Y-90778710D03*
X148461703Y-91081100D03*
%TD*%
D49*
%TO.C,D1*%
X164537500Y-124000000D03*
X162962500Y-124000000D03*
%TD*%
D50*
%TO.C,C24*%
X162143078Y-159221289D03*
X163663296Y-158918899D03*
%TD*%
D51*
%TO.C,C13*%
X181138273Y-100931854D03*
X180042257Y-99835838D03*
%TD*%
D52*
%TO.C,C12*%
X175960987Y-96502275D03*
X174672209Y-95641141D03*
%TD*%
D53*
%TO.C,C10*%
X163540698Y-91056714D03*
X162020480Y-90754324D03*
%TD*%
D54*
%TO.C,C30*%
X126773087Y-143713642D03*
X127634221Y-145002420D03*
%TD*%
D55*
%TO.C,C3*%
X124230348Y-111043487D03*
X123637188Y-112475501D03*
%TD*%
D56*
%TO.C,C20*%
X184560224Y-144898487D03*
X185421358Y-143609709D03*
%TD*%
D57*
%TO.C,C28*%
X136164012Y-153497724D03*
X137452790Y-154358858D03*
%TD*%
D41*
%TO.C,U2*%
X146087500Y-132500000D03*
X146087500Y-132000000D03*
X146087500Y-131500000D03*
X146087500Y-131000000D03*
X146087500Y-130500000D03*
X146087500Y-130000000D03*
X146087500Y-129500000D03*
X146087500Y-129000000D03*
X146087500Y-128500000D03*
X146087500Y-128000000D03*
X146087500Y-127500000D03*
X146087500Y-127000000D03*
D42*
X147500000Y-125587500D03*
X148000000Y-125587500D03*
X148500000Y-125587500D03*
X149000000Y-125587500D03*
X149500000Y-125587500D03*
X150000000Y-125587500D03*
X150500000Y-125587500D03*
X151000000Y-125587500D03*
X151500000Y-125587500D03*
X152000000Y-125587500D03*
X152500000Y-125587500D03*
X153000000Y-125587500D03*
D41*
X154412500Y-127000000D03*
X154412500Y-127500000D03*
X154412500Y-128000000D03*
X154412500Y-128500000D03*
X154412500Y-129000000D03*
X154412500Y-129500000D03*
X154412500Y-130000000D03*
X154412500Y-130500000D03*
X154412500Y-131000000D03*
X154412500Y-131500000D03*
X154412500Y-132000000D03*
X154412500Y-132500000D03*
D42*
X153000000Y-133912500D03*
X152500000Y-133912500D03*
X152000000Y-133912500D03*
X151500000Y-133912500D03*
X151000000Y-133912500D03*
X150500000Y-133912500D03*
X150000000Y-133912500D03*
X149500000Y-133912500D03*
X149000000Y-133912500D03*
X148500000Y-133912500D03*
X148000000Y-133912500D03*
X147500000Y-133912500D03*
%TD*%
D21*
%TO.C,R7*%
X158500000Y-120562500D03*
X158500000Y-122212500D03*
%TD*%
D58*
%TO.C,C7*%
X143422516Y-92622524D03*
X141990502Y-93215684D03*
%TD*%
D32*
%TO.C,R5*%
X164800000Y-127125000D03*
X164800000Y-125475000D03*
%TD*%
D59*
%TO.C,C29*%
X130986726Y-149068145D03*
X132082742Y-150164161D03*
%TD*%
D60*
%TO.C,C23*%
X168702483Y-157377475D03*
X170134497Y-156784315D03*
%TD*%
D21*
%TO.C,R2*%
X167800000Y-120525000D03*
X167800000Y-122175000D03*
%TD*%
D61*
%TO.C,C14*%
X185351912Y-106286357D03*
X184490778Y-104997579D03*
%TD*%
D33*
%TO.C,R4*%
X164425000Y-122000000D03*
X166075000Y-122000000D03*
%TD*%
D35*
%TO.C,J1*%
X161225000Y-114500000D03*
D36*
X163765000Y-114500000D03*
%TD*%
D32*
%TO.C,R3*%
X167800000Y-119125000D03*
X167800000Y-117475000D03*
%TD*%
M02*
