M48
; DRILL file {KiCad 9.0.0} date 2025-06-29T09:39:07-0400
; FORMAT={-:-/ absolute / inch / decimal}
; #@! TF.CreationDate,2025-06-29T09:39:07-04:00
; #@! TF.GenerationSoftware,Kicad,Pcbnew,9.0.0
; #@! TF.FileFunction,MixedPlating,1,4
FMAT,2
INCH
; #@! TA.AperFunction,Plated,PTH,ViaDrill
T1C0.0118
; #@! TA.AperFunction,Plated,PTH,ComponentDrill
T2C0.0173
; #@! TA.AperFunction,Plated,PTH,ComponentDrill
T3C0.0394
; #@! TA.AperFunction,Plated,PTH,ComponentDrill
T4C0.0531
%
G90
G05
T1
X4.7736Y-4.8942
X4.7761Y-4.9542
X4.7933Y-5.1575
X4.7959Y-4.6867
X4.8031Y-4.626
X4.8088Y-5.2205
X4.8676Y-4.4282
X4.872Y-5.4232
X4.8917Y-4.3701
X4.8928Y-5.4753
X4.9139Y-4.8844
X4.9303Y-5.1251
X4.9447Y-4.645
X4.9532Y-4.9532
X4.9699Y-4.7203
X4.9824Y-5.185
X4.9883Y-4.1886
X4.9902Y-5.6594
X4.9934Y-5.358
X5.0197Y-4.1339
X5.0217Y-4.4163
X5.025Y-5.7088
X5.0295Y-4.685
X5.0317Y-4.4951
X5.0561Y-5.4066
X5.0787Y-4.685
X5.1007Y-5.5741
X5.128Y-4.5276
X5.1362Y-4.2862
X5.1378Y-5.748
X5.1417Y-4.207
X5.1535Y-3.9772
X5.1575Y-4.7146
X5.1575Y-5.8661
X5.1717Y-5.6095
X5.1969Y-3.9272
X5.2001Y-5.912
X5.2481Y-5.7651
X5.2794Y-4.1018
X5.2879Y-4.9336
X5.3003Y-4.0252
X5.3019Y-4.7663
X5.3051Y-5.8957
X5.3067Y-5.1004
X5.3247Y-5.786
X5.3484Y-4.6049
X5.3543Y-4.9016
X5.3567Y-3.802
X5.3578Y-5.2603
X5.3642Y-4.7441
X5.3642Y-5.0591
X5.3642Y-6.0433
X5.3937Y-5.2165
X5.4035Y-3.7598
X5.4035Y-4.5866
X5.4115Y-6.0771
X5.4134Y-5.3445
X5.4232Y-5.128
X5.4254Y-4.4558
X5.43Y-5.9237
X5.4331Y-5.0492
X5.439Y-5.4072
X5.4429Y-5.2756
X5.4559Y-3.9488
X5.4602Y-5.1083
X5.4626Y-5.0689
X5.466Y-4.6997
X5.4724Y-4.3996
X5.4914Y-3.8778
X5.4954Y-5.1102
X5.502Y-5.3051
X5.502Y-5.374
X5.5091Y-5.9293
X5.5187Y-4.6537
X5.5244Y-5.125
X5.53Y-4.3245
X5.5369Y-5.156
X5.546Y-4.6995
X5.5474Y-5.5355
X5.5533Y-5.2943
X5.561Y-5.4528
X5.5807Y-4.2815
X5.5889Y-5.1609
X5.5902Y-3.6699
X5.5906Y-5.1969
X5.5906Y-6.1713
X5.5967Y-5.3178
X5.5993Y-5.1284
X5.6004Y-4.9866
X5.6073Y-4.6606
X5.6201Y-5.2165
X5.6279Y-4.6881
X5.6349Y-4.7438
X5.6393Y-6.0438
X5.6496Y-3.6417
X5.6511Y-6.1978
X5.6582Y-4.2161
X5.6589Y-3.8332
X5.6594Y-5.2362
X5.6787Y-5.6401
X5.6788Y-4.7857
X5.6791Y-5.6004
X5.7075Y-3.7705
X5.718Y-6.0338
X5.7283Y-4.1831
X5.7426Y-4.7921
X5.7446Y-5.3133
X5.7461Y-4.8622
X5.7943Y-4.9327
X5.8005Y-4.5824
X5.8015Y-4.8881
X5.8051Y-4.1349
X5.8169Y-4.8551
X5.8169Y-5.6496
X5.8268Y-5.4134
X5.8279Y-5.7171
X5.8332Y-4.5748
X5.8449Y-3.5859
X5.8465Y-6.2598
X5.8477Y-5.1889
X5.8592Y-4.5565
X5.868Y-6.1207
X5.8701Y-4.8664
X5.876Y-5.2037
X5.876Y-4.124
X5.8789Y-4.5318
X5.8805Y-3.7594
X5.8809Y-4.9951
X5.8957Y-5.3248
X5.8986Y-5.4675
X5.8999Y-4.3369
X5.9055Y-3.5728
X5.9096Y-6.2695
X5.9153Y-4.9951
X5.9154Y-4.5516
X5.9201Y-5.3711
X5.933Y-4.679
X5.935Y-5.7382
X5.9404Y-3.7074
X5.9404Y-4.5739
X5.9432Y-6.0956
X5.9524Y-5.3658
X5.9547Y-5.187
X5.9549Y-4.75
X5.9626Y-4.1614
X5.9626Y-4.5265
X5.9646Y-4.9951
X5.9651Y-4.0838
X5.9819Y-4.4051
X5.9843Y-4.1339
X5.9892Y-5.7635
X5.9895Y-4.7095
X5.9941Y-4.5276
X5.9975Y-4.9928
X6.0039Y-4.6752
X6.0064Y-5.1821
X6.0096Y-4.6358
X6.0148Y-4.8957
X6.0236Y-4.5433
X6.0236Y-4.5768
X6.0285Y-4.7432
X6.0527Y-4.809
X6.0531Y-4.4685
X6.0607Y-5.3278
X6.0719Y-5.7708
X6.0892Y-4.7709
X6.1073Y-6.1516
X6.1083Y-4.9134
X6.1112Y-3.5531
X6.1122Y-3.7303
X6.1122Y-6.2894
X6.122Y-4.5079
X6.1294Y-4.7361
X6.1319Y-4.065
X6.1402Y-4.7666
X6.1534Y-4.7128
X6.1556Y-4.6317
X6.1565Y-5.7776
X6.1575Y-5.9724
X6.171Y-5.2048
X6.1713Y-3.5531
X6.1721Y-5.138
X6.1733Y-5.0085
X6.1733Y-5.1714
X6.1734Y-5.1045
X6.1752Y-4.6067
X6.1762Y-6.1122
X6.1772Y-6.2894
X6.179Y-5.0714
X6.1811Y-3.6909
X6.1826Y-5.0386
X6.1831Y-4.0768
X6.1831Y-5.4258
X6.1849Y-4.7076
X6.1893Y-4.5749
X6.1947Y-4.5232
X6.2008Y-4.8017
X6.2028Y-4.9833
X6.2099Y-4.8653
X6.213Y-4.5513
X6.2143Y-5.2056
X6.2205Y-4.252
X6.2234Y-4.9104
X6.2598Y-5.0689
X6.2894Y-5.6988
X6.2953Y-4.7894
X6.2953Y-4.8327
X6.2992Y-4.079
X6.3233Y-5.7587
X6.3268Y-5.0152
X6.3317Y-5.4596
X6.3327Y-4.0965
X6.3452Y-3.747
X6.348Y-6.1351
X6.3558Y-4.9405
X6.3607Y-4.7343
X6.3642Y-5.0094
X6.367Y-5.1644
X6.3682Y-5.6849
X6.3697Y-5.311
X6.378Y-5.9252
X6.3784Y-3.5733
X6.3788Y-6.2697
X6.4079Y-6.0831
X6.4095Y-5.7263
X6.4169Y-4.934
X6.4204Y-3.7218
X6.4232Y-4.687
X6.435Y-4.2559
X6.437Y-3.5827
X6.4377Y-5.6096
X6.4432Y-5.0637
X6.4434Y-6.2566
X6.4469Y-5.8957
X6.4605Y-4.1254
X6.4643Y-4.3996
X6.4665Y-4.1929
X6.4734Y-4.8031
X6.4833Y-5.7077
X6.4859Y-4.2933
X6.4862Y-6.1614
X6.4917Y-4.987
X6.5013Y-5.2313
X6.5114Y-4.5256
X6.5183Y-4.3297
X6.5258Y-5.2025
X6.5551Y-4.2717
X6.5551Y-5.6594
X6.5569Y-5.301
X6.5591Y-4.6831
X6.5619Y-4.3567
X6.5704Y-3.8087
X6.5809Y-6.072
X6.5959Y-4.3858
X6.6074Y-4.4211
X6.6097Y-4.2024
X6.61Y-5.2921
X6.6124Y-4.7382
X6.6142Y-4.2717
X6.6142Y-5.568
X6.6183Y-4.8829
X6.627Y-5.6264
X6.6295Y-6.0093
X6.6369Y-3.6448
X6.6437Y-6.2008
X6.6491Y-3.7987
X6.6782Y-4.3862
X6.6874Y-4.4701
X6.6899Y-5.9967
X6.6929Y-3.6713
X6.6982Y-6.1726
X6.6995Y-4.441
X6.7028Y-5.561
X6.7224Y-5.4429
X6.7328Y-4.9688
X6.7351Y-4.306
X6.7403Y-4.4501
X6.7455Y-4.3723
X6.7484Y-5.0777
X6.7575Y-4.9462
X6.7584Y-5.5181
X6.7667Y-5.2365
X6.7717Y-5.374
X6.7792Y-3.9133
X6.7802Y-5.1723
X6.797Y-5.9647
X6.7983Y-4.7966
X6.8012Y-5.4528
X6.8047Y-5.0488
X6.8087Y-4.3785
X6.8324Y-5.8937
X6.8406Y-5.315
X6.8424Y-4.4324
X6.8529Y-4.4948
X6.8584Y-3.9188
X6.863Y-5.3868
X6.8769Y-3.7654
X6.8795Y-4.419
X6.8799Y-6.0728
X6.8996Y-5.3051
X6.9055Y-4.502
X6.9094Y-5.9252
X6.9283Y-4.5823
X6.9287Y-5.0394
X6.9291Y-3.7992
X6.9317Y-6.0405
X6.94Y-5.2376
X6.9532Y-4.6475
X6.9637Y-4.0565
X6.9675Y-4.8814
X6.9685Y-5.1083
X6.9705Y-4.4957
X6.9813Y-4.4071
X6.9816Y-4.7421
X6.9828Y-4.8036
X6.9864Y-5.0762
X6.9881Y-5.8173
X6.9883Y-4.9636
X6.998Y-5.4232
X6.9993Y-4.9063
X7.0089Y-5.7408
X7.0254Y-4.602
X7.0374Y-5.128
X7.0403Y-4.0774
X7.0502Y-5.5035
X7.0591Y-4.8346
X7.0591Y-5.5689
X7.0866Y-3.9305
X7.0866Y-5.9055
X7.0945Y-5.5906
X7.1063Y-5.7677
X7.1167Y-4.233
X7.126Y-3.9764
X7.1289Y-4.9201
X7.1349Y-5.8653
X7.1407Y-5.2294
X7.1467Y-5.6355
X7.1585Y-5.0066
X7.1593Y-5.5634
X7.1877Y-4.2684
X7.2156Y-4.8552
X7.2322Y-4.436
X7.2567Y-5.3475
X7.2634Y-4.1338
X7.2638Y-5.7087
X7.2667Y-5.4262
X7.2933Y-4.1831
X7.295Y-4.4845
X7.3001Y-5.6539
X7.306Y-4.6575
X7.3185Y-5.1222
X7.3351Y-4.8893
X7.3437Y-5.1975
X7.3581Y-4.7174
X7.3745Y-4.9582
X7.3917Y-4.8031
X7.3917Y-5.4724
X7.3955Y-4.3672
X7.4204Y-5.4134
X7.4213Y-4.4291
X7.4796Y-4.622
X7.4803Y-5.2165
X7.4902Y-4.685
X7.4924Y-5.1558
X7.5098Y-4.9483
X7.5123Y-4.8883
T2
X6.2943Y-5.3654
X6.3199Y-5.4047
X6.3455Y-5.3654
X6.3711Y-5.4047
X6.3967Y-5.3654
T3
X6.1469Y-5.5217
X6.2469Y-5.5217
X6.3469Y-5.5217
X6.3474Y-4.5079
X6.4469Y-5.5217
X6.4474Y-4.5079
T4
X6.2047Y-5.374
X6.4862Y-5.374
M30
