%TF.GenerationSoftware,KiCad,Pcbnew,9.0.0*%
%TF.CreationDate,2025-06-29T09:39:04-04:00*%
%TF.ProjectId,hubspoke_temp_array,68756273-706f-46b6-955f-74656d705f61,rev?*%
%TF.SameCoordinates,Original*%
%TF.FileFunction,Soldermask,Top*%
%TF.FilePolarity,Negative*%
%FSLAX46Y46*%
G04 Gerber Fmt 4.6, Leading zero omitted, Abs format (unit mm)*
G04 Created by KiCad (PCBNEW 9.0.0) date 2025-06-29 09:39:04*
%MOMM*%
%LPD*%
G01*
G04 APERTURE LIST*
G04 Aperture macros list*
%AMRoundRect*
0 Rectangle with rounded corners*
0 $1 Rounding radius*
0 $2 $3 $4 $5 $6 $7 $8 $9 X,Y pos of 4 corners*
0 Add a 4 corners polygon primitive as box body*
4,1,4,$2,$3,$4,$5,$6,$7,$8,$9,$2,$3,0*
0 Add four circle primitives for the rounded corners*
1,1,$1+$1,$2,$3*
1,1,$1+$1,$4,$5*
1,1,$1+$1,$6,$7*
1,1,$1+$1,$8,$9*
0 Add four rect primitives between the rounded corners*
20,1,$1+$1,$2,$3,$4,$5,0*
20,1,$1+$1,$4,$5,$6,$7,0*
20,1,$1+$1,$6,$7,$8,$9,0*
20,1,$1+$1,$8,$9,$2,$3,0*%
G04 Aperture macros list end*
%ADD10R,0.840000X0.840000*%
%ADD11C,0.840000*%
%ADD12C,1.850000*%
%ADD13RoundRect,0.150000X-0.485377X-0.363408X0.600182X0.086245X0.485377X0.363408X-0.600182X-0.086245X0*%
%ADD14RoundRect,0.100000X-0.208150X0.131524X0.041856X-0.242638X0.208150X-0.131524X-0.041856X0.242638X0*%
%ADD15RoundRect,0.100000X-0.229810X0.088388X0.088388X-0.229810X0.229810X-0.088388X-0.088388X0.229810X0*%
%ADD16RoundRect,0.100000X0.208150X-0.131524X-0.041856X0.242638X-0.208150X0.131524X0.041856X-0.242638X0*%
%ADD17RoundRect,0.150000X-0.201677X-0.571824X0.451118X0.405153X0.201677X0.571824X-0.451118X-0.405153X0*%
%ADD18RoundRect,0.150000X0.363408X-0.485377X-0.086245X0.600182X-0.363408X0.485377X0.086245X-0.600182X0*%
%ADD19RoundRect,0.150000X0.086245X0.600182X-0.363408X-0.485377X-0.086245X-0.600182X0.363408X0.485377X0*%
%ADD20RoundRect,0.150000X-0.032502X0.605475X-0.261733X-0.546948X0.032502X-0.605475X0.261733X0.546948X0*%
%ADD21RoundRect,0.150000X0.605475X0.032502X-0.546948X0.261733X-0.605475X-0.032502X0.546948X-0.261733X0*%
%ADD22RoundRect,0.100000X0.178492X-0.169605X0.006284X0.246141X-0.178492X0.169605X-0.006284X-0.246141X0*%
%ADD23RoundRect,0.100000X-0.169605X-0.178492X0.246141X-0.006284X0.169605X0.178492X-0.246141X0.006284X0*%
%ADD24RoundRect,0.100000X0.100000X-0.225000X0.100000X0.225000X-0.100000X0.225000X-0.100000X-0.225000X0*%
%ADD25RoundRect,0.150000X0.261733X-0.546948X0.032502X0.605475X-0.261733X0.546948X-0.032502X-0.605475X0*%
%ADD26RoundRect,0.150000X0.521491X-0.309359X-0.309359X0.521491X-0.521491X0.309359X0.309359X-0.521491X0*%
%ADD27RoundRect,0.100000X-0.246141X-0.006284X0.169605X-0.178492X0.246141X0.006284X-0.169605X0.178492X0*%
%ADD28RoundRect,0.100000X0.141974X-0.201168X0.054183X0.240186X-0.141974X0.201168X-0.054183X-0.240186X0*%
%ADD29RoundRect,0.150000X0.485377X0.363408X-0.600182X-0.086245X-0.485377X-0.363408X0.600182X0.086245X0*%
%ADD30RoundRect,0.150000X0.600182X-0.086245X-0.485377X0.363408X-0.600182X0.086245X0.485377X-0.363408X0*%
%ADD31RoundRect,0.100000X-0.141974X0.201168X-0.054183X-0.240186X0.141974X-0.201168X0.054183X0.240186X0*%
%ADD32RoundRect,0.100000X-0.201168X-0.141974X0.240186X-0.054183X0.201168X0.141974X-0.240186X0.054183X0*%
%ADD33RoundRect,0.150000X-0.451118X0.405153X0.201677X-0.571824X0.451118X-0.405153X-0.201677X0.571824X0*%
%ADD34RoundRect,0.100000X0.006284X-0.246141X0.178492X0.169605X-0.006284X0.246141X-0.178492X-0.169605X0*%
%ADD35RoundRect,0.100000X0.041856X0.242638X-0.208150X-0.131524X-0.041856X-0.242638X0.208150X0.131524X0*%
%ADD36R,1.700000X1.700000*%
%ADD37O,1.700000X1.700000*%
%ADD38RoundRect,0.100000X-0.242638X0.041856X0.131524X-0.208150X0.242638X-0.041856X-0.131524X0.208150X0*%
%ADD39RoundRect,0.150000X-0.363408X0.485377X0.086245X-0.600182X0.363408X-0.485377X-0.086245X0.600182X0*%
%ADD40RoundRect,0.150000X0.309359X0.521491X-0.521491X-0.309359X-0.309359X-0.521491X0.521491X0.309359X0*%
%ADD41RoundRect,0.100000X-0.054183X0.240186X-0.141974X-0.201168X0.054183X-0.240186X0.141974X0.201168X0*%
%ADD42RoundRect,0.100000X0.242638X-0.041856X-0.131524X0.208150X-0.242638X0.041856X0.131524X-0.208150X0*%
%ADD43RoundRect,0.100000X0.169605X0.178492X-0.246141X0.006284X-0.169605X-0.178492X0.246141X-0.006284X0*%
%ADD44RoundRect,0.150000X0.587500X0.150000X-0.587500X0.150000X-0.587500X-0.150000X0.587500X-0.150000X0*%
%ADD45RoundRect,0.100000X-0.225000X-0.100000X0.225000X-0.100000X0.225000X0.100000X-0.225000X0.100000X0*%
%ADD46RoundRect,0.150000X-0.150000X0.587500X-0.150000X-0.587500X0.150000X-0.587500X0.150000X0.587500X0*%
%ADD47RoundRect,0.150000X0.032502X-0.605475X0.261733X0.546948X-0.032502X0.605475X-0.261733X-0.546948X0*%
%ADD48RoundRect,0.100000X-0.240186X-0.054183X0.201168X-0.141974X0.240186X0.054183X-0.201168X0.141974X0*%
%ADD49RoundRect,0.150000X0.451118X-0.405153X-0.201677X0.571824X-0.451118X0.405153X0.201677X-0.571824X0*%
%ADD50RoundRect,0.150000X-0.605475X-0.032502X0.546948X-0.261733X0.605475X0.032502X-0.546948X0.261733X0*%
%ADD51RoundRect,0.100000X-0.100000X0.225000X-0.100000X-0.225000X0.100000X-0.225000X0.100000X0.225000X0*%
%ADD52RoundRect,0.100000X0.131524X0.208150X-0.242638X-0.041856X-0.131524X-0.208150X0.242638X0.041856X0*%
%ADD53RoundRect,0.100000X-0.178492X0.169605X-0.006284X-0.246141X0.178492X-0.169605X0.006284X0.246141X0*%
%ADD54RoundRect,0.100000X0.054183X-0.240186X0.141974X0.201168X-0.054183X0.240186X-0.141974X-0.201168X0*%
%ADD55RoundRect,0.150000X0.546948X0.261733X-0.605475X0.032502X-0.546948X-0.261733X0.605475X-0.032502X0*%
%ADD56RoundRect,0.150000X0.571824X-0.201677X-0.405153X0.451118X-0.571824X0.201677X0.405153X-0.451118X0*%
%ADD57RoundRect,0.150000X0.201677X0.571824X-0.451118X-0.405153X-0.201677X-0.571824X0.451118X0.405153X0*%
%ADD58RoundRect,0.100000X0.229810X-0.088388X-0.088388X0.229810X-0.229810X0.088388X0.088388X-0.229810X0*%
%ADD59RoundRect,0.100000X-0.041856X-0.242638X0.208150X0.131524X0.041856X0.242638X-0.208150X-0.131524X0*%
%ADD60RoundRect,0.100000X-0.131524X-0.208150X0.242638X0.041856X0.131524X0.208150X-0.242638X-0.041856X0*%
%ADD61RoundRect,0.150000X-0.521491X0.309359X0.309359X-0.521491X0.521491X-0.309359X-0.309359X0.521491X0*%
%ADD62RoundRect,0.150000X-0.587500X-0.150000X0.587500X-0.150000X0.587500X0.150000X-0.587500X0.150000X0*%
%ADD63RoundRect,0.100000X0.201168X0.141974X-0.240186X0.054183X-0.201168X-0.141974X0.240186X-0.054183X0*%
%ADD64RoundRect,0.150000X-0.600182X0.086245X0.485377X-0.363408X0.600182X-0.086245X-0.485377X0.363408X0*%
%ADD65RoundRect,0.100000X-0.006284X0.246141X-0.178492X-0.169605X0.006284X-0.246141X0.178492X0.169605X0*%
%ADD66RoundRect,0.150000X0.150000X-0.587500X0.150000X0.587500X-0.150000X0.587500X-0.150000X-0.587500X0*%
%ADD67RoundRect,0.150000X0.405153X0.451118X-0.571824X-0.201677X-0.405153X-0.451118X0.571824X0.201677X0*%
%ADD68RoundRect,0.100000X0.088388X0.229810X-0.229810X-0.088388X-0.088388X-0.229810X0.229810X0.088388X0*%
%ADD69RoundRect,0.100000X0.240186X0.054183X-0.201168X0.141974X-0.240186X-0.054183X0.201168X-0.141974X0*%
%ADD70RoundRect,0.100000X0.225000X0.100000X-0.225000X0.100000X-0.225000X-0.100000X0.225000X-0.100000X0*%
%ADD71RoundRect,0.100000X0.246141X0.006284X-0.169605X0.178492X-0.246141X-0.006284X0.169605X-0.178492X0*%
%ADD72RoundRect,0.100000X-0.088388X-0.229810X0.229810X0.088388X0.088388X0.229810X-0.229810X-0.088388X0*%
%ADD73RoundRect,0.150000X-0.405153X-0.451118X0.571824X0.201677X0.405153X0.451118X-0.571824X-0.201677X0*%
%ADD74RoundRect,0.150000X-0.086245X-0.600182X0.363408X0.485377X0.086245X0.600182X-0.363408X-0.485377X0*%
%ADD75RoundRect,0.150000X-0.309359X-0.521491X0.521491X0.309359X0.309359X0.521491X-0.521491X-0.309359X0*%
%ADD76RoundRect,0.150000X-0.261733X0.546948X-0.032502X-0.605475X0.261733X-0.546948X0.032502X0.605475X0*%
%ADD77RoundRect,0.150000X-0.571824X0.201677X0.405153X-0.451118X0.571824X-0.201677X-0.405153X0.451118X0*%
%ADD78RoundRect,0.150000X-0.546948X-0.261733X0.605475X-0.032502X0.546948X0.261733X-0.605475X0.032502X0*%
G04 APERTURE END LIST*
D10*
%TO.C,J3*%
X162475000Y-136280000D03*
D11*
X161825000Y-137280000D03*
X161175000Y-136280000D03*
X160525000Y-137280000D03*
X159875000Y-136280000D03*
D12*
X164750000Y-136500000D03*
X157600000Y-136500000D03*
%TD*%
D13*
%TO.C,Q7*%
X142586944Y-94916934D03*
X143314042Y-96672305D03*
X144682767Y-95077088D03*
%TD*%
D14*
%TO.C,U18*%
X174020971Y-111782809D03*
X173480515Y-112143930D03*
X172940060Y-112505051D03*
X173995643Y-114084843D03*
X175076554Y-113362601D03*
%TD*%
D15*
%TO.C,U17*%
X171097357Y-108533250D03*
X170637738Y-108992870D03*
X170178118Y-109452489D03*
X171521621Y-110795992D03*
X172440860Y-109876753D03*
%TD*%
D16*
%TO.C,U34*%
X138104028Y-138217190D03*
X138644484Y-137856069D03*
X139184939Y-137494948D03*
X138129356Y-135915156D03*
X137048445Y-136637398D03*
%TD*%
D17*
%TO.C,Q4*%
X128144729Y-107473463D03*
X129724521Y-108529046D03*
X129976319Y-106442249D03*
%TD*%
D18*
%TO.C,Q31*%
X125979434Y-138475555D03*
X127734805Y-137748457D03*
X126139588Y-136379732D03*
%TD*%
D19*
%TO.C,Q19*%
X186863096Y-136743281D03*
X185107725Y-136016183D03*
X185267879Y-138112006D03*
%TD*%
D20*
%TO.C,Q18*%
X188562271Y-130508740D03*
X186698779Y-130138068D03*
X187264731Y-132162376D03*
%TD*%
D21*
%TO.C,Q26*%
X150553759Y-157499771D03*
X150924431Y-155636279D03*
X148900123Y-156202231D03*
%TD*%
D22*
%TO.C,U35*%
X135870549Y-134459701D03*
X136471070Y-134210957D03*
X137071592Y-133962212D03*
X136344493Y-132206841D03*
X135143450Y-132704330D03*
%TD*%
D23*
%TO.C,U11*%
X146602798Y-104808049D03*
X146851542Y-105408570D03*
X147100287Y-106009092D03*
X148855658Y-105281993D03*
X148358169Y-104080950D03*
%TD*%
D24*
%TO.C,U5*%
X133787500Y-126012500D03*
X134437500Y-126012500D03*
X135087500Y-126012500D03*
X135087500Y-124112500D03*
X133787500Y-124112500D03*
%TD*%
D25*
%TO.C,Q32*%
X123928522Y-132347712D03*
X125792014Y-131977040D03*
X124494474Y-130323404D03*
%TD*%
D26*
%TO.C,Q29*%
X133426244Y-148962080D03*
X134769747Y-147618577D03*
X132772170Y-146964503D03*
%TD*%
D27*
%TO.C,U15*%
X163651345Y-104033115D03*
X163402600Y-104633637D03*
X163153856Y-105234158D03*
X164909227Y-105961257D03*
X165406716Y-104760214D03*
%TD*%
D28*
%TO.C,U36*%
X134413036Y-130338682D03*
X135050547Y-130211873D03*
X135688057Y-130085064D03*
X135317386Y-128221572D03*
X134042365Y-128475190D03*
%TD*%
D29*
%TO.C,Q23*%
X169538055Y-155083065D03*
X168810957Y-153327694D03*
X167442232Y-154922911D03*
%TD*%
D30*
%TO.C,Q27*%
X144319218Y-155800596D03*
X145046316Y-154045225D03*
X142950493Y-154205379D03*
%TD*%
D31*
%TO.C,U20*%
X177711963Y-119661317D03*
X177074452Y-119788126D03*
X176436942Y-119914935D03*
X176807613Y-121778427D03*
X178082634Y-121524809D03*
%TD*%
D32*
%TO.C,U12*%
X150723817Y-103350536D03*
X150850626Y-103988047D03*
X150977435Y-104625557D03*
X152840927Y-104254886D03*
X152587309Y-102979865D03*
%TD*%
D33*
%TO.C,Q14*%
X182938576Y-105914458D03*
X181358784Y-106970041D03*
X183190374Y-108001255D03*
%TD*%
D34*
%TO.C,U7*%
X135095615Y-117411154D03*
X135696137Y-117659899D03*
X136296658Y-117908643D03*
X137023757Y-116153272D03*
X135822714Y-115655783D03*
%TD*%
D35*
%TO.C,U24*%
X175146000Y-136533464D03*
X174605545Y-136172343D03*
X174065089Y-135811222D03*
X173009506Y-137391014D03*
X174090417Y-138113256D03*
%TD*%
D36*
%TO.C,J2*%
X163750000Y-140250000D03*
D37*
X161210000Y-140250000D03*
X158670000Y-140250000D03*
X156130000Y-140250000D03*
%TD*%
D38*
%TO.C,U16*%
X167595964Y-105916499D03*
X167234843Y-106456954D03*
X166873722Y-106997410D03*
X168453514Y-108052993D03*
X169175756Y-106972082D03*
%TD*%
D39*
%TO.C,Q15*%
X186145565Y-111524444D03*
X184390194Y-112251542D03*
X185985411Y-113620267D03*
%TD*%
D40*
%TO.C,Q21*%
X180024580Y-147636255D03*
X178681077Y-146292752D03*
X178027003Y-148290329D03*
%TD*%
D41*
%TO.C,U22*%
X178107020Y-128352592D03*
X177469510Y-128225783D03*
X176831999Y-128098974D03*
X176461328Y-129962466D03*
X177736349Y-130216084D03*
%TD*%
D42*
%TO.C,U32*%
X144529035Y-144083500D03*
X144890156Y-143543045D03*
X145251277Y-143002589D03*
X143671485Y-141947006D03*
X142949243Y-143027917D03*
%TD*%
D43*
%TO.C,U27*%
X165522201Y-145191950D03*
X165273457Y-144591429D03*
X165024712Y-143990907D03*
X163269341Y-144718006D03*
X163766830Y-145919049D03*
%TD*%
D44*
%TO.C,Q25*%
X157000000Y-157950000D03*
X157000000Y-156050000D03*
X155125000Y-157000000D03*
%TD*%
D45*
%TO.C,U13*%
X155050000Y-102725000D03*
X155050000Y-103375000D03*
X155050000Y-104025000D03*
X156950000Y-104025000D03*
X156950000Y-102725000D03*
%TD*%
D46*
%TO.C,Q17*%
X189012500Y-124062500D03*
X187112500Y-124062500D03*
X188062500Y-125937500D03*
%TD*%
D47*
%TO.C,Q2*%
X123562728Y-119491259D03*
X125426220Y-119861931D03*
X124860268Y-117837623D03*
%TD*%
D48*
%TO.C,U14*%
X159415092Y-102955479D03*
X159288283Y-103592989D03*
X159161474Y-104230500D03*
X161024966Y-104601171D03*
X161278584Y-103326150D03*
%TD*%
D49*
%TO.C,Q30*%
X129186423Y-144085541D03*
X130766215Y-143029958D03*
X128934625Y-141998744D03*
%TD*%
D50*
%TO.C,Q10*%
X161571240Y-92500228D03*
X161200568Y-94363720D03*
X163224876Y-93797768D03*
%TD*%
D51*
%TO.C,U21*%
X178337500Y-123987501D03*
X177687500Y-123987501D03*
X177037500Y-123987501D03*
X177037500Y-125887501D03*
X178337500Y-125887501D03*
%TD*%
D52*
%TO.C,U26*%
X169279690Y-142958471D03*
X168918569Y-142418015D03*
X168557448Y-141877560D03*
X166977656Y-142933143D03*
X167699898Y-144014054D03*
%TD*%
D53*
%TO.C,U19*%
X176254450Y-115540298D03*
X175653929Y-115789042D03*
X175053407Y-116037787D03*
X175780506Y-117793158D03*
X176981549Y-117295669D03*
%TD*%
D54*
%TO.C,U6*%
X134017979Y-121647407D03*
X134655489Y-121774216D03*
X135293000Y-121901025D03*
X135663671Y-120037533D03*
X134388650Y-119783915D03*
%TD*%
D55*
%TO.C,Q24*%
X163410212Y-157133977D03*
X163039540Y-155270485D03*
X161385904Y-156568025D03*
%TD*%
D56*
%TO.C,Q28*%
X138535963Y-152917770D03*
X139591546Y-151337978D03*
X137504749Y-151086180D03*
%TD*%
D57*
%TO.C,Q20*%
X183980270Y-142526536D03*
X182400478Y-141470953D03*
X182148680Y-143557750D03*
%TD*%
D58*
%TO.C,U33*%
X141027642Y-141466749D03*
X141487261Y-141007129D03*
X141946881Y-140547510D03*
X140603378Y-139204007D03*
X139684139Y-140123246D03*
%TD*%
D59*
%TO.C,U8*%
X136978999Y-113466535D03*
X137519454Y-113827656D03*
X138059910Y-114188777D03*
X139115493Y-112608985D03*
X138034582Y-111886743D03*
%TD*%
D60*
%TO.C,U10*%
X142845309Y-107041528D03*
X143206430Y-107581984D03*
X143567551Y-108122439D03*
X145147343Y-107066856D03*
X144425101Y-105985945D03*
%TD*%
D61*
%TO.C,Q13*%
X178698755Y-101037919D03*
X177355252Y-102381422D03*
X179352829Y-103035496D03*
%TD*%
D62*
%TO.C,Q9*%
X155125000Y-92050000D03*
X155125000Y-93950000D03*
X157000000Y-93000000D03*
%TD*%
D63*
%TO.C,U28*%
X161401182Y-146649463D03*
X161274373Y-146011952D03*
X161147564Y-145374442D03*
X159284072Y-145745113D03*
X159537690Y-147020134D03*
%TD*%
D64*
%TO.C,Q11*%
X167805781Y-94199403D03*
X167078683Y-95954774D03*
X169174506Y-95794620D03*
%TD*%
D65*
%TO.C,U23*%
X177029384Y-132588845D03*
X176428862Y-132340100D03*
X175828341Y-132091356D03*
X175101242Y-133846727D03*
X176302285Y-134344216D03*
%TD*%
D66*
%TO.C,Q1*%
X123112500Y-125937500D03*
X125012500Y-125937500D03*
X124062500Y-124062500D03*
%TD*%
D67*
%TO.C,Q22*%
X175148041Y-151876076D03*
X174092458Y-150296284D03*
X173061244Y-152127874D03*
%TD*%
D68*
%TO.C,U25*%
X172529249Y-140034857D03*
X172069629Y-139575238D03*
X171610010Y-139115618D03*
X170266507Y-140459121D03*
X171185746Y-141378360D03*
%TD*%
D69*
%TO.C,U30*%
X152709907Y-147044520D03*
X152836716Y-146407010D03*
X152963525Y-145769499D03*
X151100033Y-145398828D03*
X150846415Y-146673849D03*
%TD*%
D70*
%TO.C,U29*%
X157075000Y-147275000D03*
X157075000Y-146625000D03*
X157075000Y-145975000D03*
X155175000Y-145975000D03*
X155175000Y-147275000D03*
%TD*%
D71*
%TO.C,U31*%
X148473654Y-145966884D03*
X148722399Y-145366362D03*
X148971143Y-144765841D03*
X147215772Y-144038742D03*
X146718283Y-145239785D03*
%TD*%
D72*
%TO.C,U9*%
X139595750Y-109965142D03*
X140055370Y-110424761D03*
X140514989Y-110884381D03*
X141858492Y-109540878D03*
X140939253Y-108621639D03*
%TD*%
D73*
%TO.C,Q6*%
X136976958Y-98123923D03*
X138032541Y-99703715D03*
X139063755Y-97872125D03*
%TD*%
D74*
%TO.C,Q3*%
X125261903Y-113256718D03*
X127017274Y-113983816D03*
X126857120Y-111887993D03*
%TD*%
D75*
%TO.C,Q5*%
X132100419Y-102363744D03*
X133443922Y-103707247D03*
X134097996Y-101709670D03*
%TD*%
D76*
%TO.C,Q16*%
X188196477Y-117652287D03*
X186332985Y-118022959D03*
X187630525Y-119676595D03*
%TD*%
D77*
%TO.C,Q12*%
X173589036Y-97082229D03*
X172533453Y-98662021D03*
X174620250Y-98913819D03*
%TD*%
D36*
%TO.C,J1*%
X161225000Y-114500000D03*
D37*
X163765000Y-114500000D03*
%TD*%
D78*
%TO.C,Q8*%
X148714787Y-92866022D03*
X149085459Y-94729514D03*
X150739095Y-93431974D03*
%TD*%
M02*
