%TF.GenerationSoftware,KiCad,Pcbnew,9.0.0*%
%TF.CreationDate,2025-06-29T09:39:04-04:00*%
%TF.ProjectId,hubspoke_temp_array,68756273-706f-46b6-955f-74656d705f61,rev?*%
%TF.SameCoordinates,Original*%
%TF.FileFunction,Legend,Bot*%
%TF.FilePolarity,Positive*%
%FSLAX46Y46*%
G04 Gerber Fmt 4.6, Leading zero omitted, Abs format (unit mm)*
G04 Created by KiCad (PCBNEW 9.0.0) date 2025-06-29 09:39:04*
%MOMM*%
%LPD*%
G01*
G04 APERTURE LIST*
%ADD10C,0.500000*%
%ADD11C,0.150000*%
%ADD12C,0.120000*%
G04 APERTURE END LIST*
D10*
G36*
X177962806Y-132658951D02*
G01*
X178048914Y-132687334D01*
X178127313Y-132734734D01*
X178198757Y-132804815D01*
X178254941Y-132892029D01*
X178295478Y-133002041D01*
X178337984Y-132913755D01*
X178389673Y-132844805D01*
X178450572Y-132792236D01*
X178521155Y-132753111D01*
X178594733Y-132730013D01*
X178672711Y-132722260D01*
X178767101Y-132730999D01*
X178850646Y-132756300D01*
X178925502Y-132797854D01*
X178990019Y-132854323D01*
X179045922Y-132928347D01*
X179093175Y-133023046D01*
X179125244Y-133124628D01*
X179145878Y-133245257D01*
X179153258Y-133388189D01*
X179153258Y-134051308D01*
X177340000Y-134051308D01*
X177340000Y-133374145D01*
X177658981Y-133374145D01*
X177658981Y-133654047D01*
X178119134Y-133654047D01*
X178119134Y-133433007D01*
X178418576Y-133433007D01*
X178418576Y-133654047D01*
X178839895Y-133654047D01*
X178839895Y-133393806D01*
X178833210Y-133307333D01*
X178815279Y-133242249D01*
X178788237Y-133193771D01*
X178749409Y-133156094D01*
X178700714Y-133133248D01*
X178639005Y-133125139D01*
X178561475Y-133136827D01*
X178503368Y-133169545D01*
X178459716Y-133224459D01*
X178430060Y-133308506D01*
X178418576Y-133433007D01*
X178119134Y-133433007D01*
X178119134Y-133363032D01*
X178111046Y-133261884D01*
X178089543Y-133187504D01*
X178057341Y-133133565D01*
X178011719Y-133091685D01*
X177957482Y-133066682D01*
X177891866Y-133057972D01*
X177824116Y-133066462D01*
X177768485Y-133090669D01*
X177722117Y-133130757D01*
X177689831Y-133183432D01*
X177667581Y-133261540D01*
X177658981Y-133374145D01*
X177340000Y-133374145D01*
X177340000Y-133340561D01*
X177350157Y-133171603D01*
X177378252Y-133033255D01*
X177421562Y-132920367D01*
X177478607Y-132828628D01*
X177554399Y-132750923D01*
X177643315Y-132695683D01*
X177747962Y-132661510D01*
X177872327Y-132649476D01*
X177962806Y-132658951D01*
G37*
G36*
X178785917Y-132189689D02*
G01*
X178793942Y-132251924D01*
X178818035Y-132309979D01*
X178855636Y-132360470D01*
X178903398Y-132399494D01*
X178959260Y-132424635D01*
X179021001Y-132433077D01*
X179082928Y-132424669D01*
X179139825Y-132399494D01*
X179188762Y-132360358D01*
X179226531Y-132309979D01*
X179250717Y-132251917D01*
X179258771Y-132189689D01*
X179250668Y-132124829D01*
X179226531Y-132065247D01*
X179188658Y-132013659D01*
X179139825Y-131974267D01*
X179082928Y-131949091D01*
X179021001Y-131940683D01*
X178959260Y-131949125D01*
X178903398Y-131974267D01*
X178855739Y-132013545D01*
X178818035Y-132065247D01*
X178793991Y-132124822D01*
X178785917Y-132189689D01*
G37*
G36*
X177340000Y-132374337D02*
G01*
X178593210Y-132374337D01*
X178629602Y-131993806D01*
X177340000Y-131993806D01*
X177340000Y-132374337D01*
G37*
G36*
X178098252Y-130408703D02*
G01*
X178213732Y-130433326D01*
X178316482Y-130472906D01*
X178409728Y-130529648D01*
X178487861Y-130602327D01*
X178552299Y-130692480D01*
X178598233Y-130793750D01*
X178627173Y-130912447D01*
X178637418Y-131052128D01*
X178629796Y-131177624D01*
X178607694Y-131291821D01*
X178571838Y-131396266D01*
X178519241Y-131491787D01*
X178448694Y-131573896D01*
X178358370Y-131643928D01*
X178255618Y-131693806D01*
X178128244Y-131725958D01*
X177970512Y-131737595D01*
X177847625Y-131729218D01*
X177735161Y-131704814D01*
X177631503Y-131664933D01*
X177537136Y-131608188D01*
X177457141Y-131535453D01*
X177390191Y-131445237D01*
X177341829Y-131343737D01*
X177311576Y-131225928D01*
X177300921Y-131088398D01*
X177302130Y-131068859D01*
X177583510Y-131068859D01*
X177595676Y-131156583D01*
X177629846Y-131224432D01*
X177686458Y-131277320D01*
X177758458Y-131313438D01*
X177851358Y-131337120D01*
X177970512Y-131345830D01*
X178097627Y-131336942D01*
X178191118Y-131313423D01*
X178258719Y-131278663D01*
X178310682Y-131226952D01*
X178343030Y-131157176D01*
X178354829Y-131063241D01*
X178343185Y-130976968D01*
X178310711Y-130911035D01*
X178257376Y-130860397D01*
X178189006Y-130826234D01*
X178095769Y-130803226D01*
X177970512Y-130794574D01*
X177852792Y-130802404D01*
X177760226Y-130823718D01*
X177687923Y-130856123D01*
X177631312Y-130905304D01*
X177596324Y-130973930D01*
X177583510Y-131068859D01*
X177302130Y-131068859D01*
X177308907Y-130959323D01*
X177331987Y-130842876D01*
X177369309Y-130737299D01*
X177423792Y-130641032D01*
X177495756Y-130559453D01*
X177586929Y-130491102D01*
X177690257Y-130442410D01*
X177815606Y-130411291D01*
X177967826Y-130400122D01*
X178098252Y-130408703D01*
G37*
G36*
X179153258Y-128150767D02*
G01*
X177340000Y-128150767D01*
X177340000Y-128542533D01*
X178468890Y-128542533D01*
X178358593Y-128587391D01*
X178197903Y-128665631D01*
X177566657Y-128978995D01*
X177566657Y-129283932D01*
X178197903Y-129602913D01*
X178360511Y-129681387D01*
X178468890Y-129726011D01*
X177340000Y-129726011D01*
X177340000Y-130112159D01*
X179153258Y-130112159D01*
X179153258Y-129703663D01*
X178359958Y-129289549D01*
X178171402Y-129200034D01*
X178002386Y-129132868D01*
X178141659Y-129080331D01*
X178359958Y-128976186D01*
X179153258Y-128559263D01*
X179153258Y-128150767D01*
G37*
G36*
X177664598Y-127354535D02*
G01*
X177664598Y-126526308D01*
X177340000Y-126526308D01*
X177340000Y-127751796D01*
X179153258Y-127751796D01*
X179153258Y-126540230D01*
X178831468Y-126540230D01*
X178831468Y-127354535D01*
X178426392Y-127354535D01*
X178426392Y-126652215D01*
X178107411Y-126697034D01*
X178107411Y-127354535D01*
X177664598Y-127354535D01*
G37*
G36*
X179153258Y-124242882D02*
G01*
X177340000Y-124242882D01*
X177340000Y-124634647D01*
X178468890Y-124634647D01*
X178358593Y-124679505D01*
X178197903Y-124757745D01*
X177566657Y-125071109D01*
X177566657Y-125376046D01*
X178197903Y-125695027D01*
X178360511Y-125773501D01*
X178468890Y-125818126D01*
X177340000Y-125818126D01*
X177340000Y-126204274D01*
X179153258Y-126204274D01*
X179153258Y-125795778D01*
X178359958Y-125381664D01*
X178171402Y-125292149D01*
X178002386Y-125224982D01*
X178141659Y-125172445D01*
X178359958Y-125068300D01*
X179153258Y-124651378D01*
X179153258Y-124242882D01*
G37*
G36*
X177300921Y-123275924D02*
G01*
X177315454Y-123484170D01*
X177357385Y-123670348D01*
X177425276Y-123837865D01*
X177519152Y-123989480D01*
X177796245Y-123810450D01*
X177721217Y-123675174D01*
X177670215Y-123546112D01*
X177640741Y-123421900D01*
X177631137Y-123301081D01*
X177637633Y-123195328D01*
X177655155Y-123113454D01*
X177681451Y-123050732D01*
X177721423Y-122999496D01*
X177770727Y-122969962D01*
X177832515Y-122959752D01*
X177890149Y-122967501D01*
X177934609Y-122989183D01*
X177971802Y-123026252D01*
X178012889Y-123092620D01*
X178109487Y-123315125D01*
X178134644Y-123379483D01*
X178206806Y-123548714D01*
X178268977Y-123667690D01*
X178343016Y-123766181D01*
X178434085Y-123841102D01*
X178504015Y-123875705D01*
X178587860Y-123897635D01*
X178688709Y-123905460D01*
X178798788Y-123893985D01*
X178892258Y-123861170D01*
X178972641Y-123807519D01*
X179040807Y-123736879D01*
X179096194Y-123653533D01*
X179139092Y-123555704D01*
X179178822Y-123398197D01*
X179192337Y-123228419D01*
X179179730Y-123071413D01*
X179140558Y-122905286D01*
X179076904Y-122743357D01*
X178988028Y-122587648D01*
X178713866Y-122769487D01*
X178786523Y-122901714D01*
X178831346Y-123007379D01*
X178858431Y-123113779D01*
X178867739Y-123231228D01*
X178861816Y-123320136D01*
X178846115Y-123386034D01*
X178822920Y-123434071D01*
X178788818Y-123472850D01*
X178749389Y-123495040D01*
X178702630Y-123502581D01*
X178657487Y-123495574D01*
X178617267Y-123474616D01*
X178582307Y-123439123D01*
X178541674Y-123373866D01*
X178453625Y-123164061D01*
X178431277Y-123102512D01*
X178362848Y-122932804D01*
X178305369Y-122812840D01*
X178234624Y-122711752D01*
X178137452Y-122626849D01*
X178061261Y-122586292D01*
X177968383Y-122560506D01*
X177854863Y-122551256D01*
X177736857Y-122562448D01*
X177635848Y-122594434D01*
X177548461Y-122646388D01*
X177473558Y-122716219D01*
X177411661Y-122801746D01*
X177362470Y-122905286D01*
X177329018Y-123016001D01*
X177308168Y-123138970D01*
X177300921Y-123275924D01*
G37*
G36*
X178673077Y-120485694D02*
G01*
X178537661Y-120499472D01*
X178400624Y-120541748D01*
X178263891Y-120613726D01*
X178088970Y-120740439D01*
X177905829Y-120900268D01*
X177658981Y-121140509D01*
X177658981Y-120491311D01*
X177340000Y-120491311D01*
X177340000Y-121722418D01*
X177521838Y-121722418D01*
X177846687Y-121406546D01*
X178062470Y-121209019D01*
X178256262Y-121051514D01*
X178386458Y-120966974D01*
X178510467Y-120915385D01*
X178616901Y-120899808D01*
X178688704Y-120907631D01*
X178745268Y-120929378D01*
X178790069Y-120964166D01*
X178823134Y-121010587D01*
X178843977Y-121069114D01*
X178851496Y-121143196D01*
X178840743Y-121236227D01*
X178808143Y-121326500D01*
X178757201Y-121414634D01*
X178680893Y-121518108D01*
X178921472Y-121719609D01*
X179031512Y-121580052D01*
X179114546Y-121425785D01*
X179153563Y-121315846D01*
X179176771Y-121204266D01*
X179184521Y-121090073D01*
X179177900Y-120973537D01*
X179158930Y-120870112D01*
X179128590Y-120778053D01*
X179084229Y-120693032D01*
X179027633Y-120622267D01*
X178958108Y-120564096D01*
X178878307Y-120521641D01*
X178784370Y-120495083D01*
X178673077Y-120485694D01*
G37*
G36*
X178450290Y-118891822D02*
G01*
X178621905Y-118916190D01*
X178761513Y-118953262D01*
X178874167Y-119000919D01*
X178964214Y-119057850D01*
X179046271Y-119133265D01*
X179109176Y-119218174D01*
X179154504Y-119313830D01*
X179182556Y-119422254D01*
X179192337Y-119546092D01*
X179183283Y-119661609D01*
X179156330Y-119772164D01*
X179111127Y-119879117D01*
X179046421Y-119973514D01*
X178951549Y-120060157D01*
X178820111Y-120139357D01*
X178715916Y-120181319D01*
X178588449Y-120213827D01*
X178433560Y-120235100D01*
X178246629Y-120242794D01*
X178034389Y-120232643D01*
X177859561Y-120204608D01*
X177716378Y-120161706D01*
X177582823Y-120097192D01*
X177480014Y-120020652D01*
X177403014Y-119932240D01*
X177347108Y-119829156D01*
X177312828Y-119712685D01*
X177300921Y-119579675D01*
X177301708Y-119571249D01*
X177636632Y-119571249D01*
X177645949Y-119638950D01*
X177672667Y-119694360D01*
X177717600Y-119740516D01*
X177784888Y-119778367D01*
X177886576Y-119809386D01*
X178034128Y-119831401D01*
X178241011Y-119839916D01*
X178453874Y-119831239D01*
X178600537Y-119809141D01*
X178688965Y-119782639D01*
X178752423Y-119751043D01*
X178796420Y-119715474D01*
X178829476Y-119670308D01*
X178849591Y-119617392D01*
X178856625Y-119554518D01*
X178847187Y-119487020D01*
X178820060Y-119431660D01*
X178774275Y-119385413D01*
X178705439Y-119347400D01*
X178602053Y-119316306D01*
X178453436Y-119294325D01*
X178246629Y-119285851D01*
X178031648Y-119294591D01*
X177886981Y-119316625D01*
X177800607Y-119343088D01*
X177738512Y-119374706D01*
X177695373Y-119410415D01*
X177663181Y-119455400D01*
X177643522Y-119508275D01*
X177636632Y-119571249D01*
X177301708Y-119571249D01*
X177314137Y-119438236D01*
X177352725Y-119310571D01*
X177416648Y-119193776D01*
X177507916Y-119085816D01*
X177591261Y-119020342D01*
X177700067Y-118965373D01*
X177839938Y-118922230D01*
X178017662Y-118893525D01*
X178241011Y-118882972D01*
X178450290Y-118891822D01*
G37*
G36*
X178673077Y-117464898D02*
G01*
X178537661Y-117478677D01*
X178400624Y-117520952D01*
X178263891Y-117592931D01*
X178088970Y-117719644D01*
X177905829Y-117879473D01*
X177658981Y-118119713D01*
X177658981Y-117470516D01*
X177340000Y-117470516D01*
X177340000Y-118701622D01*
X177521838Y-118701622D01*
X177846687Y-118385750D01*
X178062470Y-118188224D01*
X178256262Y-118030719D01*
X178386458Y-117946179D01*
X178510467Y-117894589D01*
X178616901Y-117879012D01*
X178688704Y-117886836D01*
X178745268Y-117908582D01*
X178790069Y-117943370D01*
X178823134Y-117989791D01*
X178843977Y-118048319D01*
X178851496Y-118122400D01*
X178840743Y-118215431D01*
X178808143Y-118305704D01*
X178757201Y-118393839D01*
X178680893Y-118497313D01*
X178921472Y-118698813D01*
X179031512Y-118559257D01*
X179114546Y-118404989D01*
X179153563Y-118295051D01*
X179176771Y-118183470D01*
X179184521Y-118069277D01*
X179177900Y-117952742D01*
X179158930Y-117849316D01*
X179128590Y-117757257D01*
X179084229Y-117672236D01*
X179027633Y-117601472D01*
X178958108Y-117543300D01*
X178878307Y-117500845D01*
X178784370Y-117474287D01*
X178673077Y-117464898D01*
G37*
G36*
X178473286Y-116547766D02*
G01*
X178465764Y-116423964D01*
X178444319Y-116315561D01*
X178410150Y-116220359D01*
X178360608Y-116133301D01*
X178298262Y-116062091D01*
X178222205Y-116004937D01*
X178135979Y-115964024D01*
X178035566Y-115938387D01*
X177918000Y-115929344D01*
X177809253Y-115937006D01*
X177708251Y-115959484D01*
X177613674Y-115996510D01*
X177528729Y-116049916D01*
X177453693Y-116123957D01*
X177387871Y-116221824D01*
X177341728Y-116330660D01*
X177311781Y-116465389D01*
X177300921Y-116631664D01*
X177308589Y-116781842D01*
X177330352Y-116912909D01*
X177365805Y-117037484D01*
X177412906Y-117154832D01*
X177698304Y-117026116D01*
X177654123Y-116903031D01*
X177628354Y-116783116D01*
X177619902Y-116665247D01*
X177630092Y-116552176D01*
X177657292Y-116469305D01*
X177698548Y-116409281D01*
X177755381Y-116363258D01*
X177819259Y-116336045D01*
X177892599Y-116326727D01*
X177978499Y-116334875D01*
X178047205Y-116357501D01*
X178103361Y-116399542D01*
X178148443Y-116470830D01*
X178174725Y-116561958D01*
X178185080Y-116698831D01*
X178178119Y-116817777D01*
X178159923Y-116908635D01*
X178271786Y-117045778D01*
X179153258Y-117045778D01*
X179153258Y-115979658D01*
X178834277Y-116024476D01*
X178834277Y-116659630D01*
X178467669Y-116659630D01*
X178473286Y-116547766D01*
G37*
G36*
X184056517Y-139093893D02*
G01*
X183379476Y-139093893D01*
X183379476Y-140224249D01*
X180430000Y-140224249D01*
X180430000Y-141018771D01*
X183379476Y-141018771D01*
X183379476Y-142177215D01*
X184056517Y-142177215D01*
X184056517Y-139093893D01*
G37*
G36*
X183024836Y-137080355D02*
G01*
X183000836Y-136829778D01*
X182935758Y-136640552D01*
X182835059Y-136498325D01*
X182696394Y-136393600D01*
X182514731Y-136326847D01*
X182276964Y-136302442D01*
X180430000Y-136302442D01*
X180430000Y-137063503D01*
X182046887Y-137063503D01*
X182194179Y-137072325D01*
X182289420Y-137094277D01*
X182364880Y-137136254D01*
X182414961Y-137197836D01*
X182442974Y-137279361D01*
X182454040Y-137404710D01*
X182437747Y-137561515D01*
X182385941Y-137733645D01*
X182292351Y-137925191D01*
X180430000Y-137925191D01*
X180430000Y-138686252D01*
X184280732Y-138686252D01*
X184353517Y-137925191D01*
X182784989Y-137925191D01*
X182918769Y-137655830D01*
X182998161Y-137375724D01*
X183024836Y-137080355D01*
G37*
G36*
X182118902Y-133434094D02*
G01*
X182308497Y-133477393D01*
X182480907Y-133547871D01*
X182636481Y-133647677D01*
X182768554Y-133776301D01*
X182879023Y-133936950D01*
X182957837Y-134115873D01*
X183007362Y-134323766D01*
X183024836Y-134566364D01*
X183006037Y-134819700D01*
X182952274Y-135040935D01*
X182865833Y-135235345D01*
X182744076Y-135408024D01*
X182590058Y-135550917D01*
X182399818Y-135666189D01*
X182190164Y-135746238D01*
X181948392Y-135796671D01*
X181668799Y-135814445D01*
X181364122Y-135792667D01*
X181115464Y-135732275D01*
X180912623Y-135638346D01*
X180733000Y-135505901D01*
X180591955Y-135349964D01*
X180485687Y-135168178D01*
X180412553Y-134968260D01*
X180367432Y-134748339D01*
X180351842Y-134505059D01*
X180373349Y-134204676D01*
X180435617Y-133934263D01*
X180537750Y-133683996D01*
X180670823Y-133469713D01*
X181129755Y-133727145D01*
X181030796Y-133917222D01*
X180967334Y-134085450D01*
X180929664Y-134255600D01*
X180917020Y-134432274D01*
X180933669Y-134587346D01*
X180982081Y-134724037D01*
X181062588Y-134846510D01*
X181171321Y-134942383D01*
X181318937Y-135012248D01*
X181516392Y-135053384D01*
X181516392Y-135030914D01*
X182008785Y-135030914D01*
X182177411Y-134988933D01*
X182300828Y-134933040D01*
X182388827Y-134865806D01*
X182455180Y-134778873D01*
X182495712Y-134675140D01*
X182509972Y-134549755D01*
X182496642Y-134431170D01*
X182458898Y-134333832D01*
X182397376Y-134253000D01*
X182314692Y-134194988D01*
X182195094Y-134156001D01*
X182025638Y-134141137D01*
X182008785Y-134141137D01*
X182008785Y-135030914D01*
X181516392Y-135030914D01*
X181516392Y-133441625D01*
X181908890Y-133419155D01*
X182118902Y-133434094D01*
G37*
G36*
X183024836Y-131447627D02*
G01*
X183011990Y-131289410D01*
X182974521Y-131145498D01*
X182207843Y-131257362D01*
X182258157Y-131419783D01*
X182275010Y-131587578D01*
X182257781Y-131730057D01*
X182205157Y-131870167D01*
X182114378Y-131999872D01*
X181957250Y-132141521D01*
X180430000Y-132141521D01*
X180430000Y-132902581D01*
X182936420Y-132902581D01*
X183009204Y-132141521D01*
X182645282Y-132141521D01*
X182816994Y-131986905D01*
X182933229Y-131822032D01*
X183001670Y-131643995D01*
X183024836Y-131447627D01*
G37*
G36*
X183024836Y-127665771D02*
G01*
X183001095Y-127438570D01*
X182935718Y-127262571D01*
X182832372Y-127125994D01*
X182692852Y-127025728D01*
X182511811Y-126961757D01*
X182276964Y-126938415D01*
X180430000Y-126938415D01*
X180430000Y-127699476D01*
X182046887Y-127699476D01*
X182251530Y-127718708D01*
X182361960Y-127763956D01*
X182429118Y-127845604D01*
X182454040Y-127979378D01*
X182438862Y-128110086D01*
X182388253Y-128268128D01*
X182292351Y-128460537D01*
X182275498Y-128460537D01*
X180430000Y-128460537D01*
X180430000Y-129221598D01*
X182046887Y-129221598D01*
X182251530Y-129240830D01*
X182361960Y-129286078D01*
X182429118Y-129367725D01*
X182454040Y-129501500D01*
X182438171Y-129643119D01*
X182386843Y-129803726D01*
X182292351Y-129988276D01*
X180430000Y-129988276D01*
X180430000Y-130749337D01*
X182936420Y-130749337D01*
X183009204Y-129988276D01*
X182779371Y-129988276D01*
X182917851Y-129722596D01*
X182998297Y-129457265D01*
X183024836Y-129187892D01*
X183005084Y-128978615D01*
X182950467Y-128812898D01*
X182864512Y-128681404D01*
X182745910Y-128578018D01*
X182865743Y-128351436D01*
X182952295Y-128130565D01*
X183006601Y-127903015D01*
X183024836Y-127665771D01*
G37*
G36*
X182419240Y-124186172D02*
G01*
X182592090Y-124236048D01*
X182727432Y-124313184D01*
X182832372Y-124417096D01*
X182932792Y-124593802D01*
X182999742Y-124834532D01*
X183024836Y-125158374D01*
X183000325Y-125491081D01*
X182929581Y-125788032D01*
X182812510Y-126073287D01*
X182638688Y-126378367D01*
X182179755Y-126087473D01*
X182347696Y-125778869D01*
X182437742Y-125515296D01*
X182465275Y-125287090D01*
X182453674Y-125156190D01*
X182423998Y-125068981D01*
X182371666Y-125002846D01*
X182295038Y-124959804D01*
X182198805Y-124937786D01*
X182053482Y-124929030D01*
X181993154Y-124929030D01*
X181947517Y-125395392D01*
X181858202Y-125770684D01*
X181732547Y-126070621D01*
X181597243Y-126268419D01*
X181442487Y-126401304D01*
X181265168Y-126479993D01*
X181057704Y-126507083D01*
X180859935Y-126481976D01*
X180690607Y-126409141D01*
X180549622Y-126292084D01*
X180441479Y-126132170D01*
X180375155Y-125943286D01*
X180351842Y-125718178D01*
X180367472Y-125497896D01*
X180381959Y-125432658D01*
X180900167Y-125432658D01*
X180917863Y-125560669D01*
X180964647Y-125645150D01*
X181040936Y-125698565D01*
X181152714Y-125717934D01*
X181243531Y-125699110D01*
X181328248Y-125639891D01*
X181410635Y-125527669D01*
X181466588Y-125395454D01*
X181511555Y-125202101D01*
X181539839Y-124929030D01*
X181051598Y-124929030D01*
X180963758Y-125116433D01*
X180915324Y-125282940D01*
X180900167Y-125432658D01*
X180381959Y-125432658D01*
X180413635Y-125290020D01*
X180495130Y-125089887D01*
X180626371Y-124878715D01*
X180430000Y-124817166D01*
X180430000Y-124167969D01*
X182199050Y-124167969D01*
X182419240Y-124186172D01*
G37*
G36*
X180430000Y-123523656D02*
G01*
X184280732Y-123523656D01*
X184353517Y-122762595D01*
X180430000Y-122762595D01*
X180430000Y-123523656D01*
G37*
G36*
X180351842Y-119637508D02*
G01*
X180380908Y-120054000D01*
X180464770Y-120426357D01*
X180600552Y-120761390D01*
X180788304Y-121064619D01*
X181342491Y-120706559D01*
X181192435Y-120436008D01*
X181090430Y-120177884D01*
X181031483Y-119929459D01*
X181012274Y-119687822D01*
X181025266Y-119476317D01*
X181060311Y-119312568D01*
X181112903Y-119187124D01*
X181192846Y-119084652D01*
X181291454Y-119025584D01*
X181415031Y-119005163D01*
X181530298Y-119020661D01*
X181619218Y-119064026D01*
X181693604Y-119138164D01*
X181775778Y-119270900D01*
X181968974Y-119715910D01*
X182019288Y-119844626D01*
X182163613Y-120183088D01*
X182287955Y-120421039D01*
X182436032Y-120618021D01*
X182618171Y-120767864D01*
X182758031Y-120837069D01*
X182925720Y-120880930D01*
X183127418Y-120896580D01*
X183347577Y-120873631D01*
X183534517Y-120808000D01*
X183695282Y-120700697D01*
X183831614Y-120559419D01*
X183942388Y-120392726D01*
X184028185Y-120197069D01*
X184107644Y-119882053D01*
X184134675Y-119542498D01*
X184109460Y-119228487D01*
X184031116Y-118896231D01*
X183903808Y-118572374D01*
X183726057Y-118260956D01*
X183177732Y-118624633D01*
X183323046Y-118889087D01*
X183412693Y-119100418D01*
X183466862Y-119313218D01*
X183485478Y-119548115D01*
X183473633Y-119725933D01*
X183442231Y-119857727D01*
X183395840Y-119953803D01*
X183327636Y-120031361D01*
X183248778Y-120075741D01*
X183155261Y-120090823D01*
X183064975Y-120076808D01*
X182984535Y-120034891D01*
X182914615Y-119963907D01*
X182833349Y-119833391D01*
X182657250Y-119413782D01*
X182612554Y-119290683D01*
X182475697Y-118951269D01*
X182360739Y-118711339D01*
X182219248Y-118509164D01*
X182024905Y-118339357D01*
X181872523Y-118258243D01*
X181686766Y-118206672D01*
X181459727Y-118188171D01*
X181223715Y-118210557D01*
X181021696Y-118274529D01*
X180846922Y-118378436D01*
X180697116Y-118518098D01*
X180573322Y-118689152D01*
X180474940Y-118896231D01*
X180408037Y-119117661D01*
X180366336Y-119363601D01*
X180351842Y-119637508D01*
G37*
G36*
X183024836Y-116059839D02*
G01*
X183000836Y-115809261D01*
X182935758Y-115620036D01*
X182835059Y-115477808D01*
X182696394Y-115373083D01*
X182514731Y-115306330D01*
X182276964Y-115281926D01*
X180430000Y-115281926D01*
X180430000Y-116042986D01*
X182046887Y-116042986D01*
X182194179Y-116051808D01*
X182289420Y-116073761D01*
X182364880Y-116115738D01*
X182414961Y-116177320D01*
X182442974Y-116258844D01*
X182454040Y-116384193D01*
X182437747Y-116540999D01*
X182385941Y-116713128D01*
X182292351Y-116904675D01*
X180430000Y-116904675D01*
X180430000Y-117665736D01*
X184280732Y-117665736D01*
X184353517Y-116904675D01*
X182784989Y-116904675D01*
X182918769Y-116635314D01*
X182998161Y-116355207D01*
X183024836Y-116059839D01*
G37*
G36*
X183321835Y-114267829D02*
G01*
X183337885Y-114392300D01*
X183386071Y-114508408D01*
X183461273Y-114609392D01*
X183556796Y-114687438D01*
X183668521Y-114737721D01*
X183792002Y-114754605D01*
X183915857Y-114737790D01*
X184029651Y-114687438D01*
X184127525Y-114609167D01*
X184203063Y-114508408D01*
X184251435Y-114392286D01*
X184267543Y-114267829D01*
X184251337Y-114138110D01*
X184203063Y-114018946D01*
X184127316Y-113915769D01*
X184029651Y-113836985D01*
X183915857Y-113786634D01*
X183792002Y-113769818D01*
X183668521Y-113786702D01*
X183556796Y-113836985D01*
X183461479Y-113915540D01*
X183386071Y-114018946D01*
X183337983Y-114138096D01*
X183321835Y-114267829D01*
G37*
G36*
X180430000Y-114637124D02*
G01*
X182936420Y-114637124D01*
X183009204Y-113876064D01*
X180430000Y-113876064D01*
X180430000Y-114637124D01*
G37*
G36*
X183024836Y-110123272D02*
G01*
X183001095Y-109896072D01*
X182935718Y-109720072D01*
X182832372Y-109583496D01*
X182692852Y-109483230D01*
X182511811Y-109419259D01*
X182276964Y-109395917D01*
X180430000Y-109395917D01*
X180430000Y-110156978D01*
X182046887Y-110156978D01*
X182251530Y-110176210D01*
X182361960Y-110221458D01*
X182429118Y-110303105D01*
X182454040Y-110436880D01*
X182438862Y-110567588D01*
X182388253Y-110725629D01*
X182292351Y-110918039D01*
X182275498Y-110918039D01*
X180430000Y-110918039D01*
X180430000Y-111679099D01*
X182046887Y-111679099D01*
X182251530Y-111698331D01*
X182361960Y-111743579D01*
X182429118Y-111825227D01*
X182454040Y-111959002D01*
X182438171Y-112100621D01*
X182386843Y-112261228D01*
X182292351Y-112445778D01*
X180430000Y-112445778D01*
X180430000Y-113206838D01*
X182936420Y-113206838D01*
X183009204Y-112445778D01*
X182779371Y-112445778D01*
X182917851Y-112180098D01*
X182998297Y-111914767D01*
X183024836Y-111645394D01*
X183005084Y-111436117D01*
X182950467Y-111270400D01*
X182864512Y-111138906D01*
X182745910Y-111035519D01*
X182865743Y-110808938D01*
X182952295Y-110588066D01*
X183006601Y-110360516D01*
X183024836Y-110123272D01*
G37*
D11*
X157524819Y-127011905D02*
X156524819Y-127011905D01*
X156524819Y-127011905D02*
X156524819Y-127250000D01*
X156524819Y-127250000D02*
X156572438Y-127392857D01*
X156572438Y-127392857D02*
X156667676Y-127488095D01*
X156667676Y-127488095D02*
X156762914Y-127535714D01*
X156762914Y-127535714D02*
X156953390Y-127583333D01*
X156953390Y-127583333D02*
X157096247Y-127583333D01*
X157096247Y-127583333D02*
X157286723Y-127535714D01*
X157286723Y-127535714D02*
X157381961Y-127488095D01*
X157381961Y-127488095D02*
X157477200Y-127392857D01*
X157477200Y-127392857D02*
X157524819Y-127250000D01*
X157524819Y-127250000D02*
X157524819Y-127011905D01*
X156620057Y-127964286D02*
X156572438Y-128011905D01*
X156572438Y-128011905D02*
X156524819Y-128107143D01*
X156524819Y-128107143D02*
X156524819Y-128345238D01*
X156524819Y-128345238D02*
X156572438Y-128440476D01*
X156572438Y-128440476D02*
X156620057Y-128488095D01*
X156620057Y-128488095D02*
X156715295Y-128535714D01*
X156715295Y-128535714D02*
X156810533Y-128535714D01*
X156810533Y-128535714D02*
X156953390Y-128488095D01*
X156953390Y-128488095D02*
X157524819Y-127916667D01*
X157524819Y-127916667D02*
X157524819Y-128535714D01*
X162609819Y-107866666D02*
X163324104Y-107866666D01*
X163324104Y-107866666D02*
X163466961Y-107819047D01*
X163466961Y-107819047D02*
X163562200Y-107723809D01*
X163562200Y-107723809D02*
X163609819Y-107580952D01*
X163609819Y-107580952D02*
X163609819Y-107485714D01*
X162943152Y-108771428D02*
X163609819Y-108771428D01*
X162562200Y-108533333D02*
X163276485Y-108295238D01*
X163276485Y-108295238D02*
X163276485Y-108914285D01*
X192602080Y-124294642D02*
X192649700Y-124247023D01*
X192649700Y-124247023D02*
X192697319Y-124104166D01*
X192697319Y-124104166D02*
X192697319Y-124008928D01*
X192697319Y-124008928D02*
X192649700Y-123866071D01*
X192649700Y-123866071D02*
X192554461Y-123770833D01*
X192554461Y-123770833D02*
X192459223Y-123723214D01*
X192459223Y-123723214D02*
X192268747Y-123675595D01*
X192268747Y-123675595D02*
X192125890Y-123675595D01*
X192125890Y-123675595D02*
X191935414Y-123723214D01*
X191935414Y-123723214D02*
X191840176Y-123770833D01*
X191840176Y-123770833D02*
X191744938Y-123866071D01*
X191744938Y-123866071D02*
X191697319Y-124008928D01*
X191697319Y-124008928D02*
X191697319Y-124104166D01*
X191697319Y-124104166D02*
X191744938Y-124247023D01*
X191744938Y-124247023D02*
X191792557Y-124294642D01*
X192697319Y-125247023D02*
X192697319Y-124675595D01*
X192697319Y-124961309D02*
X191697319Y-124961309D01*
X191697319Y-124961309D02*
X191840176Y-124866071D01*
X191840176Y-124866071D02*
X191935414Y-124770833D01*
X191935414Y-124770833D02*
X191983033Y-124675595D01*
X191697319Y-125580357D02*
X191697319Y-126247023D01*
X191697319Y-126247023D02*
X192697319Y-125818452D01*
X191307859Y-118580988D02*
X191270445Y-118636982D01*
X191270445Y-118636982D02*
X191251611Y-118786384D01*
X191251611Y-118786384D02*
X191270191Y-118879793D01*
X191270191Y-118879793D02*
X191344765Y-119010615D01*
X191344765Y-119010615D02*
X191456753Y-119085443D01*
X191456753Y-119085443D02*
X191559451Y-119113567D01*
X191559451Y-119113567D02*
X191755558Y-119123111D01*
X191755558Y-119123111D02*
X191895670Y-119095241D01*
X191895670Y-119095241D02*
X192073196Y-119011377D01*
X192073196Y-119011377D02*
X192157314Y-118946093D01*
X192157314Y-118946093D02*
X192232142Y-118834104D01*
X192232142Y-118834104D02*
X192250976Y-118684702D01*
X192250976Y-118684702D02*
X192232396Y-118591294D01*
X192232396Y-118591294D02*
X192157822Y-118460472D01*
X192157822Y-118460472D02*
X192101828Y-118423058D01*
X191028651Y-117665487D02*
X191140131Y-118225936D01*
X191084391Y-117945711D02*
X192065176Y-117750621D01*
X192065176Y-117750621D02*
X191943644Y-117871899D01*
X191943644Y-117871899D02*
X191868816Y-117983887D01*
X191868816Y-117983887D02*
X191840692Y-118086585D01*
X191842216Y-116629723D02*
X191879376Y-116816540D01*
X191879376Y-116816540D02*
X191851252Y-116919238D01*
X191851252Y-116919238D02*
X191813838Y-116975232D01*
X191813838Y-116975232D02*
X191692305Y-117096510D01*
X191692305Y-117096510D02*
X191514779Y-117180374D01*
X191514779Y-117180374D02*
X191141147Y-117254694D01*
X191141147Y-117254694D02*
X191038449Y-117226570D01*
X191038449Y-117226570D02*
X190982454Y-117189156D01*
X190982454Y-117189156D02*
X190917170Y-117105038D01*
X190917170Y-117105038D02*
X190880010Y-116918222D01*
X190880010Y-116918222D02*
X190908134Y-116815524D01*
X190908134Y-116815524D02*
X190945548Y-116759530D01*
X190945548Y-116759530D02*
X191029667Y-116694246D01*
X191029667Y-116694246D02*
X191263187Y-116647796D01*
X191263187Y-116647796D02*
X191365885Y-116675920D01*
X191365885Y-116675920D02*
X191421879Y-116713334D01*
X191421879Y-116713334D02*
X191487163Y-116797452D01*
X191487163Y-116797452D02*
X191524323Y-116984268D01*
X191524323Y-116984268D02*
X191496199Y-117086966D01*
X191496199Y-117086966D02*
X191458785Y-117142960D01*
X191458785Y-117142960D02*
X191374667Y-117208244D01*
X166166666Y-116954819D02*
X166499999Y-116478628D01*
X166738094Y-116954819D02*
X166738094Y-115954819D01*
X166738094Y-115954819D02*
X166357142Y-115954819D01*
X166357142Y-115954819D02*
X166261904Y-116002438D01*
X166261904Y-116002438D02*
X166214285Y-116050057D01*
X166214285Y-116050057D02*
X166166666Y-116145295D01*
X166166666Y-116145295D02*
X166166666Y-116288152D01*
X166166666Y-116288152D02*
X166214285Y-116383390D01*
X166214285Y-116383390D02*
X166261904Y-116431009D01*
X166261904Y-116431009D02*
X166357142Y-116478628D01*
X166357142Y-116478628D02*
X166738094Y-116478628D01*
X165214285Y-116954819D02*
X165785713Y-116954819D01*
X165499999Y-116954819D02*
X165499999Y-115954819D01*
X165499999Y-115954819D02*
X165595237Y-116097676D01*
X165595237Y-116097676D02*
X165690475Y-116192914D01*
X165690475Y-116192914D02*
X165785713Y-116240533D01*
X136248353Y-95158538D02*
X136314402Y-95171676D01*
X136314402Y-95171676D02*
X136459639Y-95131903D01*
X136459639Y-95131903D02*
X136538827Y-95078992D01*
X136538827Y-95078992D02*
X136631153Y-94960031D01*
X136631153Y-94960031D02*
X136657429Y-94827932D01*
X136657429Y-94827932D02*
X136644111Y-94722288D01*
X136644111Y-94722288D02*
X136577882Y-94537457D01*
X136577882Y-94537457D02*
X136498515Y-94418676D01*
X136498515Y-94418676D02*
X136353098Y-94286757D01*
X136353098Y-94286757D02*
X136260593Y-94234025D01*
X136260593Y-94234025D02*
X136128494Y-94207749D01*
X136128494Y-94207749D02*
X135983257Y-94247522D01*
X135983257Y-94247522D02*
X135904069Y-94300433D01*
X135904069Y-94300433D02*
X135811744Y-94419394D01*
X135811744Y-94419394D02*
X135798606Y-94485444D01*
X135033006Y-94882459D02*
X135191381Y-94776636D01*
X135191381Y-94776636D02*
X135297024Y-94763319D01*
X135297024Y-94763319D02*
X135363074Y-94776457D01*
X135363074Y-94776457D02*
X135521629Y-94842327D01*
X135521629Y-94842327D02*
X135667045Y-94974246D01*
X135667045Y-94974246D02*
X135878691Y-95290997D01*
X135878691Y-95290997D02*
X135892009Y-95396640D01*
X135892009Y-95396640D02*
X135878871Y-95462689D01*
X135878871Y-95462689D02*
X135826139Y-95555195D01*
X135826139Y-95555195D02*
X135667764Y-95661018D01*
X135667764Y-95661018D02*
X135562120Y-95674335D01*
X135562120Y-95674335D02*
X135496071Y-95661197D01*
X135496071Y-95661197D02*
X135403566Y-95608465D01*
X135403566Y-95608465D02*
X135271287Y-95410496D01*
X135271287Y-95410496D02*
X135257969Y-95304853D01*
X135257969Y-95304853D02*
X135271107Y-95238804D01*
X135271107Y-95238804D02*
X135323839Y-95146298D01*
X135323839Y-95146298D02*
X135482214Y-95040475D01*
X135482214Y-95040475D02*
X135587858Y-95027158D01*
X135587858Y-95027158D02*
X135653907Y-95040296D01*
X135653907Y-95040296D02*
X135746412Y-95093028D01*
X189378343Y-111828300D02*
X189352572Y-111890517D01*
X189352572Y-111890517D02*
X189363246Y-112040723D01*
X189363246Y-112040723D02*
X189399692Y-112128711D01*
X189399692Y-112128711D02*
X189498356Y-112242471D01*
X189498356Y-112242471D02*
X189622790Y-112294014D01*
X189622790Y-112294014D02*
X189729002Y-112301562D01*
X189729002Y-112301562D02*
X189923202Y-112272664D01*
X189923202Y-112272664D02*
X190055185Y-112217995D01*
X190055185Y-112217995D02*
X190212939Y-112101109D01*
X190212939Y-112101109D02*
X190282704Y-112020668D01*
X190282704Y-112020668D02*
X190334247Y-111896234D01*
X190334247Y-111896234D02*
X190323572Y-111746028D01*
X190323572Y-111746028D02*
X190287126Y-111658039D01*
X190287126Y-111658039D02*
X190188463Y-111544280D01*
X190188463Y-111544280D02*
X190126245Y-111518508D01*
X188925894Y-110984861D02*
X189144570Y-111512792D01*
X189035232Y-111248826D02*
X189959112Y-110866143D01*
X189959112Y-110866143D02*
X189863575Y-111008800D01*
X189863575Y-111008800D02*
X189812032Y-111133235D01*
X189812032Y-111133235D02*
X189804484Y-111239446D01*
X189503536Y-109766286D02*
X189685766Y-110206229D01*
X189685766Y-110206229D02*
X189264047Y-110432453D01*
X189264047Y-110432453D02*
X189289818Y-110370236D01*
X189289818Y-110370236D02*
X189297366Y-110264024D01*
X189297366Y-110264024D02*
X189206251Y-110044053D01*
X189206251Y-110044053D02*
X189125811Y-109974288D01*
X189125811Y-109974288D02*
X189063593Y-109948516D01*
X189063593Y-109948516D02*
X188957382Y-109940968D01*
X188957382Y-109940968D02*
X188737410Y-110032083D01*
X188737410Y-110032083D02*
X188667645Y-110112523D01*
X188667645Y-110112523D02*
X188641874Y-110174741D01*
X188641874Y-110174741D02*
X188634326Y-110280952D01*
X188634326Y-110280952D02*
X188725441Y-110500924D01*
X188725441Y-110500924D02*
X188805881Y-110570689D01*
X188805881Y-110570689D02*
X188868098Y-110596460D01*
X130807296Y-99597483D02*
X130874640Y-99597483D01*
X130874640Y-99597483D02*
X131009327Y-99530139D01*
X131009327Y-99530139D02*
X131076670Y-99462796D01*
X131076670Y-99462796D02*
X131144014Y-99328109D01*
X131144014Y-99328109D02*
X131144014Y-99193422D01*
X131144014Y-99193422D02*
X131110342Y-99092407D01*
X131110342Y-99092407D02*
X131009327Y-98924048D01*
X131009327Y-98924048D02*
X130908312Y-98823033D01*
X130908312Y-98823033D02*
X130739953Y-98722017D01*
X130739953Y-98722017D02*
X130638938Y-98688346D01*
X130638938Y-98688346D02*
X130504251Y-98688346D01*
X130504251Y-98688346D02*
X130369564Y-98755689D01*
X130369564Y-98755689D02*
X130302220Y-98823033D01*
X130302220Y-98823033D02*
X130234877Y-98957720D01*
X130234877Y-98957720D02*
X130234877Y-99025063D01*
X129527770Y-99597483D02*
X129864487Y-99260765D01*
X129864487Y-99260765D02*
X130234877Y-99563811D01*
X130234877Y-99563811D02*
X130167533Y-99563811D01*
X130167533Y-99563811D02*
X130066518Y-99597483D01*
X130066518Y-99597483D02*
X129898159Y-99765842D01*
X129898159Y-99765842D02*
X129864487Y-99866857D01*
X129864487Y-99866857D02*
X129864487Y-99934200D01*
X129864487Y-99934200D02*
X129898159Y-100035216D01*
X129898159Y-100035216D02*
X130066518Y-100203574D01*
X130066518Y-100203574D02*
X130167533Y-100237246D01*
X130167533Y-100237246D02*
X130234877Y-100237246D01*
X130234877Y-100237246D02*
X130335892Y-100203574D01*
X130335892Y-100203574D02*
X130504251Y-100035216D01*
X130504251Y-100035216D02*
X130537922Y-99934200D01*
X130537922Y-99934200D02*
X130537922Y-99866857D01*
X170306558Y-92128341D02*
X170332330Y-92190558D01*
X170332330Y-92190558D02*
X170446089Y-92289221D01*
X170446089Y-92289221D02*
X170534078Y-92325667D01*
X170534078Y-92325667D02*
X170684284Y-92336342D01*
X170684284Y-92336342D02*
X170808718Y-92284800D01*
X170808718Y-92284800D02*
X170889159Y-92215034D01*
X170889159Y-92215034D02*
X171006045Y-92057280D01*
X171006045Y-92057280D02*
X171060714Y-91925297D01*
X171060714Y-91925297D02*
X171089612Y-91731097D01*
X171089612Y-91731097D02*
X171082064Y-91624886D01*
X171082064Y-91624886D02*
X171030521Y-91500451D01*
X171030521Y-91500451D02*
X170916761Y-91401788D01*
X170916761Y-91401788D02*
X170828773Y-91365342D01*
X170828773Y-91365342D02*
X170678567Y-91354667D01*
X170678567Y-91354667D02*
X170616350Y-91380438D01*
X169390227Y-91851869D02*
X169918158Y-92070545D01*
X169654193Y-91961207D02*
X170036876Y-91037327D01*
X170036876Y-91037327D02*
X170070196Y-91205756D01*
X170070196Y-91205756D02*
X170121738Y-91330191D01*
X170121738Y-91330191D02*
X170191504Y-91410631D01*
X168510342Y-91487408D02*
X169038273Y-91706085D01*
X168774307Y-91596747D02*
X169156991Y-90672867D01*
X169156991Y-90672867D02*
X169190310Y-90841296D01*
X169190310Y-90841296D02*
X169241853Y-90965730D01*
X169241853Y-90965730D02*
X169311618Y-91046171D01*
X176949284Y-154989674D02*
X177015334Y-155002812D01*
X177015334Y-155002812D02*
X177160571Y-154963038D01*
X177160571Y-154963038D02*
X177239758Y-154910127D01*
X177239758Y-154910127D02*
X177332084Y-154791166D01*
X177332084Y-154791166D02*
X177358360Y-154659067D01*
X177358360Y-154659067D02*
X177345043Y-154553424D01*
X177345043Y-154553424D02*
X177278813Y-154368593D01*
X177278813Y-154368593D02*
X177199446Y-154249811D01*
X177199446Y-154249811D02*
X177054030Y-154117892D01*
X177054030Y-154117892D02*
X176961524Y-154065160D01*
X176961524Y-154065160D02*
X176829425Y-154038884D01*
X176829425Y-154038884D02*
X176684188Y-154078657D01*
X176684188Y-154078657D02*
X176605001Y-154131569D01*
X176605001Y-154131569D02*
X176512675Y-154250530D01*
X176512675Y-154250530D02*
X176499537Y-154316579D01*
X176182787Y-154528225D02*
X176116737Y-154515087D01*
X176116737Y-154515087D02*
X176011094Y-154528405D01*
X176011094Y-154528405D02*
X175813125Y-154660683D01*
X175813125Y-154660683D02*
X175760393Y-154753189D01*
X175760393Y-154753189D02*
X175747255Y-154819238D01*
X175747255Y-154819238D02*
X175760572Y-154924881D01*
X175760572Y-154924881D02*
X175813484Y-155004069D01*
X175813484Y-155004069D02*
X175932445Y-155096395D01*
X175932445Y-155096395D02*
X176725039Y-155254051D01*
X176725039Y-155254051D02*
X176210320Y-155597976D01*
X175390911Y-155057340D02*
X175324861Y-155044202D01*
X175324861Y-155044202D02*
X175219218Y-155057519D01*
X175219218Y-155057519D02*
X175021249Y-155189798D01*
X175021249Y-155189798D02*
X174968517Y-155282303D01*
X174968517Y-155282303D02*
X174955379Y-155348353D01*
X174955379Y-155348353D02*
X174968697Y-155453996D01*
X174968697Y-155453996D02*
X175021608Y-155533184D01*
X175021608Y-155533184D02*
X175140569Y-155625509D01*
X175140569Y-155625509D02*
X175933163Y-155783166D01*
X175933163Y-155783166D02*
X175418444Y-156127090D01*
X142731073Y-159028098D02*
X142756845Y-159090315D01*
X142756845Y-159090315D02*
X142870604Y-159188978D01*
X142870604Y-159188978D02*
X142958593Y-159225424D01*
X142958593Y-159225424D02*
X143108799Y-159236099D01*
X143108799Y-159236099D02*
X143233233Y-159184557D01*
X143233233Y-159184557D02*
X143313674Y-159114791D01*
X143313674Y-159114791D02*
X143430560Y-158957037D01*
X143430560Y-158957037D02*
X143485229Y-158825054D01*
X143485229Y-158825054D02*
X143514127Y-158630854D01*
X143514127Y-158630854D02*
X143506579Y-158524643D01*
X143506579Y-158524643D02*
X143455036Y-158400208D01*
X143455036Y-158400208D02*
X143341276Y-158301545D01*
X143341276Y-158301545D02*
X143253288Y-158265099D01*
X143253288Y-158265099D02*
X143103082Y-158254424D01*
X143103082Y-158254424D02*
X143040865Y-158280195D01*
X142688911Y-158134411D02*
X142663139Y-158072194D01*
X142663139Y-158072194D02*
X142593374Y-157991754D01*
X142593374Y-157991754D02*
X142373403Y-157900638D01*
X142373403Y-157900638D02*
X142267191Y-157908187D01*
X142267191Y-157908187D02*
X142204974Y-157933958D01*
X142204974Y-157933958D02*
X142124533Y-158003723D01*
X142124533Y-158003723D02*
X142088087Y-158091712D01*
X142088087Y-158091712D02*
X142077413Y-158241918D01*
X142077413Y-158241918D02*
X142386668Y-158988525D01*
X142386668Y-158988525D02*
X141814742Y-158751626D01*
X141889466Y-157700185D02*
X141273546Y-157445063D01*
X141273546Y-157445063D02*
X141286811Y-158532950D01*
X126336782Y-105012630D02*
X126402831Y-104999492D01*
X126402831Y-104999492D02*
X126521792Y-104907166D01*
X126521792Y-104907166D02*
X126574704Y-104827979D01*
X126574704Y-104827979D02*
X126614477Y-104682742D01*
X126614477Y-104682742D02*
X126588201Y-104550643D01*
X126588201Y-104550643D02*
X126535469Y-104458137D01*
X126535469Y-104458137D02*
X126403550Y-104312721D01*
X126403550Y-104312721D02*
X126284768Y-104233354D01*
X126284768Y-104233354D02*
X126099938Y-104167124D01*
X126099938Y-104167124D02*
X125994294Y-104153807D01*
X125994294Y-104153807D02*
X125862195Y-104180083D01*
X125862195Y-104180083D02*
X125743234Y-104272409D01*
X125743234Y-104272409D02*
X125690323Y-104351596D01*
X125690323Y-104351596D02*
X125650549Y-104496833D01*
X125650549Y-104496833D02*
X125663687Y-104562883D01*
X125385453Y-105407850D02*
X125939766Y-105778230D01*
X125200982Y-104998235D02*
X125927167Y-105197102D01*
X125927167Y-105197102D02*
X125583243Y-105711821D01*
X156874819Y-130388095D02*
X157684342Y-130388095D01*
X157684342Y-130388095D02*
X157779580Y-130435714D01*
X157779580Y-130435714D02*
X157827200Y-130483333D01*
X157827200Y-130483333D02*
X157874819Y-130578571D01*
X157874819Y-130578571D02*
X157874819Y-130769047D01*
X157874819Y-130769047D02*
X157827200Y-130864285D01*
X157827200Y-130864285D02*
X157779580Y-130911904D01*
X157779580Y-130911904D02*
X157684342Y-130959523D01*
X157684342Y-130959523D02*
X156874819Y-130959523D01*
X156874819Y-131340476D02*
X156874819Y-131959523D01*
X156874819Y-131959523D02*
X157255771Y-131626190D01*
X157255771Y-131626190D02*
X157255771Y-131769047D01*
X157255771Y-131769047D02*
X157303390Y-131864285D01*
X157303390Y-131864285D02*
X157351009Y-131911904D01*
X157351009Y-131911904D02*
X157446247Y-131959523D01*
X157446247Y-131959523D02*
X157684342Y-131959523D01*
X157684342Y-131959523D02*
X157779580Y-131911904D01*
X157779580Y-131911904D02*
X157827200Y-131864285D01*
X157827200Y-131864285D02*
X157874819Y-131769047D01*
X157874819Y-131769047D02*
X157874819Y-131483333D01*
X157874819Y-131483333D02*
X157827200Y-131388095D01*
X157827200Y-131388095D02*
X157779580Y-131340476D01*
X157454819Y-118583333D02*
X156978628Y-118250000D01*
X157454819Y-118011905D02*
X156454819Y-118011905D01*
X156454819Y-118011905D02*
X156454819Y-118392857D01*
X156454819Y-118392857D02*
X156502438Y-118488095D01*
X156502438Y-118488095D02*
X156550057Y-118535714D01*
X156550057Y-118535714D02*
X156645295Y-118583333D01*
X156645295Y-118583333D02*
X156788152Y-118583333D01*
X156788152Y-118583333D02*
X156883390Y-118535714D01*
X156883390Y-118535714D02*
X156931009Y-118488095D01*
X156931009Y-118488095D02*
X156978628Y-118392857D01*
X156978628Y-118392857D02*
X156978628Y-118011905D01*
X157454819Y-119059524D02*
X157454819Y-119250000D01*
X157454819Y-119250000D02*
X157407200Y-119345238D01*
X157407200Y-119345238D02*
X157359580Y-119392857D01*
X157359580Y-119392857D02*
X157216723Y-119488095D01*
X157216723Y-119488095D02*
X157026247Y-119535714D01*
X157026247Y-119535714D02*
X156645295Y-119535714D01*
X156645295Y-119535714D02*
X156550057Y-119488095D01*
X156550057Y-119488095D02*
X156502438Y-119440476D01*
X156502438Y-119440476D02*
X156454819Y-119345238D01*
X156454819Y-119345238D02*
X156454819Y-119154762D01*
X156454819Y-119154762D02*
X156502438Y-119059524D01*
X156502438Y-119059524D02*
X156550057Y-119011905D01*
X156550057Y-119011905D02*
X156645295Y-118964286D01*
X156645295Y-118964286D02*
X156883390Y-118964286D01*
X156883390Y-118964286D02*
X156978628Y-119011905D01*
X156978628Y-119011905D02*
X157026247Y-119059524D01*
X157026247Y-119059524D02*
X157073866Y-119154762D01*
X157073866Y-119154762D02*
X157073866Y-119345238D01*
X157073866Y-119345238D02*
X157026247Y-119440476D01*
X157026247Y-119440476D02*
X156978628Y-119488095D01*
X156978628Y-119488095D02*
X156883390Y-119535714D01*
X161166666Y-116954819D02*
X161499999Y-116478628D01*
X161738094Y-116954819D02*
X161738094Y-115954819D01*
X161738094Y-115954819D02*
X161357142Y-115954819D01*
X161357142Y-115954819D02*
X161261904Y-116002438D01*
X161261904Y-116002438D02*
X161214285Y-116050057D01*
X161214285Y-116050057D02*
X161166666Y-116145295D01*
X161166666Y-116145295D02*
X161166666Y-116288152D01*
X161166666Y-116288152D02*
X161214285Y-116383390D01*
X161214285Y-116383390D02*
X161261904Y-116431009D01*
X161261904Y-116431009D02*
X161357142Y-116478628D01*
X161357142Y-116478628D02*
X161738094Y-116478628D01*
X160595237Y-116383390D02*
X160690475Y-116335771D01*
X160690475Y-116335771D02*
X160738094Y-116288152D01*
X160738094Y-116288152D02*
X160785713Y-116192914D01*
X160785713Y-116192914D02*
X160785713Y-116145295D01*
X160785713Y-116145295D02*
X160738094Y-116050057D01*
X160738094Y-116050057D02*
X160690475Y-116002438D01*
X160690475Y-116002438D02*
X160595237Y-115954819D01*
X160595237Y-115954819D02*
X160404761Y-115954819D01*
X160404761Y-115954819D02*
X160309523Y-116002438D01*
X160309523Y-116002438D02*
X160261904Y-116050057D01*
X160261904Y-116050057D02*
X160214285Y-116145295D01*
X160214285Y-116145295D02*
X160214285Y-116192914D01*
X160214285Y-116192914D02*
X160261904Y-116288152D01*
X160261904Y-116288152D02*
X160309523Y-116335771D01*
X160309523Y-116335771D02*
X160404761Y-116383390D01*
X160404761Y-116383390D02*
X160595237Y-116383390D01*
X160595237Y-116383390D02*
X160690475Y-116431009D01*
X160690475Y-116431009D02*
X160738094Y-116478628D01*
X160738094Y-116478628D02*
X160785713Y-116573866D01*
X160785713Y-116573866D02*
X160785713Y-116764342D01*
X160785713Y-116764342D02*
X160738094Y-116859580D01*
X160738094Y-116859580D02*
X160690475Y-116907200D01*
X160690475Y-116907200D02*
X160595237Y-116954819D01*
X160595237Y-116954819D02*
X160404761Y-116954819D01*
X160404761Y-116954819D02*
X160309523Y-116907200D01*
X160309523Y-116907200D02*
X160261904Y-116859580D01*
X160261904Y-116859580D02*
X160214285Y-116764342D01*
X160214285Y-116764342D02*
X160214285Y-116573866D01*
X160214285Y-116573866D02*
X160261904Y-116478628D01*
X160261904Y-116478628D02*
X160309523Y-116431009D01*
X160309523Y-116431009D02*
X160404761Y-116383390D01*
X122574258Y-139634755D02*
X122548487Y-139696972D01*
X122548487Y-139696972D02*
X122559161Y-139847178D01*
X122559161Y-139847178D02*
X122595607Y-139935166D01*
X122595607Y-139935166D02*
X122694271Y-140048926D01*
X122694271Y-140048926D02*
X122818705Y-140100469D01*
X122818705Y-140100469D02*
X122924917Y-140108017D01*
X122924917Y-140108017D02*
X123119117Y-140079119D01*
X123119117Y-140079119D02*
X123251100Y-140024450D01*
X123251100Y-140024450D02*
X123408854Y-139907564D01*
X123408854Y-139907564D02*
X123478619Y-139827123D01*
X123478619Y-139827123D02*
X123530162Y-139702689D01*
X123530162Y-139702689D02*
X123519487Y-139552483D01*
X123519487Y-139552483D02*
X123483041Y-139464494D01*
X123483041Y-139464494D02*
X123384378Y-139350735D01*
X123384378Y-139350735D02*
X123322160Y-139324963D01*
X123282588Y-138980558D02*
X123045688Y-138408632D01*
X123045688Y-138408632D02*
X122821295Y-138862376D01*
X122821295Y-138862376D02*
X122766626Y-138730393D01*
X122766626Y-138730393D02*
X122686186Y-138660628D01*
X122686186Y-138660628D02*
X122623969Y-138634857D01*
X122623969Y-138634857D02*
X122517757Y-138627308D01*
X122517757Y-138627308D02*
X122297786Y-138718423D01*
X122297786Y-138718423D02*
X122228020Y-138798864D01*
X122228020Y-138798864D02*
X122202249Y-138861081D01*
X122202249Y-138861081D02*
X122194701Y-138967293D01*
X122194701Y-138967293D02*
X122304039Y-139231258D01*
X122304039Y-139231258D02*
X122384479Y-139301024D01*
X122384479Y-139301024D02*
X122446697Y-139326795D01*
X121757348Y-137911430D02*
X121976025Y-138439361D01*
X121866687Y-138175396D02*
X122790566Y-137792712D01*
X122790566Y-137792712D02*
X122695029Y-137935370D01*
X122695029Y-137935370D02*
X122643487Y-138059805D01*
X122643487Y-138059805D02*
X122635939Y-138166016D01*
X192037588Y-131436713D02*
X192093582Y-131399299D01*
X192093582Y-131399299D02*
X192168157Y-131268477D01*
X192168157Y-131268477D02*
X192186737Y-131175069D01*
X192186737Y-131175069D02*
X192167903Y-131025667D01*
X192167903Y-131025667D02*
X192093075Y-130913679D01*
X192093075Y-130913679D02*
X192008956Y-130848395D01*
X192008956Y-130848395D02*
X191831430Y-130764530D01*
X191831430Y-130764530D02*
X191691318Y-130736660D01*
X191691318Y-130736660D02*
X191495212Y-130746204D01*
X191495212Y-130746204D02*
X191392514Y-130774328D01*
X191392514Y-130774328D02*
X191280525Y-130849157D01*
X191280525Y-130849157D02*
X191205951Y-130979979D01*
X191205951Y-130979979D02*
X191187371Y-131073387D01*
X191187371Y-131073387D02*
X191206205Y-131222789D01*
X191206205Y-131222789D02*
X191243619Y-131278783D01*
X191945196Y-132389375D02*
X192056676Y-131828926D01*
X192000936Y-132109150D02*
X191020151Y-131914060D01*
X191020151Y-131914060D02*
X191178843Y-131848522D01*
X191178843Y-131848522D02*
X191290831Y-131773694D01*
X191290831Y-131773694D02*
X191356116Y-131689576D01*
X191273267Y-132838343D02*
X191245143Y-132735645D01*
X191245143Y-132735645D02*
X191207729Y-132679651D01*
X191207729Y-132679651D02*
X191123611Y-132614367D01*
X191123611Y-132614367D02*
X191076907Y-132605077D01*
X191076907Y-132605077D02*
X190974209Y-132633201D01*
X190974209Y-132633201D02*
X190918215Y-132670615D01*
X190918215Y-132670615D02*
X190852931Y-132754733D01*
X190852931Y-132754733D02*
X190815771Y-132941549D01*
X190815771Y-132941549D02*
X190843895Y-133044247D01*
X190843895Y-133044247D02*
X190881309Y-133100242D01*
X190881309Y-133100242D02*
X190965427Y-133165526D01*
X190965427Y-133165526D02*
X191012131Y-133174816D01*
X191012131Y-133174816D02*
X191114829Y-133146692D01*
X191114829Y-133146692D02*
X191170823Y-133109278D01*
X191170823Y-133109278D02*
X191236107Y-133025159D01*
X191236107Y-133025159D02*
X191273267Y-132838343D01*
X191273267Y-132838343D02*
X191338551Y-132754225D01*
X191338551Y-132754225D02*
X191394545Y-132716811D01*
X191394545Y-132716811D02*
X191497244Y-132688687D01*
X191497244Y-132688687D02*
X191684060Y-132725847D01*
X191684060Y-132725847D02*
X191768178Y-132791131D01*
X191768178Y-132791131D02*
X191805592Y-132847125D01*
X191805592Y-132847125D02*
X191833716Y-132949823D01*
X191833716Y-132949823D02*
X191796556Y-133136640D01*
X191796556Y-133136640D02*
X191731272Y-133220758D01*
X191731272Y-133220758D02*
X191675278Y-133258172D01*
X191675278Y-133258172D02*
X191572580Y-133286296D01*
X191572580Y-133286296D02*
X191385763Y-133249136D01*
X191385763Y-133249136D02*
X191301645Y-133183852D01*
X191301645Y-133183852D02*
X191264231Y-133127858D01*
X191264231Y-133127858D02*
X191236107Y-133025159D01*
X156166666Y-89179580D02*
X156214285Y-89227200D01*
X156214285Y-89227200D02*
X156357142Y-89274819D01*
X156357142Y-89274819D02*
X156452380Y-89274819D01*
X156452380Y-89274819D02*
X156595237Y-89227200D01*
X156595237Y-89227200D02*
X156690475Y-89131961D01*
X156690475Y-89131961D02*
X156738094Y-89036723D01*
X156738094Y-89036723D02*
X156785713Y-88846247D01*
X156785713Y-88846247D02*
X156785713Y-88703390D01*
X156785713Y-88703390D02*
X156738094Y-88512914D01*
X156738094Y-88512914D02*
X156690475Y-88417676D01*
X156690475Y-88417676D02*
X156595237Y-88322438D01*
X156595237Y-88322438D02*
X156452380Y-88274819D01*
X156452380Y-88274819D02*
X156357142Y-88274819D01*
X156357142Y-88274819D02*
X156214285Y-88322438D01*
X156214285Y-88322438D02*
X156166666Y-88370057D01*
X155690475Y-89274819D02*
X155499999Y-89274819D01*
X155499999Y-89274819D02*
X155404761Y-89227200D01*
X155404761Y-89227200D02*
X155357142Y-89179580D01*
X155357142Y-89179580D02*
X155261904Y-89036723D01*
X155261904Y-89036723D02*
X155214285Y-88846247D01*
X155214285Y-88846247D02*
X155214285Y-88465295D01*
X155214285Y-88465295D02*
X155261904Y-88370057D01*
X155261904Y-88370057D02*
X155309523Y-88322438D01*
X155309523Y-88322438D02*
X155404761Y-88274819D01*
X155404761Y-88274819D02*
X155595237Y-88274819D01*
X155595237Y-88274819D02*
X155690475Y-88322438D01*
X155690475Y-88322438D02*
X155738094Y-88370057D01*
X155738094Y-88370057D02*
X155785713Y-88465295D01*
X155785713Y-88465295D02*
X155785713Y-88703390D01*
X155785713Y-88703390D02*
X155738094Y-88798628D01*
X155738094Y-88798628D02*
X155690475Y-88846247D01*
X155690475Y-88846247D02*
X155595237Y-88893866D01*
X155595237Y-88893866D02*
X155404761Y-88893866D01*
X155404761Y-88893866D02*
X155309523Y-88846247D01*
X155309523Y-88846247D02*
X155261904Y-88798628D01*
X155261904Y-88798628D02*
X155214285Y-88703390D01*
X155166666Y-124454819D02*
X155499999Y-123978628D01*
X155738094Y-124454819D02*
X155738094Y-123454819D01*
X155738094Y-123454819D02*
X155357142Y-123454819D01*
X155357142Y-123454819D02*
X155261904Y-123502438D01*
X155261904Y-123502438D02*
X155214285Y-123550057D01*
X155214285Y-123550057D02*
X155166666Y-123645295D01*
X155166666Y-123645295D02*
X155166666Y-123788152D01*
X155166666Y-123788152D02*
X155214285Y-123883390D01*
X155214285Y-123883390D02*
X155261904Y-123931009D01*
X155261904Y-123931009D02*
X155357142Y-123978628D01*
X155357142Y-123978628D02*
X155738094Y-123978628D01*
X154309523Y-123454819D02*
X154499999Y-123454819D01*
X154499999Y-123454819D02*
X154595237Y-123502438D01*
X154595237Y-123502438D02*
X154642856Y-123550057D01*
X154642856Y-123550057D02*
X154738094Y-123692914D01*
X154738094Y-123692914D02*
X154785713Y-123883390D01*
X154785713Y-123883390D02*
X154785713Y-124264342D01*
X154785713Y-124264342D02*
X154738094Y-124359580D01*
X154738094Y-124359580D02*
X154690475Y-124407200D01*
X154690475Y-124407200D02*
X154595237Y-124454819D01*
X154595237Y-124454819D02*
X154404761Y-124454819D01*
X154404761Y-124454819D02*
X154309523Y-124407200D01*
X154309523Y-124407200D02*
X154261904Y-124359580D01*
X154261904Y-124359580D02*
X154214285Y-124264342D01*
X154214285Y-124264342D02*
X154214285Y-124026247D01*
X154214285Y-124026247D02*
X154261904Y-123931009D01*
X154261904Y-123931009D02*
X154309523Y-123883390D01*
X154309523Y-123883390D02*
X154404761Y-123835771D01*
X154404761Y-123835771D02*
X154595237Y-123835771D01*
X154595237Y-123835771D02*
X154690475Y-123883390D01*
X154690475Y-123883390D02*
X154738094Y-123931009D01*
X154738094Y-123931009D02*
X154785713Y-124026247D01*
X120242080Y-124895832D02*
X120289700Y-124848213D01*
X120289700Y-124848213D02*
X120337319Y-124705356D01*
X120337319Y-124705356D02*
X120337319Y-124610118D01*
X120337319Y-124610118D02*
X120289700Y-124467261D01*
X120289700Y-124467261D02*
X120194461Y-124372023D01*
X120194461Y-124372023D02*
X120099223Y-124324404D01*
X120099223Y-124324404D02*
X119908747Y-124276785D01*
X119908747Y-124276785D02*
X119765890Y-124276785D01*
X119765890Y-124276785D02*
X119575414Y-124324404D01*
X119575414Y-124324404D02*
X119480176Y-124372023D01*
X119480176Y-124372023D02*
X119384938Y-124467261D01*
X119384938Y-124467261D02*
X119337319Y-124610118D01*
X119337319Y-124610118D02*
X119337319Y-124705356D01*
X119337319Y-124705356D02*
X119384938Y-124848213D01*
X119384938Y-124848213D02*
X119432557Y-124895832D01*
X120337319Y-125848213D02*
X120337319Y-125276785D01*
X120337319Y-125562499D02*
X119337319Y-125562499D01*
X119337319Y-125562499D02*
X119480176Y-125467261D01*
X119480176Y-125467261D02*
X119575414Y-125372023D01*
X119575414Y-125372023D02*
X119623033Y-125276785D01*
X162704819Y-117238095D02*
X163514342Y-117238095D01*
X163514342Y-117238095D02*
X163609580Y-117285714D01*
X163609580Y-117285714D02*
X163657200Y-117333333D01*
X163657200Y-117333333D02*
X163704819Y-117428571D01*
X163704819Y-117428571D02*
X163704819Y-117619047D01*
X163704819Y-117619047D02*
X163657200Y-117714285D01*
X163657200Y-117714285D02*
X163609580Y-117761904D01*
X163609580Y-117761904D02*
X163514342Y-117809523D01*
X163514342Y-117809523D02*
X162704819Y-117809523D01*
X163704819Y-118809523D02*
X163704819Y-118238095D01*
X163704819Y-118523809D02*
X162704819Y-118523809D01*
X162704819Y-118523809D02*
X162847676Y-118428571D01*
X162847676Y-118428571D02*
X162942914Y-118333333D01*
X162942914Y-118333333D02*
X162990533Y-118238095D01*
X120950683Y-117909618D02*
X121006677Y-117872203D01*
X121006677Y-117872203D02*
X121081251Y-117741381D01*
X121081251Y-117741381D02*
X121099831Y-117647973D01*
X121099831Y-117647973D02*
X121080997Y-117498571D01*
X121080997Y-117498571D02*
X121006169Y-117386583D01*
X121006169Y-117386583D02*
X120922051Y-117321299D01*
X120922051Y-117321299D02*
X120744525Y-117237435D01*
X120744525Y-117237435D02*
X120604413Y-117209565D01*
X120604413Y-117209565D02*
X120408306Y-117219109D01*
X120408306Y-117219109D02*
X120305608Y-117247233D01*
X120305608Y-117247233D02*
X120193620Y-117322061D01*
X120193620Y-117322061D02*
X120119046Y-117452883D01*
X120119046Y-117452883D02*
X120100466Y-117546291D01*
X120100466Y-117546291D02*
X120119300Y-117695693D01*
X120119300Y-117695693D02*
X120156714Y-117751687D01*
X120082394Y-118125320D02*
X120026400Y-118162734D01*
X120026400Y-118162734D02*
X119961116Y-118246852D01*
X119961116Y-118246852D02*
X119914666Y-118480372D01*
X119914666Y-118480372D02*
X119942790Y-118583070D01*
X119942790Y-118583070D02*
X119980204Y-118639064D01*
X119980204Y-118639064D02*
X120064322Y-118704349D01*
X120064322Y-118704349D02*
X120157730Y-118722929D01*
X120157730Y-118722929D02*
X120307132Y-118704095D01*
X120307132Y-118704095D02*
X120979061Y-118255126D01*
X120979061Y-118255126D02*
X120858291Y-118862279D01*
X146511904Y-112954819D02*
X146511904Y-113764342D01*
X146511904Y-113764342D02*
X146464285Y-113859580D01*
X146464285Y-113859580D02*
X146416666Y-113907200D01*
X146416666Y-113907200D02*
X146321428Y-113954819D01*
X146321428Y-113954819D02*
X146130952Y-113954819D01*
X146130952Y-113954819D02*
X146035714Y-113907200D01*
X146035714Y-113907200D02*
X145988095Y-113859580D01*
X145988095Y-113859580D02*
X145940476Y-113764342D01*
X145940476Y-113764342D02*
X145940476Y-112954819D01*
X145035714Y-113288152D02*
X145035714Y-113954819D01*
X145273809Y-112907200D02*
X145511904Y-113621485D01*
X145511904Y-113621485D02*
X144892857Y-113621485D01*
X156767856Y-161539580D02*
X156815475Y-161587200D01*
X156815475Y-161587200D02*
X156958332Y-161634819D01*
X156958332Y-161634819D02*
X157053570Y-161634819D01*
X157053570Y-161634819D02*
X157196427Y-161587200D01*
X157196427Y-161587200D02*
X157291665Y-161491961D01*
X157291665Y-161491961D02*
X157339284Y-161396723D01*
X157339284Y-161396723D02*
X157386903Y-161206247D01*
X157386903Y-161206247D02*
X157386903Y-161063390D01*
X157386903Y-161063390D02*
X157339284Y-160872914D01*
X157339284Y-160872914D02*
X157291665Y-160777676D01*
X157291665Y-160777676D02*
X157196427Y-160682438D01*
X157196427Y-160682438D02*
X157053570Y-160634819D01*
X157053570Y-160634819D02*
X156958332Y-160634819D01*
X156958332Y-160634819D02*
X156815475Y-160682438D01*
X156815475Y-160682438D02*
X156767856Y-160730057D01*
X156386903Y-160730057D02*
X156339284Y-160682438D01*
X156339284Y-160682438D02*
X156244046Y-160634819D01*
X156244046Y-160634819D02*
X156005951Y-160634819D01*
X156005951Y-160634819D02*
X155910713Y-160682438D01*
X155910713Y-160682438D02*
X155863094Y-160730057D01*
X155863094Y-160730057D02*
X155815475Y-160825295D01*
X155815475Y-160825295D02*
X155815475Y-160920533D01*
X155815475Y-160920533D02*
X155863094Y-161063390D01*
X155863094Y-161063390D02*
X156434522Y-161634819D01*
X156434522Y-161634819D02*
X155815475Y-161634819D01*
X154910713Y-160634819D02*
X155386903Y-160634819D01*
X155386903Y-160634819D02*
X155434522Y-161111009D01*
X155434522Y-161111009D02*
X155386903Y-161063390D01*
X155386903Y-161063390D02*
X155291665Y-161015771D01*
X155291665Y-161015771D02*
X155053570Y-161015771D01*
X155053570Y-161015771D02*
X154958332Y-161063390D01*
X154958332Y-161063390D02*
X154910713Y-161111009D01*
X154910713Y-161111009D02*
X154863094Y-161206247D01*
X154863094Y-161206247D02*
X154863094Y-161444342D01*
X154863094Y-161444342D02*
X154910713Y-161539580D01*
X154910713Y-161539580D02*
X154958332Y-161587200D01*
X154958332Y-161587200D02*
X155053570Y-161634819D01*
X155053570Y-161634819D02*
X155291665Y-161634819D01*
X155291665Y-161634819D02*
X155386903Y-161587200D01*
X155386903Y-161587200D02*
X155434522Y-161539580D01*
X120362626Y-132820321D02*
X120325212Y-132876315D01*
X120325212Y-132876315D02*
X120306378Y-133025717D01*
X120306378Y-133025717D02*
X120324958Y-133119126D01*
X120324958Y-133119126D02*
X120399532Y-133249948D01*
X120399532Y-133249948D02*
X120511520Y-133324776D01*
X120511520Y-133324776D02*
X120614218Y-133352900D01*
X120614218Y-133352900D02*
X120810325Y-133362444D01*
X120810325Y-133362444D02*
X120950437Y-133334574D01*
X120950437Y-133334574D02*
X121127963Y-133250710D01*
X121127963Y-133250710D02*
X121212081Y-133185426D01*
X121212081Y-133185426D02*
X121286909Y-133073437D01*
X121286909Y-133073437D02*
X121305743Y-132924035D01*
X121305743Y-132924035D02*
X121287163Y-132830627D01*
X121287163Y-132830627D02*
X121212589Y-132699805D01*
X121212589Y-132699805D02*
X121156595Y-132662391D01*
X121184973Y-132316882D02*
X121064203Y-131709730D01*
X121064203Y-131709730D02*
X120755600Y-132110978D01*
X120755600Y-132110978D02*
X120727730Y-131970866D01*
X120727730Y-131970866D02*
X120662446Y-131886748D01*
X120662446Y-131886748D02*
X120606452Y-131849334D01*
X120606452Y-131849334D02*
X120503754Y-131821210D01*
X120503754Y-131821210D02*
X120270234Y-131867660D01*
X120270234Y-131867660D02*
X120186116Y-131932944D01*
X120186116Y-131932944D02*
X120148702Y-131988938D01*
X120148702Y-131988938D02*
X120120578Y-132091636D01*
X120120578Y-132091636D02*
X120176318Y-132371861D01*
X120176318Y-132371861D02*
X120241602Y-132455979D01*
X120241602Y-132455979D02*
X120297596Y-132493393D01*
X120896475Y-131354677D02*
X120933889Y-131298683D01*
X120933889Y-131298683D02*
X120962013Y-131195985D01*
X120962013Y-131195985D02*
X120915563Y-130962465D01*
X120915563Y-130962465D02*
X120850279Y-130878346D01*
X120850279Y-130878346D02*
X120794284Y-130840932D01*
X120794284Y-130840932D02*
X120691586Y-130812808D01*
X120691586Y-130812808D02*
X120598178Y-130831388D01*
X120598178Y-130831388D02*
X120467356Y-130905963D01*
X120467356Y-130905963D02*
X120018387Y-131577891D01*
X120018387Y-131577891D02*
X119897617Y-130970739D01*
X148892857Y-124204819D02*
X149226190Y-123728628D01*
X149464285Y-124204819D02*
X149464285Y-123204819D01*
X149464285Y-123204819D02*
X149083333Y-123204819D01*
X149083333Y-123204819D02*
X148988095Y-123252438D01*
X148988095Y-123252438D02*
X148940476Y-123300057D01*
X148940476Y-123300057D02*
X148892857Y-123395295D01*
X148892857Y-123395295D02*
X148892857Y-123538152D01*
X148892857Y-123538152D02*
X148940476Y-123633390D01*
X148940476Y-123633390D02*
X148988095Y-123681009D01*
X148988095Y-123681009D02*
X149083333Y-123728628D01*
X149083333Y-123728628D02*
X149464285Y-123728628D01*
X147940476Y-124204819D02*
X148511904Y-124204819D01*
X148226190Y-124204819D02*
X148226190Y-123204819D01*
X148226190Y-123204819D02*
X148321428Y-123347676D01*
X148321428Y-123347676D02*
X148416666Y-123442914D01*
X148416666Y-123442914D02*
X148511904Y-123490533D01*
X147321428Y-123204819D02*
X147226190Y-123204819D01*
X147226190Y-123204819D02*
X147130952Y-123252438D01*
X147130952Y-123252438D02*
X147083333Y-123300057D01*
X147083333Y-123300057D02*
X147035714Y-123395295D01*
X147035714Y-123395295D02*
X146988095Y-123585771D01*
X146988095Y-123585771D02*
X146988095Y-123823866D01*
X146988095Y-123823866D02*
X147035714Y-124014342D01*
X147035714Y-124014342D02*
X147083333Y-124109580D01*
X147083333Y-124109580D02*
X147130952Y-124157200D01*
X147130952Y-124157200D02*
X147226190Y-124204819D01*
X147226190Y-124204819D02*
X147321428Y-124204819D01*
X147321428Y-124204819D02*
X147416666Y-124157200D01*
X147416666Y-124157200D02*
X147464285Y-124109580D01*
X147464285Y-124109580D02*
X147511904Y-124014342D01*
X147511904Y-124014342D02*
X147559523Y-123823866D01*
X147559523Y-123823866D02*
X147559523Y-123585771D01*
X147559523Y-123585771D02*
X147511904Y-123395295D01*
X147511904Y-123395295D02*
X147464285Y-123300057D01*
X147464285Y-123300057D02*
X147416666Y-123252438D01*
X147416666Y-123252438D02*
X147321428Y-123204819D01*
X149625785Y-160975088D02*
X149663199Y-161031082D01*
X149663199Y-161031082D02*
X149794021Y-161105657D01*
X149794021Y-161105657D02*
X149887429Y-161124237D01*
X149887429Y-161124237D02*
X150036831Y-161105403D01*
X150036831Y-161105403D02*
X150148819Y-161030575D01*
X150148819Y-161030575D02*
X150214103Y-160946456D01*
X150214103Y-160946456D02*
X150297968Y-160768930D01*
X150297968Y-160768930D02*
X150325838Y-160628818D01*
X150325838Y-160628818D02*
X150316294Y-160432712D01*
X150316294Y-160432712D02*
X150288170Y-160330014D01*
X150288170Y-160330014D02*
X150213341Y-160218025D01*
X150213341Y-160218025D02*
X150082519Y-160143451D01*
X150082519Y-160143451D02*
X149989111Y-160124871D01*
X149989111Y-160124871D02*
X149839709Y-160143705D01*
X149839709Y-160143705D02*
X149783715Y-160181119D01*
X149410082Y-160106799D02*
X149372668Y-160050805D01*
X149372668Y-160050805D02*
X149288550Y-159985521D01*
X149288550Y-159985521D02*
X149055030Y-159939071D01*
X149055030Y-159939071D02*
X148952332Y-159967195D01*
X148952332Y-159967195D02*
X148896338Y-160004609D01*
X148896338Y-160004609D02*
X148831054Y-160088727D01*
X148831054Y-160088727D02*
X148812474Y-160182135D01*
X148812474Y-160182135D02*
X148831308Y-160331538D01*
X148831308Y-160331538D02*
X149280276Y-161003466D01*
X149280276Y-161003466D02*
X148673123Y-160882696D01*
X148027541Y-159734691D02*
X148214357Y-159771851D01*
X148214357Y-159771851D02*
X148298475Y-159837135D01*
X148298475Y-159837135D02*
X148335889Y-159893129D01*
X148335889Y-159893129D02*
X148401427Y-160051821D01*
X148401427Y-160051821D02*
X148410971Y-160247927D01*
X148410971Y-160247927D02*
X148336651Y-160621560D01*
X148336651Y-160621560D02*
X148271367Y-160705678D01*
X148271367Y-160705678D02*
X148215373Y-160743092D01*
X148215373Y-160743092D02*
X148112675Y-160771216D01*
X148112675Y-160771216D02*
X147925858Y-160734056D01*
X147925858Y-160734056D02*
X147841740Y-160668772D01*
X147841740Y-160668772D02*
X147804326Y-160612778D01*
X147804326Y-160612778D02*
X147776202Y-160510080D01*
X147776202Y-160510080D02*
X147822652Y-160276559D01*
X147822652Y-160276559D02*
X147887936Y-160192441D01*
X147887936Y-160192441D02*
X147943930Y-160155027D01*
X147943930Y-160155027D02*
X148046629Y-160126903D01*
X148046629Y-160126903D02*
X148233445Y-160164063D01*
X148233445Y-160164063D02*
X148317563Y-160229347D01*
X148317563Y-160229347D02*
X148354977Y-160285341D01*
X148354977Y-160285341D02*
X148383101Y-160388040D01*
X190090598Y-138331425D02*
X190152815Y-138305653D01*
X190152815Y-138305653D02*
X190251478Y-138191894D01*
X190251478Y-138191894D02*
X190287924Y-138103905D01*
X190287924Y-138103905D02*
X190298599Y-137953699D01*
X190298599Y-137953699D02*
X190247057Y-137829265D01*
X190247057Y-137829265D02*
X190177291Y-137748824D01*
X190177291Y-137748824D02*
X190019537Y-137631938D01*
X190019537Y-137631938D02*
X189887554Y-137577269D01*
X189887554Y-137577269D02*
X189693354Y-137548371D01*
X189693354Y-137548371D02*
X189587143Y-137555919D01*
X189587143Y-137555919D02*
X189462708Y-137607462D01*
X189462708Y-137607462D02*
X189364045Y-137721222D01*
X189364045Y-137721222D02*
X189327599Y-137809210D01*
X189327599Y-137809210D02*
X189316924Y-137959416D01*
X189316924Y-137959416D02*
X189342695Y-138021633D01*
X189814126Y-139247756D02*
X190032802Y-138719825D01*
X189923464Y-138983790D02*
X188999584Y-138601107D01*
X188999584Y-138601107D02*
X189168013Y-138567787D01*
X189168013Y-138567787D02*
X189292448Y-138516245D01*
X189292448Y-138516245D02*
X189372888Y-138446479D01*
X189631896Y-139687699D02*
X189559004Y-139863676D01*
X189559004Y-139863676D02*
X189478563Y-139933441D01*
X189478563Y-139933441D02*
X189416346Y-139959212D01*
X189416346Y-139959212D02*
X189247917Y-139992532D01*
X189247917Y-139992532D02*
X189053717Y-139963634D01*
X189053717Y-139963634D02*
X188701763Y-139817850D01*
X188701763Y-139817850D02*
X188631997Y-139737410D01*
X188631997Y-139737410D02*
X188606226Y-139675192D01*
X188606226Y-139675192D02*
X188598678Y-139568981D01*
X188598678Y-139568981D02*
X188671570Y-139393004D01*
X188671570Y-139393004D02*
X188752010Y-139323238D01*
X188752010Y-139323238D02*
X188814228Y-139297467D01*
X188814228Y-139297467D02*
X188920439Y-139289919D01*
X188920439Y-139289919D02*
X189140411Y-139381034D01*
X189140411Y-139381034D02*
X189210176Y-139461474D01*
X189210176Y-139461474D02*
X189235947Y-139523691D01*
X189235947Y-139523691D02*
X189243496Y-139629903D01*
X189243496Y-139629903D02*
X189170603Y-139805880D01*
X189170603Y-139805880D02*
X189090163Y-139875645D01*
X189090163Y-139875645D02*
X189027946Y-139901417D01*
X189027946Y-139901417D02*
X188921734Y-139908965D01*
X182398645Y-150338620D02*
X182465989Y-150338620D01*
X182465989Y-150338620D02*
X182600676Y-150271276D01*
X182600676Y-150271276D02*
X182668019Y-150203933D01*
X182668019Y-150203933D02*
X182735363Y-150069246D01*
X182735363Y-150069246D02*
X182735363Y-149934559D01*
X182735363Y-149934559D02*
X182701691Y-149833544D01*
X182701691Y-149833544D02*
X182600676Y-149665185D01*
X182600676Y-149665185D02*
X182499661Y-149564170D01*
X182499661Y-149564170D02*
X182331302Y-149463154D01*
X182331302Y-149463154D02*
X182230287Y-149429483D01*
X182230287Y-149429483D02*
X182095600Y-149429483D01*
X182095600Y-149429483D02*
X181960913Y-149496826D01*
X181960913Y-149496826D02*
X181893569Y-149564170D01*
X181893569Y-149564170D02*
X181826226Y-149698857D01*
X181826226Y-149698857D02*
X181826226Y-149766200D01*
X181556852Y-150035574D02*
X181489508Y-150035574D01*
X181489508Y-150035574D02*
X181388493Y-150069246D01*
X181388493Y-150069246D02*
X181220134Y-150237605D01*
X181220134Y-150237605D02*
X181186462Y-150338620D01*
X181186462Y-150338620D02*
X181186462Y-150405963D01*
X181186462Y-150405963D02*
X181220134Y-150506979D01*
X181220134Y-150506979D02*
X181287478Y-150574322D01*
X181287478Y-150574322D02*
X181422165Y-150641666D01*
X181422165Y-150641666D02*
X182230287Y-150641666D01*
X182230287Y-150641666D02*
X181792554Y-151079398D01*
X181119119Y-151752834D02*
X181523180Y-151348773D01*
X181321149Y-151550803D02*
X180614042Y-150843696D01*
X180614042Y-150843696D02*
X180782401Y-150877368D01*
X180782401Y-150877368D02*
X180917088Y-150877368D01*
X180917088Y-150877368D02*
X181018103Y-150843696D01*
X149176447Y-89847539D02*
X149232441Y-89884953D01*
X149232441Y-89884953D02*
X149381843Y-89903787D01*
X149381843Y-89903787D02*
X149475251Y-89885207D01*
X149475251Y-89885207D02*
X149606074Y-89810633D01*
X149606074Y-89810633D02*
X149680902Y-89698645D01*
X149680902Y-89698645D02*
X149709026Y-89595947D01*
X149709026Y-89595947D02*
X149718570Y-89399841D01*
X149718570Y-89399841D02*
X149690700Y-89259728D01*
X149690700Y-89259728D02*
X149606836Y-89082202D01*
X149606836Y-89082202D02*
X149541551Y-88998084D01*
X149541551Y-88998084D02*
X149429563Y-88923256D01*
X149429563Y-88923256D02*
X149280161Y-88904422D01*
X149280161Y-88904422D02*
X149186753Y-88923002D01*
X149186753Y-88923002D02*
X149055931Y-88997576D01*
X149055931Y-88997576D02*
X149018517Y-89053570D01*
X148523098Y-89491979D02*
X148607216Y-89426695D01*
X148607216Y-89426695D02*
X148644630Y-89370701D01*
X148644630Y-89370701D02*
X148672754Y-89268003D01*
X148672754Y-89268003D02*
X148663464Y-89221298D01*
X148663464Y-89221298D02*
X148598180Y-89137180D01*
X148598180Y-89137180D02*
X148542186Y-89099766D01*
X148542186Y-89099766D02*
X148439488Y-89071642D01*
X148439488Y-89071642D02*
X148252672Y-89108802D01*
X148252672Y-89108802D02*
X148168554Y-89174086D01*
X148168554Y-89174086D02*
X148131140Y-89230080D01*
X148131140Y-89230080D02*
X148103016Y-89332779D01*
X148103016Y-89332779D02*
X148112306Y-89379483D01*
X148112306Y-89379483D02*
X148177590Y-89463601D01*
X148177590Y-89463601D02*
X148233584Y-89501015D01*
X148233584Y-89501015D02*
X148336282Y-89529139D01*
X148336282Y-89529139D02*
X148523098Y-89491979D01*
X148523098Y-89491979D02*
X148625796Y-89520103D01*
X148625796Y-89520103D02*
X148681790Y-89557517D01*
X148681790Y-89557517D02*
X148747074Y-89641635D01*
X148747074Y-89641635D02*
X148784234Y-89828451D01*
X148784234Y-89828451D02*
X148756110Y-89931149D01*
X148756110Y-89931149D02*
X148718696Y-89987143D01*
X148718696Y-89987143D02*
X148634578Y-90052428D01*
X148634578Y-90052428D02*
X148447762Y-90089588D01*
X148447762Y-90089588D02*
X148345064Y-90061464D01*
X148345064Y-90061464D02*
X148289070Y-90024050D01*
X148289070Y-90024050D02*
X148223786Y-89939931D01*
X148223786Y-89939931D02*
X148186626Y-89753115D01*
X148186626Y-89753115D02*
X148214750Y-89650417D01*
X148214750Y-89650417D02*
X148252164Y-89594423D01*
X148252164Y-89594423D02*
X148336282Y-89529139D01*
X166988094Y-124454819D02*
X166988094Y-123454819D01*
X166988094Y-123454819D02*
X166749999Y-123454819D01*
X166749999Y-123454819D02*
X166607142Y-123502438D01*
X166607142Y-123502438D02*
X166511904Y-123597676D01*
X166511904Y-123597676D02*
X166464285Y-123692914D01*
X166464285Y-123692914D02*
X166416666Y-123883390D01*
X166416666Y-123883390D02*
X166416666Y-124026247D01*
X166416666Y-124026247D02*
X166464285Y-124216723D01*
X166464285Y-124216723D02*
X166511904Y-124311961D01*
X166511904Y-124311961D02*
X166607142Y-124407200D01*
X166607142Y-124407200D02*
X166749999Y-124454819D01*
X166749999Y-124454819D02*
X166988094Y-124454819D01*
X165464285Y-124454819D02*
X166035713Y-124454819D01*
X165749999Y-124454819D02*
X165749999Y-123454819D01*
X165749999Y-123454819D02*
X165845237Y-123597676D01*
X165845237Y-123597676D02*
X165940475Y-123692914D01*
X165940475Y-123692914D02*
X166035713Y-123740533D01*
X163882821Y-160699872D02*
X163938815Y-160737286D01*
X163938815Y-160737286D02*
X164088217Y-160756120D01*
X164088217Y-160756120D02*
X164181626Y-160737540D01*
X164181626Y-160737540D02*
X164312448Y-160662966D01*
X164312448Y-160662966D02*
X164387276Y-160550978D01*
X164387276Y-160550978D02*
X164415400Y-160448280D01*
X164415400Y-160448280D02*
X164424944Y-160252173D01*
X164424944Y-160252173D02*
X164397074Y-160112061D01*
X164397074Y-160112061D02*
X164313210Y-159934535D01*
X164313210Y-159934535D02*
X164247926Y-159850417D01*
X164247926Y-159850417D02*
X164135937Y-159775589D01*
X164135937Y-159775589D02*
X163986535Y-159756755D01*
X163986535Y-159756755D02*
X163893127Y-159775335D01*
X163893127Y-159775335D02*
X163762305Y-159849909D01*
X163762305Y-159849909D02*
X163724891Y-159905903D01*
X163351258Y-159980223D02*
X163295264Y-159942809D01*
X163295264Y-159942809D02*
X163192566Y-159914685D01*
X163192566Y-159914685D02*
X162959046Y-159961135D01*
X162959046Y-159961135D02*
X162874928Y-160026419D01*
X162874928Y-160026419D02*
X162837514Y-160082413D01*
X162837514Y-160082413D02*
X162809390Y-160185111D01*
X162809390Y-160185111D02*
X162827970Y-160278520D01*
X162827970Y-160278520D02*
X162902544Y-160409342D01*
X162902544Y-160409342D02*
X163574473Y-160858310D01*
X163574473Y-160858310D02*
X162967320Y-160979080D01*
X161996587Y-160492444D02*
X162126647Y-161146301D01*
X162155787Y-160072361D02*
X162528657Y-160726472D01*
X162528657Y-160726472D02*
X161921505Y-160847242D01*
X181801733Y-100081514D02*
X181801733Y-100148858D01*
X181801733Y-100148858D02*
X181869077Y-100283545D01*
X181869077Y-100283545D02*
X181936420Y-100350888D01*
X181936420Y-100350888D02*
X182071107Y-100418232D01*
X182071107Y-100418232D02*
X182205794Y-100418232D01*
X182205794Y-100418232D02*
X182306809Y-100384560D01*
X182306809Y-100384560D02*
X182475168Y-100283545D01*
X182475168Y-100283545D02*
X182576183Y-100182530D01*
X182576183Y-100182530D02*
X182677199Y-100014171D01*
X182677199Y-100014171D02*
X182710870Y-99913156D01*
X182710870Y-99913156D02*
X182710870Y-99778469D01*
X182710870Y-99778469D02*
X182643527Y-99643782D01*
X182643527Y-99643782D02*
X182576183Y-99576438D01*
X182576183Y-99576438D02*
X182441496Y-99509095D01*
X182441496Y-99509095D02*
X182374153Y-99509095D01*
X181060955Y-99475423D02*
X181465016Y-99879484D01*
X181262985Y-99677453D02*
X181970092Y-98970347D01*
X181970092Y-98970347D02*
X181936420Y-99138705D01*
X181936420Y-99138705D02*
X181936420Y-99273392D01*
X181936420Y-99273392D02*
X181970092Y-99374408D01*
X181532359Y-98532614D02*
X181094626Y-98094881D01*
X181094626Y-98094881D02*
X181060954Y-98599957D01*
X181060954Y-98599957D02*
X180959939Y-98498942D01*
X180959939Y-98498942D02*
X180858924Y-98465270D01*
X180858924Y-98465270D02*
X180791580Y-98465270D01*
X180791580Y-98465270D02*
X180690565Y-98498942D01*
X180690565Y-98498942D02*
X180522206Y-98667301D01*
X180522206Y-98667301D02*
X180488535Y-98768316D01*
X180488535Y-98768316D02*
X180488535Y-98835659D01*
X180488535Y-98835659D02*
X180522206Y-98936675D01*
X180522206Y-98936675D02*
X180724237Y-99138705D01*
X180724237Y-99138705D02*
X180825252Y-99172377D01*
X180825252Y-99172377D02*
X180892596Y-99172377D01*
X176445806Y-95538839D02*
X176458944Y-95604889D01*
X176458944Y-95604889D02*
X176551270Y-95723850D01*
X176551270Y-95723850D02*
X176630458Y-95776761D01*
X176630458Y-95776761D02*
X176775695Y-95816535D01*
X176775695Y-95816535D02*
X176907794Y-95790259D01*
X176907794Y-95790259D02*
X177000299Y-95737527D01*
X177000299Y-95737527D02*
X177145716Y-95605607D01*
X177145716Y-95605607D02*
X177225083Y-95486826D01*
X177225083Y-95486826D02*
X177291312Y-95301995D01*
X177291312Y-95301995D02*
X177304630Y-95196352D01*
X177304630Y-95196352D02*
X177278353Y-95064253D01*
X177278353Y-95064253D02*
X177186028Y-94945292D01*
X177186028Y-94945292D02*
X177106840Y-94892380D01*
X177106840Y-94892380D02*
X176961603Y-94852607D01*
X176961603Y-94852607D02*
X176895554Y-94865745D01*
X175601019Y-95088913D02*
X176076144Y-95406381D01*
X175838582Y-95247647D02*
X176394152Y-94416177D01*
X176394152Y-94416177D02*
X176393972Y-94587870D01*
X176393972Y-94587870D02*
X176420248Y-94719969D01*
X176420248Y-94719969D02*
X176472980Y-94812474D01*
X175786927Y-94124985D02*
X175773789Y-94058935D01*
X175773789Y-94058935D02*
X175721057Y-93966430D01*
X175721057Y-93966430D02*
X175523089Y-93834151D01*
X175523089Y-93834151D02*
X175417445Y-93820834D01*
X175417445Y-93820834D02*
X175351396Y-93833972D01*
X175351396Y-93833972D02*
X175258890Y-93886704D01*
X175258890Y-93886704D02*
X175205979Y-93965891D01*
X175205979Y-93965891D02*
X175166206Y-94111128D01*
X175166206Y-94111128D02*
X175323862Y-94903722D01*
X175323862Y-94903722D02*
X174809143Y-94559798D01*
X163619922Y-89981083D02*
X163657336Y-90037077D01*
X163657336Y-90037077D02*
X163788158Y-90111652D01*
X163788158Y-90111652D02*
X163881566Y-90130232D01*
X163881566Y-90130232D02*
X164030968Y-90111398D01*
X164030968Y-90111398D02*
X164142956Y-90036570D01*
X164142956Y-90036570D02*
X164208240Y-89952451D01*
X164208240Y-89952451D02*
X164292105Y-89774925D01*
X164292105Y-89774925D02*
X164319975Y-89634813D01*
X164319975Y-89634813D02*
X164310431Y-89438707D01*
X164310431Y-89438707D02*
X164282307Y-89336009D01*
X164282307Y-89336009D02*
X164207478Y-89224020D01*
X164207478Y-89224020D02*
X164076656Y-89149446D01*
X164076656Y-89149446D02*
X163983248Y-89130866D01*
X163983248Y-89130866D02*
X163833846Y-89149700D01*
X163833846Y-89149700D02*
X163777852Y-89187114D01*
X162667260Y-89888691D02*
X163227709Y-90000171D01*
X162947485Y-89944431D02*
X163142575Y-88963646D01*
X163142575Y-88963646D02*
X163208113Y-89122338D01*
X163208113Y-89122338D02*
X163282941Y-89234326D01*
X163282941Y-89234326D02*
X163367059Y-89299611D01*
X162255198Y-88787136D02*
X162161790Y-88768556D01*
X162161790Y-88768556D02*
X162059092Y-88796680D01*
X162059092Y-88796680D02*
X162003098Y-88834094D01*
X162003098Y-88834094D02*
X161937813Y-88918212D01*
X161937813Y-88918212D02*
X161853949Y-89095738D01*
X161853949Y-89095738D02*
X161807499Y-89329258D01*
X161807499Y-89329258D02*
X161817043Y-89525365D01*
X161817043Y-89525365D02*
X161845167Y-89628063D01*
X161845167Y-89628063D02*
X161882581Y-89684057D01*
X161882581Y-89684057D02*
X161966699Y-89749341D01*
X161966699Y-89749341D02*
X162060108Y-89767921D01*
X162060108Y-89767921D02*
X162162806Y-89739797D01*
X162162806Y-89739797D02*
X162218800Y-89702383D01*
X162218800Y-89702383D02*
X162284084Y-89618265D01*
X162284084Y-89618265D02*
X162367948Y-89440739D01*
X162367948Y-89440739D02*
X162414398Y-89207218D01*
X162414398Y-89207218D02*
X162404854Y-89011112D01*
X162404854Y-89011112D02*
X162376730Y-88908414D01*
X162376730Y-88908414D02*
X162339316Y-88852420D01*
X162339316Y-88852420D02*
X162255198Y-88787136D01*
X126072824Y-145886784D02*
X126059686Y-145952834D01*
X126059686Y-145952834D02*
X126099460Y-146098071D01*
X126099460Y-146098071D02*
X126152371Y-146177258D01*
X126152371Y-146177258D02*
X126271332Y-146269584D01*
X126271332Y-146269584D02*
X126403431Y-146295860D01*
X126403431Y-146295860D02*
X126509074Y-146282543D01*
X126509074Y-146282543D02*
X126693905Y-146216313D01*
X126693905Y-146216313D02*
X126812687Y-146136946D01*
X126812687Y-146136946D02*
X126944606Y-145991530D01*
X126944606Y-145991530D02*
X126997338Y-145899024D01*
X126997338Y-145899024D02*
X127023614Y-145766925D01*
X127023614Y-145766925D02*
X126983841Y-145621688D01*
X126983841Y-145621688D02*
X126930929Y-145542501D01*
X126930929Y-145542501D02*
X126811968Y-145450175D01*
X126811968Y-145450175D02*
X126745919Y-145437037D01*
X126639916Y-145106969D02*
X126295992Y-144592250D01*
X126295992Y-144592250D02*
X126164431Y-145081052D01*
X126164431Y-145081052D02*
X126085064Y-144962271D01*
X126085064Y-144962271D02*
X125992559Y-144909539D01*
X125992559Y-144909539D02*
X125926510Y-144896401D01*
X125926510Y-144896401D02*
X125820866Y-144909718D01*
X125820866Y-144909718D02*
X125622897Y-145041997D01*
X125622897Y-145041997D02*
X125570165Y-145134502D01*
X125570165Y-145134502D02*
X125557027Y-145200552D01*
X125557027Y-145200552D02*
X125570345Y-145306195D01*
X125570345Y-145306195D02*
X125729079Y-145543758D01*
X125729079Y-145543758D02*
X125821585Y-145596490D01*
X125821585Y-145596490D02*
X125887634Y-145609628D01*
X125952067Y-144077530D02*
X125899156Y-143998343D01*
X125899156Y-143998343D02*
X125806651Y-143945611D01*
X125806651Y-143945611D02*
X125740601Y-143932473D01*
X125740601Y-143932473D02*
X125634958Y-143945790D01*
X125634958Y-143945790D02*
X125450127Y-144012020D01*
X125450127Y-144012020D02*
X125252158Y-144144298D01*
X125252158Y-144144298D02*
X125120238Y-144289715D01*
X125120238Y-144289715D02*
X125067507Y-144382220D01*
X125067507Y-144382220D02*
X125054369Y-144448270D01*
X125054369Y-144448270D02*
X125067686Y-144553913D01*
X125067686Y-144553913D02*
X125120598Y-144633100D01*
X125120598Y-144633100D02*
X125213103Y-144685832D01*
X125213103Y-144685832D02*
X125279152Y-144698970D01*
X125279152Y-144698970D02*
X125384796Y-144685653D01*
X125384796Y-144685653D02*
X125569627Y-144619424D01*
X125569627Y-144619424D02*
X125767596Y-144487145D01*
X125767596Y-144487145D02*
X125899515Y-144341728D01*
X125899515Y-144341728D02*
X125952247Y-144249223D01*
X125952247Y-144249223D02*
X125965385Y-144183174D01*
X125965385Y-144183174D02*
X125952067Y-144077530D01*
X123008610Y-111195883D02*
X123070828Y-111170111D01*
X123070828Y-111170111D02*
X123169491Y-111056352D01*
X123169491Y-111056352D02*
X123205937Y-110968363D01*
X123205937Y-110968363D02*
X123216612Y-110818157D01*
X123216612Y-110818157D02*
X123165069Y-110693723D01*
X123165069Y-110693723D02*
X123095304Y-110613282D01*
X123095304Y-110613282D02*
X122937550Y-110496396D01*
X122937550Y-110496396D02*
X122805567Y-110441727D01*
X122805567Y-110441727D02*
X122611367Y-110412829D01*
X122611367Y-110412829D02*
X122505155Y-110420377D01*
X122505155Y-110420377D02*
X122380721Y-110471920D01*
X122380721Y-110471920D02*
X122282057Y-110585680D01*
X122282057Y-110585680D02*
X122245611Y-110673668D01*
X122245611Y-110673668D02*
X122234937Y-110823874D01*
X122234937Y-110823874D02*
X122260708Y-110886091D01*
X122045158Y-111157605D02*
X121808259Y-111729531D01*
X121808259Y-111729531D02*
X122287774Y-111567355D01*
X122287774Y-111567355D02*
X122233105Y-111699338D01*
X122233105Y-111699338D02*
X122240653Y-111805549D01*
X122240653Y-111805549D02*
X122266425Y-111867767D01*
X122266425Y-111867767D02*
X122336190Y-111948207D01*
X122336190Y-111948207D02*
X122556161Y-112039322D01*
X122556161Y-112039322D02*
X122662373Y-112031774D01*
X122662373Y-112031774D02*
X122724590Y-112006002D01*
X122724590Y-112006002D02*
X122805031Y-111936237D01*
X122805031Y-111936237D02*
X122914369Y-111672271D01*
X122914369Y-111672271D02*
X122906820Y-111566060D01*
X122906820Y-111566060D02*
X122881049Y-111503843D01*
X186835924Y-144713819D02*
X186901974Y-144700681D01*
X186901974Y-144700681D02*
X187020935Y-144608355D01*
X187020935Y-144608355D02*
X187073846Y-144529167D01*
X187073846Y-144529167D02*
X187113620Y-144383930D01*
X187113620Y-144383930D02*
X187087344Y-144251831D01*
X187087344Y-144251831D02*
X187034612Y-144159326D01*
X187034612Y-144159326D02*
X186902692Y-144013909D01*
X186902692Y-144013909D02*
X186783911Y-143934542D01*
X186783911Y-143934542D02*
X186599080Y-143868313D01*
X186599080Y-143868313D02*
X186493437Y-143854995D01*
X186493437Y-143854995D02*
X186361338Y-143881272D01*
X186361338Y-143881272D02*
X186242377Y-143973597D01*
X186242377Y-143973597D02*
X186189465Y-144052785D01*
X186189465Y-144052785D02*
X186149692Y-144198022D01*
X186149692Y-144198022D02*
X186162830Y-144264071D01*
X185951184Y-144580822D02*
X185885135Y-144593960D01*
X185885135Y-144593960D02*
X185792629Y-144646692D01*
X185792629Y-144646692D02*
X185660351Y-144844661D01*
X185660351Y-144844661D02*
X185647033Y-144950304D01*
X185647033Y-144950304D02*
X185660171Y-145016353D01*
X185660171Y-145016353D02*
X185712903Y-145108859D01*
X185712903Y-145108859D02*
X185792091Y-145161770D01*
X185792091Y-145161770D02*
X185937328Y-145201544D01*
X185937328Y-145201544D02*
X186729922Y-145043887D01*
X186729922Y-145043887D02*
X186385998Y-145558606D01*
X185210603Y-145517755D02*
X185157692Y-145596943D01*
X185157692Y-145596943D02*
X185144374Y-145702586D01*
X185144374Y-145702586D02*
X185157512Y-145768636D01*
X185157512Y-145768636D02*
X185210244Y-145861141D01*
X185210244Y-145861141D02*
X185342164Y-146006557D01*
X185342164Y-146006557D02*
X185540133Y-146138836D01*
X185540133Y-146138836D02*
X185724964Y-146205065D01*
X185724964Y-146205065D02*
X185830607Y-146218383D01*
X185830607Y-146218383D02*
X185896656Y-146205245D01*
X185896656Y-146205245D02*
X185989162Y-146152513D01*
X185989162Y-146152513D02*
X186042073Y-146073325D01*
X186042073Y-146073325D02*
X186055391Y-145967682D01*
X186055391Y-145967682D02*
X186042253Y-145901633D01*
X186042253Y-145901633D02*
X185989521Y-145809127D01*
X185989521Y-145809127D02*
X185857601Y-145663711D01*
X185857601Y-145663711D02*
X185659632Y-145531432D01*
X185659632Y-145531432D02*
X185474802Y-145465203D01*
X185474802Y-145465203D02*
X185369158Y-145451885D01*
X185369158Y-145451885D02*
X185303109Y-145465023D01*
X185303109Y-145465023D02*
X185210603Y-145517755D01*
X136348679Y-155773424D02*
X136361817Y-155839474D01*
X136361817Y-155839474D02*
X136454143Y-155958435D01*
X136454143Y-155958435D02*
X136533331Y-156011346D01*
X136533331Y-156011346D02*
X136678568Y-156051120D01*
X136678568Y-156051120D02*
X136810667Y-156024844D01*
X136810667Y-156024844D02*
X136903172Y-155972112D01*
X136903172Y-155972112D02*
X137048589Y-155840192D01*
X137048589Y-155840192D02*
X137127956Y-155721411D01*
X137127956Y-155721411D02*
X137194185Y-155536580D01*
X137194185Y-155536580D02*
X137207503Y-155430937D01*
X137207503Y-155430937D02*
X137181226Y-155298838D01*
X137181226Y-155298838D02*
X137088901Y-155179877D01*
X137088901Y-155179877D02*
X137009713Y-155126965D01*
X137009713Y-155126965D02*
X136864476Y-155087192D01*
X136864476Y-155087192D02*
X136798427Y-155100330D01*
X136481676Y-154888684D02*
X136468538Y-154822635D01*
X136468538Y-154822635D02*
X136415806Y-154730129D01*
X136415806Y-154730129D02*
X136217837Y-154597851D01*
X136217837Y-154597851D02*
X136112194Y-154584533D01*
X136112194Y-154584533D02*
X136046145Y-154597671D01*
X136046145Y-154597671D02*
X135953639Y-154650403D01*
X135953639Y-154650403D02*
X135900728Y-154729591D01*
X135900728Y-154729591D02*
X135860954Y-154874828D01*
X135860954Y-154874828D02*
X136018611Y-155667422D01*
X136018611Y-155667422D02*
X135503892Y-155323498D01*
X135346235Y-154530903D02*
X135451878Y-154544221D01*
X135451878Y-154544221D02*
X135517928Y-154531083D01*
X135517928Y-154531083D02*
X135610433Y-154478351D01*
X135610433Y-154478351D02*
X135636889Y-154438757D01*
X135636889Y-154438757D02*
X135650207Y-154333114D01*
X135650207Y-154333114D02*
X135637069Y-154267064D01*
X135637069Y-154267064D02*
X135584337Y-154174559D01*
X135584337Y-154174559D02*
X135425962Y-154068736D01*
X135425962Y-154068736D02*
X135320318Y-154055419D01*
X135320318Y-154055419D02*
X135254269Y-154068557D01*
X135254269Y-154068557D02*
X135161763Y-154121289D01*
X135161763Y-154121289D02*
X135135308Y-154160882D01*
X135135308Y-154160882D02*
X135121990Y-154266526D01*
X135121990Y-154266526D02*
X135135128Y-154332575D01*
X135135128Y-154332575D02*
X135187860Y-154425080D01*
X135187860Y-154425080D02*
X135346235Y-154530903D01*
X135346235Y-154530903D02*
X135398967Y-154623409D01*
X135398967Y-154623409D02*
X135412105Y-154689458D01*
X135412105Y-154689458D02*
X135398787Y-154795101D01*
X135398787Y-154795101D02*
X135292965Y-154953477D01*
X135292965Y-154953477D02*
X135200459Y-155006208D01*
X135200459Y-155006208D02*
X135134410Y-155019346D01*
X135134410Y-155019346D02*
X135028766Y-155006029D01*
X135028766Y-155006029D02*
X134870391Y-154900206D01*
X134870391Y-154900206D02*
X134817659Y-154807701D01*
X134817659Y-154807701D02*
X134804521Y-154741651D01*
X134804521Y-154741651D02*
X134817839Y-154636008D01*
X134817839Y-154636008D02*
X134923662Y-154477633D01*
X134923662Y-154477633D02*
X135016167Y-154424901D01*
X135016167Y-154424901D02*
X135082217Y-154411763D01*
X135082217Y-154411763D02*
X135187860Y-154425080D01*
X143704819Y-126488095D02*
X144514342Y-126488095D01*
X144514342Y-126488095D02*
X144609580Y-126535714D01*
X144609580Y-126535714D02*
X144657200Y-126583333D01*
X144657200Y-126583333D02*
X144704819Y-126678571D01*
X144704819Y-126678571D02*
X144704819Y-126869047D01*
X144704819Y-126869047D02*
X144657200Y-126964285D01*
X144657200Y-126964285D02*
X144609580Y-127011904D01*
X144609580Y-127011904D02*
X144514342Y-127059523D01*
X144514342Y-127059523D02*
X143704819Y-127059523D01*
X143800057Y-127488095D02*
X143752438Y-127535714D01*
X143752438Y-127535714D02*
X143704819Y-127630952D01*
X143704819Y-127630952D02*
X143704819Y-127869047D01*
X143704819Y-127869047D02*
X143752438Y-127964285D01*
X143752438Y-127964285D02*
X143800057Y-128011904D01*
X143800057Y-128011904D02*
X143895295Y-128059523D01*
X143895295Y-128059523D02*
X143990533Y-128059523D01*
X143990533Y-128059523D02*
X144133390Y-128011904D01*
X144133390Y-128011904D02*
X144704819Y-127440476D01*
X144704819Y-127440476D02*
X144704819Y-128059523D01*
X158954819Y-118583333D02*
X158478628Y-118250000D01*
X158954819Y-118011905D02*
X157954819Y-118011905D01*
X157954819Y-118011905D02*
X157954819Y-118392857D01*
X157954819Y-118392857D02*
X158002438Y-118488095D01*
X158002438Y-118488095D02*
X158050057Y-118535714D01*
X158050057Y-118535714D02*
X158145295Y-118583333D01*
X158145295Y-118583333D02*
X158288152Y-118583333D01*
X158288152Y-118583333D02*
X158383390Y-118535714D01*
X158383390Y-118535714D02*
X158431009Y-118488095D01*
X158431009Y-118488095D02*
X158478628Y-118392857D01*
X158478628Y-118392857D02*
X158478628Y-118011905D01*
X157954819Y-118916667D02*
X157954819Y-119583333D01*
X157954819Y-119583333D02*
X158954819Y-119154762D01*
X142450857Y-91866386D02*
X142513074Y-91892157D01*
X142513074Y-91892157D02*
X142663280Y-91881482D01*
X142663280Y-91881482D02*
X142751268Y-91845036D01*
X142751268Y-91845036D02*
X142865028Y-91746373D01*
X142865028Y-91746373D02*
X142916571Y-91621938D01*
X142916571Y-91621938D02*
X142924119Y-91515727D01*
X142924119Y-91515727D02*
X142895221Y-91321526D01*
X142895221Y-91321526D02*
X142840552Y-91189544D01*
X142840552Y-91189544D02*
X142723666Y-91031790D01*
X142723666Y-91031790D02*
X142643225Y-90962024D01*
X142643225Y-90962024D02*
X142518791Y-90910482D01*
X142518791Y-90910482D02*
X142368585Y-90921156D01*
X142368585Y-90921156D02*
X142280596Y-90957603D01*
X142280596Y-90957603D02*
X142166837Y-91056266D01*
X142166837Y-91056266D02*
X142141065Y-91118483D01*
X141796659Y-91158056D02*
X141180740Y-91413178D01*
X141180740Y-91413178D02*
X141959372Y-92173050D01*
X166684819Y-126133333D02*
X166208628Y-125800000D01*
X166684819Y-125561905D02*
X165684819Y-125561905D01*
X165684819Y-125561905D02*
X165684819Y-125942857D01*
X165684819Y-125942857D02*
X165732438Y-126038095D01*
X165732438Y-126038095D02*
X165780057Y-126085714D01*
X165780057Y-126085714D02*
X165875295Y-126133333D01*
X165875295Y-126133333D02*
X166018152Y-126133333D01*
X166018152Y-126133333D02*
X166113390Y-126085714D01*
X166113390Y-126085714D02*
X166161009Y-126038095D01*
X166161009Y-126038095D02*
X166208628Y-125942857D01*
X166208628Y-125942857D02*
X166208628Y-125561905D01*
X165684819Y-127038095D02*
X165684819Y-126561905D01*
X165684819Y-126561905D02*
X166161009Y-126514286D01*
X166161009Y-126514286D02*
X166113390Y-126561905D01*
X166113390Y-126561905D02*
X166065771Y-126657143D01*
X166065771Y-126657143D02*
X166065771Y-126895238D01*
X166065771Y-126895238D02*
X166113390Y-126990476D01*
X166113390Y-126990476D02*
X166161009Y-127038095D01*
X166161009Y-127038095D02*
X166256247Y-127085714D01*
X166256247Y-127085714D02*
X166494342Y-127085714D01*
X166494342Y-127085714D02*
X166589580Y-127038095D01*
X166589580Y-127038095D02*
X166637200Y-126990476D01*
X166637200Y-126990476D02*
X166684819Y-126895238D01*
X166684819Y-126895238D02*
X166684819Y-126657143D01*
X166684819Y-126657143D02*
X166637200Y-126561905D01*
X166637200Y-126561905D02*
X166589580Y-126514286D01*
X130723878Y-151336145D02*
X130723878Y-151403489D01*
X130723878Y-151403489D02*
X130791222Y-151538176D01*
X130791222Y-151538176D02*
X130858565Y-151605519D01*
X130858565Y-151605519D02*
X130993252Y-151672863D01*
X130993252Y-151672863D02*
X131127939Y-151672863D01*
X131127939Y-151672863D02*
X131228954Y-151639191D01*
X131228954Y-151639191D02*
X131397313Y-151538176D01*
X131397313Y-151538176D02*
X131498328Y-151437161D01*
X131498328Y-151437161D02*
X131599344Y-151268802D01*
X131599344Y-151268802D02*
X131633015Y-151167787D01*
X131633015Y-151167787D02*
X131633015Y-151033100D01*
X131633015Y-151033100D02*
X131565672Y-150898413D01*
X131565672Y-150898413D02*
X131498328Y-150831069D01*
X131498328Y-150831069D02*
X131363641Y-150763726D01*
X131363641Y-150763726D02*
X131296298Y-150763726D01*
X131026924Y-150494352D02*
X131026924Y-150427008D01*
X131026924Y-150427008D02*
X130993252Y-150325993D01*
X130993252Y-150325993D02*
X130824893Y-150157634D01*
X130824893Y-150157634D02*
X130723878Y-150123962D01*
X130723878Y-150123962D02*
X130656535Y-150123962D01*
X130656535Y-150123962D02*
X130555519Y-150157634D01*
X130555519Y-150157634D02*
X130488176Y-150224978D01*
X130488176Y-150224978D02*
X130420832Y-150359665D01*
X130420832Y-150359665D02*
X130420832Y-151167787D01*
X130420832Y-151167787D02*
X129983100Y-150730054D01*
X129646382Y-150393336D02*
X129511695Y-150258649D01*
X129511695Y-150258649D02*
X129478023Y-150157634D01*
X129478023Y-150157634D02*
X129478023Y-150090290D01*
X129478023Y-150090290D02*
X129511695Y-149921932D01*
X129511695Y-149921932D02*
X129612710Y-149753573D01*
X129612710Y-149753573D02*
X129882084Y-149484199D01*
X129882084Y-149484199D02*
X129983099Y-149450527D01*
X129983099Y-149450527D02*
X130050443Y-149450527D01*
X130050443Y-149450527D02*
X130151458Y-149484199D01*
X130151458Y-149484199D02*
X130286145Y-149618886D01*
X130286145Y-149618886D02*
X130319817Y-149719901D01*
X130319817Y-149719901D02*
X130319817Y-149787245D01*
X130319817Y-149787245D02*
X130286145Y-149888260D01*
X130286145Y-149888260D02*
X130117786Y-150056619D01*
X130117786Y-150056619D02*
X130016771Y-150090290D01*
X130016771Y-150090290D02*
X129949428Y-150090290D01*
X129949428Y-150090290D02*
X129848412Y-150056619D01*
X129848412Y-150056619D02*
X129713725Y-149921932D01*
X129713725Y-149921932D02*
X129680054Y-149820916D01*
X129680054Y-149820916D02*
X129680054Y-149753573D01*
X129680054Y-149753573D02*
X129713725Y-149652558D01*
X170697255Y-158488240D02*
X170759472Y-158514011D01*
X170759472Y-158514011D02*
X170909678Y-158503337D01*
X170909678Y-158503337D02*
X170997666Y-158466891D01*
X170997666Y-158466891D02*
X171111426Y-158368227D01*
X171111426Y-158368227D02*
X171162969Y-158243793D01*
X171162969Y-158243793D02*
X171170517Y-158137581D01*
X171170517Y-158137581D02*
X171141619Y-157943381D01*
X171141619Y-157943381D02*
X171086950Y-157811398D01*
X171086950Y-157811398D02*
X170970064Y-157653644D01*
X170970064Y-157653644D02*
X170889623Y-157583879D01*
X170889623Y-157583879D02*
X170765189Y-157532336D01*
X170765189Y-157532336D02*
X170614983Y-157543011D01*
X170614983Y-157543011D02*
X170526994Y-157579457D01*
X170526994Y-157579457D02*
X170413235Y-157678120D01*
X170413235Y-157678120D02*
X170387463Y-157740338D01*
X170035509Y-157886122D02*
X169973292Y-157860351D01*
X169973292Y-157860351D02*
X169867080Y-157852802D01*
X169867080Y-157852802D02*
X169647109Y-157943918D01*
X169647109Y-157943918D02*
X169577344Y-158024358D01*
X169577344Y-158024358D02*
X169551572Y-158086575D01*
X169551572Y-158086575D02*
X169544024Y-158192787D01*
X169544024Y-158192787D02*
X169580470Y-158280775D01*
X169580470Y-158280775D02*
X169679134Y-158394535D01*
X169679134Y-158394535D02*
X170425741Y-158703790D01*
X170425741Y-158703790D02*
X169853816Y-158940689D01*
X169163172Y-158144371D02*
X168591247Y-158381270D01*
X168591247Y-158381270D02*
X169044991Y-158605663D01*
X169044991Y-158605663D02*
X168913008Y-158660332D01*
X168913008Y-158660332D02*
X168843243Y-158740772D01*
X168843243Y-158740772D02*
X168817471Y-158802990D01*
X168817471Y-158802990D02*
X168809923Y-158909201D01*
X168809923Y-158909201D02*
X168901038Y-159129173D01*
X168901038Y-159129173D02*
X168981478Y-159198938D01*
X168981478Y-159198938D02*
X169043696Y-159224709D01*
X169043696Y-159224709D02*
X169149907Y-159232257D01*
X169149907Y-159232257D02*
X169413873Y-159122919D01*
X169413873Y-159122919D02*
X169483638Y-159042479D01*
X169483638Y-159042479D02*
X169509410Y-158980262D01*
X169704819Y-121083333D02*
X169228628Y-120750000D01*
X169704819Y-120511905D02*
X168704819Y-120511905D01*
X168704819Y-120511905D02*
X168704819Y-120892857D01*
X168704819Y-120892857D02*
X168752438Y-120988095D01*
X168752438Y-120988095D02*
X168800057Y-121035714D01*
X168800057Y-121035714D02*
X168895295Y-121083333D01*
X168895295Y-121083333D02*
X169038152Y-121083333D01*
X169038152Y-121083333D02*
X169133390Y-121035714D01*
X169133390Y-121035714D02*
X169181009Y-120988095D01*
X169181009Y-120988095D02*
X169228628Y-120892857D01*
X169228628Y-120892857D02*
X169228628Y-120511905D01*
X168800057Y-121464286D02*
X168752438Y-121511905D01*
X168752438Y-121511905D02*
X168704819Y-121607143D01*
X168704819Y-121607143D02*
X168704819Y-121845238D01*
X168704819Y-121845238D02*
X168752438Y-121940476D01*
X168752438Y-121940476D02*
X168800057Y-121988095D01*
X168800057Y-121988095D02*
X168895295Y-122035714D01*
X168895295Y-122035714D02*
X168990533Y-122035714D01*
X168990533Y-122035714D02*
X169133390Y-121988095D01*
X169133390Y-121988095D02*
X169704819Y-121416667D01*
X169704819Y-121416667D02*
X169704819Y-122035714D01*
X186168517Y-105581791D02*
X186155379Y-105647841D01*
X186155379Y-105647841D02*
X186195153Y-105793078D01*
X186195153Y-105793078D02*
X186248064Y-105872265D01*
X186248064Y-105872265D02*
X186367025Y-105964591D01*
X186367025Y-105964591D02*
X186499124Y-105990867D01*
X186499124Y-105990867D02*
X186604767Y-105977550D01*
X186604767Y-105977550D02*
X186789598Y-105911320D01*
X186789598Y-105911320D02*
X186908380Y-105831953D01*
X186908380Y-105831953D02*
X187040299Y-105686537D01*
X187040299Y-105686537D02*
X187093031Y-105594031D01*
X187093031Y-105594031D02*
X187119307Y-105461932D01*
X187119307Y-105461932D02*
X187079534Y-105316695D01*
X187079534Y-105316695D02*
X187026622Y-105237508D01*
X187026622Y-105237508D02*
X186907661Y-105145182D01*
X186907661Y-105145182D02*
X186841612Y-105132044D01*
X185560215Y-104842827D02*
X185877684Y-105317952D01*
X185718949Y-105080390D02*
X186550419Y-104524819D01*
X186550419Y-104524819D02*
X186484549Y-104683374D01*
X186484549Y-104683374D02*
X186458273Y-104815473D01*
X186458273Y-104815473D02*
X186471591Y-104921116D01*
X185638325Y-103759758D02*
X185084012Y-104130139D01*
X186087354Y-103746082D02*
X185625726Y-104340886D01*
X185625726Y-104340886D02*
X185281801Y-103826167D01*
X164666666Y-121204819D02*
X164999999Y-120728628D01*
X165238094Y-121204819D02*
X165238094Y-120204819D01*
X165238094Y-120204819D02*
X164857142Y-120204819D01*
X164857142Y-120204819D02*
X164761904Y-120252438D01*
X164761904Y-120252438D02*
X164714285Y-120300057D01*
X164714285Y-120300057D02*
X164666666Y-120395295D01*
X164666666Y-120395295D02*
X164666666Y-120538152D01*
X164666666Y-120538152D02*
X164714285Y-120633390D01*
X164714285Y-120633390D02*
X164761904Y-120681009D01*
X164761904Y-120681009D02*
X164857142Y-120728628D01*
X164857142Y-120728628D02*
X165238094Y-120728628D01*
X163809523Y-120538152D02*
X163809523Y-121204819D01*
X164047618Y-120157200D02*
X164285713Y-120871485D01*
X164285713Y-120871485D02*
X163666666Y-120871485D01*
X169684819Y-118133333D02*
X169208628Y-117800000D01*
X169684819Y-117561905D02*
X168684819Y-117561905D01*
X168684819Y-117561905D02*
X168684819Y-117942857D01*
X168684819Y-117942857D02*
X168732438Y-118038095D01*
X168732438Y-118038095D02*
X168780057Y-118085714D01*
X168780057Y-118085714D02*
X168875295Y-118133333D01*
X168875295Y-118133333D02*
X169018152Y-118133333D01*
X169018152Y-118133333D02*
X169113390Y-118085714D01*
X169113390Y-118085714D02*
X169161009Y-118038095D01*
X169161009Y-118038095D02*
X169208628Y-117942857D01*
X169208628Y-117942857D02*
X169208628Y-117561905D01*
X168684819Y-118466667D02*
X168684819Y-119085714D01*
X168684819Y-119085714D02*
X169065771Y-118752381D01*
X169065771Y-118752381D02*
X169065771Y-118895238D01*
X169065771Y-118895238D02*
X169113390Y-118990476D01*
X169113390Y-118990476D02*
X169161009Y-119038095D01*
X169161009Y-119038095D02*
X169256247Y-119085714D01*
X169256247Y-119085714D02*
X169494342Y-119085714D01*
X169494342Y-119085714D02*
X169589580Y-119038095D01*
X169589580Y-119038095D02*
X169637200Y-118990476D01*
X169637200Y-118990476D02*
X169684819Y-118895238D01*
X169684819Y-118895238D02*
X169684819Y-118609524D01*
X169684819Y-118609524D02*
X169637200Y-118514286D01*
X169637200Y-118514286D02*
X169589580Y-118466667D01*
D12*
%TO.C,D2*%
X157765000Y-127250000D02*
X157765000Y-124965000D01*
X159235000Y-124965000D02*
X159235000Y-127250000D01*
X157765000Y-124965000D02*
X159235000Y-124965000D01*
%TO.C,Y1*%
X162050000Y-126000000D02*
X159750000Y-126000000D01*
X159750000Y-126000000D02*
X159750000Y-123300000D01*
%TO.C,C38*%
X145540000Y-124259420D02*
X145540000Y-124540580D01*
X146560000Y-124259420D02*
X146560000Y-124540580D01*
%TO.C,C37*%
X162409420Y-127560000D02*
X162690580Y-127560000D01*
X162409420Y-126540000D02*
X162690580Y-126540000D01*
%TO.C,C36*%
X166660000Y-119790580D02*
X166660000Y-119509420D01*
X165640000Y-119790580D02*
X165640000Y-119509420D01*
%TO.C,C35*%
X148259420Y-112310000D02*
X148540580Y-112310000D01*
X148259420Y-111290000D02*
X148540580Y-111290000D01*
%TO.C,C34*%
X157859420Y-124360000D02*
X158140580Y-124360000D01*
X157859420Y-123340000D02*
X158140580Y-123340000D01*
%TO.C,C33*%
X162290580Y-121840000D02*
X162009420Y-121840000D01*
X162290580Y-122860000D02*
X162009420Y-122860000D01*
%TO.C,J4*%
X162090000Y-111290000D02*
X162090000Y-109965000D01*
X162155000Y-109965000D02*
X162090000Y-109965000D01*
X162155000Y-109965000D02*
X162155000Y-106435000D01*
X153210000Y-109965000D02*
X153145000Y-109965000D01*
X153145000Y-109965000D02*
X153145000Y-106435000D01*
X162155000Y-106435000D02*
X162090000Y-106435000D01*
X153210000Y-106435000D02*
X153145000Y-106435000D01*
%TO.C,C17*%
X190302500Y-125078080D02*
X190302500Y-124796920D01*
X191322500Y-125078080D02*
X191322500Y-124796920D01*
%TO.C,C16*%
X189659820Y-118396687D02*
X189604967Y-118120929D01*
X190660221Y-118197695D02*
X190605368Y-117921937D01*
D11*
%TO.C,J3*%
X165325000Y-134900000D02*
X157025000Y-134900000D01*
X165325000Y-135375000D02*
X165325000Y-134900000D01*
X165325000Y-137625000D02*
X165325000Y-138100000D01*
X165325000Y-138100000D02*
X157025000Y-138100000D01*
X163475000Y-134600000D02*
X161475000Y-134600000D01*
X157025000Y-134900000D02*
X157025000Y-135375000D01*
X157025000Y-138100000D02*
X157025000Y-137625000D01*
D12*
%TO.C,R1*%
X164127500Y-118362742D02*
X164127500Y-118837258D01*
X165172500Y-118362742D02*
X165172500Y-118837258D01*
%TO.C,C6*%
X136538016Y-95639002D02*
X136304239Y-95795206D01*
X137104697Y-96487102D02*
X136870920Y-96643306D01*
%TO.C,C15*%
X188668372Y-111578720D02*
X188560776Y-111318962D01*
X187726014Y-111969056D02*
X187618418Y-111709298D01*
%TO.C,C5*%
X131185127Y-100012204D02*
X130986316Y-100211015D01*
X131906376Y-100733453D02*
X131707565Y-100932264D01*
%TO.C,C11*%
X169628052Y-92453887D02*
X169368294Y-92346291D01*
X169237716Y-93396245D02*
X168977958Y-93288649D01*
%TO.C,C22*%
X175586983Y-154360997D02*
X175820760Y-154204793D01*
X175020302Y-153512897D02*
X175254079Y-153356693D01*
%TO.C,C27*%
X142496947Y-157546112D02*
X142756705Y-157653708D01*
X142887283Y-156603754D02*
X143147041Y-156711350D01*
%TO.C,C4*%
X126788260Y-105345672D02*
X126632056Y-105579449D01*
X127636360Y-105912353D02*
X127480156Y-106146130D01*
%TO.C,U3*%
X159115000Y-128540000D02*
X158880000Y-128540000D01*
X163860000Y-128540000D02*
X163385000Y-128540000D01*
X158640000Y-129015000D02*
X158640000Y-128840000D01*
X163860000Y-129015000D02*
X163860000Y-128540000D01*
X158640000Y-133285000D02*
X158640000Y-133760000D01*
X163860000Y-133285000D02*
X163860000Y-133760000D01*
X158640000Y-133760000D02*
X159115000Y-133760000D01*
X163860000Y-133760000D02*
X163385000Y-133760000D01*
X158640000Y-128540000D02*
X158310000Y-128780000D01*
X158310000Y-128300000D01*
X158640000Y-128540000D01*
G36*
X158640000Y-128540000D02*
G01*
X158310000Y-128780000D01*
X158310000Y-128300000D01*
X158640000Y-128540000D01*
G37*
%TO.C,R9*%
X157522500Y-121624758D02*
X157522500Y-121150242D01*
X156477500Y-121624758D02*
X156477500Y-121150242D01*
%TO.C,R8*%
X160762742Y-118522500D02*
X161237258Y-118522500D01*
X160762742Y-117477500D02*
X161237258Y-117477500D01*
%TO.C,C31*%
X123456627Y-138421279D02*
X123564223Y-138681037D01*
X124398985Y-138030943D02*
X124506581Y-138290701D01*
%TO.C,J2*%
X165080000Y-141580000D02*
X165080000Y-140250000D01*
X163750000Y-141580000D02*
X165080000Y-141580000D01*
X162480000Y-141580000D02*
X154800000Y-141580000D01*
X162480000Y-141580000D02*
X162480000Y-138920000D01*
X154800000Y-141580000D02*
X154800000Y-138920000D01*
X162480000Y-138920000D02*
X154800000Y-138920000D01*
%TO.C,C18*%
X190629754Y-131955464D02*
X190684607Y-131679706D01*
X189629353Y-131756472D02*
X189684206Y-131480714D01*
%TO.C,C9*%
X156140580Y-89740000D02*
X155859420Y-89740000D01*
X156140580Y-90760000D02*
X155859420Y-90760000D01*
%TO.C,R6*%
X156012742Y-126022500D02*
X156487258Y-126022500D01*
X156012742Y-124977500D02*
X156487258Y-124977500D01*
%TO.C,C1*%
X120802500Y-124921919D02*
X120802500Y-125203079D01*
X121822500Y-124921919D02*
X121822500Y-125203079D01*
%TO.C,U1*%
X159552500Y-121620000D02*
X159272500Y-121340000D01*
X159552500Y-121340000D01*
X159552500Y-121620000D01*
G36*
X159552500Y-121620000D02*
G01*
X159272500Y-121340000D01*
X159552500Y-121340000D01*
X159552500Y-121620000D01*
G37*
X160062500Y-119140000D02*
X163062500Y-119140000D01*
X160062500Y-121360000D02*
X163062500Y-121360000D01*
%TO.C,C2*%
X121495245Y-118044535D02*
X121440392Y-118320293D01*
X122495646Y-118243527D02*
X122440793Y-118519285D01*
%TO.C,U4*%
X146640000Y-121360000D02*
X146640000Y-120910000D01*
X146640000Y-114140000D02*
X146640000Y-114590000D01*
X147090000Y-121360000D02*
X146640000Y-121360000D01*
X147090000Y-114140000D02*
X146640000Y-114140000D01*
X153410000Y-121360000D02*
X153860000Y-121360000D01*
X153410000Y-114140000D02*
X153860000Y-114140000D01*
X153860000Y-121360000D02*
X153860000Y-120910000D01*
X153860000Y-114140000D02*
X153860000Y-114590000D01*
X146390000Y-121380000D02*
X145710000Y-121380000D01*
X146050000Y-120910000D01*
X146390000Y-121380000D01*
G36*
X146390000Y-121380000D02*
G01*
X145710000Y-121380000D01*
X146050000Y-120910000D01*
X146390000Y-121380000D01*
G37*
%TO.C,C25*%
X155984419Y-160260000D02*
X156265579Y-160260000D01*
X155984419Y-159240000D02*
X156265579Y-159240000D01*
%TO.C,C32*%
X121464778Y-131802304D02*
X121519631Y-132078062D01*
X122465179Y-131603312D02*
X122520032Y-131879070D01*
%TO.C,R10*%
X151237258Y-123227500D02*
X150762742Y-123227500D01*
X151237258Y-124272500D02*
X150762742Y-124272500D01*
%TO.C,C26*%
X149107035Y-159567254D02*
X149382793Y-159622107D01*
X149306027Y-158566853D02*
X149581785Y-158621706D01*
%TO.C,C19*%
X188608612Y-138565552D02*
X188716208Y-138305794D01*
X187666254Y-138175216D02*
X187773850Y-137915458D01*
%TO.C,C21*%
X180939872Y-149987795D02*
X181138683Y-149788984D01*
X180218623Y-149266546D02*
X180417434Y-149067735D01*
%TO.C,C8*%
X149260195Y-90402278D02*
X148984437Y-90457131D01*
X149459187Y-91402679D02*
X149183429Y-91457532D01*
%TO.C,D1*%
X165235000Y-123265000D02*
X165235000Y-124735000D01*
X165235000Y-124735000D02*
X162950000Y-124735000D01*
X162950000Y-123265000D02*
X165235000Y-123265000D01*
%TO.C,C24*%
X162864804Y-159597721D02*
X163140562Y-159542868D01*
X162665812Y-158597320D02*
X162941570Y-158542467D01*
%TO.C,C13*%
X181050295Y-100122627D02*
X180851484Y-99923816D01*
X180329046Y-100843876D02*
X180130235Y-100645065D01*
%TO.C,C12*%
X175716827Y-95725760D02*
X175483050Y-95569556D01*
X175150146Y-96573860D02*
X174916369Y-96417656D01*
%TO.C,C10*%
X163017964Y-90432745D02*
X162742206Y-90377892D01*
X162818972Y-91433146D02*
X162543214Y-91378293D01*
%TO.C,C30*%
X126701502Y-144524483D02*
X126857706Y-144758260D01*
X127549602Y-143957802D02*
X127705806Y-144191579D01*
%TO.C,C3*%
X123516387Y-111434447D02*
X123408791Y-111694205D01*
X124458745Y-111824783D02*
X124351149Y-112084541D01*
%TO.C,C20*%
X185336739Y-144654327D02*
X185492943Y-144420550D01*
X184488639Y-144087646D02*
X184644843Y-143853869D01*
%TO.C,C28*%
X136408172Y-154274239D02*
X136641949Y-154430443D01*
X136974853Y-153426139D02*
X137208630Y-153582343D01*
%TO.C,U2*%
X146640000Y-133360000D02*
X146640000Y-132910000D01*
X146640000Y-126140000D02*
X146640000Y-126590000D01*
X147090000Y-133360000D02*
X146640000Y-133360000D01*
X147090000Y-126140000D02*
X146640000Y-126140000D01*
X153410000Y-133360000D02*
X153860000Y-133360000D01*
X153410000Y-126140000D02*
X153860000Y-126140000D01*
X153860000Y-133360000D02*
X153860000Y-132910000D01*
X153860000Y-126140000D02*
X153860000Y-126590000D01*
X146390000Y-133380000D02*
X145710000Y-133380000D01*
X146050000Y-132910000D01*
X146390000Y-133380000D01*
G36*
X146390000Y-133380000D02*
G01*
X145710000Y-133380000D01*
X146050000Y-132910000D01*
X146390000Y-133380000D01*
G37*
%TO.C,R7*%
X157977500Y-121150242D02*
X157977500Y-121624758D01*
X159022500Y-121150242D02*
X159022500Y-121624758D01*
%TO.C,C7*%
X142641220Y-92394127D02*
X142381462Y-92501723D01*
X143031556Y-93336485D02*
X142771798Y-93444081D01*
%TO.C,R5*%
X165322500Y-126537258D02*
X165322500Y-126062742D01*
X164277500Y-126537258D02*
X164277500Y-126062742D01*
%TO.C,C29*%
X131074704Y-149877372D02*
X131273515Y-150076183D01*
X131795953Y-149156123D02*
X131994764Y-149354934D01*
%TO.C,C23*%
X169483779Y-157605872D02*
X169743537Y-157498276D01*
X169093443Y-156663514D02*
X169353201Y-156555918D01*
%TO.C,R2*%
X167277500Y-121112742D02*
X167277500Y-121587258D01*
X168322500Y-121112742D02*
X168322500Y-121587258D01*
%TO.C,C14*%
X185423497Y-105475516D02*
X185267293Y-105241739D01*
X184575397Y-106042197D02*
X184419193Y-105808420D01*
%TO.C,R4*%
X165012742Y-122522500D02*
X165487258Y-122522500D01*
X165012742Y-121477500D02*
X165487258Y-121477500D01*
%TO.C,J1*%
X159895000Y-113170000D02*
X159895000Y-114500000D01*
X161225000Y-113170000D02*
X159895000Y-113170000D01*
X162495000Y-113170000D02*
X165095000Y-113170000D01*
X162495000Y-113170000D02*
X162495000Y-115830000D01*
X165095000Y-113170000D02*
X165095000Y-115830000D01*
X162495000Y-115830000D02*
X165095000Y-115830000D01*
%TO.C,R3*%
X168322500Y-118537258D02*
X168322500Y-118062742D01*
X167277500Y-118537258D02*
X167277500Y-118062742D01*
%TD*%
M02*
