%TF.GenerationSoftware,KiCad,Pcbnew,9.0.4-9.0.4-0~ubuntu22.04.1*%
%TF.CreationDate,2025-09-26T09:18:54-04:00*%
%TF.ProjectId,shimarray,7368696d-6172-4726-9179-2e6b69636164,rev?*%
%TF.SameCoordinates,Original*%
%TF.FileFunction,Soldermask,Top*%
%TF.FilePolarity,Negative*%
%FSLAX46Y46*%
G04 Gerber Fmt 4.6, Leading zero omitted, Abs format (unit mm)*
G04 Created by KiCad (PCBNEW 9.0.4-9.0.4-0~ubuntu22.04.1) date 2025-09-26 09:18:54*
%MOMM*%
%LPD*%
G01*
G04 APERTURE LIST*
G04 Aperture macros list*
%AMRoundRect*
0 Rectangle with rounded corners*
0 $1 Rounding radius*
0 $2 $3 $4 $5 $6 $7 $8 $9 X,Y pos of 4 corners*
0 Add a 4 corners polygon primitive as box body*
4,1,4,$2,$3,$4,$5,$6,$7,$8,$9,$2,$3,0*
0 Add four circle primitives for the rounded corners*
1,1,$1+$1,$2,$3*
1,1,$1+$1,$4,$5*
1,1,$1+$1,$6,$7*
1,1,$1+$1,$8,$9*
0 Add four rect primitives between the rounded corners*
20,1,$1+$1,$2,$3,$4,$5,0*
20,1,$1+$1,$4,$5,$6,$7,0*
20,1,$1+$1,$6,$7,$8,$9,0*
20,1,$1+$1,$8,$9,$2,$3,0*%
G04 Aperture macros list end*
%ADD10C,0.900000*%
%ADD11RoundRect,0.140000X0.140000X0.170000X-0.140000X0.170000X-0.140000X-0.170000X0.140000X-0.170000X0*%
%ADD12RoundRect,0.140000X-0.170000X0.140000X-0.170000X-0.140000X0.170000X-0.140000X0.170000X0.140000X0*%
%ADD13R,0.500000X0.800000*%
%ADD14R,0.230000X0.250000*%
%ADD15R,0.450000X0.300000*%
%ADD16R,0.250000X0.230000*%
%ADD17R,0.300000X0.450000*%
%ADD18RoundRect,0.150000X0.825000X0.150000X-0.825000X0.150000X-0.825000X-0.150000X0.825000X-0.150000X0*%
%ADD19RoundRect,0.135000X-0.135000X-0.185000X0.135000X-0.185000X0.135000X0.185000X-0.135000X0.185000X0*%
%ADD20RoundRect,0.150000X-0.825000X-0.150000X0.825000X-0.150000X0.825000X0.150000X-0.825000X0.150000X0*%
%ADD21RoundRect,0.218750X0.218750X0.256250X-0.218750X0.256250X-0.218750X-0.256250X0.218750X-0.256250X0*%
%ADD22RoundRect,0.135000X0.185000X-0.135000X0.185000X0.135000X-0.185000X0.135000X-0.185000X-0.135000X0*%
%ADD23R,2.159000X1.397000*%
%ADD24R,1.397000X2.159000*%
%ADD25RoundRect,0.140000X-0.140000X-0.170000X0.140000X-0.170000X0.140000X0.170000X-0.140000X0.170000X0*%
%ADD26RoundRect,0.250000X0.450000X0.350000X-0.450000X0.350000X-0.450000X-0.350000X0.450000X-0.350000X0*%
%ADD27RoundRect,0.075000X0.725000X0.075000X-0.725000X0.075000X-0.725000X-0.075000X0.725000X-0.075000X0*%
%ADD28RoundRect,0.075000X0.075000X0.725000X-0.075000X0.725000X-0.075000X-0.725000X0.075000X-0.725000X0*%
%ADD29C,1.440000*%
%ADD30R,1.000000X1.000000*%
%ADD31C,1.000000*%
%ADD32RoundRect,0.250000X1.050000X-1.050000X1.050000X1.050000X-1.050000X1.050000X-1.050000X-1.050000X0*%
%ADD33C,2.600000*%
G04 APERTURE END LIST*
D10*
%TO.C,J3*%
X108525000Y-202200000D03*
X108525000Y-197800000D03*
%TD*%
D11*
%TO.C,C106*%
X199980000Y-140500000D03*
X199020000Y-140500000D03*
%TD*%
D12*
%TO.C,C121*%
X171000000Y-148020001D03*
X171000000Y-148980001D03*
%TD*%
D13*
%TO.C,RN6*%
X179500000Y-190600000D03*
X178500000Y-190600000D03*
X178500000Y-192400000D03*
X179500000Y-192400000D03*
%TD*%
D14*
%TO.C,Q215*%
X167350000Y-160832500D03*
X167000000Y-160832500D03*
X166650000Y-161667500D03*
X167000000Y-161667500D03*
X166650000Y-160832500D03*
D15*
X166625000Y-161250000D03*
D14*
X167350000Y-161667500D03*
D15*
X167375000Y-161250000D03*
%TD*%
D14*
%TO.C,Q208*%
X155150000Y-162417500D03*
X155500000Y-162417500D03*
X155850000Y-161582500D03*
X155500000Y-161582500D03*
X155850000Y-162417500D03*
D15*
X155875000Y-162000000D03*
D14*
X155150000Y-161582500D03*
D15*
X155125000Y-162000000D03*
%TD*%
D16*
%TO.C,Q278*%
X192917500Y-179850000D03*
X192917500Y-179500000D03*
X192082500Y-179150000D03*
X192082500Y-179500000D03*
X192917500Y-179150000D03*
D17*
X192500000Y-179125000D03*
D16*
X192082500Y-179850000D03*
D17*
X192500000Y-179875000D03*
%TD*%
D14*
%TO.C,Q156*%
X161650000Y-155917500D03*
X162000000Y-155917500D03*
X162350000Y-155082500D03*
X162000000Y-155082500D03*
X162350000Y-155917500D03*
D15*
X162375000Y-155500000D03*
D14*
X161650000Y-155082500D03*
D15*
X161625000Y-155500000D03*
%TD*%
D11*
%TO.C,C176*%
X167480000Y-173000000D03*
X166520000Y-173000000D03*
%TD*%
D18*
%TO.C,U30*%
X131189284Y-112405000D03*
X131189284Y-111135000D03*
X131189284Y-109865000D03*
X131189284Y-108595000D03*
X126239284Y-108595000D03*
X126239284Y-109865000D03*
X126239284Y-111135000D03*
X126239284Y-112405000D03*
%TD*%
D14*
%TO.C,Q52*%
X148650000Y-129917500D03*
X149000000Y-129917500D03*
X149350000Y-129082500D03*
X149000000Y-129082500D03*
X149350000Y-129917500D03*
D15*
X149375000Y-129500000D03*
D14*
X148650000Y-129082500D03*
D15*
X148625000Y-129500000D03*
%TD*%
D12*
%TO.C,C139*%
X138500000Y-167520001D03*
X138500000Y-168480001D03*
%TD*%
D14*
%TO.C,Q255*%
X154350000Y-173832500D03*
X154000000Y-173832500D03*
X153650000Y-174667500D03*
X154000000Y-174667500D03*
X153650000Y-173832500D03*
D15*
X153625000Y-174250000D03*
D14*
X154350000Y-174667500D03*
D15*
X154375000Y-174250000D03*
%TD*%
D14*
%TO.C,Q187*%
X212850000Y-154332500D03*
X212500000Y-154332500D03*
X212150000Y-155167500D03*
X212500000Y-155167500D03*
X212150000Y-154332500D03*
D15*
X212125000Y-154750000D03*
D14*
X212850000Y-155167500D03*
D15*
X212875000Y-154750000D03*
%TD*%
D16*
%TO.C,Q77*%
X178332500Y-128650001D03*
X178332500Y-129000001D03*
X179167500Y-129350001D03*
X179167500Y-129000001D03*
X178332500Y-129350001D03*
D17*
X178750000Y-129375001D03*
D16*
X179167500Y-128650001D03*
D17*
X178750000Y-128625001D03*
%TD*%
D14*
%TO.C,Q104*%
X142150000Y-136417500D03*
X142500000Y-136417500D03*
X142850000Y-135582500D03*
X142500000Y-135582500D03*
X142850000Y-136417500D03*
D15*
X142875000Y-136000000D03*
D14*
X142150000Y-135582500D03*
D15*
X142125000Y-136000000D03*
%TD*%
D16*
%TO.C,Q225*%
X197832500Y-161150001D03*
X197832500Y-161500001D03*
X198667500Y-161850001D03*
X198667500Y-161500001D03*
X197832500Y-161850001D03*
D17*
X198250000Y-161875001D03*
D16*
X198667500Y-161150001D03*
D17*
X198250000Y-161125001D03*
%TD*%
D16*
%TO.C,Q5*%
X139332500Y-115650001D03*
X139332500Y-116000001D03*
X140167500Y-116350001D03*
X140167500Y-116000001D03*
X139332500Y-116350001D03*
D17*
X139750000Y-116375001D03*
D16*
X140167500Y-115650001D03*
D17*
X139750000Y-115625001D03*
%TD*%
D16*
%TO.C,Q57*%
X158832500Y-122150001D03*
X158832500Y-122500001D03*
X159667500Y-122850001D03*
X159667500Y-122500001D03*
X158832500Y-122850001D03*
D17*
X159250000Y-122875001D03*
D16*
X159667500Y-122150001D03*
D17*
X159250000Y-122125001D03*
%TD*%
D16*
%TO.C,Q66*%
X173417500Y-121350000D03*
X173417500Y-121000000D03*
X172582500Y-120650000D03*
X172582500Y-121000000D03*
X173417500Y-120650000D03*
D17*
X173000000Y-120625000D03*
D16*
X172582500Y-121350000D03*
D17*
X173000000Y-121375000D03*
%TD*%
D16*
%TO.C,Q158*%
X153917500Y-153850000D03*
X153917500Y-153500000D03*
X153082500Y-153150000D03*
X153082500Y-153500000D03*
X153917500Y-153150000D03*
D17*
X153500000Y-153125000D03*
D16*
X153082500Y-153850000D03*
D17*
X153500000Y-153875000D03*
%TD*%
D18*
%TO.C,U25*%
X131189284Y-177405000D03*
X131189284Y-176135000D03*
X131189284Y-174865000D03*
X131189284Y-173595000D03*
X126239284Y-173595000D03*
X126239284Y-174865000D03*
X126239284Y-176135000D03*
X126239284Y-177405000D03*
%TD*%
D16*
%TO.C,Q81*%
X197832500Y-122150001D03*
X197832500Y-122500001D03*
X198667500Y-122850001D03*
X198667500Y-122500001D03*
X197832500Y-122850001D03*
D17*
X198250000Y-122875001D03*
D16*
X198667500Y-122150001D03*
D17*
X198250000Y-122125001D03*
%TD*%
D12*
%TO.C,C107*%
X190500000Y-141520001D03*
X190500000Y-142480001D03*
%TD*%
D14*
%TO.C,Q179*%
X199850000Y-154332500D03*
X199500000Y-154332500D03*
X199150000Y-155167500D03*
X199500000Y-155167500D03*
X199150000Y-154332500D03*
D15*
X199125000Y-154750000D03*
D14*
X199850000Y-155167500D03*
D15*
X199875000Y-154750000D03*
%TD*%
D12*
%TO.C,C87*%
X203500000Y-128520001D03*
X203500000Y-129480001D03*
%TD*%
D16*
%TO.C,Q126*%
X179917500Y-140850000D03*
X179917500Y-140500000D03*
X179082500Y-140150000D03*
X179082500Y-140500000D03*
X179917500Y-140150000D03*
D17*
X179500000Y-140125000D03*
D16*
X179082500Y-140850000D03*
D17*
X179500000Y-140875000D03*
%TD*%
D14*
%TO.C,Q135*%
X193350000Y-134832500D03*
X193000000Y-134832500D03*
X192650000Y-135667500D03*
X193000000Y-135667500D03*
X192650000Y-134832500D03*
D15*
X192625000Y-135250000D03*
D14*
X193350000Y-135667500D03*
D15*
X193375000Y-135250000D03*
%TD*%
D19*
%TO.C,R1*%
X140990000Y-200000000D03*
X142010000Y-200000000D03*
%TD*%
D14*
%TO.C,Q151*%
X141350000Y-147832500D03*
X141000000Y-147832500D03*
X140650000Y-148667500D03*
X141000000Y-148667500D03*
X140650000Y-147832500D03*
D15*
X140625000Y-148250000D03*
D14*
X141350000Y-148667500D03*
D15*
X141375000Y-148250000D03*
%TD*%
D13*
%TO.C,RN3*%
X163500000Y-190600000D03*
X162500000Y-190600000D03*
X162500000Y-192400000D03*
X163500000Y-192400000D03*
%TD*%
D12*
%TO.C,C85*%
X210000000Y-122020001D03*
X210000000Y-122980001D03*
%TD*%
D14*
%TO.C,Q11*%
X160850000Y-115332500D03*
X160500000Y-115332500D03*
X160150000Y-116167500D03*
X160500000Y-116167500D03*
X160150000Y-115332500D03*
D15*
X160125000Y-115750000D03*
D14*
X160850000Y-116167500D03*
D15*
X160875000Y-115750000D03*
%TD*%
D16*
%TO.C,Q150*%
X140917500Y-153850000D03*
X140917500Y-153500000D03*
X140082500Y-153150000D03*
X140082500Y-153500000D03*
X140917500Y-153150000D03*
D17*
X140500000Y-153125000D03*
D16*
X140082500Y-153850000D03*
D17*
X140500000Y-153875000D03*
%TD*%
D14*
%TO.C,Q60*%
X161650000Y-129917500D03*
X162000000Y-129917500D03*
X162350000Y-129082500D03*
X162000000Y-129082500D03*
X162350000Y-129917500D03*
D15*
X162375000Y-129500000D03*
D14*
X161650000Y-129082500D03*
D15*
X161625000Y-129500000D03*
%TD*%
D11*
%TO.C,C148*%
X167480000Y-160000000D03*
X166520000Y-160000000D03*
%TD*%
D20*
%TO.C,U7*%
X207525000Y-189595000D03*
X207525000Y-190865000D03*
X207525000Y-192135000D03*
X207525000Y-193405000D03*
X212475000Y-193405000D03*
X212475000Y-192135000D03*
X212475000Y-190865000D03*
X212475000Y-189595000D03*
%TD*%
D14*
%TO.C,Q21*%
X167350000Y-108832500D03*
X167000000Y-108832500D03*
X166650000Y-109667500D03*
X167000000Y-109667500D03*
X166650000Y-108832500D03*
D15*
X166625000Y-109250000D03*
D14*
X167350000Y-109667500D03*
D15*
X167375000Y-109250000D03*
%TD*%
D16*
%TO.C,Q237*%
X204332500Y-167650001D03*
X204332500Y-168000001D03*
X205167500Y-168350001D03*
X205167500Y-168000001D03*
X204332500Y-168350001D03*
D17*
X204750000Y-168375001D03*
D16*
X205167500Y-167650001D03*
D17*
X204750000Y-167625001D03*
%TD*%
D16*
%TO.C,Q222*%
X179917500Y-166850000D03*
X179917500Y-166500000D03*
X179082500Y-166150000D03*
X179082500Y-166500000D03*
X179917500Y-166150000D03*
D17*
X179500000Y-166125000D03*
D16*
X179082500Y-166850000D03*
D17*
X179500000Y-166875000D03*
%TD*%
D14*
%TO.C,Q136*%
X194150000Y-136417500D03*
X194500000Y-136417500D03*
X194850000Y-135582500D03*
X194500000Y-135582500D03*
X194850000Y-136417500D03*
D15*
X194875000Y-136000000D03*
D14*
X194150000Y-135582500D03*
D15*
X194125000Y-136000000D03*
%TD*%
D16*
%TO.C,Q6*%
X140917500Y-114850000D03*
X140917500Y-114500000D03*
X140082500Y-114150000D03*
X140082500Y-114500000D03*
X140917500Y-114150000D03*
D17*
X140500000Y-114125000D03*
D16*
X140082500Y-114850000D03*
D17*
X140500000Y-114875000D03*
%TD*%
D11*
%TO.C,C17*%
X134194284Y-163500000D03*
X133234284Y-163500000D03*
%TD*%
D21*
%TO.C,D2*%
X139787500Y-198000000D03*
X138212500Y-198000000D03*
%TD*%
D16*
%TO.C,Q114*%
X173417500Y-134350000D03*
X173417500Y-134000000D03*
X172582500Y-133650000D03*
X172582500Y-134000000D03*
X173417500Y-133650000D03*
D17*
X173000000Y-133625000D03*
D16*
X172582500Y-134350000D03*
D17*
X173000000Y-134375000D03*
%TD*%
D14*
%TO.C,Q227*%
X199850000Y-167332500D03*
X199500000Y-167332500D03*
X199150000Y-168167500D03*
X199500000Y-168167500D03*
X199150000Y-167332500D03*
D15*
X199125000Y-167750000D03*
D14*
X199850000Y-168167500D03*
D15*
X199875000Y-167750000D03*
%TD*%
D16*
%TO.C,Q141*%
X204332500Y-141650001D03*
X204332500Y-142000001D03*
X205167500Y-142350001D03*
X205167500Y-142000001D03*
X204332500Y-142350001D03*
D17*
X204750000Y-142375001D03*
D16*
X205167500Y-141650001D03*
D17*
X204750000Y-141625001D03*
%TD*%
D14*
%TO.C,Q231*%
X193350000Y-160832500D03*
X193000000Y-160832500D03*
X192650000Y-161667500D03*
X193000000Y-161667500D03*
X192650000Y-160832500D03*
D15*
X192625000Y-161250000D03*
D14*
X193350000Y-161667500D03*
D15*
X193375000Y-161250000D03*
%TD*%
D11*
%TO.C,C86*%
X212980000Y-127500000D03*
X212020000Y-127500000D03*
%TD*%
D16*
%TO.C,Q13*%
X152332500Y-115650001D03*
X152332500Y-116000001D03*
X153167500Y-116350001D03*
X153167500Y-116000001D03*
X152332500Y-116350001D03*
D17*
X152750000Y-116375001D03*
D16*
X153167500Y-115650001D03*
D17*
X152750000Y-115625001D03*
%TD*%
D14*
%TO.C,Q223*%
X180350000Y-160832500D03*
X180000000Y-160832500D03*
X179650000Y-161667500D03*
X180000000Y-161667500D03*
X179650000Y-160832500D03*
D15*
X179625000Y-161250000D03*
D14*
X180350000Y-161667500D03*
D15*
X180375000Y-161250000D03*
%TD*%
D14*
%TO.C,Q188*%
X213650000Y-155917500D03*
X214000000Y-155917500D03*
X214350000Y-155082500D03*
X214000000Y-155082500D03*
X214350000Y-155917500D03*
D15*
X214375000Y-155500000D03*
D14*
X213650000Y-155082500D03*
D15*
X213625000Y-155500000D03*
%TD*%
D14*
%TO.C,Q280*%
X194150000Y-175417500D03*
X194500000Y-175417500D03*
X194850000Y-174582500D03*
X194500000Y-174582500D03*
X194850000Y-175417500D03*
D15*
X194875000Y-175000000D03*
D14*
X194150000Y-174582500D03*
D15*
X194125000Y-175000000D03*
%TD*%
D14*
%TO.C,Q26*%
X187650000Y-116917500D03*
X188000000Y-116917500D03*
X188350000Y-116082500D03*
X188000000Y-116082500D03*
X188350000Y-116917500D03*
D15*
X188375000Y-116500000D03*
D14*
X187650000Y-116082500D03*
D15*
X187625000Y-116500000D03*
%TD*%
D14*
%TO.C,Q12*%
X161650000Y-116917500D03*
X162000000Y-116917500D03*
X162350000Y-116082500D03*
X162000000Y-116082500D03*
X162350000Y-116917500D03*
D15*
X162375000Y-116500000D03*
D14*
X161650000Y-116082500D03*
D15*
X161625000Y-116500000D03*
%TD*%
D11*
%TO.C,C174*%
X173980000Y-179500000D03*
X173020000Y-179500000D03*
%TD*%
D14*
%TO.C,Q288*%
X207150000Y-175417500D03*
X207500000Y-175417500D03*
X207850000Y-174582500D03*
X207500000Y-174582500D03*
X207850000Y-175417500D03*
D15*
X207875000Y-175000000D03*
D14*
X207150000Y-174582500D03*
D15*
X207125000Y-175000000D03*
%TD*%
D16*
%TO.C,Q274*%
X199417500Y-173350000D03*
X199417500Y-173000000D03*
X198582500Y-172650000D03*
X198582500Y-173000000D03*
X199417500Y-172650000D03*
D17*
X199000000Y-172625000D03*
D16*
X198582500Y-173350000D03*
D17*
X199000000Y-173375000D03*
%TD*%
D14*
%TO.C,Q34*%
X200650000Y-116917500D03*
X201000000Y-116917500D03*
X201350000Y-116082500D03*
X201000000Y-116082500D03*
X201350000Y-116917500D03*
D15*
X201375000Y-116500000D03*
D14*
X200650000Y-116082500D03*
D15*
X200625000Y-116500000D03*
%TD*%
D11*
%TO.C,C170*%
X160980000Y-179500000D03*
X160020000Y-179500000D03*
%TD*%
D14*
%TO.C,Q287*%
X206350000Y-173832500D03*
X206000000Y-173832500D03*
X205650000Y-174667500D03*
X206000000Y-174667500D03*
X205650000Y-173832500D03*
D15*
X205625000Y-174250000D03*
D14*
X206350000Y-174667500D03*
D15*
X206375000Y-174250000D03*
%TD*%
D14*
%TO.C,Q167*%
X167350000Y-147832500D03*
X167000000Y-147832500D03*
X166650000Y-148667500D03*
X167000000Y-148667500D03*
X166650000Y-147832500D03*
D15*
X166625000Y-148250000D03*
D14*
X167350000Y-148667500D03*
D15*
X167375000Y-148250000D03*
%TD*%
D14*
%TO.C,Q25*%
X186850000Y-115332500D03*
X186500000Y-115332500D03*
X186150000Y-116167500D03*
X186500000Y-116167500D03*
X186150000Y-115332500D03*
D15*
X186125000Y-115750000D03*
D14*
X186850000Y-116167500D03*
D15*
X186875000Y-115750000D03*
%TD*%
D11*
%TO.C,C172*%
X154480000Y-173000000D03*
X153520000Y-173000000D03*
%TD*%
D16*
%TO.C,Q182*%
X192917500Y-153850000D03*
X192917500Y-153500000D03*
X192082500Y-153150000D03*
X192082500Y-153500000D03*
X192917500Y-153150000D03*
D17*
X192500000Y-153125000D03*
D16*
X192082500Y-153850000D03*
D17*
X192500000Y-153875000D03*
%TD*%
D14*
%TO.C,Q152*%
X142150000Y-149417500D03*
X142500000Y-149417500D03*
X142850000Y-148582500D03*
X142500000Y-148582500D03*
X142850000Y-149417500D03*
D15*
X142875000Y-149000000D03*
D14*
X142150000Y-148582500D03*
D15*
X142125000Y-149000000D03*
%TD*%
D18*
%TO.C,U24*%
X122189284Y-177405000D03*
X122189284Y-176135000D03*
X122189284Y-174865000D03*
X122189284Y-173595000D03*
X117239284Y-173595000D03*
X117239284Y-174865000D03*
X117239284Y-176135000D03*
X117239284Y-177405000D03*
%TD*%
D11*
%TO.C,C88*%
X206480000Y-121000000D03*
X205520000Y-121000000D03*
%TD*%
D16*
%TO.C,Q238*%
X205917500Y-166850000D03*
X205917500Y-166500000D03*
X205082500Y-166150000D03*
X205082500Y-166500000D03*
X205917500Y-166150000D03*
D17*
X205500000Y-166125000D03*
D16*
X205082500Y-166850000D03*
D17*
X205500000Y-166875000D03*
%TD*%
D14*
%TO.C,Q211*%
X173850000Y-167332500D03*
X173500000Y-167332500D03*
X173150000Y-168167500D03*
X173500000Y-168167500D03*
X173150000Y-167332500D03*
D15*
X173125000Y-167750000D03*
D14*
X173850000Y-168167500D03*
D15*
X173875000Y-167750000D03*
%TD*%
D21*
%TO.C,D1*%
X139787500Y-200000000D03*
X138212500Y-200000000D03*
%TD*%
D22*
%TO.C,R47*%
X124214284Y-112510000D03*
X124214284Y-111490000D03*
%TD*%
D12*
%TO.C,C91*%
X138500000Y-141520001D03*
X138500000Y-142480001D03*
%TD*%
%TO.C,C79*%
X177500000Y-128520001D03*
X177500000Y-129480001D03*
%TD*%
D14*
%TO.C,Q76*%
X187650000Y-129917500D03*
X188000000Y-129917500D03*
X188350000Y-129082500D03*
X188000000Y-129082500D03*
X188350000Y-129917500D03*
D15*
X188375000Y-129500000D03*
D14*
X187650000Y-129082500D03*
D15*
X187625000Y-129500000D03*
%TD*%
D14*
%TO.C,Q248*%
X142150000Y-175417500D03*
X142500000Y-175417500D03*
X142850000Y-174582500D03*
X142500000Y-174582500D03*
X142850000Y-175417500D03*
D15*
X142875000Y-175000000D03*
D14*
X142150000Y-174582500D03*
D15*
X142125000Y-175000000D03*
%TD*%
D11*
%TO.C,C140*%
X141480000Y-160000000D03*
X140520000Y-160000000D03*
%TD*%
D12*
%TO.C,C179*%
X177500000Y-180520001D03*
X177500000Y-181480001D03*
%TD*%
D16*
%TO.C,Q54*%
X140917500Y-127850000D03*
X140917500Y-127500000D03*
X140082500Y-127150000D03*
X140082500Y-127500000D03*
X140917500Y-127150000D03*
D17*
X140500000Y-127125000D03*
D16*
X140082500Y-127850000D03*
D17*
X140500000Y-127875000D03*
%TD*%
D16*
%TO.C,Q269*%
X178332500Y-180650001D03*
X178332500Y-181000001D03*
X179167500Y-181350001D03*
X179167500Y-181000001D03*
X178332500Y-181350001D03*
D17*
X178750000Y-181375001D03*
D16*
X179167500Y-180650001D03*
D17*
X178750000Y-180625001D03*
%TD*%
D12*
%TO.C,C28*%
X171000000Y-109020001D03*
X171000000Y-109980001D03*
%TD*%
D16*
%TO.C,Q89*%
X210832500Y-122150001D03*
X210832500Y-122500001D03*
X211667500Y-122850001D03*
X211667500Y-122500001D03*
X210832500Y-122850001D03*
D17*
X211250000Y-122875001D03*
D16*
X211667500Y-122150001D03*
D17*
X211250000Y-122125001D03*
%TD*%
D18*
%TO.C,U23*%
X131189284Y-170905000D03*
X131189284Y-169635000D03*
X131189284Y-168365000D03*
X131189284Y-167095000D03*
X126239284Y-167095000D03*
X126239284Y-168365000D03*
X126239284Y-169635000D03*
X126239284Y-170905000D03*
%TD*%
D16*
%TO.C,Q69*%
X165332500Y-128650001D03*
X165332500Y-129000001D03*
X166167500Y-129350001D03*
X166167500Y-129000001D03*
X165332500Y-129350001D03*
D17*
X165750000Y-129375001D03*
D16*
X166167500Y-128650001D03*
D17*
X165750000Y-128625001D03*
%TD*%
D11*
%TO.C,C68*%
X141480000Y-121000000D03*
X140520000Y-121000000D03*
%TD*%
D12*
%TO.C,C25*%
X158000000Y-109020001D03*
X158000000Y-109980001D03*
%TD*%
%TO.C,C89*%
X145000000Y-135020001D03*
X145000000Y-135980001D03*
%TD*%
D11*
%TO.C,C80*%
X180480000Y-121000000D03*
X179520000Y-121000000D03*
%TD*%
D14*
%TO.C,Q184*%
X194150000Y-149417500D03*
X194500000Y-149417500D03*
X194850000Y-148582500D03*
X194500000Y-148582500D03*
X194850000Y-149417500D03*
D15*
X194875000Y-149000000D03*
D14*
X194150000Y-148582500D03*
D15*
X194125000Y-149000000D03*
%TD*%
D14*
%TO.C,Q29*%
X180350000Y-108832500D03*
X180000000Y-108832500D03*
X179650000Y-109667500D03*
X180000000Y-109667500D03*
X179650000Y-108832500D03*
D15*
X179625000Y-109250000D03*
D14*
X180350000Y-109667500D03*
D15*
X180375000Y-109250000D03*
%TD*%
D12*
%TO.C,C169*%
X158000000Y-174020001D03*
X158000000Y-174980001D03*
%TD*%
D14*
%TO.C,Q87*%
X193350000Y-121832500D03*
X193000000Y-121832500D03*
X192650000Y-122667500D03*
X193000000Y-122667500D03*
X192650000Y-121832500D03*
D15*
X192625000Y-122250000D03*
D14*
X193350000Y-122667500D03*
D15*
X193375000Y-122250000D03*
%TD*%
D14*
%TO.C,Q99*%
X147850000Y-141332500D03*
X147500000Y-141332500D03*
X147150000Y-142167500D03*
X147500000Y-142167500D03*
X147150000Y-141332500D03*
D15*
X147125000Y-141750000D03*
D14*
X147850000Y-142167500D03*
D15*
X147875000Y-141750000D03*
%TD*%
D11*
%TO.C,C15*%
X134194284Y-150000000D03*
X133234284Y-150000000D03*
%TD*%
D14*
%TO.C,Q143*%
X206350000Y-134832500D03*
X206000000Y-134832500D03*
X205650000Y-135667500D03*
X206000000Y-135667500D03*
X205650000Y-134832500D03*
D15*
X205625000Y-135250000D03*
D14*
X206350000Y-135667500D03*
D15*
X206375000Y-135250000D03*
%TD*%
D18*
%TO.C,U17*%
X131189284Y-151405000D03*
X131189284Y-150135000D03*
X131189284Y-148865000D03*
X131189284Y-147595000D03*
X126239284Y-147595000D03*
X126239284Y-148865000D03*
X126239284Y-150135000D03*
X126239284Y-151405000D03*
%TD*%
D14*
%TO.C,Q68*%
X174650000Y-129917500D03*
X175000000Y-129917500D03*
X175350000Y-129082500D03*
X175000000Y-129082500D03*
X175350000Y-129917500D03*
D15*
X175375000Y-129500000D03*
D14*
X174650000Y-129082500D03*
D15*
X174625000Y-129500000D03*
%TD*%
D20*
%TO.C,U6*%
X194525000Y-189595000D03*
X194525000Y-190865000D03*
X194525000Y-192135000D03*
X194525000Y-193405000D03*
X199475000Y-193405000D03*
X199475000Y-192135000D03*
X199475000Y-190865000D03*
X199475000Y-189595000D03*
%TD*%
%TO.C,U5*%
X181525000Y-189595000D03*
X181525000Y-190865000D03*
X181525000Y-192135000D03*
X181525000Y-193405000D03*
X186475000Y-193405000D03*
X186475000Y-192135000D03*
X186475000Y-190865000D03*
X186475000Y-189595000D03*
%TD*%
D16*
%TO.C,Q214*%
X166917500Y-166850000D03*
X166917500Y-166500000D03*
X166082500Y-166150000D03*
X166082500Y-166500000D03*
X166917500Y-166150000D03*
D17*
X166500000Y-166125000D03*
D16*
X166082500Y-166850000D03*
D17*
X166500000Y-166875000D03*
%TD*%
D14*
%TO.C,Q132*%
X200650000Y-142917500D03*
X201000000Y-142917500D03*
X201350000Y-142082500D03*
X201000000Y-142082500D03*
X201350000Y-142917500D03*
D15*
X201375000Y-142500000D03*
D14*
X200650000Y-142082500D03*
D15*
X200625000Y-142500000D03*
%TD*%
D16*
%TO.C,Q101*%
X139332500Y-141650001D03*
X139332500Y-142000001D03*
X140167500Y-142350001D03*
X140167500Y-142000001D03*
X139332500Y-142350001D03*
D17*
X139750000Y-142375001D03*
D16*
X140167500Y-141650001D03*
D17*
X139750000Y-141625001D03*
%TD*%
D12*
%TO.C,C173*%
X171000000Y-174020001D03*
X171000000Y-174980001D03*
%TD*%
D18*
%TO.C,U31*%
X122189284Y-118905000D03*
X122189284Y-117635000D03*
X122189284Y-116365000D03*
X122189284Y-115095000D03*
X117239284Y-115095000D03*
X117239284Y-116365000D03*
X117239284Y-117635000D03*
X117239284Y-118905000D03*
%TD*%
D19*
%TO.C,R2*%
X140990000Y-198000000D03*
X142010000Y-198000000D03*
%TD*%
D16*
%TO.C,Q245*%
X139332500Y-180650001D03*
X139332500Y-181000001D03*
X140167500Y-181350001D03*
X140167500Y-181000001D03*
X139332500Y-181350001D03*
D17*
X139750000Y-181375001D03*
D16*
X140167500Y-180650001D03*
D17*
X139750000Y-180625001D03*
%TD*%
D12*
%TO.C,C81*%
X197000000Y-122020001D03*
X197000000Y-122980001D03*
%TD*%
D23*
%TO.C,TP3*%
X133000000Y-106500000D03*
%TD*%
D19*
%TO.C,R8*%
X133204284Y-136500000D03*
X134224284Y-136500000D03*
%TD*%
D12*
%TO.C,C147*%
X164500000Y-167520001D03*
X164500000Y-168480001D03*
%TD*%
D16*
%TO.C,Q257*%
X171832500Y-174150001D03*
X171832500Y-174500001D03*
X172667500Y-174850001D03*
X172667500Y-174500001D03*
X171832500Y-174850001D03*
D17*
X172250000Y-174875001D03*
D16*
X172667500Y-174150001D03*
D17*
X172250000Y-174125001D03*
%TD*%
D16*
%TO.C,Q58*%
X160417500Y-121350000D03*
X160417500Y-121000000D03*
X159582500Y-120650000D03*
X159582500Y-121000000D03*
X160417500Y-120650000D03*
D17*
X160000000Y-120625000D03*
D16*
X159582500Y-121350000D03*
D17*
X160000000Y-121375000D03*
%TD*%
D11*
%TO.C,C136*%
X206480000Y-147000000D03*
X205520000Y-147000000D03*
%TD*%
D14*
%TO.C,Q192*%
X207150000Y-149417500D03*
X207500000Y-149417500D03*
X207850000Y-148582500D03*
X207500000Y-148582500D03*
X207850000Y-149417500D03*
D15*
X207875000Y-149000000D03*
D14*
X207150000Y-148582500D03*
D15*
X207125000Y-149000000D03*
%TD*%
D13*
%TO.C,RN7*%
X189500000Y-190600000D03*
X188500000Y-190600000D03*
X188500000Y-192400000D03*
X189500000Y-192400000D03*
%TD*%
D16*
%TO.C,Q97*%
X145832500Y-135150001D03*
X145832500Y-135500001D03*
X146667500Y-135850001D03*
X146667500Y-135500001D03*
X145832500Y-135850001D03*
D17*
X146250000Y-135875001D03*
D16*
X146667500Y-135150001D03*
D17*
X146250000Y-135125001D03*
%TD*%
D12*
%TO.C,C83*%
X190500000Y-128520001D03*
X190500000Y-129480001D03*
%TD*%
D16*
%TO.C,Q234*%
X212417500Y-160350000D03*
X212417500Y-160000000D03*
X211582500Y-159650000D03*
X211582500Y-160000000D03*
X212417500Y-159650000D03*
D17*
X212000000Y-159625000D03*
D16*
X211582500Y-160350000D03*
D17*
X212000000Y-160375000D03*
%TD*%
D14*
%TO.C,Q95*%
X206350000Y-121832500D03*
X206000000Y-121832500D03*
X205650000Y-122667500D03*
X206000000Y-122667500D03*
X205650000Y-121832500D03*
D15*
X205625000Y-122250000D03*
D14*
X206350000Y-122667500D03*
D15*
X206375000Y-122250000D03*
%TD*%
D16*
%TO.C,Q49*%
X145832500Y-122150001D03*
X145832500Y-122500001D03*
X146667500Y-122850001D03*
X146667500Y-122500001D03*
X145832500Y-122850001D03*
D17*
X146250000Y-122875001D03*
D16*
X146667500Y-122150001D03*
D17*
X146250000Y-122125001D03*
%TD*%
D18*
%TO.C,U32*%
X131189284Y-118905000D03*
X131189284Y-117635000D03*
X131189284Y-116365000D03*
X131189284Y-115095000D03*
X126239284Y-115095000D03*
X126239284Y-116365000D03*
X126239284Y-117635000D03*
X126239284Y-118905000D03*
%TD*%
D12*
%TO.C,C73*%
X171000000Y-122020001D03*
X171000000Y-122980001D03*
%TD*%
D14*
%TO.C,Q168*%
X168150000Y-149417500D03*
X168500000Y-149417500D03*
X168850000Y-148582500D03*
X168500000Y-148582500D03*
X168850000Y-149417500D03*
D15*
X168875000Y-149000000D03*
D14*
X168150000Y-148582500D03*
D15*
X168125000Y-149000000D03*
%TD*%
D16*
%TO.C,Q233*%
X210832500Y-161150001D03*
X210832500Y-161500001D03*
X211667500Y-161850001D03*
X211667500Y-161500001D03*
X210832500Y-161850001D03*
D17*
X211250000Y-161875001D03*
D16*
X211667500Y-161150001D03*
D17*
X211250000Y-161125001D03*
%TD*%
D14*
%TO.C,Q128*%
X181150000Y-136417500D03*
X181500000Y-136417500D03*
X181850000Y-135582500D03*
X181500000Y-135582500D03*
X181850000Y-136417500D03*
D15*
X181875000Y-136000000D03*
D14*
X181150000Y-135582500D03*
D15*
X181125000Y-136000000D03*
%TD*%
D14*
%TO.C,Q111*%
X154350000Y-134832500D03*
X154000000Y-134832500D03*
X153650000Y-135667500D03*
X154000000Y-135667500D03*
X153650000Y-134832500D03*
D15*
X153625000Y-135250000D03*
D14*
X154350000Y-135667500D03*
D15*
X154375000Y-135250000D03*
%TD*%
D23*
%TO.C,TP6*%
X113500000Y-168000000D03*
%TD*%
D16*
%TO.C,Q266*%
X186417500Y-173350000D03*
X186417500Y-173000000D03*
X185582500Y-172650000D03*
X185582500Y-173000000D03*
X186417500Y-172650000D03*
D17*
X186000000Y-172625000D03*
D16*
X185582500Y-173350000D03*
D17*
X186000000Y-173375000D03*
%TD*%
D14*
%TO.C,Q67*%
X173850000Y-128332500D03*
X173500000Y-128332500D03*
X173150000Y-129167500D03*
X173500000Y-129167500D03*
X173150000Y-128332500D03*
D15*
X173125000Y-128750000D03*
D14*
X173850000Y-129167500D03*
D15*
X173875000Y-128750000D03*
%TD*%
D18*
%TO.C,U19*%
X131189284Y-157905000D03*
X131189284Y-156635000D03*
X131189284Y-155365000D03*
X131189284Y-154095000D03*
X126239284Y-154095000D03*
X126239284Y-155365000D03*
X126239284Y-156635000D03*
X126239284Y-157905000D03*
%TD*%
D12*
%TO.C,C30*%
X164500000Y-115520001D03*
X164500000Y-116480001D03*
%TD*%
D11*
%TO.C,C21*%
X141480000Y-108000000D03*
X140520000Y-108000000D03*
%TD*%
D16*
%TO.C,Q209*%
X171832500Y-161150001D03*
X171832500Y-161500001D03*
X172667500Y-161850001D03*
X172667500Y-161500001D03*
X171832500Y-161850001D03*
D17*
X172250000Y-161875001D03*
D16*
X172667500Y-161150001D03*
D17*
X172250000Y-161125001D03*
%TD*%
D14*
%TO.C,Q83*%
X199850000Y-128332500D03*
X199500000Y-128332500D03*
X199150000Y-129167500D03*
X199500000Y-129167500D03*
X199150000Y-128332500D03*
D15*
X199125000Y-128750000D03*
D14*
X199850000Y-129167500D03*
D15*
X199875000Y-128750000D03*
%TD*%
D14*
%TO.C,Q112*%
X155150000Y-136417500D03*
X155500000Y-136417500D03*
X155850000Y-135582500D03*
X155500000Y-135582500D03*
X155850000Y-136417500D03*
D15*
X155875000Y-136000000D03*
D14*
X155150000Y-135582500D03*
D15*
X155125000Y-136000000D03*
%TD*%
D11*
%TO.C,C168*%
X141480000Y-173000000D03*
X140520000Y-173000000D03*
%TD*%
D16*
%TO.C,Q125*%
X178332500Y-141650001D03*
X178332500Y-142000001D03*
X179167500Y-142350001D03*
X179167500Y-142000001D03*
X178332500Y-142350001D03*
D17*
X178750000Y-142375001D03*
D16*
X179167500Y-141650001D03*
D17*
X178750000Y-141625001D03*
%TD*%
D16*
%TO.C,Q4*%
X147417500Y-108350000D03*
X147417500Y-108000000D03*
X146582500Y-107650000D03*
X146582500Y-108000000D03*
X147417500Y-107650000D03*
D17*
X147000000Y-107625000D03*
D16*
X146582500Y-108350000D03*
D17*
X147000000Y-108375000D03*
%TD*%
D16*
%TO.C,Q154*%
X160417500Y-147350000D03*
X160417500Y-147000000D03*
X159582500Y-146650000D03*
X159582500Y-147000000D03*
X160417500Y-146650000D03*
D17*
X160000000Y-146625000D03*
D16*
X159582500Y-147350000D03*
D17*
X160000000Y-147375000D03*
%TD*%
D22*
%TO.C,R32*%
X124214284Y-158010000D03*
X124214284Y-156990000D03*
%TD*%
D12*
%TO.C,C34*%
X177500000Y-115520001D03*
X177500000Y-116480001D03*
%TD*%
D19*
%TO.C,R7*%
X133204284Y-143000000D03*
X134224284Y-143000000D03*
%TD*%
D11*
%TO.C,C11*%
X134194284Y-124500000D03*
X133234284Y-124500000D03*
%TD*%
D14*
%TO.C,Q75*%
X186850000Y-128332500D03*
X186500000Y-128332500D03*
X186150000Y-129167500D03*
X186500000Y-129167500D03*
X186150000Y-128332500D03*
D15*
X186125000Y-128750000D03*
D14*
X186850000Y-129167500D03*
D15*
X186875000Y-128750000D03*
%TD*%
D24*
%TO.C,TP8*%
X152500000Y-203500000D03*
%TD*%
D14*
%TO.C,Q59*%
X160850000Y-128332500D03*
X160500000Y-128332500D03*
X160150000Y-129167500D03*
X160500000Y-129167500D03*
X160150000Y-128332500D03*
D15*
X160125000Y-128750000D03*
D14*
X160850000Y-129167500D03*
D15*
X160875000Y-128750000D03*
%TD*%
D12*
%TO.C,C141*%
X158000000Y-161020001D03*
X158000000Y-161980001D03*
%TD*%
D13*
%TO.C,RN8*%
X192500000Y-190600000D03*
X191500000Y-190600000D03*
X191500000Y-192400000D03*
X192500000Y-192400000D03*
%TD*%
D16*
%TO.C,Q198*%
X140917500Y-166850000D03*
X140917500Y-166500000D03*
X140082500Y-166150000D03*
X140082500Y-166500000D03*
X140917500Y-166150000D03*
D17*
X140500000Y-166125000D03*
D16*
X140082500Y-166850000D03*
D17*
X140500000Y-166875000D03*
%TD*%
D14*
%TO.C,Q267*%
X186850000Y-180332500D03*
X186500000Y-180332500D03*
X186150000Y-181167500D03*
X186500000Y-181167500D03*
X186150000Y-180332500D03*
D15*
X186125000Y-180750000D03*
D14*
X186850000Y-181167500D03*
D15*
X186875000Y-180750000D03*
%TD*%
D11*
%TO.C,C82*%
X199980000Y-127500000D03*
X199020000Y-127500000D03*
%TD*%
D14*
%TO.C,Q1*%
X141350000Y-108832500D03*
X141000000Y-108832500D03*
X140650000Y-109667500D03*
X141000000Y-109667500D03*
X140650000Y-108832500D03*
D15*
X140625000Y-109250000D03*
D14*
X141350000Y-109667500D03*
D15*
X141375000Y-109250000D03*
%TD*%
D16*
%TO.C,Q282*%
X212417500Y-173350000D03*
X212417500Y-173000000D03*
X211582500Y-172650000D03*
X211582500Y-173000000D03*
X212417500Y-172650000D03*
D17*
X212000000Y-172625000D03*
D16*
X211582500Y-173350000D03*
D17*
X212000000Y-173375000D03*
%TD*%
D16*
%TO.C,Q190*%
X205917500Y-153850000D03*
X205917500Y-153500000D03*
X205082500Y-153150000D03*
X205082500Y-153500000D03*
X205917500Y-153150000D03*
D17*
X205500000Y-153125000D03*
D16*
X205082500Y-153850000D03*
D17*
X205500000Y-153875000D03*
%TD*%
D12*
%TO.C,C115*%
X138500000Y-154520001D03*
X138500000Y-155480001D03*
%TD*%
D14*
%TO.C,Q220*%
X187650000Y-168917500D03*
X188000000Y-168917500D03*
X188350000Y-168082500D03*
X188000000Y-168082500D03*
X188350000Y-168917500D03*
D15*
X188375000Y-168500000D03*
D14*
X187650000Y-168082500D03*
D15*
X187625000Y-168500000D03*
%TD*%
D19*
%TO.C,R12*%
X133204284Y-162500000D03*
X134224284Y-162500000D03*
%TD*%
D12*
%TO.C,C133*%
X210000000Y-148020001D03*
X210000000Y-148980001D03*
%TD*%
D16*
%TO.C,Q45*%
X204332500Y-115650001D03*
X204332500Y-116000001D03*
X205167500Y-116350001D03*
X205167500Y-116000001D03*
X204332500Y-116350001D03*
D17*
X204750000Y-116375001D03*
D16*
X205167500Y-115650001D03*
D17*
X204750000Y-115625001D03*
%TD*%
D19*
%TO.C,R14*%
X133204284Y-175500000D03*
X134224284Y-175500000D03*
%TD*%
D14*
%TO.C,Q260*%
X174650000Y-181917500D03*
X175000000Y-181917500D03*
X175350000Y-181082500D03*
X175000000Y-181082500D03*
X175350000Y-181917500D03*
D15*
X175375000Y-181500000D03*
D14*
X174650000Y-181082500D03*
D15*
X174625000Y-181500000D03*
%TD*%
D11*
%TO.C,C112*%
X206480000Y-134000000D03*
X205520000Y-134000000D03*
%TD*%
%TO.C,C154*%
X199980000Y-166500000D03*
X199020000Y-166500000D03*
%TD*%
D16*
%TO.C,Q254*%
X153917500Y-179850000D03*
X153917500Y-179500000D03*
X153082500Y-179150000D03*
X153082500Y-179500000D03*
X153917500Y-179150000D03*
D17*
X153500000Y-179125000D03*
D16*
X153082500Y-179850000D03*
D17*
X153500000Y-179875000D03*
%TD*%
D16*
%TO.C,Q186*%
X212417500Y-147350000D03*
X212417500Y-147000000D03*
X211582500Y-146650000D03*
X211582500Y-147000000D03*
X212417500Y-146650000D03*
D17*
X212000000Y-146625000D03*
D16*
X211582500Y-147350000D03*
D17*
X212000000Y-147375000D03*
%TD*%
D16*
%TO.C,Q110*%
X153917500Y-140850000D03*
X153917500Y-140500000D03*
X153082500Y-140150000D03*
X153082500Y-140500000D03*
X153917500Y-140150000D03*
D17*
X153500000Y-140125000D03*
D16*
X153082500Y-140850000D03*
D17*
X153500000Y-140875000D03*
%TD*%
D20*
%TO.C,U2*%
X108525000Y-171595000D03*
X108525000Y-172865000D03*
X108525000Y-174135000D03*
X108525000Y-175405000D03*
X113475000Y-175405000D03*
X113475000Y-174135000D03*
X113475000Y-172865000D03*
X113475000Y-171595000D03*
%TD*%
D14*
%TO.C,Q203*%
X160850000Y-167332500D03*
X160500000Y-167332500D03*
X160150000Y-168167500D03*
X160500000Y-168167500D03*
X160150000Y-167332500D03*
D15*
X160125000Y-167750000D03*
D14*
X160850000Y-168167500D03*
D15*
X160875000Y-167750000D03*
%TD*%
D12*
%TO.C,C105*%
X197000000Y-135020001D03*
X197000000Y-135980001D03*
%TD*%
D16*
%TO.C,Q98*%
X147417500Y-134350000D03*
X147417500Y-134000000D03*
X146582500Y-133650000D03*
X146582500Y-134000000D03*
X147417500Y-133650000D03*
D17*
X147000000Y-133625000D03*
D16*
X146582500Y-134350000D03*
D17*
X147000000Y-134375000D03*
%TD*%
D11*
%TO.C,C84*%
X193480000Y-121000000D03*
X192520000Y-121000000D03*
%TD*%
D12*
%TO.C,C101*%
X184000000Y-135020001D03*
X184000000Y-135980001D03*
%TD*%
D14*
%TO.C,Q37*%
X193350000Y-108832500D03*
X193000000Y-108832500D03*
X192650000Y-109667500D03*
X193000000Y-109667500D03*
X192650000Y-108832500D03*
D15*
X192625000Y-109250000D03*
D14*
X193350000Y-109667500D03*
D15*
X193375000Y-109250000D03*
%TD*%
D16*
%TO.C,Q142*%
X205917500Y-140850000D03*
X205917500Y-140500000D03*
X205082500Y-140150000D03*
X205082500Y-140500000D03*
X205917500Y-140150000D03*
D17*
X205500000Y-140125000D03*
D16*
X205082500Y-140850000D03*
D17*
X205500000Y-140875000D03*
%TD*%
D16*
%TO.C,Q202*%
X160417500Y-160350000D03*
X160417500Y-160000000D03*
X159582500Y-159650000D03*
X159582500Y-160000000D03*
X160417500Y-159650000D03*
D17*
X160000000Y-159625000D03*
D16*
X159582500Y-160350000D03*
D17*
X160000000Y-160375000D03*
%TD*%
D11*
%TO.C,C35*%
X180480000Y-108000000D03*
X179520000Y-108000000D03*
%TD*%
D16*
%TO.C,Q70*%
X166917500Y-127850000D03*
X166917500Y-127500000D03*
X166082500Y-127150000D03*
X166082500Y-127500000D03*
X166917500Y-127150000D03*
D17*
X166500000Y-127125000D03*
D16*
X166082500Y-127850000D03*
D17*
X166500000Y-127875000D03*
%TD*%
D16*
%TO.C,Q65*%
X171832500Y-122150001D03*
X171832500Y-122500001D03*
X172667500Y-122850001D03*
X172667500Y-122500001D03*
X171832500Y-122850001D03*
D17*
X172250000Y-122875001D03*
D16*
X172667500Y-122150001D03*
D17*
X172250000Y-122125001D03*
%TD*%
D12*
%TO.C,C22*%
X145000000Y-109020001D03*
X145000000Y-109980001D03*
%TD*%
D14*
%TO.C,Q40*%
X155150000Y-110417500D03*
X155500000Y-110417500D03*
X155850000Y-109582500D03*
X155500000Y-109582500D03*
X155850000Y-110417500D03*
D15*
X155875000Y-110000000D03*
D14*
X155150000Y-109582500D03*
D15*
X155125000Y-110000000D03*
%TD*%
D16*
%TO.C,Q27*%
X178332500Y-115650001D03*
X178332500Y-116000001D03*
X179167500Y-116350001D03*
X179167500Y-116000001D03*
X178332500Y-116350001D03*
D17*
X178750000Y-116375001D03*
D16*
X179167500Y-115650001D03*
D17*
X178750000Y-115625001D03*
%TD*%
D14*
%TO.C,Q72*%
X168150000Y-123417500D03*
X168500000Y-123417500D03*
X168850000Y-122582500D03*
X168500000Y-122582500D03*
X168850000Y-123417500D03*
D15*
X168875000Y-123000000D03*
D14*
X168150000Y-122582500D03*
D15*
X168125000Y-123000000D03*
%TD*%
D16*
%TO.C,Q134*%
X192917500Y-140850000D03*
X192917500Y-140500000D03*
X192082500Y-140150000D03*
X192082500Y-140500000D03*
X192917500Y-140150000D03*
D17*
X192500000Y-140125000D03*
D16*
X192082500Y-140850000D03*
D17*
X192500000Y-140875000D03*
%TD*%
D14*
%TO.C,Q108*%
X161650000Y-142917500D03*
X162000000Y-142917500D03*
X162350000Y-142082500D03*
X162000000Y-142082500D03*
X162350000Y-142917500D03*
D15*
X162375000Y-142500000D03*
D14*
X161650000Y-142082500D03*
D15*
X161625000Y-142500000D03*
%TD*%
D14*
%TO.C,Q236*%
X213650000Y-168917500D03*
X214000000Y-168917500D03*
X214350000Y-168082500D03*
X214000000Y-168082500D03*
X214350000Y-168917500D03*
D15*
X214375000Y-168500000D03*
D14*
X213650000Y-168082500D03*
D15*
X213625000Y-168500000D03*
%TD*%
D12*
%TO.C,C183*%
X190500000Y-180520001D03*
X190500000Y-181480001D03*
%TD*%
%TO.C,C93*%
X158000000Y-135020001D03*
X158000000Y-135980001D03*
%TD*%
D22*
%TO.C,R41*%
X124214284Y-177510000D03*
X124214284Y-176490000D03*
%TD*%
D16*
%TO.C,Q90*%
X212417500Y-121350000D03*
X212417500Y-121000000D03*
X211582500Y-120650000D03*
X211582500Y-121000000D03*
X212417500Y-120650000D03*
D17*
X212000000Y-120625000D03*
D16*
X211582500Y-121350000D03*
D17*
X212000000Y-121375000D03*
%TD*%
D16*
%TO.C,Q201*%
X158832500Y-161150001D03*
X158832500Y-161500001D03*
X159667500Y-161850001D03*
X159667500Y-161500001D03*
X158832500Y-161850001D03*
D17*
X159250000Y-161875001D03*
D16*
X159667500Y-161150001D03*
D17*
X159250000Y-161125001D03*
%TD*%
D11*
%TO.C,C122*%
X173980000Y-153500000D03*
X173020000Y-153500000D03*
%TD*%
D14*
%TO.C,Q263*%
X167350000Y-173832500D03*
X167000000Y-173832500D03*
X166650000Y-174667500D03*
X167000000Y-174667500D03*
X166650000Y-173832500D03*
D15*
X166625000Y-174250000D03*
D14*
X167350000Y-174667500D03*
D15*
X167375000Y-174250000D03*
%TD*%
D12*
%TO.C,C99*%
X164500000Y-141520001D03*
X164500000Y-142480001D03*
%TD*%
D14*
%TO.C,Q207*%
X154350000Y-160832500D03*
X154000000Y-160832500D03*
X153650000Y-161667500D03*
X154000000Y-161667500D03*
X153650000Y-160832500D03*
D15*
X153625000Y-161250000D03*
D14*
X154350000Y-161667500D03*
D15*
X154375000Y-161250000D03*
%TD*%
D16*
%TO.C,Q286*%
X205917500Y-179850000D03*
X205917500Y-179500000D03*
X205082500Y-179150000D03*
X205082500Y-179500000D03*
X205917500Y-179150000D03*
D17*
X205500000Y-179125000D03*
D16*
X205082500Y-179850000D03*
D17*
X205500000Y-179875000D03*
%TD*%
D16*
%TO.C,Q229*%
X191332500Y-167650001D03*
X191332500Y-168000001D03*
X192167500Y-168350001D03*
X192167500Y-168000001D03*
X191332500Y-168350001D03*
D17*
X191750000Y-168375001D03*
D16*
X192167500Y-167650001D03*
D17*
X191750000Y-167625001D03*
%TD*%
D11*
%TO.C,C102*%
X186980000Y-140500000D03*
X186020000Y-140500000D03*
%TD*%
D12*
%TO.C,C111*%
X203500000Y-141520001D03*
X203500000Y-142480001D03*
%TD*%
D11*
%TO.C,C142*%
X160980000Y-166500000D03*
X160020000Y-166500000D03*
%TD*%
D12*
%TO.C,C137*%
X145000000Y-161020001D03*
X145000000Y-161980001D03*
%TD*%
D14*
%TO.C,Q44*%
X213650000Y-116917500D03*
X214000000Y-116917500D03*
X214350000Y-116082500D03*
X214000000Y-116082500D03*
X214350000Y-116917500D03*
D15*
X214375000Y-116500000D03*
D14*
X213650000Y-116082500D03*
D15*
X213625000Y-116500000D03*
%TD*%
D12*
%TO.C,C153*%
X197000000Y-161020001D03*
X197000000Y-161980001D03*
%TD*%
D18*
%TO.C,U10*%
X122189284Y-131905000D03*
X122189284Y-130635000D03*
X122189284Y-129365000D03*
X122189284Y-128095000D03*
X117239284Y-128095000D03*
X117239284Y-129365000D03*
X117239284Y-130635000D03*
X117239284Y-131905000D03*
%TD*%
D14*
%TO.C,Q256*%
X155150000Y-175417500D03*
X155500000Y-175417500D03*
X155850000Y-174582500D03*
X155500000Y-174582500D03*
X155850000Y-175417500D03*
D15*
X155875000Y-175000000D03*
D14*
X155150000Y-174582500D03*
D15*
X155125000Y-175000000D03*
%TD*%
D12*
%TO.C,C36*%
X197000000Y-109020001D03*
X197000000Y-109980001D03*
%TD*%
D14*
%TO.C,Q204*%
X161650000Y-168917500D03*
X162000000Y-168917500D03*
X162350000Y-168082500D03*
X162000000Y-168082500D03*
X162350000Y-168917500D03*
D15*
X162375000Y-168500000D03*
D14*
X161650000Y-168082500D03*
D15*
X161625000Y-168500000D03*
%TD*%
D11*
%TO.C,C162*%
X212980000Y-166500000D03*
X212020000Y-166500000D03*
%TD*%
D22*
%TO.C,R17*%
X124214284Y-125510000D03*
X124214284Y-124490000D03*
%TD*%
D16*
%TO.C,Q261*%
X165332500Y-180650001D03*
X165332500Y-181000001D03*
X166167500Y-181350001D03*
X166167500Y-181000001D03*
X165332500Y-181350001D03*
D17*
X165750000Y-181375001D03*
D16*
X166167500Y-180650001D03*
D17*
X165750000Y-180625001D03*
%TD*%
D16*
%TO.C,Q194*%
X147417500Y-160350000D03*
X147417500Y-160000000D03*
X146582500Y-159650000D03*
X146582500Y-160000000D03*
X147417500Y-159650000D03*
D17*
X147000000Y-159625000D03*
D16*
X146582500Y-160350000D03*
D17*
X147000000Y-160375000D03*
%TD*%
D11*
%TO.C,C132*%
X193480000Y-147000000D03*
X192520000Y-147000000D03*
%TD*%
D16*
%TO.C,Q258*%
X173417500Y-173350000D03*
X173417500Y-173000000D03*
X172582500Y-172650000D03*
X172582500Y-173000000D03*
X173417500Y-172650000D03*
D17*
X173000000Y-172625000D03*
D16*
X172582500Y-173350000D03*
D17*
X173000000Y-173375000D03*
%TD*%
D16*
%TO.C,Q20*%
X166917500Y-114850000D03*
X166917500Y-114500000D03*
X166082500Y-114150000D03*
X166082500Y-114500000D03*
X166917500Y-114150000D03*
D17*
X166500000Y-114125000D03*
D16*
X166082500Y-114850000D03*
D17*
X166500000Y-114875000D03*
%TD*%
D12*
%TO.C,C97*%
X171000000Y-135020001D03*
X171000000Y-135980001D03*
%TD*%
D16*
%TO.C,Q50*%
X147417500Y-121350000D03*
X147417500Y-121000000D03*
X146582500Y-120650000D03*
X146582500Y-121000000D03*
X147417500Y-120650000D03*
D17*
X147000000Y-120625000D03*
D16*
X146582500Y-121350000D03*
D17*
X147000000Y-121375000D03*
%TD*%
D16*
%TO.C,Q78*%
X179917500Y-127850000D03*
X179917500Y-127500000D03*
X179082500Y-127150000D03*
X179082500Y-127500000D03*
X179917500Y-127150000D03*
D17*
X179500000Y-127125000D03*
D16*
X179082500Y-127850000D03*
D17*
X179500000Y-127875000D03*
%TD*%
D12*
%TO.C,C41*%
X210000000Y-109020001D03*
X210000000Y-109980001D03*
%TD*%
D16*
%TO.C,Q3*%
X145832500Y-109150001D03*
X145832500Y-109500001D03*
X146667500Y-109850001D03*
X146667500Y-109500001D03*
X145832500Y-109850001D03*
D17*
X146250000Y-109875001D03*
D16*
X146667500Y-109150001D03*
D17*
X146250000Y-109125001D03*
%TD*%
D13*
%TO.C,RN12*%
X140500000Y-190600000D03*
X139500000Y-190600000D03*
X139500000Y-192400000D03*
X140500000Y-192400000D03*
%TD*%
D25*
%TO.C,C1*%
X134520000Y-198000000D03*
X135480000Y-198000000D03*
%TD*%
D16*
%TO.C,Q230*%
X192917500Y-166850000D03*
X192917500Y-166500000D03*
X192082500Y-166150000D03*
X192082500Y-166500000D03*
X192917500Y-166150000D03*
D17*
X192500000Y-166125000D03*
D16*
X192082500Y-166850000D03*
D17*
X192500000Y-166875000D03*
%TD*%
D11*
%TO.C,C128*%
X180480000Y-147000000D03*
X179520000Y-147000000D03*
%TD*%
D14*
%TO.C,Q259*%
X173850000Y-180332500D03*
X173500000Y-180332500D03*
X173150000Y-181167500D03*
X173500000Y-181167500D03*
X173150000Y-180332500D03*
D15*
X173125000Y-180750000D03*
D14*
X173850000Y-181167500D03*
D15*
X173875000Y-180750000D03*
%TD*%
D14*
%TO.C,Q163*%
X173850000Y-154332500D03*
X173500000Y-154332500D03*
X173150000Y-155167500D03*
X173500000Y-155167500D03*
X173150000Y-154332500D03*
D15*
X173125000Y-154750000D03*
D14*
X173850000Y-155167500D03*
D15*
X173875000Y-154750000D03*
%TD*%
D11*
%TO.C,C9*%
X134194284Y-111500000D03*
X133234284Y-111500000D03*
%TD*%
D14*
%TO.C,Q212*%
X174650000Y-168917500D03*
X175000000Y-168917500D03*
X175350000Y-168082500D03*
X175000000Y-168082500D03*
X175350000Y-168917500D03*
D15*
X175375000Y-168500000D03*
D14*
X174650000Y-168082500D03*
D15*
X174625000Y-168500000D03*
%TD*%
D12*
%TO.C,C175*%
X164500000Y-180520001D03*
X164500000Y-181480001D03*
%TD*%
D11*
%TO.C,C90*%
X147980000Y-140500000D03*
X147020000Y-140500000D03*
%TD*%
D19*
%TO.C,R13*%
X133204284Y-182000000D03*
X134224284Y-182000000D03*
%TD*%
D12*
%TO.C,C171*%
X151500000Y-180520001D03*
X151500000Y-181480001D03*
%TD*%
D14*
%TO.C,Q51*%
X147850000Y-128332500D03*
X147500000Y-128332500D03*
X147150000Y-129167500D03*
X147500000Y-129167500D03*
X147150000Y-128332500D03*
D15*
X147125000Y-128750000D03*
D14*
X147850000Y-129167500D03*
D15*
X147875000Y-128750000D03*
%TD*%
D12*
%TO.C,C23*%
X138500000Y-115520001D03*
X138500000Y-116480001D03*
%TD*%
D18*
%TO.C,U21*%
X131189284Y-164405000D03*
X131189284Y-163135000D03*
X131189284Y-161865000D03*
X131189284Y-160595000D03*
X126239284Y-160595000D03*
X126239284Y-161865000D03*
X126239284Y-163135000D03*
X126239284Y-164405000D03*
%TD*%
D11*
%TO.C,C120*%
X154480000Y-147000000D03*
X153520000Y-147000000D03*
%TD*%
D16*
%TO.C,Q165*%
X165332500Y-154650001D03*
X165332500Y-155000001D03*
X166167500Y-155350001D03*
X166167500Y-155000001D03*
X165332500Y-155350001D03*
D17*
X165750000Y-155375001D03*
D16*
X166167500Y-154650001D03*
D17*
X165750000Y-154625001D03*
%TD*%
D11*
%TO.C,C33*%
X186980000Y-114500000D03*
X186020000Y-114500000D03*
%TD*%
D16*
%TO.C,Q166*%
X166917500Y-153850000D03*
X166917500Y-153500000D03*
X166082500Y-153150000D03*
X166082500Y-153500000D03*
X166917500Y-153150000D03*
D17*
X166500000Y-153125000D03*
D16*
X166082500Y-153850000D03*
D17*
X166500000Y-153875000D03*
%TD*%
D11*
%TO.C,C164*%
X206480000Y-160000000D03*
X205520000Y-160000000D03*
%TD*%
D19*
%TO.C,R3*%
X133204284Y-117000000D03*
X134224284Y-117000000D03*
%TD*%
D16*
%TO.C,Q94*%
X205917500Y-127850000D03*
X205917500Y-127500000D03*
X205082500Y-127150000D03*
X205082500Y-127500000D03*
X205917500Y-127150000D03*
D17*
X205500000Y-127125000D03*
D16*
X205082500Y-127850000D03*
D17*
X205500000Y-127875000D03*
%TD*%
D26*
%TO.C,Y1*%
X136700000Y-194500000D03*
X134500000Y-194500000D03*
X134500000Y-196200000D03*
X136700000Y-196200000D03*
%TD*%
D16*
%TO.C,Q73*%
X184832500Y-122150001D03*
X184832500Y-122500001D03*
X185667500Y-122850001D03*
X185667500Y-122500001D03*
X184832500Y-122850001D03*
D17*
X185250000Y-122875001D03*
D16*
X185667500Y-122150001D03*
D17*
X185250000Y-122125001D03*
%TD*%
D14*
%TO.C,Q47*%
X206350000Y-108832500D03*
X206000000Y-108832500D03*
X205650000Y-109667500D03*
X206000000Y-109667500D03*
X205650000Y-108832500D03*
D15*
X205625000Y-109250000D03*
D14*
X206350000Y-109667500D03*
D15*
X206375000Y-109250000D03*
%TD*%
D14*
%TO.C,Q119*%
X167350000Y-134832500D03*
X167000000Y-134832500D03*
X166650000Y-135667500D03*
X167000000Y-135667500D03*
X166650000Y-134832500D03*
D15*
X166625000Y-135250000D03*
D14*
X167350000Y-135667500D03*
D15*
X167375000Y-135250000D03*
%TD*%
D16*
%TO.C,Q178*%
X199417500Y-147350000D03*
X199417500Y-147000000D03*
X198582500Y-146650000D03*
X198582500Y-147000000D03*
X199417500Y-146650000D03*
D17*
X199000000Y-146625000D03*
D16*
X198582500Y-147350000D03*
D17*
X199000000Y-147375000D03*
%TD*%
D14*
%TO.C,Q164*%
X174650000Y-155917500D03*
X175000000Y-155917500D03*
X175350000Y-155082500D03*
X175000000Y-155082500D03*
X175350000Y-155917500D03*
D15*
X175375000Y-155500000D03*
D14*
X174650000Y-155082500D03*
D15*
X174625000Y-155500000D03*
%TD*%
D23*
%TO.C,TP9*%
X110000000Y-120000000D03*
%TD*%
D14*
%TO.C,Q252*%
X161650000Y-181917500D03*
X162000000Y-181917500D03*
X162350000Y-181082500D03*
X162000000Y-181082500D03*
X162350000Y-181917500D03*
D15*
X162375000Y-181500000D03*
D14*
X161650000Y-181082500D03*
D15*
X161625000Y-181500000D03*
%TD*%
D19*
%TO.C,R5*%
X133204284Y-130000000D03*
X134224284Y-130000000D03*
%TD*%
D13*
%TO.C,RN10*%
X205500000Y-190600000D03*
X204500000Y-190600000D03*
X204500000Y-192400000D03*
X205500000Y-192400000D03*
%TD*%
%TO.C,RN5*%
X176500000Y-190600000D03*
X175500000Y-190600000D03*
X175500000Y-192400000D03*
X176500000Y-192400000D03*
%TD*%
D16*
%TO.C,Q157*%
X152332500Y-154650001D03*
X152332500Y-155000001D03*
X153167500Y-155350001D03*
X153167500Y-155000001D03*
X152332500Y-155350001D03*
D17*
X152750000Y-155375001D03*
D16*
X153167500Y-154650001D03*
D17*
X152750000Y-154625001D03*
%TD*%
D12*
%TO.C,C149*%
X184000000Y-161020001D03*
X184000000Y-161980001D03*
%TD*%
D11*
%TO.C,C13*%
X134194284Y-137500000D03*
X133234284Y-137500000D03*
%TD*%
D22*
%TO.C,R38*%
X124214284Y-171010000D03*
X124214284Y-169990000D03*
%TD*%
D16*
%TO.C,Q28*%
X179917500Y-114850000D03*
X179917500Y-114500000D03*
X179082500Y-114150000D03*
X179082500Y-114500000D03*
X179917500Y-114150000D03*
D17*
X179500000Y-114125000D03*
D16*
X179082500Y-114850000D03*
D17*
X179500000Y-114875000D03*
%TD*%
D11*
%TO.C,C182*%
X199980000Y-179500000D03*
X199020000Y-179500000D03*
%TD*%
D13*
%TO.C,RN9*%
X202500000Y-190600000D03*
X201500000Y-190600000D03*
X201500000Y-192400000D03*
X202500000Y-192400000D03*
%TD*%
D16*
%TO.C,Q174*%
X179917500Y-153850000D03*
X179917500Y-153500000D03*
X179082500Y-153150000D03*
X179082500Y-153500000D03*
X179917500Y-153150000D03*
D17*
X179500000Y-153125000D03*
D16*
X179082500Y-153850000D03*
D17*
X179500000Y-153875000D03*
%TD*%
D11*
%TO.C,C96*%
X154480000Y-134000000D03*
X153520000Y-134000000D03*
%TD*%
D16*
%TO.C,Q205*%
X152332500Y-167650001D03*
X152332500Y-168000001D03*
X153167500Y-168350001D03*
X153167500Y-168000001D03*
X152332500Y-168350001D03*
D17*
X152750000Y-168375001D03*
D16*
X153167500Y-167650001D03*
D17*
X152750000Y-167625001D03*
%TD*%
D11*
%TO.C,C166*%
X147980000Y-179500000D03*
X147020000Y-179500000D03*
%TD*%
%TO.C,C118*%
X160980000Y-153500000D03*
X160020000Y-153500000D03*
%TD*%
D16*
%TO.C,Q265*%
X184832500Y-174150001D03*
X184832500Y-174500001D03*
X185667500Y-174850001D03*
X185667500Y-174500001D03*
X184832500Y-174850001D03*
D17*
X185250000Y-174875001D03*
D16*
X185667500Y-174150001D03*
D17*
X185250000Y-174125001D03*
%TD*%
D14*
%TO.C,Q127*%
X180350000Y-134832500D03*
X180000000Y-134832500D03*
X179650000Y-135667500D03*
X180000000Y-135667500D03*
X179650000Y-134832500D03*
D15*
X179625000Y-135250000D03*
D14*
X180350000Y-135667500D03*
D15*
X180375000Y-135250000D03*
%TD*%
D16*
%TO.C,Q118*%
X166917500Y-140850000D03*
X166917500Y-140500000D03*
X166082500Y-140150000D03*
X166082500Y-140500000D03*
X166917500Y-140150000D03*
D17*
X166500000Y-140125000D03*
D16*
X166082500Y-140850000D03*
D17*
X166500000Y-140875000D03*
%TD*%
D14*
%TO.C,Q284*%
X213650000Y-181917500D03*
X214000000Y-181917500D03*
X214350000Y-181082500D03*
X214000000Y-181082500D03*
X214350000Y-181917500D03*
D15*
X214375000Y-181500000D03*
D14*
X213650000Y-181082500D03*
D15*
X213625000Y-181500000D03*
%TD*%
D22*
%TO.C,R23*%
X124214284Y-138510000D03*
X124214284Y-137490000D03*
%TD*%
D16*
%TO.C,Q113*%
X171832500Y-135150001D03*
X171832500Y-135500001D03*
X172667500Y-135850001D03*
X172667500Y-135500001D03*
X171832500Y-135850001D03*
D17*
X172250000Y-135875001D03*
D16*
X172667500Y-135150001D03*
D17*
X172250000Y-135125001D03*
%TD*%
D16*
%TO.C,Q109*%
X152332500Y-141650001D03*
X152332500Y-142000001D03*
X153167500Y-142350001D03*
X153167500Y-142000001D03*
X152332500Y-142350001D03*
D17*
X152750000Y-142375001D03*
D16*
X153167500Y-141650001D03*
D17*
X152750000Y-141625001D03*
%TD*%
D14*
%TO.C,Q235*%
X212850000Y-167332500D03*
X212500000Y-167332500D03*
X212150000Y-168167500D03*
X212500000Y-168167500D03*
X212150000Y-167332500D03*
D15*
X212125000Y-167750000D03*
D14*
X212850000Y-168167500D03*
D15*
X212875000Y-167750000D03*
%TD*%
D12*
%TO.C,C167*%
X138500000Y-180520001D03*
X138500000Y-181480001D03*
%TD*%
D11*
%TO.C,C39*%
X193480000Y-108000000D03*
X192520000Y-108000000D03*
%TD*%
D14*
%TO.C,Q160*%
X155150000Y-149417500D03*
X155500000Y-149417500D03*
X155850000Y-148582500D03*
X155500000Y-148582500D03*
X155850000Y-149417500D03*
D15*
X155875000Y-149000000D03*
D14*
X155150000Y-148582500D03*
D15*
X155125000Y-149000000D03*
%TD*%
D20*
%TO.C,U28*%
X142525000Y-189595000D03*
X142525000Y-190865000D03*
X142525000Y-192135000D03*
X142525000Y-193405000D03*
X147475000Y-193405000D03*
X147475000Y-192135000D03*
X147475000Y-190865000D03*
X147475000Y-189595000D03*
%TD*%
D14*
%TO.C,Q243*%
X147850000Y-180332500D03*
X147500000Y-180332500D03*
X147150000Y-181167500D03*
X147500000Y-181167500D03*
X147150000Y-180332500D03*
D15*
X147125000Y-180750000D03*
D14*
X147850000Y-181167500D03*
D15*
X147875000Y-180750000D03*
%TD*%
D11*
%TO.C,C134*%
X212980000Y-153500000D03*
X212020000Y-153500000D03*
%TD*%
D16*
%TO.C,Q213*%
X165332500Y-167650001D03*
X165332500Y-168000001D03*
X166167500Y-168350001D03*
X166167500Y-168000001D03*
X165332500Y-168350001D03*
D17*
X165750000Y-168375001D03*
D16*
X166167500Y-167650001D03*
D17*
X165750000Y-167625001D03*
%TD*%
D16*
%TO.C,Q146*%
X147417500Y-147350000D03*
X147417500Y-147000000D03*
X146582500Y-146650000D03*
X146582500Y-147000000D03*
X147417500Y-146650000D03*
D17*
X147000000Y-146625000D03*
D16*
X146582500Y-147350000D03*
D17*
X147000000Y-147375000D03*
%TD*%
D11*
%TO.C,C100*%
X167480000Y-134000000D03*
X166520000Y-134000000D03*
%TD*%
D12*
%TO.C,C145*%
X171000000Y-161020001D03*
X171000000Y-161980001D03*
%TD*%
D23*
%TO.C,TP7*%
X109500000Y-168000000D03*
%TD*%
D18*
%TO.C,U16*%
X122189284Y-151405000D03*
X122189284Y-150135000D03*
X122189284Y-148865000D03*
X122189284Y-147595000D03*
X117239284Y-147595000D03*
X117239284Y-148865000D03*
X117239284Y-150135000D03*
X117239284Y-151405000D03*
%TD*%
D16*
%TO.C,Q31*%
X197832500Y-109150001D03*
X197832500Y-109500001D03*
X198667500Y-109850001D03*
X198667500Y-109500001D03*
X197832500Y-109850001D03*
D17*
X198250000Y-109875001D03*
D16*
X198667500Y-109150001D03*
D17*
X198250000Y-109125001D03*
%TD*%
D14*
%TO.C,Q196*%
X148650000Y-168917500D03*
X149000000Y-168917500D03*
X149350000Y-168082500D03*
X149000000Y-168082500D03*
X149350000Y-168917500D03*
D15*
X149375000Y-168500000D03*
D14*
X148650000Y-168082500D03*
D15*
X148625000Y-168500000D03*
%TD*%
D16*
%TO.C,Q281*%
X210832500Y-174150001D03*
X210832500Y-174500001D03*
X211667500Y-174850001D03*
X211667500Y-174500001D03*
X210832500Y-174850001D03*
D17*
X211250000Y-174875001D03*
D16*
X211667500Y-174150001D03*
D17*
X211250000Y-174125001D03*
%TD*%
D16*
%TO.C,Q9*%
X158832500Y-109150001D03*
X158832500Y-109500001D03*
X159667500Y-109850001D03*
X159667500Y-109500001D03*
X158832500Y-109850001D03*
D17*
X159250000Y-109875001D03*
D16*
X159667500Y-109150001D03*
D17*
X159250000Y-109125001D03*
%TD*%
D11*
%TO.C,C94*%
X160980000Y-140500000D03*
X160020000Y-140500000D03*
%TD*%
D16*
%TO.C,Q145*%
X145832500Y-148150001D03*
X145832500Y-148500001D03*
X146667500Y-148850001D03*
X146667500Y-148500001D03*
X145832500Y-148850001D03*
D17*
X146250000Y-148875001D03*
D16*
X146667500Y-148150001D03*
D17*
X146250000Y-148125001D03*
%TD*%
D12*
%TO.C,C75*%
X164500000Y-128520001D03*
X164500000Y-129480001D03*
%TD*%
D16*
%TO.C,Q249*%
X158832500Y-174150001D03*
X158832500Y-174500001D03*
X159667500Y-174850001D03*
X159667500Y-174500001D03*
X158832500Y-174850001D03*
D17*
X159250000Y-174875001D03*
D16*
X159667500Y-174150001D03*
D17*
X159250000Y-174125001D03*
%TD*%
D14*
%TO.C,Q216*%
X168150000Y-162417500D03*
X168500000Y-162417500D03*
X168850000Y-161582500D03*
X168500000Y-161582500D03*
X168850000Y-162417500D03*
D15*
X168875000Y-162000000D03*
D14*
X168150000Y-161582500D03*
D15*
X168125000Y-162000000D03*
%TD*%
D19*
%TO.C,R11*%
X133204284Y-169000000D03*
X134224284Y-169000000D03*
%TD*%
D11*
%TO.C,C186*%
X212980000Y-179500000D03*
X212020000Y-179500000D03*
%TD*%
D16*
%TO.C,Q253*%
X152332500Y-180650001D03*
X152332500Y-181000001D03*
X153167500Y-181350001D03*
X153167500Y-181000001D03*
X152332500Y-181350001D03*
D17*
X152750000Y-181375001D03*
D16*
X153167500Y-180650001D03*
D17*
X152750000Y-180625001D03*
%TD*%
D16*
%TO.C,Q61*%
X152332500Y-128650001D03*
X152332500Y-129000001D03*
X153167500Y-129350001D03*
X153167500Y-129000001D03*
X152332500Y-129350001D03*
D17*
X152750000Y-129375001D03*
D16*
X153167500Y-128650001D03*
D17*
X152750000Y-128625001D03*
%TD*%
D11*
%TO.C,C70*%
X160980000Y-127500000D03*
X160020000Y-127500000D03*
%TD*%
D12*
%TO.C,C77*%
X184000000Y-122020001D03*
X184000000Y-122980001D03*
%TD*%
D11*
%TO.C,C180*%
X180480000Y-173000000D03*
X179520000Y-173000000D03*
%TD*%
D16*
%TO.C,Q121*%
X184832500Y-135150001D03*
X184832500Y-135500001D03*
X185667500Y-135850001D03*
X185667500Y-135500001D03*
X184832500Y-135850001D03*
D17*
X185250000Y-135875001D03*
D16*
X185667500Y-135150001D03*
D17*
X185250000Y-135125001D03*
%TD*%
D23*
%TO.C,TP2*%
X144500000Y-197000000D03*
%TD*%
D16*
%TO.C,Q62*%
X153917500Y-127850000D03*
X153917500Y-127500000D03*
X153082500Y-127150000D03*
X153082500Y-127500000D03*
X153917500Y-127150000D03*
D17*
X153500000Y-127125000D03*
D16*
X153082500Y-127850000D03*
D17*
X153500000Y-127875000D03*
%TD*%
D16*
%TO.C,Q102*%
X140917500Y-140850000D03*
X140917500Y-140500000D03*
X140082500Y-140150000D03*
X140082500Y-140500000D03*
X140917500Y-140150000D03*
D17*
X140500000Y-140125000D03*
D16*
X140082500Y-140850000D03*
D17*
X140500000Y-140875000D03*
%TD*%
D11*
%TO.C,C114*%
X147980000Y-153500000D03*
X147020000Y-153500000D03*
%TD*%
D22*
%TO.C,R26*%
X124214284Y-145010000D03*
X124214284Y-143990000D03*
%TD*%
D14*
%TO.C,Q191*%
X206350000Y-147832500D03*
X206000000Y-147832500D03*
X205650000Y-148667500D03*
X206000000Y-148667500D03*
X205650000Y-147832500D03*
D15*
X205625000Y-148250000D03*
D14*
X206350000Y-148667500D03*
D15*
X206375000Y-148250000D03*
%TD*%
D23*
%TO.C,TP4*%
X114000000Y-111500000D03*
%TD*%
D19*
%TO.C,R6*%
X133204284Y-123500000D03*
X134224284Y-123500000D03*
%TD*%
D13*
%TO.C,RN11*%
X215500000Y-190600000D03*
X214500000Y-190600000D03*
X214500000Y-192400000D03*
X215500000Y-192400000D03*
%TD*%
D16*
%TO.C,Q10*%
X160417500Y-108350000D03*
X160417500Y-108000000D03*
X159582500Y-107650000D03*
X159582500Y-108000000D03*
X160417500Y-107650000D03*
D17*
X160000000Y-107625000D03*
D16*
X159582500Y-108350000D03*
D17*
X160000000Y-108375000D03*
%TD*%
D11*
%TO.C,C20*%
X134194284Y-183000000D03*
X133234284Y-183000000D03*
%TD*%
%TO.C,C31*%
X167480000Y-108000000D03*
X166520000Y-108000000D03*
%TD*%
D14*
%TO.C,Q116*%
X174650000Y-142917500D03*
X175000000Y-142917500D03*
X175350000Y-142082500D03*
X175000000Y-142082500D03*
X175350000Y-142917500D03*
D15*
X175375000Y-142500000D03*
D14*
X174650000Y-142082500D03*
D15*
X174625000Y-142500000D03*
%TD*%
D14*
%TO.C,Q71*%
X167350000Y-121832500D03*
X167000000Y-121832500D03*
X166650000Y-122667500D03*
X167000000Y-122667500D03*
X166650000Y-121832500D03*
D15*
X166625000Y-122250000D03*
D14*
X167350000Y-122667500D03*
D15*
X167375000Y-122250000D03*
%TD*%
D16*
%TO.C,Q24*%
X186417500Y-108350000D03*
X186417500Y-108000000D03*
X185582500Y-107650000D03*
X185582500Y-108000000D03*
X186417500Y-107650000D03*
D17*
X186000000Y-107625000D03*
D16*
X185582500Y-108350000D03*
D17*
X186000000Y-108375000D03*
%TD*%
D14*
%TO.C,Q200*%
X142150000Y-162417500D03*
X142500000Y-162417500D03*
X142850000Y-161582500D03*
X142500000Y-161582500D03*
X142850000Y-162417500D03*
D15*
X142875000Y-162000000D03*
D14*
X142150000Y-161582500D03*
D15*
X142125000Y-162000000D03*
%TD*%
D16*
%TO.C,Q86*%
X192917500Y-127850000D03*
X192917500Y-127500000D03*
X192082500Y-127150000D03*
X192082500Y-127500000D03*
X192917500Y-127150000D03*
D17*
X192500000Y-127125000D03*
D16*
X192082500Y-127850000D03*
D17*
X192500000Y-127875000D03*
%TD*%
D11*
%TO.C,C19*%
X134194284Y-176500000D03*
X133234284Y-176500000D03*
%TD*%
D12*
%TO.C,C32*%
X184000000Y-109020001D03*
X184000000Y-109980001D03*
%TD*%
D14*
%TO.C,Q2*%
X142150000Y-110417500D03*
X142500000Y-110417500D03*
X142850000Y-109582500D03*
X142500000Y-109582500D03*
X142850000Y-110417500D03*
D15*
X142875000Y-110000000D03*
D14*
X142150000Y-109582500D03*
D15*
X142125000Y-110000000D03*
%TD*%
D16*
%TO.C,Q82*%
X199417500Y-121350000D03*
X199417500Y-121000000D03*
X198582500Y-120650000D03*
X198582500Y-121000000D03*
X199417500Y-120650000D03*
D17*
X199000000Y-120625000D03*
D16*
X198582500Y-121350000D03*
D17*
X199000000Y-121375000D03*
%TD*%
D18*
%TO.C,U18*%
X122189284Y-157905000D03*
X122189284Y-156635000D03*
X122189284Y-155365000D03*
X122189284Y-154095000D03*
X117239284Y-154095000D03*
X117239284Y-155365000D03*
X117239284Y-156635000D03*
X117239284Y-157905000D03*
%TD*%
D16*
%TO.C,Q273*%
X197832500Y-174150001D03*
X197832500Y-174500001D03*
X198667500Y-174850001D03*
X198667500Y-174500001D03*
X197832500Y-174850001D03*
D17*
X198250000Y-174875001D03*
D16*
X198667500Y-174150001D03*
D17*
X198250000Y-174125001D03*
%TD*%
D12*
%TO.C,C67*%
X138500000Y-128520001D03*
X138500000Y-129480001D03*
%TD*%
D14*
%TO.C,Q79*%
X180350000Y-121832500D03*
X180000000Y-121832500D03*
X179650000Y-122667500D03*
X180000000Y-122667500D03*
X179650000Y-121832500D03*
D15*
X179625000Y-122250000D03*
D14*
X180350000Y-122667500D03*
D15*
X180375000Y-122250000D03*
%TD*%
D14*
%TO.C,Q268*%
X187650000Y-181917500D03*
X188000000Y-181917500D03*
X188350000Y-181082500D03*
X188000000Y-181082500D03*
X188350000Y-181917500D03*
D15*
X188375000Y-181500000D03*
D14*
X187650000Y-181082500D03*
D15*
X187625000Y-181500000D03*
%TD*%
D16*
%TO.C,Q170*%
X186417500Y-147350000D03*
X186417500Y-147000000D03*
X185582500Y-146650000D03*
X185582500Y-147000000D03*
X186417500Y-146650000D03*
D17*
X186000000Y-146625000D03*
D16*
X185582500Y-147350000D03*
D17*
X186000000Y-147375000D03*
%TD*%
D14*
%TO.C,Q43*%
X212850000Y-115332500D03*
X212500000Y-115332500D03*
X212150000Y-116167500D03*
X212500000Y-116167500D03*
X212150000Y-115332500D03*
D15*
X212125000Y-115750000D03*
D14*
X212850000Y-116167500D03*
D15*
X212875000Y-115750000D03*
%TD*%
D13*
%TO.C,RN1*%
X105000000Y-172900000D03*
X106000000Y-172900000D03*
X106000000Y-171100000D03*
X105000000Y-171100000D03*
%TD*%
D11*
%TO.C,C66*%
X147980000Y-127500000D03*
X147020000Y-127500000D03*
%TD*%
D16*
%TO.C,Q106*%
X160417500Y-134350000D03*
X160417500Y-134000000D03*
X159582500Y-133650000D03*
X159582500Y-134000000D03*
X160417500Y-133650000D03*
D17*
X160000000Y-133625000D03*
D16*
X159582500Y-134350000D03*
D17*
X160000000Y-134375000D03*
%TD*%
D11*
%TO.C,C156*%
X193480000Y-160000000D03*
X192520000Y-160000000D03*
%TD*%
D14*
%TO.C,Q64*%
X155150000Y-123417500D03*
X155500000Y-123417500D03*
X155850000Y-122582500D03*
X155500000Y-122582500D03*
X155850000Y-123417500D03*
D15*
X155875000Y-123000000D03*
D14*
X155150000Y-122582500D03*
D15*
X155125000Y-123000000D03*
%TD*%
D14*
%TO.C,Q176*%
X181150000Y-149417500D03*
X181500000Y-149417500D03*
X181850000Y-148582500D03*
X181500000Y-148582500D03*
X181850000Y-149417500D03*
D15*
X181875000Y-149000000D03*
D14*
X181150000Y-148582500D03*
D15*
X181125000Y-149000000D03*
%TD*%
D12*
%TO.C,C43*%
X203500000Y-115520001D03*
X203500000Y-116480001D03*
%TD*%
%TO.C,C127*%
X177500000Y-154520001D03*
X177500000Y-155480001D03*
%TD*%
D16*
%TO.C,Q130*%
X199417500Y-134350000D03*
X199417500Y-134000000D03*
X198582500Y-133650000D03*
X198582500Y-134000000D03*
X199417500Y-133650000D03*
D17*
X199000000Y-133625000D03*
D16*
X198582500Y-134350000D03*
D17*
X199000000Y-134375000D03*
%TD*%
D14*
%TO.C,Q172*%
X187650000Y-155917500D03*
X188000000Y-155917500D03*
X188350000Y-155082500D03*
X188000000Y-155082500D03*
X188350000Y-155917500D03*
D15*
X188375000Y-155500000D03*
D14*
X187650000Y-155082500D03*
D15*
X187625000Y-155500000D03*
%TD*%
D14*
%TO.C,Q103*%
X141350000Y-134832500D03*
X141000000Y-134832500D03*
X140650000Y-135667500D03*
X141000000Y-135667500D03*
X140650000Y-134832500D03*
D15*
X140625000Y-135250000D03*
D14*
X141350000Y-135667500D03*
D15*
X141375000Y-135250000D03*
%TD*%
D14*
%TO.C,Q279*%
X193350000Y-173832500D03*
X193000000Y-173832500D03*
X192650000Y-174667500D03*
X193000000Y-174667500D03*
X192650000Y-173832500D03*
D15*
X192625000Y-174250000D03*
D14*
X193350000Y-174667500D03*
D15*
X193375000Y-174250000D03*
%TD*%
D22*
%TO.C,R35*%
X124214284Y-164510000D03*
X124214284Y-163490000D03*
%TD*%
D18*
%TO.C,U11*%
X131189284Y-131905000D03*
X131189284Y-130635000D03*
X131189284Y-129365000D03*
X131189284Y-128095000D03*
X126239284Y-128095000D03*
X126239284Y-129365000D03*
X126239284Y-130635000D03*
X126239284Y-131905000D03*
%TD*%
D14*
%TO.C,Q244*%
X148650000Y-181917500D03*
X149000000Y-181917500D03*
X149350000Y-181082500D03*
X149000000Y-181082500D03*
X149350000Y-181917500D03*
D15*
X149375000Y-181500000D03*
D14*
X148650000Y-181082500D03*
D15*
X148625000Y-181500000D03*
%TD*%
D11*
%TO.C,C144*%
X154480000Y-160000000D03*
X153520000Y-160000000D03*
%TD*%
D14*
%TO.C,Q48*%
X207150000Y-110417500D03*
X207500000Y-110417500D03*
X207850000Y-109582500D03*
X207500000Y-109582500D03*
X207850000Y-110417500D03*
D15*
X207875000Y-110000000D03*
D14*
X207150000Y-109582500D03*
D15*
X207125000Y-110000000D03*
%TD*%
D14*
%TO.C,Q115*%
X173850000Y-141332500D03*
X173500000Y-141332500D03*
X173150000Y-142167500D03*
X173500000Y-142167500D03*
X173150000Y-141332500D03*
D15*
X173125000Y-141750000D03*
D14*
X173850000Y-142167500D03*
D15*
X173875000Y-141750000D03*
%TD*%
D14*
%TO.C,Q147*%
X147850000Y-154332500D03*
X147500000Y-154332500D03*
X147150000Y-155167500D03*
X147500000Y-155167500D03*
X147150000Y-154332500D03*
D15*
X147125000Y-154750000D03*
D14*
X147850000Y-155167500D03*
D15*
X147875000Y-154750000D03*
%TD*%
D11*
%TO.C,C16*%
X134194284Y-157000000D03*
X133234284Y-157000000D03*
%TD*%
D16*
%TO.C,Q15*%
X171832500Y-109150001D03*
X171832500Y-109500001D03*
X172667500Y-109850001D03*
X172667500Y-109500001D03*
X171832500Y-109850001D03*
D17*
X172250000Y-109875001D03*
D16*
X172667500Y-109150001D03*
D17*
X172250000Y-109125001D03*
%TD*%
D16*
%TO.C,Q197*%
X139332500Y-167650001D03*
X139332500Y-168000001D03*
X140167500Y-168350001D03*
X140167500Y-168000001D03*
X139332500Y-168350001D03*
D17*
X139750000Y-168375001D03*
D16*
X140167500Y-167650001D03*
D17*
X139750000Y-167625001D03*
%TD*%
D13*
%TO.C,RN2*%
X153500000Y-190600000D03*
X152500000Y-190600000D03*
X152500000Y-192400000D03*
X153500000Y-192400000D03*
%TD*%
D19*
%TO.C,R4*%
X133204284Y-110500000D03*
X134224284Y-110500000D03*
%TD*%
D18*
%TO.C,U9*%
X131189284Y-125405000D03*
X131189284Y-124135000D03*
X131189284Y-122865000D03*
X131189284Y-121595000D03*
X126239284Y-121595000D03*
X126239284Y-122865000D03*
X126239284Y-124135000D03*
X126239284Y-125405000D03*
%TD*%
D27*
%TO.C,U1*%
X132175000Y-202500000D03*
X132175000Y-202000000D03*
X132175000Y-201500000D03*
X132175000Y-201000000D03*
X132175000Y-200500000D03*
X132175000Y-200000000D03*
X132175000Y-199500000D03*
X132175000Y-199000000D03*
X132175000Y-198500000D03*
X132175000Y-198000000D03*
X132175000Y-197500000D03*
X132175000Y-197000000D03*
X132175000Y-196500000D03*
X132175000Y-196000000D03*
X132175000Y-195500000D03*
X132175000Y-195000000D03*
X132175000Y-194500000D03*
X132175000Y-194000000D03*
X132175000Y-193500000D03*
X132175000Y-193000000D03*
X132175000Y-192500000D03*
X132175000Y-192000000D03*
X132175000Y-191500000D03*
X132175000Y-191000000D03*
X132175000Y-190500000D03*
D28*
X130500000Y-188825000D03*
X130000000Y-188825000D03*
X129500000Y-188825000D03*
X129000000Y-188825000D03*
X128500000Y-188825000D03*
X128000000Y-188825000D03*
X127500000Y-188825000D03*
X127000000Y-188825000D03*
X126500000Y-188825000D03*
X126000000Y-188825000D03*
X125500000Y-188825000D03*
X125000000Y-188825000D03*
X124500000Y-188825000D03*
X124000000Y-188825000D03*
X123500000Y-188825000D03*
X123000000Y-188825000D03*
X122500000Y-188825000D03*
X122000000Y-188825000D03*
X121500000Y-188825000D03*
X121000000Y-188825000D03*
X120500000Y-188825000D03*
X120000000Y-188825000D03*
X119500000Y-188825000D03*
X119000000Y-188825000D03*
X118500000Y-188825000D03*
D27*
X116825000Y-190500000D03*
X116825000Y-191000000D03*
X116825000Y-191500000D03*
X116825000Y-192000000D03*
X116825000Y-192500000D03*
X116825000Y-193000000D03*
X116825000Y-193500000D03*
X116825000Y-194000000D03*
X116825000Y-194500000D03*
X116825000Y-195000000D03*
X116825000Y-195500000D03*
X116825000Y-196000000D03*
X116825000Y-196500000D03*
X116825000Y-197000000D03*
X116825000Y-197500000D03*
X116825000Y-198000000D03*
X116825000Y-198500000D03*
X116825000Y-199000000D03*
X116825000Y-199500000D03*
X116825000Y-200000000D03*
X116825000Y-200500000D03*
X116825000Y-201000000D03*
X116825000Y-201500000D03*
X116825000Y-202000000D03*
X116825000Y-202500000D03*
D28*
X118500000Y-204175000D03*
X119000000Y-204175000D03*
X119500000Y-204175000D03*
X120000000Y-204175000D03*
X120500000Y-204175000D03*
X121000000Y-204175000D03*
X121500000Y-204175000D03*
X122000000Y-204175000D03*
X122500000Y-204175000D03*
X123000000Y-204175000D03*
X123500000Y-204175000D03*
X124000000Y-204175000D03*
X124500000Y-204175000D03*
X125000000Y-204175000D03*
X125500000Y-204175000D03*
X126000000Y-204175000D03*
X126500000Y-204175000D03*
X127000000Y-204175000D03*
X127500000Y-204175000D03*
X128000000Y-204175000D03*
X128500000Y-204175000D03*
X129000000Y-204175000D03*
X129500000Y-204175000D03*
X130000000Y-204175000D03*
X130500000Y-204175000D03*
%TD*%
D16*
%TO.C,Q122*%
X186417500Y-134350000D03*
X186417500Y-134000000D03*
X185582500Y-133650000D03*
X185582500Y-134000000D03*
X186417500Y-133650000D03*
D17*
X186000000Y-133625000D03*
D16*
X185582500Y-134350000D03*
D17*
X186000000Y-134375000D03*
%TD*%
D16*
%TO.C,Q137*%
X210832500Y-135150001D03*
X210832500Y-135500001D03*
X211667500Y-135850001D03*
X211667500Y-135500001D03*
X210832500Y-135850001D03*
D17*
X211250000Y-135875001D03*
D16*
X211667500Y-135150001D03*
D17*
X211250000Y-135125001D03*
%TD*%
D14*
%TO.C,Q123*%
X186850000Y-141332500D03*
X186500000Y-141332500D03*
X186150000Y-142167500D03*
X186500000Y-142167500D03*
X186150000Y-141332500D03*
D15*
X186125000Y-141750000D03*
D14*
X186850000Y-142167500D03*
D15*
X186875000Y-141750000D03*
%TD*%
D11*
%TO.C,C78*%
X186980000Y-127500000D03*
X186020000Y-127500000D03*
%TD*%
D16*
%TO.C,Q181*%
X191332500Y-154650001D03*
X191332500Y-155000001D03*
X192167500Y-155350001D03*
X192167500Y-155000001D03*
X191332500Y-155350001D03*
D17*
X191750000Y-155375001D03*
D16*
X192167500Y-154650001D03*
D17*
X191750000Y-154625001D03*
%TD*%
D13*
%TO.C,RN13*%
X150500000Y-190600000D03*
X149500000Y-190600000D03*
X149500000Y-192400000D03*
X150500000Y-192400000D03*
%TD*%
D16*
%TO.C,Q36*%
X192917500Y-114850000D03*
X192917500Y-114500000D03*
X192082500Y-114150000D03*
X192082500Y-114500000D03*
X192917500Y-114150000D03*
D17*
X192500000Y-114125000D03*
D16*
X192082500Y-114850000D03*
D17*
X192500000Y-114875000D03*
%TD*%
D14*
%TO.C,Q251*%
X160850000Y-180332500D03*
X160500000Y-180332500D03*
X160150000Y-181167500D03*
X160500000Y-181167500D03*
X160150000Y-180332500D03*
D15*
X160125000Y-180750000D03*
D14*
X160850000Y-181167500D03*
D15*
X160875000Y-180750000D03*
%TD*%
D14*
%TO.C,Q271*%
X180350000Y-173832500D03*
X180000000Y-173832500D03*
X179650000Y-174667500D03*
X180000000Y-174667500D03*
X179650000Y-173832500D03*
D15*
X179625000Y-174250000D03*
D14*
X180350000Y-174667500D03*
D15*
X180375000Y-174250000D03*
%TD*%
D11*
%TO.C,C37*%
X199980000Y-114500000D03*
X199020000Y-114500000D03*
%TD*%
D16*
%TO.C,Q19*%
X165332500Y-115650001D03*
X165332500Y-116000001D03*
X166167500Y-116350001D03*
X166167500Y-116000001D03*
X165332500Y-116350001D03*
D17*
X165750000Y-116375001D03*
D16*
X166167500Y-115650001D03*
D17*
X165750000Y-115625001D03*
%TD*%
D11*
%TO.C,C2*%
X136480000Y-193000000D03*
X135520000Y-193000000D03*
%TD*%
D12*
%TO.C,C123*%
X164500000Y-154520001D03*
X164500000Y-155480001D03*
%TD*%
D14*
%TO.C,Q183*%
X193350000Y-147832500D03*
X193000000Y-147832500D03*
X192650000Y-148667500D03*
X193000000Y-148667500D03*
X192650000Y-147832500D03*
D15*
X192625000Y-148250000D03*
D14*
X193350000Y-148667500D03*
D15*
X193375000Y-148250000D03*
%TD*%
D11*
%TO.C,C72*%
X154480000Y-121000000D03*
X153520000Y-121000000D03*
%TD*%
D12*
%TO.C,C119*%
X151500000Y-154520001D03*
X151500000Y-155480001D03*
%TD*%
D11*
%TO.C,C188*%
X206480000Y-173000000D03*
X205520000Y-173000000D03*
%TD*%
D18*
%TO.C,U8*%
X122189284Y-125405000D03*
X122189284Y-124135000D03*
X122189284Y-122865000D03*
X122189284Y-121595000D03*
X117239284Y-121595000D03*
X117239284Y-122865000D03*
X117239284Y-124135000D03*
X117239284Y-125405000D03*
%TD*%
D11*
%TO.C,C104*%
X180480000Y-134000000D03*
X179520000Y-134000000D03*
%TD*%
D12*
%TO.C,C125*%
X184000000Y-148020001D03*
X184000000Y-148980001D03*
%TD*%
D22*
%TO.C,R44*%
X124214284Y-184010000D03*
X124214284Y-182990000D03*
%TD*%
D18*
%TO.C,U22*%
X122189284Y-170905000D03*
X122189284Y-169635000D03*
X122189284Y-168365000D03*
X122189284Y-167095000D03*
X117239284Y-167095000D03*
X117239284Y-168365000D03*
X117239284Y-169635000D03*
X117239284Y-170905000D03*
%TD*%
D11*
%TO.C,C146*%
X173980000Y-166500000D03*
X173020000Y-166500000D03*
%TD*%
%TO.C,C76*%
X167480000Y-121000000D03*
X166520000Y-121000000D03*
%TD*%
D16*
%TO.C,Q210*%
X173417500Y-160350000D03*
X173417500Y-160000000D03*
X172582500Y-159650000D03*
X172582500Y-160000000D03*
X173417500Y-159650000D03*
D17*
X173000000Y-159625000D03*
D16*
X172582500Y-160350000D03*
D17*
X173000000Y-160375000D03*
%TD*%
D11*
%TO.C,C12*%
X134194284Y-131000000D03*
X133234284Y-131000000D03*
%TD*%
D12*
%TO.C,C38*%
X190500000Y-115520001D03*
X190500000Y-116480001D03*
%TD*%
D14*
%TO.C,Q283*%
X212850000Y-180332500D03*
X212500000Y-180332500D03*
X212150000Y-181167500D03*
X212500000Y-181167500D03*
X212150000Y-180332500D03*
D15*
X212125000Y-180750000D03*
D14*
X212850000Y-181167500D03*
D15*
X212875000Y-180750000D03*
%TD*%
D14*
%TO.C,Q175*%
X180350000Y-147832500D03*
X180000000Y-147832500D03*
X179650000Y-148667500D03*
X180000000Y-148667500D03*
X179650000Y-147832500D03*
D15*
X179625000Y-148250000D03*
D14*
X180350000Y-148667500D03*
D15*
X180375000Y-148250000D03*
%TD*%
D16*
%TO.C,Q177*%
X197832500Y-148150001D03*
X197832500Y-148500001D03*
X198667500Y-148850001D03*
X198667500Y-148500001D03*
X197832500Y-148850001D03*
D17*
X198250000Y-148875001D03*
D16*
X198667500Y-148150001D03*
D17*
X198250000Y-148125001D03*
%TD*%
D16*
%TO.C,Q138*%
X212417500Y-134350000D03*
X212417500Y-134000000D03*
X211582500Y-133650000D03*
X211582500Y-134000000D03*
X212417500Y-133650000D03*
D17*
X212000000Y-133625000D03*
D16*
X211582500Y-134350000D03*
D17*
X212000000Y-134375000D03*
%TD*%
D16*
%TO.C,Q169*%
X184832500Y-148150001D03*
X184832500Y-148500001D03*
X185667500Y-148850001D03*
X185667500Y-148500001D03*
X184832500Y-148850001D03*
D17*
X185250000Y-148875001D03*
D16*
X185667500Y-148150001D03*
D17*
X185250000Y-148125001D03*
%TD*%
D12*
%TO.C,C187*%
X203500000Y-180520001D03*
X203500000Y-181480001D03*
%TD*%
D14*
%TO.C,Q92*%
X213650000Y-129917500D03*
X214000000Y-129917500D03*
X214350000Y-129082500D03*
X214000000Y-129082500D03*
X214350000Y-129917500D03*
D15*
X214375000Y-129500000D03*
D14*
X213650000Y-129082500D03*
D15*
X213625000Y-129500000D03*
%TD*%
D12*
%TO.C,C109*%
X210000000Y-135020001D03*
X210000000Y-135980001D03*
%TD*%
%TO.C,C27*%
X151500000Y-115520001D03*
X151500000Y-116480001D03*
%TD*%
D14*
%TO.C,Q84*%
X200650000Y-129917500D03*
X201000000Y-129917500D03*
X201350000Y-129082500D03*
X201000000Y-129082500D03*
X201350000Y-129917500D03*
D15*
X201375000Y-129500000D03*
D14*
X200650000Y-129082500D03*
D15*
X200625000Y-129500000D03*
%TD*%
D12*
%TO.C,C135*%
X203500000Y-154520001D03*
X203500000Y-155480001D03*
%TD*%
D14*
%TO.C,Q124*%
X187650000Y-142917500D03*
X188000000Y-142917500D03*
X188350000Y-142082500D03*
X188000000Y-142082500D03*
X188350000Y-142917500D03*
D15*
X188375000Y-142500000D03*
D14*
X187650000Y-142082500D03*
D15*
X187625000Y-142500000D03*
%TD*%
D16*
%TO.C,Q226*%
X199417500Y-160350000D03*
X199417500Y-160000000D03*
X198582500Y-159650000D03*
X198582500Y-160000000D03*
X199417500Y-159650000D03*
D17*
X199000000Y-159625000D03*
D16*
X198582500Y-160350000D03*
D17*
X199000000Y-160375000D03*
%TD*%
D12*
%TO.C,C163*%
X203500000Y-167520001D03*
X203500000Y-168480001D03*
%TD*%
D11*
%TO.C,C26*%
X160980000Y-114500000D03*
X160020000Y-114500000D03*
%TD*%
D16*
%TO.C,Q246*%
X140917500Y-179850000D03*
X140917500Y-179500000D03*
X140082500Y-179150000D03*
X140082500Y-179500000D03*
X140917500Y-179150000D03*
D17*
X140500000Y-179125000D03*
D16*
X140082500Y-179850000D03*
D17*
X140500000Y-179875000D03*
%TD*%
D16*
%TO.C,Q93*%
X204332500Y-128650001D03*
X204332500Y-129000001D03*
X205167500Y-129350001D03*
X205167500Y-129000001D03*
X204332500Y-129350001D03*
D17*
X204750000Y-129375001D03*
D16*
X205167500Y-128650001D03*
D17*
X204750000Y-128625001D03*
%TD*%
D14*
%TO.C,Q100*%
X148650000Y-142917500D03*
X149000000Y-142917500D03*
X149350000Y-142082500D03*
X149000000Y-142082500D03*
X149350000Y-142917500D03*
D15*
X149375000Y-142500000D03*
D14*
X148650000Y-142082500D03*
D15*
X148625000Y-142500000D03*
%TD*%
D11*
%TO.C,C18*%
X134194284Y-170000000D03*
X133234284Y-170000000D03*
%TD*%
D14*
%TO.C,Q91*%
X212850000Y-128332500D03*
X212500000Y-128332500D03*
X212150000Y-129167500D03*
X212500000Y-129167500D03*
X212150000Y-128332500D03*
D15*
X212125000Y-128750000D03*
D14*
X212850000Y-129167500D03*
D15*
X212875000Y-128750000D03*
%TD*%
D16*
%TO.C,Q14*%
X153917500Y-114850000D03*
X153917500Y-114500000D03*
X153082500Y-114150000D03*
X153082500Y-114500000D03*
X153917500Y-114150000D03*
D17*
X153500000Y-114125000D03*
D16*
X153082500Y-114850000D03*
D17*
X153500000Y-114875000D03*
%TD*%
D12*
%TO.C,C71*%
X151500000Y-128520001D03*
X151500000Y-129480001D03*
%TD*%
D14*
%TO.C,Q30*%
X181150000Y-110417500D03*
X181500000Y-110417500D03*
X181850000Y-109582500D03*
X181500000Y-109582500D03*
X181850000Y-110417500D03*
D15*
X181875000Y-110000000D03*
D14*
X181150000Y-109582500D03*
D15*
X181125000Y-110000000D03*
%TD*%
D11*
%TO.C,C44*%
X206480000Y-108000000D03*
X205520000Y-108000000D03*
%TD*%
D12*
%TO.C,C155*%
X190500000Y-167520001D03*
X190500000Y-168480001D03*
%TD*%
D19*
%TO.C,R10*%
X133204284Y-149000000D03*
X134224284Y-149000000D03*
%TD*%
D14*
%TO.C,Q33*%
X199850000Y-115332500D03*
X199500000Y-115332500D03*
X199150000Y-116167500D03*
X199500000Y-116167500D03*
X199150000Y-115332500D03*
D15*
X199125000Y-115750000D03*
D14*
X199850000Y-116167500D03*
D15*
X199875000Y-115750000D03*
%TD*%
D18*
%TO.C,U29*%
X122189284Y-112405000D03*
X122189284Y-111135000D03*
X122189284Y-109865000D03*
X122189284Y-108595000D03*
X117239284Y-108595000D03*
X117239284Y-109865000D03*
X117239284Y-111135000D03*
X117239284Y-112405000D03*
%TD*%
D19*
%TO.C,R9*%
X133204284Y-156000000D03*
X134224284Y-156000000D03*
%TD*%
D16*
%TO.C,Q218*%
X186417500Y-160350000D03*
X186417500Y-160000000D03*
X185582500Y-159650000D03*
X185582500Y-160000000D03*
X186417500Y-159650000D03*
D17*
X186000000Y-159625000D03*
D16*
X185582500Y-160350000D03*
D17*
X186000000Y-160375000D03*
%TD*%
D12*
%TO.C,C177*%
X184000000Y-174020001D03*
X184000000Y-174980001D03*
%TD*%
D14*
%TO.C,Q55*%
X141350000Y-121832500D03*
X141000000Y-121832500D03*
X140650000Y-122667500D03*
X141000000Y-122667500D03*
X140650000Y-121832500D03*
D15*
X140625000Y-122250000D03*
D14*
X141350000Y-122667500D03*
D15*
X141375000Y-122250000D03*
%TD*%
D14*
%TO.C,Q17*%
X173850000Y-115332500D03*
X173500000Y-115332500D03*
X173150000Y-116167500D03*
X173500000Y-116167500D03*
X173150000Y-115332500D03*
D15*
X173125000Y-115750000D03*
D14*
X173850000Y-116167500D03*
D15*
X173875000Y-115750000D03*
%TD*%
D16*
%TO.C,Q46*%
X205917500Y-114850000D03*
X205917500Y-114500000D03*
X205082500Y-114150000D03*
X205082500Y-114500000D03*
X205917500Y-114150000D03*
D17*
X205500000Y-114125000D03*
D16*
X205082500Y-114850000D03*
D17*
X205500000Y-114875000D03*
%TD*%
D11*
%TO.C,C116*%
X141480000Y-147000000D03*
X140520000Y-147000000D03*
%TD*%
D22*
%TO.C,R50*%
X124214284Y-119010000D03*
X124214284Y-117990000D03*
%TD*%
D14*
%TO.C,Q120*%
X168150000Y-136417500D03*
X168500000Y-136417500D03*
X168850000Y-135582500D03*
X168500000Y-135582500D03*
X168850000Y-136417500D03*
D15*
X168875000Y-136000000D03*
D14*
X168150000Y-135582500D03*
D15*
X168125000Y-136000000D03*
%TD*%
D22*
%TO.C,R20*%
X124214284Y-132010000D03*
X124214284Y-130990000D03*
%TD*%
D14*
%TO.C,Q131*%
X199850000Y-141332500D03*
X199500000Y-141332500D03*
X199150000Y-142167500D03*
X199500000Y-142167500D03*
X199150000Y-141332500D03*
D15*
X199125000Y-141750000D03*
D14*
X199850000Y-142167500D03*
D15*
X199875000Y-141750000D03*
%TD*%
D16*
%TO.C,Q262*%
X166917500Y-179850000D03*
X166917500Y-179500000D03*
X166082500Y-179150000D03*
X166082500Y-179500000D03*
X166917500Y-179150000D03*
D17*
X166500000Y-179125000D03*
D16*
X166082500Y-179850000D03*
D17*
X166500000Y-179875000D03*
%TD*%
D14*
%TO.C,Q22*%
X168150000Y-110417500D03*
X168500000Y-110417500D03*
X168850000Y-109582500D03*
X168500000Y-109582500D03*
X168850000Y-110417500D03*
D15*
X168875000Y-110000000D03*
D14*
X168150000Y-109582500D03*
D15*
X168125000Y-110000000D03*
%TD*%
D11*
%TO.C,C126*%
X186980000Y-153500000D03*
X186020000Y-153500000D03*
%TD*%
D16*
%TO.C,Q161*%
X171832500Y-148150001D03*
X171832500Y-148500001D03*
X172667500Y-148850001D03*
X172667500Y-148500001D03*
X171832500Y-148850001D03*
D17*
X172250000Y-148875001D03*
D16*
X172667500Y-148150001D03*
D17*
X172250000Y-148125001D03*
%TD*%
D14*
%TO.C,Q228*%
X200650000Y-168917500D03*
X201000000Y-168917500D03*
X201350000Y-168082500D03*
X201000000Y-168082500D03*
X201350000Y-168917500D03*
D15*
X201375000Y-168500000D03*
D14*
X200650000Y-168082500D03*
D15*
X200625000Y-168500000D03*
%TD*%
D14*
%TO.C,Q171*%
X186850000Y-154332500D03*
X186500000Y-154332500D03*
X186150000Y-155167500D03*
X186500000Y-155167500D03*
X186150000Y-154332500D03*
D15*
X186125000Y-154750000D03*
D14*
X186850000Y-155167500D03*
D15*
X186875000Y-154750000D03*
%TD*%
D14*
%TO.C,Q80*%
X181150000Y-123417500D03*
X181500000Y-123417500D03*
X181850000Y-122582500D03*
X181500000Y-122582500D03*
X181850000Y-123417500D03*
D15*
X181875000Y-123000000D03*
D14*
X181150000Y-122582500D03*
D15*
X181125000Y-123000000D03*
%TD*%
D16*
%TO.C,Q285*%
X204332500Y-180650001D03*
X204332500Y-181000001D03*
X205167500Y-181350001D03*
X205167500Y-181000001D03*
X204332500Y-181350001D03*
D17*
X204750000Y-181375001D03*
D16*
X205167500Y-180650001D03*
D17*
X204750000Y-180625001D03*
%TD*%
D16*
%TO.C,Q42*%
X212417500Y-108350000D03*
X212417500Y-108000000D03*
X211582500Y-107650000D03*
X211582500Y-108000000D03*
X212417500Y-107650000D03*
D17*
X212000000Y-107625000D03*
D16*
X211582500Y-108350000D03*
D17*
X212000000Y-108375000D03*
%TD*%
D11*
%TO.C,C130*%
X199980000Y-153500000D03*
X199020000Y-153500000D03*
%TD*%
D14*
%TO.C,Q219*%
X186850000Y-167332500D03*
X186500000Y-167332500D03*
X186150000Y-168167500D03*
X186500000Y-168167500D03*
X186150000Y-167332500D03*
D15*
X186125000Y-167750000D03*
D14*
X186850000Y-168167500D03*
D15*
X186875000Y-167750000D03*
%TD*%
D16*
%TO.C,Q162*%
X173417500Y-147350000D03*
X173417500Y-147000000D03*
X172582500Y-146650000D03*
X172582500Y-147000000D03*
X173417500Y-146650000D03*
D17*
X173000000Y-146625000D03*
D16*
X172582500Y-147350000D03*
D17*
X173000000Y-147375000D03*
%TD*%
D11*
%TO.C,C74*%
X173980000Y-127500000D03*
X173020000Y-127500000D03*
%TD*%
D14*
%TO.C,Q63*%
X154350000Y-121832500D03*
X154000000Y-121832500D03*
X153650000Y-122667500D03*
X154000000Y-122667500D03*
X153650000Y-121832500D03*
D15*
X153625000Y-122250000D03*
D14*
X154350000Y-122667500D03*
D15*
X154375000Y-122250000D03*
%TD*%
D14*
%TO.C,Q39*%
X154350000Y-108832500D03*
X154000000Y-108832500D03*
X153650000Y-109667500D03*
X154000000Y-109667500D03*
X153650000Y-108832500D03*
D15*
X153625000Y-109250000D03*
D14*
X154350000Y-109667500D03*
D15*
X154375000Y-109250000D03*
%TD*%
D23*
%TO.C,TP1*%
X148000000Y-197000000D03*
%TD*%
D16*
%TO.C,Q217*%
X184832500Y-161150001D03*
X184832500Y-161500001D03*
X185667500Y-161850001D03*
X185667500Y-161500001D03*
X184832500Y-161850001D03*
D17*
X185250000Y-161875001D03*
D16*
X185667500Y-161150001D03*
D17*
X185250000Y-161125001D03*
%TD*%
D14*
%TO.C,Q96*%
X207150000Y-123417500D03*
X207500000Y-123417500D03*
X207850000Y-122582500D03*
X207500000Y-122582500D03*
X207850000Y-123417500D03*
D15*
X207875000Y-123000000D03*
D14*
X207150000Y-122582500D03*
D15*
X207125000Y-123000000D03*
%TD*%
D16*
%TO.C,Q85*%
X191332500Y-128650001D03*
X191332500Y-129000001D03*
X192167500Y-129350001D03*
X192167500Y-129000001D03*
X191332500Y-129350001D03*
D17*
X191750000Y-129375001D03*
D16*
X192167500Y-128650001D03*
D17*
X191750000Y-128625001D03*
%TD*%
D16*
%TO.C,Q105*%
X158832500Y-135150001D03*
X158832500Y-135500001D03*
X159667500Y-135850001D03*
X159667500Y-135500001D03*
X158832500Y-135850001D03*
D17*
X159250000Y-135875001D03*
D16*
X159667500Y-135150001D03*
D17*
X159250000Y-135125001D03*
%TD*%
D12*
%TO.C,C69*%
X158000000Y-122020001D03*
X158000000Y-122980001D03*
%TD*%
D16*
%TO.C,Q35*%
X191332500Y-115650001D03*
X191332500Y-116000001D03*
X192167500Y-116350001D03*
X192167500Y-116000001D03*
X191332500Y-116350001D03*
D17*
X191750000Y-116375001D03*
D16*
X192167500Y-115650001D03*
D17*
X191750000Y-115625001D03*
%TD*%
D23*
%TO.C,TP5*%
X105500000Y-168000000D03*
%TD*%
D11*
%TO.C,C150*%
X186980000Y-166500000D03*
X186020000Y-166500000D03*
%TD*%
D12*
%TO.C,C117*%
X158000000Y-148020001D03*
X158000000Y-148980001D03*
%TD*%
%TO.C,C181*%
X197000000Y-174020001D03*
X197000000Y-174980001D03*
%TD*%
D18*
%TO.C,U20*%
X122189284Y-164405000D03*
X122189284Y-163135000D03*
X122189284Y-161865000D03*
X122189284Y-160595000D03*
X117239284Y-160595000D03*
X117239284Y-161865000D03*
X117239284Y-163135000D03*
X117239284Y-164405000D03*
%TD*%
D16*
%TO.C,Q117*%
X165332500Y-141650001D03*
X165332500Y-142000001D03*
X166167500Y-142350001D03*
X166167500Y-142000001D03*
X165332500Y-142350001D03*
D17*
X165750000Y-142375001D03*
D16*
X166167500Y-141650001D03*
D17*
X165750000Y-141625001D03*
%TD*%
D11*
%TO.C,C24*%
X147980000Y-114500000D03*
X147020000Y-114500000D03*
%TD*%
D14*
%TO.C,Q144*%
X207150000Y-136417500D03*
X207500000Y-136417500D03*
X207850000Y-135582500D03*
X207500000Y-135582500D03*
X207850000Y-136417500D03*
D15*
X207875000Y-136000000D03*
D14*
X207150000Y-135582500D03*
D15*
X207125000Y-136000000D03*
%TD*%
D12*
%TO.C,C165*%
X145000000Y-174020001D03*
X145000000Y-174980001D03*
%TD*%
D16*
%TO.C,Q173*%
X178332500Y-154650001D03*
X178332500Y-155000001D03*
X179167500Y-155350001D03*
X179167500Y-155000001D03*
X178332500Y-155350001D03*
D17*
X178750000Y-155375001D03*
D16*
X179167500Y-154650001D03*
D17*
X178750000Y-154625001D03*
%TD*%
D11*
%TO.C,C178*%
X186980000Y-179500000D03*
X186020000Y-179500000D03*
%TD*%
D16*
%TO.C,Q185*%
X210832500Y-148150001D03*
X210832500Y-148500001D03*
X211667500Y-148850001D03*
X211667500Y-148500001D03*
X210832500Y-148850001D03*
D17*
X211250000Y-148875001D03*
D16*
X211667500Y-148150001D03*
D17*
X211250000Y-148125001D03*
%TD*%
D11*
%TO.C,C184*%
X193480000Y-173000000D03*
X192520000Y-173000000D03*
%TD*%
D18*
%TO.C,U26*%
X122189284Y-183905000D03*
X122189284Y-182635000D03*
X122189284Y-181365000D03*
X122189284Y-180095000D03*
X117239284Y-180095000D03*
X117239284Y-181365000D03*
X117239284Y-182635000D03*
X117239284Y-183905000D03*
%TD*%
D11*
%TO.C,C110*%
X212980000Y-140500000D03*
X212020000Y-140500000D03*
%TD*%
%TO.C,C42*%
X212980000Y-114500000D03*
X212020000Y-114500000D03*
%TD*%
D16*
%TO.C,Q74*%
X186417500Y-121350000D03*
X186417500Y-121000000D03*
X185582500Y-120650000D03*
X185582500Y-121000000D03*
X186417500Y-120650000D03*
D17*
X186000000Y-120625000D03*
D16*
X185582500Y-121350000D03*
D17*
X186000000Y-121375000D03*
%TD*%
D12*
%TO.C,C129*%
X197000000Y-148020001D03*
X197000000Y-148980001D03*
%TD*%
D16*
%TO.C,Q133*%
X191332500Y-141650001D03*
X191332500Y-142000001D03*
X192167500Y-142350001D03*
X192167500Y-142000001D03*
X191332500Y-142350001D03*
D17*
X191750000Y-142375001D03*
D16*
X192167500Y-141650001D03*
D17*
X191750000Y-141625001D03*
%TD*%
D14*
%TO.C,Q240*%
X207150000Y-162417500D03*
X207500000Y-162417500D03*
X207850000Y-161582500D03*
X207500000Y-161582500D03*
X207850000Y-162417500D03*
D15*
X207875000Y-162000000D03*
D14*
X207150000Y-161582500D03*
D15*
X207125000Y-162000000D03*
%TD*%
D13*
%TO.C,RN4*%
X166500000Y-190600000D03*
X165500000Y-190600000D03*
X165500000Y-192400000D03*
X166500000Y-192400000D03*
%TD*%
D18*
%TO.C,U15*%
X131189284Y-144905000D03*
X131189284Y-143635000D03*
X131189284Y-142365000D03*
X131189284Y-141095000D03*
X126239284Y-141095000D03*
X126239284Y-142365000D03*
X126239284Y-143635000D03*
X126239284Y-144905000D03*
%TD*%
D14*
%TO.C,Q276*%
X200650000Y-181917500D03*
X201000000Y-181917500D03*
X201350000Y-181082500D03*
X201000000Y-181082500D03*
X201350000Y-181917500D03*
D15*
X201375000Y-181500000D03*
D14*
X200650000Y-181082500D03*
D15*
X200625000Y-181500000D03*
%TD*%
D11*
%TO.C,C40*%
X154480000Y-108000000D03*
X153520000Y-108000000D03*
%TD*%
D12*
%TO.C,C113*%
X145000000Y-148020001D03*
X145000000Y-148980001D03*
%TD*%
D14*
%TO.C,Q140*%
X213650000Y-142917500D03*
X214000000Y-142917500D03*
X214350000Y-142082500D03*
X214000000Y-142082500D03*
X214350000Y-142917500D03*
D15*
X214375000Y-142500000D03*
D14*
X213650000Y-142082500D03*
D15*
X213625000Y-142500000D03*
%TD*%
D14*
%TO.C,Q232*%
X194150000Y-162417500D03*
X194500000Y-162417500D03*
X194850000Y-161582500D03*
X194500000Y-161582500D03*
X194850000Y-162417500D03*
D15*
X194875000Y-162000000D03*
D14*
X194150000Y-161582500D03*
D15*
X194125000Y-162000000D03*
%TD*%
D11*
%TO.C,C152*%
X180480000Y-160000000D03*
X179520000Y-160000000D03*
%TD*%
D16*
%TO.C,Q23*%
X184832500Y-109150001D03*
X184832500Y-109500001D03*
X185667500Y-109850001D03*
X185667500Y-109500001D03*
X184832500Y-109850001D03*
D17*
X185250000Y-109875001D03*
D16*
X185667500Y-109150001D03*
D17*
X185250000Y-109125001D03*
%TD*%
D16*
%TO.C,Q206*%
X153917500Y-166850000D03*
X153917500Y-166500000D03*
X153082500Y-166150000D03*
X153082500Y-166500000D03*
X153917500Y-166150000D03*
D17*
X153500000Y-166125000D03*
D16*
X153082500Y-166850000D03*
D17*
X153500000Y-166875000D03*
%TD*%
D12*
%TO.C,C161*%
X210000000Y-161020001D03*
X210000000Y-161980001D03*
%TD*%
D14*
%TO.C,Q18*%
X174650000Y-116917500D03*
X175000000Y-116917500D03*
X175350000Y-116082500D03*
X175000000Y-116082500D03*
X175350000Y-116917500D03*
D15*
X175375000Y-116500000D03*
D14*
X174650000Y-116082500D03*
D15*
X174625000Y-116500000D03*
%TD*%
D14*
%TO.C,Q8*%
X148650000Y-116917500D03*
X149000000Y-116917500D03*
X149350000Y-116082500D03*
X149000000Y-116082500D03*
X149350000Y-116917500D03*
D15*
X149375000Y-116500000D03*
D14*
X148650000Y-116082500D03*
D15*
X148625000Y-116500000D03*
%TD*%
D14*
%TO.C,Q180*%
X200650000Y-155917500D03*
X201000000Y-155917500D03*
X201350000Y-155082500D03*
X201000000Y-155082500D03*
X201350000Y-155917500D03*
D15*
X201375000Y-155500000D03*
D14*
X200650000Y-155082500D03*
D15*
X200625000Y-155500000D03*
%TD*%
D11*
%TO.C,C10*%
X134194284Y-118000000D03*
X133234284Y-118000000D03*
%TD*%
D12*
%TO.C,C143*%
X151500000Y-167520001D03*
X151500000Y-168480001D03*
%TD*%
D16*
%TO.C,Q242*%
X147417500Y-173350000D03*
X147417500Y-173000000D03*
X146582500Y-172650000D03*
X146582500Y-173000000D03*
X147417500Y-172650000D03*
D17*
X147000000Y-172625000D03*
D16*
X146582500Y-173350000D03*
D17*
X147000000Y-173375000D03*
%TD*%
D16*
%TO.C,Q221*%
X178332500Y-167650001D03*
X178332500Y-168000001D03*
X179167500Y-168350001D03*
X179167500Y-168000001D03*
X178332500Y-168350001D03*
D17*
X178750000Y-168375001D03*
D16*
X179167500Y-167650001D03*
D17*
X178750000Y-167625001D03*
%TD*%
D16*
%TO.C,Q277*%
X191332500Y-180650001D03*
X191332500Y-181000001D03*
X192167500Y-181350001D03*
X192167500Y-181000001D03*
X191332500Y-181350001D03*
D17*
X191750000Y-181375001D03*
D16*
X192167500Y-180650001D03*
D17*
X191750000Y-180625001D03*
%TD*%
D14*
%TO.C,Q7*%
X147850000Y-115332500D03*
X147500000Y-115332500D03*
X147150000Y-116167500D03*
X147500000Y-116167500D03*
X147150000Y-115332500D03*
D15*
X147125000Y-115750000D03*
D14*
X147850000Y-116167500D03*
D15*
X147875000Y-115750000D03*
%TD*%
D16*
%TO.C,Q16*%
X173417500Y-108350000D03*
X173417500Y-108000000D03*
X172582500Y-107650000D03*
X172582500Y-108000000D03*
X173417500Y-107650000D03*
D17*
X173000000Y-107625000D03*
D16*
X172582500Y-108350000D03*
D17*
X173000000Y-108375000D03*
%TD*%
D12*
%TO.C,C131*%
X190500000Y-154520001D03*
X190500000Y-155480001D03*
%TD*%
D14*
%TO.C,Q247*%
X141350000Y-173832500D03*
X141000000Y-173832500D03*
X140650000Y-174667500D03*
X141000000Y-174667500D03*
X140650000Y-173832500D03*
D15*
X140625000Y-174250000D03*
D14*
X141350000Y-174667500D03*
D15*
X141375000Y-174250000D03*
%TD*%
D18*
%TO.C,U12*%
X122189284Y-138405000D03*
X122189284Y-137135000D03*
X122189284Y-135865000D03*
X122189284Y-134595000D03*
X117239284Y-134595000D03*
X117239284Y-135865000D03*
X117239284Y-137135000D03*
X117239284Y-138405000D03*
%TD*%
D12*
%TO.C,C151*%
X177500000Y-167520001D03*
X177500000Y-168480001D03*
%TD*%
D11*
%TO.C,C124*%
X167480000Y-147000000D03*
X166520000Y-147000000D03*
%TD*%
D16*
%TO.C,Q250*%
X160417500Y-173350000D03*
X160417500Y-173000000D03*
X159582500Y-172650000D03*
X159582500Y-173000000D03*
X160417500Y-172650000D03*
D17*
X160000000Y-172625000D03*
D16*
X159582500Y-173350000D03*
D17*
X160000000Y-173375000D03*
%TD*%
D18*
%TO.C,U13*%
X131189284Y-138405000D03*
X131189284Y-137135000D03*
X131189284Y-135865000D03*
X131189284Y-134595000D03*
X126239284Y-134595000D03*
X126239284Y-135865000D03*
X126239284Y-137135000D03*
X126239284Y-138405000D03*
%TD*%
D14*
%TO.C,Q239*%
X206350000Y-160832500D03*
X206000000Y-160832500D03*
X205650000Y-161667500D03*
X206000000Y-161667500D03*
X205650000Y-160832500D03*
D15*
X205625000Y-161250000D03*
D14*
X206350000Y-161667500D03*
D15*
X206375000Y-161250000D03*
%TD*%
D20*
%TO.C,U3*%
X155525000Y-189595000D03*
X155525000Y-190865000D03*
X155525000Y-192135000D03*
X155525000Y-193405000D03*
X160475000Y-193405000D03*
X160475000Y-192135000D03*
X160475000Y-190865000D03*
X160475000Y-189595000D03*
%TD*%
D16*
%TO.C,Q189*%
X204332500Y-154650001D03*
X204332500Y-155000001D03*
X205167500Y-155350001D03*
X205167500Y-155000001D03*
X204332500Y-155350001D03*
D17*
X204750000Y-155375001D03*
D16*
X205167500Y-154650001D03*
D17*
X204750000Y-154625001D03*
%TD*%
D14*
%TO.C,Q38*%
X194150000Y-110417500D03*
X194500000Y-110417500D03*
X194850000Y-109582500D03*
X194500000Y-109582500D03*
X194850000Y-110417500D03*
D15*
X194875000Y-110000000D03*
D14*
X194150000Y-109582500D03*
D15*
X194125000Y-110000000D03*
%TD*%
D12*
%TO.C,C65*%
X145000000Y-122020001D03*
X145000000Y-122980001D03*
%TD*%
D20*
%TO.C,U4*%
X168525000Y-189595000D03*
X168525000Y-190865000D03*
X168525000Y-192135000D03*
X168525000Y-193405000D03*
X173475000Y-193405000D03*
X173475000Y-192135000D03*
X173475000Y-190865000D03*
X173475000Y-189595000D03*
%TD*%
D14*
%TO.C,Q56*%
X142150000Y-123417500D03*
X142500000Y-123417500D03*
X142850000Y-122582500D03*
X142500000Y-122582500D03*
X142850000Y-123417500D03*
D15*
X142875000Y-123000000D03*
D14*
X142150000Y-122582500D03*
D15*
X142125000Y-123000000D03*
%TD*%
D16*
%TO.C,Q32*%
X199417500Y-108350000D03*
X199417500Y-108000000D03*
X198582500Y-107650000D03*
X198582500Y-108000000D03*
X199417500Y-107650000D03*
D17*
X199000000Y-107625000D03*
D16*
X198582500Y-108350000D03*
D17*
X199000000Y-108375000D03*
%TD*%
D14*
%TO.C,Q224*%
X181150000Y-162417500D03*
X181500000Y-162417500D03*
X181850000Y-161582500D03*
X181500000Y-161582500D03*
X181850000Y-162417500D03*
D15*
X181875000Y-162000000D03*
D14*
X181150000Y-161582500D03*
D15*
X181125000Y-162000000D03*
%TD*%
D16*
%TO.C,Q193*%
X145832500Y-161150001D03*
X145832500Y-161500001D03*
X146667500Y-161850001D03*
X146667500Y-161500001D03*
X145832500Y-161850001D03*
D17*
X146250000Y-161875001D03*
D16*
X146667500Y-161150001D03*
D17*
X146250000Y-161125001D03*
%TD*%
D14*
%TO.C,Q195*%
X147850000Y-167332500D03*
X147500000Y-167332500D03*
X147150000Y-168167500D03*
X147500000Y-168167500D03*
X147150000Y-167332500D03*
D15*
X147125000Y-167750000D03*
D14*
X147850000Y-168167500D03*
D15*
X147875000Y-167750000D03*
%TD*%
D11*
%TO.C,C98*%
X173980000Y-140500000D03*
X173020000Y-140500000D03*
%TD*%
%TO.C,C29*%
X173980000Y-114500000D03*
X173020000Y-114500000D03*
%TD*%
D14*
%TO.C,Q272*%
X181150000Y-175417500D03*
X181500000Y-175417500D03*
X181850000Y-174582500D03*
X181500000Y-174582500D03*
X181850000Y-175417500D03*
D15*
X181875000Y-175000000D03*
D14*
X181150000Y-174582500D03*
D15*
X181125000Y-175000000D03*
%TD*%
D12*
%TO.C,C185*%
X210000000Y-174020001D03*
X210000000Y-174980001D03*
%TD*%
D16*
%TO.C,Q149*%
X139332500Y-154650001D03*
X139332500Y-155000001D03*
X140167500Y-155350001D03*
X140167500Y-155000001D03*
X139332500Y-155350001D03*
D17*
X139750000Y-155375001D03*
D16*
X140167500Y-154650001D03*
D17*
X139750000Y-154625001D03*
%TD*%
D16*
%TO.C,Q241*%
X145832500Y-174150001D03*
X145832500Y-174500001D03*
X146667500Y-174850001D03*
X146667500Y-174500001D03*
X145832500Y-174850001D03*
D17*
X146250000Y-174875001D03*
D16*
X146667500Y-174150001D03*
D17*
X146250000Y-174125001D03*
%TD*%
D16*
%TO.C,Q53*%
X139332500Y-128650001D03*
X139332500Y-129000001D03*
X140167500Y-129350001D03*
X140167500Y-129000001D03*
X139332500Y-129350001D03*
D17*
X139750000Y-129375001D03*
D16*
X140167500Y-128650001D03*
D17*
X139750000Y-128625001D03*
%TD*%
D14*
%TO.C,Q107*%
X160850000Y-141332500D03*
X160500000Y-141332500D03*
X160150000Y-142167500D03*
X160500000Y-142167500D03*
X160150000Y-141332500D03*
D15*
X160125000Y-141750000D03*
D14*
X160850000Y-142167500D03*
D15*
X160875000Y-141750000D03*
%TD*%
D14*
%TO.C,Q159*%
X154350000Y-147832500D03*
X154000000Y-147832500D03*
X153650000Y-148667500D03*
X154000000Y-148667500D03*
X153650000Y-147832500D03*
D15*
X153625000Y-148250000D03*
D14*
X154350000Y-148667500D03*
D15*
X154375000Y-148250000D03*
%TD*%
D18*
%TO.C,U14*%
X122189284Y-144905000D03*
X122189284Y-143635000D03*
X122189284Y-142365000D03*
X122189284Y-141095000D03*
X117239284Y-141095000D03*
X117239284Y-142365000D03*
X117239284Y-143635000D03*
X117239284Y-144905000D03*
%TD*%
D12*
%TO.C,C95*%
X151500000Y-141520001D03*
X151500000Y-142480001D03*
%TD*%
D22*
%TO.C,R29*%
X124214284Y-151510000D03*
X124214284Y-150490000D03*
%TD*%
D18*
%TO.C,U27*%
X131189284Y-183905000D03*
X131189284Y-182635000D03*
X131189284Y-181365000D03*
X131189284Y-180095000D03*
X126239284Y-180095000D03*
X126239284Y-181365000D03*
X126239284Y-182635000D03*
X126239284Y-183905000D03*
%TD*%
D11*
%TO.C,C14*%
X134194284Y-144000000D03*
X133234284Y-144000000D03*
%TD*%
D14*
%TO.C,Q88*%
X194150000Y-123417500D03*
X194500000Y-123417500D03*
X194850000Y-122582500D03*
X194500000Y-122582500D03*
X194850000Y-123417500D03*
D15*
X194875000Y-123000000D03*
D14*
X194150000Y-122582500D03*
D15*
X194125000Y-123000000D03*
%TD*%
D14*
%TO.C,Q148*%
X148650000Y-155917500D03*
X149000000Y-155917500D03*
X149350000Y-155082500D03*
X149000000Y-155082500D03*
X149350000Y-155917500D03*
D15*
X149375000Y-155500000D03*
D14*
X148650000Y-155082500D03*
D15*
X148625000Y-155500000D03*
%TD*%
D14*
%TO.C,Q155*%
X160850000Y-154332500D03*
X160500000Y-154332500D03*
X160150000Y-155167500D03*
X160500000Y-155167500D03*
X160150000Y-154332500D03*
D15*
X160125000Y-154750000D03*
D14*
X160850000Y-155167500D03*
D15*
X160875000Y-154750000D03*
%TD*%
D11*
%TO.C,C138*%
X147980000Y-166500000D03*
X147020000Y-166500000D03*
%TD*%
%TO.C,C92*%
X141480000Y-134000000D03*
X140520000Y-134000000D03*
%TD*%
D16*
%TO.C,Q270*%
X179917500Y-179850000D03*
X179917500Y-179500000D03*
X179082500Y-179150000D03*
X179082500Y-179500000D03*
X179917500Y-179150000D03*
D17*
X179500000Y-179125000D03*
D16*
X179082500Y-179850000D03*
D17*
X179500000Y-179875000D03*
%TD*%
D11*
%TO.C,C108*%
X193480000Y-134000000D03*
X192520000Y-134000000D03*
%TD*%
D14*
%TO.C,Q139*%
X212850000Y-141332500D03*
X212500000Y-141332500D03*
X212150000Y-142167500D03*
X212500000Y-142167500D03*
X212150000Y-141332500D03*
D15*
X212125000Y-141750000D03*
D14*
X212850000Y-142167500D03*
D15*
X212875000Y-141750000D03*
%TD*%
D14*
%TO.C,Q275*%
X199850000Y-180332500D03*
X199500000Y-180332500D03*
X199150000Y-181167500D03*
X199500000Y-181167500D03*
X199150000Y-180332500D03*
D15*
X199125000Y-180750000D03*
D14*
X199850000Y-181167500D03*
D15*
X199875000Y-180750000D03*
%TD*%
D14*
%TO.C,Q199*%
X141350000Y-160832500D03*
X141000000Y-160832500D03*
X140650000Y-161667500D03*
X141000000Y-161667500D03*
X140650000Y-160832500D03*
D15*
X140625000Y-161250000D03*
D14*
X141350000Y-161667500D03*
D15*
X141375000Y-161250000D03*
%TD*%
D16*
%TO.C,Q153*%
X158832500Y-148150001D03*
X158832500Y-148500001D03*
X159667500Y-148850001D03*
X159667500Y-148500001D03*
X158832500Y-148850001D03*
D17*
X159250000Y-148875001D03*
D16*
X159667500Y-148150001D03*
D17*
X159250000Y-148125001D03*
%TD*%
D12*
%TO.C,C103*%
X177500000Y-141520001D03*
X177500000Y-142480001D03*
%TD*%
D14*
%TO.C,Q264*%
X168150000Y-175417500D03*
X168500000Y-175417500D03*
X168850000Y-174582500D03*
X168500000Y-174582500D03*
X168850000Y-175417500D03*
D15*
X168875000Y-175000000D03*
D14*
X168150000Y-174582500D03*
D15*
X168125000Y-175000000D03*
%TD*%
D16*
%TO.C,Q41*%
X210832500Y-109150001D03*
X210832500Y-109500001D03*
X211667500Y-109850001D03*
X211667500Y-109500001D03*
X210832500Y-109850001D03*
D17*
X211250000Y-109875001D03*
D16*
X211667500Y-109150001D03*
D17*
X211250000Y-109125001D03*
%TD*%
D16*
%TO.C,Q129*%
X197832500Y-135150001D03*
X197832500Y-135500001D03*
X198667500Y-135850001D03*
X198667500Y-135500001D03*
X197832500Y-135850001D03*
D17*
X198250000Y-135875001D03*
D16*
X198667500Y-135150001D03*
D17*
X198250000Y-135125001D03*
%TD*%
D29*
%TO.C,RV1*%
X112540000Y-178995000D03*
X110000000Y-178995000D03*
X107460000Y-178995000D03*
%TD*%
D30*
%TO.C,J2*%
X134730000Y-204000000D03*
D31*
X134730000Y-205270000D03*
X136000000Y-204000000D03*
X136000000Y-205270000D03*
X137270000Y-204000000D03*
X137270000Y-205270000D03*
X138540000Y-204000000D03*
X138540000Y-205270000D03*
X139810000Y-204000000D03*
X139810000Y-205270000D03*
X141080000Y-204000000D03*
X141080000Y-205270000D03*
X142350000Y-204000000D03*
X142350000Y-205270000D03*
%TD*%
D32*
%TO.C,J4*%
X109500000Y-163000000D03*
D33*
X109500000Y-158000000D03*
X109500000Y-153000000D03*
X109500000Y-148000000D03*
X109500000Y-143000000D03*
%TD*%
M02*
