%TF.GenerationSoftware,KiCad,Pcbnew,9.0.4-9.0.4-0~ubuntu22.04.1*%
%TF.CreationDate,2025-09-26T09:18:54-04:00*%
%TF.ProjectId,shimarray,7368696d-6172-4726-9179-2e6b69636164,rev?*%
%TF.SameCoordinates,Original*%
%TF.FileFunction,Legend,Bot*%
%TF.FilePolarity,Positive*%
%FSLAX46Y46*%
G04 Gerber Fmt 4.6, Leading zero omitted, Abs format (unit mm)*
G04 Created by KiCad (PCBNEW 9.0.4-9.0.4-0~ubuntu22.04.1) date 2025-09-26 09:18:54*
%MOMM*%
%LPD*%
G01*
G04 APERTURE LIST*
%ADD10C,0.120000*%
G04 APERTURE END LIST*
D10*
%TO.C,J3*%
X107075000Y-203960000D02*
X109675000Y-203960000D01*
X104175000Y-203960000D02*
X102515000Y-203960000D01*
X102515000Y-203960000D02*
X102515000Y-196040000D01*
X111985000Y-203200000D02*
X111985000Y-202050000D01*
X112575000Y-202050000D02*
X112575000Y-201350000D01*
X111985000Y-202050000D02*
X112575000Y-202050000D01*
X111985000Y-197950000D02*
X111985000Y-196800000D01*
X109675000Y-196040000D02*
X107075000Y-196040000D01*
X102515000Y-196040000D02*
X104175000Y-196040000D01*
%TO.C,FB134*%
X187415748Y-178890000D02*
X184584252Y-178890000D01*
X187415748Y-184110000D02*
X184584252Y-184110000D01*
%TO.C,FB50*%
X148415748Y-139890000D02*
X145584252Y-139890000D01*
X148415748Y-145110000D02*
X145584252Y-145110000D01*
%TO.C,R24*%
X129334284Y-143846359D02*
X129334284Y-144153641D01*
X130094284Y-143846359D02*
X130094284Y-144153641D01*
%TO.C,R42*%
X129334284Y-182846359D02*
X129334284Y-183153641D01*
X130094284Y-182846359D02*
X130094284Y-183153641D01*
%TO.C,FB76*%
X141915748Y-146390000D02*
X139084252Y-146390000D01*
X141915748Y-151610000D02*
X139084252Y-151610000D01*
%TO.C,FB120*%
X206915748Y-159390000D02*
X204084252Y-159390000D01*
X206915748Y-164610000D02*
X204084252Y-164610000D01*
%TO.C,FB70*%
X213415748Y-139890000D02*
X210584252Y-139890000D01*
X213415748Y-145110000D02*
X210584252Y-145110000D01*
%TO.C,FB93*%
X209390000Y-147584252D02*
X209390000Y-150415748D01*
X214610000Y-147584252D02*
X214610000Y-150415748D01*
%TO.C,FB71*%
X202890000Y-141084252D02*
X202890000Y-143915748D01*
X208110000Y-141084252D02*
X208110000Y-143915748D01*
%TO.C,FB114*%
X200415748Y-165890000D02*
X197584252Y-165890000D01*
X200415748Y-171110000D02*
X197584252Y-171110000D01*
%TO.C,FB53*%
X157390000Y-134584252D02*
X157390000Y-137415748D01*
X162610000Y-134584252D02*
X162610000Y-137415748D01*
%TO.C,R28*%
X129334284Y-148653641D02*
X129334284Y-148346359D01*
X130094284Y-148653641D02*
X130094284Y-148346359D01*
%TO.C,R27*%
X129334284Y-150346359D02*
X129334284Y-150653641D01*
X130094284Y-150346359D02*
X130094284Y-150653641D01*
%TO.C,FB112*%
X180915748Y-159390000D02*
X178084252Y-159390000D01*
X180915748Y-164610000D02*
X178084252Y-164610000D01*
%TO.C,FB119*%
X202890000Y-167084252D02*
X202890000Y-169915748D01*
X208110000Y-167084252D02*
X208110000Y-169915748D01*
%TO.C,FB75*%
X137890000Y-154084252D02*
X137890000Y-156915748D01*
X143110000Y-154084252D02*
X143110000Y-156915748D01*
%TO.C,FB89*%
X196390000Y-147584252D02*
X196390000Y-150415748D01*
X201610000Y-147584252D02*
X201610000Y-150415748D01*
%TO.C,FB111*%
X176890000Y-167084252D02*
X176890000Y-169915748D01*
X182110000Y-167084252D02*
X182110000Y-169915748D01*
%TO.C,FB103*%
X150890000Y-167084252D02*
X150890000Y-169915748D01*
X156110000Y-167084252D02*
X156110000Y-169915748D01*
%TO.C,R36*%
X129334284Y-169846359D02*
X129334284Y-170153641D01*
X130094284Y-169846359D02*
X130094284Y-170153641D01*
%TO.C,FB144*%
X206915748Y-172390000D02*
X204084252Y-172390000D01*
X206915748Y-177610000D02*
X204084252Y-177610000D01*
%TO.C,FB78*%
X161415748Y-152890000D02*
X158584252Y-152890000D01*
X161415748Y-158110000D02*
X158584252Y-158110000D01*
%TO.C,FB45*%
X209390000Y-121584252D02*
X209390000Y-124415748D01*
X214610000Y-121584252D02*
X214610000Y-124415748D01*
%TO.C,FB102*%
X161415748Y-165890000D02*
X158584252Y-165890000D01*
X161415748Y-171110000D02*
X158584252Y-171110000D01*
%TO.C,FB107*%
X163890000Y-167084252D02*
X163890000Y-169915748D01*
X169110000Y-167084252D02*
X169110000Y-169915748D01*
%TO.C,FB138*%
X200415748Y-178890000D02*
X197584252Y-178890000D01*
X200415748Y-184110000D02*
X197584252Y-184110000D01*
%TO.C,FB142*%
X213415748Y-178890000D02*
X210584252Y-178890000D01*
X213415748Y-184110000D02*
X210584252Y-184110000D01*
%TO.C,FB6*%
X161415748Y-113890000D02*
X158584252Y-113890000D01*
X161415748Y-119110000D02*
X158584252Y-119110000D01*
%TO.C,FB5*%
X157390000Y-108584252D02*
X157390000Y-111415748D01*
X162610000Y-108584252D02*
X162610000Y-111415748D01*
%TO.C,FB25*%
X144390000Y-121584252D02*
X144390000Y-124415748D01*
X149610000Y-121584252D02*
X149610000Y-124415748D01*
%TO.C,C50*%
X127354284Y-137107836D02*
X127354284Y-136892164D01*
X128074284Y-137107836D02*
X128074284Y-136892164D01*
%TO.C,C4*%
X130140000Y-197892164D02*
X130140000Y-198107836D01*
X130860000Y-197892164D02*
X130860000Y-198107836D01*
%TO.C,FB77*%
X157390000Y-147584252D02*
X157390000Y-150415748D01*
X162610000Y-147584252D02*
X162610000Y-150415748D01*
%TO.C,FB43*%
X189890000Y-128084252D02*
X189890000Y-130915748D01*
X195110000Y-128084252D02*
X195110000Y-130915748D01*
%TO.C,C63*%
X127354284Y-180392164D02*
X127354284Y-180607836D01*
X128074284Y-180392164D02*
X128074284Y-180607836D01*
%TO.C,FB96*%
X206915748Y-146390000D02*
X204084252Y-146390000D01*
X206915748Y-151610000D02*
X204084252Y-151610000D01*
%TO.C,FB128*%
X154915748Y-172390000D02*
X152084252Y-172390000D01*
X154915748Y-177610000D02*
X152084252Y-177610000D01*
%TO.C,R37*%
X129334284Y-168153641D02*
X129334284Y-167846359D01*
X130094284Y-168153641D02*
X130094284Y-167846359D01*
%TO.C,C51*%
X127354284Y-141392164D02*
X127354284Y-141607836D01*
X128074284Y-141392164D02*
X128074284Y-141607836D01*
%TO.C,FB17*%
X200415748Y-113890000D02*
X197584252Y-113890000D01*
X200415748Y-119110000D02*
X197584252Y-119110000D01*
%TO.C,FB105*%
X170390000Y-160584252D02*
X170390000Y-163415748D01*
X175610000Y-160584252D02*
X175610000Y-163415748D01*
%TO.C,FB140*%
X193915748Y-172390000D02*
X191084252Y-172390000D01*
X193915748Y-177610000D02*
X191084252Y-177610000D01*
%TO.C,FB19*%
X193915748Y-107390000D02*
X191084252Y-107390000D01*
X193915748Y-112610000D02*
X191084252Y-112610000D01*
%TO.C,C47*%
X127354284Y-128392164D02*
X127354284Y-128607836D01*
X128074284Y-128392164D02*
X128074284Y-128607836D01*
%TO.C,FB42*%
X200415748Y-126890000D02*
X197584252Y-126890000D01*
X200415748Y-132110000D02*
X197584252Y-132110000D01*
%TO.C,FB108*%
X167915748Y-159390000D02*
X165084252Y-159390000D01*
X167915748Y-164610000D02*
X165084252Y-164610000D01*
%TO.C,FB95*%
X202890000Y-154084252D02*
X202890000Y-156915748D01*
X208110000Y-154084252D02*
X208110000Y-156915748D01*
%TO.C,FB22*%
X213415748Y-113890000D02*
X210584252Y-113890000D01*
X213415748Y-119110000D02*
X210584252Y-119110000D01*
%TO.C,FB27*%
X137890000Y-128084252D02*
X137890000Y-130915748D01*
X143110000Y-128084252D02*
X143110000Y-130915748D01*
%TO.C,FB10*%
X163890000Y-115084252D02*
X163890000Y-117915748D01*
X169110000Y-115084252D02*
X169110000Y-117915748D01*
%TO.C,FB40*%
X180915748Y-120390000D02*
X178084252Y-120390000D01*
X180915748Y-125610000D02*
X178084252Y-125610000D01*
%TO.C,FB69*%
X209390000Y-134584252D02*
X209390000Y-137415748D01*
X214610000Y-134584252D02*
X214610000Y-137415748D01*
%TO.C,RV1*%
X105125000Y-176465000D02*
X105125000Y-181515000D01*
X105125000Y-181515000D02*
X114875000Y-181515000D01*
X114875000Y-176465000D02*
X105125000Y-176465000D01*
X114875000Y-181515000D02*
X114875000Y-176465000D01*
%TO.C,FB15*%
X180915748Y-107390000D02*
X178084252Y-107390000D01*
X180915748Y-112610000D02*
X178084252Y-112610000D01*
%TO.C,FB18*%
X189890000Y-115084252D02*
X189890000Y-117915748D01*
X195110000Y-115084252D02*
X195110000Y-117915748D01*
%TO.C,FB31*%
X150890000Y-128084252D02*
X150890000Y-130915748D01*
X156110000Y-128084252D02*
X156110000Y-130915748D01*
%TO.C,FB24*%
X206915748Y-107390000D02*
X204084252Y-107390000D01*
X206915748Y-112610000D02*
X204084252Y-112610000D01*
%TO.C,FB118*%
X213415748Y-165890000D02*
X210584252Y-165890000D01*
X213415748Y-171110000D02*
X210584252Y-171110000D01*
%TO.C,FB11*%
X167915748Y-107390000D02*
X165084252Y-107390000D01*
X167915748Y-112610000D02*
X165084252Y-112610000D01*
%TO.C,FB122*%
X148415748Y-178890000D02*
X145584252Y-178890000D01*
X148415748Y-184110000D02*
X145584252Y-184110000D01*
%TO.C,FB54*%
X161415748Y-139890000D02*
X158584252Y-139890000D01*
X161415748Y-145110000D02*
X158584252Y-145110000D01*
%TO.C,FB129*%
X170390000Y-173584252D02*
X170390000Y-176415748D01*
X175610000Y-173584252D02*
X175610000Y-176415748D01*
%TO.C,FB12*%
X183390000Y-108584252D02*
X183390000Y-111415748D01*
X188610000Y-108584252D02*
X188610000Y-111415748D01*
%TO.C,R15*%
X129334284Y-124346359D02*
X129334284Y-124653641D01*
X130094284Y-124346359D02*
X130094284Y-124653641D01*
%TO.C,FB55*%
X150890000Y-141084252D02*
X150890000Y-143915748D01*
X156110000Y-141084252D02*
X156110000Y-143915748D01*
%TO.C,FB23*%
X202890000Y-115084252D02*
X202890000Y-117915748D01*
X208110000Y-115084252D02*
X208110000Y-117915748D01*
%TO.C,J2*%
X133920000Y-202820000D02*
X133920000Y-204000000D01*
X133985000Y-205587923D02*
X133985000Y-206450000D01*
X133985000Y-206450000D02*
X143095000Y-206450000D01*
X134730000Y-202820000D02*
X133920000Y-202820000D01*
X135540000Y-202820000D02*
X135540000Y-203333292D01*
X135540000Y-202820000D02*
X143095000Y-202820000D01*
X143095000Y-202820000D02*
X143095000Y-203682077D01*
X143095000Y-204317923D02*
X143095000Y-204952077D01*
X143095000Y-205587923D02*
X143095000Y-206450000D01*
%TO.C,C52*%
X127354284Y-143607836D02*
X127354284Y-143392164D01*
X128074284Y-143607836D02*
X128074284Y-143392164D01*
%TO.C,FB99*%
X137890000Y-167084252D02*
X137890000Y-169915748D01*
X143110000Y-167084252D02*
X143110000Y-169915748D01*
%TO.C,FB49*%
X144390000Y-134584252D02*
X144390000Y-137415748D01*
X149610000Y-134584252D02*
X149610000Y-137415748D01*
%TO.C,FB63*%
X176890000Y-141084252D02*
X176890000Y-143915748D01*
X182110000Y-141084252D02*
X182110000Y-143915748D01*
%TO.C,FB125*%
X157390000Y-173584252D02*
X157390000Y-176415748D01*
X162610000Y-173584252D02*
X162610000Y-176415748D01*
%TO.C,FB79*%
X150890000Y-154084252D02*
X150890000Y-156915748D01*
X156110000Y-154084252D02*
X156110000Y-156915748D01*
%TO.C,FB139*%
X189890000Y-180084252D02*
X189890000Y-182915748D01*
X195110000Y-180084252D02*
X195110000Y-182915748D01*
%TO.C,FB64*%
X180915748Y-133390000D02*
X178084252Y-133390000D01*
X180915748Y-138610000D02*
X178084252Y-138610000D01*
%TO.C,FB113*%
X196390000Y-160584252D02*
X196390000Y-163415748D01*
X201610000Y-160584252D02*
X201610000Y-163415748D01*
%TO.C,FB82*%
X174415748Y-152890000D02*
X171584252Y-152890000D01*
X174415748Y-158110000D02*
X171584252Y-158110000D01*
%TO.C,FB30*%
X161415748Y-126890000D02*
X158584252Y-126890000D01*
X161415748Y-132110000D02*
X158584252Y-132110000D01*
%TO.C,FB41*%
X196390000Y-121584252D02*
X196390000Y-124415748D01*
X201610000Y-121584252D02*
X201610000Y-124415748D01*
%TO.C,FB131*%
X163890000Y-180084252D02*
X163890000Y-182915748D01*
X169110000Y-180084252D02*
X169110000Y-182915748D01*
%TO.C,FB13*%
X187415748Y-113890000D02*
X184584252Y-113890000D01*
X187415748Y-119110000D02*
X184584252Y-119110000D01*
%TO.C,C49*%
X127354284Y-134892164D02*
X127354284Y-135107836D01*
X128074284Y-134892164D02*
X128074284Y-135107836D01*
%TO.C,FB106*%
X174415748Y-165890000D02*
X171584252Y-165890000D01*
X174415748Y-171110000D02*
X171584252Y-171110000D01*
%TO.C,C55*%
X127390000Y-154392164D02*
X127390000Y-154607836D01*
X128110000Y-154392164D02*
X128110000Y-154607836D01*
%TO.C,R46*%
X129334284Y-109653641D02*
X129334284Y-109346359D01*
X130094284Y-109653641D02*
X130094284Y-109346359D01*
%TO.C,C5*%
X130107836Y-202140000D02*
X129892164Y-202140000D01*
X130107836Y-202860000D02*
X129892164Y-202860000D01*
%TO.C,C54*%
X127354284Y-150107836D02*
X127354284Y-149892164D01*
X128074284Y-150107836D02*
X128074284Y-149892164D01*
%TO.C,FB104*%
X154915748Y-159390000D02*
X152084252Y-159390000D01*
X154915748Y-164610000D02*
X152084252Y-164610000D01*
%TO.C,C62*%
X127354284Y-176107836D02*
X127354284Y-175892164D01*
X128074284Y-176107836D02*
X128074284Y-175892164D01*
%TO.C,C53*%
X127354284Y-147892164D02*
X127354284Y-148107836D01*
X128074284Y-147892164D02*
X128074284Y-148107836D01*
%TO.C,FB52*%
X141915748Y-133390000D02*
X139084252Y-133390000D01*
X141915748Y-138610000D02*
X139084252Y-138610000D01*
%TO.C,FB73*%
X144390000Y-147584252D02*
X144390000Y-150415748D01*
X149610000Y-147584252D02*
X149610000Y-150415748D01*
%TO.C,FB46*%
X213415748Y-126890000D02*
X210584252Y-126890000D01*
X213415748Y-132110000D02*
X210584252Y-132110000D01*
%TO.C,FB124*%
X141915748Y-172390000D02*
X139084252Y-172390000D01*
X141915748Y-177610000D02*
X139084252Y-177610000D01*
%TO.C,C60*%
X127354284Y-169607836D02*
X127354284Y-169392164D01*
X128074284Y-169607836D02*
X128074284Y-169392164D01*
%TO.C,FB66*%
X200415748Y-139890000D02*
X197584252Y-139890000D01*
X200415748Y-145110000D02*
X197584252Y-145110000D01*
%TO.C,FB101*%
X157390000Y-160584252D02*
X157390000Y-163415748D01*
X162610000Y-160584252D02*
X162610000Y-163415748D01*
%TO.C,C45*%
X127354284Y-121892164D02*
X127354284Y-122107836D01*
X128074284Y-121892164D02*
X128074284Y-122107836D01*
%TO.C,FB9*%
X174415748Y-113890000D02*
X171584252Y-113890000D01*
X174415748Y-119110000D02*
X171584252Y-119110000D01*
%TO.C,FB38*%
X187415748Y-126890000D02*
X184584252Y-126890000D01*
X187415748Y-132110000D02*
X184584252Y-132110000D01*
%TO.C,FB109*%
X183390000Y-160584252D02*
X183390000Y-163415748D01*
X188610000Y-160584252D02*
X188610000Y-163415748D01*
%TO.C,C57*%
X127354284Y-160892164D02*
X127354284Y-161107836D01*
X128074284Y-160892164D02*
X128074284Y-161107836D01*
%TO.C,FB56*%
X154915748Y-133390000D02*
X152084252Y-133390000D01*
X154915748Y-138610000D02*
X152084252Y-138610000D01*
%TO.C,FB132*%
X167915748Y-172390000D02*
X165084252Y-172390000D01*
X167915748Y-177610000D02*
X165084252Y-177610000D01*
%TO.C,FB74*%
X148415748Y-152890000D02*
X145584252Y-152890000D01*
X148415748Y-158110000D02*
X145584252Y-158110000D01*
%TO.C,FB59*%
X163890000Y-141084252D02*
X163890000Y-143915748D01*
X169110000Y-141084252D02*
X169110000Y-143915748D01*
%TO.C,R25*%
X129334284Y-142153641D02*
X129334284Y-141846359D01*
X130094284Y-142153641D02*
X130094284Y-141846359D01*
%TO.C,FB28*%
X141915748Y-120390000D02*
X139084252Y-120390000D01*
X141915748Y-125610000D02*
X139084252Y-125610000D01*
%TO.C,R45*%
X129334284Y-111346359D02*
X129334284Y-111653641D01*
X130094284Y-111346359D02*
X130094284Y-111653641D01*
%TO.C,FB21*%
X209390000Y-108584252D02*
X209390000Y-111415748D01*
X214610000Y-108584252D02*
X214610000Y-111415748D01*
%TO.C,R34*%
X129334284Y-161653641D02*
X129334284Y-161346359D01*
X130094284Y-161653641D02*
X130094284Y-161346359D01*
%TO.C,C6*%
X117392164Y-193140000D02*
X117607836Y-193140000D01*
X117392164Y-193860000D02*
X117607836Y-193860000D01*
%TO.C,FB86*%
X187415748Y-152890000D02*
X184584252Y-152890000D01*
X187415748Y-158110000D02*
X184584252Y-158110000D01*
%TO.C,FB84*%
X167915748Y-146390000D02*
X165084252Y-146390000D01*
X167915748Y-151610000D02*
X165084252Y-151610000D01*
%TO.C,C158*%
X127354284Y-111107836D02*
X127354284Y-110892164D01*
X128074284Y-111107836D02*
X128074284Y-110892164D01*
%TO.C,FB51*%
X137890000Y-141084252D02*
X137890000Y-143915748D01*
X143110000Y-141084252D02*
X143110000Y-143915748D01*
%TO.C,FB36*%
X167915748Y-120390000D02*
X165084252Y-120390000D01*
X167915748Y-125610000D02*
X165084252Y-125610000D01*
%TO.C,FB87*%
X176890000Y-154084252D02*
X176890000Y-156915748D01*
X182110000Y-154084252D02*
X182110000Y-156915748D01*
%TO.C,R40*%
X129334284Y-174653641D02*
X129334284Y-174346359D01*
X130094284Y-174653641D02*
X130094284Y-174346359D01*
%TO.C,FB91*%
X189890000Y-154084252D02*
X189890000Y-156915748D01*
X195110000Y-154084252D02*
X195110000Y-156915748D01*
%TO.C,C159*%
X127354284Y-115392164D02*
X127354284Y-115607836D01*
X128074284Y-115392164D02*
X128074284Y-115607836D01*
%TO.C,FB127*%
X150890000Y-180084252D02*
X150890000Y-182915748D01*
X156110000Y-180084252D02*
X156110000Y-182915748D01*
%TO.C,R19*%
X129334284Y-129153641D02*
X129334284Y-128846359D01*
X130094284Y-129153641D02*
X130094284Y-128846359D01*
%TO.C,R33*%
X129334284Y-163346359D02*
X129334284Y-163653641D01*
X130094284Y-163346359D02*
X130094284Y-163653641D01*
%TO.C,FB62*%
X187415748Y-139890000D02*
X184584252Y-139890000D01*
X187415748Y-145110000D02*
X184584252Y-145110000D01*
%TO.C,FB137*%
X196390000Y-173584252D02*
X196390000Y-176415748D01*
X201610000Y-173584252D02*
X201610000Y-176415748D01*
%TO.C,FB116*%
X193915748Y-159390000D02*
X191084252Y-159390000D01*
X193915748Y-164610000D02*
X191084252Y-164610000D01*
%TO.C,C61*%
X127354284Y-173892164D02*
X127354284Y-174107836D01*
X128074284Y-173892164D02*
X128074284Y-174107836D01*
%TO.C,FB34*%
X174415748Y-126890000D02*
X171584252Y-126890000D01*
X174415748Y-132110000D02*
X171584252Y-132110000D01*
%TO.C,FB141*%
X209390000Y-173584252D02*
X209390000Y-176415748D01*
X214610000Y-173584252D02*
X214610000Y-176415748D01*
%TO.C,FB48*%
X206915748Y-120390000D02*
X204084252Y-120390000D01*
X206915748Y-125610000D02*
X204084252Y-125610000D01*
%TO.C,FB4*%
X148415748Y-113890000D02*
X145584252Y-113890000D01*
X148415748Y-119110000D02*
X145584252Y-119110000D01*
%TO.C,C3*%
X118140000Y-202107836D02*
X118140000Y-201892164D01*
X118860000Y-202107836D02*
X118860000Y-201892164D01*
%TO.C,FB35*%
X163890000Y-128084252D02*
X163890000Y-130915748D01*
X169110000Y-128084252D02*
X169110000Y-130915748D01*
%TO.C,FB92*%
X193915748Y-146390000D02*
X191084252Y-146390000D01*
X193915748Y-151610000D02*
X191084252Y-151610000D01*
%TO.C,FB97*%
X144390000Y-160584252D02*
X144390000Y-163415748D01*
X149610000Y-160584252D02*
X149610000Y-163415748D01*
%TO.C,FB47*%
X202890000Y-128084252D02*
X202890000Y-130915748D01*
X208110000Y-128084252D02*
X208110000Y-130915748D01*
%TO.C,FB1*%
X141915748Y-107390000D02*
X139084252Y-107390000D01*
X141915748Y-112610000D02*
X139084252Y-112610000D01*
%TO.C,FB121*%
X144390000Y-173584252D02*
X144390000Y-176415748D01*
X149610000Y-173584252D02*
X149610000Y-176415748D01*
%TO.C,FB98*%
X148415748Y-165890000D02*
X145584252Y-165890000D01*
X148415748Y-171110000D02*
X145584252Y-171110000D01*
%TO.C,R18*%
X129334284Y-130846359D02*
X129334284Y-131153641D01*
X130094284Y-130846359D02*
X130094284Y-131153641D01*
%TO.C,FB3*%
X137890000Y-115084252D02*
X137890000Y-117915748D01*
X143110000Y-115084252D02*
X143110000Y-117915748D01*
%TO.C,C7*%
X118642164Y-189890000D02*
X118857836Y-189890000D01*
X118642164Y-190610000D02*
X118857836Y-190610000D01*
%TO.C,FB130*%
X174415748Y-178890000D02*
X171584252Y-178890000D01*
X174415748Y-184110000D02*
X171584252Y-184110000D01*
%TO.C,FB7*%
X150890000Y-115084252D02*
X150890000Y-117915748D01*
X156110000Y-115084252D02*
X156110000Y-117915748D01*
%TO.C,FB126*%
X161415748Y-178890000D02*
X158584252Y-178890000D01*
X161415748Y-184110000D02*
X158584252Y-184110000D01*
%TO.C,C46*%
X127354284Y-124107836D02*
X127354284Y-123892164D01*
X128074284Y-124107836D02*
X128074284Y-123892164D01*
%TO.C,FB136*%
X180915748Y-172390000D02*
X178084252Y-172390000D01*
X180915748Y-177610000D02*
X178084252Y-177610000D01*
%TO.C,FB67*%
X189890000Y-141084252D02*
X189890000Y-143915748D01*
X195110000Y-141084252D02*
X195110000Y-143915748D01*
%TO.C,C58*%
X127354284Y-163107836D02*
X127354284Y-162892164D01*
X128074284Y-163107836D02*
X128074284Y-162892164D01*
%TO.C,FB58*%
X174415748Y-139890000D02*
X171584252Y-139890000D01*
X174415748Y-145110000D02*
X171584252Y-145110000D01*
%TO.C,FB20*%
X154915748Y-107390000D02*
X152084252Y-107390000D01*
X154915748Y-112610000D02*
X152084252Y-112610000D01*
%TO.C,R31*%
X129334284Y-155153641D02*
X129334284Y-154846359D01*
X130094284Y-155153641D02*
X130094284Y-154846359D01*
%TO.C,FB8*%
X170390000Y-108584252D02*
X170390000Y-111415748D01*
X175610000Y-108584252D02*
X175610000Y-111415748D01*
%TO.C,FB37*%
X183390000Y-121584252D02*
X183390000Y-124415748D01*
X188610000Y-121584252D02*
X188610000Y-124415748D01*
%TO.C,R30*%
X129334284Y-156846359D02*
X129334284Y-157153641D01*
X130094284Y-156846359D02*
X130094284Y-157153641D01*
%TO.C,FB29*%
X157390000Y-121584252D02*
X157390000Y-124415748D01*
X162610000Y-121584252D02*
X162610000Y-124415748D01*
%TO.C,FB94*%
X213415748Y-152890000D02*
X210584252Y-152890000D01*
X213415748Y-158110000D02*
X210584252Y-158110000D01*
%TO.C,FB16*%
X196390000Y-108584252D02*
X196390000Y-111415748D01*
X201610000Y-108584252D02*
X201610000Y-111415748D01*
%TO.C,FB123*%
X137890000Y-180084252D02*
X137890000Y-182915748D01*
X143110000Y-180084252D02*
X143110000Y-182915748D01*
%TO.C,FB65*%
X196390000Y-134584252D02*
X196390000Y-137415748D01*
X201610000Y-134584252D02*
X201610000Y-137415748D01*
%TO.C,R48*%
X129334284Y-117846359D02*
X129334284Y-118153641D01*
X130094284Y-117846359D02*
X130094284Y-118153641D01*
%TO.C,C8*%
X130390000Y-192392164D02*
X130390000Y-192607836D01*
X131110000Y-192392164D02*
X131110000Y-192607836D01*
%TO.C,FB33*%
X170390000Y-121584252D02*
X170390000Y-124415748D01*
X175610000Y-121584252D02*
X175610000Y-124415748D01*
%TO.C,R49*%
X129334284Y-116153641D02*
X129334284Y-115846359D01*
X130094284Y-116153641D02*
X130094284Y-115846359D01*
%TO.C,FB110*%
X187415748Y-165890000D02*
X184584252Y-165890000D01*
X187415748Y-171110000D02*
X184584252Y-171110000D01*
%TO.C,FB26*%
X148415748Y-126890000D02*
X145584252Y-126890000D01*
X148415748Y-132110000D02*
X145584252Y-132110000D01*
%TO.C,C64*%
X127354284Y-182607836D02*
X127354284Y-182392164D01*
X128074284Y-182607836D02*
X128074284Y-182392164D01*
%TO.C,R43*%
X129334284Y-181153641D02*
X129334284Y-180846359D01*
X130094284Y-181153641D02*
X130094284Y-180846359D01*
%TO.C,FB80*%
X154915748Y-146390000D02*
X152084252Y-146390000D01*
X154915748Y-151610000D02*
X152084252Y-151610000D01*
%TO.C,FB39*%
X176890000Y-128084252D02*
X176890000Y-130915748D01*
X182110000Y-128084252D02*
X182110000Y-130915748D01*
%TO.C,C59*%
X127354284Y-167392164D02*
X127354284Y-167607836D01*
X128074284Y-167392164D02*
X128074284Y-167607836D01*
%TO.C,FB100*%
X141915748Y-159390000D02*
X139084252Y-159390000D01*
X141915748Y-164610000D02*
X139084252Y-164610000D01*
%TO.C,FB115*%
X189890000Y-167084252D02*
X189890000Y-169915748D01*
X195110000Y-167084252D02*
X195110000Y-169915748D01*
%TO.C,R21*%
X129334284Y-137346359D02*
X129334284Y-137653641D01*
X130094284Y-137346359D02*
X130094284Y-137653641D01*
%TO.C,FB81*%
X170390000Y-147584252D02*
X170390000Y-150415748D01*
X175610000Y-147584252D02*
X175610000Y-150415748D01*
%TO.C,J4*%
X104380000Y-140380000D02*
X104380000Y-162700000D01*
X104380000Y-163300000D02*
X104380000Y-165620000D01*
X104380000Y-165620000D02*
X113620000Y-165620000D01*
X104900000Y-165620000D02*
X104900000Y-140380000D01*
X106000000Y-165620000D02*
X106000000Y-140380000D01*
X113620000Y-140380000D02*
X104380000Y-140380000D01*
X113620000Y-165620000D02*
X113620000Y-140380000D01*
X104380000Y-163000000D02*
X103770000Y-163440000D01*
X103770000Y-162560000D01*
X104380000Y-163000000D01*
G36*
X104380000Y-163000000D02*
G01*
X103770000Y-163440000D01*
X103770000Y-162560000D01*
X104380000Y-163000000D01*
G37*
%TO.C,FB85*%
X183390000Y-147584252D02*
X183390000Y-150415748D01*
X188610000Y-147584252D02*
X188610000Y-150415748D01*
%TO.C,FB135*%
X176890000Y-180084252D02*
X176890000Y-182915748D01*
X182110000Y-180084252D02*
X182110000Y-182915748D01*
%TO.C,C160*%
X127354284Y-117607836D02*
X127354284Y-117392164D01*
X128074284Y-117607836D02*
X128074284Y-117392164D01*
%TO.C,C157*%
X127354284Y-108892164D02*
X127354284Y-109107836D01*
X128074284Y-108892164D02*
X128074284Y-109107836D01*
%TO.C,FB60*%
X167915748Y-133390000D02*
X165084252Y-133390000D01*
X167915748Y-138610000D02*
X165084252Y-138610000D01*
%TO.C,C56*%
X127390000Y-156607836D02*
X127390000Y-156392164D01*
X128110000Y-156607836D02*
X128110000Y-156392164D01*
%TO.C,FB68*%
X193915748Y-133390000D02*
X191084252Y-133390000D01*
X193915748Y-138610000D02*
X191084252Y-138610000D01*
%TO.C,FB14*%
X176890000Y-115084252D02*
X176890000Y-117915748D01*
X182110000Y-115084252D02*
X182110000Y-117915748D01*
%TO.C,FB83*%
X163890000Y-154084252D02*
X163890000Y-156915748D01*
X169110000Y-154084252D02*
X169110000Y-156915748D01*
%TO.C,FB2*%
X144390000Y-108584252D02*
X144390000Y-111415748D01*
X149610000Y-108584252D02*
X149610000Y-111415748D01*
%TO.C,FB61*%
X183390000Y-134584252D02*
X183390000Y-137415748D01*
X188610000Y-134584252D02*
X188610000Y-137415748D01*
%TO.C,FB44*%
X193915748Y-120390000D02*
X191084252Y-120390000D01*
X193915748Y-125610000D02*
X191084252Y-125610000D01*
%TO.C,FB117*%
X209390000Y-160584252D02*
X209390000Y-163415748D01*
X214610000Y-160584252D02*
X214610000Y-163415748D01*
%TO.C,FB88*%
X180915748Y-146390000D02*
X178084252Y-146390000D01*
X180915748Y-151610000D02*
X178084252Y-151610000D01*
%TO.C,FB133*%
X183390000Y-173584252D02*
X183390000Y-176415748D01*
X188610000Y-173584252D02*
X188610000Y-176415748D01*
%TO.C,FB72*%
X206915748Y-133390000D02*
X204084252Y-133390000D01*
X206915748Y-138610000D02*
X204084252Y-138610000D01*
%TO.C,FB32*%
X154915748Y-120390000D02*
X152084252Y-120390000D01*
X154915748Y-125610000D02*
X152084252Y-125610000D01*
%TO.C,R39*%
X129334284Y-176346359D02*
X129334284Y-176653641D01*
X130094284Y-176346359D02*
X130094284Y-176653641D01*
%TO.C,C48*%
X127354284Y-130607836D02*
X127354284Y-130392164D01*
X128074284Y-130607836D02*
X128074284Y-130392164D01*
%TO.C,R16*%
X129334284Y-122653641D02*
X129334284Y-122346359D01*
X130094284Y-122653641D02*
X130094284Y-122346359D01*
%TO.C,FB90*%
X200415748Y-152890000D02*
X197584252Y-152890000D01*
X200415748Y-158110000D02*
X197584252Y-158110000D01*
%TO.C,FB143*%
X202890000Y-180084252D02*
X202890000Y-182915748D01*
X208110000Y-180084252D02*
X208110000Y-182915748D01*
%TO.C,R22*%
X129334284Y-135653641D02*
X129334284Y-135346359D01*
X130094284Y-135653641D02*
X130094284Y-135346359D01*
%TO.C,FB57*%
X170390000Y-134584252D02*
X170390000Y-137415748D01*
X175610000Y-134584252D02*
X175610000Y-137415748D01*
%TD*%
M02*
