%TF.GenerationSoftware,KiCad,Pcbnew,9.0.4-9.0.4-0~ubuntu22.04.1*%
%TF.CreationDate,2025-09-26T09:18:54-04:00*%
%TF.ProjectId,shimarray,7368696d-6172-4726-9179-2e6b69636164,rev?*%
%TF.SameCoordinates,Original*%
%TF.FileFunction,Legend,Top*%
%TF.FilePolarity,Positive*%
%FSLAX46Y46*%
G04 Gerber Fmt 4.6, Leading zero omitted, Abs format (unit mm)*
G04 Created by KiCad (PCBNEW 9.0.4-9.0.4-0~ubuntu22.04.1) date 2025-09-26 09:18:54*
%MOMM*%
%LPD*%
G01*
G04 APERTURE LIST*
%ADD10C,0.200000*%
%ADD11C,0.300000*%
%ADD12C,0.150000*%
%ADD13C,0.120000*%
G04 APERTURE END LIST*
D10*
X143226816Y-197867219D02*
X143560149Y-198867219D01*
X143560149Y-198867219D02*
X143893482Y-197867219D01*
X144750625Y-197914838D02*
X144655387Y-197867219D01*
X144655387Y-197867219D02*
X144512530Y-197867219D01*
X144512530Y-197867219D02*
X144369673Y-197914838D01*
X144369673Y-197914838D02*
X144274435Y-198010076D01*
X144274435Y-198010076D02*
X144226816Y-198105314D01*
X144226816Y-198105314D02*
X144179197Y-198295790D01*
X144179197Y-198295790D02*
X144179197Y-198438647D01*
X144179197Y-198438647D02*
X144226816Y-198629123D01*
X144226816Y-198629123D02*
X144274435Y-198724361D01*
X144274435Y-198724361D02*
X144369673Y-198819600D01*
X144369673Y-198819600D02*
X144512530Y-198867219D01*
X144512530Y-198867219D02*
X144607768Y-198867219D01*
X144607768Y-198867219D02*
X144750625Y-198819600D01*
X144750625Y-198819600D02*
X144798244Y-198771980D01*
X144798244Y-198771980D02*
X144798244Y-198438647D01*
X144798244Y-198438647D02*
X144607768Y-198438647D01*
X145226816Y-198867219D02*
X145226816Y-197867219D01*
X109393482Y-121414838D02*
X109298244Y-121367219D01*
X109298244Y-121367219D02*
X109155387Y-121367219D01*
X109155387Y-121367219D02*
X109012530Y-121414838D01*
X109012530Y-121414838D02*
X108917292Y-121510076D01*
X108917292Y-121510076D02*
X108869673Y-121605314D01*
X108869673Y-121605314D02*
X108822054Y-121795790D01*
X108822054Y-121795790D02*
X108822054Y-121938647D01*
X108822054Y-121938647D02*
X108869673Y-122129123D01*
X108869673Y-122129123D02*
X108917292Y-122224361D01*
X108917292Y-122224361D02*
X109012530Y-122319600D01*
X109012530Y-122319600D02*
X109155387Y-122367219D01*
X109155387Y-122367219D02*
X109250625Y-122367219D01*
X109250625Y-122367219D02*
X109393482Y-122319600D01*
X109393482Y-122319600D02*
X109441101Y-122271980D01*
X109441101Y-122271980D02*
X109441101Y-121938647D01*
X109441101Y-121938647D02*
X109250625Y-121938647D01*
X109869673Y-122367219D02*
X109869673Y-121367219D01*
X109869673Y-121367219D02*
X110441101Y-122367219D01*
X110441101Y-122367219D02*
X110441101Y-121367219D01*
X110917292Y-122367219D02*
X110917292Y-121367219D01*
X110917292Y-121367219D02*
X111155387Y-121367219D01*
X111155387Y-121367219D02*
X111298244Y-121414838D01*
X111298244Y-121414838D02*
X111393482Y-121510076D01*
X111393482Y-121510076D02*
X111441101Y-121605314D01*
X111441101Y-121605314D02*
X111488720Y-121795790D01*
X111488720Y-121795790D02*
X111488720Y-121938647D01*
X111488720Y-121938647D02*
X111441101Y-122129123D01*
X111441101Y-122129123D02*
X111393482Y-122224361D01*
X111393482Y-122224361D02*
X111298244Y-122319600D01*
X111298244Y-122319600D02*
X111155387Y-122367219D01*
X111155387Y-122367219D02*
X110917292Y-122367219D01*
D11*
X103554510Y-148229400D02*
X104697368Y-148229400D01*
X106197368Y-148800828D02*
X105340225Y-148800828D01*
X105768796Y-148800828D02*
X105768796Y-147300828D01*
X105768796Y-147300828D02*
X105625939Y-147515114D01*
X105625939Y-147515114D02*
X105483082Y-147657971D01*
X105483082Y-147657971D02*
X105340225Y-147729400D01*
X107554510Y-147300828D02*
X106840224Y-147300828D01*
X106840224Y-147300828D02*
X106768796Y-148015114D01*
X106768796Y-148015114D02*
X106840224Y-147943685D01*
X106840224Y-147943685D02*
X106983082Y-147872257D01*
X106983082Y-147872257D02*
X107340224Y-147872257D01*
X107340224Y-147872257D02*
X107483082Y-147943685D01*
X107483082Y-147943685D02*
X107554510Y-148015114D01*
X107554510Y-148015114D02*
X107625939Y-148157971D01*
X107625939Y-148157971D02*
X107625939Y-148515114D01*
X107625939Y-148515114D02*
X107554510Y-148657971D01*
X107554510Y-148657971D02*
X107483082Y-148729400D01*
X107483082Y-148729400D02*
X107340224Y-148800828D01*
X107340224Y-148800828D02*
X106983082Y-148800828D01*
X106983082Y-148800828D02*
X106840224Y-148729400D01*
X106840224Y-148729400D02*
X106768796Y-148657971D01*
D10*
X151893482Y-204914838D02*
X151798244Y-204867219D01*
X151798244Y-204867219D02*
X151655387Y-204867219D01*
X151655387Y-204867219D02*
X151512530Y-204914838D01*
X151512530Y-204914838D02*
X151417292Y-205010076D01*
X151417292Y-205010076D02*
X151369673Y-205105314D01*
X151369673Y-205105314D02*
X151322054Y-205295790D01*
X151322054Y-205295790D02*
X151322054Y-205438647D01*
X151322054Y-205438647D02*
X151369673Y-205629123D01*
X151369673Y-205629123D02*
X151417292Y-205724361D01*
X151417292Y-205724361D02*
X151512530Y-205819600D01*
X151512530Y-205819600D02*
X151655387Y-205867219D01*
X151655387Y-205867219D02*
X151750625Y-205867219D01*
X151750625Y-205867219D02*
X151893482Y-205819600D01*
X151893482Y-205819600D02*
X151941101Y-205771980D01*
X151941101Y-205771980D02*
X151941101Y-205438647D01*
X151941101Y-205438647D02*
X151750625Y-205438647D01*
X152369673Y-205867219D02*
X152369673Y-204867219D01*
X152369673Y-204867219D02*
X152941101Y-205867219D01*
X152941101Y-205867219D02*
X152941101Y-204867219D01*
X153417292Y-205867219D02*
X153417292Y-204867219D01*
X153417292Y-204867219D02*
X153655387Y-204867219D01*
X153655387Y-204867219D02*
X153798244Y-204914838D01*
X153798244Y-204914838D02*
X153893482Y-205010076D01*
X153893482Y-205010076D02*
X153941101Y-205105314D01*
X153941101Y-205105314D02*
X153988720Y-205295790D01*
X153988720Y-205295790D02*
X153988720Y-205438647D01*
X153988720Y-205438647D02*
X153941101Y-205629123D01*
X153941101Y-205629123D02*
X153893482Y-205724361D01*
X153893482Y-205724361D02*
X153798244Y-205819600D01*
X153798244Y-205819600D02*
X153655387Y-205867219D01*
X153655387Y-205867219D02*
X153417292Y-205867219D01*
D11*
X104540225Y-142172257D02*
X104397368Y-142100828D01*
X104397368Y-142100828D02*
X104183082Y-142100828D01*
X104183082Y-142100828D02*
X103968796Y-142172257D01*
X103968796Y-142172257D02*
X103825939Y-142315114D01*
X103825939Y-142315114D02*
X103754510Y-142457971D01*
X103754510Y-142457971D02*
X103683082Y-142743685D01*
X103683082Y-142743685D02*
X103683082Y-142957971D01*
X103683082Y-142957971D02*
X103754510Y-143243685D01*
X103754510Y-143243685D02*
X103825939Y-143386542D01*
X103825939Y-143386542D02*
X103968796Y-143529400D01*
X103968796Y-143529400D02*
X104183082Y-143600828D01*
X104183082Y-143600828D02*
X104325939Y-143600828D01*
X104325939Y-143600828D02*
X104540225Y-143529400D01*
X104540225Y-143529400D02*
X104611653Y-143457971D01*
X104611653Y-143457971D02*
X104611653Y-142957971D01*
X104611653Y-142957971D02*
X104325939Y-142957971D01*
X105254510Y-143600828D02*
X105254510Y-142100828D01*
X105254510Y-142100828D02*
X106111653Y-143600828D01*
X106111653Y-143600828D02*
X106111653Y-142100828D01*
X106825939Y-143600828D02*
X106825939Y-142100828D01*
X106825939Y-142100828D02*
X107183082Y-142100828D01*
X107183082Y-142100828D02*
X107397368Y-142172257D01*
X107397368Y-142172257D02*
X107540225Y-142315114D01*
X107540225Y-142315114D02*
X107611654Y-142457971D01*
X107611654Y-142457971D02*
X107683082Y-142743685D01*
X107683082Y-142743685D02*
X107683082Y-142957971D01*
X107683082Y-142957971D02*
X107611654Y-143243685D01*
X107611654Y-143243685D02*
X107540225Y-143386542D01*
X107540225Y-143386542D02*
X107397368Y-143529400D01*
X107397368Y-143529400D02*
X107183082Y-143600828D01*
X107183082Y-143600828D02*
X106825939Y-143600828D01*
D10*
X147226816Y-197867219D02*
X147560149Y-198867219D01*
X147560149Y-198867219D02*
X147893482Y-197867219D01*
X148750625Y-197914838D02*
X148655387Y-197867219D01*
X148655387Y-197867219D02*
X148512530Y-197867219D01*
X148512530Y-197867219D02*
X148369673Y-197914838D01*
X148369673Y-197914838D02*
X148274435Y-198010076D01*
X148274435Y-198010076D02*
X148226816Y-198105314D01*
X148226816Y-198105314D02*
X148179197Y-198295790D01*
X148179197Y-198295790D02*
X148179197Y-198438647D01*
X148179197Y-198438647D02*
X148226816Y-198629123D01*
X148226816Y-198629123D02*
X148274435Y-198724361D01*
X148274435Y-198724361D02*
X148369673Y-198819600D01*
X148369673Y-198819600D02*
X148512530Y-198867219D01*
X148512530Y-198867219D02*
X148607768Y-198867219D01*
X148607768Y-198867219D02*
X148750625Y-198819600D01*
X148750625Y-198819600D02*
X148798244Y-198771980D01*
X148798244Y-198771980D02*
X148798244Y-198438647D01*
X148798244Y-198438647D02*
X148607768Y-198438647D01*
X108893482Y-165914838D02*
X108798244Y-165867219D01*
X108798244Y-165867219D02*
X108655387Y-165867219D01*
X108655387Y-165867219D02*
X108512530Y-165914838D01*
X108512530Y-165914838D02*
X108417292Y-166010076D01*
X108417292Y-166010076D02*
X108369673Y-166105314D01*
X108369673Y-166105314D02*
X108322054Y-166295790D01*
X108322054Y-166295790D02*
X108322054Y-166438647D01*
X108322054Y-166438647D02*
X108369673Y-166629123D01*
X108369673Y-166629123D02*
X108417292Y-166724361D01*
X108417292Y-166724361D02*
X108512530Y-166819600D01*
X108512530Y-166819600D02*
X108655387Y-166867219D01*
X108655387Y-166867219D02*
X108750625Y-166867219D01*
X108750625Y-166867219D02*
X108893482Y-166819600D01*
X108893482Y-166819600D02*
X108941101Y-166771980D01*
X108941101Y-166771980D02*
X108941101Y-166438647D01*
X108941101Y-166438647D02*
X108750625Y-166438647D01*
X109369673Y-166867219D02*
X109369673Y-165867219D01*
X109369673Y-165867219D02*
X109941101Y-166867219D01*
X109941101Y-166867219D02*
X109941101Y-165867219D01*
X110417292Y-166867219D02*
X110417292Y-165867219D01*
X110417292Y-165867219D02*
X110655387Y-165867219D01*
X110655387Y-165867219D02*
X110798244Y-165914838D01*
X110798244Y-165914838D02*
X110893482Y-166010076D01*
X110893482Y-166010076D02*
X110941101Y-166105314D01*
X110941101Y-166105314D02*
X110988720Y-166295790D01*
X110988720Y-166295790D02*
X110988720Y-166438647D01*
X110988720Y-166438647D02*
X110941101Y-166629123D01*
X110941101Y-166629123D02*
X110893482Y-166724361D01*
X110893482Y-166724361D02*
X110798244Y-166819600D01*
X110798244Y-166819600D02*
X110655387Y-166867219D01*
X110655387Y-166867219D02*
X110417292Y-166867219D01*
X113226816Y-108867219D02*
X113560149Y-109867219D01*
X113560149Y-109867219D02*
X113893482Y-108867219D01*
X114083959Y-108867219D02*
X114655387Y-108867219D01*
X114369673Y-109867219D02*
X114369673Y-108867219D01*
X112226816Y-165867219D02*
X112560149Y-166867219D01*
X112560149Y-166867219D02*
X112893482Y-165867219D01*
X113083959Y-165867219D02*
X113655387Y-165867219D01*
X113369673Y-166867219D02*
X113369673Y-165867219D01*
X114560149Y-166867219D02*
X114226816Y-166391028D01*
X113988721Y-166867219D02*
X113988721Y-165867219D01*
X113988721Y-165867219D02*
X114369673Y-165867219D01*
X114369673Y-165867219D02*
X114464911Y-165914838D01*
X114464911Y-165914838D02*
X114512530Y-165962457D01*
X114512530Y-165962457D02*
X114560149Y-166057695D01*
X114560149Y-166057695D02*
X114560149Y-166200552D01*
X114560149Y-166200552D02*
X114512530Y-166295790D01*
X114512530Y-166295790D02*
X114464911Y-166343409D01*
X114464911Y-166343409D02*
X114369673Y-166391028D01*
X114369673Y-166391028D02*
X113988721Y-166391028D01*
D11*
X103554510Y-153229400D02*
X104697368Y-153229400D01*
X104125939Y-153800828D02*
X104125939Y-152657971D01*
X106197368Y-153800828D02*
X105340225Y-153800828D01*
X105768796Y-153800828D02*
X105768796Y-152300828D01*
X105768796Y-152300828D02*
X105625939Y-152515114D01*
X105625939Y-152515114D02*
X105483082Y-152657971D01*
X105483082Y-152657971D02*
X105340225Y-152729400D01*
X107554510Y-152300828D02*
X106840224Y-152300828D01*
X106840224Y-152300828D02*
X106768796Y-153015114D01*
X106768796Y-153015114D02*
X106840224Y-152943685D01*
X106840224Y-152943685D02*
X106983082Y-152872257D01*
X106983082Y-152872257D02*
X107340224Y-152872257D01*
X107340224Y-152872257D02*
X107483082Y-152943685D01*
X107483082Y-152943685D02*
X107554510Y-153015114D01*
X107554510Y-153015114D02*
X107625939Y-153157971D01*
X107625939Y-153157971D02*
X107625939Y-153515114D01*
X107625939Y-153515114D02*
X107554510Y-153657971D01*
X107554510Y-153657971D02*
X107483082Y-153729400D01*
X107483082Y-153729400D02*
X107340224Y-153800828D01*
X107340224Y-153800828D02*
X106983082Y-153800828D01*
X106983082Y-153800828D02*
X106840224Y-153729400D01*
X106840224Y-153729400D02*
X106768796Y-153657971D01*
X104011653Y-157300828D02*
X104940225Y-157300828D01*
X104940225Y-157300828D02*
X104440225Y-157872257D01*
X104440225Y-157872257D02*
X104654510Y-157872257D01*
X104654510Y-157872257D02*
X104797368Y-157943685D01*
X104797368Y-157943685D02*
X104868796Y-158015114D01*
X104868796Y-158015114D02*
X104940225Y-158157971D01*
X104940225Y-158157971D02*
X104940225Y-158515114D01*
X104940225Y-158515114D02*
X104868796Y-158657971D01*
X104868796Y-158657971D02*
X104797368Y-158729400D01*
X104797368Y-158729400D02*
X104654510Y-158800828D01*
X104654510Y-158800828D02*
X104225939Y-158800828D01*
X104225939Y-158800828D02*
X104083082Y-158729400D01*
X104083082Y-158729400D02*
X104011653Y-158657971D01*
X105368796Y-157300828D02*
X105868796Y-158800828D01*
X105868796Y-158800828D02*
X106368796Y-157300828D01*
X106725938Y-157300828D02*
X107654510Y-157300828D01*
X107654510Y-157300828D02*
X107154510Y-157872257D01*
X107154510Y-157872257D02*
X107368795Y-157872257D01*
X107368795Y-157872257D02*
X107511653Y-157943685D01*
X107511653Y-157943685D02*
X107583081Y-158015114D01*
X107583081Y-158015114D02*
X107654510Y-158157971D01*
X107654510Y-158157971D02*
X107654510Y-158515114D01*
X107654510Y-158515114D02*
X107583081Y-158657971D01*
X107583081Y-158657971D02*
X107511653Y-158729400D01*
X107511653Y-158729400D02*
X107368795Y-158800828D01*
X107368795Y-158800828D02*
X106940224Y-158800828D01*
X106940224Y-158800828D02*
X106797367Y-158729400D01*
X106797367Y-158729400D02*
X106725938Y-158657971D01*
D10*
X131226816Y-104367219D02*
X131560149Y-105367219D01*
X131560149Y-105367219D02*
X131893482Y-104367219D01*
X132179197Y-105319600D02*
X132322054Y-105367219D01*
X132322054Y-105367219D02*
X132560149Y-105367219D01*
X132560149Y-105367219D02*
X132655387Y-105319600D01*
X132655387Y-105319600D02*
X132703006Y-105271980D01*
X132703006Y-105271980D02*
X132750625Y-105176742D01*
X132750625Y-105176742D02*
X132750625Y-105081504D01*
X132750625Y-105081504D02*
X132703006Y-104986266D01*
X132703006Y-104986266D02*
X132655387Y-104938647D01*
X132655387Y-104938647D02*
X132560149Y-104891028D01*
X132560149Y-104891028D02*
X132369673Y-104843409D01*
X132369673Y-104843409D02*
X132274435Y-104795790D01*
X132274435Y-104795790D02*
X132226816Y-104748171D01*
X132226816Y-104748171D02*
X132179197Y-104652933D01*
X132179197Y-104652933D02*
X132179197Y-104557695D01*
X132179197Y-104557695D02*
X132226816Y-104462457D01*
X132226816Y-104462457D02*
X132274435Y-104414838D01*
X132274435Y-104414838D02*
X132369673Y-104367219D01*
X132369673Y-104367219D02*
X132607768Y-104367219D01*
X132607768Y-104367219D02*
X132750625Y-104414838D01*
X133179197Y-104843409D02*
X133512530Y-104843409D01*
X133655387Y-105367219D02*
X133179197Y-105367219D01*
X133179197Y-105367219D02*
X133179197Y-104367219D01*
X133179197Y-104367219D02*
X133655387Y-104367219D01*
X133941102Y-104367219D02*
X134512530Y-104367219D01*
X134226816Y-105367219D02*
X134226816Y-104367219D01*
X104226816Y-165867219D02*
X104798244Y-165867219D01*
X104512530Y-166867219D02*
X104512530Y-165867219D01*
X105131578Y-166867219D02*
X105131578Y-165867219D01*
X105131578Y-165867219D02*
X105464911Y-166581504D01*
X105464911Y-166581504D02*
X105798244Y-165867219D01*
X105798244Y-165867219D02*
X105798244Y-166867219D01*
X106274435Y-166867219D02*
X106274435Y-165867219D01*
X106274435Y-165867219D02*
X106655387Y-165867219D01*
X106655387Y-165867219D02*
X106750625Y-165914838D01*
X106750625Y-165914838D02*
X106798244Y-165962457D01*
X106798244Y-165962457D02*
X106845863Y-166057695D01*
X106845863Y-166057695D02*
X106845863Y-166200552D01*
X106845863Y-166200552D02*
X106798244Y-166295790D01*
X106798244Y-166295790D02*
X106750625Y-166343409D01*
X106750625Y-166343409D02*
X106655387Y-166391028D01*
X106655387Y-166391028D02*
X106274435Y-166391028D01*
D11*
X104940225Y-162300828D02*
X105440225Y-163800828D01*
X105440225Y-163800828D02*
X105940225Y-162300828D01*
X106440224Y-163800828D02*
X106440224Y-162300828D01*
X106440224Y-162300828D02*
X106797367Y-162300828D01*
X106797367Y-162300828D02*
X107011653Y-162372257D01*
X107011653Y-162372257D02*
X107154510Y-162515114D01*
X107154510Y-162515114D02*
X107225939Y-162657971D01*
X107225939Y-162657971D02*
X107297367Y-162943685D01*
X107297367Y-162943685D02*
X107297367Y-163157971D01*
X107297367Y-163157971D02*
X107225939Y-163443685D01*
X107225939Y-163443685D02*
X107154510Y-163586542D01*
X107154510Y-163586542D02*
X107011653Y-163729400D01*
X107011653Y-163729400D02*
X106797367Y-163800828D01*
X106797367Y-163800828D02*
X106440224Y-163800828D01*
D12*
X139061905Y-196854819D02*
X139061905Y-195854819D01*
X139061905Y-195854819D02*
X139300000Y-195854819D01*
X139300000Y-195854819D02*
X139442857Y-195902438D01*
X139442857Y-195902438D02*
X139538095Y-195997676D01*
X139538095Y-195997676D02*
X139585714Y-196092914D01*
X139585714Y-196092914D02*
X139633333Y-196283390D01*
X139633333Y-196283390D02*
X139633333Y-196426247D01*
X139633333Y-196426247D02*
X139585714Y-196616723D01*
X139585714Y-196616723D02*
X139538095Y-196711961D01*
X139538095Y-196711961D02*
X139442857Y-196807200D01*
X139442857Y-196807200D02*
X139300000Y-196854819D01*
X139300000Y-196854819D02*
X139061905Y-196854819D01*
X140014286Y-195950057D02*
X140061905Y-195902438D01*
X140061905Y-195902438D02*
X140157143Y-195854819D01*
X140157143Y-195854819D02*
X140395238Y-195854819D01*
X140395238Y-195854819D02*
X140490476Y-195902438D01*
X140490476Y-195902438D02*
X140538095Y-195950057D01*
X140538095Y-195950057D02*
X140585714Y-196045295D01*
X140585714Y-196045295D02*
X140585714Y-196140533D01*
X140585714Y-196140533D02*
X140538095Y-196283390D01*
X140538095Y-196283390D02*
X139966667Y-196854819D01*
X139966667Y-196854819D02*
X140585714Y-196854819D01*
X138261905Y-201884819D02*
X138261905Y-200884819D01*
X138261905Y-200884819D02*
X138500000Y-200884819D01*
X138500000Y-200884819D02*
X138642857Y-200932438D01*
X138642857Y-200932438D02*
X138738095Y-201027676D01*
X138738095Y-201027676D02*
X138785714Y-201122914D01*
X138785714Y-201122914D02*
X138833333Y-201313390D01*
X138833333Y-201313390D02*
X138833333Y-201456247D01*
X138833333Y-201456247D02*
X138785714Y-201646723D01*
X138785714Y-201646723D02*
X138738095Y-201741961D01*
X138738095Y-201741961D02*
X138642857Y-201837200D01*
X138642857Y-201837200D02*
X138500000Y-201884819D01*
X138500000Y-201884819D02*
X138261905Y-201884819D01*
X139785714Y-201884819D02*
X139214286Y-201884819D01*
X139500000Y-201884819D02*
X139500000Y-200884819D01*
X139500000Y-200884819D02*
X139404762Y-201027676D01*
X139404762Y-201027676D02*
X139309524Y-201122914D01*
X139309524Y-201122914D02*
X139214286Y-201170533D01*
D13*
%TO.C,C106*%
X199607836Y-140140000D02*
X199392164Y-140140000D01*
X199607836Y-140860000D02*
X199392164Y-140860000D01*
%TO.C,C121*%
X170640000Y-148392165D02*
X170640000Y-148607837D01*
X171360000Y-148392165D02*
X171360000Y-148607837D01*
%TO.C,RN6*%
X178030000Y-192000000D02*
X178030000Y-191000000D01*
X179970000Y-192000000D02*
X179970000Y-191000000D01*
%TO.C,C176*%
X167107836Y-172640000D02*
X166892164Y-172640000D01*
X167107836Y-173360000D02*
X166892164Y-173360000D01*
%TO.C,U30*%
X128714284Y-107940000D02*
X126764284Y-107940000D01*
X128714284Y-107940000D02*
X130664284Y-107940000D01*
X128714284Y-113060000D02*
X126764284Y-113060000D01*
X128714284Y-113060000D02*
X130664284Y-113060000D01*
X131654284Y-113295000D02*
X131174284Y-113295000D01*
X131414284Y-112965000D01*
X131654284Y-113295000D01*
G36*
X131654284Y-113295000D02*
G01*
X131174284Y-113295000D01*
X131414284Y-112965000D01*
X131654284Y-113295000D01*
G37*
%TO.C,C139*%
X138140000Y-167892165D02*
X138140000Y-168107837D01*
X138860000Y-167892165D02*
X138860000Y-168107837D01*
%TO.C,U25*%
X128714284Y-172940000D02*
X126764284Y-172940000D01*
X128714284Y-172940000D02*
X130664284Y-172940000D01*
X128714284Y-178060000D02*
X126764284Y-178060000D01*
X128714284Y-178060000D02*
X130664284Y-178060000D01*
X131654284Y-178295000D02*
X131174284Y-178295000D01*
X131414284Y-177965000D01*
X131654284Y-178295000D01*
G36*
X131654284Y-178295000D02*
G01*
X131174284Y-178295000D01*
X131414284Y-177965000D01*
X131654284Y-178295000D01*
G37*
%TO.C,C107*%
X190140000Y-141892165D02*
X190140000Y-142107837D01*
X190860000Y-141892165D02*
X190860000Y-142107837D01*
%TO.C,C87*%
X203140000Y-128892165D02*
X203140000Y-129107837D01*
X203860000Y-128892165D02*
X203860000Y-129107837D01*
%TO.C,R1*%
X141346359Y-199620000D02*
X141653641Y-199620000D01*
X141346359Y-200380000D02*
X141653641Y-200380000D01*
%TO.C,RN3*%
X162030000Y-192000000D02*
X162030000Y-191000000D01*
X163970000Y-192000000D02*
X163970000Y-191000000D01*
%TO.C,C85*%
X209640000Y-122392165D02*
X209640000Y-122607837D01*
X210360000Y-122392165D02*
X210360000Y-122607837D01*
%TO.C,C148*%
X167107836Y-159640000D02*
X166892164Y-159640000D01*
X167107836Y-160360000D02*
X166892164Y-160360000D01*
%TO.C,U7*%
X210000000Y-188940000D02*
X208050000Y-188940000D01*
X210000000Y-188940000D02*
X211950000Y-188940000D01*
X210000000Y-194060000D02*
X208050000Y-194060000D01*
X210000000Y-194060000D02*
X211950000Y-194060000D01*
X207300000Y-189035000D02*
X207060000Y-188705000D01*
X207540000Y-188705000D01*
X207300000Y-189035000D01*
G36*
X207300000Y-189035000D02*
G01*
X207060000Y-188705000D01*
X207540000Y-188705000D01*
X207300000Y-189035000D01*
G37*
%TO.C,C17*%
X133822120Y-163140000D02*
X133606448Y-163140000D01*
X133822120Y-163860000D02*
X133606448Y-163860000D01*
%TO.C,D2*%
X138200000Y-198735000D02*
X140485000Y-198735000D01*
X140485000Y-197265000D02*
X138200000Y-197265000D01*
X140485000Y-198735000D02*
X140485000Y-197265000D01*
%TO.C,C86*%
X212607836Y-127140000D02*
X212392164Y-127140000D01*
X212607836Y-127860000D02*
X212392164Y-127860000D01*
%TO.C,C174*%
X173607836Y-179140000D02*
X173392164Y-179140000D01*
X173607836Y-179860000D02*
X173392164Y-179860000D01*
%TO.C,C170*%
X160607836Y-179140000D02*
X160392164Y-179140000D01*
X160607836Y-179860000D02*
X160392164Y-179860000D01*
%TO.C,C172*%
X154107836Y-172640000D02*
X153892164Y-172640000D01*
X154107836Y-173360000D02*
X153892164Y-173360000D01*
%TO.C,U24*%
X119714284Y-172940000D02*
X117764284Y-172940000D01*
X119714284Y-172940000D02*
X121664284Y-172940000D01*
X119714284Y-178060000D02*
X117764284Y-178060000D01*
X119714284Y-178060000D02*
X121664284Y-178060000D01*
X122654284Y-178295000D02*
X122174284Y-178295000D01*
X122414284Y-177965000D01*
X122654284Y-178295000D01*
G36*
X122654284Y-178295000D02*
G01*
X122174284Y-178295000D01*
X122414284Y-177965000D01*
X122654284Y-178295000D01*
G37*
%TO.C,C88*%
X206107836Y-120640000D02*
X205892164Y-120640000D01*
X206107836Y-121360000D02*
X205892164Y-121360000D01*
%TO.C,D1*%
X138200000Y-200735000D02*
X140485000Y-200735000D01*
X140485000Y-199265000D02*
X138200000Y-199265000D01*
X140485000Y-200735000D02*
X140485000Y-199265000D01*
%TO.C,R47*%
X123834284Y-112153641D02*
X123834284Y-111846359D01*
X124594284Y-112153641D02*
X124594284Y-111846359D01*
%TO.C,C91*%
X138140000Y-141892165D02*
X138140000Y-142107837D01*
X138860000Y-141892165D02*
X138860000Y-142107837D01*
%TO.C,C79*%
X177140000Y-128892165D02*
X177140000Y-129107837D01*
X177860000Y-128892165D02*
X177860000Y-129107837D01*
%TO.C,C140*%
X141107836Y-159640000D02*
X140892164Y-159640000D01*
X141107836Y-160360000D02*
X140892164Y-160360000D01*
%TO.C,C179*%
X177140000Y-180892165D02*
X177140000Y-181107837D01*
X177860000Y-180892165D02*
X177860000Y-181107837D01*
%TO.C,C28*%
X170640000Y-109392165D02*
X170640000Y-109607837D01*
X171360000Y-109392165D02*
X171360000Y-109607837D01*
%TO.C,U23*%
X128714284Y-166440000D02*
X126764284Y-166440000D01*
X128714284Y-166440000D02*
X130664284Y-166440000D01*
X128714284Y-171560000D02*
X126764284Y-171560000D01*
X128714284Y-171560000D02*
X130664284Y-171560000D01*
X131654284Y-171795000D02*
X131174284Y-171795000D01*
X131414284Y-171465000D01*
X131654284Y-171795000D01*
G36*
X131654284Y-171795000D02*
G01*
X131174284Y-171795000D01*
X131414284Y-171465000D01*
X131654284Y-171795000D01*
G37*
%TO.C,C68*%
X141107836Y-120640000D02*
X140892164Y-120640000D01*
X141107836Y-121360000D02*
X140892164Y-121360000D01*
%TO.C,C25*%
X157640000Y-109392165D02*
X157640000Y-109607837D01*
X158360000Y-109392165D02*
X158360000Y-109607837D01*
%TO.C,C89*%
X144640000Y-135392165D02*
X144640000Y-135607837D01*
X145360000Y-135392165D02*
X145360000Y-135607837D01*
%TO.C,C80*%
X180107836Y-120640000D02*
X179892164Y-120640000D01*
X180107836Y-121360000D02*
X179892164Y-121360000D01*
%TO.C,C169*%
X157640000Y-174392165D02*
X157640000Y-174607837D01*
X158360000Y-174392165D02*
X158360000Y-174607837D01*
%TO.C,C15*%
X133822120Y-149640000D02*
X133606448Y-149640000D01*
X133822120Y-150360000D02*
X133606448Y-150360000D01*
%TO.C,U17*%
X128714284Y-146940000D02*
X126764284Y-146940000D01*
X128714284Y-146940000D02*
X130664284Y-146940000D01*
X128714284Y-152060000D02*
X126764284Y-152060000D01*
X128714284Y-152060000D02*
X130664284Y-152060000D01*
X131654284Y-152295000D02*
X131174284Y-152295000D01*
X131414284Y-151965000D01*
X131654284Y-152295000D01*
G36*
X131654284Y-152295000D02*
G01*
X131174284Y-152295000D01*
X131414284Y-151965000D01*
X131654284Y-152295000D01*
G37*
%TO.C,U6*%
X197000000Y-188940000D02*
X195050000Y-188940000D01*
X197000000Y-188940000D02*
X198950000Y-188940000D01*
X197000000Y-194060000D02*
X195050000Y-194060000D01*
X197000000Y-194060000D02*
X198950000Y-194060000D01*
X194300000Y-189035000D02*
X194060000Y-188705000D01*
X194540000Y-188705000D01*
X194300000Y-189035000D01*
G36*
X194300000Y-189035000D02*
G01*
X194060000Y-188705000D01*
X194540000Y-188705000D01*
X194300000Y-189035000D01*
G37*
%TO.C,U5*%
X184000000Y-188940000D02*
X182050000Y-188940000D01*
X184000000Y-188940000D02*
X185950000Y-188940000D01*
X184000000Y-194060000D02*
X182050000Y-194060000D01*
X184000000Y-194060000D02*
X185950000Y-194060000D01*
X181300000Y-189035000D02*
X181060000Y-188705000D01*
X181540000Y-188705000D01*
X181300000Y-189035000D01*
G36*
X181300000Y-189035000D02*
G01*
X181060000Y-188705000D01*
X181540000Y-188705000D01*
X181300000Y-189035000D01*
G37*
%TO.C,C173*%
X170640000Y-174392165D02*
X170640000Y-174607837D01*
X171360000Y-174392165D02*
X171360000Y-174607837D01*
%TO.C,U31*%
X119714284Y-114440000D02*
X117764284Y-114440000D01*
X119714284Y-114440000D02*
X121664284Y-114440000D01*
X119714284Y-119560000D02*
X117764284Y-119560000D01*
X119714284Y-119560000D02*
X121664284Y-119560000D01*
X122654284Y-119795000D02*
X122174284Y-119795000D01*
X122414284Y-119465000D01*
X122654284Y-119795000D01*
G36*
X122654284Y-119795000D02*
G01*
X122174284Y-119795000D01*
X122414284Y-119465000D01*
X122654284Y-119795000D01*
G37*
%TO.C,R2*%
X141346359Y-197620000D02*
X141653641Y-197620000D01*
X141346359Y-198380000D02*
X141653641Y-198380000D01*
%TO.C,C81*%
X196640000Y-122392165D02*
X196640000Y-122607837D01*
X197360000Y-122392165D02*
X197360000Y-122607837D01*
%TO.C,R8*%
X133560643Y-136120000D02*
X133867925Y-136120000D01*
X133560643Y-136880000D02*
X133867925Y-136880000D01*
%TO.C,C147*%
X164140000Y-167892165D02*
X164140000Y-168107837D01*
X164860000Y-167892165D02*
X164860000Y-168107837D01*
%TO.C,C136*%
X206107836Y-146640000D02*
X205892164Y-146640000D01*
X206107836Y-147360000D02*
X205892164Y-147360000D01*
%TO.C,RN7*%
X188030000Y-192000000D02*
X188030000Y-191000000D01*
X189970000Y-192000000D02*
X189970000Y-191000000D01*
%TO.C,C83*%
X190140000Y-128892165D02*
X190140000Y-129107837D01*
X190860000Y-128892165D02*
X190860000Y-129107837D01*
%TO.C,U32*%
X128714284Y-114440000D02*
X126764284Y-114440000D01*
X128714284Y-114440000D02*
X130664284Y-114440000D01*
X128714284Y-119560000D02*
X126764284Y-119560000D01*
X128714284Y-119560000D02*
X130664284Y-119560000D01*
X131654284Y-119795000D02*
X131174284Y-119795000D01*
X131414284Y-119465000D01*
X131654284Y-119795000D01*
G36*
X131654284Y-119795000D02*
G01*
X131174284Y-119795000D01*
X131414284Y-119465000D01*
X131654284Y-119795000D01*
G37*
%TO.C,C73*%
X170640000Y-122392165D02*
X170640000Y-122607837D01*
X171360000Y-122392165D02*
X171360000Y-122607837D01*
%TO.C,U19*%
X128714284Y-153440000D02*
X126764284Y-153440000D01*
X128714284Y-153440000D02*
X130664284Y-153440000D01*
X128714284Y-158560000D02*
X126764284Y-158560000D01*
X128714284Y-158560000D02*
X130664284Y-158560000D01*
X131654284Y-158795000D02*
X131174284Y-158795000D01*
X131414284Y-158465000D01*
X131654284Y-158795000D01*
G36*
X131654284Y-158795000D02*
G01*
X131174284Y-158795000D01*
X131414284Y-158465000D01*
X131654284Y-158795000D01*
G37*
%TO.C,C30*%
X164140000Y-115892165D02*
X164140000Y-116107837D01*
X164860000Y-115892165D02*
X164860000Y-116107837D01*
%TO.C,C21*%
X141107836Y-107640000D02*
X140892164Y-107640000D01*
X141107836Y-108360000D02*
X140892164Y-108360000D01*
%TO.C,C168*%
X141107836Y-172640000D02*
X140892164Y-172640000D01*
X141107836Y-173360000D02*
X140892164Y-173360000D01*
%TO.C,R32*%
X123834284Y-157653641D02*
X123834284Y-157346359D01*
X124594284Y-157653641D02*
X124594284Y-157346359D01*
%TO.C,C34*%
X177140000Y-115892165D02*
X177140000Y-116107837D01*
X177860000Y-115892165D02*
X177860000Y-116107837D01*
%TO.C,R7*%
X133560643Y-142620000D02*
X133867925Y-142620000D01*
X133560643Y-143380000D02*
X133867925Y-143380000D01*
%TO.C,C11*%
X133822120Y-124140000D02*
X133606448Y-124140000D01*
X133822120Y-124860000D02*
X133606448Y-124860000D01*
%TO.C,C141*%
X157640000Y-161392165D02*
X157640000Y-161607837D01*
X158360000Y-161392165D02*
X158360000Y-161607837D01*
%TO.C,RN8*%
X191030000Y-192000000D02*
X191030000Y-191000000D01*
X192970000Y-192000000D02*
X192970000Y-191000000D01*
%TO.C,C82*%
X199607836Y-127140000D02*
X199392164Y-127140000D01*
X199607836Y-127860000D02*
X199392164Y-127860000D01*
%TO.C,C115*%
X138140000Y-154892165D02*
X138140000Y-155107837D01*
X138860000Y-154892165D02*
X138860000Y-155107837D01*
%TO.C,R12*%
X133560643Y-162120000D02*
X133867925Y-162120000D01*
X133560643Y-162880000D02*
X133867925Y-162880000D01*
%TO.C,C133*%
X209640000Y-148392165D02*
X209640000Y-148607837D01*
X210360000Y-148392165D02*
X210360000Y-148607837D01*
%TO.C,R14*%
X133560643Y-175120000D02*
X133867925Y-175120000D01*
X133560643Y-175880000D02*
X133867925Y-175880000D01*
%TO.C,C112*%
X206107836Y-133640000D02*
X205892164Y-133640000D01*
X206107836Y-134360000D02*
X205892164Y-134360000D01*
%TO.C,C154*%
X199607836Y-166140000D02*
X199392164Y-166140000D01*
X199607836Y-166860000D02*
X199392164Y-166860000D01*
%TO.C,U2*%
X111000000Y-170940000D02*
X109050000Y-170940000D01*
X111000000Y-170940000D02*
X112950000Y-170940000D01*
X111000000Y-176060000D02*
X109050000Y-176060000D01*
X111000000Y-176060000D02*
X112950000Y-176060000D01*
X108300000Y-171035000D02*
X108060000Y-170705000D01*
X108540000Y-170705000D01*
X108300000Y-171035000D01*
G36*
X108300000Y-171035000D02*
G01*
X108060000Y-170705000D01*
X108540000Y-170705000D01*
X108300000Y-171035000D01*
G37*
%TO.C,C105*%
X196640000Y-135392165D02*
X196640000Y-135607837D01*
X197360000Y-135392165D02*
X197360000Y-135607837D01*
%TO.C,C84*%
X193107836Y-120640000D02*
X192892164Y-120640000D01*
X193107836Y-121360000D02*
X192892164Y-121360000D01*
%TO.C,C101*%
X183640000Y-135392165D02*
X183640000Y-135607837D01*
X184360000Y-135392165D02*
X184360000Y-135607837D01*
%TO.C,C35*%
X180107836Y-107640000D02*
X179892164Y-107640000D01*
X180107836Y-108360000D02*
X179892164Y-108360000D01*
%TO.C,C22*%
X144640000Y-109392165D02*
X144640000Y-109607837D01*
X145360000Y-109392165D02*
X145360000Y-109607837D01*
%TO.C,C183*%
X190140000Y-180892165D02*
X190140000Y-181107837D01*
X190860000Y-180892165D02*
X190860000Y-181107837D01*
%TO.C,C93*%
X157640000Y-135392165D02*
X157640000Y-135607837D01*
X158360000Y-135392165D02*
X158360000Y-135607837D01*
%TO.C,R41*%
X123834284Y-177153641D02*
X123834284Y-176846359D01*
X124594284Y-177153641D02*
X124594284Y-176846359D01*
%TO.C,C122*%
X173607836Y-153140000D02*
X173392164Y-153140000D01*
X173607836Y-153860000D02*
X173392164Y-153860000D01*
%TO.C,C99*%
X164140000Y-141892165D02*
X164140000Y-142107837D01*
X164860000Y-141892165D02*
X164860000Y-142107837D01*
%TO.C,C102*%
X186607836Y-140140000D02*
X186392164Y-140140000D01*
X186607836Y-140860000D02*
X186392164Y-140860000D01*
%TO.C,C111*%
X203140000Y-141892165D02*
X203140000Y-142107837D01*
X203860000Y-141892165D02*
X203860000Y-142107837D01*
%TO.C,C142*%
X160607836Y-166140000D02*
X160392164Y-166140000D01*
X160607836Y-166860000D02*
X160392164Y-166860000D01*
%TO.C,C137*%
X144640000Y-161392165D02*
X144640000Y-161607837D01*
X145360000Y-161392165D02*
X145360000Y-161607837D01*
%TO.C,C153*%
X196640000Y-161392165D02*
X196640000Y-161607837D01*
X197360000Y-161392165D02*
X197360000Y-161607837D01*
%TO.C,U10*%
X119714284Y-127440000D02*
X117764284Y-127440000D01*
X119714284Y-127440000D02*
X121664284Y-127440000D01*
X119714284Y-132560000D02*
X117764284Y-132560000D01*
X119714284Y-132560000D02*
X121664284Y-132560000D01*
X122654284Y-132795000D02*
X122174284Y-132795000D01*
X122414284Y-132465000D01*
X122654284Y-132795000D01*
G36*
X122654284Y-132795000D02*
G01*
X122174284Y-132795000D01*
X122414284Y-132465000D01*
X122654284Y-132795000D01*
G37*
%TO.C,C36*%
X196640000Y-109392165D02*
X196640000Y-109607837D01*
X197360000Y-109392165D02*
X197360000Y-109607837D01*
%TO.C,C162*%
X212607836Y-166140000D02*
X212392164Y-166140000D01*
X212607836Y-166860000D02*
X212392164Y-166860000D01*
%TO.C,R17*%
X123834284Y-125153641D02*
X123834284Y-124846359D01*
X124594284Y-125153641D02*
X124594284Y-124846359D01*
%TO.C,C132*%
X193107836Y-146640000D02*
X192892164Y-146640000D01*
X193107836Y-147360000D02*
X192892164Y-147360000D01*
%TO.C,C97*%
X170640000Y-135392165D02*
X170640000Y-135607837D01*
X171360000Y-135392165D02*
X171360000Y-135607837D01*
%TO.C,C41*%
X209640000Y-109392165D02*
X209640000Y-109607837D01*
X210360000Y-109392165D02*
X210360000Y-109607837D01*
%TO.C,RN12*%
X139030000Y-192000000D02*
X139030000Y-191000000D01*
X140970000Y-192000000D02*
X140970000Y-191000000D01*
%TO.C,C1*%
X134892164Y-197640000D02*
X135107836Y-197640000D01*
X134892164Y-198360000D02*
X135107836Y-198360000D01*
%TO.C,C128*%
X180107836Y-146640000D02*
X179892164Y-146640000D01*
X180107836Y-147360000D02*
X179892164Y-147360000D01*
%TO.C,C9*%
X133822120Y-111140000D02*
X133606448Y-111140000D01*
X133822120Y-111860000D02*
X133606448Y-111860000D01*
%TO.C,C175*%
X164140000Y-180892165D02*
X164140000Y-181107837D01*
X164860000Y-180892165D02*
X164860000Y-181107837D01*
%TO.C,C90*%
X147607836Y-140140000D02*
X147392164Y-140140000D01*
X147607836Y-140860000D02*
X147392164Y-140860000D01*
%TO.C,R13*%
X133560643Y-181620000D02*
X133867925Y-181620000D01*
X133560643Y-182380000D02*
X133867925Y-182380000D01*
%TO.C,C171*%
X151140000Y-180892165D02*
X151140000Y-181107837D01*
X151860000Y-180892165D02*
X151860000Y-181107837D01*
%TO.C,C23*%
X138140000Y-115892165D02*
X138140000Y-116107837D01*
X138860000Y-115892165D02*
X138860000Y-116107837D01*
%TO.C,U21*%
X128714284Y-159940000D02*
X126764284Y-159940000D01*
X128714284Y-159940000D02*
X130664284Y-159940000D01*
X128714284Y-165060000D02*
X126764284Y-165060000D01*
X128714284Y-165060000D02*
X130664284Y-165060000D01*
X131654284Y-165295000D02*
X131174284Y-165295000D01*
X131414284Y-164965000D01*
X131654284Y-165295000D01*
G36*
X131654284Y-165295000D02*
G01*
X131174284Y-165295000D01*
X131414284Y-164965000D01*
X131654284Y-165295000D01*
G37*
%TO.C,C120*%
X154107836Y-146640000D02*
X153892164Y-146640000D01*
X154107836Y-147360000D02*
X153892164Y-147360000D01*
%TO.C,C33*%
X186607836Y-114140000D02*
X186392164Y-114140000D01*
X186607836Y-114860000D02*
X186392164Y-114860000D01*
%TO.C,C164*%
X206107836Y-159640000D02*
X205892164Y-159640000D01*
X206107836Y-160360000D02*
X205892164Y-160360000D01*
%TO.C,R3*%
X133560643Y-116620000D02*
X133867925Y-116620000D01*
X133560643Y-117380000D02*
X133867925Y-117380000D01*
%TO.C,Y1*%
X137660000Y-193640000D02*
X133540000Y-193640000D01*
X137660000Y-197060000D02*
X137660000Y-193640000D01*
%TO.C,R5*%
X133560643Y-129620000D02*
X133867925Y-129620000D01*
X133560643Y-130380000D02*
X133867925Y-130380000D01*
%TO.C,RN10*%
X204030000Y-192000000D02*
X204030000Y-191000000D01*
X205970000Y-192000000D02*
X205970000Y-191000000D01*
%TO.C,RN5*%
X175030000Y-192000000D02*
X175030000Y-191000000D01*
X176970000Y-192000000D02*
X176970000Y-191000000D01*
%TO.C,C149*%
X183640000Y-161392165D02*
X183640000Y-161607837D01*
X184360000Y-161392165D02*
X184360000Y-161607837D01*
%TO.C,C13*%
X133822120Y-137140000D02*
X133606448Y-137140000D01*
X133822120Y-137860000D02*
X133606448Y-137860000D01*
%TO.C,R38*%
X123834284Y-170653641D02*
X123834284Y-170346359D01*
X124594284Y-170653641D02*
X124594284Y-170346359D01*
%TO.C,C182*%
X199607836Y-179140000D02*
X199392164Y-179140000D01*
X199607836Y-179860000D02*
X199392164Y-179860000D01*
%TO.C,RN9*%
X201030000Y-192000000D02*
X201030000Y-191000000D01*
X202970000Y-192000000D02*
X202970000Y-191000000D01*
%TO.C,C96*%
X154107836Y-133640000D02*
X153892164Y-133640000D01*
X154107836Y-134360000D02*
X153892164Y-134360000D01*
%TO.C,C166*%
X147607836Y-179140000D02*
X147392164Y-179140000D01*
X147607836Y-179860000D02*
X147392164Y-179860000D01*
%TO.C,C118*%
X160607836Y-153140000D02*
X160392164Y-153140000D01*
X160607836Y-153860000D02*
X160392164Y-153860000D01*
%TO.C,R23*%
X123834284Y-138153641D02*
X123834284Y-137846359D01*
X124594284Y-138153641D02*
X124594284Y-137846359D01*
%TO.C,C167*%
X138140000Y-180892165D02*
X138140000Y-181107837D01*
X138860000Y-180892165D02*
X138860000Y-181107837D01*
%TO.C,C39*%
X193107836Y-107640000D02*
X192892164Y-107640000D01*
X193107836Y-108360000D02*
X192892164Y-108360000D01*
%TO.C,U28*%
X145000000Y-188940000D02*
X143050000Y-188940000D01*
X145000000Y-188940000D02*
X146950000Y-188940000D01*
X145000000Y-194060000D02*
X143050000Y-194060000D01*
X145000000Y-194060000D02*
X146950000Y-194060000D01*
X142300000Y-189035000D02*
X142060000Y-188705000D01*
X142540000Y-188705000D01*
X142300000Y-189035000D01*
G36*
X142300000Y-189035000D02*
G01*
X142060000Y-188705000D01*
X142540000Y-188705000D01*
X142300000Y-189035000D01*
G37*
%TO.C,C134*%
X212607836Y-153140000D02*
X212392164Y-153140000D01*
X212607836Y-153860000D02*
X212392164Y-153860000D01*
%TO.C,C100*%
X167107836Y-133640000D02*
X166892164Y-133640000D01*
X167107836Y-134360000D02*
X166892164Y-134360000D01*
%TO.C,C145*%
X170640000Y-161392165D02*
X170640000Y-161607837D01*
X171360000Y-161392165D02*
X171360000Y-161607837D01*
%TO.C,U16*%
X119714284Y-146940000D02*
X117764284Y-146940000D01*
X119714284Y-146940000D02*
X121664284Y-146940000D01*
X119714284Y-152060000D02*
X117764284Y-152060000D01*
X119714284Y-152060000D02*
X121664284Y-152060000D01*
X122654284Y-152295000D02*
X122174284Y-152295000D01*
X122414284Y-151965000D01*
X122654284Y-152295000D01*
G36*
X122654284Y-152295000D02*
G01*
X122174284Y-152295000D01*
X122414284Y-151965000D01*
X122654284Y-152295000D01*
G37*
%TO.C,C94*%
X160607836Y-140140000D02*
X160392164Y-140140000D01*
X160607836Y-140860000D02*
X160392164Y-140860000D01*
%TO.C,C75*%
X164140000Y-128892165D02*
X164140000Y-129107837D01*
X164860000Y-128892165D02*
X164860000Y-129107837D01*
%TO.C,R11*%
X133560643Y-168620000D02*
X133867925Y-168620000D01*
X133560643Y-169380000D02*
X133867925Y-169380000D01*
%TO.C,C186*%
X212607836Y-179140000D02*
X212392164Y-179140000D01*
X212607836Y-179860000D02*
X212392164Y-179860000D01*
%TO.C,C70*%
X160607836Y-127140000D02*
X160392164Y-127140000D01*
X160607836Y-127860000D02*
X160392164Y-127860000D01*
%TO.C,C77*%
X183640000Y-122392165D02*
X183640000Y-122607837D01*
X184360000Y-122392165D02*
X184360000Y-122607837D01*
%TO.C,C180*%
X180107836Y-172640000D02*
X179892164Y-172640000D01*
X180107836Y-173360000D02*
X179892164Y-173360000D01*
%TO.C,C114*%
X147607836Y-153140000D02*
X147392164Y-153140000D01*
X147607836Y-153860000D02*
X147392164Y-153860000D01*
%TO.C,R26*%
X123834284Y-144653641D02*
X123834284Y-144346359D01*
X124594284Y-144653641D02*
X124594284Y-144346359D01*
%TO.C,R6*%
X133560643Y-123120000D02*
X133867925Y-123120000D01*
X133560643Y-123880000D02*
X133867925Y-123880000D01*
%TO.C,RN11*%
X214030000Y-192000000D02*
X214030000Y-191000000D01*
X215970000Y-192000000D02*
X215970000Y-191000000D01*
%TO.C,C20*%
X133822120Y-182640000D02*
X133606448Y-182640000D01*
X133822120Y-183360000D02*
X133606448Y-183360000D01*
%TO.C,C31*%
X167107836Y-107640000D02*
X166892164Y-107640000D01*
X167107836Y-108360000D02*
X166892164Y-108360000D01*
%TO.C,C19*%
X133822120Y-176140000D02*
X133606448Y-176140000D01*
X133822120Y-176860000D02*
X133606448Y-176860000D01*
%TO.C,C32*%
X183640000Y-109392165D02*
X183640000Y-109607837D01*
X184360000Y-109392165D02*
X184360000Y-109607837D01*
%TO.C,U18*%
X119714284Y-153440000D02*
X117764284Y-153440000D01*
X119714284Y-153440000D02*
X121664284Y-153440000D01*
X119714284Y-158560000D02*
X117764284Y-158560000D01*
X119714284Y-158560000D02*
X121664284Y-158560000D01*
X122654284Y-158795000D02*
X122174284Y-158795000D01*
X122414284Y-158465000D01*
X122654284Y-158795000D01*
G36*
X122654284Y-158795000D02*
G01*
X122174284Y-158795000D01*
X122414284Y-158465000D01*
X122654284Y-158795000D01*
G37*
%TO.C,C67*%
X138140000Y-128892165D02*
X138140000Y-129107837D01*
X138860000Y-128892165D02*
X138860000Y-129107837D01*
%TO.C,RN1*%
X104530000Y-171500000D02*
X104530000Y-172500000D01*
X106470000Y-171500000D02*
X106470000Y-172500000D01*
%TO.C,C66*%
X147607836Y-127140000D02*
X147392164Y-127140000D01*
X147607836Y-127860000D02*
X147392164Y-127860000D01*
%TO.C,C156*%
X193107836Y-159640000D02*
X192892164Y-159640000D01*
X193107836Y-160360000D02*
X192892164Y-160360000D01*
%TO.C,C43*%
X203140000Y-115892165D02*
X203140000Y-116107837D01*
X203860000Y-115892165D02*
X203860000Y-116107837D01*
%TO.C,C127*%
X177140000Y-154892165D02*
X177140000Y-155107837D01*
X177860000Y-154892165D02*
X177860000Y-155107837D01*
%TO.C,R35*%
X123834284Y-164153641D02*
X123834284Y-163846359D01*
X124594284Y-164153641D02*
X124594284Y-163846359D01*
%TO.C,U11*%
X128714284Y-127440000D02*
X126764284Y-127440000D01*
X128714284Y-127440000D02*
X130664284Y-127440000D01*
X128714284Y-132560000D02*
X126764284Y-132560000D01*
X128714284Y-132560000D02*
X130664284Y-132560000D01*
X131654284Y-132795000D02*
X131174284Y-132795000D01*
X131414284Y-132465000D01*
X131654284Y-132795000D01*
G36*
X131654284Y-132795000D02*
G01*
X131174284Y-132795000D01*
X131414284Y-132465000D01*
X131654284Y-132795000D01*
G37*
%TO.C,C144*%
X154107836Y-159640000D02*
X153892164Y-159640000D01*
X154107836Y-160360000D02*
X153892164Y-160360000D01*
%TO.C,C16*%
X133822120Y-156640000D02*
X133606448Y-156640000D01*
X133822120Y-157360000D02*
X133606448Y-157360000D01*
%TO.C,RN2*%
X152030000Y-192000000D02*
X152030000Y-191000000D01*
X153970000Y-192000000D02*
X153970000Y-191000000D01*
%TO.C,R4*%
X133560643Y-110120000D02*
X133867925Y-110120000D01*
X133560643Y-110880000D02*
X133867925Y-110880000D01*
%TO.C,U9*%
X128714284Y-120940000D02*
X126764284Y-120940000D01*
X128714284Y-120940000D02*
X130664284Y-120940000D01*
X128714284Y-126060000D02*
X126764284Y-126060000D01*
X128714284Y-126060000D02*
X130664284Y-126060000D01*
X131654284Y-126295000D02*
X131174284Y-126295000D01*
X131414284Y-125965000D01*
X131654284Y-126295000D01*
G36*
X131654284Y-126295000D02*
G01*
X131174284Y-126295000D01*
X131414284Y-125965000D01*
X131654284Y-126295000D01*
G37*
%TO.C,U1*%
X117390000Y-189390000D02*
X117390000Y-190090000D01*
X117390000Y-203610000D02*
X117390000Y-202910000D01*
X118090000Y-189390000D02*
X117390000Y-189390000D01*
X118090000Y-203610000D02*
X117390000Y-203610000D01*
X130910000Y-189390000D02*
X131610000Y-189390000D01*
X130910000Y-203610000D02*
X131610000Y-203610000D01*
X131610000Y-189390000D02*
X131610000Y-190090000D01*
X131610000Y-203610000D02*
X131610000Y-202910000D01*
X132577500Y-203380000D02*
X131897500Y-203380000D01*
X132237500Y-202910000D01*
X132577500Y-203380000D01*
G36*
X132577500Y-203380000D02*
G01*
X131897500Y-203380000D01*
X132237500Y-202910000D01*
X132577500Y-203380000D01*
G37*
%TO.C,C78*%
X186607836Y-127140000D02*
X186392164Y-127140000D01*
X186607836Y-127860000D02*
X186392164Y-127860000D01*
%TO.C,RN13*%
X149030000Y-192000000D02*
X149030000Y-191000000D01*
X150970000Y-192000000D02*
X150970000Y-191000000D01*
%TO.C,C37*%
X199607836Y-114140000D02*
X199392164Y-114140000D01*
X199607836Y-114860000D02*
X199392164Y-114860000D01*
%TO.C,C2*%
X136107836Y-192640000D02*
X135892164Y-192640000D01*
X136107836Y-193360000D02*
X135892164Y-193360000D01*
%TO.C,C123*%
X164140000Y-154892165D02*
X164140000Y-155107837D01*
X164860000Y-154892165D02*
X164860000Y-155107837D01*
%TO.C,C72*%
X154107836Y-120640000D02*
X153892164Y-120640000D01*
X154107836Y-121360000D02*
X153892164Y-121360000D01*
%TO.C,C119*%
X151140000Y-154892165D02*
X151140000Y-155107837D01*
X151860000Y-154892165D02*
X151860000Y-155107837D01*
%TO.C,C188*%
X206107836Y-172640000D02*
X205892164Y-172640000D01*
X206107836Y-173360000D02*
X205892164Y-173360000D01*
%TO.C,U8*%
X119714284Y-120940000D02*
X117764284Y-120940000D01*
X119714284Y-120940000D02*
X121664284Y-120940000D01*
X119714284Y-126060000D02*
X117764284Y-126060000D01*
X119714284Y-126060000D02*
X121664284Y-126060000D01*
X122654284Y-126295000D02*
X122174284Y-126295000D01*
X122414284Y-125965000D01*
X122654284Y-126295000D01*
G36*
X122654284Y-126295000D02*
G01*
X122174284Y-126295000D01*
X122414284Y-125965000D01*
X122654284Y-126295000D01*
G37*
%TO.C,C104*%
X180107836Y-133640000D02*
X179892164Y-133640000D01*
X180107836Y-134360000D02*
X179892164Y-134360000D01*
%TO.C,C125*%
X183640000Y-148392165D02*
X183640000Y-148607837D01*
X184360000Y-148392165D02*
X184360000Y-148607837D01*
%TO.C,R44*%
X123834284Y-183653641D02*
X123834284Y-183346359D01*
X124594284Y-183653641D02*
X124594284Y-183346359D01*
%TO.C,U22*%
X119714284Y-166440000D02*
X117764284Y-166440000D01*
X119714284Y-166440000D02*
X121664284Y-166440000D01*
X119714284Y-171560000D02*
X117764284Y-171560000D01*
X119714284Y-171560000D02*
X121664284Y-171560000D01*
X122654284Y-171795000D02*
X122174284Y-171795000D01*
X122414284Y-171465000D01*
X122654284Y-171795000D01*
G36*
X122654284Y-171795000D02*
G01*
X122174284Y-171795000D01*
X122414284Y-171465000D01*
X122654284Y-171795000D01*
G37*
%TO.C,C146*%
X173607836Y-166140000D02*
X173392164Y-166140000D01*
X173607836Y-166860000D02*
X173392164Y-166860000D01*
%TO.C,C76*%
X167107836Y-120640000D02*
X166892164Y-120640000D01*
X167107836Y-121360000D02*
X166892164Y-121360000D01*
%TO.C,C12*%
X133822120Y-130640000D02*
X133606448Y-130640000D01*
X133822120Y-131360000D02*
X133606448Y-131360000D01*
%TO.C,C38*%
X190140000Y-115892165D02*
X190140000Y-116107837D01*
X190860000Y-115892165D02*
X190860000Y-116107837D01*
%TO.C,C187*%
X203140000Y-180892165D02*
X203140000Y-181107837D01*
X203860000Y-180892165D02*
X203860000Y-181107837D01*
%TO.C,C109*%
X209640000Y-135392165D02*
X209640000Y-135607837D01*
X210360000Y-135392165D02*
X210360000Y-135607837D01*
%TO.C,C27*%
X151140000Y-115892165D02*
X151140000Y-116107837D01*
X151860000Y-115892165D02*
X151860000Y-116107837D01*
%TO.C,C135*%
X203140000Y-154892165D02*
X203140000Y-155107837D01*
X203860000Y-154892165D02*
X203860000Y-155107837D01*
%TO.C,C163*%
X203140000Y-167892165D02*
X203140000Y-168107837D01*
X203860000Y-167892165D02*
X203860000Y-168107837D01*
%TO.C,C26*%
X160607836Y-114140000D02*
X160392164Y-114140000D01*
X160607836Y-114860000D02*
X160392164Y-114860000D01*
%TO.C,C18*%
X133822120Y-169640000D02*
X133606448Y-169640000D01*
X133822120Y-170360000D02*
X133606448Y-170360000D01*
%TO.C,C71*%
X151140000Y-128892165D02*
X151140000Y-129107837D01*
X151860000Y-128892165D02*
X151860000Y-129107837D01*
%TO.C,C44*%
X206107836Y-107640000D02*
X205892164Y-107640000D01*
X206107836Y-108360000D02*
X205892164Y-108360000D01*
%TO.C,C155*%
X190140000Y-167892165D02*
X190140000Y-168107837D01*
X190860000Y-167892165D02*
X190860000Y-168107837D01*
%TO.C,R10*%
X133560643Y-148620000D02*
X133867925Y-148620000D01*
X133560643Y-149380000D02*
X133867925Y-149380000D01*
%TO.C,U29*%
X119714284Y-107940000D02*
X117764284Y-107940000D01*
X119714284Y-107940000D02*
X121664284Y-107940000D01*
X119714284Y-113060000D02*
X117764284Y-113060000D01*
X119714284Y-113060000D02*
X121664284Y-113060000D01*
X122654284Y-113295000D02*
X122174284Y-113295000D01*
X122414284Y-112965000D01*
X122654284Y-113295000D01*
G36*
X122654284Y-113295000D02*
G01*
X122174284Y-113295000D01*
X122414284Y-112965000D01*
X122654284Y-113295000D01*
G37*
%TO.C,R9*%
X133560643Y-155620000D02*
X133867925Y-155620000D01*
X133560643Y-156380000D02*
X133867925Y-156380000D01*
%TO.C,C177*%
X183640000Y-174392165D02*
X183640000Y-174607837D01*
X184360000Y-174392165D02*
X184360000Y-174607837D01*
%TO.C,C116*%
X141107836Y-146640000D02*
X140892164Y-146640000D01*
X141107836Y-147360000D02*
X140892164Y-147360000D01*
%TO.C,R50*%
X123834284Y-118653641D02*
X123834284Y-118346359D01*
X124594284Y-118653641D02*
X124594284Y-118346359D01*
%TO.C,R20*%
X123834284Y-131653641D02*
X123834284Y-131346359D01*
X124594284Y-131653641D02*
X124594284Y-131346359D01*
%TO.C,C126*%
X186607836Y-153140000D02*
X186392164Y-153140000D01*
X186607836Y-153860000D02*
X186392164Y-153860000D01*
%TO.C,C130*%
X199607836Y-153140000D02*
X199392164Y-153140000D01*
X199607836Y-153860000D02*
X199392164Y-153860000D01*
%TO.C,C74*%
X173607836Y-127140000D02*
X173392164Y-127140000D01*
X173607836Y-127860000D02*
X173392164Y-127860000D01*
%TO.C,C69*%
X157640000Y-122392165D02*
X157640000Y-122607837D01*
X158360000Y-122392165D02*
X158360000Y-122607837D01*
%TO.C,C150*%
X186607836Y-166140000D02*
X186392164Y-166140000D01*
X186607836Y-166860000D02*
X186392164Y-166860000D01*
%TO.C,C117*%
X157640000Y-148392165D02*
X157640000Y-148607837D01*
X158360000Y-148392165D02*
X158360000Y-148607837D01*
%TO.C,C181*%
X196640000Y-174392165D02*
X196640000Y-174607837D01*
X197360000Y-174392165D02*
X197360000Y-174607837D01*
%TO.C,U20*%
X119714284Y-159940000D02*
X117764284Y-159940000D01*
X119714284Y-159940000D02*
X121664284Y-159940000D01*
X119714284Y-165060000D02*
X117764284Y-165060000D01*
X119714284Y-165060000D02*
X121664284Y-165060000D01*
X122654284Y-165295000D02*
X122174284Y-165295000D01*
X122414284Y-164965000D01*
X122654284Y-165295000D01*
G36*
X122654284Y-165295000D02*
G01*
X122174284Y-165295000D01*
X122414284Y-164965000D01*
X122654284Y-165295000D01*
G37*
%TO.C,C24*%
X147607836Y-114140000D02*
X147392164Y-114140000D01*
X147607836Y-114860000D02*
X147392164Y-114860000D01*
%TO.C,C165*%
X144640000Y-174392165D02*
X144640000Y-174607837D01*
X145360000Y-174392165D02*
X145360000Y-174607837D01*
%TO.C,C178*%
X186607836Y-179140000D02*
X186392164Y-179140000D01*
X186607836Y-179860000D02*
X186392164Y-179860000D01*
%TO.C,C184*%
X193107836Y-172640000D02*
X192892164Y-172640000D01*
X193107836Y-173360000D02*
X192892164Y-173360000D01*
%TO.C,U26*%
X119714284Y-179440000D02*
X117764284Y-179440000D01*
X119714284Y-179440000D02*
X121664284Y-179440000D01*
X119714284Y-184560000D02*
X117764284Y-184560000D01*
X119714284Y-184560000D02*
X121664284Y-184560000D01*
X122654284Y-184795000D02*
X122174284Y-184795000D01*
X122414284Y-184465000D01*
X122654284Y-184795000D01*
G36*
X122654284Y-184795000D02*
G01*
X122174284Y-184795000D01*
X122414284Y-184465000D01*
X122654284Y-184795000D01*
G37*
%TO.C,C110*%
X212607836Y-140140000D02*
X212392164Y-140140000D01*
X212607836Y-140860000D02*
X212392164Y-140860000D01*
%TO.C,C42*%
X212607836Y-114140000D02*
X212392164Y-114140000D01*
X212607836Y-114860000D02*
X212392164Y-114860000D01*
%TO.C,C129*%
X196640000Y-148392165D02*
X196640000Y-148607837D01*
X197360000Y-148392165D02*
X197360000Y-148607837D01*
%TO.C,RN4*%
X165030000Y-192000000D02*
X165030000Y-191000000D01*
X166970000Y-192000000D02*
X166970000Y-191000000D01*
%TO.C,U15*%
X128714284Y-140440000D02*
X126764284Y-140440000D01*
X128714284Y-140440000D02*
X130664284Y-140440000D01*
X128714284Y-145560000D02*
X126764284Y-145560000D01*
X128714284Y-145560000D02*
X130664284Y-145560000D01*
X131654284Y-145795000D02*
X131174284Y-145795000D01*
X131414284Y-145465000D01*
X131654284Y-145795000D01*
G36*
X131654284Y-145795000D02*
G01*
X131174284Y-145795000D01*
X131414284Y-145465000D01*
X131654284Y-145795000D01*
G37*
%TO.C,C40*%
X154107836Y-107640000D02*
X153892164Y-107640000D01*
X154107836Y-108360000D02*
X153892164Y-108360000D01*
%TO.C,C113*%
X144640000Y-148392165D02*
X144640000Y-148607837D01*
X145360000Y-148392165D02*
X145360000Y-148607837D01*
%TO.C,C152*%
X180107836Y-159640000D02*
X179892164Y-159640000D01*
X180107836Y-160360000D02*
X179892164Y-160360000D01*
%TO.C,C161*%
X209640000Y-161392165D02*
X209640000Y-161607837D01*
X210360000Y-161392165D02*
X210360000Y-161607837D01*
%TO.C,C10*%
X133822120Y-117640000D02*
X133606448Y-117640000D01*
X133822120Y-118360000D02*
X133606448Y-118360000D01*
%TO.C,C143*%
X151140000Y-167892165D02*
X151140000Y-168107837D01*
X151860000Y-167892165D02*
X151860000Y-168107837D01*
%TO.C,C131*%
X190140000Y-154892165D02*
X190140000Y-155107837D01*
X190860000Y-154892165D02*
X190860000Y-155107837D01*
%TO.C,U12*%
X119714284Y-133940000D02*
X117764284Y-133940000D01*
X119714284Y-133940000D02*
X121664284Y-133940000D01*
X119714284Y-139060000D02*
X117764284Y-139060000D01*
X119714284Y-139060000D02*
X121664284Y-139060000D01*
X122654284Y-139295000D02*
X122174284Y-139295000D01*
X122414284Y-138965000D01*
X122654284Y-139295000D01*
G36*
X122654284Y-139295000D02*
G01*
X122174284Y-139295000D01*
X122414284Y-138965000D01*
X122654284Y-139295000D01*
G37*
%TO.C,C151*%
X177140000Y-167892165D02*
X177140000Y-168107837D01*
X177860000Y-167892165D02*
X177860000Y-168107837D01*
%TO.C,C124*%
X167107836Y-146640000D02*
X166892164Y-146640000D01*
X167107836Y-147360000D02*
X166892164Y-147360000D01*
%TO.C,U13*%
X128714284Y-133940000D02*
X126764284Y-133940000D01*
X128714284Y-133940000D02*
X130664284Y-133940000D01*
X128714284Y-139060000D02*
X126764284Y-139060000D01*
X128714284Y-139060000D02*
X130664284Y-139060000D01*
X131654284Y-139295000D02*
X131174284Y-139295000D01*
X131414284Y-138965000D01*
X131654284Y-139295000D01*
G36*
X131654284Y-139295000D02*
G01*
X131174284Y-139295000D01*
X131414284Y-138965000D01*
X131654284Y-139295000D01*
G37*
%TO.C,U3*%
X158000000Y-188940000D02*
X156050000Y-188940000D01*
X158000000Y-188940000D02*
X159950000Y-188940000D01*
X158000000Y-194060000D02*
X156050000Y-194060000D01*
X158000000Y-194060000D02*
X159950000Y-194060000D01*
X155300000Y-189035000D02*
X155060000Y-188705000D01*
X155540000Y-188705000D01*
X155300000Y-189035000D01*
G36*
X155300000Y-189035000D02*
G01*
X155060000Y-188705000D01*
X155540000Y-188705000D01*
X155300000Y-189035000D01*
G37*
%TO.C,C65*%
X144640000Y-122392165D02*
X144640000Y-122607837D01*
X145360000Y-122392165D02*
X145360000Y-122607837D01*
%TO.C,U4*%
X171000000Y-188940000D02*
X169050000Y-188940000D01*
X171000000Y-188940000D02*
X172950000Y-188940000D01*
X171000000Y-194060000D02*
X169050000Y-194060000D01*
X171000000Y-194060000D02*
X172950000Y-194060000D01*
X168300000Y-189035000D02*
X168060000Y-188705000D01*
X168540000Y-188705000D01*
X168300000Y-189035000D01*
G36*
X168300000Y-189035000D02*
G01*
X168060000Y-188705000D01*
X168540000Y-188705000D01*
X168300000Y-189035000D01*
G37*
%TO.C,C98*%
X173607836Y-140140000D02*
X173392164Y-140140000D01*
X173607836Y-140860000D02*
X173392164Y-140860000D01*
%TO.C,C29*%
X173607836Y-114140000D02*
X173392164Y-114140000D01*
X173607836Y-114860000D02*
X173392164Y-114860000D01*
%TO.C,C185*%
X209640000Y-174392165D02*
X209640000Y-174607837D01*
X210360000Y-174392165D02*
X210360000Y-174607837D01*
%TO.C,U14*%
X119714284Y-140440000D02*
X117764284Y-140440000D01*
X119714284Y-140440000D02*
X121664284Y-140440000D01*
X119714284Y-145560000D02*
X117764284Y-145560000D01*
X119714284Y-145560000D02*
X121664284Y-145560000D01*
X122654284Y-145795000D02*
X122174284Y-145795000D01*
X122414284Y-145465000D01*
X122654284Y-145795000D01*
G36*
X122654284Y-145795000D02*
G01*
X122174284Y-145795000D01*
X122414284Y-145465000D01*
X122654284Y-145795000D01*
G37*
%TO.C,C95*%
X151140000Y-141892165D02*
X151140000Y-142107837D01*
X151860000Y-141892165D02*
X151860000Y-142107837D01*
%TO.C,R29*%
X123834284Y-151153641D02*
X123834284Y-150846359D01*
X124594284Y-151153641D02*
X124594284Y-150846359D01*
%TO.C,U27*%
X128714284Y-179440000D02*
X126764284Y-179440000D01*
X128714284Y-179440000D02*
X130664284Y-179440000D01*
X128714284Y-184560000D02*
X126764284Y-184560000D01*
X128714284Y-184560000D02*
X130664284Y-184560000D01*
X131654284Y-184795000D02*
X131174284Y-184795000D01*
X131414284Y-184465000D01*
X131654284Y-184795000D01*
G36*
X131654284Y-184795000D02*
G01*
X131174284Y-184795000D01*
X131414284Y-184465000D01*
X131654284Y-184795000D01*
G37*
%TO.C,C14*%
X133822120Y-143640000D02*
X133606448Y-143640000D01*
X133822120Y-144360000D02*
X133606448Y-144360000D01*
%TO.C,C138*%
X147607836Y-166140000D02*
X147392164Y-166140000D01*
X147607836Y-166860000D02*
X147392164Y-166860000D01*
%TO.C,C92*%
X141107836Y-133640000D02*
X140892164Y-133640000D01*
X141107836Y-134360000D02*
X140892164Y-134360000D01*
%TO.C,C108*%
X193107836Y-133640000D02*
X192892164Y-133640000D01*
X193107836Y-134360000D02*
X192892164Y-134360000D01*
%TO.C,C103*%
X177140000Y-141892165D02*
X177140000Y-142107837D01*
X177860000Y-141892165D02*
X177860000Y-142107837D01*
%TD*%
M02*
