%TF.GenerationSoftware,KiCad,Pcbnew,9.0.4-9.0.4-0~ubuntu22.04.1*%
%TF.CreationDate,2025-09-26T09:18:54-04:00*%
%TF.ProjectId,shimarray,7368696d-6172-4726-9179-2e6b69636164,rev?*%
%TF.SameCoordinates,Original*%
%TF.FileFunction,Soldermask,Bot*%
%TF.FilePolarity,Negative*%
%FSLAX46Y46*%
G04 Gerber Fmt 4.6, Leading zero omitted, Abs format (unit mm)*
G04 Created by KiCad (PCBNEW 9.0.4-9.0.4-0~ubuntu22.04.1) date 2025-09-26 09:18:54*
%MOMM*%
%LPD*%
G01*
G04 APERTURE LIST*
G04 Aperture macros list*
%AMRoundRect*
0 Rectangle with rounded corners*
0 $1 Rounding radius*
0 $2 $3 $4 $5 $6 $7 $8 $9 X,Y pos of 4 corners*
0 Add a 4 corners polygon primitive as box body*
4,1,4,$2,$3,$4,$5,$6,$7,$8,$9,$2,$3,0*
0 Add four circle primitives for the rounded corners*
1,1,$1+$1,$2,$3*
1,1,$1+$1,$4,$5*
1,1,$1+$1,$6,$7*
1,1,$1+$1,$8,$9*
0 Add four rect primitives between the rounded corners*
20,1,$1+$1,$2,$3,$4,$5,0*
20,1,$1+$1,$4,$5,$6,$7,0*
20,1,$1+$1,$6,$7,$8,$9,0*
20,1,$1+$1,$8,$9,$2,$3,0*%
G04 Aperture macros list end*
%ADD10C,0.900000*%
%ADD11R,2.500000X0.500000*%
%ADD12R,2.500000X2.000000*%
%ADD13RoundRect,0.250000X0.650000X2.450000X-0.650000X2.450000X-0.650000X-2.450000X0.650000X-2.450000X0*%
%ADD14RoundRect,0.135000X-0.185000X0.135000X-0.185000X-0.135000X0.185000X-0.135000X0.185000X0.135000X0*%
%ADD15RoundRect,0.250000X-2.450000X0.650000X-2.450000X-0.650000X2.450000X-0.650000X2.450000X0.650000X0*%
%ADD16RoundRect,0.135000X0.185000X-0.135000X0.185000X0.135000X-0.185000X0.135000X-0.185000X-0.135000X0*%
%ADD17RoundRect,0.140000X0.170000X-0.140000X0.170000X0.140000X-0.170000X0.140000X-0.170000X-0.140000X0*%
%ADD18RoundRect,0.140000X-0.170000X0.140000X-0.170000X-0.140000X0.170000X-0.140000X0.170000X0.140000X0*%
%ADD19C,1.440000*%
%ADD20R,1.000000X1.000000*%
%ADD21C,1.000000*%
%ADD22RoundRect,0.140000X0.140000X0.170000X-0.140000X0.170000X-0.140000X-0.170000X0.140000X-0.170000X0*%
%ADD23RoundRect,0.140000X-0.140000X-0.170000X0.140000X-0.170000X0.140000X0.170000X-0.140000X0.170000X0*%
%ADD24RoundRect,0.250000X1.050000X-1.050000X1.050000X1.050000X-1.050000X1.050000X-1.050000X-1.050000X0*%
%ADD25C,2.600000*%
G04 APERTURE END LIST*
D10*
%TO.C,J3*%
X108525000Y-202200000D03*
X108525000Y-197800000D03*
D11*
X111125000Y-201600000D03*
X111125000Y-200800000D03*
X111125000Y-200000000D03*
X111125000Y-199200000D03*
X111125000Y-198400000D03*
D12*
X111125000Y-204400000D03*
X105625000Y-204400000D03*
X111125000Y-195600000D03*
X105625000Y-195600000D03*
%TD*%
D13*
%TO.C,FB134*%
X188550000Y-181500000D03*
X183450000Y-181500000D03*
%TD*%
%TO.C,FB50*%
X149550000Y-142500000D03*
X144450000Y-142500000D03*
%TD*%
D14*
%TO.C,R24*%
X129714284Y-143490000D03*
X129714284Y-144510000D03*
%TD*%
%TO.C,R42*%
X129714284Y-182490000D03*
X129714284Y-183510000D03*
%TD*%
D13*
%TO.C,FB76*%
X143050000Y-149000000D03*
X137950000Y-149000000D03*
%TD*%
%TO.C,FB120*%
X208050000Y-162000000D03*
X202950000Y-162000000D03*
%TD*%
%TO.C,FB70*%
X214550000Y-142500000D03*
X209450000Y-142500000D03*
%TD*%
D15*
%TO.C,FB93*%
X212000000Y-146450000D03*
X212000000Y-151550000D03*
%TD*%
%TO.C,FB71*%
X205500000Y-139950000D03*
X205500000Y-145050000D03*
%TD*%
D13*
%TO.C,FB114*%
X201550000Y-168500000D03*
X196450000Y-168500000D03*
%TD*%
D15*
%TO.C,FB53*%
X160000000Y-133450000D03*
X160000000Y-138550000D03*
%TD*%
D16*
%TO.C,R28*%
X129714284Y-149010000D03*
X129714284Y-147990000D03*
%TD*%
D14*
%TO.C,R27*%
X129714284Y-149990000D03*
X129714284Y-151010000D03*
%TD*%
D13*
%TO.C,FB112*%
X182050000Y-162000000D03*
X176950000Y-162000000D03*
%TD*%
D15*
%TO.C,FB119*%
X205500000Y-165950000D03*
X205500000Y-171050000D03*
%TD*%
%TO.C,FB75*%
X140500000Y-152950000D03*
X140500000Y-158050000D03*
%TD*%
%TO.C,FB89*%
X199000000Y-146450000D03*
X199000000Y-151550000D03*
%TD*%
%TO.C,FB111*%
X179500000Y-165950000D03*
X179500000Y-171050000D03*
%TD*%
%TO.C,FB103*%
X153500000Y-165950000D03*
X153500000Y-171050000D03*
%TD*%
D14*
%TO.C,R36*%
X129714284Y-169490000D03*
X129714284Y-170510000D03*
%TD*%
D13*
%TO.C,FB144*%
X208050000Y-175000000D03*
X202950000Y-175000000D03*
%TD*%
%TO.C,FB78*%
X162550000Y-155500000D03*
X157450000Y-155500000D03*
%TD*%
D15*
%TO.C,FB45*%
X212000000Y-120450000D03*
X212000000Y-125550000D03*
%TD*%
D13*
%TO.C,FB102*%
X162550000Y-168500000D03*
X157450000Y-168500000D03*
%TD*%
D15*
%TO.C,FB107*%
X166500000Y-165950000D03*
X166500000Y-171050000D03*
%TD*%
D13*
%TO.C,FB138*%
X201550000Y-181500000D03*
X196450000Y-181500000D03*
%TD*%
%TO.C,FB142*%
X214550000Y-181500000D03*
X209450000Y-181500000D03*
%TD*%
%TO.C,FB6*%
X162550000Y-116500000D03*
X157450000Y-116500000D03*
%TD*%
D15*
%TO.C,FB5*%
X160000000Y-107450000D03*
X160000000Y-112550000D03*
%TD*%
%TO.C,FB25*%
X147000000Y-120450000D03*
X147000000Y-125550000D03*
%TD*%
D17*
%TO.C,C50*%
X127714284Y-137480000D03*
X127714284Y-136520000D03*
%TD*%
D18*
%TO.C,C4*%
X130500000Y-197520000D03*
X130500000Y-198480000D03*
%TD*%
D15*
%TO.C,FB77*%
X160000000Y-146450000D03*
X160000000Y-151550000D03*
%TD*%
%TO.C,FB43*%
X192500000Y-126950000D03*
X192500000Y-132050000D03*
%TD*%
D18*
%TO.C,C63*%
X127714284Y-180020000D03*
X127714284Y-180980000D03*
%TD*%
D13*
%TO.C,FB96*%
X208050000Y-149000000D03*
X202950000Y-149000000D03*
%TD*%
%TO.C,FB128*%
X156050000Y-175000000D03*
X150950000Y-175000000D03*
%TD*%
D16*
%TO.C,R37*%
X129714284Y-168510000D03*
X129714284Y-167490000D03*
%TD*%
D18*
%TO.C,C51*%
X127714284Y-141020000D03*
X127714284Y-141980000D03*
%TD*%
D13*
%TO.C,FB17*%
X201550000Y-116500000D03*
X196450000Y-116500000D03*
%TD*%
D15*
%TO.C,FB105*%
X173000000Y-159450000D03*
X173000000Y-164550000D03*
%TD*%
D13*
%TO.C,FB140*%
X195050000Y-175000000D03*
X189950000Y-175000000D03*
%TD*%
%TO.C,FB19*%
X195050000Y-110000000D03*
X189950000Y-110000000D03*
%TD*%
D18*
%TO.C,C47*%
X127714284Y-128020000D03*
X127714284Y-128980000D03*
%TD*%
D13*
%TO.C,FB42*%
X201550000Y-129500000D03*
X196450000Y-129500000D03*
%TD*%
%TO.C,FB108*%
X169050000Y-162000000D03*
X163950000Y-162000000D03*
%TD*%
D15*
%TO.C,FB95*%
X205500000Y-152950000D03*
X205500000Y-158050000D03*
%TD*%
D13*
%TO.C,FB22*%
X214550000Y-116500000D03*
X209450000Y-116500000D03*
%TD*%
D15*
%TO.C,FB27*%
X140500000Y-126950000D03*
X140500000Y-132050000D03*
%TD*%
%TO.C,FB10*%
X166500000Y-113950000D03*
X166500000Y-119050000D03*
%TD*%
D13*
%TO.C,FB40*%
X182050000Y-123000000D03*
X176950000Y-123000000D03*
%TD*%
D15*
%TO.C,FB69*%
X212000000Y-133450000D03*
X212000000Y-138550000D03*
%TD*%
D19*
%TO.C,RV1*%
X112540000Y-178995000D03*
X110000000Y-178995000D03*
X107460000Y-178995000D03*
%TD*%
D13*
%TO.C,FB15*%
X182050000Y-110000000D03*
X176950000Y-110000000D03*
%TD*%
D15*
%TO.C,FB18*%
X192500000Y-113950000D03*
X192500000Y-119050000D03*
%TD*%
%TO.C,FB31*%
X153500000Y-126950000D03*
X153500000Y-132050000D03*
%TD*%
D13*
%TO.C,FB24*%
X208050000Y-110000000D03*
X202950000Y-110000000D03*
%TD*%
%TO.C,FB118*%
X214550000Y-168500000D03*
X209450000Y-168500000D03*
%TD*%
%TO.C,FB11*%
X169050000Y-110000000D03*
X163950000Y-110000000D03*
%TD*%
%TO.C,FB122*%
X149550000Y-181500000D03*
X144450000Y-181500000D03*
%TD*%
%TO.C,FB54*%
X162550000Y-142500000D03*
X157450000Y-142500000D03*
%TD*%
D15*
%TO.C,FB129*%
X173000000Y-172450000D03*
X173000000Y-177550000D03*
%TD*%
%TO.C,FB12*%
X186000000Y-107450000D03*
X186000000Y-112550000D03*
%TD*%
D14*
%TO.C,R15*%
X129714284Y-123990000D03*
X129714284Y-125010000D03*
%TD*%
D15*
%TO.C,FB55*%
X153500000Y-139950000D03*
X153500000Y-145050000D03*
%TD*%
%TO.C,FB23*%
X205500000Y-113950000D03*
X205500000Y-119050000D03*
%TD*%
D20*
%TO.C,J2*%
X134730000Y-204000000D03*
D21*
X134730000Y-205270000D03*
X136000000Y-204000000D03*
X136000000Y-205270000D03*
X137270000Y-204000000D03*
X137270000Y-205270000D03*
X138540000Y-204000000D03*
X138540000Y-205270000D03*
X139810000Y-204000000D03*
X139810000Y-205270000D03*
X141080000Y-204000000D03*
X141080000Y-205270000D03*
X142350000Y-204000000D03*
X142350000Y-205270000D03*
%TD*%
D17*
%TO.C,C52*%
X127714284Y-143980000D03*
X127714284Y-143020000D03*
%TD*%
D15*
%TO.C,FB99*%
X140500000Y-165950000D03*
X140500000Y-171050000D03*
%TD*%
%TO.C,FB49*%
X147000000Y-133450000D03*
X147000000Y-138550000D03*
%TD*%
%TO.C,FB63*%
X179500000Y-139950000D03*
X179500000Y-145050000D03*
%TD*%
%TO.C,FB125*%
X160000000Y-172450000D03*
X160000000Y-177550000D03*
%TD*%
%TO.C,FB79*%
X153500000Y-152950000D03*
X153500000Y-158050000D03*
%TD*%
%TO.C,FB139*%
X192500000Y-178950000D03*
X192500000Y-184050000D03*
%TD*%
D13*
%TO.C,FB64*%
X182050000Y-136000000D03*
X176950000Y-136000000D03*
%TD*%
D15*
%TO.C,FB113*%
X199000000Y-159450000D03*
X199000000Y-164550000D03*
%TD*%
D13*
%TO.C,FB82*%
X175550000Y-155500000D03*
X170450000Y-155500000D03*
%TD*%
%TO.C,FB30*%
X162550000Y-129500000D03*
X157450000Y-129500000D03*
%TD*%
D15*
%TO.C,FB41*%
X199000000Y-120450000D03*
X199000000Y-125550000D03*
%TD*%
%TO.C,FB131*%
X166500000Y-178950000D03*
X166500000Y-184050000D03*
%TD*%
D13*
%TO.C,FB13*%
X188550000Y-116500000D03*
X183450000Y-116500000D03*
%TD*%
D18*
%TO.C,C49*%
X127714284Y-134520000D03*
X127714284Y-135480000D03*
%TD*%
D13*
%TO.C,FB106*%
X175550000Y-168500000D03*
X170450000Y-168500000D03*
%TD*%
D18*
%TO.C,C55*%
X127750000Y-154020000D03*
X127750000Y-154980000D03*
%TD*%
D16*
%TO.C,R46*%
X129714284Y-110010000D03*
X129714284Y-108990000D03*
%TD*%
D22*
%TO.C,C5*%
X130480000Y-202500000D03*
X129520000Y-202500000D03*
%TD*%
D17*
%TO.C,C54*%
X127714284Y-150480000D03*
X127714284Y-149520000D03*
%TD*%
D13*
%TO.C,FB104*%
X156050000Y-162000000D03*
X150950000Y-162000000D03*
%TD*%
D17*
%TO.C,C62*%
X127714284Y-176480000D03*
X127714284Y-175520000D03*
%TD*%
D18*
%TO.C,C53*%
X127714284Y-147520000D03*
X127714284Y-148480000D03*
%TD*%
D13*
%TO.C,FB52*%
X143050000Y-136000000D03*
X137950000Y-136000000D03*
%TD*%
D15*
%TO.C,FB73*%
X147000000Y-146450000D03*
X147000000Y-151550000D03*
%TD*%
D13*
%TO.C,FB46*%
X214550000Y-129500000D03*
X209450000Y-129500000D03*
%TD*%
%TO.C,FB124*%
X143050000Y-175000000D03*
X137950000Y-175000000D03*
%TD*%
D17*
%TO.C,C60*%
X127714284Y-169980000D03*
X127714284Y-169020000D03*
%TD*%
D13*
%TO.C,FB66*%
X201550000Y-142500000D03*
X196450000Y-142500000D03*
%TD*%
D15*
%TO.C,FB101*%
X160000000Y-159450000D03*
X160000000Y-164550000D03*
%TD*%
D18*
%TO.C,C45*%
X127714284Y-121520000D03*
X127714284Y-122480000D03*
%TD*%
D13*
%TO.C,FB9*%
X175550000Y-116500000D03*
X170450000Y-116500000D03*
%TD*%
%TO.C,FB38*%
X188550000Y-129500000D03*
X183450000Y-129500000D03*
%TD*%
D15*
%TO.C,FB109*%
X186000000Y-159450000D03*
X186000000Y-164550000D03*
%TD*%
D18*
%TO.C,C57*%
X127714284Y-160520000D03*
X127714284Y-161480000D03*
%TD*%
D13*
%TO.C,FB56*%
X156050000Y-136000000D03*
X150950000Y-136000000D03*
%TD*%
%TO.C,FB132*%
X169050000Y-175000000D03*
X163950000Y-175000000D03*
%TD*%
%TO.C,FB74*%
X149550000Y-155500000D03*
X144450000Y-155500000D03*
%TD*%
D15*
%TO.C,FB59*%
X166500000Y-139950000D03*
X166500000Y-145050000D03*
%TD*%
D16*
%TO.C,R25*%
X129714284Y-142510000D03*
X129714284Y-141490000D03*
%TD*%
D13*
%TO.C,FB28*%
X143050000Y-123000000D03*
X137950000Y-123000000D03*
%TD*%
D14*
%TO.C,R45*%
X129714284Y-110990000D03*
X129714284Y-112010000D03*
%TD*%
D15*
%TO.C,FB21*%
X212000000Y-107450000D03*
X212000000Y-112550000D03*
%TD*%
D16*
%TO.C,R34*%
X129714284Y-162010000D03*
X129714284Y-160990000D03*
%TD*%
D23*
%TO.C,C6*%
X117020000Y-193500000D03*
X117980000Y-193500000D03*
%TD*%
D13*
%TO.C,FB86*%
X188550000Y-155500000D03*
X183450000Y-155500000D03*
%TD*%
%TO.C,FB84*%
X169050000Y-149000000D03*
X163950000Y-149000000D03*
%TD*%
D17*
%TO.C,C158*%
X127714284Y-111480000D03*
X127714284Y-110520000D03*
%TD*%
D15*
%TO.C,FB51*%
X140500000Y-139950000D03*
X140500000Y-145050000D03*
%TD*%
D13*
%TO.C,FB36*%
X169050000Y-123000000D03*
X163950000Y-123000000D03*
%TD*%
D15*
%TO.C,FB87*%
X179500000Y-152950000D03*
X179500000Y-158050000D03*
%TD*%
D16*
%TO.C,R40*%
X129714284Y-175010000D03*
X129714284Y-173990000D03*
%TD*%
D15*
%TO.C,FB91*%
X192500000Y-152950000D03*
X192500000Y-158050000D03*
%TD*%
D18*
%TO.C,C159*%
X127714284Y-115020000D03*
X127714284Y-115980000D03*
%TD*%
D15*
%TO.C,FB127*%
X153500000Y-178950000D03*
X153500000Y-184050000D03*
%TD*%
D16*
%TO.C,R19*%
X129714284Y-129510000D03*
X129714284Y-128490000D03*
%TD*%
D14*
%TO.C,R33*%
X129714284Y-162990000D03*
X129714284Y-164010000D03*
%TD*%
D13*
%TO.C,FB62*%
X188550000Y-142500000D03*
X183450000Y-142500000D03*
%TD*%
D15*
%TO.C,FB137*%
X199000000Y-172450000D03*
X199000000Y-177550000D03*
%TD*%
D13*
%TO.C,FB116*%
X195050000Y-162000000D03*
X189950000Y-162000000D03*
%TD*%
D18*
%TO.C,C61*%
X127714284Y-173520000D03*
X127714284Y-174480000D03*
%TD*%
D13*
%TO.C,FB34*%
X175550000Y-129500000D03*
X170450000Y-129500000D03*
%TD*%
D15*
%TO.C,FB141*%
X212000000Y-172450000D03*
X212000000Y-177550000D03*
%TD*%
D13*
%TO.C,FB48*%
X208050000Y-123000000D03*
X202950000Y-123000000D03*
%TD*%
%TO.C,FB4*%
X149550000Y-116500000D03*
X144450000Y-116500000D03*
%TD*%
D17*
%TO.C,C3*%
X118500000Y-202480000D03*
X118500000Y-201520000D03*
%TD*%
D15*
%TO.C,FB35*%
X166500000Y-126950000D03*
X166500000Y-132050000D03*
%TD*%
D13*
%TO.C,FB92*%
X195050000Y-149000000D03*
X189950000Y-149000000D03*
%TD*%
D15*
%TO.C,FB97*%
X147000000Y-159450000D03*
X147000000Y-164550000D03*
%TD*%
%TO.C,FB47*%
X205500000Y-126950000D03*
X205500000Y-132050000D03*
%TD*%
D13*
%TO.C,FB1*%
X143050000Y-110000000D03*
X137950000Y-110000000D03*
%TD*%
D15*
%TO.C,FB121*%
X147000000Y-172450000D03*
X147000000Y-177550000D03*
%TD*%
D13*
%TO.C,FB98*%
X149550000Y-168500000D03*
X144450000Y-168500000D03*
%TD*%
D14*
%TO.C,R18*%
X129714284Y-130490000D03*
X129714284Y-131510000D03*
%TD*%
D15*
%TO.C,FB3*%
X140500000Y-113950000D03*
X140500000Y-119050000D03*
%TD*%
D23*
%TO.C,C7*%
X118270000Y-190250000D03*
X119230000Y-190250000D03*
%TD*%
D13*
%TO.C,FB130*%
X175550000Y-181500000D03*
X170450000Y-181500000D03*
%TD*%
D15*
%TO.C,FB7*%
X153500000Y-113950000D03*
X153500000Y-119050000D03*
%TD*%
D13*
%TO.C,FB126*%
X162550000Y-181500000D03*
X157450000Y-181500000D03*
%TD*%
D17*
%TO.C,C46*%
X127714284Y-124480000D03*
X127714284Y-123520000D03*
%TD*%
D13*
%TO.C,FB136*%
X182050000Y-175000000D03*
X176950000Y-175000000D03*
%TD*%
D15*
%TO.C,FB67*%
X192500000Y-139950000D03*
X192500000Y-145050000D03*
%TD*%
D17*
%TO.C,C58*%
X127714284Y-163480000D03*
X127714284Y-162520000D03*
%TD*%
D13*
%TO.C,FB58*%
X175550000Y-142500000D03*
X170450000Y-142500000D03*
%TD*%
%TO.C,FB20*%
X156050000Y-110000000D03*
X150950000Y-110000000D03*
%TD*%
D16*
%TO.C,R31*%
X129714284Y-155510000D03*
X129714284Y-154490000D03*
%TD*%
D15*
%TO.C,FB8*%
X173000000Y-107450000D03*
X173000000Y-112550000D03*
%TD*%
%TO.C,FB37*%
X186000000Y-120450000D03*
X186000000Y-125550000D03*
%TD*%
D14*
%TO.C,R30*%
X129714284Y-156490000D03*
X129714284Y-157510000D03*
%TD*%
D15*
%TO.C,FB29*%
X160000000Y-120450000D03*
X160000000Y-125550000D03*
%TD*%
D13*
%TO.C,FB94*%
X214550000Y-155500000D03*
X209450000Y-155500000D03*
%TD*%
D15*
%TO.C,FB16*%
X199000000Y-107450000D03*
X199000000Y-112550000D03*
%TD*%
%TO.C,FB123*%
X140500000Y-178950000D03*
X140500000Y-184050000D03*
%TD*%
%TO.C,FB65*%
X199000000Y-133450000D03*
X199000000Y-138550000D03*
%TD*%
D14*
%TO.C,R48*%
X129714284Y-117490000D03*
X129714284Y-118510000D03*
%TD*%
D18*
%TO.C,C8*%
X130750000Y-192020000D03*
X130750000Y-192980000D03*
%TD*%
D15*
%TO.C,FB33*%
X173000000Y-120450000D03*
X173000000Y-125550000D03*
%TD*%
D16*
%TO.C,R49*%
X129714284Y-116510000D03*
X129714284Y-115490000D03*
%TD*%
D13*
%TO.C,FB110*%
X188550000Y-168500000D03*
X183450000Y-168500000D03*
%TD*%
%TO.C,FB26*%
X149550000Y-129500000D03*
X144450000Y-129500000D03*
%TD*%
D17*
%TO.C,C64*%
X127714284Y-182980000D03*
X127714284Y-182020000D03*
%TD*%
D16*
%TO.C,R43*%
X129714284Y-181510000D03*
X129714284Y-180490000D03*
%TD*%
D13*
%TO.C,FB80*%
X156050000Y-149000000D03*
X150950000Y-149000000D03*
%TD*%
D15*
%TO.C,FB39*%
X179500000Y-126950000D03*
X179500000Y-132050000D03*
%TD*%
D18*
%TO.C,C59*%
X127714284Y-167020000D03*
X127714284Y-167980000D03*
%TD*%
D13*
%TO.C,FB100*%
X143050000Y-162000000D03*
X137950000Y-162000000D03*
%TD*%
D15*
%TO.C,FB115*%
X192500000Y-165950000D03*
X192500000Y-171050000D03*
%TD*%
D14*
%TO.C,R21*%
X129714284Y-136990000D03*
X129714284Y-138010000D03*
%TD*%
D15*
%TO.C,FB81*%
X173000000Y-146450000D03*
X173000000Y-151550000D03*
%TD*%
D24*
%TO.C,J4*%
X109500000Y-163000000D03*
D25*
X109500000Y-158000000D03*
X109500000Y-153000000D03*
X109500000Y-148000000D03*
X109500000Y-143000000D03*
%TD*%
D15*
%TO.C,FB85*%
X186000000Y-146450000D03*
X186000000Y-151550000D03*
%TD*%
%TO.C,FB135*%
X179500000Y-178950000D03*
X179500000Y-184050000D03*
%TD*%
D17*
%TO.C,C160*%
X127714284Y-117980000D03*
X127714284Y-117020000D03*
%TD*%
D18*
%TO.C,C157*%
X127714284Y-108520000D03*
X127714284Y-109480000D03*
%TD*%
D13*
%TO.C,FB60*%
X169050000Y-136000000D03*
X163950000Y-136000000D03*
%TD*%
D17*
%TO.C,C56*%
X127750000Y-156980000D03*
X127750000Y-156020000D03*
%TD*%
D13*
%TO.C,FB68*%
X195050000Y-136000000D03*
X189950000Y-136000000D03*
%TD*%
D15*
%TO.C,FB14*%
X179500000Y-113950000D03*
X179500000Y-119050000D03*
%TD*%
%TO.C,FB83*%
X166500000Y-152950000D03*
X166500000Y-158050000D03*
%TD*%
%TO.C,FB2*%
X147000000Y-107450000D03*
X147000000Y-112550000D03*
%TD*%
%TO.C,FB61*%
X186000000Y-133450000D03*
X186000000Y-138550000D03*
%TD*%
D13*
%TO.C,FB44*%
X195050000Y-123000000D03*
X189950000Y-123000000D03*
%TD*%
D15*
%TO.C,FB117*%
X212000000Y-159450000D03*
X212000000Y-164550000D03*
%TD*%
D13*
%TO.C,FB88*%
X182050000Y-149000000D03*
X176950000Y-149000000D03*
%TD*%
D15*
%TO.C,FB133*%
X186000000Y-172450000D03*
X186000000Y-177550000D03*
%TD*%
D13*
%TO.C,FB72*%
X208050000Y-136000000D03*
X202950000Y-136000000D03*
%TD*%
%TO.C,FB32*%
X156050000Y-123000000D03*
X150950000Y-123000000D03*
%TD*%
D14*
%TO.C,R39*%
X129714284Y-175990000D03*
X129714284Y-177010000D03*
%TD*%
D17*
%TO.C,C48*%
X127714284Y-130980000D03*
X127714284Y-130020000D03*
%TD*%
D16*
%TO.C,R16*%
X129714284Y-123010000D03*
X129714284Y-121990000D03*
%TD*%
D13*
%TO.C,FB90*%
X201550000Y-155500000D03*
X196450000Y-155500000D03*
%TD*%
D15*
%TO.C,FB143*%
X205500000Y-178950000D03*
X205500000Y-184050000D03*
%TD*%
D16*
%TO.C,R22*%
X129714284Y-136010000D03*
X129714284Y-134990000D03*
%TD*%
D15*
%TO.C,FB57*%
X173000000Y-133450000D03*
X173000000Y-138550000D03*
%TD*%
M02*
